<?xml version="1.0" encoding="UTF-8"?>
<svg xmlns="http://www.w3.org/2000/svg" viewBox="0 0 360 230">
  <g isolation="isolate">
    <g id="Layer_7" data-name="Layer 7">
      <g>
        <path d="m332.85,2c4.39,0,7.95,3.56,7.95,7.95v203.95H19.8V9.95c0-4.39,3.56-7.95,7.95-7.95h305.1M332.85,0H27.76C22.27,0,17.8,4.46,17.8,9.95v205.95h325V9.95C342.8,4.46,338.34,0,332.85,0h0Z" fill="#94a3b8" stroke-width="0"/>
        <path d="m332.85,2c4.39,0,7.95,3.56,7.95,7.95v203.95H19.8V9.95c0-4.39,3.56-7.95,7.95-7.95h305.1M332.85,0H27.76C22.27,0,17.8,4.46,17.8,9.95v205.95h325V9.95C342.8,4.46,338.34,0,332.85,0h0Z" fill="#94a3b8" stroke-width="0"/>
        <path d="m332.85,2H27.76c-4.39,0-7.95,3.56-7.95,7.95v203.95h321V9.95c0-4.39-3.56-7.95-7.95-7.95Zm.95,204.9H26.8V9.95c0-.53.43-.95.95-.95h134.98v1.69c0,1.42,1.15,2.57,2.57,2.57h29.99c1.42,0,2.57-1.15,2.57-2.57v-1.69h134.98c.53,0,.95.43.95.95v196.95Z" fill="#020617" stroke-width="0"/>
        <path d="m332.85,2H27.76c-4.39,0-7.95,3.56-7.95,7.95v203.95h321V9.95c0-4.39-3.56-7.95-7.95-7.95Zm.95,204.9H26.8V9.95c0-.53.43-.95.95-.95h134.98v1.69c0,1.42,1.15,2.57,2.57,2.57h29.99c1.42,0,2.57-1.15,2.57-2.57v-1.69h134.98c.53,0,.95.43.95.95v196.95Z" fill="#020617" stroke-width="0"/>
        <path d="m50.74,230h-17.11c-2.18,0-3.94-.45-3.94-1h25c0,.55-1.77,1-3.94,1Z" fill="#020617" stroke-width="0"/>
        <path d="m50.74,230h-17.11c-2.18,0-3.94-.45-3.94-1h25c0,.55-1.77,1-3.94,1Z" fill="#020617" stroke-width="0"/>
        <path d="m324.17,230h-17.11c-2.18,0-3.94-.45-3.94-1h25c0,.55-1.77,1-3.94,1Z" fill="#020617" stroke-width="0"/>
        <path d="m324.17,230h-17.11c-2.18,0-3.94-.45-3.94-1h25c0,.55-1.77,1-3.94,1Z" fill="#020617" stroke-width="0"/>
        <path d="m0,214h360v8.83c0,3.4-2.76,6.17-6.17,6.17H6.17C2.76,229,0,226.24,0,222.83v-8.83H0Z" fill="#94a3b8" stroke-width="0"/>
        <path d="m0,214h360v8.83c0,3.4-2.76,6.17-6.17,6.17H6.17C2.76,229,0,226.24,0,222.83v-8.83H0Z" fill="#94a3b8" stroke-width="0"/>
        <path d="m151.5,214h52v1.04c0,3.2-2.59,5.79-5.79,5.79h-40.42c-3.2,0-5.79-2.59-5.79-5.79v-1.04h0Z" fill="#64748b" stroke-width="0"/>
        <path d="m151.5,214h52v1.04c0,3.2-2.59,5.79-5.79,5.79h-40.42c-3.2,0-5.79-2.59-5.79-5.79v-1.04h0Z" fill="#64748b" stroke-width="0"/>
        <path d="m180.3,6.6c.41,0,.75.34.75.75s-.34.75-.75.75-.75-.34-.75-.75.34-.75.75-.75m0-1.25c-1.1,0-2,.9-2,2s.9,2,2,2,2-.9,2-2-.9-2-2-2h0Z" fill="#1e293b" stroke-width="0"/>
      </g>
      <path d="m360,214h-17.2V9.95C342.8,4.46,338.34,0,332.85,0H27.76C22.27,0,17.8,4.46,17.8,9.95v204.05H0v8.83c0,3.41,2.76,6.17,6.17,6.17h23.51c0,.41.99.77,2.41.92.47.05.99.08,1.54.08h17.11c2.18,0,3.94-.45,3.94-1h248.43c0,.28.44.53,1.16.71s1.7.29,2.79.29h17.11c1.09,0,2.08-.11,2.79-.29.71-.18,1.16-.43,1.16-.71h25.72c3.41,0,6.17-2.76,6.17-6.17v-8.83h0Zm-26.2-204.05v196.95H26.8V9.95c0-.53.43-.95.95-.95h134.98v1.69c0,1.42,1.15,2.57,2.57,2.57h29.99c1.42,0,2.57-1.15,2.57-2.57v-1.69h134.98c.53,0,.95.43.95.95Z" fill="#111827" mix-blend-mode="multiply" opacity=".5" stroke-width="0"/>
    </g>
  </g>
</svg>