<?xml version="1.0" encoding="UTF-8"?>
<svg xmlns="http://www.w3.org/2000/svg" viewBox="0 0 65 131">
  <g isolation="isolate">
    <g id="Layer_9" data-name="Layer 9">
      <g>
        <path d="m52.69.5c6.24,0,11.3,5.02,11.3,11.21v107.58c0,6.19-5.06,11.21-11.3,11.21H12.31c-6.24,0-11.3-5.02-11.3-11.21V11.71C1.01,5.52,6.07.5,12.31.5h40.39m0-.5H12.31C5.8,0,.5,5.25.5,11.71v107.58c0,6.46,5.3,11.71,11.81,11.71h40.39c6.51,0,11.81-5.25,11.81-11.71V11.71c0-6.46-5.3-11.71-11.81-11.71h0Z" fill="#94a3b8" stroke-width="0"/>
        <path d="m52.7.5H12.3C6.06.5,1,5.52,1,11.71v107.58c0,6.19,5.06,11.21,11.3,11.21h40.4c6.24,0,11.3-5.02,11.3-11.21V11.71c0-6.19-5.06-11.21-11.3-11.21Zm9.27,118.79c0,5.07-4.16,9.19-9.27,9.19H12.3c-5.11,0-9.27-4.12-9.27-9.19V11.71C3.03,6.64,7.19,2.52,12.3,2.52h40.4c5.11,0,9.27,4.12,9.27,9.19v107.58Z" fill="#030712" stroke-width="0"/>
        <path d="m64.5,41.48h.04c.26,0,.46.21.46.46v16.08c0,.26-.21.46-.46.46h-.04v-17h0Z" fill="#64748b" stroke-width="0"/>
        <path d="m.41,23.92h.09v7h-.09c-.23,0-.41-.19-.41-.41v-6.17c0-.23.19-.41.41-.41Z" fill="#64748b" stroke-width="0"/>
        <path d="m.45,34.35h.05v11h-.05c-.25,0-.45-.2-.45-.45v-10.1c0-.25.2-.45.45-.45Z" fill="#64748b" stroke-width="0"/>
        <path d="m.45,47.31h.05v11h-.05c-.25,0-.45-.2-.45-.45v-10.1c0-.25.2-.45.45-.45Z" fill="#64748b" stroke-width="0"/>
        <rect x="22.69" y="3.91" width="19.12" height="6.25" rx="3.12" ry="3.12" fill="#020617" stroke-width="0"/>
        <path d="m38.61,6.29c.41,0,.75.34.75.75s-.34.75-.75.75-.75-.34-.75-.75.34-.75.75-.75m0-1.25c-1.1,0-2,.9-2,2s.9,2,2,2,2-.9,2-2-.9-2-2-2h0Z" fill="#1e293b" stroke-width="0"/>
        <path d="m52.7.5H12.3C6.06.5,1,5.52,1,11.71v107.58c0,6.19,5.06,11.21,11.3,11.21h40.4c6.24,0,11.3-5.02,11.3-11.21V11.71c0-6.19-5.06-11.21-11.3-11.21Zm9.27,118.79c0,5.07-4.16,9.19-9.27,9.19H12.3c-5.11,0-9.27-4.12-9.27-9.19V11.71C3.03,6.64,7.19,2.52,12.3,2.52h40.4c5.11,0,9.27,4.12,9.27,9.19v107.58Z" fill="#020617" stroke-width="0"/>
      </g>
      <g mix-blend-mode="multiply" opacity=".5">
        <path d="m64.54,41.48h-.04V11.71C64.5,5.25,59.2,0,52.69,0H12.31C5.8,0,.5,5.25.5,11.71v12.21h-.09C.19,23.92,0,24.11,0,24.33v6.17c0,.23.19.41.41.41h.09v3.43h-.05C.2,34.35,0,34.55,0,34.8v10.1c0,.25.2.45.45.45h.05v1.96h-.05C.2,47.31,0,47.51,0,47.76v10.1c0,.25.2.45.45.45h.05v60.98c0,6.46,5.3,11.71,11.81,11.71h40.39c6.51,0,11.81-5.25,11.81-11.71v-60.81h.04c.26,0,.46-.21.46-.46v-16.08c0-.26-.21-.46-.46-.46Zm-2.57-29.77v107.58c0,5.07-4.16,9.19-9.27,9.19H12.3c-5.11,0-9.27-4.12-9.27-9.19V11.71C3.03,6.64,7.19,2.52,12.3,2.52h40.4c5.11,0,9.27,4.12,9.27,9.19Z" fill="#111827" stroke-width="0"/>
        <path d="m38.69,3.91h-12.88c-1.72,0-3.12,1.4-3.12,3.12s1.4,3.12,3.12,3.12h12.88c1.72,0,3.12-1.4,3.12-3.12s-1.4-3.12-3.12-3.12Z" fill="#111827" stroke-width="0"/>
      </g>
    </g>
  </g>
</svg>