<?xml version="1.0" encoding="UTF-8"?>
<svg id="laptop" xmlns="http://www.w3.org/2000/svg" viewBox="0 0 360 230">
  <path d="m332.55,2c4.39,0,7.95,3.56,7.95,7.95v203.95H19.5V9.95c0-4.39,3.56-7.95,7.95-7.95h305.1M332.55,0H27.45C21.96,0,17.5,4.46,17.5,9.95v205.95h325V9.95C342.5,4.46,338.04,0,332.55,0h0Z" fill="#94a3b8" stroke-width="0"/>
  <path d="m332.55,2H27.45c-4.39,0-7.95,3.56-7.95,7.95v203.95h321V9.95c0-4.39-3.56-7.95-7.95-7.95Zm.95,204.9H26.5V9.95c0-.53.43-.95.95-.95h134.98v1.69c0,1.42,1.15,2.57,2.57,2.57h29.99c1.42,0,2.57-1.15,2.57-2.57v-1.69h134.98c.53,0,.95.43.95.95v196.95Z" fill="#020617" stroke-width="0"/>
  <path d="m50.43,230h-17.11c-2.18,0-3.94-.45-3.94-1h25c0,.55-1.77,1-3.94,1Z" fill="#020617" stroke-width="0"/>
  <path d="m323.87,230h-17.11c-2.18,0-3.94-.45-3.94-1h25c0,.55-1.77,1-3.94,1Z" fill="#020617" stroke-width="0"/>
  <path d="m-.3,214h360v8.83c0,3.4-2.76,6.17-6.17,6.17H5.86c-3.4,0-6.17-2.76-6.17-6.17v-8.83H-.3Z" fill="#94a3b8" stroke-width="0"/>
  <path d="m151.2,214h52v1.04c0,3.2-2.59,5.79-5.79,5.79h-40.42c-3.2,0-5.79-2.59-5.79-5.79v-1.04h0Z" fill="#64748b" stroke-width="0"/>
  <path d="m180,6.6c.41,0,.75.34.75.75s-.34.75-.75.75-.75-.34-.75-.75.34-.75.75-.75m0-1.25c-1.1,0-2,.9-2,2s.9,2,2,2,2-.9,2-2-.9-2-2-2h0Z" fill="#1e293b" stroke-width="0"/>
</svg>