<?xml version="1.0" encoding="UTF-8"?>
<svg id="tablet" xmlns="http://www.w3.org/2000/svg" viewBox="0 0 162.5 225.5">
  <path d="m150.44,225.5H11.56c-6.38,0-11.56-5.19-11.56-11.56V12.06C0,5.69,5.19.5,11.56.5h138.87c6.38,0,11.56,5.19,11.56,11.56v201.87c0,6.38-5.19,11.56-11.56,11.56ZM11.56,2.5C6.29,2.5,2,6.79,2,12.06v201.87c0,5.27,4.29,9.56,9.56,9.56h138.87c5.27,0,9.56-4.29,9.56-9.56V12.06c0-5.27-4.29-9.56-9.56-9.56H11.56Z" fill="#94a3b8" stroke-width="0"/>
  <path d="m150.44,1.5H11.56C5.73,1.5,1,6.23,1,12.06v201.87c0,5.83,4.73,10.56,10.56,10.56h138.87c5.83,0,10.56-4.73,10.56-10.56V12.06c0-5.83-4.73-10.56-10.56-10.56Zm3.56,212.44c0,1.97-1.6,3.56-3.56,3.56H11.56c-1.97,0-3.56-1.6-3.56-3.56V12.06c0-1.97,1.6-3.56,3.56-3.56h138.87c1.97,0,3.56,1.6,3.56,3.56v201.87Z" fill="#020617" stroke-width="0"/>
  <path d="m137,.5c0-.28.31-.5.68-.5h11.63c.38,0,.68.22.68.5h-13Z" fill="#4b5563" stroke-width="0"/>
  <path d="m162,17c.28,0,.5.24.5.53v8.95c0,.29-.22.53-.5.53v-10Z" fill="#64748b" stroke-width="0"/>
  <path d="m162,28c.28,0,.5.24.5.53v8.95c0,.29-.22.53-.5.53v-10Z" fill="#64748b" stroke-width="0"/>
  <path d="m80.74,4.36c.41,0,.75.34.75.75s-.34.75-.75.75-.75-.34-.75-.75.34-.75.75-.75m0-1.25c-1.1,0-2,.9-2,2s.9,2,2,2,2-.9,2-2-.9-2-2-2h0Z" fill="#1e293b" stroke-width="0"/>
</svg>