<?xml version="1.0" encoding="UTF-8"?>
<svg id="laptop-dark" xmlns="http://www.w3.org/2000/svg" viewBox="0 0 1440 960">
  <rect y="52.46" width="1440" height="907.54" fill="#374151" stroke-width="0"/>
  <rect y="52.46" width="1440" height="450" fill="#4b5563" stroke-width="0"/>
  <rect x="108" y="82.46" width="240" height="80" fill="#9ca3af" stroke-width="0"/>
  <g>
    <rect x="1252" y="112.46" width="80" height="20" fill="#9ca3af" stroke-width="0"/>
    <rect x="1152" y="112.46" width="80" height="20" fill="#9ca3af" stroke-width="0"/>
    <rect x="1052" y="112.46" width="80" height="20" fill="#9ca3af" stroke-width="0"/>
    <rect x="952" y="112.46" width="80" height="20" fill="#9ca3af" stroke-width="0"/>
    <rect x="852" y="112.46" width="80" height="20" fill="#9ca3af" stroke-width="0"/>
    <rect x="752" y="112.46" width="80" height="20" fill="#9ca3af" stroke-width="0"/>
  </g>
  <g>
    <rect x="302.14" y="212.46" width="835.71" height="60" fill="#9ca3af" stroke-width="0"/>
    <rect x="349.29" y="292.46" width="741.43" height="60" fill="#9ca3af" stroke-width="0"/>
  </g>
  <rect x="620" y="408.18" width="200" height="40" fill="#9ca3af" stroke-width="0"/>
  <path d="m109.33,607.21h380v253.33H109.33v-253.33Z" fill="#4b5563" stroke-width="0"/>
  <path d="m333.23,704.46l-72.73,72.73-33.91-33.91-117.27,117.27h380l-156.1-156.09Z" fill="#9ca3af" isolation="isolate" opacity=".68" stroke-width="0"/>
  <circle cx="166.04" cy="668.31" r="26.92" fill="#9ca3af" isolation="isolate" opacity=".68" stroke-width="0"/>
  <rect x="109.33" y="890.32" width="380" height="46.68" fill="#9ca3af" isolation="isolate" stroke-width="0"/>
  <path d="m530,607.21h380v253.33h-380v-253.33Z" fill="#4b5563" stroke-width="0"/>
  <path d="m753.9,704.46l-72.73,72.73-33.91-33.91-117.27,117.27h380l-156.1-156.09Z" fill="#9ca3af" isolation="isolate" opacity=".68" stroke-width="0"/>
  <circle cx="586.71" cy="668.31" r="26.92" fill="#9ca3af" isolation="isolate" opacity=".68" stroke-width="0"/>
  <rect x="530" y="890.32" width="380" height="46.68" fill="#9ca3af" isolation="isolate" stroke-width="0"/>
  <path d="m952,607.21h380v253.33h-380v-253.33Z" fill="#4b5563" stroke-width="0"/>
  <path d="m1175.9,704.46l-72.73,72.73-33.91-33.91-117.27,117.27h380l-156.1-156.09Z" fill="#9ca3af" isolation="isolate" opacity=".68" stroke-width="0"/>
  <circle cx="1008.71" cy="668.31" r="26.92" fill="#9ca3af" isolation="isolate" opacity=".68" stroke-width="0"/>
  <rect x="952" y="890.32" width="380" height="46.68" fill="#9ca3af" isolation="isolate" stroke-width="0"/>
  <rect y=".46" width="1440" height="52" fill="#6b7280" stroke-width="0"/>
  <rect x="429" y="13.96" width="582" height="27" rx="5.78" ry="5.78" fill="#9ca3af" stroke-width="0"/>
  <g>
    <circle cx="26" cy="26.46" r="6" fill="#f77171" stroke-width="0"/>
    <circle cx="45.5" cy="26.46" r="6" fill="#fabe24" stroke-width="0"/>
    <circle cx="65" cy="26.46" r="6" fill="#a2e535" stroke-width="0"/>
  </g>
  <g>
    <path d="m676.25,25.47l1.27,3.43c.13.38.28.84.37,1.19h.02c.11-.35.23-.79.37-1.21l1.15-3.41h1.12l-1.58,4.14c-.75,1.99-1.27,3.01-1.99,3.63-.52.46-1.03.64-1.3.68l-.26-.89c.26-.08.61-.25.92-.52.29-.23.65-.64.89-1.18.05-.11.08-.19.08-.25s-.02-.14-.07-.28l-2.15-5.35h1.15Z" fill="#f9f9f9" stroke-width="0"/>
    <path d="m686.65,28.32c0,2.15-1.49,3.08-2.89,3.08-1.57,0-2.78-1.15-2.78-2.99,0-1.94,1.27-3.08,2.88-3.08s2.79,1.21,2.79,2.99Zm-4.61.06c0,1.27.73,2.23,1.76,2.23s1.76-.95,1.76-2.25c0-.98-.49-2.23-1.74-2.23s-1.79,1.15-1.79,2.25Z" fill="#f9f9f9" stroke-width="0"/>
    <path d="m692.84,29.69c0,.6.01,1.13.05,1.58h-.94l-.06-.95h-.02c-.28.47-.89,1.08-1.92,1.08-.91,0-2-.5-2-2.54v-3.39h1.05v3.21c0,1.1.34,1.85,1.3,1.85.71,0,1.2-.49,1.39-.96.06-.16.1-.35.1-.54v-3.56h1.05v4.22Z" fill="#f9f9f9" stroke-width="0"/>
    <path d="m694.6,27.28c0-.68-.01-1.27-.05-1.81h.92l.04,1.14h.05c.26-.78.9-1.27,1.61-1.27.12,0,.2.01.3.04v1c-.11-.02-.22-.04-.36-.04-.74,0-1.27.56-1.42,1.36-.02.14-.05.31-.05.49v3.09h-1.04v-3.99Z" fill="#f9f9f9" stroke-width="0"/>
    <path d="m699.24,25.47l.77,2.95c.17.65.32,1.25.43,1.85h.04c.13-.59.32-1.21.52-1.83l.95-2.96h.89l.9,2.9c.22.7.38,1.31.52,1.89h.04c.1-.59.25-1.2.44-1.88l.83-2.91h1.04l-1.87,5.8h-.96l-.89-2.77c-.2-.65-.37-1.22-.52-1.91h-.02c-.14.7-.32,1.29-.53,1.92l-.94,2.76h-.96l-1.75-5.8h1.08Z" fill="#f9f9f9" stroke-width="0"/>
    <path d="m708.12,28.56c.02,1.43.94,2.02,1.99,2.02.76,0,1.21-.13,1.61-.3l.18.76c-.37.17-1.01.36-1.93.36-1.79,0-2.85-1.17-2.85-2.93s1.03-3.13,2.72-3.13c1.89,0,2.4,1.67,2.4,2.73,0,.22-.02.38-.04.49h-4.08Zm3.09-.76c.01-.67-.28-1.71-1.46-1.71-1.07,0-1.54.98-1.62,1.71h3.08Z" fill="#f9f9f9" stroke-width="0"/>
    <path d="m713.5,31.27c.02-.4.05-.98.05-1.5v-7.02h1.04v3.65h.02c.37-.65,1.04-1.07,1.98-1.07,1.44,0,2.46,1.2,2.45,2.96,0,2.08-1.31,3.11-2.6,3.11-.84,0-1.51-.32-1.94-1.09h-.04l-.05.96h-.91Zm1.09-2.33c0,.13.02.26.05.38.2.73.82,1.24,1.58,1.24,1.1,0,1.76-.9,1.76-2.23,0-1.16-.6-2.16-1.73-2.16-.72,0-1.39.49-1.61,1.3-.02.12-.06.26-.06.43v1.04Z" fill="#f9f9f9" stroke-width="0"/>
    <path d="m720.23,30.19c.31.21.86.42,1.39.42.77,0,1.13-.38,1.13-.86s-.3-.78-1.08-1.07c-1.04-.37-1.54-.95-1.54-1.64,0-.93.76-1.7,2-1.7.59,0,1.1.17,1.43.36l-.26.77c-.23-.14-.65-.33-1.19-.33-.62,0-.97.36-.97.79,0,.48.35.7,1.1.98,1.01.38,1.52.89,1.52,1.75,0,1.02-.79,1.74-2.17,1.74-.64,0-1.22-.16-1.63-.4l.26-.8Z" fill="#f9f9f9" stroke-width="0"/>
    <path d="m726.3,23.84c.01.36-.25.65-.67.65-.37,0-.64-.29-.64-.65s.28-.66.66-.66.65.29.65.66Zm-1.17,7.44v-5.8h1.05v5.8h-1.05Z" fill="#f9f9f9" stroke-width="0"/>
    <path d="m729.2,23.8v1.67h1.51v.8h-1.51v3.13c0,.72.2,1.13.79,1.13.28,0,.48-.04.61-.07l.05.79c-.2.08-.53.14-.94.14-.49,0-.89-.16-1.14-.44-.3-.31-.41-.83-.41-1.51v-3.17h-.9v-.8h.9v-1.39l1.03-.28Z" fill="#f9f9f9" stroke-width="0"/>
    <path d="m732.42,28.56c.02,1.43.94,2.02,1.99,2.02.76,0,1.21-.13,1.61-.3l.18.76c-.37.17-1.01.36-1.93.36-1.79,0-2.85-1.17-2.85-2.93s1.03-3.13,2.72-3.13c1.89,0,2.4,1.67,2.4,2.73,0,.22-.02.38-.04.49h-4.08Zm3.09-.76c.01-.67-.28-1.71-1.46-1.71-1.07,0-1.54.98-1.62,1.71h3.08Z" fill="#f9f9f9" stroke-width="0"/>
    <path d="m737.45,30.65c0-.44.3-.76.72-.76s.71.31.71.76-.28.75-.72.75c-.42,0-.71-.32-.71-.75Z" fill="#f9f9f9" stroke-width="0"/>
    <path d="m745.44,28.32c0,2.15-1.49,3.08-2.89,3.08-1.57,0-2.78-1.15-2.78-2.99,0-1.94,1.27-3.08,2.88-3.08s2.79,1.21,2.79,2.99Zm-4.61.06c0,1.27.73,2.23,1.76,2.23s1.76-.95,1.76-2.25c0-.98-.49-2.23-1.74-2.23s-1.79,1.15-1.79,2.25Z" fill="#f9f9f9" stroke-width="0"/>
    <path d="m746.77,27.28c0-.68-.01-1.27-.05-1.81h.92l.04,1.14h.05c.26-.78.9-1.27,1.61-1.27.12,0,.2.01.3.04v1c-.11-.02-.22-.04-.36-.04-.74,0-1.27.56-1.42,1.36-.02.14-.05.31-.05.49v3.09h-1.04v-3.99Z" fill="#f9f9f9" stroke-width="0"/>
    <path d="m755.6,25.47c-.02.42-.05.89-.05,1.6v3.37c0,1.33-.26,2.15-.83,2.65-.56.53-1.38.7-2.11.7s-1.46-.17-1.93-.48l.26-.8c.38.24.98.46,1.7.46,1.08,0,1.87-.56,1.87-2.03v-.65h-.02c-.32.54-.95.97-1.85.97-1.44,0-2.47-1.22-2.47-2.83,0-1.97,1.28-3.08,2.61-3.08,1.01,0,1.56.53,1.81,1.01h.02l.05-.88h.92Zm-1.09,2.29c0-.18-.01-.34-.06-.48-.19-.61-.71-1.12-1.48-1.12-1.01,0-1.73.85-1.73,2.2,0,1.14.58,2.09,1.71,2.09.65,0,1.24-.41,1.46-1.08.06-.18.08-.38.08-.56v-1.04Z" fill="#f9f9f9" stroke-width="0"/>
  </g>
</svg>