<?xml version="1.0" encoding="UTF-8"?>
<svg id="mobile-dark" xmlns="http://www.w3.org/2000/svg" viewBox="0 0 360 780">
  <rect y="90" width="360" height="690" fill="#374151" stroke-width="0"/>
  <rect y="90" width="360" height="360" fill="#4b5563" stroke-width="0"/>
  <rect x="18.28" y="108.66" width="120" height="40" fill="#9ca3af" stroke-width="0"/>
  <g>
    <rect x="18.71" y="199.63" width="323.43" height="60" fill="#9ca3af" stroke-width="0"/>
    <rect x="18.71" y="280.03" width="323.43" height="60" fill="#9ca3af" stroke-width="0"/>
  </g>
  <rect x="80.43" y="378.62" width="200" height="40" fill="#9ca3af" stroke-width="0"/>
  <path d="m17.2,502.93h325.6v217.07H17.2v-217.07Z" fill="#4b5563" stroke-width="0"/>
  <path d="m209.05,586.26l-62.31,62.31-29.05-29.05-100.48,100.48h325.6l-133.75-133.74Z" fill="#9ca3af" isolation="isolate" opacity=".68" stroke-width="0"/>
  <circle cx="65.79" cy="555.28" r="23.07" fill="#9ca3af" isolation="isolate" opacity=".68" stroke-width="0"/>
  <g>
    <rect x="301.84" y="113.89" width="40" height="4" fill="#9ca3af" stroke-width="0"/>
    <rect x="301.84" y="126.66" width="40" height="4" fill="#9ca3af" stroke-width="0"/>
    <rect x="301.84" y="139.43" width="40" height="4" fill="#9ca3af" stroke-width="0"/>
  </g>
  <rect width="360" height="90.76" fill="#6b7280" stroke-width="0"/>
  <g>
    <rect x="17.86" y="55.22" width="324.28" height="27" rx="4.43" ry="4.43" fill="#9ca3af" stroke-width="0"/>
    <g>
      <path d="m141.03,72.76l-.16.43c-.48,1.31-1.08,1.71-2.12,1.71-.19,0-.4-.02-.57-.05v-.82c.1.01.29.02.45.02.7,0,1.04-.24,1.21-.89l.09-.33-2.27-6.25h1.12l1.66,5.04h.04l1.67-5.04h1.07c-.06.2-2.19,6.18-2.2,6.19Z" fill="#fff" stroke-width="0"/>
      <path d="m149.18,69.37v.55c0,1.67-.91,2.91-2.64,2.91s-2.65-1.24-2.65-2.91v-.55c0-1.65.93-2.89,2.65-2.89s2.64,1.25,2.64,2.89Zm-4.28.04v.48c0,1.25.58,2.07,1.64,2.07s1.63-.81,1.63-2.07v-.48c0-1.26-.57-2.07-1.63-2.07s-1.64.81-1.64,2.07Z" fill="#fff" stroke-width="0"/>
      <path d="m155.64,72.73h-1v-.81h-.04c-.22.49-.8.91-1.78.91-1.27,0-2.18-.73-2.18-2.14v-4.12h1.01v3.83c0,1.15.66,1.52,1.47,1.52.88,0,1.51-.56,1.51-1.54v-3.81h1.01v6.16Z" fill="#fff" stroke-width="0"/>
      <path d="m157.44,66.57h1.01v.76h.03c.18-.37.64-.85,1.52-.85.13,0,.26.01.38.03v.92c-.11-.02-.3-.02-.49-.02-1.09,0-1.43.68-1.43,1.51v3.81h-1.01v-6.16Z" fill="#fff" stroke-width="0"/>
      <path d="m167.9,72.73h-1.04l-1.41-4.75h-.02l-1.4,4.75h-1.05l-1.61-6.16h1.02l1.13,4.87h.05l1.39-4.87h.96l1.39,4.87h.05l1.13-4.87h1.02l-1.61,6.16Z" fill="#fff" stroke-width="0"/>
      <path d="m170.39,69.95v-.69c0-1.62.92-2.78,2.54-2.78s2.54,1.16,2.54,2.85v.57h-4.07v.11c0,1.17.6,1.97,1.6,1.97.71,0,1.18-.36,1.38-.93h1c-.23,1.02-1.05,1.78-2.41,1.78-1.61,0-2.58-1.13-2.58-2.88Zm4.07-.86v-.02c0-.98-.6-1.75-1.52-1.75s-1.54.78-1.54,1.75v.02h3.06Z" fill="#fff" stroke-width="0"/>
      <path d="m178,71.8h-.03v.93h-.97v-8.42h1.01v3.11h.03c.32-.53,1.03-.94,1.81-.94,1.44,0,2.44,1.02,2.44,2.87v.6c0,1.78-.97,2.88-2.46,2.88-.88,0-1.48-.39-1.84-1.03Zm3.28-1.91v-.49c0-1.33-.64-2.05-1.56-2.05-1.07,0-1.72.71-1.72,2.05v.47c0,1.34.64,2.07,1.72,2.07.93,0,1.56-.74,1.56-2.06Z" fill="#fff" stroke-width="0"/>
      <path d="m185.87,66.47c1.45,0,2.19.83,2.19,1.85h-.94c-.04-.47-.33-1.02-1.29-1.02-.73,0-1.26.32-1.26.93,0,.69.81.84,1.52.97,1.15.21,2.13.52,2.13,1.72s-.99,1.92-2.44,1.92c-1.35,0-2.3-.65-2.3-1.76h.98c.09.56.57.93,1.39.93.94,0,1.37-.45,1.37-.97,0-.7-.69-.83-1.55-1-1.15-.23-2.09-.59-2.09-1.7,0-1.3,1.1-1.86,2.28-1.86Z" fill="#fff" stroke-width="0"/>
      <path d="m190.22,64.44c.36,0,.65.28.65.64s-.29.64-.65.64-.64-.28-.64-.64.29-.64.64-.64Zm-.5,2.13h1.01v6.16h-1.01v-6.16Z" fill="#fff" stroke-width="0"/>
      <path d="m192.96,65.04h1v1.54h1.22v.84h-1.22v3.6c0,.74.25.93,1,.93.1,0,.18,0,.26-.01v.81c-.09.02-.3.04-.51.04-1.46,0-1.76-.56-1.76-1.78v-3.59h-.83v-.84h.83v-1.54Z" fill="#fff" stroke-width="0"/>
      <path d="m196.37,69.95v-.69c0-1.62.92-2.78,2.54-2.78s2.54,1.16,2.54,2.85v.57h-4.07v.11c0,1.17.6,1.97,1.6,1.97.71,0,1.18-.36,1.38-.93h1c-.23,1.02-1.05,1.78-2.41,1.78-1.61,0-2.58-1.13-2.58-2.88Zm4.07-.86v-.02c0-.98-.6-1.75-1.52-1.75s-1.54.78-1.54,1.75v.02h3.06Z" fill="#fff" stroke-width="0"/>
      <path d="m203.49,71.49c.38,0,.68.3.68.68s-.3.67-.68.67-.67-.3-.67-.67.3-.68.67-.68Z" fill="#fff" stroke-width="0"/>
      <path d="m210.83,69.37v.55c0,1.67-.91,2.91-2.64,2.91s-2.65-1.24-2.65-2.91v-.55c0-1.65.93-2.89,2.65-2.89s2.64,1.25,2.64,2.89Zm-4.28.04v.48c0,1.25.58,2.07,1.64,2.07s1.63-.81,1.63-2.07v-.48c0-1.26-.57-2.07-1.63-2.07s-1.64.81-1.64,2.07Z" fill="#fff" stroke-width="0"/>
      <path d="m212.38,66.57h1.01v.76h.03c.18-.37.64-.85,1.52-.85.13,0,.26.01.38.03v.92c-.11-.02-.3-.02-.49-.02-1.09,0-1.43.68-1.43,1.51v3.81h-1.01v-6.16Z" fill="#fff" stroke-width="0"/>
      <path d="m220.44,72.61v-.91h-.03c-.25.53-.92.97-1.76.97-1.44,0-2.46-1.01-2.46-2.85v-.51c0-1.81,1.01-2.83,2.46-2.83.84,0,1.51.44,1.79.96h.03v-.87h.97v6.05c0,1.58-1.22,2.37-2.62,2.37-1.56,0-2.36-.77-2.5-1.8h1.03c.11.5.63.96,1.48.96.97,0,1.61-.57,1.61-1.54Zm-3.24-3.22v.38c0,1.28.61,2.04,1.65,2.04s1.59-.77,1.59-2.04v-.38c0-1.25-.62-2.04-1.59-2.04-1.04,0-1.65.74-1.65,2.04Z" fill="#fff" stroke-width="0"/>
    </g>
  </g>
  <rect x="17.2" y="740" width="325.6" height="40" fill="#9ca3af" stroke-width="0"/>
</svg>