<?xml version="1.0" encoding="UTF-8"?>
<svg id="tablet-light" xmlns="http://www.w3.org/2000/svg" viewBox="0 0 768 1099.4">
  <rect x="0" y="52" width="768" height="1047.4" fill="#fff" stroke-width="0"/>
  <rect x="0" y="52" width="768" height="375.74" fill="#d1d5db" stroke-width="0"/>
  <rect x="38.4" y="67" width="180" height="60" fill="#f3f4f6" stroke-width="0"/>
  <g>
    <rect x="123.12" y="184.98" width="521.76" height="47.05" fill="#f3f4f6" stroke-width="0"/>
    <rect x="152.55" y="247.71" width="462.89" height="47.05" fill="#f3f4f6" stroke-width="0"/>
  </g>
  <rect x="284" y="328.82" width="200" height="40" fill="#f3f4f6" stroke-width="0"/>
  <path d="m404,487.19h325.6v217.07h-325.6v-217.07Z" fill="#d1d5db" stroke-width="0"/>
  <path d="m595.85,570.52l-62.31,62.31-29.05-29.05-100.48,100.48h325.6l-133.75-133.74Z" fill="#f3f4f6" isolation="isolate" opacity=".68" stroke-width="0"/>
  <circle cx="452.59" cy="539.54" r="23.07" fill="#f3f4f6" isolation="isolate" opacity=".68" stroke-width="0"/>
  <rect x="404" y="864.73" width="325.6" height="20" fill="#d1d5db" stroke-width="0"/>
  <g>
    <rect x="404" y="729.77" width="325.6" height="40" fill="#d1d5db" stroke-width="0"/>
    <rect x="417.22" y="788.95" width="299.16" height="40" fill="#d1d5db" stroke-width="0"/>
  </g>
  <rect x="423.69" y="901.06" width="286.22" height="20" fill="#d1d5db" stroke-width="0"/>
  <rect x="454.3" y="942.53" width="225" height="50" fill="#d1d5db" stroke-width="0"/>
  <path d="m38.4,487.19h325.6v217.07H38.4v-217.07Z" fill="#d1d5db" stroke-width="0"/>
  <path d="m230.25,570.52l-62.31,62.31-29.05-29.05-100.48,100.48h325.6l-133.75-133.74Z" fill="#f3f4f6" isolation="isolate" opacity=".68" stroke-width="0"/>
  <circle cx="86.99" cy="539.54" r="23.07" fill="#f3f4f6" isolation="isolate" opacity=".68" stroke-width="0"/>
  <rect x="38.4" y="864.73" width="325.6" height="20" fill="#d1d5db" stroke-width="0"/>
  <g>
    <rect x="38.4" y="729.77" width="325.6" height="40" fill="#d1d5db" stroke-width="0"/>
    <rect x="51.62" y="788.95" width="299.16" height="40" fill="#d1d5db" stroke-width="0"/>
  </g>
  <rect x="58.09" y="901.06" width="286.22" height="20" fill="#d1d5db" stroke-width="0"/>
  <rect x="88.7" y="942.53" width="225" height="50" fill="#d1d5db" stroke-width="0"/>
  <g>
    <rect x="689.6" y="82.23" width="40" height="4" fill="#f3f4f6" stroke-width="0"/>
    <rect x="689.6" y="95" width="40" height="4" fill="#f3f4f6" stroke-width="0"/>
    <rect x="689.6" y="107.77" width="40" height="4" fill="#f3f4f6" stroke-width="0"/>
  </g>
  <rect y="1" width="768" height="52" fill="#e5e7eb" stroke-width="0"/>
  <rect x="93" y="14.5" width="582" height="27" rx="5.78" ry="5.78" fill="#fff" stroke-width="0"/>
  <g>
    <path d="m342.38,31.84l-.16.43c-.48,1.31-1.08,1.71-2.12,1.71-.19,0-.4-.02-.57-.05v-.82c.1.01.29.02.45.02.7,0,1.04-.24,1.21-.89l.09-.33-2.27-6.25h1.12l1.66,5.04h.04l1.67-5.04h1.07c-.06.2-2.19,6.18-2.2,6.19Z" fill="#27272a" stroke-width="0"/>
    <path d="m350.53,28.45v.55c0,1.67-.91,2.91-2.64,2.91s-2.65-1.24-2.65-2.91v-.55c0-1.65.93-2.89,2.65-2.89s2.64,1.25,2.64,2.89Zm-4.28.04v.48c0,1.25.58,2.07,1.64,2.07s1.63-.81,1.63-2.07v-.48c0-1.26-.57-2.07-1.63-2.07s-1.64.81-1.64,2.07Z" fill="#27272a" stroke-width="0"/>
    <path d="m356.99,31.81h-1v-.81h-.04c-.22.49-.8.91-1.78.91-1.27,0-2.18-.73-2.18-2.14v-4.12h1.01v3.83c0,1.15.66,1.52,1.47,1.52.88,0,1.51-.56,1.51-1.54v-3.81h1.01v6.16Z" fill="#27272a" stroke-width="0"/>
    <path d="m358.79,25.66h1.01v.76h.03c.18-.37.64-.85,1.52-.85.13,0,.26.01.38.03v.92c-.11-.02-.3-.02-.49-.02-1.09,0-1.43.68-1.43,1.51v3.81h-1.01v-6.16Z" fill="#27272a" stroke-width="0"/>
    <path d="m369.25,31.81h-1.04l-1.41-4.75h-.02l-1.4,4.75h-1.05l-1.61-6.16h1.02l1.13,4.87h.05l1.39-4.87h.96l1.39,4.87h.05l1.13-4.87h1.02l-1.61,6.16Z" fill="#27272a" stroke-width="0"/>
    <path d="m371.74,29.03v-.69c0-1.62.92-2.78,2.54-2.78s2.54,1.16,2.54,2.85v.57h-4.07v.11c0,1.17.6,1.97,1.6,1.97.71,0,1.18-.36,1.38-.93h1c-.23,1.02-1.05,1.78-2.41,1.78-1.61,0-2.58-1.13-2.58-2.88Zm4.07-.86v-.02c0-.98-.6-1.75-1.52-1.75s-1.54.78-1.54,1.75v.02h3.06Z" fill="#27272a" stroke-width="0"/>
    <path d="m379.35,30.89h-.03v.93h-.97v-8.42h1.01v3.11h.03c.32-.53,1.03-.94,1.81-.94,1.44,0,2.44,1.02,2.44,2.87v.6c0,1.78-.97,2.88-2.46,2.88-.88,0-1.48-.39-1.84-1.03Zm3.28-1.91v-.49c0-1.33-.64-2.05-1.56-2.05-1.07,0-1.72.71-1.72,2.05v.47c0,1.34.64,2.07,1.72,2.07.93,0,1.56-.74,1.56-2.06Z" fill="#27272a" stroke-width="0"/>
    <path d="m387.22,25.56c1.45,0,2.19.83,2.19,1.85h-.94c-.04-.47-.33-1.02-1.29-1.02-.73,0-1.26.32-1.26.93,0,.69.81.84,1.52.97,1.15.21,2.13.52,2.13,1.72s-.99,1.92-2.44,1.92c-1.35,0-2.3-.65-2.3-1.76h.98c.09.56.57.93,1.39.93.94,0,1.37-.45,1.37-.97,0-.7-.69-.83-1.55-1-1.15-.23-2.09-.59-2.09-1.7,0-1.3,1.1-1.86,2.28-1.86Z" fill="#27272a" stroke-width="0"/>
    <path d="m391.57,23.53c.36,0,.65.28.65.64s-.29.64-.65.64-.64-.28-.64-.64.29-.64.64-.64Zm-.5,2.13h1.01v6.16h-1.01v-6.16Z" fill="#27272a" stroke-width="0"/>
    <path d="m394.31,24.12h1v1.54h1.22v.84h-1.22v3.6c0,.74.25.93,1,.93.1,0,.18,0,.26-.01v.81c-.09.02-.3.04-.51.04-1.46,0-1.76-.56-1.76-1.78v-3.59h-.83v-.84h.83v-1.54Z" fill="#27272a" stroke-width="0"/>
    <path d="m397.72,29.03v-.69c0-1.62.92-2.78,2.54-2.78s2.54,1.16,2.54,2.85v.57h-4.07v.11c0,1.17.6,1.97,1.6,1.97.71,0,1.18-.36,1.38-.93h1c-.23,1.02-1.05,1.78-2.41,1.78-1.61,0-2.58-1.13-2.58-2.88Zm4.07-.86v-.02c0-.98-.6-1.75-1.52-1.75s-1.54.78-1.54,1.75v.02h3.06Z" fill="#27272a" stroke-width="0"/>
    <path d="m404.84,30.57c.38,0,.68.3.68.68s-.3.67-.68.67-.67-.3-.67-.67.3-.68.67-.68Z" fill="#27272a" stroke-width="0"/>
    <path d="m412.18,28.45v.55c0,1.67-.91,2.91-2.64,2.91s-2.65-1.24-2.65-2.91v-.55c0-1.65.93-2.89,2.65-2.89s2.64,1.25,2.64,2.89Zm-4.28.04v.48c0,1.25.58,2.07,1.64,2.07s1.63-.81,1.63-2.07v-.48c0-1.26-.57-2.07-1.63-2.07s-1.64.81-1.64,2.07Z" fill="#27272a" stroke-width="0"/>
    <path d="m413.73,25.66h1.01v.76h.03c.18-.37.64-.85,1.52-.85.13,0,.26.01.38.03v.92c-.11-.02-.3-.02-.49-.02-1.09,0-1.43.68-1.43,1.51v3.81h-1.01v-6.16Z" fill="#27272a" stroke-width="0"/>
    <path d="m421.79,31.69v-.91h-.03c-.25.53-.92.97-1.76.97-1.44,0-2.46-1.01-2.46-2.85v-.51c0-1.81,1.01-2.83,2.46-2.83.84,0,1.51.44,1.79.96h.03v-.87h.97v6.05c0,1.58-1.22,2.37-2.62,2.37-1.56,0-2.36-.77-2.5-1.8h1.03c.11.5.63.96,1.48.96.97,0,1.61-.57,1.61-1.54Zm-3.24-3.22v.38c0,1.28.61,2.04,1.65,2.04s1.59-.77,1.59-2.04v-.38c0-1.25-.62-2.04-1.59-2.04-1.04,0-1.65.74-1.65,2.04Z" fill="#27272a" stroke-width="0"/>
  </g>
  <g>
    <path d="m749.25,0H18.75C8.41,0,0,8.41,0,18.75v1061.9C0,1090.99,8.41,1099.4,18.75,1099.4h19.65v-59.61h325.6v59.61h40v-59.61h325.6v59.61h19.65c10.34,0,18.75-8.41,18.75-18.75V18.75c0-10.34-8.41-18.75-18.75-18.75Z" fill="none" stroke-width="0"/>
    <path d="m404,1039.79v59.61h26.69c-.76-2.28-1.17-4.72-1.17-7.26,0-12.74,10.33-23.07,23.07-23.07s23.07,10.33,23.07,23.07c0,2.54-.42,4.97-1.17,7.26h255.11v-59.61h-325.6Z" fill="#d1d5db" stroke-width="0"/>
    <path d="m452.59,1069.07c-12.74,0-23.07,10.33-23.07,23.07,0,2.54.42,4.97,1.17,7.26h43.8c.76-2.28,1.17-4.72,1.17-7.26,0-12.74-10.33-23.07-23.07-23.07Z" fill="#d1d5db" stroke-width="0"/>
    <path d="m452.59,1069.07c-12.74,0-23.07,10.33-23.07,23.07,0,2.54.42,4.97,1.17,7.26h43.8c.76-2.28,1.17-4.72,1.17-7.26,0-12.74-10.33-23.07-23.07-23.07Z" fill="#f3f4f6" isolation="isolate" opacity=".68" stroke-width="0"/>
    <path d="m38.4,1039.79v59.61h26.69c-.76-2.28-1.17-4.72-1.17-7.26,0-12.74,10.33-23.07,23.07-23.07s23.07,10.33,23.07,23.07c0,2.54-.42,4.97-1.17,7.26h255.11v-59.61H38.4Z" fill="#d1d5db" stroke-width="0"/>
    <path d="m86.99,1069.07c-12.74,0-23.07,10.33-23.07,23.07,0,2.54.42,4.97,1.17,7.26h43.8c.76-2.28,1.17-4.72,1.17-7.26,0-12.74-10.33-23.07-23.07-23.07Z" fill="#d1d5db" stroke-width="0"/>
    <path d="m86.99,1069.07c-12.74,0-23.07,10.33-23.07,23.07,0,2.54.42,4.97,1.17,7.26h43.8c.76-2.28,1.17-4.72,1.17-7.26,0-12.74-10.33-23.07-23.07-23.07Z" fill="#f3f4f6" isolation="isolate" opacity=".68" stroke-width="0"/>
  </g>
</svg>