<?xml version="1.0" encoding="UTF-8"?>
<svg id="tablet-dark" xmlns="http://www.w3.org/2000/svg" viewBox="0 0 768 1099.4">
  <rect y="52" width="768" height="1047.4" fill="#374151" stroke-width="0"/>
  <rect y="52" width="768" height="375.74" fill="#4b5563" stroke-width="0"/>
  <rect x="38.4" y="67" width="180" height="60" fill="#9ca3af" stroke-width="0"/>
  <g>
    <rect x="123.12" y="184.98" width="521.76" height="47.05" fill="#9ca3af" stroke-width="0"/>
    <rect x="152.55" y="247.71" width="462.89" height="47.05" fill="#9ca3af" stroke-width="0"/>
  </g>
  <rect x="284" y="328.82" width="200" height="40" fill="#9ca3af" stroke-width="0"/>
  <path d="m404,487.19h325.6v217.07h-325.6v-217.07Z" fill="#4b5563" stroke-width="0"/>
  <path d="m595.85,570.52l-62.31,62.31-29.05-29.05-100.48,100.48h325.6l-133.75-133.74Z" fill="#9ca3af" isolation="isolate" opacity=".68" stroke-width="0"/>
  <circle cx="452.59" cy="539.54" r="23.07" fill="#9ca3af" isolation="isolate" opacity=".68" stroke-width="0"/>
  <rect x="404" y="864.73" width="325.6" height="20" fill="#9ca3af" isolation="isolate" stroke-width="0"/>
  <g isolation="isolate">
    <rect x="404" y="729.77" width="325.6" height="40" fill="#9ca3af" stroke-width="0"/>
    <rect x="417.22" y="788.95" width="299.16" height="40" fill="#9ca3af" stroke-width="0"/>
  </g>
  <rect x="423.69" y="901.06" width="286.22" height="20" fill="#9ca3af" isolation="isolate" stroke-width="0"/>
  <rect x="454.3" y="942.53" width="225" height="50" fill="#9ca3af" isolation="isolate" stroke-width="0"/>
  <path d="m38.4,487.19h325.6v217.07H38.4v-217.07Z" fill="#4b5563" stroke-width="0"/>
  <path d="m230.25,570.52l-62.31,62.31-29.05-29.05-100.48,100.48h325.6l-133.75-133.74Z" fill="#9ca3af" isolation="isolate" opacity=".68" stroke-width="0"/>
  <circle cx="86.99" cy="539.54" r="23.07" fill="#9ca3af" isolation="isolate" opacity=".68" stroke-width="0"/>
  <rect x="38.4" y="864.73" width="325.6" height="20" fill="#9ca3af" isolation="isolate" stroke-width="0"/>
  <g isolation="isolate">
    <rect x="38.4" y="729.77" width="325.6" height="40" fill="#9ca3af" stroke-width="0"/>
    <rect x="51.62" y="788.95" width="299.16" height="40" fill="#9ca3af" stroke-width="0"/>
  </g>
  <rect x="58.09" y="901.06" width="286.22" height="20" fill="#9ca3af" isolation="isolate" stroke-width="0"/>
  <rect x="88.7" y="942.53" width="225" height="50" fill="#9ca3af" isolation="isolate" stroke-width="0"/>
  <g>
    <rect x="689.6" y="82.23" width="40" height="4" fill="#9ca3af" stroke-width="0"/>
    <rect x="689.6" y="95" width="40" height="4" fill="#9ca3af" stroke-width="0"/>
    <rect x="689.6" y="107.77" width="40" height="4" fill="#9ca3af" stroke-width="0"/>
  </g>
  <rect width="768" height="52" fill="#6b7280" stroke-width="0"/>
  <rect x="93" y="14.5" width="582" height="27" rx="5.78" ry="5.78" fill="#9ca3af" stroke-width="0"/>
  <g>
    <path d="m340.25,26.01l1.27,3.43c.13.38.28.84.37,1.19h.02c.11-.35.23-.79.37-1.21l1.15-3.41h1.12l-1.58,4.14c-.75,1.99-1.27,3.01-1.99,3.63-.52.46-1.03.64-1.3.68l-.26-.89c.26-.08.61-.25.92-.52.29-.23.65-.64.89-1.18.05-.11.08-.19.08-.25s-.02-.14-.07-.28l-2.15-5.35h1.15Z" fill="#f9f9f9" stroke-width="0"/>
    <path d="m350.65,28.87c0,2.15-1.49,3.08-2.89,3.08-1.57,0-2.78-1.15-2.78-2.99,0-1.94,1.27-3.08,2.88-3.08s2.79,1.21,2.79,2.99Zm-4.61.06c0,1.27.73,2.23,1.76,2.23s1.76-.95,1.76-2.25c0-.98-.49-2.23-1.74-2.23s-1.79,1.15-1.79,2.25Z" fill="#f9f9f9" stroke-width="0"/>
    <path d="m356.84,30.23c0,.6.01,1.13.05,1.58h-.94l-.06-.95h-.02c-.28.47-.89,1.08-1.92,1.08-.91,0-2-.5-2-2.54v-3.39h1.05v3.21c0,1.1.34,1.85,1.3,1.85.71,0,1.2-.49,1.39-.96.06-.16.1-.35.1-.54v-3.56h1.05v4.22Z" fill="#f9f9f9" stroke-width="0"/>
    <path d="m358.6,27.82c0-.68-.01-1.27-.05-1.81h.92l.04,1.14h.05c.26-.78.9-1.27,1.61-1.27.12,0,.2.01.3.04v1c-.11-.02-.22-.04-.36-.04-.74,0-1.27.56-1.42,1.36-.02.14-.05.31-.05.49v3.09h-1.04v-3.99Z" fill="#f9f9f9" stroke-width="0"/>
    <path d="m363.24,26.01l.77,2.95c.17.65.32,1.25.43,1.85h.04c.13-.59.32-1.21.52-1.83l.95-2.96h.89l.9,2.9c.22.7.38,1.31.52,1.9h.04c.1-.59.25-1.2.44-1.88l.83-2.91h1.04l-1.87,5.8h-.96l-.89-2.77c-.2-.65-.37-1.22-.52-1.91h-.02c-.14.7-.32,1.29-.53,1.92l-.94,2.76h-.96l-1.75-5.8h1.08Z" fill="#f9f9f9" stroke-width="0"/>
    <path d="m372.12,29.1c.02,1.43.94,2.01,1.99,2.01.76,0,1.21-.13,1.61-.3l.18.76c-.37.17-1.01.36-1.93.36-1.79,0-2.85-1.18-2.85-2.93s1.03-3.13,2.72-3.13c1.89,0,2.4,1.67,2.4,2.73,0,.21-.02.38-.04.49h-4.08Zm3.09-.76c.01-.67-.28-1.71-1.46-1.71-1.07,0-1.54.98-1.62,1.71h3.08Z" fill="#f9f9f9" stroke-width="0"/>
    <path d="m377.5,31.81c.02-.4.05-.98.05-1.5v-7.02h1.04v3.65h.02c.37-.65,1.04-1.07,1.98-1.07,1.44,0,2.46,1.2,2.45,2.96,0,2.08-1.31,3.11-2.6,3.11-.84,0-1.51-.32-1.94-1.09h-.04l-.05.96h-.91Zm1.09-2.33c0,.13.02.26.05.38.2.73.82,1.24,1.58,1.24,1.1,0,1.76-.9,1.76-2.23,0-1.16-.6-2.16-1.73-2.16-.72,0-1.39.49-1.61,1.3-.02.12-.06.26-.06.43v1.04Z" fill="#f9f9f9" stroke-width="0"/>
    <path d="m384.23,30.74c.31.2.86.42,1.39.42.77,0,1.13-.38,1.13-.86,0-.5-.3-.78-1.08-1.07-1.04-.37-1.54-.95-1.54-1.64,0-.93.76-1.7,2-1.7.59,0,1.1.17,1.43.36l-.26.77c-.23-.14-.65-.34-1.19-.34-.62,0-.97.36-.97.79,0,.48.35.7,1.1.98,1.01.38,1.52.89,1.52,1.75,0,1.02-.79,1.74-2.17,1.74-.64,0-1.22-.16-1.63-.4l.26-.8Z" fill="#f9f9f9" stroke-width="0"/>
    <path d="m390.3,24.38c.01.36-.25.65-.67.65-.37,0-.64-.29-.64-.65s.28-.66.66-.66.65.29.65.66Zm-1.17,7.44v-5.8h1.05v5.8h-1.05Z" fill="#f9f9f9" stroke-width="0"/>
    <path d="m393.2,24.34v1.67h1.51v.8h-1.51v3.13c0,.72.2,1.13.79,1.13.28,0,.48-.04.61-.07l.05.79c-.2.08-.53.14-.94.14-.49,0-.89-.16-1.14-.44-.3-.31-.41-.83-.41-1.51v-3.17h-.9v-.8h.9v-1.39l1.03-.28Z" fill="#f9f9f9" stroke-width="0"/>
    <path d="m396.42,29.1c.02,1.43.94,2.01,1.99,2.01.76,0,1.21-.13,1.61-.3l.18.76c-.37.17-1.01.36-1.93.36-1.79,0-2.85-1.18-2.85-2.93s1.03-3.13,2.72-3.13c1.89,0,2.4,1.67,2.4,2.73,0,.21-.02.38-.04.49h-4.08Zm3.09-.76c.01-.67-.28-1.71-1.46-1.71-1.07,0-1.54.98-1.62,1.71h3.08Z" fill="#f9f9f9" stroke-width="0"/>
    <path d="m401.45,31.19c0-.44.3-.76.72-.76s.71.31.71.76-.28.76-.72.76c-.42,0-.71-.32-.71-.76Z" fill="#f9f9f9" stroke-width="0"/>
    <path d="m409.44,28.87c0,2.15-1.49,3.08-2.89,3.08-1.57,0-2.78-1.15-2.78-2.99,0-1.94,1.27-3.08,2.88-3.08s2.79,1.21,2.79,2.99Zm-4.61.06c0,1.27.73,2.23,1.76,2.23s1.76-.95,1.76-2.25c0-.98-.49-2.23-1.74-2.23s-1.79,1.15-1.79,2.25Z" fill="#f9f9f9" stroke-width="0"/>
    <path d="m410.77,27.82c0-.68-.01-1.27-.05-1.81h.92l.04,1.14h.05c.26-.78.9-1.27,1.61-1.27.12,0,.2.01.3.04v1c-.11-.02-.22-.04-.36-.04-.74,0-1.27.56-1.42,1.36-.02.14-.05.31-.05.49v3.09h-1.04v-3.99Z" fill="#f9f9f9" stroke-width="0"/>
    <path d="m419.6,26.01c-.02.42-.05.89-.05,1.6v3.37c0,1.33-.26,2.15-.83,2.65-.56.53-1.38.7-2.11.7s-1.46-.17-1.93-.48l.26-.8c.38.24.98.46,1.7.46,1.08,0,1.87-.56,1.87-2.03v-.65h-.02c-.32.54-.95.97-1.85.97-1.44,0-2.47-1.22-2.47-2.83,0-1.97,1.28-3.08,2.61-3.08,1.01,0,1.56.53,1.81,1.01h.02l.05-.88h.92Zm-1.09,2.29c0-.18-.01-.34-.06-.48-.19-.61-.71-1.12-1.48-1.12-1.01,0-1.73.85-1.73,2.2,0,1.14.58,2.09,1.71,2.09.65,0,1.24-.41,1.46-1.08.06-.18.08-.38.08-.56v-1.04Z" fill="#f9f9f9" stroke-width="0"/>
  </g>
  <path d="m749.25,0H18.75C8.41,0,0,8.41,0,18.75v1061.9c0,10.34,8.41,18.75,18.75,18.75h19.65v-59.61h325.6v59.61h40v-59.61h325.6v59.61h19.65c10.34,0,18.75-8.41,18.75-18.75V18.75c0-10.34-8.41-18.75-18.75-18.75Z" fill="none" stroke-width="0"/>
  <path d="m404,1039.79v59.61h26.69c-.76-2.28-1.17-4.72-1.17-7.26,0-12.74,10.33-23.07,23.07-23.07s23.07,10.33,23.07,23.07c0,2.54-.42,4.97-1.17,7.26h255.11v-59.61h-325.6Z" fill="#4b5563" stroke-width="0"/>
  <path d="m452.59,1069.07c-12.74,0-23.07,10.33-23.07,23.07,0,2.54.42,4.97,1.17,7.26h43.8c.76-2.28,1.17-4.72,1.17-7.26,0-12.74-10.33-23.07-23.07-23.07Z" fill="#d1d5db" stroke-width="0"/>
  <path d="m452.59,1069.07c-12.74,0-23.07,10.33-23.07,23.07,0,2.54.42,4.97,1.17,7.26h43.8c.76-2.28,1.17-4.72,1.17-7.26,0-12.74-10.33-23.07-23.07-23.07Z" fill="#9ca3af" isolation="isolate" opacity=".68" stroke-width="0"/>
  <path d="m38.4,1039.79v59.61h26.69c-.76-2.28-1.17-4.72-1.17-7.26,0-12.74,10.33-23.07,23.07-23.07s23.07,10.33,23.07,23.07c0,2.54-.42,4.97-1.17,7.26h255.11v-59.61H38.4Z" fill="#4b5563" stroke-width="0"/>
  <path d="m86.99,1069.07c-12.74,0-23.07,10.33-23.07,23.07,0,2.54.42,4.97,1.17,7.26h43.8c.76-2.28,1.17-4.72,1.17-7.26,0-12.74-10.33-23.07-23.07-23.07Z" fill="#d1d5db" stroke-width="0"/>
  <path d="m86.99,1069.07c-12.74,0-23.07,10.33-23.07,23.07,0,2.54.42,4.97,1.17,7.26h43.8c.76-2.28,1.17-4.72,1.17-7.26,0-12.74-10.33-23.07-23.07-23.07Z" fill="#9ca3af" isolation="isolate" opacity=".68" stroke-width="0"/>
</svg>