<?xml version="1.0" encoding="UTF-8"?>
<svg id="tablet-light" xmlns="http://www.w3.org/2000/svg" viewBox="0 0 768 1024">
  <rect y="52" width="768" height="972" fill="#fff" stroke-width="0"/>
  <rect y="52" width="768" height="375.74" fill="#d1d5db" stroke-width="0"/>
  <rect x="38.4" y="67" width="180" height="60" fill="#f3f4f6" stroke-width="0"/>
  <g>
    <rect x="123.12" y="184.98" width="521.76" height="47.05" fill="#f3f4f6" stroke-width="0"/>
    <rect x="152.55" y="247.71" width="462.89" height="47.05" fill="#f3f4f6" stroke-width="0"/>
  </g>
  <rect x="284" y="328.82" width="200" height="40" fill="#f3f4f6" stroke-width="0"/>
  <path d="m404,487.19h325.6v217.07h-325.6v-217.07Z" fill="#d1d5db" stroke-width="0"/>
  <path d="m595.85,570.52l-62.31,62.31-29.05-29.05-100.48,100.48h325.6l-133.75-133.74Z" fill="#f3f4f6" isolation="isolate" opacity=".68" stroke-width="0"/>
  <circle cx="452.59" cy="539.54" r="23.07" fill="#f3f4f6" isolation="isolate" opacity=".68" stroke-width="0"/>
  <rect x="404" y="864.73" width="325.6" height="20" fill="#d1d5db" stroke-width="0"/>
  <g>
    <rect x="404" y="729.77" width="325.6" height="40" fill="#d1d5db" stroke-width="0"/>
    <rect x="417.22" y="788.95" width="299.16" height="40" fill="#d1d5db" stroke-width="0"/>
  </g>
  <rect x="423.69" y="901.06" width="286.22" height="20" fill="#d1d5db" stroke-width="0"/>
  <rect x="454.3" y="942.53" width="225" height="50" fill="#d1d5db" stroke-width="0"/>
  <path d="m38.4,487.19h325.6v217.07H38.4v-217.07Z" fill="#d1d5db" stroke-width="0"/>
  <path d="m230.25,570.52l-62.31,62.31-29.05-29.05-100.48,100.48h325.6l-133.75-133.74Z" fill="#f3f4f6" isolation="isolate" opacity=".68" stroke-width="0"/>
  <circle cx="86.99" cy="539.54" r="23.07" fill="#f3f4f6" isolation="isolate" opacity=".68" stroke-width="0"/>
  <rect x="38.4" y="864.73" width="325.6" height="20" fill="#d1d5db" stroke-width="0"/>
  <g>
    <rect x="38.4" y="729.77" width="325.6" height="40" fill="#d1d5db" stroke-width="0"/>
    <rect x="51.62" y="788.95" width="299.16" height="40" fill="#d1d5db" stroke-width="0"/>
  </g>
  <rect x="58.09" y="901.06" width="286.22" height="20" fill="#d1d5db" stroke-width="0"/>
  <rect x="88.7" y="942.53" width="225" height="50" fill="#d1d5db" stroke-width="0"/>
  <g>
    <rect x="689.6" y="82.23" width="40" height="4" fill="#f3f4f6" stroke-width="0"/>
    <rect x="689.6" y="95" width="40" height="4" fill="#f3f4f6" stroke-width="0"/>
    <rect x="689.6" y="107.77" width="40" height="4" fill="#f3f4f6" stroke-width="0"/>
  </g>
  <rect x="0" y="1" width="768" height="52" fill="#e5e7eb" stroke-width="0"/>
  <rect x="93" y="14.5" width="582" height="27" rx="5.78" ry="5.78" fill="#fff" stroke-width="0"/>
  <text transform="translate(338.99 31.81)" fill="#27272a" font-family="SFCompact-Regular, &apos;SF Compact&apos;" font-size="12" font-variation-settings="&apos;opsz&apos; 19, &apos;wght&apos; 457"><tspan x="0" y="0" letter-spacing="0em">y</tspan><tspan x="6.34" y="0">ou</tspan><tspan x="20.24" y="0" letter-spacing=".01em">r</tspan><tspan x="25.06" y="0" letter-spacing="0em">w</tspan><tspan x="33.87" y="0">ebs</tspan><tspan x="53.62" y="0" letter-spacing="0em">i</tspan><tspan x="57.05" y="0">te.o</tspan><tspan x="78.46" y="0" letter-spacing="0em">r</tspan><tspan x="83.14" y="0">g</tspan></text>
</svg>