<?xml version="1.0" encoding="UTF-8"?>
<svg id="Layer_1" data-name="Layer 1" xmlns="http://www.w3.org/2000/svg" viewBox="0 0 24 24">
  <path d="m6,24h-3.15c-1.16,0-2.1-.94-2.1-2.1v-8.84l-.53-.53c-.29-.29-.29-.77,0-1.06l.53-.53V2.1C.75.94,1.69,0,2.85,0h3.15c.41,0,.75.34.75.75s-.34.75-.75.75h-3.15c-.33,0-.6.27-.6.6v9.15c0,.2-.08.39-.22.53l-.22.22.22.22c.14.14.22.33.22.53v9.15c0,.33.27.6.6.6h3.15c.41,0,.75.34.75.75s-.34.75-.75.75Z" fill="#9ca3af" stroke-width="0"/>
  <path d="m21.15,24h-3.15c-.41,0-.75-.34-.75-.75s.34-.75.75-.75h3.15c.33,0,.6-.27.6-.6v-9.15c0-.2.08-.39.22-.53l.22-.22-.22-.22c-.14-.14-.22-.33-.22-.53V2.1c0-.33-.27-.6-.6-.6h-3.15c-.41,0-.75-.34-.75-.75s.34-.75.75-.75h3.15c1.16,0,2.1.94,2.1,2.1v8.84l.53.53c.29.29.29.77,0,1.06l-.53.53v8.84c0,1.16-.94,2.1-2.1,2.1Z" fill="#9ca3af" stroke-width="0"/>
  <path d="m8.75,20.75c-.2,0-.39-.08-.53-.22L.22,12.53c-.29-.29-.29-.77,0-1.06L8.22,3.47c.29-.29.77-.29,1.06,0s.29.77,0,1.06L1.81,12l6.67,6.67L14.55,3.72c.09-.23.3-.4.55-.45.24-.05.5.03.68.2l8,8c.29.29.29.77,0,1.06l-8,8c-.29.29-.77.29-1.06,0s-.29-.77,0-1.06l7.47-7.47-6.67-6.67-6.07,14.95c-.09.23-.3.4-.55.45-.05.01-.1.02-.15.02Z" fill="#14b8a6" stroke-width="0"/>
</svg>