<svg xmlns="http://www.w3.org/2000/svg" aria-hidden="true" style="width: 0; height: 0; position: absolute;"><symbol id="ios-chevron-left" viewBox="0 0 11.27 20">
	<path d="m11.27,10c0-.29-.12-.55-.33-.76L1.81.3c-.21-.2-.46-.3-.76-.3C.46,0,0,.45,0,1.05c0,.29.12.55.3.75l8.39,8.2L.3,18.2c-.18.2-.3.45-.3.75,0,.6.46,1.05,1.05,1.05.3,0,.55-.1.76-.31l9.12-8.93c.22-.22.33-.47.33-.76Z" stroke-width="0" fill="currentColor"></path>
</symbol><symbol id="ios-chevron-right" viewBox="0 0 11.27 20">
	<path d="m0,10C0,10.29.1,10.54.32,10.76l9.14,8.93c.2.21.45.31.75.31.6,0,1.06-.45,1.06-1.05,0-.3-.13-.55-.31-.75L2.57,10,10.96,1.8c.18-.2.31-.46.31-.75,0-.6-.46-1.05-1.06-1.05-.3,0-.55.1-.75.3L.32,9.24C.1,9.45,0,9.71,0,10Z" stroke-width="0" fill="currentColor"></path>
</symbol><symbol id="ios-desktop" viewBox="0 0 23.66 20">
	<path d="m2.02,12.1c-.3,0-.43-.11-.43-.43V2.31c0-.45.28-.71.71-.71h19.04c.44,0,.71.27.71.71v9.36c0,.32-.14.43-.44.43H2.02Z" stroke-width="0" fill="currentColor" opacity="0.25"></path>
	<path d="m2.28,16.48h19.09c1.43,0,2.29-.86,2.29-2.29V2.28c0-1.43-.86-2.28-2.29-2.28H2.28C.86,0,0,.85,0,2.28v11.9c0,1.43.86,2.29,2.28,2.29Zm-.26-4.38c-.3,0-.43-.11-.43-.43V2.31c0-.45.28-.71.71-.71h19.04c.44,0,.71.27.71.71v9.36c0,.32-.14.43-.44.43H2.02Zm6.67,6.74h6.27v-2.49h-6.27v2.49Zm-.06,1.16h6.39c.44,0,.79-.36.79-.8s-.36-.8-.79-.8h-6.39c-.44,0-.8.36-.8.8s.37.8.8.8Z" stroke-width="0" fill="currentColor"></path>
</symbol><symbol id="ios-mobile" viewBox="0 0 12.14 20">
	<path d="m2.77,18.48c-.8,0-1.25-.43-1.25-1.18V2.7c0-.76.44-1.18,1.25-1.18h6.61c.79,0,1.24.43,1.24,1.18v14.6c0,.76-.44,1.18-1.24,1.18H2.77Z" stroke-width="0" fill="currentColor" opacity="0.25"></path>
	<path d="m2.57,20h7c1.54,0,2.57-.98,2.57-2.46V2.46c0-1.47-1.03-2.46-2.57-2.46H2.57C1.03,0,0,.98,0,2.46v15.09c0,1.47,1.03,2.46,2.57,2.46Zm.2-1.52c-.8,0-1.25-.43-1.25-1.18V2.7c0-.76.44-1.18,1.25-1.18h6.61c.79,0,1.24.43,1.24,1.18v14.6c0,.76-.44,1.18-1.24,1.18H2.77Zm1.3-.69h4.02c.26,0,.43-.18.43-.44s-.18-.43-.43-.43h-4.02c-.26,0-.44.17-.44.43s.19.44.44.44Zm.86-14.27h2.29c.37,0,.66-.29.66-.67s-.29-.66-.66-.66h-2.29c-.38,0-.67.29-.67.66s.29.67.67.67Z" stroke-width="0" fill="currentColor"></path>
</symbol><symbol id="ios-plus" viewBox="0 0 20 20">
	<path d="m0,10c0,.59.5,1.08,1.08,1.08h7.84v7.84c0,.58.48,1.08,1.08,1.08s1.09-.5,1.09-1.08v-7.84h7.83c.58,0,1.08-.48,1.08-1.08s-.5-1.09-1.08-1.09h-7.83V1.08c0-.58-.5-1.08-1.09-1.08s-1.08.5-1.08,1.08v7.83H1.08c-.58,0-1.08.5-1.08,1.09Z" stroke-width="0" fill="currentColor"></path>
</symbol><symbol id="ios-puzzle" viewBox="0 0 25.33 20">
	<path d="m0,16.89C0,18.93,1.09,20,3.17,20h12.72c2.07,0,3.16-1.07,3.16-3.11v-3.65c0-.17.11-.25.31-.11.65.47,1.41.8,2.28.8,1.96,0,3.7-1.57,3.7-3.88s-1.75-3.87-3.7-3.87c-.87,0-1.62.33-2.28.8-.2.13-.31.05-.31-.11v-3.74c0-2.05-1.09-3.11-3.16-3.11H3.17C1.09,0,0,1.07,0,3.11v4.57C0,8.56.57,9.07,1.28,9.07c.39,0,.8-.17,1.2-.54.51-.46,1.08-.73,1.69-.73,1.18,0,2.17.88,2.17,2.21s-.99,2.21-2.17,2.21c-.61,0-1.18-.29-1.69-.75-.4-.36-.81-.53-1.2-.53C.57,10.96,0,11.47,0,12.33v4.55Zm1.67-.08v-3.45c0-.49.25-.3.44-.18.63.4,1.32.7,2.14.7,1.95,0,3.7-1.56,3.7-3.87s-1.76-3.87-3.7-3.87c-.82,0-1.51.3-2.14.7-.2.12-.44.31-.44-.18v-3.48c0-.98.57-1.53,1.53-1.53h12.65c.96,0,1.52.55,1.52,1.53v4.49c0,.87.57,1.42,1.28,1.42.39,0,.8-.17,1.2-.54.51-.46,1.08-.74,1.69-.74,1.18,0,2.17.88,2.17,2.21s-.99,2.22-2.17,2.22c-.61,0-1.18-.29-1.69-.75-.4-.37-.81-.54-1.2-.54-.71,0-1.28.55-1.28,1.42v4.41c0,.99-.56,1.53-1.52,1.53H3.2c-.96,0-1.53-.54-1.53-1.53Z" stroke-width="0" fill="currentColor"></path>
</symbol><symbol id="ios-refresh" viewBox="0 0 16.41 20">
	<path d="m0,11.78c0,4.56,3.66,8.22,8.21,8.22s8.2-3.66,8.2-8.22c0-.45-.32-.77-.77-.77s-.72.33-.72.77c0,3.73-2.98,6.73-6.71,6.73S1.5,15.51,1.5,11.78s2.99-6.71,6.72-6.71c.71,0,1.37.06,1.91.19l-2.78,2.75c-.14.15-.21.33-.21.53,0,.43.32.74.73.74.23,0,.41-.07.54-.21l3.83-3.85c.17-.16.23-.34.23-.56s-.08-.41-.23-.56L8.41.22c-.13-.15-.32-.22-.54-.22-.42,0-.73.33-.73.76,0,.2.07.38.2.53l2.47,2.44c-.48-.09-1.03-.16-1.6-.16C3.66,3.58,0,7.23,0,11.78Z" stroke-width="0" fill="currentColor"></path>
</symbol><symbol id="ios-search" viewBox="0 0 19.81 20">
	<path d="m0,8.09c0,4.46,3.63,8.09,8.09,8.09,1.76,0,3.38-.57,4.7-1.52l4.99,5c.23.23.54.34.86.34.69,0,1.17-.52,1.17-1.2,0-.32-.12-.62-.33-.83l-4.96-4.99c1.04-1.36,1.66-3.05,1.66-4.9C16.18,3.63,12.55,0,8.09,0S0,3.63,0,8.09Zm1.73,0c0-3.51,2.85-6.36,6.36-6.36s6.36,2.85,6.36,6.36-2.85,6.36-6.36,6.36S1.73,11.6,1.73,8.09Z" stroke-width="0" fill="currentColor"></path>
</symbol><symbol id="ios-share" viewBox="0 0 15.73 20">
	<path d="m15.73,8.41v8.84c0,1.83-.93,2.75-2.78,2.75H2.78c-1.85,0-2.78-.92-2.78-2.75v-8.84c0-1.83.93-2.75,2.78-2.75h2.67v1.43h-2.65c-.89,0-1.37.48-1.37,1.4v8.68c0,.92.49,1.4,1.37,1.4h10.12c.88,0,1.38-.48,1.38-1.4v-8.68c0-.92-.51-1.4-1.38-1.4h-2.64v-1.43h2.67c1.85,0,2.78.92,2.78,2.75Z" stroke-width="0" fill="currentColor"></path>
	<path d="m7.86,13.06c.38,0,.71-.32.71-.69V3.27l-.05-1.33.59.63,1.35,1.44c.12.14.3.21.48.21.36,0,.65-.27.65-.63,0-.19-.08-.33-.21-.46L8.37.24c-.18-.18-.33-.24-.51-.24s-.33.06-.51.24l-3,2.89c-.13.13-.2.27-.2.46,0,.36.27.63.64.63.17,0,.36-.07.49-.21l1.34-1.44.6-.63-.05,1.33v9.1c0,.37.32.69.7.69Z" stroke-width="0" fill="currentColor"></path>
</symbol><symbol id="ios-sidebar" viewBox="0 0 25.62 20">
	<path d="m3.41,20h18.79c2.28,0,3.41-1.13,3.41-3.37V3.37c0-2.24-1.13-3.37-3.41-3.37H3.41C1.14,0,0,1.12,0,3.37v13.26c0,2.25,1.14,3.37,3.41,3.37Zm.02-1.75c-1.09,0-1.68-.58-1.68-1.71V3.45c0-1.13.6-1.71,1.68-1.71h18.75c1.08,0,1.68.58,1.68,1.71v13.09c0,1.13-.61,1.71-1.68,1.71H3.43Zm4.85.34h1.71V1.42h-1.71v17.16Zm-2.09-12.81c.33,0,.62-.29.62-.61s-.29-.61-.62-.61h-2.34c-.33,0-.61.28-.61.61s.28.61.61.61h2.34Zm0,2.81c.33,0,.62-.29.62-.62s-.29-.6-.62-.6h-2.34c-.33,0-.61.27-.61.6s.28.62.61.62h2.34Zm0,2.8c.33,0,.62-.27.62-.6s-.29-.61-.62-.61h-2.34c-.33,0-.61.28-.61.61s.28.6.61.6h2.34Z" stroke-width="0" fill="currentColor"></path>
</symbol><symbol id="ios-tablet" viewBox="0 0 14.83 20">
	<path d="m1.43,17.42V2.59c0-.73.44-1.16,1.21-1.16h9.56c.75,0,1.21.43,1.21,1.16v14.82c0,.73-.45,1.15-1.21,1.15H2.64c-.76,0-1.21-.43-1.21-1.15Z" stroke-width="0" fill="currentColor" opacity="0.25"></path>
	<path d="m0,17.66c0,1.4.99,2.34,2.46,2.34h9.92c1.47,0,2.46-.94,2.46-2.34V2.35c0-1.4-.99-2.35-2.46-2.35H2.46C.99,0,0,.95,0,2.35v15.3Zm1.43-.24V2.59c0-.73.44-1.16,1.21-1.16h9.56c.75,0,1.21.43,1.21,1.16v14.82c0,.73-.45,1.15-1.21,1.15H2.64c-.76,0-1.21-.43-1.21-1.15Zm3.47.48h5.03c.25,0,.42-.17.42-.42s-.17-.41-.42-.41h-5.03c-.24,0-.41.16-.41.41s.17.42.41.42Z" stroke-width="0" fill="currentColor"></path>
</symbol><symbol id="ios-tabs" viewBox="0 0 20.2 20">
	<path d="m15.57,2.96v1.46h-1.54v-1.37c0-.99-.53-1.51-1.48-1.51H3.02c-.95,0-1.48.52-1.48,1.51v9.49c0,.99.53,1.51,1.48,1.51h1.61v1.54h-1.63c-2,0-3-.99-3-2.96V2.96C0,.99.99,0,3,0h9.58c1.99,0,2.99.99,2.99,2.96Z" stroke-width="0" fill="currentColor"></path>
	<path d="m7.63,20h9.58c1.99,0,2.99-.99,2.99-2.96V7.38c0-1.97-1-2.96-2.99-2.96H7.63c-2,0-3,.98-3,2.96v9.66c0,1.97.99,2.96,3,2.96Zm.02-1.54c-.95,0-1.48-.52-1.48-1.51V7.47c0-.99.53-1.51,1.48-1.51h9.54c.95,0,1.48.52,1.48,1.51v9.49c0,.99-.53,1.51-1.48,1.51H7.65Z" stroke-width="0" fill="currentColor"></path>
</symbol><symbol id="ios-text-resize" viewBox="0 0 30.85 20">
	<path d="m15.55,20c.7,0,1.07-.27,1.33-1.03l1.75-4.78h7.99l1.75,4.78c.26.76.61,1.03,1.31,1.03s1.18-.43,1.18-1.11c0-.23-.04-.45-.15-.73L24.35,1.25c-.31-.83-.87-1.25-1.73-1.25s-1.41.41-1.71,1.23l-6.35,16.94c-.11.28-.15.5-.15.73,0,.68.43,1.1,1.14,1.1Zm3.74-7.87l3.29-9.11h.07l3.29,9.11h-6.65Z" stroke-width="0" fill="currentColor"></path>
	<path d="m1.12,19.96c.56,0,.92-.28,1.14-.95l1.12-3.32h5.29l1.12,3.32c.22.69.58.95,1.15.95.68,0,1.14-.42,1.14-1.03,0-.27-.07-.53-.18-.81L7.7,6.93c-.31-.83-.88-1.26-1.68-1.26s-1.35.41-1.67,1.26L.15,18.12C.04,18.38,0,18.65,0,18.93,0,19.55.43,19.96,1.12,19.96Zm2.86-6.03l1.9-5.65h.31l1.9,5.65H3.98Z" stroke-width="0" fill="currentColor"></path>
</symbol></svg>