<?xml version="1.0" standalone="no"?>
<!DOCTYPE svg PUBLIC "-//W3C//DTD SVG 20010904//EN"
 "http://www.w3.org/TR/2001/REC-SVG-20010904/DTD/svg10.dtd">
<svg version="1.0" xmlns="http://www.w3.org/2000/svg"
 width="700.000000pt" height="700.000000pt" viewBox="0 0 700.000000 700.000000"
 preserveAspectRatio="xMidYMid meet">
<metadata>
Created by potrace 1.14, written by Peter Selinger 2001-2017
</metadata>
<g transform="translate(0.000000,700.000000) scale(0.100000,-0.100000)"
fill="#000000" stroke="none">
<path d="M750 6984 c-252 -51 -453 -241 -520 -489 -18 -67 -19 -134 -19 -1375
l-1 -1305 -84 -85 c-107 -109 -121 -134 -121 -230 0 -96 14 -121 121 -230 l84
-85 1 -1310 0 -1310 32 -96 c79 -238 265 -404 507 -453 51 -11 261 -13 1010
-12 l945 1 42 22 c197 106 189 374 -13 464 -39 18 -92 19 -964 19 -895 0 -923
1 -960 20 -39 20 -72 58 -84 97 -4 12 -7 433 -7 935 0 1183 0 1125 10 1109 5
-8 402 -407 882 -888 641 -640 886 -879 919 -895 82 -41 198 -26 270 34 36 29
70 88 98 168 16 47 35 96 40 110 6 14 22 59 37 100 15 41 33 91 40 110 8 19
57 157 110 305 53 149 100 279 105 290 5 11 50 135 100 275 50 140 94 262 97
270 3 8 7 20 9 25 1 6 23 66 49 135 26 69 50 136 55 150 8 27 119 333 150 415
42 112 161 441 165 455 2 8 61 170 130 360 69 190 133 365 142 390 8 25 37
106 65 180 27 74 63 173 79 220 17 47 48 132 69 190 21 58 58 158 81 223 23
64 45 117 48 117 4 0 436 -430 961 -955 l954 -955 -1108 -1109 c-610 -610
-1117 -1123 -1128 -1140 -106 -166 14 -384 212 -385 47 0 77 6 110 22 33 16
278 254 925 902 484 484 882 880 885 880 3 0 5 -458 4 -1017 0 -911 -2 -1021
-16 -1048 -20 -38 -55 -71 -91 -84 -18 -7 -330 -11 -940 -11 -575 0 -925 -4
-948 -10 -54 -15 -114 -63 -146 -117 -24 -41 -28 -59 -28 -123 0 -111 42 -181
139 -233 l41 -22 955 0 c525 0 971 3 990 7 261 49 471 246 532 498 21 84 21
105 22 1381 l1 1296 79 79 c93 94 126 154 126 234 0 80 -33 140 -126 234 l-79
79 -1 1276 c0 702 -4 1303 -8 1336 -23 179 -137 358 -296 463 -53 35 -149 79
-193 88 -12 2 -38 8 -57 12 -19 4 -467 7 -995 7 l-960 0 -45 -29 c-82 -53
-119 -109 -127 -196 -10 -110 40 -203 137 -253 l55 -27 923 -1 c608 0 932 -3
950 -10 43 -16 89 -67 98 -108 8 -40 12 -2041 4 -2041 -3 0 -401 396 -885 880
-646 647 -892 886 -925 902 -88 43 -208 25 -280 -43 -49 -46 -48 -45 -253
-614 -63 -173 -341 -942 -373 -1028 -8 -23 -28 -78 -44 -122 -54 -151 -100
-280 -107 -295 -3 -8 -7 -19 -9 -25 -1 -5 -16 -48 -34 -95 -17 -47 -42 -114
-55 -150 -52 -149 -156 -436 -164 -455 -5 -11 -107 -290 -226 -620 -346 -959
-388 -1075 -395 -1075 -3 0 -435 430 -960 955 l-954 956 1109 1109 c611 611
1121 1129 1135 1152 21 36 25 56 25 118 0 111 -43 183 -139 232 -56 29 -165
30 -219 2 -22 -11 -420 -402 -923 -905 l-884 -884 0 95 c-4 969 1 1941 10
1966 15 39 38 62 81 84 34 18 86 19 958 20 917 0 924 1 973 22 92 39 154 140
151 246 -1 61 -49 150 -100 189 -23 17 -64 36 -90 41 -78 17 -1871 13 -1953
-4z"/>
</g>
</svg>
