<svg xmlns="http://www.w3.org/2000/svg" aria-hidden="true" style="width: 0; height: 0; position: absolute;"><symbol id="web-calendar" viewBox="0 0 24 24">
  <rect x="3" y="4" width="18" height="18" rx="2" ry="2" fill="none" stroke="currentColor" stroke-linecap="round" stroke-linejoin="round" stroke-width="2"></rect>
  <line x1="16" y1="2" x2="16" y2="6" fill="none" stroke="currentColor" stroke-linecap="round" stroke-linejoin="round" stroke-width="2"></line>
  <line x1="8" y1="2" x2="8" y2="6" fill="none" stroke="currentColor" stroke-linecap="round" stroke-linejoin="round" stroke-width="2"></line>
  <line x1="3" y1="10" x2="21" y2="10" fill="none" stroke="currentColor" stroke-linecap="round" stroke-linejoin="round" stroke-width="2"></line>
</symbol><symbol id="web-close" viewBox="0 0 24 24">
  <line x1="22" y1="2" x2="2" y2="22" fill="none" stroke="currentColor" stroke-linecap="round" stroke-linejoin="round" stroke-width="2"></line>
  <line x1="2" y1="2" x2="22" y2="22" fill="none" stroke="currentColor" stroke-linecap="round" stroke-linejoin="round" stroke-width="2"></line>
</symbol><symbol id="web-code" viewBox="0 0 24 24">
  <polyline points="17 17 22 12 17 7" fill="none" stroke="currentColor" stroke-linecap="round" stroke-linejoin="round" stroke-width="2"></polyline>
  <polyline points="7 17 2 12 7 7" fill="none" stroke="currentColor" stroke-linecap="round" stroke-linejoin="round" stroke-width="2"></polyline>
  <line x1="10.08" y1="19.43" x2="13.92" y2="4.57" fill="none" stroke="currentColor" stroke-linecap="round" stroke-linejoin="round" stroke-width="2"></line>
</symbol><symbol id="web-compass" viewBox="0 0 24 24">
  <circle cx="12" cy="12" r="10" fill="none" stroke="currentColor" stroke-linecap="round" stroke-linejoin="round" stroke-width="2"></circle>
  <polygon points="16.24 7.76 14.12 14.12 7.76 16.24 9.88 9.88 16.24 7.76" fill="none" stroke="currentColor" stroke-linecap="round" stroke-linejoin="round" stroke-width="2"></polygon>
</symbol><symbol id="web-github" viewBox="0 0 24 24">
  <path d="m9.38,19.15c-4.76,1.43-4.76-2.38-6.66-2.85m13.32,5.71v-3.68c.07-.92-.25-1.82-.89-2.48,2.99-.33,6.13-1.46,6.13-6.66,0-1.33-.51-2.61-1.43-3.57.43-1.16.4-2.45-.09-3.59,0,0-1.12-.33-3.72,1.41-2.18-.59-4.48-.59-6.66,0-2.6-1.74-3.72-1.41-3.72-1.41-.49,1.14-.52,2.42-.09,3.59-.92.97-1.43,2.26-1.43,3.6,0,5.16,3.14,6.29,6.13,6.66-.63.65-.96,1.55-.89,2.45v3.68" fill="none" stroke="currentColor" stroke-linecap="round" stroke-linejoin="round" stroke-width="2"></path>
</symbol><symbol id="web-linkedin" viewBox="0 0 24 24">
  <path d="m16,8.5c3.31,0,6,2.69,6,6v7h-4v-7c0-1.1-.9-2-2-2s-2,.9-2,2v7h-4v-7c0-3.31,2.69-6,6-6Z" fill="none" stroke="currentColor" stroke-linecap="round" stroke-linejoin="round" stroke-width="2"></path>
  <rect x="2" y="9.5" width="4" height="12" fill="none" stroke="currentColor" stroke-linecap="round" stroke-linejoin="round" stroke-width="2"></rect>
  <circle cx="4" cy="4.5" r="2" fill="none" stroke="currentColor" stroke-linecap="round" stroke-linejoin="round" stroke-width="2"></circle>
</symbol><symbol id="web-mail" viewBox="0 0 24 24">
  <path d="m4,4h16c1.1,0,2,.9,2,2v12c0,1.1-.9,2-2,2H4c-1.1,0-2-.9-2-2V6c0-1.1.9-2,2-2Z" fill="none" stroke="currentColor" stroke-linecap="round" stroke-linejoin="round" stroke-width="2"></path>
  <polyline points="22 6 12 13 2 6" fill="none" stroke="currentColor" stroke-linecap="round" stroke-linejoin="round" stroke-width="2"></polyline>
</symbol><symbol id="web-map-pin" viewBox="0 0 24 24">
  <path d="m20.18,10.18c0,6.36-8.18,11.82-8.18,11.82,0,0-8.18-5.45-8.18-11.82C3.82,5.66,7.48,2,12,2s8.18,3.66,8.18,8.18Z" fill="none" stroke="currentColor" stroke-linecap="round" stroke-linejoin="round" stroke-width="2"></path>
  <circle cx="12" cy="10.18" r="2.73" fill="none" stroke="currentColor" stroke-linecap="round" stroke-linejoin="round" stroke-width="2"></circle>
</symbol><symbol id="web-menu" viewBox="0 0 24 24">
  <line x1="2" y1="12" x2="22" y2="12" fill="none" stroke="currentColor" stroke-linecap="round" stroke-linejoin="round" stroke-width="2"></line>
  <line x1="2" y1="5.33" x2="22" y2="5.33" fill="none" stroke="currentColor" stroke-linecap="round" stroke-linejoin="round" stroke-width="2"></line>
  <line x1="2" y1="18.67" x2="22" y2="18.67" fill="none" stroke="currentColor" stroke-linecap="round" stroke-linejoin="round" stroke-width="2"></line>
</symbol><symbol id="web-moon" viewBox="0 0 24 24">
  <path d="m22,12.9c-.51,5.51-5.39,9.57-10.9,9.06-5.51-.51-9.57-5.39-9.06-10.9C2.49,6.25,6.29,2.44,11.1,2c-2.56,3.46-1.83,8.34,1.63,10.9,2.75,2.04,6.51,2.04,9.27,0Z" fill="none" stroke="currentColor" stroke-linecap="round" stroke-linejoin="round" stroke-width="2"></path>
</symbol><symbol id="web-phone" viewBox="0 0 24 24">
  <path d="m22,16.98v3.02c0,1.11-.89,2.01-2,2.02-.06,0-.13,0-.19,0-3.09-.34-6.07-1.39-8.68-3.09-2.43-1.54-4.49-3.6-6.03-6.03-1.7-2.62-2.76-5.61-3.09-8.72-.1-1.11.72-2.08,1.82-2.18.06,0,.12,0,.18,0h3.02c1.01,0,1.87.73,2.01,1.73.13.97.36,1.91.7,2.83.28.73.1,1.56-.45,2.12l-1.28,1.28c1.43,2.52,3.52,4.6,6.03,6.03l1.28-1.28c.56-.55,1.39-.73,2.12-.45.91.34,1.86.58,2.83.7,1.01.14,1.75,1.02,1.73,2.04Z" fill="none" stroke="currentColor" stroke-linecap="round" stroke-linejoin="round" stroke-width="2"></path>
</symbol><symbol id="web-print" viewBox="0 0 24 24">
  <polyline points="6 9 6 2 18 2 18 9" fill="none" stroke="currentColor" stroke-linecap="round" stroke-linejoin="round" stroke-width="2"></polyline>
  <path d="m6,18h-2c-1.1,0-2-.9-2-2v-5c0-1.1.9-2,2-2h16c1.1,0,2,.9,2,2v5c0,1.1-.9,2-2,2h-2" fill="none" stroke="currentColor" stroke-linecap="round" stroke-linejoin="round" stroke-width="2"></path>
  <rect x="6" y="14" width="12" height="8" fill="none" stroke="currentColor" stroke-linecap="round" stroke-linejoin="round" stroke-width="2"></rect>
</symbol><symbol id="web-sun" viewBox="0 0 24 24">
  <circle cx="12" cy="12" r="4.55" fill="none" stroke="currentColor" stroke-linecap="round" stroke-linejoin="round" stroke-width="2"></circle>
  <line x1="12" y1="2" x2="12" y2="3.82" fill="none" stroke="currentColor" stroke-linecap="round" stroke-linejoin="round" stroke-width="2"></line>
  <line x1="12" y1="20.18" x2="12" y2="22" fill="none" stroke="currentColor" stroke-linecap="round" stroke-linejoin="round" stroke-width="2"></line>
  <line x1="4.93" y1="4.93" x2="6.22" y2="6.22" fill="none" stroke="currentColor" stroke-linecap="round" stroke-linejoin="round" stroke-width="2"></line>
  <line x1="17.78" y1="17.78" x2="19.07" y2="19.07" fill="none" stroke="currentColor" stroke-linecap="round" stroke-linejoin="round" stroke-width="2"></line>
  <line x1="2" y1="12" x2="3.82" y2="12" fill="none" stroke="currentColor" stroke-linecap="round" stroke-linejoin="round" stroke-width="2"></line>
  <line x1="20.18" y1="12" x2="22" y2="12" fill="none" stroke="currentColor" stroke-linecap="round" stroke-linejoin="round" stroke-width="2"></line>
  <line x1="4.93" y1="19.07" x2="6.22" y2="17.78" fill="none" stroke="currentColor" stroke-linecap="round" stroke-linejoin="round" stroke-width="2"></line>
  <line x1="17.78" y1="6.22" x2="19.07" y2="4.93" fill="none" stroke="currentColor" stroke-linecap="round" stroke-linejoin="round" stroke-width="2"></line>
</symbol><symbol id="web-web" viewBox="0 0 24 24">
  <circle cx="12" cy="12" r="10" fill="none" stroke="currentColor" stroke-linecap="round" stroke-linejoin="round" stroke-width="2"></circle>
  <line x1="2" y1="12" x2="22" y2="12" fill="none" stroke="currentColor" stroke-linecap="round" stroke-linejoin="round" stroke-width="2"></line>
  <path d="m12,2c2.5,2.74,3.92,6.29,4,10-.08,3.71-1.5,7.26-4,10-2.5-2.74-3.92-6.29-4-10,.08-3.71,1.5-7.26,4-10Z" fill="none" stroke="currentColor" stroke-linecap="round" stroke-linejoin="round" stroke-width="2"></path>
</symbol></svg>