<svg xmlns="http://www.w3.org/2000/svg" aria-hidden="true" style="width: 0; height: 0; position: absolute;"><symbol id="wireframe-desktop-dark" viewBox="0 0 1920 1080">
  <polyline points="1920 1.65 1920 1081.65 0 1081.65 0 1.65 1920 1.65" fill="#374151" stroke-width="0"></polyline>
  <rect y="53.65" width="1920" height="600" fill="#4b5563" stroke-width="0"></rect>
  <rect x="244.32" y="73.65" width="300" height="100" fill="#9ca3af" stroke-width="0"></rect>
  <g>
    <rect x="1600" y="113.65" width="80" height="20" fill="#9ca3af" stroke-width="0"></rect>
    <rect x="1500" y="113.65" width="80" height="20" fill="#9ca3af" stroke-width="0"></rect>
    <rect x="1400" y="113.65" width="80" height="20" fill="#9ca3af" stroke-width="0"></rect>
    <rect x="1300" y="113.65" width="80" height="20" fill="#9ca3af" stroke-width="0"></rect>
    <rect x="1200" y="113.65" width="80" height="20" fill="#9ca3af" stroke-width="0"></rect>
    <rect x="1100" y="113.65" width="80" height="20" fill="#9ca3af" stroke-width="0"></rect>
  </g>
  <g>
    <rect x="472.5" y="253.65" width="975" height="70" fill="#9ca3af" stroke-width="0"></rect>
    <rect x="527.5" y="353.65" width="865" height="70" fill="#9ca3af" stroke-width="0"></rect>
  </g>
  <rect x="810" y="483.65" width="300" height="60" fill="#9ca3af" stroke-width="0"></rect>
  <path d="m610.56,761.86h330v220h-330v-220Z" fill="#4b5563" stroke-width="0"></path>
  <path d="m805,846.31l-63.16,63.16-29.45-29.45-101.84,101.84h330l-135.56-135.55Z" fill="#9ca3af" isolation="isolate" opacity=".68" stroke-width="0"></path>
  <circle cx="659.8" cy="814.92" r="23.38" fill="#9ca3af" isolation="isolate" opacity=".68" stroke-width="0"></circle>
  <rect x="610.56" y="1007.72" width="330" height="40.54" fill="#9ca3af" stroke-width="0"></rect>
  <rect x="623.95" y="1067.7" width="303.21" height="13.95" fill="#9ca3af" stroke-width="0"></rect>
  <path d="m979.44,761.86h330v220h-330v-220Z" fill="#4b5563" stroke-width="0"></path>
  <path d="m1173.88,846.31l-63.16,63.16-29.45-29.45-101.84,101.84h330l-135.56-135.55Z" fill="#9ca3af" isolation="isolate" opacity=".68" stroke-width="0"></path>
  <circle cx="1028.69" cy="814.92" r="23.38" fill="#9ca3af" isolation="isolate" opacity=".68" stroke-width="0"></circle>
  <rect x="979.44" y="1007.72" width="330" height="40.54" fill="#9ca3af" stroke-width="0"></rect>
  <rect x="992.84" y="1067.7" width="303.21" height="13.95" fill="#9ca3af" stroke-width="0"></rect>
  <path d="m1348.33,761.86h330v220h-330v-220Z" fill="#4b5563" stroke-width="0"></path>
  <path d="m1542.77,846.31l-63.16,63.16-29.45-29.45-101.84,101.84h330l-135.56-135.55Z" fill="#9ca3af" isolation="isolate" opacity=".68" stroke-width="0"></path>
  <circle cx="1397.57" cy="814.92" r="23.38" fill="#9ca3af" isolation="isolate" opacity=".68" stroke-width="0"></circle>
  <rect x="1348.33" y="1007.72" width="330" height="40.54" fill="#9ca3af" isolation="isolate" stroke-width="0"></rect>
  <rect x="1361.72" y="1067.7" width="303.21" height="14.3" fill="#9ca3af" isolation="isolate" stroke-width="0"></rect>
  <path d="m241.67,761.86h330v220H241.67v-220Z" fill="#4b5563" stroke-width="0"></path>
  <path d="m436.11,846.31l-63.16,63.16-29.45-29.45-101.84,101.84h330l-135.56-135.55Z" fill="#9ca3af" isolation="isolate" opacity=".68" stroke-width="0"></path>
  <circle cx="290.92" cy="814.92" r="23.38" fill="#9ca3af" isolation="isolate" opacity=".68" stroke-width="0"></circle>
  <rect x="241.67" y="1007.72" width="330" height="40.54" fill="#9ca3af" stroke-width="0"></rect>
  <rect x="255.07" y="1067.7" width="303.21" height="13.95" fill="#9ca3af" stroke-width="0"></rect>
  <rect y="1.65" width="1920" height="52" fill="#6b7280" stroke-width="0"></rect>
  <rect x="669" y="15.15" width="582" height="27" rx="5.78" ry="5.78" fill="#9ca3af" stroke-width="0"></rect>
  <g>
    <circle cx="26" cy="27.65" r="6" fill="#f77171" stroke-width="0"></circle>
    <circle cx="45.5" cy="27.65" r="6" fill="#fabe24" stroke-width="0"></circle>
    <circle cx="65" cy="27.65" r="6" fill="#a2e535" stroke-width="0"></circle>
  </g>
  <text transform="translate(914.99 32.47)" fill="#f9f9f9" font-family="SFCompact-Regular, &apos;SF Compact&apos;" font-size="12" font-variation-settings="&apos;opsz&apos; 19, &apos;wght&apos; 457"><tspan x="0" y="0" letter-spacing="0em">y</tspan><tspan x="6.34" y="0">ou</tspan><tspan x="20.24" y="0" letter-spacing=".01em">r</tspan><tspan x="25.06" y="0" letter-spacing="0em">w</tspan><tspan x="33.87" y="0">ebs</tspan><tspan x="53.62" y="0" letter-spacing="0em">i</tspan><tspan x="57.05" y="0">te.o</tspan><tspan x="78.46" y="0" letter-spacing="0em">r</tspan><tspan x="83.14" y="0">g</tspan></text>
</symbol><symbol id="wireframe-desktop-light" viewBox="0 0 1920 1080">
  <polyline points="1920 0 1920 1080 0 1080 0 0 1920 0" fill="#fff" stroke-width="0"></polyline>
  <rect y="52" width="1920" height="600" fill="#d1d5db" stroke-width="0"></rect>
  <rect x="244.32" y="72" width="300" height="100" fill="#f3f4f6" stroke-width="0"></rect>
  <g>
    <rect x="1600" y="112" width="80" height="20" fill="#f3f4f6" stroke-width="0"></rect>
    <rect x="1500" y="112" width="80" height="20" fill="#f3f4f6" stroke-width="0"></rect>
    <rect x="1400" y="112" width="80" height="20" fill="#f3f4f6" stroke-width="0"></rect>
    <rect x="1300" y="112" width="80" height="20" fill="#f3f4f6" stroke-width="0"></rect>
    <rect x="1200" y="112" width="80" height="20" fill="#f3f4f6" stroke-width="0"></rect>
    <rect x="1100" y="112" width="80" height="20" fill="#f3f4f6" stroke-width="0"></rect>
  </g>
  <g>
    <rect x="472.5" y="252" width="975" height="70" fill="#f3f4f6" stroke-width="0"></rect>
    <rect x="527.5" y="352" width="865" height="70" fill="#f3f4f6" stroke-width="0"></rect>
  </g>
  <rect x="810" y="482" width="300" height="60" fill="#f3f4f6" stroke-width="0"></rect>
  <path d="m610.56,760.21h330v220h-330v-220Z" fill="#d1d5db" stroke-width="0"></path>
  <path d="m805,844.66l-63.16,63.16-29.45-29.45-101.84,101.84h330l-135.56-135.55Z" fill="#f3f4f6" isolation="isolate" opacity=".68" stroke-width="0"></path>
  <circle cx="659.8" cy="813.27" r="23.38" fill="#f3f4f6" isolation="isolate" opacity=".68" stroke-width="0"></circle>
  <rect x="610.56" y="1006.07" width="330" height="40.54" fill="#d1d5db" stroke-width="0"></rect>
  <rect x="623.95" y="1066.05" width="303.21" height="13.95" fill="#d1d5db" stroke-width="0"></rect>
  <path d="m979.44,760.21h330v220h-330v-220Z" fill="#d1d5db" stroke-width="0"></path>
  <path d="m1173.88,844.66l-63.16,63.16-29.45-29.45-101.84,101.84h330l-135.56-135.55Z" fill="#f3f4f6" isolation="isolate" opacity=".68" stroke-width="0"></path>
  <circle cx="1028.69" cy="813.27" r="23.38" fill="#f3f4f6" isolation="isolate" opacity=".68" stroke-width="0"></circle>
  <rect x="979.44" y="1006.07" width="330" height="40.54" fill="#d1d5db" stroke-width="0"></rect>
  <rect x="992.84" y="1066.05" width="303.21" height="13.95" fill="#d1d5db" stroke-width="0"></rect>
  <path d="m1348.33,760.21h330v220h-330v-220Z" fill="#d1d5db" stroke-width="0"></path>
  <path d="m1542.77,844.66l-63.16,63.16-29.45-29.45-101.84,101.84h330l-135.56-135.55Z" fill="#f3f4f6" isolation="isolate" opacity=".68" stroke-width="0"></path>
  <circle cx="1397.57" cy="813.27" r="23.38" fill="#f3f4f6" isolation="isolate" opacity=".68" stroke-width="0"></circle>
  <rect x="1348.33" y="1006.07" width="330" height="40.54" fill="#d1d5db" stroke-width="0"></rect>
  <rect x="1361.72" y="1066.05" width="303.21" height="14.3" fill="#d1d5db" stroke-width="0"></rect>
  <path d="m241.67,760.21h330v220H241.67v-220Z" fill="#d1d5db" stroke-width="0"></path>
  <path d="m436.11,844.66l-63.16,63.16-29.45-29.45-101.84,101.84h330l-135.56-135.55Z" fill="#f3f4f6" isolation="isolate" opacity=".68" stroke-width="0"></path>
  <circle cx="290.92" cy="813.27" r="23.38" fill="#f3f4f6" isolation="isolate" opacity=".68" stroke-width="0"></circle>
  <rect x="241.67" y="1006.07" width="330" height="40.54" fill="#d1d5db" stroke-width="0"></rect>
  <rect x="255.07" y="1066.05" width="303.21" height="13.95" fill="#d1d5db" stroke-width="0"></rect>
  <g>
    <rect width="1920" height="52" fill="#e5e7eb" stroke-width="0"></rect>
    <rect x="669" y="13.5" width="582" height="27" rx="5.78" ry="5.78" fill="#fff" stroke-width="0"></rect>
    <g>
      <circle cx="26" cy="26" r="6" fill="#f77171" stroke-width="0"></circle>
      <circle cx="45.5" cy="26" r="6" fill="#fabe24" stroke-width="0"></circle>
      <circle cx="65" cy="26" r="6" fill="#a2e535" stroke-width="0"></circle>
    </g>
    <text transform="translate(914.99 30.81)" fill="#27272a" font-family="SFCompact-Regular, &apos;SF Compact&apos;" font-size="12" font-variation-settings="&apos;opsz&apos; 19, &apos;wght&apos; 457"><tspan x="0" y="0" letter-spacing="0em">y</tspan><tspan x="6.34" y="0">ou</tspan><tspan x="20.24" y="0" letter-spacing=".01em">r</tspan><tspan x="25.06" y="0" letter-spacing="0em">w</tspan><tspan x="33.87" y="0">ebs</tspan><tspan x="53.62" y="0" letter-spacing="0em">i</tspan><tspan x="57.05" y="0">te.o</tspan><tspan x="78.46" y="0" letter-spacing="0em">r</tspan><tspan x="83.14" y="0">g</tspan></text>
  </g>
</symbol><symbol id="wireframe-laptop-dark" viewBox="0 0 1440 960">
  <rect y="52.46" width="1440" height="907.54" fill="#374151" stroke-width="0"></rect>
  <rect y="52.46" width="1440" height="450" fill="#4b5563" stroke-width="0"></rect>
  <rect x="108" y="82.46" width="240" height="80" fill="#9ca3af" stroke-width="0"></rect>
  <g>
    <rect x="1252" y="112.46" width="80" height="20" fill="#9ca3af" stroke-width="0"></rect>
    <rect x="1152" y="112.46" width="80" height="20" fill="#9ca3af" stroke-width="0"></rect>
    <rect x="1052" y="112.46" width="80" height="20" fill="#9ca3af" stroke-width="0"></rect>
    <rect x="952" y="112.46" width="80" height="20" fill="#9ca3af" stroke-width="0"></rect>
    <rect x="852" y="112.46" width="80" height="20" fill="#9ca3af" stroke-width="0"></rect>
    <rect x="752" y="112.46" width="80" height="20" fill="#9ca3af" stroke-width="0"></rect>
  </g>
  <g>
    <rect x="302.14" y="212.46" width="835.71" height="60" fill="#9ca3af" stroke-width="0"></rect>
    <rect x="349.29" y="292.46" width="741.43" height="60" fill="#9ca3af" stroke-width="0"></rect>
  </g>
  <rect x="620" y="408.18" width="200" height="40" fill="#9ca3af" stroke-width="0"></rect>
  <path d="m109.33,607.21h380v253.33H109.33v-253.33Z" fill="#4b5563" stroke-width="0"></path>
  <path d="m333.23,704.46l-72.73,72.73-33.91-33.91-117.27,117.27h380l-156.1-156.09Z" fill="#9ca3af" isolation="isolate" opacity=".68" stroke-width="0"></path>
  <circle cx="166.04" cy="668.31" r="26.92" fill="#9ca3af" isolation="isolate" opacity=".68" stroke-width="0"></circle>
  <rect x="109.33" y="890.32" width="380" height="46.68" fill="#9ca3af" isolation="isolate" stroke-width="0"></rect>
  <path d="m530,607.21h380v253.33h-380v-253.33Z" fill="#4b5563" stroke-width="0"></path>
  <path d="m753.9,704.46l-72.73,72.73-33.91-33.91-117.27,117.27h380l-156.1-156.09Z" fill="#9ca3af" isolation="isolate" opacity=".68" stroke-width="0"></path>
  <circle cx="586.71" cy="668.31" r="26.92" fill="#9ca3af" isolation="isolate" opacity=".68" stroke-width="0"></circle>
  <rect x="530" y="890.32" width="380" height="46.68" fill="#9ca3af" isolation="isolate" stroke-width="0"></rect>
  <path d="m952,607.21h380v253.33h-380v-253.33Z" fill="#4b5563" stroke-width="0"></path>
  <path d="m1175.9,704.46l-72.73,72.73-33.91-33.91-117.27,117.27h380l-156.1-156.09Z" fill="#9ca3af" isolation="isolate" opacity=".68" stroke-width="0"></path>
  <circle cx="1008.71" cy="668.31" r="26.92" fill="#9ca3af" isolation="isolate" opacity=".68" stroke-width="0"></circle>
  <rect x="952" y="890.32" width="380" height="46.68" fill="#9ca3af" isolation="isolate" stroke-width="0"></rect>
  <rect y=".46" width="1440" height="52" fill="#6b7280" stroke-width="0"></rect>
  <rect x="429" y="13.96" width="582" height="27" rx="5.78" ry="5.78" fill="#9ca3af" stroke-width="0"></rect>
  <g>
    <circle cx="26" cy="26.46" r="6" fill="#f77171" stroke-width="0"></circle>
    <circle cx="45.5" cy="26.46" r="6" fill="#fabe24" stroke-width="0"></circle>
    <circle cx="65" cy="26.46" r="6" fill="#a2e535" stroke-width="0"></circle>
  </g>
  <text transform="translate(674.99 31.27)" fill="#f9f9f9" font-family="SFCompact-Regular, &apos;SF Compact&apos;" font-size="12" font-variation-settings="&apos;opsz&apos; 19, &apos;wght&apos; 457"><tspan x="0" y="0" letter-spacing="0em">y</tspan><tspan x="6.34" y="0">ou</tspan><tspan x="20.24" y="0" letter-spacing=".01em">r</tspan><tspan x="25.06" y="0" letter-spacing="0em">w</tspan><tspan x="33.87" y="0">ebs</tspan><tspan x="53.62" y="0" letter-spacing="0em">i</tspan><tspan x="57.05" y="0">te.o</tspan><tspan x="78.46" y="0" letter-spacing="0em">r</tspan><tspan x="83.14" y="0">g</tspan></text>
</symbol><symbol id="wireframe-laptop-light" viewBox="0 0 1440 960">
  <rect y="52" width="1440" height="908" fill="#fff" stroke-width="0"></rect>
  <rect y="52" width="1440" height="450" fill="#d1d5db" stroke-width="0"></rect>
  <rect x="108" y="82" width="240" height="80" fill="#f3f4f6" stroke-width="0"></rect>
  <g>
    <rect x="1252" y="112" width="80" height="20" fill="#f3f4f6" stroke-width="0"></rect>
    <rect x="1152" y="112" width="80" height="20" fill="#f3f4f6" stroke-width="0"></rect>
    <rect x="1052" y="112" width="80" height="20" fill="#f3f4f6" stroke-width="0"></rect>
    <rect x="952" y="112" width="80" height="20" fill="#f3f4f6" stroke-width="0"></rect>
    <rect x="852" y="112" width="80" height="20" fill="#f3f4f6" stroke-width="0"></rect>
    <rect x="752" y="112" width="80" height="20" fill="#f3f4f6" stroke-width="0"></rect>
  </g>
  <g>
    <rect x="302.14" y="212" width="835.71" height="60" fill="#f3f4f6" stroke-width="0"></rect>
    <rect x="349.29" y="292" width="741.43" height="60" fill="#f3f4f6" stroke-width="0"></rect>
  </g>
  <rect x="620" y="407.72" width="200" height="40" fill="#f3f4f6" stroke-width="0"></rect>
  <rect y="52" width="1440" height="810" fill="none" stroke-width="0"></rect>
  <path d="m109.33,606.75h380v253.33H109.33v-253.33Z" fill="#d1d5db" stroke-width="0"></path>
  <path d="m333.23,704l-72.73,72.73-33.91-33.91-117.27,117.27h380l-156.1-156.09Z" fill="#f3f4f6" isolation="isolate" opacity=".68" stroke-width="0"></path>
  <circle cx="166.04" cy="667.85" r="26.92" fill="#f3f4f6" isolation="isolate" opacity=".68" stroke-width="0"></circle>
  <rect x="109.33" y="889.86" width="380" height="46.68" fill="#d1d5db" stroke-width="0"></rect>
  <path d="m530,606.75h380v253.33h-380v-253.33Z" fill="#d1d5db" stroke-width="0"></path>
  <path d="m753.9,704l-72.73,72.73-33.91-33.91-117.27,117.27h380l-156.1-156.09Z" fill="#f3f4f6" isolation="isolate" opacity=".68" stroke-width="0"></path>
  <circle cx="586.71" cy="667.85" r="26.92" fill="#f3f4f6" isolation="isolate" opacity=".68" stroke-width="0"></circle>
  <rect x="530" y="889.86" width="380" height="46.68" fill="#d1d5db" stroke-width="0"></rect>
  <path d="m952,606.75h380v253.33h-380v-253.33Z" fill="#d1d5db" stroke-width="0"></path>
  <path d="m1175.9,704l-72.73,72.73-33.91-33.91-117.27,117.27h380l-156.1-156.09Z" fill="#f3f4f6" isolation="isolate" opacity=".68" stroke-width="0"></path>
  <circle cx="1008.71" cy="667.85" r="26.92" fill="#f3f4f6" isolation="isolate" opacity=".68" stroke-width="0"></circle>
  <rect x="952" y="889.86" width="380" height="46.68" fill="#d1d5db" stroke-width="0"></rect>
  <rect width="1440" height="52" fill="#e5e7eb" stroke-width="0"></rect>
  <rect x="429" y="13.5" width="582" height="27" rx="5.78" ry="5.78" fill="#fff" stroke-width="0"></rect>
  <g>
    <circle cx="26" cy="26" r="6" fill="#f77171" stroke-width="0"></circle>
    <circle cx="45.5" cy="26" r="6" fill="#fabe24" stroke-width="0"></circle>
    <circle cx="65" cy="26" r="6" fill="#a2e535" stroke-width="0"></circle>
  </g>
  <text transform="translate(674.99 30.81)" fill="#27272a" font-family="SFCompact-Regular, &apos;SF Compact&apos;" font-size="12" font-variation-settings="&apos;opsz&apos; 19, &apos;wght&apos; 457"><tspan x="0" y="0" letter-spacing="0em">y</tspan><tspan x="6.34" y="0">ou</tspan><tspan x="20.24" y="0" letter-spacing=".01em">r</tspan><tspan x="25.06" y="0" letter-spacing="0em">w</tspan><tspan x="33.87" y="0">ebs</tspan><tspan x="53.62" y="0" letter-spacing="0em">i</tspan><tspan x="57.05" y="0">te.o</tspan><tspan x="78.46" y="0" letter-spacing="0em">r</tspan><tspan x="83.14" y="0">g</tspan></text>
</symbol><symbol id="wireframe-mobile-dark" viewBox="0 0 360 780">
  <rect y="90" width="360" height="690" fill="#374151" stroke-width="0"></rect>
  <rect y="90" width="360" height="360" fill="#4b5563" stroke-width="0"></rect>
  <rect x="18.28" y="108.66" width="120" height="40" fill="#9ca3af" stroke-width="0"></rect>
  <g>
    <rect x="18.71" y="199.63" width="323.43" height="60" fill="#9ca3af" stroke-width="0"></rect>
    <rect x="18.71" y="280.03" width="323.43" height="60" fill="#9ca3af" stroke-width="0"></rect>
  </g>
  <rect x="80.43" y="378.62" width="200" height="40" fill="#9ca3af" stroke-width="0"></rect>
  <path d="m18.28,510.66h323.43v215.62H18.28v-215.62Z" fill="#4b5563" stroke-width="0"></path>
  <path d="m208.86,593.43l-61.9,61.9-28.86-28.86-99.81,99.81h323.43l-132.86-132.85Z" fill="#9ca3af" isolation="isolate" opacity=".68" stroke-width="0"></path>
  <circle cx="66.55" cy="562.66" r="22.92" fill="#9ca3af" isolation="isolate" opacity=".68" stroke-width="0"></circle>
  <g>
    <rect x="301.84" y="113.89" width="40" height="4" fill="#9ca3af" stroke-width="0"></rect>
    <rect x="301.84" y="126.66" width="40" height="4" fill="#9ca3af" stroke-width="0"></rect>
    <rect x="301.84" y="139.43" width="40" height="4" fill="#9ca3af" stroke-width="0"></rect>
  </g>
  <rect width="360" height="90" fill="#6b7280" stroke-width="0"></rect>
  <rect x="17.86" y="54.36" width="324.28" height="27" rx="4.43" ry="4.43" fill="#9ca3af" stroke-width="0"></rect>
  <text transform="translate(134.99 71.68)" fill="#f9f9f9" font-family="SFCompact-Regular, &apos;SF Compact&apos;" font-size="12" font-variation-settings="&apos;opsz&apos; 19, &apos;wght&apos; 457"><tspan x="0" y="0" letter-spacing="0em">y</tspan><tspan x="6.34" y="0">ou</tspan><tspan x="20.24" y="0" letter-spacing=".01em">r</tspan><tspan x="25.06" y="0" letter-spacing="0em">w</tspan><tspan x="33.87" y="0">ebs</tspan><tspan x="53.62" y="0" letter-spacing="0em">i</tspan><tspan x="57.05" y="0">te.o</tspan><tspan x="78.46" y="0" letter-spacing="0em">r</tspan><tspan x="83.14" y="0">g</tspan></text>
  <rect x="17.2" y="740" width="325.6" height="40" fill="#9ca3af" isolation="isolate" stroke-width="0"></rect>
</symbol><symbol id="wireframe-mobile-light" viewBox="0 0 360 780">
  <rect y="90" width="360" height="690" fill="#f9f9f9" stroke-width="0"></rect>
  <rect y="90" width="360" height="360" fill="#d1d5db" stroke-width="0"></rect>
  <rect x="18.28" y="108.66" width="120" height="40" fill="#f3f4f6" stroke-width="0"></rect>
  <g>
    <rect x="18.71" y="199.63" width="323.43" height="60" fill="#f3f4f6" stroke-width="0"></rect>
    <rect x="18.71" y="280.03" width="323.43" height="60" fill="#f3f4f6" stroke-width="0"></rect>
  </g>
  <rect x="80.43" y="378.62" width="200" height="40" fill="#f3f4f6" stroke-width="0"></rect>
  <path d="m18.28,510.66h323.43v215.62H18.28v-215.62Z" fill="#d1d5db" stroke-width="0"></path>
  <path d="m208.86,593.43l-61.9,61.9-28.86-28.86-99.81,99.81h323.43l-132.86-132.85Z" fill="#f3f4f6" isolation="isolate" opacity=".68" stroke-width="0"></path>
  <circle cx="66.55" cy="562.66" r="22.92" fill="#f3f4f6" isolation="isolate" opacity=".68" stroke-width="0"></circle>
  <g>
    <rect x="301.84" y="113.89" width="40" height="4" fill="#f3f4f6" stroke-width="0"></rect>
    <rect x="301.84" y="126.66" width="40" height="4" fill="#f3f4f6" stroke-width="0"></rect>
    <rect x="301.84" y="139.43" width="40" height="4" fill="#f3f4f6" stroke-width="0"></rect>
  </g>
  <rect width="360" height="90" fill="#e5e7eb" stroke-width="0"></rect>
  <g>
    <rect x="17.86" y="54.36" width="324.28" height="27" rx="4.43" ry="4.43" fill="#fff" stroke-width="0"></rect>
    <text transform="translate(134.99 71.68)" fill="#27272a" font-family="SFCompact-Regular, &apos;SF Compact&apos;" font-size="12" font-variation-settings="&apos;opsz&apos; 19, &apos;wght&apos; 457"><tspan x="0" y="0" letter-spacing="0em">y</tspan><tspan x="6.34" y="0">ou</tspan><tspan x="20.24" y="0" letter-spacing=".01em">r</tspan><tspan x="25.06" y="0" letter-spacing="0em">w</tspan><tspan x="33.87" y="0">ebs</tspan><tspan x="53.62" y="0" letter-spacing="0em">i</tspan><tspan x="57.05" y="0">te.o</tspan><tspan x="78.46" y="0" letter-spacing="0em">r</tspan><tspan x="83.14" y="0">g</tspan></text>
  </g>
  <rect x="16.12" y="740.18" width="325.6" height="40" fill="#d1d5db" stroke-width="0"></rect>
</symbol><symbol id="wireframe-tablet-dark" viewBox="0 0 768 1024">
  <rect x="0" y="50.88" width="768" height="972" fill="#374151" stroke-width="0"></rect>
  <rect x="0" y="52" width="768" height="375" fill="#4b5563" stroke-width="0"></rect>
  <rect x="38.4" y="65.88" width="180" height="60" fill="#9ca3af" stroke-width="0"></rect>
  <g>
    <rect x="123.12" y="183.86" width="521.76" height="47.05" fill="#9ca3af" stroke-width="0"></rect>
    <rect x="152.55" y="246.59" width="462.89" height="47.05" fill="#9ca3af" stroke-width="0"></rect>
  </g>
  <rect x="284" y="327.69" width="200" height="40" fill="#9ca3af" stroke-width="0"></rect>
  <path d="m404,486.07h325.6v217.07h-325.6v-217.07Z" fill="#4b5563" stroke-width="0"></path>
  <path d="m595.85,569.39l-62.31,62.31-29.05-29.05-100.48,100.48h325.6l-133.75-133.74Z" fill="#9ca3af" isolation="isolate" opacity=".68" stroke-width="0"></path>
  <circle cx="452.59" cy="538.42" r="23.07" fill="#9ca3af" isolation="isolate" opacity=".68" stroke-width="0"></circle>
  <rect x="404" y="863.61" width="325.6" height="20" fill="#9ca3af" isolation="isolate" stroke-width="0"></rect>
  <g isolation="isolate">
    <rect x="404" y="728.65" width="325.6" height="40" fill="#9ca3af" stroke-width="0"></rect>
    <rect x="417.22" y="787.83" width="299.16" height="40" fill="#9ca3af" stroke-width="0"></rect>
  </g>
  <rect x="423.69" y="899.94" width="286.22" height="20" fill="#9ca3af" isolation="isolate" stroke-width="0"></rect>
  <rect x="454.3" y="941.41" width="225" height="50" fill="#9ca3af" isolation="isolate" stroke-width="0"></rect>
  <path d="m38.4,486.07h325.6v217.07H38.4v-217.07Z" fill="#4b5563" stroke-width="0"></path>
  <path d="m230.25,569.39l-62.31,62.31-29.05-29.05-100.48,100.48h325.6l-133.75-133.74Z" fill="#9ca3af" isolation="isolate" opacity=".68" stroke-width="0"></path>
  <circle cx="86.99" cy="538.42" r="23.07" fill="#9ca3af" isolation="isolate" opacity=".68" stroke-width="0"></circle>
  <rect x="38.4" y="863.61" width="325.6" height="20" fill="#9ca3af" isolation="isolate" stroke-width="0"></rect>
  <g isolation="isolate">
    <rect x="38.4" y="728.65" width="325.6" height="40" fill="#9ca3af" stroke-width="0"></rect>
    <rect x="51.62" y="787.83" width="299.16" height="40" fill="#9ca3af" stroke-width="0"></rect>
  </g>
  <rect x="58.09" y="899.94" width="286.22" height="20" fill="#9ca3af" isolation="isolate" stroke-width="0"></rect>
  <rect x="88.7" y="941.41" width="225" height="50" fill="#9ca3af" isolation="isolate" stroke-width="0"></rect>
  <g>
    <rect x="689.6" y="81.1" width="40" height="4" fill="#9ca3af" stroke-width="0"></rect>
    <rect x="689.6" y="93.88" width="40" height="4" fill="#9ca3af" stroke-width="0"></rect>
    <rect x="689.6" y="106.65" width="40" height="4" fill="#9ca3af" stroke-width="0"></rect>
  </g>
  <rect width="768" height="52" fill="#6b7280" stroke-width="0"></rect>
  <rect x="93" y="13.5" width="582" height="27" rx="5.78" ry="5.78" fill="#9ca3af" stroke-width="0"></rect>
  <text transform="translate(338.99 30.81)" fill="#f9f9f9" font-family="SFCompact-Regular, &apos;SF Compact&apos;" font-size="12" font-variation-settings="&apos;opsz&apos; 19, &apos;wght&apos; 457"><tspan x="0" y="0" letter-spacing="0em">y</tspan><tspan x="6.34" y="0">ou</tspan><tspan x="20.24" y="0" letter-spacing=".01em">r</tspan><tspan x="25.06" y="0" letter-spacing="0em">w</tspan><tspan x="33.87" y="0">ebs</tspan><tspan x="53.62" y="0" letter-spacing="0em">i</tspan><tspan x="57.05" y="0">te.o</tspan><tspan x="78.46" y="0" letter-spacing="0em">r</tspan><tspan x="83.14" y="0">g</tspan></text>
</symbol><symbol id="wireframe-tablet-light" viewBox="0 0 768 1024">
  <rect y="52" width="768" height="972" fill="#fff" stroke-width="0"></rect>
  <rect y="52" width="768" height="375.74" fill="#d1d5db" stroke-width="0"></rect>
  <rect x="38.4" y="67" width="180" height="60" fill="#f3f4f6" stroke-width="0"></rect>
  <g>
    <rect x="123.12" y="184.98" width="521.76" height="47.05" fill="#f3f4f6" stroke-width="0"></rect>
    <rect x="152.55" y="247.71" width="462.89" height="47.05" fill="#f3f4f6" stroke-width="0"></rect>
  </g>
  <rect x="284" y="328.82" width="200" height="40" fill="#f3f4f6" stroke-width="0"></rect>
  <path d="m404,487.19h325.6v217.07h-325.6v-217.07Z" fill="#d1d5db" stroke-width="0"></path>
  <path d="m595.85,570.52l-62.31,62.31-29.05-29.05-100.48,100.48h325.6l-133.75-133.74Z" fill="#f3f4f6" isolation="isolate" opacity=".68" stroke-width="0"></path>
  <circle cx="452.59" cy="539.54" r="23.07" fill="#f3f4f6" isolation="isolate" opacity=".68" stroke-width="0"></circle>
  <rect x="404" y="864.73" width="325.6" height="20" fill="#d1d5db" stroke-width="0"></rect>
  <g>
    <rect x="404" y="729.77" width="325.6" height="40" fill="#d1d5db" stroke-width="0"></rect>
    <rect x="417.22" y="788.95" width="299.16" height="40" fill="#d1d5db" stroke-width="0"></rect>
  </g>
  <rect x="423.69" y="901.06" width="286.22" height="20" fill="#d1d5db" stroke-width="0"></rect>
  <rect x="454.3" y="942.53" width="225" height="50" fill="#d1d5db" stroke-width="0"></rect>
  <path d="m38.4,487.19h325.6v217.07H38.4v-217.07Z" fill="#d1d5db" stroke-width="0"></path>
  <path d="m230.25,570.52l-62.31,62.31-29.05-29.05-100.48,100.48h325.6l-133.75-133.74Z" fill="#f3f4f6" isolation="isolate" opacity=".68" stroke-width="0"></path>
  <circle cx="86.99" cy="539.54" r="23.07" fill="#f3f4f6" isolation="isolate" opacity=".68" stroke-width="0"></circle>
  <rect x="38.4" y="864.73" width="325.6" height="20" fill="#d1d5db" stroke-width="0"></rect>
  <g>
    <rect x="38.4" y="729.77" width="325.6" height="40" fill="#d1d5db" stroke-width="0"></rect>
    <rect x="51.62" y="788.95" width="299.16" height="40" fill="#d1d5db" stroke-width="0"></rect>
  </g>
  <rect x="58.09" y="901.06" width="286.22" height="20" fill="#d1d5db" stroke-width="0"></rect>
  <rect x="88.7" y="942.53" width="225" height="50" fill="#d1d5db" stroke-width="0"></rect>
  <g>
    <rect x="689.6" y="82.23" width="40" height="4" fill="#f3f4f6" stroke-width="0"></rect>
    <rect x="689.6" y="95" width="40" height="4" fill="#f3f4f6" stroke-width="0"></rect>
    <rect x="689.6" y="107.77" width="40" height="4" fill="#f3f4f6" stroke-width="0"></rect>
  </g>
  <rect x="0" y="1" width="768" height="52" fill="#e5e7eb" stroke-width="0"></rect>
  <rect x="93" y="14.5" width="582" height="27" rx="5.78" ry="5.78" fill="#fff" stroke-width="0"></rect>
  <text transform="translate(338.99 31.81)" fill="#27272a" font-family="SFCompact-Regular, &apos;SF Compact&apos;" font-size="12" font-variation-settings="&apos;opsz&apos; 19, &apos;wght&apos; 457"><tspan x="0" y="0" letter-spacing="0em">y</tspan><tspan x="6.34" y="0">ou</tspan><tspan x="20.24" y="0" letter-spacing=".01em">r</tspan><tspan x="25.06" y="0" letter-spacing="0em">w</tspan><tspan x="33.87" y="0">ebs</tspan><tspan x="53.62" y="0" letter-spacing="0em">i</tspan><tspan x="57.05" y="0">te.o</tspan><tspan x="78.46" y="0" letter-spacing="0em">r</tspan><tspan x="83.14" y="0">g</tspan></text>
</symbol></svg>