<?xml version="1.0" encoding="UTF-8"?><svg id="a" xmlns="http://www.w3.org/2000/svg" viewBox="0 0 1444.507858276 1444.507858276"><path d="m1415.218673706,651.543380737L792.96446228,29.289474487C774.07762146,10.40184021,748.965255737-.000015259,722.253952026-.000015259,695.543197632-.000015259,670.43107605,10.40184021,651.543441772,29.289474487L29.289474487,651.543380737C10.40184021,670.430526733-.000015259,695.542892456-.000015259,722.253952026s10.401855469,51.823425293,29.289489746,70.71081543l622.253967285,622.25390625c18.887878418,18.887695312,44,29.28918457,70.710510254,29.28918457,26.71105957,0,51.823181152-10.401855469,70.710510254-29.28918457l622.254211426-622.254211426c18.887329102-18.887329102,29.28918457-43.999450684,29.28918457-70.710510254s-10.401855469-51.823181152-29.28918457-70.710571289ZM736.538497925,41.716171265c-2.8125-.686462402-5.664978027-1.167053223-8.53338623-1.441589355,2.868469238.274597168,5.72088623.755126953,8.53338623,1.441589355Zm-20.37890625-1.40045166c-2.752563477.27935791-5.490112305.741394043-8.190185547,1.40045166,2.700012207-.658996582,5.437683105-1.12109375,8.190185547-1.40045166ZM41.209274292,734.220504761c-.248535156-1.226867676-.461303711-2.458984375-.632568359-3.696411133.171264648,1.237487793.384033203,2.469543457.632568359,3.696411133Zm1345.725219727,30.459777832l-622.254211426,622.254211426c-11.715698242,11.715698242-27.070983887,17.573486328-42.426330566,17.573486328-15.355285645,0-30.710632324-5.857788086-42.426330566-17.573486328l-248.901550293-248.901672363,248.901489258,248.901550293c23.43145752,23.431396484,61.421325684,23.431396484,84.852783203,0l622.25402832-622.25402832c23.431396484-23.43145752,23.431396484-61.421386719,0-84.852844238l-207.417907715-207.41784668,207.418029785,207.41796875c23.431274414,23.431335449,23.431274414,61.421325684,0,84.852661133Z" fill="#8ac926"/><path d="m637.40139722,99.999725634L57.57357771,679.82754517c-23.431457484,23.431457485-23.431457483,61.421356258.000000002,84.852813742l14.142394574,14.142394574L693.969939716,156.568268128l-56.568542496-56.568542494Z" fill="#202028"/><polygon points="899.031424174 722.253175172 722.25395203 899.030647323 545.476954621 722.253649922 280.312213791 987.418994981 637.401181456 1344.507962631 1079.343869172 902.565274895 899.031424174 722.253175172" fill="#202028"/><rect x="84.485067649" y="554.649441751" width="625.00041524" height="215.000188763" transform="translate(-351.936248591 474.650554587) rotate(-45.000035608)" fill="#202028"/><path d="m1386.934326341,679.82754514L764.680358883,57.57357771c-23.431457485-23.431457484-61.421356258-23.431457483-84.852813742.000000002l-14.142351415,14.142351416,707.106996994,707.106565379,14.142135623-14.142135624c23.431457484-23.431457485,23.431457483-61.421356258-.000000002-84.852813742Z" fill="#202028"/><rect x="807.440518611" y="149.567291262" width="215.000213623" height="760.000061036" transform="translate(-106.480279944 802.069120721) rotate(-45.00009663)" fill="#202028"/><path d="m1344.507369995,807.106246948l-56.568359375-56.568359375-622.253662109,622.254272461,14.142211914,14.142211914c23.43145752,23.431396484,61.421325684,23.431396484,84.852783203,0l579.827026367-579.828125Z" fill="#202028"/></svg>