<svg xmlns="http://www.w3.org/2000/svg" version="1.1" xmlns:xlink="http://www.w3.org/1999/xlink" xmlns:svgjs="http://svgjs.com/svgjs" width="500" height="500"><svg id="SvgjsSvg1000" data-name="Layer 1" xmlns="http://www.w3.org/2000/svg" viewBox="0 0 500 500">
  <path d="m495.61,239.39l-10.61-10.61V60c0-24.81-20.19-45-45-45h-127.5c-8.28,0-15,6.72-15,15s6.72,15,15,15h127.5c8.27,0,15,6.73,15,15v138.79l-131.89-131.89c-3.63-3.63-8.86-5.15-13.86-4.04-5.01,1.11-9.1,4.71-10.85,9.53l-116.97,322.83L36.21,250,198.11,88.11c5.86-5.86,5.86-15.35,0-21.21-5.86-5.86-15.36-5.86-21.21,0L45,198.79V60c0-8.27,6.73-15,15-15h127.5c8.28,0,15-6.72,15-15s-6.72-15-15-15H60c-24.81,0-45,20.19-45,45v168.79l-10.61,10.61c-5.86,5.86-5.86,15.36,0,21.21l10.61,10.61v168.79c0,24.81,20.19,45,45,45h127.5c8.28,0,15-6.72,15-15s-6.72-15-15-15H60c-8.27,0-15-6.73-15-15v-138.79l131.89,131.89c2.84,2.84,6.67,4.39,10.61,4.39,1.08,0,2.18-.12,3.26-.36,5.01-1.11,9.1-4.71,10.85-9.53l116.97-322.83,145.22,145.22-4.39,4.39-157.5,157.5c-5.86,5.86-5.86,15.36,0,21.21,5.86,5.86,15.36,5.86,21.21,0l131.89-131.89v138.79c0,8.27-6.73,15-15,15h-127.5c-8.28,0-15,6.72-15,15s6.72,15,15,15h127.5c24.81,0,45-20.19,45-45v-168.79l10.61-10.61c5.86-5.86,5.86-15.35,0-21.21Z" stroke-width="0"></path>
</svg><style>@media (prefers-color-scheme: light) { :root { filter: none; } }
@media (prefers-color-scheme: dark) { :root { filter: contrast(1) brightness(1.3); } }
</style></svg>