<?xml version="1.0" standalone="no"?>
<!DOCTYPE svg PUBLIC "-//W3C//DTD SVG 20010904//EN"
 "http://www.w3.org/TR/2001/REC-SVG-20010904/DTD/svg10.dtd">
<svg version="1.0" xmlns="http://www.w3.org/2000/svg"
 width="700.000000pt" height="700.000000pt" viewBox="0 0 700.000000 700.000000"
 preserveAspectRatio="xMidYMid meet">
<metadata>
Created by potrace 1.14, written by Peter Selinger 2001-2017
</metadata>
<g transform="translate(0.000000,700.000000) scale(0.100000,-0.100000)"
fill="#000000" stroke="none">
<path d="M735 6783 c-186 -42 -316 -127 -414 -270 -58 -86 -88 -161 -105 -268
-2 -11 -4 -566 -5 -1234 l-1 -1214 -90 -91 c-101 -103 -120 -138 -116 -216 4
-73 18 -97 119 -199 l87 -87 0 -1219 c1 -1256 0 -1241 38 -1360 13 -41 58
-121 96 -170 62 -81 153 -151 251 -194 113 -50 130 -51 1137 -51 936 0 940 0
981 22 118 59 156 198 84 306 -24 36 -78 75 -117 85 -14 4 -445 7 -958 7 -910
0 -933 1 -970 20 -49 26 -87 65 -106 112 -14 33 -16 155 -16 1030 l0 992 934
-934 c560 -560 949 -941 972 -953 77 -40 189 -16 246 51 32 38 29 31 293 762
124 344 234 648 244 675 11 28 59 158 106 290 82 227 105 290 209 580 24 66
82 226 129 355 47 129 159 440 250 690 234 645 256 705 289 795 43 117 78 216
90 250 5 17 13 39 18 50 5 11 16 43 26 70 9 28 20 53 23 57 4 4 463 -449 1021
-1007 l1015 -1015 -1144 -1144 c-680 -679 -1152 -1159 -1164 -1182 -21 -41
-26 -122 -9 -165 25 -64 105 -125 173 -133 38 -4 106 12 134 30 11 8 440 433
953 946 l932 932 0 -991 c0 -946 -1 -993 -19 -1035 -23 -53 -77 -103 -128
-117 -25 -7 -347 -11 -960 -11 -622 0 -931 -3 -950 -11 -170 -63 -198 -281
-48 -374 l48 -30 956 -2 c980 -2 991 -2 1106 35 37 11 119 56 160 87 85 63
162 161 203 260 54 126 52 74 52 1388 l0 1221 87 87 c102 103 115 126 119 199
4 78 -17 117 -118 218 l-88 87 -2 1245 -3 1245 -23 65 c-78 219 -247 373 -468
425 -80 19 -1930 22 -1985 3 -187 -64 -188 -332 0 -396 25 -9 281 -12 963 -12
1016 0 967 3 1032 -58 15 -15 37 -46 47 -70 18 -42 19 -86 19 -1035 l0 -991
-934 933 c-526 527 -949 942 -970 953 -79 40 -184 20 -247 -49 -22 -22 -99
-202 -99 -229 0 -3 -6 -20 -14 -37 -7 -18 -57 -151 -109 -297 -52 -146 -143
-398 -202 -560 -58 -162 -120 -333 -137 -380 -17 -47 -43 -119 -59 -160 -15
-41 -76 -208 -134 -370 -196 -545 -247 -685 -275 -760 -15 -41 -39 -106 -53
-145 -29 -77 -376 -1038 -427 -1180 -18 -49 -48 -133 -68 -185 -19 -52 -37
-105 -39 -118 -3 -12 -9 -25 -14 -28 -5 -3 -9 -12 -9 -21 0 -8 -6 -29 -14 -46
-8 -18 -17 -41 -20 -51 -6 -16 -188 161 -1023 997 l-1017 1016 1144 1145 c630
630 1153 1160 1162 1179 35 65 24 163 -24 221 -62 75 -174 101 -254 59 -19
-10 -455 -439 -969 -953 l-935 -934 0 984 c0 608 4 998 10 1020 13 49 66 109
114 131 39 18 88 19 976 19 l935 0 51 24 c160 74 156 302 -7 375 -43 20 -61
21 -999 20 -525 -1 -964 -4 -975 -6z"/>
</g>
</svg>
