<?xml version="1.0" encoding="UTF-8"?>
<svg id="contentful" xmlns="http://www.w3.org/2000/svg" viewBox="0 0 64 64">
  <path d="m23.27,44.53c-3.2-3.2-5.33-7.73-5.33-12.53s1.87-9.33,5.07-12.53c2.67-2.67,2.67-7.2,0-10.13-2.67-2.67-6.93-2.67-9.6,0-5.33,5.87-8.8,13.87-8.8,22.67s3.47,16.8,9.07,22.67c2.67,2.67,6.93,2.67,9.6,0,2.4-2.93,2.4-7.2,0-10.13Z" fill="#fae501" stroke-width="0"/>
  <path d="m23.27,19.47c3.2-3.47,7.47-5.33,12.27-5.33s9.07,2.13,12.27,5.07c2.67,2.93,6.93,2.93,9.6,0,2.67-2.67,2.67-7.2,0-10.13C51.53,3.73,43.8,0,35.27,0S19,3.73,13.4,9.33c-2.67,2.67-2.67,7.2,0,10.13,2.67,2.4,6.93,2.4,9.87,0Z" fill="#4fb5e1" stroke-width="0"/>
  <path d="m47.53,44.53c-3.2,3.47-7.47,5.33-12.27,5.33s-9.07-2.13-12.27-5.33c-2.67-2.93-6.93-2.93-9.6,0-2.67,2.67-2.67,7.2,0,10.13,5.6,5.6,13.33,9.33,21.87,9.33s16.27-3.73,21.87-9.33c2.67-2.67,2.67-7.2,0-10.13-2.67-2.67-6.93-2.67-9.6,0Z" fill="#f05751" stroke-width="0"/>
  <ellipse cx="18.2" cy="14.4" rx="6.67" ry="6.93" fill="#0681b6" stroke-width="0"/>
  <ellipse cx="18.2" cy="49.6" rx="6.67" ry="6.93" fill="#cd4739" stroke-width="0"/>
</svg>