<?xml version="1.0" encoding="UTF-8"?>
<svg id="figma" xmlns="http://www.w3.org/2000/svg" viewBox="0 0 64 64">
  <path d="m21.33,64c5.9,0,10.67-4.76,10.67-10.67v-10.67h-10.67c-5.9,0-10.67,4.76-10.67,10.67s4.76,10.67,10.67,10.67Z" fill="#0acf83" stroke-width="0"/>
  <path d="m10.67,32c0-5.9,4.76-10.67,10.67-10.67h10.67v21.33h-10.67c-5.9,0-10.67-4.76-10.67-10.67Z" fill="#a259ff" stroke-width="0"/>
  <path d="m10.67,10.67C10.67,4.76,15.43,0,21.33,0h10.67v21.33h-10.67c-5.9,0-10.67-4.76-10.67-10.67Z" fill="#f24e1e" stroke-width="0"/>
  <path d="m32,0h10.67c5.9,0,10.67,4.76,10.67,10.67s-4.76,10.67-10.67,10.67h-10.67V0Z" fill="#ff7262" stroke-width="0"/>
  <path d="m53.33,32c0,5.9-4.76,10.67-10.67,10.67s-10.67-4.76-10.67-10.67,4.76-10.67,10.67-10.67,10.67,4.76,10.67,10.67Z" fill="#1abcfe" stroke-width="0"/>
</svg>