<?xml version="1.0" encoding="UTF-8"?>
<svg id="Layer_1" data-name="Layer 1" xmlns="http://www.w3.org/2000/svg" viewBox="0 0 24 24">
  <rect x="0" width="24" height="24" fill="#030712" stroke-width="0"/>
  <path d="m7.2,21.6h-2.52c-.93,0-1.68-.75-1.68-1.68V4.08c0-.93.75-1.68,1.68-1.68h2.52c.33,0,.6.27.6.6s-.27.6-.6.6h-2.52c-.26,0-.48.21-.48.48v15.84c0,.26.21.48.48.48h2.52c.33,0,.6.27.6.6s-.27.6-.6.6Z" fill="#4b5563" stroke-width="0"/>
  <path d="m19.32,21.6h-2.52c-.33,0-.6-.27-.6-.6s.27-.6.6-.6h2.52c.26,0,.48-.21.48-.48V4.08c0-.26-.21-.48-.48-.48h-2.52c-.33,0-.6-.27-.6-.6s.27-.6.6-.6h2.52c.93,0,1.68.75,1.68,1.68v15.84c0,.93-.75,1.68-1.68,1.68Z" fill="#4b5563" stroke-width="0"/>
  <path d="m9.4,19c-.16,0-.31-.06-.42-.18l-6.4-6.4c-.23-.23-.23-.61,0-.85l6.4-6.4c.23-.23.61-.23.85,0s.23.61,0,.85l-5.98,5.98,5.34,5.34,4.86-11.96c.08-.19.24-.32.44-.36.19-.04.4.02.54.16l6.4,6.4c.23.23.23.61,0,.85l-6.4,6.4c-.23.23-.61.23-.85,0s-.23-.61,0-.85l5.98-5.98-5.34-5.34-4.86,11.96c-.08.19-.24.32-.44.36-.04,0-.08.01-.12.01Z" fill="#14b8a6" stroke-width="0"/>
</svg>