<svg xmlns="http://www.w3.org/2000/svg" version="1.1" xmlns:xlink="http://www.w3.org/1999/xlink" xmlns:svgjs="http://svgjs.dev/svgjs" width="700" height="700" preserveAspectRatio="none" viewBox="0 0 700 700"><g mask="url(&quot;#SvgjsMask1060&quot;)" fill="none"><g mask="url(&quot;#SvgjsMask1061&quot;)"><path d="M537.5 387.5L512.5 387.5L487.5 387.5M512.5 362.5L487.5 337.5L462.5 312.5L437.5 312.5L412.5 337.5L387.5 337.5M312.5 387.5L287.5 412.5L262.5 412.5L237.5 412.5L212.5 412.5L187.5 412.5L162.5 412.5L137.5 412.5L112.5 437.5M412.5 387.5L387.5 362.5L362.5 362.5L337.5 362.5L312.5 362.5L287.5 362.5M612.5 387.5L587.5 412.5L562.5 412.5M737.5 362.5L712.5 362.5L687.5 362.5L662.5 387.5L637.5 387.5L612.5 387.5L587.5 387.5L562.5 387.5L537.5 387.5L512.5 362.5L487.5 362.5L462.5 362.5L437.5 362.5L412.5 387.5L387.5 387.5L362.5 387.5L337.5 387.5L312.5 387.5L287.5 387.5L262.5 387.5" stroke="rgba(20, 184, 166, 1)" stroke-width="4.17"></path><path d="M256.25 387.5 a6.25 6.25 0 1 0 12.5 0 a6.25 6.25 0 1 0 -12.5 0zM481.25 387.5 a6.25 6.25 0 1 0 12.5 0 a6.25 6.25 0 1 0 -12.5 0zM381.25 337.5 a6.25 6.25 0 1 0 12.5 0 a6.25 6.25 0 1 0 -12.5 0zM106.25 437.5 a6.25 6.25 0 1 0 12.5 0 a6.25 6.25 0 1 0 -12.5 0zM281.25 362.5 a6.25 6.25 0 1 0 12.5 0 a6.25 6.25 0 1 0 -12.5 0zM556.25 412.5 a6.25 6.25 0 1 0 12.5 0 a6.25 6.25 0 1 0 -12.5 0z" fill="rgba(20, 184, 166, 1)"></path><path d="M612.5 337.5L587.5 312.5L562.5 312.5L537.5 312.5L512.5 312.5M562.5 337.5L537.5 337.5L512.5 337.5M662.5 337.5L637.5 362.5M737.5 337.5L712.5 337.5L687.5 337.5L662.5 337.5L637.5 337.5L612.5 337.5L587.5 337.5L562.5 337.5L537.5 362.5" stroke="rgba(20, 184, 166, 1)" stroke-width="4.17"></path><path d="M531.25 362.5 a6.25 6.25 0 1 0 12.5 0 a6.25 6.25 0 1 0 -12.5 0zM506.25 312.5 a6.25 6.25 0 1 0 12.5 0 a6.25 6.25 0 1 0 -12.5 0zM506.25 337.5 a6.25 6.25 0 1 0 12.5 0 a6.25 6.25 0 1 0 -12.5 0zM631.25 362.5 a6.25 6.25 0 1 0 12.5 0 a6.25 6.25 0 1 0 -12.5 0z" fill="rgba(20, 184, 166, 1)"></path><path d="M737.5 387.5L712.5 387.5L687.5 387.5L662.5 412.5" stroke="rgba(219, 39, 119, 1)" stroke-width="4.17"></path><path d="M656.25 412.5 a6.25 6.25 0 1 0 12.5 0 a6.25 6.25 0 1 0 -12.5 0z" fill="rgba(219, 39, 119, 1)"></path><path d="M237.5 262.5L212.5 237.5L187.5 237.5L162.5 237.5L137.5 237.5M712.5 312.5L687.5 312.5L662.5 312.5L637.5 312.5L612.5 312.5M412.5 287.5L387.5 312.5L362.5 312.5L337.5 312.5L312.5 312.5L287.5 312.5L262.5 312.5M287.5 262.5L262.5 237.5M462.5 287.5L437.5 262.5L412.5 262.5L387.5 262.5M737.5 312.5L712.5 312.5L687.5 287.5L662.5 287.5L637.5 287.5L612.5 287.5L587.5 287.5L562.5 287.5L537.5 287.5L512.5 287.5L487.5 287.5L462.5 287.5L437.5 287.5L412.5 287.5L387.5 287.5L362.5 287.5L337.5 287.5L312.5 262.5L287.5 262.5L262.5 262.5L237.5 262.5L212.5 262.5" stroke="rgba(20, 184, 166, 1)" stroke-width="4.17"></path><path d="M206.25 262.5 a6.25 6.25 0 1 0 12.5 0 a6.25 6.25 0 1 0 -12.5 0zM131.25 237.5 a6.25 6.25 0 1 0 12.5 0 a6.25 6.25 0 1 0 -12.5 0zM606.25 312.5 a6.25 6.25 0 1 0 12.5 0 a6.25 6.25 0 1 0 -12.5 0zM256.25 312.5 a6.25 6.25 0 1 0 12.5 0 a6.25 6.25 0 1 0 -12.5 0zM256.25 237.5 a6.25 6.25 0 1 0 12.5 0 a6.25 6.25 0 1 0 -12.5 0zM381.25 262.5 a6.25 6.25 0 1 0 12.5 0 a6.25 6.25 0 1 0 -12.5 0z" fill="rgba(20, 184, 166, 1)"></path><path d="M637.5 437.5L612.5 412.5M737.5 412.5L712.5 412.5L687.5 412.5L662.5 437.5L637.5 437.5L612.5 437.5L587.5 437.5" stroke="rgba(219, 39, 119, 1)" stroke-width="4.17"></path><path d="M581.25 437.5 a6.25 6.25 0 1 0 12.5 0 a6.25 6.25 0 1 0 -12.5 0zM606.25 412.5 a6.25 6.25 0 1 0 12.5 0 a6.25 6.25 0 1 0 -12.5 0z" fill="rgba(219, 39, 119, 1)"></path><path d="M487.5 262.5L462.5 262.5M437.5 237.5L412.5 212.5L387.5 212.5L362.5 212.5M462.5 237.5L437.5 212.5M737.5 287.5L712.5 287.5L687.5 262.5L662.5 262.5L637.5 262.5L612.5 262.5L587.5 262.5L562.5 262.5L537.5 262.5L512.5 262.5L487.5 262.5L462.5 237.5L437.5 237.5L412.5 237.5L387.5 237.5" stroke="rgba(219, 39, 119, 1)" stroke-width="4.17"></path><path d="M381.25 237.5 a6.25 6.25 0 1 0 12.5 0 a6.25 6.25 0 1 0 -12.5 0zM456.25 262.5 a6.25 6.25 0 1 0 12.5 0 a6.25 6.25 0 1 0 -12.5 0zM356.25 212.5 a6.25 6.25 0 1 0 12.5 0 a6.25 6.25 0 1 0 -12.5 0zM431.25 212.5 a6.25 6.25 0 1 0 12.5 0 a6.25 6.25 0 1 0 -12.5 0z" fill="rgba(219, 39, 119, 1)"></path><path d="M462.5 462.5L437.5 437.5L412.5 437.5L387.5 437.5M512.5 462.5L487.5 437.5M537.5 462.5L512.5 437.5L487.5 412.5L462.5 412.5M737.5 437.5L712.5 437.5L687.5 437.5L662.5 462.5L637.5 462.5L612.5 462.5L587.5 462.5L562.5 462.5L537.5 462.5L512.5 462.5L487.5 462.5L462.5 462.5L437.5 462.5" stroke="rgba(20, 184, 166, 1)" stroke-width="4.17"></path><path d="M431.25 462.5 a6.25 6.25 0 1 0 12.5 0 a6.25 6.25 0 1 0 -12.5 0zM381.25 437.5 a6.25 6.25 0 1 0 12.5 0 a6.25 6.25 0 1 0 -12.5 0zM481.25 437.5 a6.25 6.25 0 1 0 12.5 0 a6.25 6.25 0 1 0 -12.5 0zM456.25 412.5 a6.25 6.25 0 1 0 12.5 0 a6.25 6.25 0 1 0 -12.5 0z" fill="rgba(20, 184, 166, 1)"></path><path d="M737.5 262.5L712.5 262.5L687.5 237.5L662.5 237.5L637.5 237.5L612.5 237.5L587.5 237.5L562.5 237.5" stroke="rgba(219, 39, 119, 1)" stroke-width="4.17"></path><path d="M556.25 237.5 a6.25 6.25 0 1 0 12.5 0 a6.25 6.25 0 1 0 -12.5 0z" fill="rgba(219, 39, 119, 1)"></path><path d="M412.5 487.5L387.5 462.5L362.5 462.5M737.5 462.5L712.5 462.5L687.5 462.5L662.5 487.5L637.5 487.5L612.5 487.5L587.5 487.5L562.5 487.5L537.5 487.5L512.5 487.5L487.5 487.5L462.5 487.5L437.5 487.5L412.5 487.5L387.5 487.5" stroke="rgba(219, 39, 119, 1)" stroke-width="4.17"></path><path d="M381.25 487.5 a6.25 6.25 0 1 0 12.5 0 a6.25 6.25 0 1 0 -12.5 0zM356.25 462.5 a6.25 6.25 0 1 0 12.5 0 a6.25 6.25 0 1 0 -12.5 0z" fill="rgba(219, 39, 119, 1)"></path><path d="M337.5 187.5L312.5 212.5L287.5 212.5L262.5 212.5L237.5 212.5M562.5 212.5L537.5 212.5L512.5 212.5L487.5 212.5L462.5 212.5M362.5 187.5L337.5 162.5L312.5 162.5L287.5 162.5L262.5 162.5L237.5 162.5L212.5 162.5M387.5 187.5L362.5 162.5M187.5 187.5L162.5 187.5L137.5 187.5L112.5 187.5L87.5 187.5M212.5 187.5L187.5 212.5L162.5 212.5L137.5 212.5L112.5 212.5L87.5 212.5L62.5 212.5M737.5 237.5L712.5 237.5L687.5 212.5L662.5 212.5L637.5 212.5L612.5 212.5L587.5 212.5L562.5 212.5L537.5 187.5L512.5 187.5L487.5 187.5L462.5 187.5L437.5 187.5L412.5 187.5L387.5 187.5L362.5 187.5L337.5 187.5L312.5 187.5L287.5 187.5L262.5 187.5L237.5 187.5L212.5 187.5L187.5 187.5L162.5 162.5" stroke="rgba(219, 39, 119, 1)" stroke-width="4.17"></path><path d="M156.25 162.5 a6.25 6.25 0 1 0 12.5 0 a6.25 6.25 0 1 0 -12.5 0zM231.25 212.5 a6.25 6.25 0 1 0 12.5 0 a6.25 6.25 0 1 0 -12.5 0zM456.25 212.5 a6.25 6.25 0 1 0 12.5 0 a6.25 6.25 0 1 0 -12.5 0zM206.25 162.5 a6.25 6.25 0 1 0 12.5 0 a6.25 6.25 0 1 0 -12.5 0zM356.25 162.5 a6.25 6.25 0 1 0 12.5 0 a6.25 6.25 0 1 0 -12.5 0zM81.25 187.5 a6.25 6.25 0 1 0 12.5 0 a6.25 6.25 0 1 0 -12.5 0zM56.25 212.5 a6.25 6.25 0 1 0 12.5 0 a6.25 6.25 0 1 0 -12.5 0z" fill="rgba(219, 39, 119, 1)"></path><path d="M362.5 512.5L337.5 487.5M312.5 512.5L287.5 487.5M462.5 512.5L437.5 537.5L412.5 537.5M487.5 512.5L462.5 537.5M387.5 512.5L362.5 537.5M737.5 487.5L712.5 487.5L687.5 487.5L662.5 512.5L637.5 512.5L612.5 512.5L587.5 512.5L562.5 512.5L537.5 512.5L512.5 512.5L487.5 512.5L462.5 512.5L437.5 512.5L412.5 512.5L387.5 512.5L362.5 512.5L337.5 512.5L312.5 512.5L287.5 512.5L262.5 512.5" stroke="rgba(20, 184, 166, 1)" stroke-width="4.17"></path><path d="M256.25 512.5 a6.25 6.25 0 1 0 12.5 0 a6.25 6.25 0 1 0 -12.5 0zM331.25 487.5 a6.25 6.25 0 1 0 12.5 0 a6.25 6.25 0 1 0 -12.5 0zM281.25 487.5 a6.25 6.25 0 1 0 12.5 0 a6.25 6.25 0 1 0 -12.5 0zM406.25 537.5 a6.25 6.25 0 1 0 12.5 0 a6.25 6.25 0 1 0 -12.5 0zM456.25 537.5 a6.25 6.25 0 1 0 12.5 0 a6.25 6.25 0 1 0 -12.5 0zM356.25 537.5 a6.25 6.25 0 1 0 12.5 0 a6.25 6.25 0 1 0 -12.5 0z" fill="rgba(20, 184, 166, 1)"></path><path d="M412.5 162.5L387.5 162.5M612.5 187.5L587.5 162.5L562.5 162.5M637.5 187.5L612.5 162.5M737.5 212.5L712.5 212.5L687.5 187.5L662.5 187.5L637.5 187.5L612.5 187.5L587.5 187.5L562.5 187.5L537.5 162.5L512.5 162.5L487.5 162.5L462.5 162.5L437.5 162.5L412.5 162.5L387.5 137.5L362.5 137.5L337.5 137.5L312.5 137.5" stroke="rgba(219, 39, 119, 1)" stroke-width="4.17"></path><path d="M306.25 137.5 a6.25 6.25 0 1 0 12.5 0 a6.25 6.25 0 1 0 -12.5 0zM381.25 162.5 a6.25 6.25 0 1 0 12.5 0 a6.25 6.25 0 1 0 -12.5 0zM556.25 162.5 a6.25 6.25 0 1 0 12.5 0 a6.25 6.25 0 1 0 -12.5 0zM606.25 162.5 a6.25 6.25 0 1 0 12.5 0 a6.25 6.25 0 1 0 -12.5 0z" fill="rgba(219, 39, 119, 1)"></path><path d="M612.5 537.5L587.5 562.5L562.5 587.5L537.5 587.5L512.5 562.5M637.5 537.5L612.5 562.5M562.5 537.5L537.5 562.5M737.5 512.5L712.5 512.5L687.5 512.5L662.5 537.5L637.5 537.5L612.5 537.5L587.5 537.5L562.5 537.5L537.5 537.5" stroke="rgba(20, 184, 166, 1)" stroke-width="4.17"></path><path d="M531.25 537.5 a6.25 6.25 0 1 0 12.5 0 a6.25 6.25 0 1 0 -12.5 0zM506.25 562.5 a6.25 6.25 0 1 0 12.5 0 a6.25 6.25 0 1 0 -12.5 0zM606.25 562.5 a6.25 6.25 0 1 0 12.5 0 a6.25 6.25 0 1 0 -12.5 0zM531.25 562.5 a6.25 6.25 0 1 0 12.5 0 a6.25 6.25 0 1 0 -12.5 0z" fill="rgba(20, 184, 166, 1)"></path><path d="M312.5 112.5L287.5 87.5L262.5 62.5M637.5 137.5L612.5 112.5L587.5 112.5L562.5 112.5M537.5 137.5L512.5 112.5L487.5 112.5L462.5 112.5L437.5 87.5L412.5 87.5L387.5 87.5L362.5 87.5L337.5 87.5M262.5 112.5L237.5 137.5L212.5 137.5L187.5 137.5M237.5 112.5L212.5 87.5M187.5 112.5L162.5 112.5L137.5 112.5L112.5 112.5L87.5 112.5M737.5 187.5L712.5 187.5L687.5 162.5L662.5 162.5L637.5 137.5L612.5 137.5L587.5 137.5L562.5 137.5L537.5 137.5L512.5 137.5L487.5 137.5L462.5 137.5L437.5 137.5L412.5 137.5L387.5 112.5L362.5 112.5L337.5 112.5L312.5 112.5L287.5 112.5L262.5 112.5L237.5 112.5L212.5 112.5L187.5 112.5L162.5 137.5L137.5 137.5L112.5 137.5L87.5 137.5" stroke="rgba(219, 39, 119, 1)" stroke-width="4.17"></path><path d="M81.25 137.5 a6.25 6.25 0 1 0 12.5 0 a6.25 6.25 0 1 0 -12.5 0zM256.25 62.5 a6.25 6.25 0 1 0 12.5 0 a6.25 6.25 0 1 0 -12.5 0zM556.25 112.5 a6.25 6.25 0 1 0 12.5 0 a6.25 6.25 0 1 0 -12.5 0zM331.25 87.5 a6.25 6.25 0 1 0 12.5 0 a6.25 6.25 0 1 0 -12.5 0zM181.25 137.5 a6.25 6.25 0 1 0 12.5 0 a6.25 6.25 0 1 0 -12.5 0zM206.25 87.5 a6.25 6.25 0 1 0 12.5 0 a6.25 6.25 0 1 0 -12.5 0zM81.25 112.5 a6.25 6.25 0 1 0 12.5 0 a6.25 6.25 0 1 0 -12.5 0z" fill="rgba(219, 39, 119, 1)"></path></g></g><defs><mask id="SvgjsMask1060"><rect width="700" height="700" fill="#ffffff"></rect></mask><mask id="SvgjsMask1061"><rect width="700" height="700" fill="white"></rect><path d="M259.37 387.5 a3.13 3.13 0 1 0 6.26 0 a3.13 3.13 0 1 0 -6.26 0zM484.37 387.5 a3.13 3.13 0 1 0 6.26 0 a3.13 3.13 0 1 0 -6.26 0zM384.37 337.5 a3.13 3.13 0 1 0 6.26 0 a3.13 3.13 0 1 0 -6.26 0zM109.37 437.5 a3.13 3.13 0 1 0 6.26 0 a3.13 3.13 0 1 0 -6.26 0zM284.37 362.5 a3.13 3.13 0 1 0 6.26 0 a3.13 3.13 0 1 0 -6.26 0zM559.37 412.5 a3.13 3.13 0 1 0 6.26 0 a3.13 3.13 0 1 0 -6.26 0z" fill="black"></path><path d="M534.37 362.5 a3.13 3.13 0 1 0 6.26 0 a3.13 3.13 0 1 0 -6.26 0zM509.37 312.5 a3.13 3.13 0 1 0 6.26 0 a3.13 3.13 0 1 0 -6.26 0zM509.37 337.5 a3.13 3.13 0 1 0 6.26 0 a3.13 3.13 0 1 0 -6.26 0zM634.37 362.5 a3.13 3.13 0 1 0 6.26 0 a3.13 3.13 0 1 0 -6.26 0z" fill="black"></path><path d="M659.37 412.5 a3.13 3.13 0 1 0 6.26 0 a3.13 3.13 0 1 0 -6.26 0z" fill="black"></path><path d="M209.37 262.5 a3.13 3.13 0 1 0 6.26 0 a3.13 3.13 0 1 0 -6.26 0zM134.37 237.5 a3.13 3.13 0 1 0 6.26 0 a3.13 3.13 0 1 0 -6.26 0zM609.37 312.5 a3.13 3.13 0 1 0 6.26 0 a3.13 3.13 0 1 0 -6.26 0zM259.37 312.5 a3.13 3.13 0 1 0 6.26 0 a3.13 3.13 0 1 0 -6.26 0zM259.37 237.5 a3.13 3.13 0 1 0 6.26 0 a3.13 3.13 0 1 0 -6.26 0zM384.37 262.5 a3.13 3.13 0 1 0 6.26 0 a3.13 3.13 0 1 0 -6.26 0z" fill="black"></path><path d="M584.37 437.5 a3.13 3.13 0 1 0 6.26 0 a3.13 3.13 0 1 0 -6.26 0zM609.37 412.5 a3.13 3.13 0 1 0 6.26 0 a3.13 3.13 0 1 0 -6.26 0z" fill="black"></path><path d="M384.37 237.5 a3.13 3.13 0 1 0 6.26 0 a3.13 3.13 0 1 0 -6.26 0zM459.37 262.5 a3.13 3.13 0 1 0 6.26 0 a3.13 3.13 0 1 0 -6.26 0zM359.37 212.5 a3.13 3.13 0 1 0 6.26 0 a3.13 3.13 0 1 0 -6.26 0zM434.37 212.5 a3.13 3.13 0 1 0 6.26 0 a3.13 3.13 0 1 0 -6.26 0z" fill="black"></path><path d="M434.37 462.5 a3.13 3.13 0 1 0 6.26 0 a3.13 3.13 0 1 0 -6.26 0zM384.37 437.5 a3.13 3.13 0 1 0 6.26 0 a3.13 3.13 0 1 0 -6.26 0zM484.37 437.5 a3.13 3.13 0 1 0 6.26 0 a3.13 3.13 0 1 0 -6.26 0zM459.37 412.5 a3.13 3.13 0 1 0 6.26 0 a3.13 3.13 0 1 0 -6.26 0z" fill="black"></path><path d="M559.37 237.5 a3.13 3.13 0 1 0 6.26 0 a3.13 3.13 0 1 0 -6.26 0z" fill="black"></path><path d="M384.37 487.5 a3.13 3.13 0 1 0 6.26 0 a3.13 3.13 0 1 0 -6.26 0zM359.37 462.5 a3.13 3.13 0 1 0 6.26 0 a3.13 3.13 0 1 0 -6.26 0z" fill="black"></path><path d="M159.37 162.5 a3.13 3.13 0 1 0 6.26 0 a3.13 3.13 0 1 0 -6.26 0zM234.37 212.5 a3.13 3.13 0 1 0 6.26 0 a3.13 3.13 0 1 0 -6.26 0zM459.37 212.5 a3.13 3.13 0 1 0 6.26 0 a3.13 3.13 0 1 0 -6.26 0zM209.37 162.5 a3.13 3.13 0 1 0 6.26 0 a3.13 3.13 0 1 0 -6.26 0zM359.37 162.5 a3.13 3.13 0 1 0 6.26 0 a3.13 3.13 0 1 0 -6.26 0zM84.37 187.5 a3.13 3.13 0 1 0 6.26 0 a3.13 3.13 0 1 0 -6.26 0zM59.37 212.5 a3.13 3.13 0 1 0 6.26 0 a3.13 3.13 0 1 0 -6.26 0z" fill="black"></path><path d="M259.37 512.5 a3.13 3.13 0 1 0 6.26 0 a3.13 3.13 0 1 0 -6.26 0zM334.37 487.5 a3.13 3.13 0 1 0 6.26 0 a3.13 3.13 0 1 0 -6.26 0zM284.37 487.5 a3.13 3.13 0 1 0 6.26 0 a3.13 3.13 0 1 0 -6.26 0zM409.37 537.5 a3.13 3.13 0 1 0 6.26 0 a3.13 3.13 0 1 0 -6.26 0zM459.37 537.5 a3.13 3.13 0 1 0 6.26 0 a3.13 3.13 0 1 0 -6.26 0zM359.37 537.5 a3.13 3.13 0 1 0 6.26 0 a3.13 3.13 0 1 0 -6.26 0z" fill="black"></path><path d="M309.37 137.5 a3.13 3.13 0 1 0 6.26 0 a3.13 3.13 0 1 0 -6.26 0zM384.37 162.5 a3.13 3.13 0 1 0 6.26 0 a3.13 3.13 0 1 0 -6.26 0zM559.37 162.5 a3.13 3.13 0 1 0 6.26 0 a3.13 3.13 0 1 0 -6.26 0zM609.37 162.5 a3.13 3.13 0 1 0 6.26 0 a3.13 3.13 0 1 0 -6.26 0z" fill="black"></path><path d="M534.37 537.5 a3.13 3.13 0 1 0 6.26 0 a3.13 3.13 0 1 0 -6.26 0zM509.37 562.5 a3.13 3.13 0 1 0 6.26 0 a3.13 3.13 0 1 0 -6.26 0zM609.37 562.5 a3.13 3.13 0 1 0 6.26 0 a3.13 3.13 0 1 0 -6.26 0zM534.37 562.5 a3.13 3.13 0 1 0 6.26 0 a3.13 3.13 0 1 0 -6.26 0z" fill="black"></path><path d="M84.37 137.5 a3.13 3.13 0 1 0 6.26 0 a3.13 3.13 0 1 0 -6.26 0zM259.37 62.5 a3.13 3.13 0 1 0 6.26 0 a3.13 3.13 0 1 0 -6.26 0zM559.37 112.5 a3.13 3.13 0 1 0 6.26 0 a3.13 3.13 0 1 0 -6.26 0zM334.37 87.5 a3.13 3.13 0 1 0 6.26 0 a3.13 3.13 0 1 0 -6.26 0zM184.37 137.5 a3.13 3.13 0 1 0 6.26 0 a3.13 3.13 0 1 0 -6.26 0zM209.37 87.5 a3.13 3.13 0 1 0 6.26 0 a3.13 3.13 0 1 0 -6.26 0zM84.37 112.5 a3.13 3.13 0 1 0 6.26 0 a3.13 3.13 0 1 0 -6.26 0z" fill="black"></path></mask></defs></svg>