<?xml version="1.0" encoding="UTF-8"?>
<svg xmlns="http://www.w3.org/2000/svg" xmlns:xlink="http://www.w3.org/1999/xlink" viewBox="0 0 1920 1080">
  <defs>
    <linearGradient id="linear-gradient" x1="-4140.46" y1="2938.23" x2="-4218.52" y2="2758.09" gradientTransform="translate(6778.2 225.98) rotate(34.38)" gradientUnits="userSpaceOnUse">
      <stop offset="0" stop-color="#774f3f"/>
      <stop offset="1" stop-color="#dda780"/>
    </linearGradient>
    <linearGradient id="linear-gradient-2" x1="-4194.15" y1="2802.54" x2="-4143.8" y2="2911.09" gradientTransform="translate(6778.2 225.98) rotate(34.38)" gradientUnits="userSpaceOnUse">
      <stop offset="0" stop-color="#774f3f"/>
      <stop offset="1" stop-color="#563021"/>
    </linearGradient>
    <linearGradient id="linear-gradient-3" x1="-4214.24" y1="2788.2" x2="-4201.81" y2="2788.2" xlink:href="#linear-gradient-2"/>
    <linearGradient id="linear-gradient-4" x1="-4263.64" y1="2818.36" x2="-4251.21" y2="2818.36" xlink:href="#linear-gradient-2"/>
    <linearGradient id="linear-gradient-5" x1="-4244.82" y1="2784.09" x2="-4236.54" y2="2784.09" xlink:href="#linear-gradient-2"/>
    <linearGradient id="linear-gradient-6" x1="-4195.31" y1="2757.35" x2="-4187.02" y2="2757.35" xlink:href="#linear-gradient-2"/>
    <linearGradient id="linear-gradient-7" x1="-4225.02" y1="2828.78" x2="-4214.66" y2="2828.78" xlink:href="#linear-gradient-2"/>
    <linearGradient id="linear-gradient-8" x1="-4233.31" y1="2842.49" x2="-4227.09" y2="2842.49" xlink:href="#linear-gradient-2"/>
    <linearGradient id="linear-gradient-9" x1="-4227.1" y1="2818.35" x2="-4220.89" y2="2818.35" xlink:href="#linear-gradient-2"/>
    <linearGradient id="linear-gradient-10" x1="-4198.41" y1="2783.06" x2="-4192.2" y2="2783.06" xlink:href="#linear-gradient-2"/>
    <linearGradient id="linear-gradient-11" x1="-4270.32" y1="2831.82" x2="-4264.11" y2="2831.82" xlink:href="#linear-gradient-2"/>
    <linearGradient id="linear-gradient-12" x1="-4231.25" y1="2773.47" x2="-4225.03" y2="2773.47" xlink:href="#linear-gradient-2"/>
    <linearGradient id="linear-gradient-13" x1="-4178.29" y1="2761.49" x2="-4172.08" y2="2761.49" xlink:href="#linear-gradient-2"/>
    <linearGradient id="linear-gradient-14" x1="-4265.14" y1="2868.27" x2="-4258.93" y2="2868.27" xlink:href="#linear-gradient-2"/>
    <linearGradient id="linear-gradient-15" x1="-4256.07" y1="2861.45" x2="-4254" y2="2861.45" xlink:href="#linear-gradient-2"/>
    <linearGradient id="linear-gradient-16" x1="-4263.07" y1="2881.74" x2="-4261" y2="2881.74" xlink:href="#linear-gradient-2"/>
    <linearGradient id="linear-gradient-17" x1="-4262.03" y1="2854.58" x2="-4259.96" y2="2854.58" xlink:href="#linear-gradient-2"/>
    <linearGradient id="linear-gradient-18" x1="-4243.77" y1="2848.64" x2="-4239.63" y2="2848.64" xlink:href="#linear-gradient-2"/>
    <linearGradient id="linear-gradient-19" x1="-4256.54" y1="2831.82" x2="-4254.46" y2="2831.82" xlink:href="#linear-gradient-2"/>
    <linearGradient id="linear-gradient-20" x1="-4271.35" y1="2826.71" x2="-4269.28" y2="2826.71" xlink:href="#linear-gradient-2"/>
    <linearGradient id="linear-gradient-21" x1="-4273.43" y1="2848.64" x2="-4271.36" y2="2848.64" xlink:href="#linear-gradient-2"/>
    <linearGradient id="linear-gradient-22" x1="-4183.93" y1="2752.17" x2="-4181.85" y2="2752.17" xlink:href="#linear-gradient-2"/>
    <linearGradient id="linear-gradient-23" x1="-4203.88" y1="2760.45" x2="-4201.81" y2="2760.45" xlink:href="#linear-gradient-2"/>
    <linearGradient id="linear-gradient-24" x1="-4250" y1="2824.57" x2="-4245.86" y2="2824.57" xlink:href="#linear-gradient-2"/>
    <linearGradient id="linear-gradient-25" x1="-4233.31" y1="2819.39" x2="-4231.24" y2="2819.39" xlink:href="#linear-gradient-2"/>
    <linearGradient id="linear-gradient-26" x1="-4228.13" y1="2801.93" x2="-4223.99" y2="2801.93" xlink:href="#linear-gradient-2"/>
    <linearGradient id="linear-gradient-27" x1="-4250" y1="2787.2" x2="-4247.93" y2="2787.2" xlink:href="#linear-gradient-2"/>
    <linearGradient id="linear-gradient-28" x1="-4254.46" y1="2842.49" x2="-4252.39" y2="2842.49" xlink:href="#linear-gradient-2"/>
    <linearGradient id="linear-gradient-29" x1="-4241.7" y1="2839.38" x2="-4239.63" y2="2839.38" xlink:href="#linear-gradient-2"/>
    <linearGradient id="linear-gradient-30" x1="-4173.11" y1="2771.24" x2="-4171.04" y2="2771.24" xlink:href="#linear-gradient-2"/>
    <linearGradient id="linear-gradient-31" x1="-4201.81" y1="2775.92" x2="-4199.73" y2="2775.92" xlink:href="#linear-gradient-2"/>
    <linearGradient id="linear-gradient-32" x1="-4209.49" y1="2769.68" x2="-4207.42" y2="2769.68" xlink:href="#linear-gradient-2"/>
    <linearGradient id="linear-gradient-33" x1="-4171.35" y1="2756.31" x2="-4169.28" y2="2756.31" xlink:href="#linear-gradient-2"/>
    <linearGradient id="linear-gradient-34" x1="-4192.2" y1="2775.92" x2="-4190.13" y2="2775.92" xlink:href="#linear-gradient-2"/>
    <linearGradient id="linear-gradient-35" x1="-4224" y1="2764.6" x2="-4221.92" y2="2764.6" xlink:href="#linear-gradient-2"/>
    <linearGradient id="linear-gradient-36" x1="-4159.76" y1="2758.38" x2="-4157.68" y2="2758.38" xlink:href="#linear-gradient-2"/>
    <linearGradient id="linear-gradient-37" x1="-4248.97" y1="2810.07" x2="-4246.89" y2="2810.07" xlink:href="#linear-gradient-2"/>
    <linearGradient id="linear-gradient-38" x1="-4252.25" y1="2799.89" x2="-4250.18" y2="2799.89" xlink:href="#linear-gradient-2"/>
    <linearGradient id="linear-gradient-39" x1="-4235.38" y1="2800.93" x2="-4233.31" y2="2800.93" xlink:href="#linear-gradient-2"/>
    <linearGradient id="linear-gradient-40" x1="-4222.96" y1="2784.09" x2="-4220.89" y2="2784.09" xlink:href="#linear-gradient-2"/>
    <linearGradient id="linear-gradient-41" x1="-4238.6" y1="2773.47" x2="-4236.53" y2="2773.47" xlink:href="#linear-gradient-2"/>
    <linearGradient id="linear-gradient-42" x1="-4218.82" y1="2794.41" x2="-4216.74" y2="2794.41" xlink:href="#linear-gradient-2"/>
    <linearGradient id="linear-gradient-43" x1="-4244.73" y1="2799.85" x2="-4240.59" y2="2799.85" xlink:href="#linear-gradient-2"/>
    <linearGradient id="linear-gradient-44" x1="-4234.35" y1="2788.24" x2="-4230.2" y2="2788.24" xlink:href="#linear-gradient-2"/>
    <linearGradient id="linear-gradient-45" x1="-4232.27" y1="2825.67" x2="-4228.13" y2="2825.67" xlink:href="#linear-gradient-2"/>
    <linearGradient id="linear-gradient-46" x1="-4212.6" y1="2801.93" x2="-4208.46" y2="2801.93" xlink:href="#linear-gradient-2"/>
    <linearGradient id="linear-gradient-47" x1="-4260.22" y1="2803.85" x2="-4254" y2="2803.85" xlink:href="#linear-gradient-2"/>
    <linearGradient id="linear-gradient-48" x1="-4269.29" y1="2812.14" x2="-4265.14" y2="2812.14" xlink:href="#linear-gradient-2"/>
    <linearGradient id="linear-gradient-49" x1="-4273.43" y1="2861.45" x2="-4269.29" y2="2861.45" xlink:href="#linear-gradient-2"/>
    <linearGradient id="linear-gradient-50" x1="-4267.21" y1="2845.32" x2="-4263.07" y2="2845.32" xlink:href="#linear-gradient-2"/>
    <linearGradient id="linear-gradient-51" x1="-4214.67" y1="2776.95" x2="-4210.53" y2="2776.95" xlink:href="#linear-gradient-2"/>
    <linearGradient id="linear-gradient-52" x1="-4212.6" y1="2759.42" x2="-4208.46" y2="2759.42" xlink:href="#linear-gradient-2"/>
    <linearGradient id="linear-gradient-53" x1="-4186" y1="2767.71" x2="-4181.85" y2="2767.71" xlink:href="#linear-gradient-2"/>
    <linearGradient id="linear-gradient-54" x1="-4157.68" y1="2768.29" x2="-4153.54" y2="2768.29" xlink:href="#linear-gradient-2"/>
    <linearGradient id="linear-gradient-55" x1="-4147.46" y1="2763.56" x2="-4141.24" y2="2763.56" xlink:href="#linear-gradient-2"/>
  </defs>
  <g isolation="isolate">
    <g id="Layer_1" data-name="Layer 1">
      <path d="m1758.75,638.05l-262.64,126.19c-5.85,2.81-8.32,9.79-5.53,15.6l14.74,30.68-6.28,3.02c-.57.28-.82.96-.54,1.54.28.57.96.82,1.54.54l6.28-3.02,1.33,2.77-6.28,3.02c-.57.28-.82.96-.54,1.54.28.57.96.82,1.54.54l6.28-3.02,6.32,13.16-6.28,3.02c-.57.28-.82.96-.54,1.54.28.57.96.82,1.54.54l6.28-3.02,1.33,2.77-6.28,3.02c-.57.28-.82.96-.54,1.54.28.57.96.82,1.54.54l6.28-3.02,6.32,13.16-6.28,3.02c-.57.28-.82.96-.54,1.54.28.57.96.82,1.54.54l6.28-3.02,1.33,2.77-6.28,3.02c-.57.28-.82.96-.54,1.54.28.57.96.82,1.54.54l6.28-3.02,6.32,13.16-6.28,3.02c-.57.28-.82.96-.54,1.54.28.57.96.82,1.54.54l6.28-3.02,1.33,2.77-6.28,3.02c-.57.28-.82.96-.54,1.54.28.57.96.82,1.54.54l6.28-3.02,6.32,13.16-6.28,3.02c-.57.28-.82.96-.54,1.54s.96.82,1.54.54l6.28-3.02,1.33,2.77-6.28,3.02c-.57.28-.82.96-.54,1.54.28.57.96.82,1.54.54l6.28-3.02,6.32,13.16-6.28,3.02c-.57.28-.82.96-.54,1.54.28.57.96.82,1.54.54l6.28-3.02,1.33,2.77-6.28,3.02c-.57.28-.82.96-.54,1.54.28.57.96.82,1.54.54l6.28-3.02,6.32,13.16-6.28,3.02c-.57.28-.82.96-.54,1.54.28.57.96.82,1.54.54l6.28-3.02,1.33,2.77-6.28,3.02c-.57.28-.82.96-.54,1.54.28.57.96.82,1.54.54l6.28-3.02,6.32,13.16-6.28,3.02c-.57.28-.82.96-.54,1.54.28.57.96.82,1.54.54l6.28-3.02,1.33,2.77-6.28,3.02c-.57.28-.82.96-.54,1.54.28.57.96.82,1.54.54l6.28-3.02,6.32,13.16-6.28,3.02c-.57.28-.82.96-.54,1.54.28.57.96.82,1.54.54l6.28-3.02,1.33,2.77-6.28,3.02c-.57.28-.82.96-.54,1.54.28.57.96.82,1.54.54l6.28-3.02,6.32,13.16-6.28,3.02c-.57.28-.82.96-.54,1.54.28.57.96.82,1.54.54l6.28-3.02,1.33,2.77-6.28,3.02c-.57.28-.82.96-.54,1.54.28.57.96.82,1.54.54l6.28-3.02,6.32,13.16-6.28,3.02c-.57.28-.82.96-.54,1.54.28.57.96.82,1.54.54l6.28-3.02,1.33,2.77-6.28,3.02c-.57.28-.82.96-.54,1.54.28.57.96.82,1.54.54l6.28-3.02,6.32,13.16-6.28,3.02c-.57.28-.82.96-.54,1.54.28.57.96.82,1.54.54l6.28-3.02,1.33,2.77-6.28,3.02c-.57.28-.82.96-.54,1.54.28.57.96.82,1.54.54l6.28-3.02,6.32,13.16-6.28,3.02c-.57.28-.82.96-.54,1.54.28.57.96.82,1.54.54l6.28-3.02,1.33,2.77-6.28,3.02c-.57.28-.82.96-.54,1.54.28.57.96.82,1.54.54l6.28-3.02,6.32,13.16-6.28,3.02c-.57.28-.82.96-.54,1.54.28.57.96.82,1.54.54l6.28-3.02,1.33,2.77-6.28,3.02c-.57.28-.82.96-.54,1.54.28.57.96.82,1.54.54l6.28-3.02,6.32,13.16-6.28,3.02c-.57.28-.82.96-.54,1.54.28.57.96.82,1.54.54l6.28-3.02,1.33,2.77-6.28,3.02c-.57.28-.82.96-.54,1.54.28.57.96.82,1.54.54l6.28-3.02,6.32,13.16-6.28,3.02c-.57.28-.82.96-.54,1.54.28.57.96.82,1.54.54l6.28-3.02,1.33,2.77-6.28,3.02c-.57.28-.82.96-.54,1.54.28.57.96.82,1.54.54l6.28-3.02,15.05,31.33c2.79,5.81,9.79,8.24,15.64,5.43l262.64-126.19c5.85-2.81,8.32-9.79,5.53-15.6l-177.88-370.23c-2.79-5.81-9.79-8.24-15.64-5.43Z" fill="#1a1a1a" opacity=".33" stroke-width="0"/>
      <g>
        <path d="m1767.73,621.35l-262.64,126.19c-5.85,2.81-8.32,9.79-5.53,15.6l177.88,370.23c2.79,5.81,9.79,8.24,15.64,5.43l262.64-126.19c5.85-2.81,8.32-9.79,5.53-15.6l-177.88-370.23c-2.79-5.81-9.79-8.24-15.64-5.43Z" fill="#14b8a6" stroke-width="0"/>
        <g>
          <path d="m1766.34,633.26l-251.07,120.63c-4.88,2.34-6.93,8.2-4.59,13.08l170.72,355.32c2.34,4.88,8.2,6.93,13.08,4.59l251.07-120.63c4.88-2.34,6.93-8.2,4.59-13.08l-170.72-355.32c-2.34-4.88-8.2-6.93-13.08-4.59Z" fill="#f7f7f7" stroke-width="0"/>
          <path d="m1690.25,1128.04c-3.72,0-7.31-2.09-9.02-5.66l-170.72-355.32c-1.16-2.41-1.31-5.12-.42-7.64.88-2.52,2.7-4.54,5.1-5.7l251.07-120.63.08.17-.08-.17c2.41-1.16,5.12-1.31,7.64-.42,2.52.88,4.54,2.7,5.7,5.1l170.72,355.32c2.39,4.97.29,10.95-4.68,13.34l-251.07,120.63c-1.39.67-2.86.99-4.31.99Zm80.33-495.56c-1.42,0-2.84.32-4.15.95l-251.07,120.63c-2.31,1.11-4.06,3.06-4.91,5.48-.85,2.42-.71,5.03.41,7.34l170.72,355.32c2.29,4.78,8.05,6.79,12.82,4.5l251.07-120.63c4.78-2.3,6.79-8.05,4.5-12.82l-170.72-355.32c-1.11-2.31-3.06-4.06-5.48-4.91-1.04-.37-2.12-.55-3.19-.55Z" fill="#999" stroke-width="0"/>
        </g>
        <g>
          <rect x="1527.3" y="781.67" width="13.45" height="13.45" transform="translate(-190.11 742.12) rotate(-25.66)" fill="gray" stroke-width="0"/>
          <rect x="1536.97" y="801.8" width="13.45" height="13.45" transform="translate(-197.88 748.29) rotate(-25.66)" fill="gray" stroke-width="0"/>
          <rect x="1546.64" y="821.94" width="13.45" height="13.45" transform="translate(-205.64 754.46) rotate(-25.66)" fill="gray" stroke-width="0"/>
          <rect x="1556.32" y="842.07" width="13.45" height="13.45" transform="translate(-213.41 760.64) rotate(-25.66)" fill="gray" stroke-width="0"/>
          <rect x="1565.99" y="862.2" width="13.45" height="13.45" transform="translate(-221.17 766.82) rotate(-25.66)" fill="gray" stroke-width="0"/>
          <rect x="1575.66" y="882.33" width="13.45" height="13.45" transform="translate(-228.94 773) rotate(-25.66)" fill="gray" stroke-width="0"/>
          <rect x="1585.34" y="902.47" width="13.45" height="13.45" transform="translate(-236.7 779.17) rotate(-25.66)" fill="gray" stroke-width="0"/>
          <rect x="1595.01" y="922.6" width="13.45" height="13.45" transform="translate(-244.47 785.33) rotate(-25.66)" fill="gray" stroke-width="0"/>
          <rect x="1604.68" y="942.73" width="13.45" height="13.45" transform="translate(-252.23 791.52) rotate(-25.66)" fill="gray" stroke-width="0"/>
          <rect x="1614.36" y="962.86" width="13.45" height="13.45" transform="translate(-260 797.7) rotate(-25.66)" fill="gray" stroke-width="0"/>
          <rect x="1624.03" y="983" width="13.45" height="13.45" transform="translate(-267.76 803.87) rotate(-25.66)" fill="gray" stroke-width="0"/>
          <rect x="1633.7" y="1003.13" width="13.45" height="13.45" transform="translate(-275.53 810.04) rotate(-25.66)" fill="gray" stroke-width="0"/>
          <rect x="1643.37" y="1023.26" width="13.45" height="13.45" transform="translate(-283.29 816.22) rotate(-25.66)" fill="gray" stroke-width="0"/>
          <rect x="1653.05" y="1043.39" width="13.45" height="13.45" transform="translate(-291.06 822.4) rotate(-25.66)" fill="gray" stroke-width="0"/>
          <rect x="1662.72" y="1063.53" width="13.45" height="13.45" transform="translate(-298.82 828.58) rotate(-25.66)" fill="gray" stroke-width="0"/>
        </g>
        <g>
          <g>
            <path d="m1532.57,787.6l-23.55,11.31c-.57.28-1.26.03-1.54-.54-.28-.57-.03-1.26.54-1.54l23.55-11.31c.57-.28,1.26-.03,1.54.54.28.57.03,1.26-.54,1.54Z" fill="#4d4d4d" stroke-width="0"/>
            <path d="m1534.9,792.45l-23.55,11.32c-.57.28-1.26.03-1.54-.54-.28-.57-.03-1.26.54-1.54l23.55-11.31c.57-.28,1.26-.03,1.54.54.28.57.03,1.26-.54,1.54Z" fill="#4d4d4d" stroke-width="0"/>
          </g>
          <g>
            <path d="m1542.22,807.68l-23.55,11.31c-.57.28-1.26.03-1.54-.54-.28-.57-.03-1.26.54-1.54l23.55-11.32c.57-.28,1.26-.03,1.54.54.28.57.03,1.26-.54,1.54Z" fill="#4d4d4d" stroke-width="0"/>
            <path d="m1544.55,812.53l-23.55,11.31c-.57.28-1.26.03-1.54-.54-.28-.57-.03-1.26.54-1.54l23.55-11.31c.57-.28,1.26-.03,1.54.54.28.57.03,1.26-.54,1.54Z" fill="#4d4d4d" stroke-width="0"/>
          </g>
          <g>
            <path d="m1551.87,827.77l-23.55,11.31c-.57.28-1.26.03-1.54-.54-.28-.57-.03-1.26.54-1.54l23.55-11.31c.57-.28,1.26-.03,1.54.54.28.57.03,1.26-.54,1.54Z" fill="#4d4d4d" stroke-width="0"/>
            <path d="m1554.2,832.62l-23.55,11.31c-.57.28-1.26.03-1.54-.54-.28-.57-.03-1.26.54-1.54l23.55-11.31c.57-.28,1.26-.03,1.54.54.28.57.03,1.26-.54,1.54Z" fill="#4d4d4d" stroke-width="0"/>
          </g>
          <g>
            <path d="m1561.53,847.86l-23.55,11.31c-.57.28-1.26.03-1.54-.54-.28-.57-.03-1.26.54-1.54l23.55-11.32c.57-.28,1.26-.03,1.54.54.28.57.03,1.26-.54,1.54Z" fill="#4d4d4d" stroke-width="0"/>
            <path d="m1563.85,852.71l-23.55,11.31c-.57.28-1.26.03-1.54-.54-.28-.57-.03-1.26.54-1.54l23.55-11.31c.57-.28,1.26-.03,1.54.54.28.57.03,1.26-.54,1.54Z" fill="#4d4d4d" stroke-width="0"/>
          </g>
          <g>
            <path d="m1571.18,867.94l-23.55,11.31c-.57.28-1.26.03-1.54-.54-.28-.57-.03-1.26.54-1.54l23.55-11.31c.57-.28,1.26-.03,1.54.54.28.57.03,1.26-.54,1.54Z" fill="#4d4d4d" stroke-width="0"/>
            <path d="m1573.51,872.79l-23.55,11.31c-.57.28-1.26.03-1.54-.54-.28-.57-.03-1.26.54-1.54l23.55-11.31c.57-.28,1.26-.03,1.54.54.28.57.03,1.26-.54,1.54Z" fill="#4d4d4d" stroke-width="0"/>
          </g>
          <g>
            <path d="m1580.83,888.03l-23.55,11.31c-.57.28-1.26.03-1.54-.54-.28-.57-.03-1.26.54-1.54l23.55-11.31c.57-.28,1.26-.03,1.54.54.28.57.03,1.26-.54,1.54Z" fill="#4d4d4d" stroke-width="0"/>
            <path d="m1583.16,892.88l-23.55,11.31c-.57.28-1.26.03-1.54-.54-.28-.57-.03-1.26.54-1.54l23.55-11.32c.57-.28,1.26-.03,1.54.54.28.57.03,1.26-.54,1.54Z" fill="#4d4d4d" stroke-width="0"/>
          </g>
          <g>
            <path d="m1590.48,908.12l-23.55,11.32c-.57.28-1.26.03-1.54-.54-.28-.57-.03-1.26.54-1.54l23.55-11.32c.57-.28,1.26-.03,1.54.54.28.57.03,1.26-.54,1.54Z" fill="#4d4d4d" stroke-width="0"/>
            <path d="m1592.81,912.96l-23.55,11.31c-.57.28-1.26.03-1.54-.54-.28-.57-.03-1.26.54-1.54l23.55-11.32c.57-.28,1.26-.03,1.54.54s.03,1.26-.54,1.54Z" fill="#4d4d4d" stroke-width="0"/>
          </g>
          <g>
            <path d="m1600.13,928.2l-23.55,11.32c-.57.28-1.26.03-1.54-.54s-.03-1.26.54-1.54l23.55-11.31c.57-.28,1.26-.03,1.54.54.28.57.03,1.26-.54,1.54Z" fill="#4d4d4d" stroke-width="0"/>
            <path d="m1602.46,933.05l-23.55,11.31c-.57.28-1.26.03-1.54-.54-.28-.57-.03-1.26.54-1.54l23.55-11.31c.57-.28,1.26-.03,1.54.54.28.57.03,1.26-.54,1.54Z" fill="#4d4d4d" stroke-width="0"/>
          </g>
          <g>
            <path d="m1609.78,948.29l-23.55,11.32c-.57.28-1.26.03-1.54-.54s-.03-1.26.54-1.54l23.55-11.31c.57-.28,1.26-.03,1.54.54.28.57.03,1.26-.54,1.54Z" fill="#4d4d4d" stroke-width="0"/>
            <path d="m1612.11,953.14l-23.55,11.31c-.57.28-1.26.03-1.54-.54-.28-.57-.03-1.26.54-1.54l23.55-11.31c.57-.28,1.26-.03,1.54.54.28.57.03,1.26-.54,1.54Z" fill="#4d4d4d" stroke-width="0"/>
          </g>
          <g>
            <path d="m1619.43,968.38l-23.55,11.31c-.57.28-1.26.03-1.54-.54-.28-.57-.03-1.26.54-1.54l23.55-11.31c.57-.28,1.26-.03,1.54.54.28.57.03,1.26-.54,1.54Z" fill="#4d4d4d" stroke-width="0"/>
            <path d="m1621.76,973.22l-23.55,11.31c-.57.28-1.26.03-1.54-.54-.28-.57-.03-1.26.54-1.54l23.55-11.31c.57-.28,1.26-.03,1.54.54.28.57.03,1.26-.54,1.54Z" fill="#4d4d4d" stroke-width="0"/>
          </g>
          <g>
            <path d="m1629.08,988.46l-23.55,11.32c-.57.28-1.26.03-1.54-.54s-.03-1.26.54-1.54l23.55-11.31c.57-.28,1.26-.03,1.54.54.28.57.03,1.26-.54,1.54Z" fill="#4d4d4d" stroke-width="0"/>
            <path d="m1631.41,993.31l-23.55,11.32c-.57.28-1.26.03-1.54-.54-.28-.57-.03-1.26.54-1.54l23.55-11.32c.57-.28,1.26-.03,1.54.54s.03,1.26-.54,1.54Z" fill="#4d4d4d" stroke-width="0"/>
          </g>
          <g>
            <path d="m1638.73,1008.55l-23.55,11.31c-.57.28-1.26.03-1.54-.54-.28-.57-.03-1.26.54-1.54l23.55-11.31c.57-.28,1.26-.03,1.54.54s.03,1.26-.54,1.54Z" fill="#4d4d4d" stroke-width="0"/>
            <path d="m1641.06,1013.4l-23.55,11.32c-.57.28-1.26.03-1.54-.54-.28-.57-.03-1.26.54-1.54l23.55-11.32c.57-.28,1.26-.03,1.54.54.28.57.03,1.26-.54,1.54Z" fill="#4d4d4d" stroke-width="0"/>
          </g>
          <g>
            <path d="m1648.38,1028.64l-23.55,11.31c-.57.28-1.26.03-1.54-.54-.28-.57-.03-1.26.54-1.54l23.55-11.31c.57-.28,1.26-.03,1.54.54.28.57.03,1.26-.54,1.54Z" fill="#4d4d4d" stroke-width="0"/>
            <path d="m1650.71,1033.48l-23.55,11.31c-.57.28-1.26.03-1.54-.54-.28-.57-.03-1.26.54-1.54l23.55-11.31c.57-.28,1.26-.03,1.54.54.28.57.03,1.26-.54,1.54Z" fill="#4d4d4d" stroke-width="0"/>
          </g>
          <g>
            <path d="m1658.04,1048.72l-23.55,11.31c-.57.28-1.26.03-1.54-.54-.28-.57-.03-1.26.54-1.54l23.55-11.31c.57-.28,1.26-.03,1.54.54.28.57.03,1.26-.54,1.54Z" fill="#4d4d4d" stroke-width="0"/>
            <path d="m1660.36,1053.57l-23.55,11.31c-.57.28-1.26.03-1.54-.54-.28-.57-.03-1.26.54-1.54l23.55-11.32c.57-.28,1.26-.03,1.54.54.28.57.03,1.26-.54,1.54Z" fill="#4d4d4d" stroke-width="0"/>
          </g>
          <g>
            <path d="m1667.69,1068.81l-23.55,11.31c-.57.28-1.26.03-1.54-.54-.28-.57-.03-1.26.54-1.54l23.55-11.31c.57-.28,1.26-.03,1.54.54.28.57.03,1.26-.54,1.54Z" fill="#4d4d4d" stroke-width="0"/>
            <path d="m1670.02,1073.66l-23.55,11.31c-.57.28-1.26.03-1.54-.54-.28-.57-.03-1.26.54-1.54l23.55-11.31c.57-.28,1.26-.03,1.54.54.28.57.03,1.26-.54,1.54Z" fill="#4d4d4d" stroke-width="0"/>
          </g>
        </g>
        <g>
          <path d="m1572.27,782.33c-.14,0-.28-.08-.35-.22-.09-.19-.01-.42.18-.51l190.13-91.35c.19-.09.42-.01.51.18.09.19.01.42-.18.51l-190.13,91.35c-.05.03-.11.04-.17.04Z" fill="#92e0ea" stroke-width="0"/>
          <path d="m1584.34,807.01c-.14,0-.28-.08-.35-.22-.09-.19-.01-.42.18-.51l190.13-91.35c.19-.09.42-.01.51.18.09.19.01.42-.18.51l-190.13,91.35c-.05.03-.11.04-.17.04Z" fill="#92e0ea" stroke-width="0"/>
          <path d="m1596.41,831.69c-.14,0-.28-.08-.35-.22-.09-.19-.01-.42.18-.51l190.13-91.35c.19-.09.42-.01.51.18.09.19.01.42-.18.51l-190.13,91.35c-.05.03-.11.04-.17.04Z" fill="#92e0ea" stroke-width="0"/>
          <path d="m1608.48,856.37c-.14,0-.28-.08-.35-.22-.09-.19-.01-.42.18-.51l190.13-91.35c.19-.09.42-.01.51.18.09.19.01.42-.18.51l-190.13,91.35c-.05.03-.11.04-.17.04Z" fill="#92e0ea" stroke-width="0"/>
          <path d="m1620.55,881.05c-.14,0-.28-.08-.35-.22-.09-.19-.01-.42.18-.51l190.13-91.35c.19-.09.42-.01.51.18.09.19.01.42-.18.51l-190.13,91.35c-.05.03-.11.04-.17.04Z" fill="#92e0ea" stroke-width="0"/>
          <path d="m1632.63,905.73c-.14,0-.28-.08-.35-.22-.09-.19-.01-.42.18-.51l190.13-91.35c.19-.09.42-.01.51.18.09.19.01.42-.18.51l-190.13,91.35c-.05.03-.11.04-.17.04Z" fill="#92e0ea" stroke-width="0"/>
          <path d="m1644.7,930.41c-.14,0-.28-.08-.35-.22-.09-.19-.01-.42.18-.51l190.13-91.35c.19-.09.42-.01.51.18.09.19.01.42-.18.51l-190.13,91.35c-.05.03-.11.04-.17.04Z" fill="#92e0ea" stroke-width="0"/>
          <path d="m1656.77,955.08c-.14,0-.28-.08-.35-.22-.09-.19-.01-.42.18-.51l190.13-91.35c.19-.09.42-.01.51.18.09.19.01.42-.18.51l-190.13,91.35c-.05.03-.11.04-.17.04Z" fill="#92e0ea" stroke-width="0"/>
          <path d="m1668.84,979.76c-.14,0-.28-.08-.35-.22-.09-.19-.01-.42.18-.51l190.13-91.35c.19-.09.42-.01.51.18.09.19.01.42-.18.51l-190.13,91.35c-.05.03-.11.04-.17.04Z" fill="#92e0ea" stroke-width="0"/>
          <path d="m1680.91,1004.44c-.14,0-.28-.08-.35-.22-.09-.19-.01-.42.18-.51l190.13-91.35c.19-.09.42-.01.51.18.09.19.01.42-.18.51l-190.13,91.35c-.05.03-.11.04-.17.04Z" fill="#92e0ea" stroke-width="0"/>
          <path d="m1692.98,1029.12c-.14,0-.28-.08-.35-.22-.09-.19-.01-.42.18-.51l190.13-91.35c.19-.09.42-.01.51.18.09.19.01.42-.18.51l-190.13,91.35c-.05.03-.11.04-.17.04Z" fill="#92e0ea" stroke-width="0"/>
          <path d="m1705.05,1053.8c-.14,0-.28-.08-.35-.22-.09-.19-.01-.42.18-.51l190.13-91.35c.19-.09.42-.01.51.18.09.19.01.42-.18.51l-190.13,91.35c-.05.03-.11.04-.17.04Z" fill="#92e0ea" stroke-width="0"/>
          <path d="m1717.12,1078.48c-.14,0-.28-.08-.35-.22-.09-.19-.01-.42.18-.51l190.13-91.35c.19-.09.42-.01.51.18.09.19.01.42-.18.51l-190.13,91.35c-.05.03-.11.04-.17.04Z" fill="#92e0ea" stroke-width="0"/>
        </g>
      </g>
      <path d="m707.59-363.92l225.83,462.87c13.36,27.38.07,61.59-29.52,76.03L172.16,531.99c-29.6,14.44-64.74,3.85-78.1-23.53L-131.77,45.59c-.29-.58-.54-1.18-.76-1.78-3.82-10.25,1.36-22.34,12.17-27.62l797.76-389.22c11.44-5.58,25.02-1.49,30.19,9.1Z" fill="#1a1a1a" opacity=".33" stroke-width="0"/>
      <rect x="674.19" y="-32.68" width="38.59" height="38.64" rx="4.1" ry="4.1" transform="translate(1310.89 -329.46) rotate(153.99)" fill="#231f20" stroke-width="0"/>
      <path d="m677.68-372.55L-120.07,16.67c-11.44,5.58-17.6,16.72-13.68,24.76l2.57,5.27c.15.46.34.92.56,1.36L40.78,399.37c10.14,20.78,42.65,25.97,72.25,11.53L844.77,53.9c29.6-14.44,45.52-43.26,35.38-64.04l-2.17-4.45c-.29-.74-.61-1.46-.96-2.18l-171.41-351.32c-3.92-8.04-16.49-10.04-27.93-4.46Z" fill="#a8a8a8" stroke-width="0"/>
      <path d="m712.08-354.73l217.88,446.57c12.89,26.41-.78,59.84-30.38,74.28L167.83,523.12c-29.6,14.44-64.36,4.64-77.24-21.77L-127.29,54.78c-.28-.56-.52-1.14-.73-1.72-3.65-9.9,1.66-21.72,12.47-27l797.76-389.22c11.44-5.58,24.88-1.79,29.86,8.42Z" fill="#cbd5e1" stroke-width="0"/>
      <g>
        <rect x="359.66" y="157.07" width="244.93" height="171.51" rx="21.28" ry="21.28" transform="translate(-57.65 235.99) rotate(-26.01)" fill="#94a3b8" stroke-width="0"/>
        <path d="m419.53,366.82c-2.39,0-4.79-.4-7.12-1.2-5.49-1.89-9.91-5.79-12.44-10.97l-56.54-115.89c-2.53-5.19-2.88-11.07-.99-16.56,1.89-5.49,5.79-9.91,10.97-12.44l181.87-88.73c5.19-2.53,11.07-2.88,16.56-.99,5.49,1.89,9.91,5.79,12.44,10.97l56.54,115.89c5.24,10.75.77,23.76-9.98,29.01l-181.87,88.73c-2.99,1.46-6.2,2.19-9.44,2.19Zm125.2-247.18c-3.12,0-6.22.71-9.09,2.11l-181.87,88.73c-4.99,2.44-8.74,6.69-10.56,11.98-1.82,5.29-1.48,10.95.95,15.94l56.54,115.89c2.44,4.99,6.69,8.74,11.98,10.56,5.29,1.82,10.95,1.48,15.94-.95l181.87-88.73.18.37-.18-.37c10.35-5.05,14.66-17.57,9.61-27.92l-56.54-115.89c-2.43-4.99-6.69-8.74-11.98-10.56-2.24-.77-4.55-1.16-6.85-1.16Z" fill="#94a3b8" stroke-width="0"/>
      </g>
      <path d="m756.9-31.44L99.76,289.18c-8.03,3.92-17.8.55-21.71-7.47L-35.5,48.95c-3.92-8.03-.55-17.8,7.47-21.71l657.14-320.61c8.03-3.92,17.8-.55,21.71,7.47l113.56,232.75c3.92,8.03.55,17.8-7.47,21.71Z" fill="#94a3b8" stroke-width="0"/>
      <g>
        <g>
          <rect x="-20.47" y="34.88" width="38.28" height="20.69" rx="2.98" ry="2.98" transform="translate(-19.96 4) rotate(-26.01)" fill="#0f172a" stroke-width="0"/>
          <rect x="21.43" y="14.43" width="38.28" height="20.69" rx="2.98" ry="2.98" transform="translate(-6.76 20.3) rotate(-26.01)" fill="#0f172a" stroke-width="0"/>
          <rect x="63.33" y="-6.01" width="38.28" height="20.69" rx="2.98" ry="2.98" transform="translate(6.45 36.6) rotate(-26.01)" fill="#0f172a" stroke-width="0"/>
          <rect x="105.23" y="-26.45" width="38.28" height="20.69" rx="2.98" ry="2.98" transform="translate(19.66 52.9) rotate(-26.01)" fill="#0f172a" stroke-width="0"/>
        </g>
        <g>
          <rect x="-3.33" y="61.94" width="38.23" height="38.28" rx="4.06" ry="4.06" transform="translate(-33.95 15.13) rotate(-26.01)" fill="#0f172a" stroke-width="0"/>
          <rect x="43.13" y="39.27" width="38.23" height="38.28" rx="4.06" ry="4.06" transform="translate(-19.31 33.21) rotate(-26.01)" fill="#0f172a" stroke-width="0"/>
          <rect x="89.59" y="16.6" width="38.23" height="38.28" rx="4.06" ry="4.06" transform="translate(-4.67 51.29) rotate(-26.01)" fill="#0f172a" stroke-width="0"/>
          <rect x="136.05" y="-6.07" width="38.23" height="38.28" rx="4.06" ry="4.06" transform="translate(9.98 69.36) rotate(-26.01)" fill="#0f172a" stroke-width="0"/>
          <rect x="182.52" y="-28.73" width="38.23" height="38.28" rx="4.06" ry="4.06" transform="translate(24.62 87.44) rotate(-26.01)" fill="#0f172a" stroke-width="0"/>
        </g>
        <g>
          <rect x="321.56" y="-42.58" width="38.23" height="38.28" rx="4.06" ry="4.06" transform="translate(636.57 -193.88) rotate(153.99)" fill="#0f172a" stroke-width="0"/>
          <rect x="275.1" y="-19.91" width="38.23" height="38.28" rx="4.06" ry="4.06" transform="translate(558.29 -130.46) rotate(153.99)" fill="#0f172a" stroke-width="0"/>
          <rect x="228.63" y="2.76" width="38.23" height="38.28" rx="4.06" ry="4.06" transform="translate(480.01 -67.05) rotate(153.99)" fill="#0f172a" stroke-width="0"/>
          <rect x="182.17" y="25.43" width="38.23" height="38.28" rx="4.06" ry="4.06" transform="translate(.84 92.77) rotate(-26.01)" fill="#0f172a" stroke-width="0"/>
          <rect x="135.71" y="48.1" width="38.23" height="38.28" rx="4.06" ry="4.06" transform="translate(323.46 59.78) rotate(153.99)" fill="#0f172a" stroke-width="0"/>
          <rect x="89.25" y="70.77" width="38.23" height="38.28" rx="4.06" ry="4.06" transform="translate(245.18 123.19) rotate(153.99)" fill="#0f172a" stroke-width="0"/>
          <rect x="16.55" y="99.49" width="65.87" height="38.28" rx="5.33" ry="5.33" transform="translate(-47.01 33.71) rotate(-26.01)" fill="#0f172a" stroke-width="0"/>
        </g>
        <g>
          <rect x="400.25" y="-26.98" width="38.23" height="38.28" rx="4.06" ry="4.06" transform="translate(792.84 -198.76) rotate(153.99)" fill="#0f172a" stroke-width="0"/>
          <rect x="353.79" y="-4.31" width="38.23" height="38.28" rx="4.06" ry="4.06" transform="translate(714.56 -135.35) rotate(153.99)" fill="#0f172a" stroke-width="0"/>
          <rect x="307.33" y="18.36" width="38.23" height="38.28" rx="4.06" ry="4.06" transform="translate(636.28 -71.94) rotate(153.99)" fill="#0f172a" stroke-width="0"/>
          <rect x="260.87" y="41.03" width="38.23" height="38.28" rx="4.06" ry="4.06" transform="translate(558 -8.52) rotate(153.99)" fill="#0f172a" stroke-width="0"/>
          <rect x="214.41" y="63.7" width="38.23" height="38.28" rx="4.06" ry="4.06" transform="translate(479.72 54.89) rotate(153.99)" fill="#0f172a" stroke-width="0"/>
          <rect x="167.95" y="86.37" width="38.23" height="38.28" rx="4.06" ry="4.06" transform="translate(401.44 118.31) rotate(153.99)" fill="#0f172a" stroke-width="0"/>
          <rect x="121.48" y="109.03" width="38.23" height="38.28" rx="4.06" ry="4.06" transform="translate(323.16 181.72) rotate(153.99)" fill="#0f172a" stroke-width="0"/>
          <rect x="37.15" y="140.45" width="78.12" height="38.28" rx="5.8" ry="5.8" transform="translate(-62.26 49.58) rotate(-26.01)" fill="#0f172a" stroke-width="0"/>
        </g>
        <g>
          <rect x="537.69" y="-40.03" width="38.23" height="38.28" rx="4.06" ry="4.06" transform="translate(65.54 242.03) rotate(-26.01)" fill="#0f172a" stroke-width="0"/>
          <rect x="491.23" y="-17.36" width="38.23" height="38.28" rx="4.06" ry="4.06" transform="translate(969.78 -220.4) rotate(153.99)" fill="#0f172a" stroke-width="0"/>
          <rect x="444.76" y="5.3" width="38.23" height="38.28" rx="4.06" ry="4.06" transform="translate(891.5 -156.99) rotate(153.99)" fill="#0f172a" stroke-width="0"/>
          <rect x="398.3" y="27.97" width="38.23" height="38.28" rx="4.06" ry="4.06" transform="translate(813.22 -93.57) rotate(153.99)" fill="#0f172a" stroke-width="0"/>
          <rect x="351.84" y="50.64" width="38.23" height="38.28" rx="4.06" ry="4.06" transform="translate(734.95 -30.16) rotate(153.99)" fill="#0f172a" stroke-width="0"/>
          <rect x="305.38" y="73.31" width="38.23" height="38.28" rx="4.06" ry="4.06" transform="translate(-7.68 151.65) rotate(-26.01)" fill="#0f172a" stroke-width="0"/>
          <rect x="258.92" y="95.98" width="38.23" height="38.28" rx="4.06" ry="4.06" transform="translate(578.39 96.67) rotate(153.99)" fill="#0f172a" stroke-width="0"/>
          <rect x="212.46" y="118.65" width="38.23" height="38.28" rx="4.06" ry="4.06" transform="translate(500.11 160.08) rotate(153.99)" fill="#0f172a" stroke-width="0"/>
          <rect x="165.99" y="141.31" width="38.23" height="38.28" rx="4.06" ry="4.06" transform="translate(-51.61 97.41) rotate(-26.01)" fill="#0f172a" stroke-width="0"/>
          <path d="m63.81,178.39h90.59c3.69,0,6.69,3,6.69,6.69v24.9c0,3.69-3,6.69-6.69,6.69H63.81c-3.69,0-6.69-3-6.69-6.69v-24.9c0-3.69,3-6.69,6.69-6.69Z" transform="translate(-75.57 67.84) rotate(-26.01)" fill="#0f172a" stroke-width="0"/>
        </g>
        <g>
          <rect x="187.27" y="184.93" width="38.23" height="38.28" rx="4.06" ry="4.06" transform="translate(-68.58 111.16) rotate(-26.01)" fill="#0f172a" stroke-width="0"/>
          <rect x="140.46" y="207.77" width="38.23" height="38.28" rx="4.06" ry="4.06" transform="translate(402.49 360.86) rotate(153.99)" fill="#0f172a" stroke-width="0"/>
          <rect x="81.38" y="233.26" width="51.88" height="38.28" rx="4.73" ry="4.73" transform="translate(-99.81 72.62) rotate(-26.01)" fill="#0f172a" stroke-width="0"/>
          <rect x="233.74" y="162.26" width="38.23" height="38.28" rx="4.06" ry="4.06" transform="translate(559.64 233.56) rotate(153.99)" fill="#0f172a" stroke-width="0"/>
          <rect x="524.93" y="20.19" width="38.23" height="38.28" rx="4.06" ry="4.06" transform="translate(1050.24 -163.88) rotate(153.99)" fill="#0f172a" stroke-width="0"/>
          <rect x="571.39" y="-2.48" width="38.23" height="38.28" rx="4.06" ry="4.06" transform="translate(52.49 260.62) rotate(-26.01)" fill="#0f172a" stroke-width="0"/>
          <rect x="617.86" y="-25.15" width="38.23" height="38.28" rx="4.06" ry="4.06" transform="translate(1206.81 -290.71) rotate(153.99)" fill="#0f172a" stroke-width="0"/>
          <rect x="269.57" y="91.1" width="258.26" height="38.28" rx="5.8" ry="5.8" transform="translate(-7.97 185.99) rotate(-26.01)" fill="#0f172a" stroke-width="0"/>
        </g>
      </g>
      <path d="m654.32-635.19c.04.21.08.42.11.63l38.35,232.48c1.7,10.28-3.56,20.46-12.92,25.03L-127.89,17.04c-9.37,4.57-20.62,2.45-27.68-5.22l-2.57-2.79-157.05-170.52c-10.69-11.61-7.18-30.24,7-37.16l929.02-453.26c13.99-6.83,30.57,1.55,33.49,16.72Z" fill="#313a43" stroke-width="0"/>
      <path d="m653.12-642.53l1.2,7.33c-2.91-15.18-19.49-23.55-33.49-16.72L-308.19-198.66c-14.19,6.92-17.7,25.55-7,37.16L-158.14,9.03c-1.17-.87-2.27-1.85-3.29-2.95l-159.93-173.16c-10.71-11.6-7.15-30.26,7.1-37.21l933.68-455.53c14.26-6.96,31.15,1.72,33.7,17.3Z" fill="#b5b5b5" stroke-width="0"/>
      <path d="m1694.81,784.1l-24.83-24.14-4.91-4.78c-1.51-1.47-3.96-1.48-5.68-.05-.05.05-.11.09-.16.14l-1.33,1.21-5.85-6.42-1.05-1.16c-1.61-1.77-4.35-1.89-6.11-.29l-1.61,1.47-1.61,1.47c-1.77,1.61-1.89,4.35-.29,6.11l1.05,1.16,5.85,6.42-1.25,1.14c-.05.05-.11.1-.16.15-1.58,1.57-1.8,4.02-.48,5.66l4.3,5.34,11.18,13.89c-.09.15-.17.32-.26.48-.02.04-.04.08-.06.12-.07.15-.15.3-.22.46-.01.03-.02.05-.04.08-.08.19-.16.38-.24.58-.01.03-.03.07-.04.1-.06.17-.13.34-.19.52-.02.05-.04.1-.05.15-.07.21-.14.43-.21.66,0,.01,0,.02,0,.03-.06.21-.12.44-.17.66-.02.06-.03.13-.04.19-.05.21-.09.41-.13.63,0,.04-.02.09-.02.13-.04.26-.08.52-.12.8,0,.02,0,.04,0,.06h0c-.13,1.02-.17,2.14-.11,3.36,0,.04,0,.09,0,.13.71,12.39,12.01,24.08,13.23,25.31,22.84,24.09,45.69,48.19,68.54,72.28.92-1.46,1.79-3.69.79-6.53-1.56-4.44-6.82-8.03-8.64-9.3-21.63-15.15-45.97-46.99-52.7-57.12-.81-1.23-1.67-2.59-2.46-4.05-1.06-1.96-1.98-4.11-2.47-6.32h0c-.17-.74-.29-1.49-.34-2.25-.11-1.39,0-2.59.22-3.61,1.2,1.4,2.42,2.78,3.66,4.14l77.84,85.45,7.52,8.05,10.59,11.32,15.12,16.18c7.63,8.16,15.62,15.96,23.97,23.4l38.87,32.97-.05.05,5.32,3.33c.81.51,1.83.47,2.6-.07l7.49,6.3c.67.56,1.45.45,1.98.03.03-.02.06-.04.08-.07.53-.48.76-1.3.23-2.05l-5.59-8.07c.5-.7.59-1.64.19-2.44l-2.73-5.41.03-.02-29.33-41.94c-6.62-9-13.65-17.69-21.06-26.04l-14.7-16.56-10.29-11.59-7.31-8.23-77.84-85.45c-2.54-2.79-5.18-5.51-7.89-8.15Z" fill="#1a1a1a" opacity=".33" stroke-width="0"/>
      <g>
        <g>
          <rect x="1648.06" y="740.16" width="13.02" height="26.04" rx="4.33" ry="4.33" transform="translate(-75.8 1310.57) rotate(-42.33)" fill="#6d747a" stroke-width="0"/>
          <path d="m1665.45,783.28l14.49,15.91c-.44.74-.97,1.82-1.28,3.25-.22,1.02-.32,2.22-.22,3.61.23,3.01,1.4,5.96,2.81,8.58.79,1.47,1.64,2.83,2.46,4.05,6.73,10.13,31.08,41.97,52.7,57.12,1.82,1.27,7.08,4.86,8.64,9.3,1,2.84.13,5.07-.79,6.53-22.84-24.09-45.69-48.19-68.54-72.28-1.22-1.24-12.52-12.92-13.23-25.31,0-.04,0-.09,0-.13-.21-4.14.83-7.08,1.91-9.02.36-.65.73-1.18,1.05-1.61Z" fill="#ff8427" stroke-width="0"/>
          <path d="m1854.38,963.33l9.47,13.66.12.17,4.31,6.23,5.59,8.07c.52.75.3,1.57-.23,2.05-.03.03-.05.05-.08.07-.53.43-1.32.53-1.98-.03l-7.49-6.3-5.82-4.9-.16-.13-12.72-10.7c-.73-.61-.75-1.72-.05-2.36l6.7-6.1c.7-.64,1.81-.51,2.35.27Z" fill="#e8e8e8" stroke-width="0"/>
          <path d="m1865.65,975.35l.1.19,2.73,5.41c.4.8.31,1.74-.19,2.44-.09.13-.21.26-.33.37l-3.63,3.3c-.08.07-.16.14-.24.19-.77.54-1.79.57-2.6.07l-5.32-3.33,9.49-8.64Z" fill="#eb9532" stroke-width="0"/>
          <path d="m1705.23,785.7l77.84,85.45,7.31,8.23,10.29,11.59,14.7,16.56c7.41,8.35,14.44,17.04,21.06,26.04l29.33,41.94-9.4,8.56-.16-.13-38.87-32.97c-8.35-7.43-16.34-15.24-23.97-23.4l-15.12-16.18-10.59-11.32-7.52-8.05-77.84-85.45c-1.24-1.36-2.46-2.74-3.66-4.14-1.26-1.47-2.51-2.96-3.72-4.47l-10.54-13.08-11.18-13.89-4.3-5.34c-1.32-1.64-1.1-4.08.48-5.66.05-.05.1-.1.16-.15l12.2-11.11c.05-.05.11-.1.16-.14,1.71-1.43,4.17-1.42,5.68.05l4.91,4.78,24.83,24.14c2.71,2.64,5.34,5.36,7.89,8.15Z" fill="#6d747a" stroke-width="0"/>
          <path d="m1673.02,753.98l-19.3,17.58-4.63-5.7c-1.42-1.75-1.28-4.28.3-5.86.05-.05.1-.1.16-.15l12.2-11.11c.05-.05.11-.1.16-.14,1.72-1.42,4.25-1.33,5.86.25l5.24,5.14Z" fill="#ff8427" stroke-width="0"/>
          <polygon points="1790.38 879.39 1800.67 890.98 1778.26 911.4 1767.67 900.08 1790.38 879.39" fill="#ff8427" stroke-width="0"/>
          <path d="m1653.53,742.37l1.05,1.16-9.63,8.77-1.05-1.16c-1.61-1.77-1.48-4.5.29-6.11l3.23-2.94c1.77-1.61,4.5-1.48,6.11.29Z" fill="#ff8427" stroke-width="0"/>
        </g>
        <path d="m1645.8,743.55l227.75,250.03c-.53.43-1.32.53-1.98-.03l-7.49-6.3c-.77.54-1.79.57-2.6.07l-5.32-3.33.05-.05-38.87-32.97c-8.35-7.43-16.34-15.24-23.97-23.4l-15.12-16.18-10.59-11.32-7.52-8.05-77.84-85.45c-1.24-1.36-2.46-2.74-3.66-4.14-.22,1.02-.32,2.22-.22,3.61.06.76.18,1.51.34,2.26l-16.19-17.77c.3-2.43,1.04-4.29,1.8-5.65l-11.18-13.89-4.3-5.34c-1.32-1.64-1.1-4.08.48-5.66.05-.05.1-.1.16-.15l1.25-1.14-6.9-7.57c-1.61-1.77-1.48-4.5.29-6.11l1.61-1.47Z" opacity=".39" stroke-width="0"/>
      </g>
      <path d="m177.95,610.17c-.7-.26-1.42-.49-2.15-.69l-19.66-5.46h0c.17-.68-.23-1.37-.9-1.56l-9.69-2.69c-.67-.19-1.37.2-1.58.87h0s-7.56-2.1-7.56-2.1h0c.1-.71-.33-1.4-1.03-1.59l-12.59-3.49c-.7-.19-1.43.18-1.7.83h0s-2.94-.82-2.94-.82h0c.1-.71-.33-1.4-1.03-1.59l-12.59-3.49c-.7-.2-1.43.18-1.7.84h0s-173.67-48.19-173.67-48.19c-14.23-3.95-28.96,4.39-32.9,18.61l-27.21,98.1c-3.95,14.22,4.39,28.95,18.61,32.9l10.6,2.94,179.38,49.77c.46.93,1.29,1.66,2.36,1.95l22.5,6.24c1.07.3,2.17.09,3.03-.46l28.8,7.99c14.22,3.95,28.95-4.39,32.9-18.61l27.21-98.1c3.74-13.49-3.56-27.44-16.46-32.21Z" fill="#1a1a1a" opacity=".33" stroke-width="0"/>
      <path d="m189.21,629.5l-5.1,18.39c-.97,3.49-3.1,6.55-6.04,8.68-2.78,2.01-4.78,4.68-5.67,7.86l-7.84,28.25c-.88,3.18-.54,6.5.81,9.66,1.42,3.34,1.67,7.05.71,10.55l-5.1,18.39c-2.55,9.19-12.07,14.58-21.26,12.03l-225.35-62.52,252.68-75.35,10.13,2.81c9.19,2.55,14.57,12.07,12.02,21.26Z" fill="#fff" opacity=".14" stroke-width="0"/>
      <rect x="280.75" y="577.15" width="168.03" height="168.03" transform="translate(-245.39 216.3) rotate(-25.02)" fill="#98ce00" stroke-width="0"/>
      <rect x="279.95" y="577.47" width="168.03" height="168.03" transform="translate(-271.48 253.75) rotate(-28.49)" fill="#98ce00" stroke-width="0"/>
      <path d="m469.92,706.31l3.59-1.95-17.47-32.18-10.61-20.7-12.3-23.99-32.14-68.87-2.55,1.19-3.62-7.06-100.24,51.38-8.27-8.68c-2.69-2.83-5.98-4.8-9.24-5.55-3.49-.81-6.56-.15-8.67,1.85-2.1,2-2.91,5.04-2.27,8.57.59,3.3,2.4,6.67,5.1,9.5l4.02,4.22-29.97,15.36,3.07,5.98-2.69,1.46,45.64,84.09,28.48,61.02,3.71-1.73,2.33,4.3,70.77-38.41,75.46-35.22-2.14-4.58Zm-196.54-98.54c-4.51-4.74-5.85-11.09-2.92-13.88,2.92-2.79,9.21-1.14,13.72,3.6l7.67,8.05-3.33,1.7c-1.94-1.16-4.11-1.18-5.46.11-.82.78-1.2,1.95-1.07,3.24l-3.98,2.04-4.63-4.86Z" fill="#1a1a1a" opacity=".33" stroke-width="0"/>
      <g>
        <polygon points="449.81 642.36 399.2 543.63 298.96 595.01 296.22 596.42 292.89 598.12 286.36 601.47 282.38 603.51 279.64 604.92 249.67 620.28 326.31 769.81 447.28 707.81 475.84 693.17 449.81 642.36" fill="#98ce00" stroke-width="0"/>
        <path d="m321.26,629.19c-.44.42-.94.76-1.49,1.02-1.34.63-2.97.75-4.74.34-2.27-.53-4.55-1.89-6.41-3.84l-17.77-18.65-2.56-2.69c-.98-1.03-1.65-2.28-1.87-3.52-.02-.13-.04-.25-.05-.38-.13-1.29.25-2.46,1.07-3.24,1.35-1.29,3.52-1.26,5.46-.11.57.34,1.12.78,1.63,1.31l4.32,4.53,12.74,13.37c.56.59.54,1.53-.05,2.09-.59.56-1.53.54-2.09-.05l-13.34-14-3.72-3.9c-1.16-1.22-2.51-1.47-2.9-1.1-.17.16-.22.51-.15.95.12.66.52,1.39,1.11,2l3.17,3.33,17.17,18.02c1.47,1.54,3.22,2.61,4.93,3,.86.2,2.47.38,3.52-.62,1.05-1,.94-2.61.79-3.49-.31-1.73-1.29-3.53-2.76-5.07l-15.34-16.1-5.69-5.97-7.67-8.05c-4.51-4.74-10.8-6.39-13.72-3.6-2.92,2.79-1.59,9.14,2.92,13.88l4.63,4.86-2.75,1.41-4.02-4.22c-2.7-2.83-4.5-6.2-5.1-9.5-.63-3.52.17-6.56,2.27-8.57,2.1-2,5.18-2.66,8.67-1.85,3.26.75,6.55,2.73,9.24,5.55l8.27,8.68,5.69,5.97,14.74,15.47c1.86,1.95,3.11,4.3,3.53,6.59.45,2.52-.14,4.7-1.66,6.16Z" fill="#313a43" stroke-width="0"/>
      </g>
      <g>
        <circle cx="1716.07" cy="220.89" r="132.5" fill="#1a1a1a" opacity=".33" stroke-width="0"/>
        <path d="m1842.61,365.78c-.25.2-.5.4-.76.58-3.28,2.35-7.2,3.29-10.97,2.89-4.07-.43-7.98-2.41-10.75-5.84l-36.78-45.43,24.85-20.12,36.78,45.43c5.35,6.61,4.56,16.2-1.64,21.86-.23.22-.47.42-.72.63Z" fill="#0d43a7" stroke-width="0"/>
        <path d="m1841.12,366.98c-3.43,2.78-7.66,3.9-11.73,3.47-4.07-.43-7.98-2.41-10.75-5.84l-36.78-45.43,1.49-1.21,36.78,45.43c2.78,3.43,6.68,5.41,10.75,5.84,3.77.4,7.68-.54,10.97-2.89-.23.22-.47.42-.72.63Z" fill="#0a3480" stroke-width="0"/>
        <path d="m1844.1,364.57c-.25.2-.5.4-.76.58,6.2-5.66,6.99-15.25,1.64-21.86l-36.78-45.43,1.49-1.21,36.78,45.43c5.55,6.86,4.5,16.93-2.37,22.48Z" fill="#0a3480" stroke-width="0"/>
        <path d="m1791.53,328.08l24.85-20.12,9.05,11.18s-4.23,6.89-11.05,12.47c-6.82,5.58-13.12,8.49-13.12,8.49l-9.73-12.02Z" fill="#0a3480" stroke-width="0"/>
        <circle cx="1721.18" cy="215.78" r="132.5" fill="#0d43a7" stroke-width="0"/>
        <circle cx="1721.18" cy="215.78" r="129.31" transform="translate(351.54 1280.26) rotate(-45)" fill="#255cc0" stroke-width="0"/>
        <circle cx="1721.18" cy="215.78" r="109.32" fill="#0d43a7" stroke-width="0"/>
        <g>
          <path d="m1805.84,273.76c-32.06,46.86-96.03,58.86-142.88,26.8-12.59-8.61-22.66-19.52-30.03-31.79-20.09-33.4-20.21-76.82,3.23-111.09,32.06-46.86,96.03-58.86,142.89-26.8,22.64,15.48,37.14,38.42,42.47,63.27,5.7,26.59.9,55.39-15.67,79.61Z" fill="url(#linear-gradient)" stroke-width="0"/>
          <path d="m1640.19,233.46c-.24,1.71-.31,3.42-.22,5.11.52,6.29,2.18,12.31,4.72,17.94.85,1.88,1.79,3.71,2.82,5.49,2.14,3.58,4.55,6.95,7.19,10.12,1.32,1.58,2.69,3.11,4.12,4.59,12.68,13.68,29.67,22.92,47.85,26.24,2.04.4,4.1.74,6.18.98,2.08.25,4.18.41,6.29.47,1.34.1,2.68.16,4.02.18,4.03.07,8.06-.21,12.07-.87,1.75-.31,3.5-.68,5.23-1.1,5.19-1.26,10.28-2.98,15.14-5.06,1.9-.9,3.78-1.88,5.62-2.92,5.52-3.12,10.76-6.74,15.59-10.75,1.43-1.19,2.83-2.41,4.2-3.66,4.28-4.08,8.34-8.57,11.96-13.38,1.21-1.61,2.36-3.25,3.46-4.92,12.72-17.68,16.93-41.91,4.69-60.89-.65-1.22-1.36-2.39-2.11-3.54-6.01-10.7-16.38-17.8-27.4-22.45-.98-.43-1.96-.84-2.95-1.22-5.95-2.26-12.37-3.21-19.06-2.3-.9.09-1.81.23-2.72.43-.91.19-1.82.44-2.73.75-11.54,3.86-16.59,15.07-22.67,24.63-3.72,5.84-8.13,11.43-13.97,15.16-5.84,3.73-13.31,5.39-19.83,3.04-8.21-2.95-13.87-11.65-22.51-12.84-1.54-.21-3.07-.15-4.56.13-1.49.29-2.94.8-4.32,1.49-9.29,5.09-13.87,15.27-15.69,25.56-.16,1.19-.29,2.38-.39,3.57Z" fill="url(#linear-gradient-2)" stroke-width="0"/>
          <path d="m1736.23,154.74c-1.94,2.83-5.81,3.56-8.64,1.62-2.83-1.94-3.56-5.81-1.62-8.64,1.94-2.83,5.81-3.56,8.64-1.62,2.83,1.94,3.56,5.81,1.62,8.64Z" fill="url(#linear-gradient-3)" stroke-width="0"/>
          <path d="m1678.43,151.73c-1.94,2.83-5.81,3.56-8.64,1.62-2.83-1.94-3.56-5.81-1.62-8.64,1.94-2.83,5.81-3.56,8.64-1.62,2.83,1.94,3.56,5.81,1.62,8.64Z" fill="url(#linear-gradient-4)" stroke-width="0"/>
          <path d="m1709.88,131.74c-1.29,1.89-3.87,2.37-5.76,1.08-1.89-1.29-2.37-3.87-1.08-5.76,1.29-1.89,3.87-2.37,5.76-1.08,1.89,1.29,2.37,3.87,1.08,5.76Z" fill="url(#linear-gradient-5)" stroke-width="0"/>
          <path d="m1765.85,137.63c-1.29,1.89-3.87,2.37-5.76,1.08-1.89-1.29-2.37-3.87-1.08-5.76,1.29-1.89,3.87-2.37,5.76-1.08,1.89,1.29,2.37,3.87,1.08,5.76Z" fill="url(#linear-gradient-6)" stroke-width="0"/>
          <path d="m1702.71,180.97c-1.62,2.36-4.84,2.97-7.2,1.35-2.36-1.62-2.97-4.84-1.35-7.2,1.62-2.36,4.84-2.97,7.2-1.35,2.36,1.62,2.97,4.84,1.35,7.2Z" fill="url(#linear-gradient-7)" stroke-width="0"/>
          <path d="m1684.71,185.27c-.97,1.42-2.9,1.78-4.32.81-1.42-.97-1.78-2.9-.81-4.32.97-1.42,2.9-1.78,4.32-.81,1.42.97,1.78,2.9.81,4.32Z" fill="url(#linear-gradient-8)" stroke-width="0"/>
          <path d="m1703.45,168.85c-.97,1.42-2.9,1.78-4.32.81-1.42-.97-1.78-2.9-.81-4.32.97-1.42,2.9-1.78,4.32-.81,1.42.97,1.78,2.9.81,4.32Z" fill="url(#linear-gradient-9)" stroke-width="0"/>
          <path d="m1747.06,155.92c-.97,1.42-2.9,1.78-4.32.81-1.42-.97-1.78-2.9-.81-4.32.97-1.42,2.9-1.78,4.32-.81,1.42.97,1.78,2.9.81,4.32Z" fill="url(#linear-gradient-10)" stroke-width="0"/>
          <path d="m1660.18,155.57c-.97,1.42-2.9,1.78-4.32.81-1.42-.97-1.78-2.9-.81-4.32.97-1.42,2.9-1.78,4.32-.81s1.78,2.9.81,4.32Z" fill="url(#linear-gradient-11)" stroke-width="0"/>
          <path d="m1725.37,129.47c-.97,1.42-2.9,1.78-4.32.81-1.42-.97-1.78-2.9-.81-4.32.97-1.42,2.9-1.78,4.32-.81,1.42.97,1.78,2.9.81,4.32Z" fill="url(#linear-gradient-12)" stroke-width="0"/>
          <path d="m1775.84,149.48c-.97,1.42-2.9,1.78-4.32.81-1.42-.97-1.78-2.9-.81-4.32.97-1.42,2.9-1.78,4.32-.81,1.42.97,1.78,2.9.81,4.32Z" fill="url(#linear-gradient-13)" stroke-width="0"/>
          <path d="m1643.88,188.57c-.97,1.42-2.9,1.78-4.32.81-1.42-.97-1.78-2.9-.81-4.32.97-1.42,2.9-1.78,4.32-.81,1.42.97,1.78,2.9.81,4.32Z" fill="url(#linear-gradient-14)" stroke-width="0"/>
          <path d="m1651.8,185.72c-.32.47-.97.59-1.44.27-.47-.32-.59-.97-.27-1.44.32-.47.97-.59,1.44-.27.47.32.59.97.27,1.44Z" fill="url(#linear-gradient-15)" stroke-width="0"/>
          <path d="m1634.57,198.52c-.32.47-.97.59-1.44.27-.47-.32-.59-.97-.27-1.44.32-.47.97-.59,1.44-.27.47.32.59.97.27,1.44Z" fill="url(#linear-gradient-16)" stroke-width="0"/>
          <path d="m1650.75,176.69c-.32.47-.97.59-1.44.27-.47-.32-.59-.97-.27-1.44.32-.47.97-.59,1.44-.27s.59.97.27,1.44Z" fill="url(#linear-gradient-17)" stroke-width="0"/>
          <path d="m1670.89,183.27c-.65.94-1.94,1.19-2.88.54s-1.19-1.94-.54-2.88,1.94-1.19,2.88-.54,1.19,1.94.54,2.88Z" fill="url(#linear-gradient-18)" stroke-width="0"/>
          <path d="m1668.14,161.01c-.32.47-.97.59-1.44.27-.47-.32-.59-.97-.27-1.44.32-.47.97-.59,1.44-.27.47.32.59.97.27,1.44Z" fill="url(#linear-gradient-19)" stroke-width="0"/>
          <path d="m1658.8,148.43c-.32.47-.97.59-1.44.27-.47-.32-.59-.97-.27-1.44.32-.47.97-.59,1.44-.27.47.32.59.97.27,1.44Z" fill="url(#linear-gradient-20)" stroke-width="0"/>
          <path d="m1644.7,165.36c-.32.47-.97.59-1.44.27-.47-.32-.59-.97-.27-1.44.32-.47.97-.59,1.44-.27.47.32.59.97.27,1.44Z" fill="url(#linear-gradient-21)" stroke-width="0"/>
          <path d="m1773.04,136.27c-.32.47-.97.59-1.44.27-.47-.32-.59-.97-.27-1.44.32-.47.97-.59,1.44-.27.47.32.59.97.27,1.44Z" fill="url(#linear-gradient-22)" stroke-width="0"/>
          <path d="m1751.89,131.84c-.32.47-.97.59-1.44.27-.47-.32-.59-.97-.27-1.44.32-.47.97-.59,1.44-.27.47.32.59.97.27,1.44Z" fill="url(#linear-gradient-23)" stroke-width="0"/>
          <path d="m1679.34,159.89c-.65.94-1.94,1.19-2.88.54-.94-.65-1.19-1.94-.54-2.88.65-.94,1.94-1.19,2.88-.54s1.19,1.94.54,2.88Z" fill="url(#linear-gradient-24)" stroke-width="0"/>
          <path d="m1694.33,163.87c-.32.47-.97.59-1.44.27s-.59-.97-.27-1.44c.32-.47.97-.59,1.44-.27.47.32.59.97.27,1.44Z" fill="url(#linear-gradient-25)" stroke-width="0"/>
          <path d="m1710.17,153.55c-.65.94-1.94,1.19-2.88.54-.94-.65-1.19-1.94-.54-2.88s1.94-1.19,2.88-.54c.94.65,1.19,1.94.54,2.88Z" fill="url(#linear-gradient-26)" stroke-width="0"/>
          <path d="m1698.72,127.87c-.32.47-.97.59-1.44.27-.47-.32-.59-.97-.27-1.44.32-.47.97-.59,1.44-.27.47.32.59.97.27,1.44Z" fill="url(#linear-gradient-27)" stroke-width="0"/>
          <path d="m1663.83,170.99c-.32.47-.97.59-1.44.27-.47-.32-.59-.97-.27-1.44.32-.47.97-.59,1.44-.27.47.32.59.97.27,1.44Z" fill="url(#linear-gradient-28)" stroke-width="0"/>
          <path d="m1676.12,175.63c-.32.47-.97.59-1.44.27-.47-.32-.59-.97-.27-1.44.32-.47.97-.59,1.44-.27.47.32.59.97.27,1.44Z" fill="url(#linear-gradient-29)" stroke-width="0"/>
          <path d="m1771.2,158.11c-.32.47-.97.59-1.44.27-.47-.32-.59-.97-.27-1.44.32-.47.97-.59,1.44-.27.47.32.59.97.27,1.44Z" fill="url(#linear-gradient-30)" stroke-width="0"/>
          <path d="m1744.87,145.77c-.32.47-.97.59-1.44.27-.47-.32-.59-.97-.27-1.44.32-.47.97-.59,1.44-.27.47.32.59.97.27,1.44Z" fill="url(#linear-gradient-31)" stroke-width="0"/>
          <path d="m1742.05,136.29c-.32.47-.97.59-1.44.27-.47-.32-.59-.97-.27-1.44.32-.47.97-.59,1.44-.27.47.32.59.97.27,1.44Z" fill="url(#linear-gradient-32)" stroke-width="0"/>
          <path d="m1781.08,146.79c-.32.47-.97.59-1.44.27-.47-.32-.59-.97-.27-1.44.32-.47.97-.59,1.44-.27.47.32.59.97.27,1.44Z" fill="url(#linear-gradient-33)" stroke-width="0"/>
          <path d="m1752.8,151.2c-.32.47-.97.59-1.44.27-.47-.32-.59-.97-.27-1.44.32-.47.97-.59,1.44-.27.47.32.59.97.27,1.44Z" fill="url(#linear-gradient-34)" stroke-width="0"/>
          <path d="m1732.95,123.9c-.32.47-.97.59-1.44.27-.47-.32-.59-.97-.27-1.44.32-.47.97-.59,1.44-.27.47.32.59.97.27,1.44Z" fill="url(#linear-gradient-35)" stroke-width="0"/>
          <path d="m1789.48,155.04c-.32.47-.97.59-1.44.27-.47-.32-.59-.97-.27-1.44.32-.47.97-.59,1.44-.27.47.32.59.97.27,1.44Z" fill="url(#linear-gradient-36)" stroke-width="0"/>
          <path d="m1686.67,147.33c-.32.47-.97.59-1.44.27-.47-.32-.59-.97-.27-1.44.32-.47.97-.59,1.44-.27.47.32.59.97.27,1.44Z" fill="url(#linear-gradient-37)" stroke-width="0"/>
          <path d="m1689.71,137.08c-.32.47-.97.59-1.44.27-.47-.32-.59-.97-.27-1.44.32-.47.97-.59,1.44-.27.47.32.59.97.27,1.44Z" fill="url(#linear-gradient-38)" stroke-width="0"/>
          <path d="m1703.04,147.46c-.32.47-.97.59-1.44.27-.47-.32-.59-.97-.27-1.44.32-.47.97-.59,1.44-.27.47.32.59.97.27,1.44Z" fill="url(#linear-gradient-39)" stroke-width="0"/>
          <path d="m1722.8,140.58c-.32.47-.97.59-1.44.27-.47-.32-.59-.97-.27-1.44.32-.47.97-.59,1.44-.27.47.32.59.97.27,1.44Z" fill="url(#linear-gradient-40)" stroke-width="0"/>
          <path d="m1715.89,122.98c-.32.47-.97.59-1.44.27-.47-.32-.59-.97-.27-1.44.32-.47.97-.59,1.44-.27s.59.97.27,1.44Z" fill="url(#linear-gradient-41)" stroke-width="0"/>
          <path d="m1720.39,151.43c-.32.47-.97.59-1.44.27-.47-.32-.59-.97-.27-1.44.32-.47.97-.59,1.44-.27.47.32.59.97.27,1.44Z" fill="url(#linear-gradient-42)" stroke-width="0"/>
          <path d="m1697.64,142.46c-.65.94-1.94,1.19-2.88.54s-1.19-1.94-.54-2.88,1.94-1.19,2.88-.54c.94.65,1.19,1.94.54,2.88Z" fill="url(#linear-gradient-43)" stroke-width="0"/>
          <path d="m1712.77,138.74c-.65.94-1.94,1.19-2.88.54-.94-.65-1.19-1.94-.54-2.88s1.94-1.19,2.88-.54c.94.65,1.19,1.94.54,2.88Z" fill="url(#linear-gradient-44)" stroke-width="0"/>
          <path d="m1693.35,170.8c-.65.94-1.94,1.19-2.88.54-.94-.65-1.19-1.94-.54-2.88s1.94-1.19,2.88-.54c.94.65,1.19,1.94.54,2.88Z" fill="url(#linear-gradient-45)" stroke-width="0"/>
          <path d="m1722.99,162.31c-.65.94-1.94,1.19-2.88.54-.94-.65-1.19-1.94-.54-2.88s1.94-1.19,2.88-.54,1.19,1.94.54,2.88Z" fill="url(#linear-gradient-46)" stroke-width="0"/>
          <path d="m1684.31,138.19c-.97,1.42-2.9,1.78-4.32.81s-1.78-2.9-.81-4.32c.97-1.42,2.9-1.78,4.32-.81,1.42.97,1.78,2.9.81,4.32Z" fill="url(#linear-gradient-47)" stroke-width="0"/>
          <path d="m1670.44,138.74c-.65.94-1.94,1.19-2.88.54s-1.19-1.94-.54-2.88c.65-.94,1.94-1.19,2.88-.54.94.65,1.19,1.94.54,2.88Z" fill="url(#linear-gradient-48)" stroke-width="0"/>
          <path d="m1639.18,177.09c-.65.94-1.94,1.19-2.88.54-.94-.65-1.19-1.94-.54-2.88.65-.94,1.94-1.19,2.88-.54s1.19,1.94.54,2.88Z" fill="url(#linear-gradient-49)" stroke-width="0"/>
          <path d="m1653.42,167.29c-.65.94-1.94,1.19-2.88.54s-1.19-1.94-.54-2.88,1.94-1.19,2.88-.54c.94.65,1.19,1.94.54,2.88Z" fill="url(#linear-gradient-50)" stroke-width="0"/>
          <path d="m1735.38,140.53c-.65.94-1.94,1.19-2.88.54s-1.19-1.94-.54-2.88c.65-.94,1.94-1.19,2.88-.54s1.19,1.94.54,2.88Z" fill="url(#linear-gradient-51)" stroke-width="0"/>
          <path d="m1746.99,127.23c-.65.94-1.94,1.19-2.88.54s-1.19-1.94-.54-2.88c.65-.94,1.94-1.19,2.88-.54s1.19,1.94.54,2.88Z" fill="url(#linear-gradient-52)" stroke-width="0"/>
          <path d="m1764.26,149.09c-.65.94-1.94,1.19-2.88.54-.94-.65-1.19-1.94-.54-2.88s1.94-1.19,2.88-.54c.94.65,1.19,1.94.54,2.88Z" fill="url(#linear-gradient-53)" stroke-width="0"/>
          <path d="m1787.3,165.56c-.65.94-1.94,1.19-2.88.54s-1.19-1.94-.54-2.88c.65-.94,1.94-1.19,2.88-.54.94.65,1.19,1.94.54,2.88Z" fill="url(#linear-gradient-54)" stroke-width="0"/>
          <path d="m1800.12,168.6c-.97,1.42-2.9,1.78-4.32.81-1.42-.97-1.78-2.9-.81-4.32s2.9-1.78,4.32-.81,1.78,2.9.81,4.32Z" fill="url(#linear-gradient-55)" stroke-width="0"/>
        </g>
        <path d="m1826.58,244.93c-4.18-29.28-20.16-56.77-46.5-74.79-49.83-34.09-117.87-21.33-151.96,28.5-7.01,10.24-12.03,21.25-15.17,32.58-3.74-26.13,1.92-53.67,18-77.17,34.09-49.83,102.12-62.59,151.96-28.5,39.59,27.09,55.78,75.6,43.67,119.38Z" fill="#603d28" mix-blend-mode="multiply" opacity=".15" stroke-width="0"/>
      </g>
      <g>
        <path d="m172.49,735.34c-4.1,14.55-19.13,23.04-33.56,18.97l-250.8-70.75c-14.43-4.07-22.8-19.16-18.7-33.71l26.56-94.16c4.1-14.55,19.13-23.04,33.56-18.97l250.8,70.75c14.43,4.07,22.8,19.16,18.7,33.71l-26.56,94.16m1.17.33l26.56-94.16c4.28-15.18-4.48-30.98-19.54-35.22l-250.8-70.75c-15.05-4.25-30.78,4.64-35.07,19.82l-26.56,94.16c-4.28,15.18,4.48,30.98,19.54,35.22l250.8,70.75c15.05,4.25,30.78-4.64,35.07-19.82h0Z" fill="#94a3b8" stroke-width="0"/>
        <path d="m172.5,735.36l26.57-94.18c4.1-14.55-4.27-29.65-18.7-33.72l-250.81-70.76c-14.43-4.07-29.46,4.42-33.56,18.97l-26.57,94.18c-4.1,14.55,4.27,29.65,18.7,33.72l250.81,70.76c14.43,4.07,29.46-4.42,33.56-18.97Zm-283.04-56.52c-11.82-3.33-18.69-15.74-15.33-27.65l26.57-94.18c3.36-11.91,15.71-18.9,27.52-15.56l250.81,70.76c11.82,3.33,18.69,15.74,15.33,27.65l-26.57,94.18c-3.36,11.91-15.71,18.9-27.52,15.56l-250.81-70.76Z" fill="#020617" stroke-width="0"/>
        <path d="m172.5,735.36l26.57-94.18c4.1-14.55-4.27-29.65-18.7-33.72l-250.81-70.76c-14.43-4.07-29.46,4.42-33.56,18.97l-26.57,94.18c-4.1,14.55,4.27,29.65,18.7,33.72l250.81,70.76c14.43,4.07,29.46-4.42,33.56-18.97Z" fill="#020617" stroke-width="0"/>
        <path d="m-110.54,678.84c-11.82-3.33-18.69-15.74-15.33-27.65l26.57-94.18c3.36-11.91,15.71-18.9,27.52-15.56l250.81,70.76c11.82,3.33,18.69,15.74,15.33,27.65l-26.57,94.18c-3.36,11.91-15.71,18.9-27.52,15.56l-250.81-70.76Z" fill="#020617" stroke-width="0"/>
        <path d="m-110.54,678.84c-11.82-3.33-18.69-15.74-15.33-27.65l26.57-94.18c3.36-11.91,15.71-18.9,27.52-15.56l250.81,70.76c11.82,3.33,18.69,15.74,15.33,27.65l-26.57,94.18c-3.36,11.91-15.71,18.9-27.52,15.56l-250.81-70.76Z" fill="#fff" mix-blend-mode="lighten" opacity=".07" stroke-width="0"/>
        <path d="m144.19,586.9h.65v16.96h-.65c-.31,0-.57-.25-.57-.57v-15.82c0-.31.25-.57.57-.57Z" transform="translate(756.4 618.21) rotate(105.75)" fill="#64748b" stroke-width="0"/>
        <path d="m115.28,573.88h.59v26.65h-.59c-.34,0-.62-.28-.62-.62v-25.41c0-.34.28-.62.62-.62Z" transform="translate(711.71 635.7) rotate(105.75)" fill="#64748b" stroke-width="0"/>
        <path d="m85.06,565.36h.59v26.65h-.59c-.34,0-.62-.28-.62-.62v-25.41c0-.34.28-.62.62-.62Z" transform="translate(665.07 653.95) rotate(105.75)" fill="#64748b" stroke-width="0"/>
        <rect x="147.55" y="675.82" width="46.32" height="15.13" rx="7.56" ry="7.56" transform="translate(874.77 704.63) rotate(105.75)" fill="#020617" stroke-width="0"/>
        <path d="m168.28,698.7c-.27.96-1.28,1.53-2.24,1.26s-1.53-1.28-1.26-2.24,1.28-1.53,2.24-1.26,1.53,1.28,1.26,2.24m2.91.82c.73-2.58-.77-5.25-3.35-5.98-2.58-.73-5.25.77-5.98,3.35s.77,5.25,3.35,5.98c2.58.73,5.25-.77,5.98-3.35h0Z" fill="#1e293b" stroke-width="0"/>
      </g>
      <path d="m855.26,158.16l-17.47-32.18-10.61-20.7-12.3-23.99-38.31-74.74-100.24,51.38-19.33,9.91-29.97,15.36,46.02,91.54,34.52,63.59,70.77-38.41,76.91-41.75Z" fill="#1a1a1a" opacity=".33" stroke-width="0"/>
      <polygon points="828.2 105.28 777.59 6.55 677.36 57.93 674.61 59.34 671.28 61.04 664.75 64.39 660.78 66.43 658.03 67.84 628.06 83.2 704.71 232.73 825.68 170.72 854.24 156.08 828.2 105.28" fill="#98ce00" stroke-width="0"/>
      <text transform="translate(678.04 140.59) rotate(-26.84)" font-family="PlaypenSans-Regular, &apos;Playpen Sans&apos;" font-size="34.4" font-variation-settings="&apos;wght&apos; 400"><tspan x="0" y="0">Open </tspan><tspan x="101.18" y="0" letter-spacing="0em">t</tspan><tspan x="115.04" y="0" letter-spacing="0em">o</tspan><tspan x="0" y="41.28" letter-spacing="-.01em">w</tspan><tspan x="26.18" y="41.28">o</tspan><tspan x="45.62" y="41.28" letter-spacing="0em">r</tspan><tspan x="61.41" y="41.28" letter-spacing="0em">k</tspan></text>
    </g>
  </g>
</svg>