<?xml version="1.0" encoding="UTF-8"?>
<svg xmlns="http://www.w3.org/2000/svg" xmlns:xlink="http://www.w3.org/1999/xlink" viewBox="0 0 1920 1080">
  <defs>
    <linearGradient id="linear-gradient" x1="-4140.46" y1="2938.23" x2="-4218.52" y2="2758.09" gradientTransform="translate(6778.2 225.98) rotate(34.38)" gradientUnits="userSpaceOnUse">
      <stop offset="0" stop-color="#774f3f"/>
      <stop offset="1" stop-color="#dda780"/>
    </linearGradient>
    <linearGradient id="linear-gradient-2" x1="-4194.15" y1="2802.54" x2="-4143.8" y2="2911.09" gradientTransform="translate(6778.2 225.98) rotate(34.38)" gradientUnits="userSpaceOnUse">
      <stop offset="0" stop-color="#774f3f"/>
      <stop offset="1" stop-color="#563021"/>
    </linearGradient>
    <linearGradient id="linear-gradient-3" x1="-4214.24" y1="2788.2" x2="-4201.81" y2="2788.2" xlink:href="#linear-gradient-2"/>
    <linearGradient id="linear-gradient-4" x1="-4263.64" y1="2818.36" x2="-4251.21" y2="2818.36" xlink:href="#linear-gradient-2"/>
    <linearGradient id="linear-gradient-5" x1="-4244.82" y1="2784.09" x2="-4236.54" y2="2784.09" xlink:href="#linear-gradient-2"/>
    <linearGradient id="linear-gradient-6" x1="-4195.31" y1="2757.35" x2="-4187.02" y2="2757.35" xlink:href="#linear-gradient-2"/>
    <linearGradient id="linear-gradient-7" x1="-4225.02" y1="2828.78" x2="-4214.66" y2="2828.78" xlink:href="#linear-gradient-2"/>
    <linearGradient id="linear-gradient-8" x1="-4233.31" y1="2842.49" x2="-4227.09" y2="2842.49" xlink:href="#linear-gradient-2"/>
    <linearGradient id="linear-gradient-9" x1="-4227.1" y1="2818.35" x2="-4220.89" y2="2818.35" xlink:href="#linear-gradient-2"/>
    <linearGradient id="linear-gradient-10" x1="-4198.41" y1="2783.06" x2="-4192.2" y2="2783.06" xlink:href="#linear-gradient-2"/>
    <linearGradient id="linear-gradient-11" x1="-4270.32" y1="2831.82" x2="-4264.11" y2="2831.82" xlink:href="#linear-gradient-2"/>
    <linearGradient id="linear-gradient-12" x1="-4231.25" y1="2773.47" x2="-4225.03" y2="2773.47" xlink:href="#linear-gradient-2"/>
    <linearGradient id="linear-gradient-13" x1="-4178.29" y1="2761.49" x2="-4172.08" y2="2761.49" xlink:href="#linear-gradient-2"/>
    <linearGradient id="linear-gradient-14" x1="-4265.14" y1="2868.27" x2="-4258.93" y2="2868.27" xlink:href="#linear-gradient-2"/>
    <linearGradient id="linear-gradient-15" x1="-4256.07" y1="2861.45" x2="-4254" y2="2861.45" xlink:href="#linear-gradient-2"/>
    <linearGradient id="linear-gradient-16" x1="-4263.07" y1="2881.74" x2="-4261" y2="2881.74" xlink:href="#linear-gradient-2"/>
    <linearGradient id="linear-gradient-17" x1="-4262.03" y1="2854.58" x2="-4259.96" y2="2854.58" xlink:href="#linear-gradient-2"/>
    <linearGradient id="linear-gradient-18" x1="-4243.77" y1="2848.64" x2="-4239.63" y2="2848.64" xlink:href="#linear-gradient-2"/>
    <linearGradient id="linear-gradient-19" x1="-4256.54" y1="2831.82" x2="-4254.46" y2="2831.82" xlink:href="#linear-gradient-2"/>
    <linearGradient id="linear-gradient-20" x1="-4271.35" y1="2826.71" x2="-4269.28" y2="2826.71" xlink:href="#linear-gradient-2"/>
    <linearGradient id="linear-gradient-21" x1="-4273.43" y1="2848.64" x2="-4271.36" y2="2848.64" xlink:href="#linear-gradient-2"/>
    <linearGradient id="linear-gradient-22" x1="-4183.93" y1="2752.17" x2="-4181.85" y2="2752.17" xlink:href="#linear-gradient-2"/>
    <linearGradient id="linear-gradient-23" x1="-4203.88" y1="2760.45" x2="-4201.81" y2="2760.45" xlink:href="#linear-gradient-2"/>
    <linearGradient id="linear-gradient-24" x1="-4250" y1="2824.57" x2="-4245.86" y2="2824.57" xlink:href="#linear-gradient-2"/>
    <linearGradient id="linear-gradient-25" x1="-4233.31" y1="2819.39" x2="-4231.24" y2="2819.39" xlink:href="#linear-gradient-2"/>
    <linearGradient id="linear-gradient-26" x1="-4228.13" y1="2801.93" x2="-4223.99" y2="2801.93" xlink:href="#linear-gradient-2"/>
    <linearGradient id="linear-gradient-27" x1="-4250" y1="2787.2" x2="-4247.93" y2="2787.2" xlink:href="#linear-gradient-2"/>
    <linearGradient id="linear-gradient-28" x1="-4254.46" y1="2842.49" x2="-4252.39" y2="2842.49" xlink:href="#linear-gradient-2"/>
    <linearGradient id="linear-gradient-29" x1="-4241.7" y1="2839.38" x2="-4239.63" y2="2839.38" xlink:href="#linear-gradient-2"/>
    <linearGradient id="linear-gradient-30" x1="-4173.11" y1="2771.24" x2="-4171.04" y2="2771.24" xlink:href="#linear-gradient-2"/>
    <linearGradient id="linear-gradient-31" x1="-4201.81" y1="2775.92" x2="-4199.73" y2="2775.92" xlink:href="#linear-gradient-2"/>
    <linearGradient id="linear-gradient-32" x1="-4209.49" y1="2769.68" x2="-4207.42" y2="2769.68" xlink:href="#linear-gradient-2"/>
    <linearGradient id="linear-gradient-33" x1="-4171.35" y1="2756.31" x2="-4169.28" y2="2756.31" xlink:href="#linear-gradient-2"/>
    <linearGradient id="linear-gradient-34" x1="-4192.2" y1="2775.92" x2="-4190.13" y2="2775.92" xlink:href="#linear-gradient-2"/>
    <linearGradient id="linear-gradient-35" x1="-4224" y1="2764.6" x2="-4221.92" y2="2764.6" xlink:href="#linear-gradient-2"/>
    <linearGradient id="linear-gradient-36" x1="-4159.76" y1="2758.38" x2="-4157.68" y2="2758.38" xlink:href="#linear-gradient-2"/>
    <linearGradient id="linear-gradient-37" x1="-4248.97" y1="2810.07" x2="-4246.89" y2="2810.07" xlink:href="#linear-gradient-2"/>
    <linearGradient id="linear-gradient-38" x1="-4252.25" y1="2799.89" x2="-4250.18" y2="2799.89" xlink:href="#linear-gradient-2"/>
    <linearGradient id="linear-gradient-39" x1="-4235.38" y1="2800.93" x2="-4233.31" y2="2800.93" xlink:href="#linear-gradient-2"/>
    <linearGradient id="linear-gradient-40" x1="-4222.96" y1="2784.09" x2="-4220.89" y2="2784.09" xlink:href="#linear-gradient-2"/>
    <linearGradient id="linear-gradient-41" x1="-4238.6" y1="2773.47" x2="-4236.53" y2="2773.47" xlink:href="#linear-gradient-2"/>
    <linearGradient id="linear-gradient-42" x1="-4218.82" y1="2794.41" x2="-4216.74" y2="2794.41" xlink:href="#linear-gradient-2"/>
    <linearGradient id="linear-gradient-43" x1="-4244.73" y1="2799.85" x2="-4240.59" y2="2799.85" xlink:href="#linear-gradient-2"/>
    <linearGradient id="linear-gradient-44" x1="-4234.35" y1="2788.24" x2="-4230.2" y2="2788.24" xlink:href="#linear-gradient-2"/>
    <linearGradient id="linear-gradient-45" x1="-4232.27" y1="2825.67" x2="-4228.13" y2="2825.67" xlink:href="#linear-gradient-2"/>
    <linearGradient id="linear-gradient-46" x1="-4212.6" y1="2801.93" x2="-4208.46" y2="2801.93" xlink:href="#linear-gradient-2"/>
    <linearGradient id="linear-gradient-47" x1="-4260.22" y1="2803.85" x2="-4254" y2="2803.85" xlink:href="#linear-gradient-2"/>
    <linearGradient id="linear-gradient-48" x1="-4269.29" y1="2812.14" x2="-4265.14" y2="2812.14" xlink:href="#linear-gradient-2"/>
    <linearGradient id="linear-gradient-49" x1="-4273.43" y1="2861.45" x2="-4269.29" y2="2861.45" xlink:href="#linear-gradient-2"/>
    <linearGradient id="linear-gradient-50" x1="-4267.21" y1="2845.32" x2="-4263.07" y2="2845.32" xlink:href="#linear-gradient-2"/>
    <linearGradient id="linear-gradient-51" x1="-4214.67" y1="2776.95" x2="-4210.53" y2="2776.95" xlink:href="#linear-gradient-2"/>
    <linearGradient id="linear-gradient-52" x1="-4212.6" y1="2759.42" x2="-4208.46" y2="2759.42" xlink:href="#linear-gradient-2"/>
    <linearGradient id="linear-gradient-53" x1="-4186" y1="2767.71" x2="-4181.85" y2="2767.71" xlink:href="#linear-gradient-2"/>
    <linearGradient id="linear-gradient-54" x1="-4157.68" y1="2768.29" x2="-4153.54" y2="2768.29" xlink:href="#linear-gradient-2"/>
    <linearGradient id="linear-gradient-55" x1="-4147.46" y1="2763.56" x2="-4141.24" y2="2763.56" xlink:href="#linear-gradient-2"/>
    <clipPath id="clippath">
      <rect x="-4.2" y="-1.76" width="964.7" height="599.24" fill="none" stroke-width="0"/>
    </clipPath>
    <clipPath id="clippath-1">
      <rect x="1393.68" y="582.84" width="522.07" height="497.16" fill="none" stroke-width="0"/>
    </clipPath>
  </defs>
  <g isolation="isolate">
    <g id="Layer_1" data-name="Layer 1">
      <g>
        <circle cx="1729.45" cy="207.51" r="132.5" fill="#1a1a1a" opacity=".33" stroke-width="0"/>
        <path d="m1842.61,365.78c-.25.2-.5.4-.76.58-3.28,2.35-7.2,3.29-10.97,2.89-4.07-.43-7.98-2.41-10.75-5.84l-36.78-45.43,24.85-20.12,36.78,45.43c5.35,6.61,4.56,16.2-1.64,21.86-.23.22-.47.42-.72.63Z" fill="#0d43a7" stroke-width="0"/>
        <path d="m1841.12,366.98c-3.43,2.78-7.66,3.9-11.73,3.47-4.07-.43-7.98-2.41-10.75-5.84l-36.78-45.43,1.49-1.21,36.78,45.43c2.78,3.43,6.68,5.41,10.75,5.84,3.77.4,7.68-.54,10.97-2.89-.23.22-.47.42-.72.63Z" fill="#0a3480" stroke-width="0"/>
        <path d="m1844.1,364.57c-.25.2-.5.4-.76.58,6.2-5.66,6.99-15.25,1.64-21.86l-36.78-45.43,1.49-1.21,36.78,45.43c5.55,6.86,4.5,16.93-2.37,22.48Z" fill="#0a3480" stroke-width="0"/>
        <path d="m1791.53,328.08l24.85-20.12,9.05,11.18s-4.23,6.89-11.05,12.47c-6.82,5.58-13.12,8.49-13.12,8.49l-9.73-12.02Z" fill="#0a3480" stroke-width="0"/>
        <circle cx="1721.18" cy="215.78" r="132.5" fill="#0d43a7" stroke-width="0"/>
        <circle cx="1721.18" cy="215.78" r="129.31" transform="translate(351.54 1280.26) rotate(-45)" fill="#255cc0" stroke-width="0"/>
        <circle cx="1721.18" cy="215.78" r="109.32" fill="#0d43a7" stroke-width="0"/>
        <g>
          <path d="m1805.84,273.76c-32.06,46.86-96.03,58.86-142.88,26.8-12.59-8.61-22.66-19.52-30.03-31.79-20.09-33.4-20.21-76.82,3.23-111.09,32.06-46.86,96.03-58.86,142.89-26.8,22.64,15.48,37.14,38.42,42.47,63.27,5.7,26.59.9,55.39-15.67,79.61Z" fill="url(#linear-gradient)" stroke-width="0"/>
          <path d="m1640.19,233.46c-.24,1.71-.31,3.42-.22,5.11.52,6.29,2.18,12.31,4.72,17.94.85,1.88,1.79,3.71,2.82,5.49,2.14,3.58,4.55,6.95,7.19,10.12,1.32,1.58,2.69,3.11,4.12,4.59,12.68,13.68,29.67,22.92,47.85,26.24,2.04.4,4.1.74,6.18.98,2.08.25,4.18.41,6.29.47,1.34.1,2.68.16,4.02.18,4.03.07,8.06-.21,12.07-.87,1.75-.31,3.5-.68,5.23-1.1,5.19-1.26,10.28-2.98,15.14-5.06,1.9-.9,3.78-1.88,5.62-2.92,5.52-3.12,10.76-6.74,15.59-10.75,1.43-1.19,2.83-2.41,4.2-3.66,4.28-4.08,8.34-8.57,11.96-13.38,1.21-1.61,2.36-3.25,3.46-4.92,12.72-17.68,16.93-41.91,4.69-60.89-.65-1.22-1.36-2.39-2.11-3.54-6.01-10.7-16.38-17.8-27.4-22.45-.98-.43-1.96-.84-2.95-1.22-5.95-2.26-12.37-3.21-19.06-2.3-.9.09-1.81.23-2.72.43-.91.19-1.82.44-2.73.75-11.54,3.86-16.59,15.07-22.67,24.63-3.72,5.84-8.13,11.43-13.97,15.16-5.84,3.73-13.31,5.39-19.83,3.04-8.21-2.95-13.87-11.65-22.51-12.84-1.54-.21-3.07-.15-4.56.13-1.49.29-2.94.8-4.32,1.49-9.29,5.09-13.87,15.27-15.69,25.56-.16,1.19-.29,2.38-.39,3.57Z" fill="url(#linear-gradient-2)" stroke-width="0"/>
          <path d="m1736.23,154.74c-1.94,2.83-5.81,3.56-8.64,1.62-2.83-1.94-3.56-5.81-1.62-8.64,1.94-2.83,5.81-3.56,8.64-1.62,2.83,1.94,3.56,5.81,1.62,8.64Z" fill="url(#linear-gradient-3)" stroke-width="0"/>
          <path d="m1678.43,151.73c-1.94,2.83-5.81,3.56-8.64,1.62-2.83-1.94-3.56-5.81-1.62-8.64,1.94-2.83,5.81-3.56,8.64-1.62,2.83,1.94,3.56,5.81,1.62,8.64Z" fill="url(#linear-gradient-4)" stroke-width="0"/>
          <path d="m1709.88,131.74c-1.29,1.89-3.87,2.37-5.76,1.08-1.89-1.29-2.37-3.87-1.08-5.76,1.29-1.89,3.87-2.37,5.76-1.08,1.89,1.29,2.37,3.87,1.08,5.76Z" fill="url(#linear-gradient-5)" stroke-width="0"/>
          <path d="m1765.85,137.63c-1.29,1.89-3.87,2.37-5.76,1.08-1.89-1.29-2.37-3.87-1.08-5.76,1.29-1.89,3.87-2.37,5.76-1.08,1.89,1.29,2.37,3.87,1.08,5.76Z" fill="url(#linear-gradient-6)" stroke-width="0"/>
          <path d="m1702.71,180.97c-1.62,2.36-4.84,2.97-7.2,1.35-2.36-1.62-2.97-4.84-1.35-7.2,1.62-2.36,4.84-2.97,7.2-1.35,2.36,1.62,2.97,4.84,1.35,7.2Z" fill="url(#linear-gradient-7)" stroke-width="0"/>
          <path d="m1684.71,185.27c-.97,1.42-2.9,1.78-4.32.81-1.42-.97-1.78-2.9-.81-4.32.97-1.42,2.9-1.78,4.32-.81,1.42.97,1.78,2.9.81,4.32Z" fill="url(#linear-gradient-8)" stroke-width="0"/>
          <path d="m1703.45,168.85c-.97,1.42-2.9,1.78-4.32.81-1.42-.97-1.78-2.9-.81-4.32.97-1.42,2.9-1.78,4.32-.81,1.42.97,1.78,2.9.81,4.32Z" fill="url(#linear-gradient-9)" stroke-width="0"/>
          <path d="m1747.06,155.92c-.97,1.42-2.9,1.78-4.32.81-1.42-.97-1.78-2.9-.81-4.32.97-1.42,2.9-1.78,4.32-.81,1.42.97,1.78,2.9.81,4.32Z" fill="url(#linear-gradient-10)" stroke-width="0"/>
          <path d="m1660.18,155.57c-.97,1.42-2.9,1.78-4.32.81-1.42-.97-1.78-2.9-.81-4.32.97-1.42,2.9-1.78,4.32-.81s1.78,2.9.81,4.32Z" fill="url(#linear-gradient-11)" stroke-width="0"/>
          <path d="m1725.37,129.47c-.97,1.42-2.9,1.78-4.32.81-1.42-.97-1.78-2.9-.81-4.32.97-1.42,2.9-1.78,4.32-.81,1.42.97,1.78,2.9.81,4.32Z" fill="url(#linear-gradient-12)" stroke-width="0"/>
          <path d="m1775.84,149.48c-.97,1.42-2.9,1.78-4.32.81-1.42-.97-1.78-2.9-.81-4.32.97-1.42,2.9-1.78,4.32-.81,1.42.97,1.78,2.9.81,4.32Z" fill="url(#linear-gradient-13)" stroke-width="0"/>
          <path d="m1643.88,188.57c-.97,1.42-2.9,1.78-4.32.81-1.42-.97-1.78-2.9-.81-4.32.97-1.42,2.9-1.78,4.32-.81,1.42.97,1.78,2.9.81,4.32Z" fill="url(#linear-gradient-14)" stroke-width="0"/>
          <path d="m1651.8,185.72c-.32.47-.97.59-1.44.27-.47-.32-.59-.97-.27-1.44.32-.47.97-.59,1.44-.27.47.32.59.97.27,1.44Z" fill="url(#linear-gradient-15)" stroke-width="0"/>
          <path d="m1634.57,198.52c-.32.47-.97.59-1.44.27-.47-.32-.59-.97-.27-1.44.32-.47.97-.59,1.44-.27.47.32.59.97.27,1.44Z" fill="url(#linear-gradient-16)" stroke-width="0"/>
          <path d="m1650.75,176.69c-.32.47-.97.59-1.44.27-.47-.32-.59-.97-.27-1.44.32-.47.97-.59,1.44-.27s.59.97.27,1.44Z" fill="url(#linear-gradient-17)" stroke-width="0"/>
          <path d="m1670.89,183.27c-.65.94-1.94,1.19-2.88.54s-1.19-1.94-.54-2.88,1.94-1.19,2.88-.54,1.19,1.94.54,2.88Z" fill="url(#linear-gradient-18)" stroke-width="0"/>
          <path d="m1668.14,161.01c-.32.47-.97.59-1.44.27-.47-.32-.59-.97-.27-1.44.32-.47.97-.59,1.44-.27.47.32.59.97.27,1.44Z" fill="url(#linear-gradient-19)" stroke-width="0"/>
          <path d="m1658.8,148.43c-.32.47-.97.59-1.44.27-.47-.32-.59-.97-.27-1.44.32-.47.97-.59,1.44-.27.47.32.59.97.27,1.44Z" fill="url(#linear-gradient-20)" stroke-width="0"/>
          <path d="m1644.7,165.36c-.32.47-.97.59-1.44.27-.47-.32-.59-.97-.27-1.44.32-.47.97-.59,1.44-.27.47.32.59.97.27,1.44Z" fill="url(#linear-gradient-21)" stroke-width="0"/>
          <path d="m1773.04,136.27c-.32.47-.97.59-1.44.27-.47-.32-.59-.97-.27-1.44.32-.47.97-.59,1.44-.27.47.32.59.97.27,1.44Z" fill="url(#linear-gradient-22)" stroke-width="0"/>
          <path d="m1751.89,131.84c-.32.47-.97.59-1.44.27-.47-.32-.59-.97-.27-1.44.32-.47.97-.59,1.44-.27.47.32.59.97.27,1.44Z" fill="url(#linear-gradient-23)" stroke-width="0"/>
          <path d="m1679.34,159.89c-.65.94-1.94,1.19-2.88.54-.94-.65-1.19-1.94-.54-2.88.65-.94,1.94-1.19,2.88-.54s1.19,1.94.54,2.88Z" fill="url(#linear-gradient-24)" stroke-width="0"/>
          <path d="m1694.33,163.87c-.32.47-.97.59-1.44.27s-.59-.97-.27-1.44c.32-.47.97-.59,1.44-.27.47.32.59.97.27,1.44Z" fill="url(#linear-gradient-25)" stroke-width="0"/>
          <path d="m1710.17,153.55c-.65.94-1.94,1.19-2.88.54-.94-.65-1.19-1.94-.54-2.88s1.94-1.19,2.88-.54c.94.65,1.19,1.94.54,2.88Z" fill="url(#linear-gradient-26)" stroke-width="0"/>
          <path d="m1698.72,127.87c-.32.47-.97.59-1.44.27-.47-.32-.59-.97-.27-1.44.32-.47.97-.59,1.44-.27.47.32.59.97.27,1.44Z" fill="url(#linear-gradient-27)" stroke-width="0"/>
          <path d="m1663.83,170.99c-.32.47-.97.59-1.44.27-.47-.32-.59-.97-.27-1.44.32-.47.97-.59,1.44-.27.47.32.59.97.27,1.44Z" fill="url(#linear-gradient-28)" stroke-width="0"/>
          <path d="m1676.12,175.63c-.32.47-.97.59-1.44.27-.47-.32-.59-.97-.27-1.44.32-.47.97-.59,1.44-.27.47.32.59.97.27,1.44Z" fill="url(#linear-gradient-29)" stroke-width="0"/>
          <path d="m1771.2,158.11c-.32.47-.97.59-1.44.27-.47-.32-.59-.97-.27-1.44.32-.47.97-.59,1.44-.27.47.32.59.97.27,1.44Z" fill="url(#linear-gradient-30)" stroke-width="0"/>
          <path d="m1744.87,145.77c-.32.47-.97.59-1.44.27-.47-.32-.59-.97-.27-1.44.32-.47.97-.59,1.44-.27.47.32.59.97.27,1.44Z" fill="url(#linear-gradient-31)" stroke-width="0"/>
          <path d="m1742.05,136.29c-.32.47-.97.59-1.44.27-.47-.32-.59-.97-.27-1.44.32-.47.97-.59,1.44-.27.47.32.59.97.27,1.44Z" fill="url(#linear-gradient-32)" stroke-width="0"/>
          <path d="m1781.08,146.79c-.32.47-.97.59-1.44.27-.47-.32-.59-.97-.27-1.44.32-.47.97-.59,1.44-.27.47.32.59.97.27,1.44Z" fill="url(#linear-gradient-33)" stroke-width="0"/>
          <path d="m1752.8,151.2c-.32.47-.97.59-1.44.27-.47-.32-.59-.97-.27-1.44.32-.47.97-.59,1.44-.27.47.32.59.97.27,1.44Z" fill="url(#linear-gradient-34)" stroke-width="0"/>
          <path d="m1732.95,123.9c-.32.47-.97.59-1.44.27-.47-.32-.59-.97-.27-1.44.32-.47.97-.59,1.44-.27.47.32.59.97.27,1.44Z" fill="url(#linear-gradient-35)" stroke-width="0"/>
          <path d="m1789.48,155.04c-.32.47-.97.59-1.44.27-.47-.32-.59-.97-.27-1.44.32-.47.97-.59,1.44-.27.47.32.59.97.27,1.44Z" fill="url(#linear-gradient-36)" stroke-width="0"/>
          <path d="m1686.67,147.33c-.32.47-.97.59-1.44.27-.47-.32-.59-.97-.27-1.44.32-.47.97-.59,1.44-.27.47.32.59.97.27,1.44Z" fill="url(#linear-gradient-37)" stroke-width="0"/>
          <path d="m1689.71,137.08c-.32.47-.97.59-1.44.27-.47-.32-.59-.97-.27-1.44.32-.47.97-.59,1.44-.27.47.32.59.97.27,1.44Z" fill="url(#linear-gradient-38)" stroke-width="0"/>
          <path d="m1703.04,147.46c-.32.47-.97.59-1.44.27-.47-.32-.59-.97-.27-1.44.32-.47.97-.59,1.44-.27.47.32.59.97.27,1.44Z" fill="url(#linear-gradient-39)" stroke-width="0"/>
          <path d="m1722.8,140.58c-.32.47-.97.59-1.44.27-.47-.32-.59-.97-.27-1.44.32-.47.97-.59,1.44-.27.47.32.59.97.27,1.44Z" fill="url(#linear-gradient-40)" stroke-width="0"/>
          <path d="m1715.89,122.98c-.32.47-.97.59-1.44.27-.47-.32-.59-.97-.27-1.44.32-.47.97-.59,1.44-.27s.59.97.27,1.44Z" fill="url(#linear-gradient-41)" stroke-width="0"/>
          <path d="m1720.39,151.43c-.32.47-.97.59-1.44.27-.47-.32-.59-.97-.27-1.44.32-.47.97-.59,1.44-.27.47.32.59.97.27,1.44Z" fill="url(#linear-gradient-42)" stroke-width="0"/>
          <path d="m1697.64,142.46c-.65.94-1.94,1.19-2.88.54s-1.19-1.94-.54-2.88,1.94-1.19,2.88-.54c.94.65,1.19,1.94.54,2.88Z" fill="url(#linear-gradient-43)" stroke-width="0"/>
          <path d="m1712.77,138.74c-.65.94-1.94,1.19-2.88.54-.94-.65-1.19-1.94-.54-2.88s1.94-1.19,2.88-.54c.94.65,1.19,1.94.54,2.88Z" fill="url(#linear-gradient-44)" stroke-width="0"/>
          <path d="m1693.35,170.8c-.65.94-1.94,1.19-2.88.54-.94-.65-1.19-1.94-.54-2.88s1.94-1.19,2.88-.54c.94.65,1.19,1.94.54,2.88Z" fill="url(#linear-gradient-45)" stroke-width="0"/>
          <path d="m1722.99,162.31c-.65.94-1.94,1.19-2.88.54-.94-.65-1.19-1.94-.54-2.88s1.94-1.19,2.88-.54,1.19,1.94.54,2.88Z" fill="url(#linear-gradient-46)" stroke-width="0"/>
          <path d="m1684.31,138.19c-.97,1.42-2.9,1.78-4.32.81s-1.78-2.9-.81-4.32c.97-1.42,2.9-1.78,4.32-.81,1.42.97,1.78,2.9.81,4.32Z" fill="url(#linear-gradient-47)" stroke-width="0"/>
          <path d="m1670.44,138.74c-.65.94-1.94,1.19-2.88.54s-1.19-1.94-.54-2.88c.65-.94,1.94-1.19,2.88-.54.94.65,1.19,1.94.54,2.88Z" fill="url(#linear-gradient-48)" stroke-width="0"/>
          <path d="m1639.18,177.09c-.65.94-1.94,1.19-2.88.54-.94-.65-1.19-1.94-.54-2.88.65-.94,1.94-1.19,2.88-.54s1.19,1.94.54,2.88Z" fill="url(#linear-gradient-49)" stroke-width="0"/>
          <path d="m1653.42,167.29c-.65.94-1.94,1.19-2.88.54s-1.19-1.94-.54-2.88,1.94-1.19,2.88-.54c.94.65,1.19,1.94.54,2.88Z" fill="url(#linear-gradient-50)" stroke-width="0"/>
          <path d="m1735.38,140.53c-.65.94-1.94,1.19-2.88.54s-1.19-1.94-.54-2.88c.65-.94,1.94-1.19,2.88-.54s1.19,1.94.54,2.88Z" fill="url(#linear-gradient-51)" stroke-width="0"/>
          <path d="m1746.99,127.23c-.65.94-1.94,1.19-2.88.54s-1.19-1.94-.54-2.88c.65-.94,1.94-1.19,2.88-.54s1.19,1.94.54,2.88Z" fill="url(#linear-gradient-52)" stroke-width="0"/>
          <path d="m1764.26,149.09c-.65.94-1.94,1.19-2.88.54-.94-.65-1.19-1.94-.54-2.88s1.94-1.19,2.88-.54c.94.65,1.19,1.94.54,2.88Z" fill="url(#linear-gradient-53)" stroke-width="0"/>
          <path d="m1787.3,165.56c-.65.94-1.94,1.19-2.88.54s-1.19-1.94-.54-2.88c.65-.94,1.94-1.19,2.88-.54.94.65,1.19,1.94.54,2.88Z" fill="url(#linear-gradient-54)" stroke-width="0"/>
          <path d="m1800.12,168.6c-.97,1.42-2.9,1.78-4.32.81-1.42-.97-1.78-2.9-.81-4.32s2.9-1.78,4.32-.81,1.78,2.9.81,4.32Z" fill="url(#linear-gradient-55)" stroke-width="0"/>
        </g>
        <path d="m1826.58,244.93c-4.18-29.28-20.16-56.77-46.5-74.79-49.83-34.09-117.87-21.33-151.96,28.5-7.01,10.24-12.03,21.25-15.17,32.58-3.74-26.13,1.92-53.67,18-77.17,34.09-49.83,102.12-62.59,151.96-28.5,39.59,27.09,55.78,75.6,43.67,119.38Z" fill="#603d28" mix-blend-mode="multiply" opacity=".15" stroke-width="0"/>
      </g>
      <g>
        <path d="m155.88,765.51c.09.74.21,1.49.36,2.23l4.09,19.99h0c-.68.16-1.12.83-.98,1.52l2.01,9.86c.14.68.81,1.13,1.49,1.01h0s1.57,7.69,1.57,7.69h0c-.67.23-1.1.93-.95,1.65l2.62,12.8c.15.71.81,1.19,1.52,1.14h0s.61,2.99.61,2.99h0c-.67.23-1.1.93-.95,1.65l2.62,12.8c.15.72.81,1.19,1.52,1.14h0s36.08,176.59,36.08,176.59c2.96,14.46,17.08,23.79,31.54,20.84l99.74-20.38c14.46-2.95,23.79-17.08,20.83-31.54l-2.2-10.78-37.27-182.39c.61-.83.89-1.91.67-2.99l-4.67-22.88c-.22-1.09-.9-1.97-1.79-2.49l-5.98-29.29c-2.95-14.46-17.08-23.79-31.54-20.83l-99.74,20.38c-13.72,2.8-22.82,15.65-21.2,29.3Z" fill="#1a1a1a" opacity=".33" stroke-width="0"/>
        <g>
          <path d="m281.31,713.44c14.82-2.96,29.22,6.56,32.16,21.26l51.06,255.53c2.94,14.7-6.7,29.02-21.52,31.98l-95.94,19.17c-14.82,2.96-29.22-6.56-32.16-21.26l-51.06-255.53c-2.94-14.7,6.7-29.02,21.52-31.98l95.94-19.17m-.24-1.2l-95.94,19.17c-15.46,3.09-25.55,18.08-22.48,33.42l51.06,255.53c3.06,15.34,18.14,25.3,33.6,22.21l95.94-19.17c15.46-3.09,25.55-18.08,22.48-33.42l-51.06-255.53c-3.06-15.34-18.14-25.3-33.6-22.21h0Z" fill="#94a3b8" stroke-width="0"/>
          <path d="m281.32,713.43l-95.96,19.18c-14.82,2.96-24.46,17.28-21.52,31.99l51.06,255.55c2.94,14.7,17.34,24.22,32.16,21.26l95.96-19.18c14.82-2.96,24.46-17.28,21.52-31.99l-51.06-255.55c-2.94-14.7-17.34-24.22-32.16-21.26Zm78.4,277.77c2.41,12.04-5.51,23.81-17.65,26.23l-95.96,19.18c-12.14,2.43-23.97-5.4-26.38-17.43l-51.06-255.55c-2.41-12.04,5.51-23.81,17.65-26.23l95.96-19.18c12.14-2.43,23.97,5.4,26.38,17.43l51.06,255.55Z" fill="#020617" stroke-width="0"/>
          <path d="m281.32,713.43l-95.96,19.18c-14.82,2.96-24.46,17.28-21.52,31.99l51.06,255.55c2.94,14.7,17.34,24.22,32.16,21.26l95.96-19.18c14.82-2.96,24.46-17.28,21.52-31.99l-51.06-255.55c-2.94-14.7-17.34-24.22-32.16-21.26Z" fill="#020617" stroke-width="0"/>
          <path d="m359.72,991.2c2.41,12.04-5.51,23.81-17.65,26.23l-95.96,19.18c-12.14,2.43-23.97-5.4-26.38-17.43l-51.06-255.55c-2.41-12.04,5.51-23.81,17.65-26.23l95.96-19.18c12.14-2.43,23.97,5.4,26.38,17.43l51.06,255.55Z" fill="#020617" stroke-width="0"/>
          <path d="m359.72,991.2c2.41,12.04-5.51,23.81-17.65,26.23l-95.96,19.18c-12.14,2.43-23.97-5.4-26.38-17.43l-51.06-255.55c-2.41-12.04,5.51-23.81,17.65-26.23l95.96-19.18c12.14-2.43,23.97,5.4,26.38,17.43l51.06,255.55Z" fill="#fff" mix-blend-mode="lighten" opacity=".07" stroke-width="0"/>
          <path d="m169.48,793.79h.65v16.96h-.65c-.31,0-.57-.25-.57-.57v-15.82c0-.31.25-.57.57-.57Z" transform="translate(-153.92 48.77) rotate(-11.3)" fill="#64748b" stroke-width="0"/>
          <path d="m175.43,818.46h.59v26.65h-.59c-.34,0-.62-.28-.62-.62v-25.41c0-.34.28-.62.62-.62Z" transform="translate(-159.59 50.5) rotate(-11.3)" fill="#64748b" stroke-width="0"/>
          <path d="m181.58,849.25h.59v26.65h-.59c-.34,0-.62-.28-.62-.62v-25.41c0-.34.28-.62.62-.62Z" transform="translate(-165.5 52.3) rotate(-11.3)" fill="#64748b" stroke-width="0"/>
          <rect x="212.69" y="731.09" width="46.32" height="15.13" rx="7.56" ry="7.56" transform="translate(-140.17 60.53) rotate(-11.3)" fill="#020617" stroke-width="0"/>
          <path d="m250.6,733.86c.98-.2,1.94.44,2.14,1.43s-.44,1.94-1.43,2.14-1.94-.44-2.14-1.43.44-1.94,1.43-2.14m-.59-2.97c-2.62.52-4.33,3.08-3.8,5.7.52,2.62,3.08,4.33,5.7,3.8s4.33-3.08,3.8-5.7c-.52-2.62-3.08-4.33-5.7-3.8h0Z" fill="#1e293b" stroke-width="0"/>
          <path d="m281.07,712.24l-67.36,308.13c3.06,15.34,18.14,25.3,33.6,22.21l95.94-19.17c15.46-3.09,25.55-18.08,22.48-33.42l-51.06-255.53c-3.06-15.34-18.14-25.3-33.6-22.21h0Z" fill="#fff" mix-blend-mode="screen" opacity=".06" stroke-width="0"/>
        </g>
      </g>
      <g clip-path="url(#clippath)">
        <g>
          <path d="m645.06-399.23L910.84,134.08c6.15,12.34,2.26,26.76-8.69,32.22L52.86,589.55c-10.95,5.46-24.81-.12-30.96-12.46L-243.88,43.78c-6.15-12.34-2.26-26.76,8.69-32.22l849.29-423.25c10.95-5.46,24.81.12,30.96,12.46Z" fill="#020617" mix-blend-mode="hard-light" opacity=".33" stroke-width="0"/>
          <path d="m645.11-404.99L910.9,128.32c6.15,12.34,2.44,26.67-8.29,32.02L70.62,574.98c-10.73,5.35-24.41-.32-30.56-12.66L-225.72,29.01c-6.15-12.34-2.44-26.67,8.29-32.02l831.99-414.63c10.73-5.35,24.41.32,30.56,12.66Z" fill="#cbd5e1" stroke-width="0"/>
          <path d="m558.98,331.59l-144.74,72.13c-.04-2.48.34-4.93,1.11-7.25,1.75-5.22,5.49-9.77,10.8-12.41l109.95-54.8c7.68-3.83,16.54-2.64,22.87,2.33Z" fill="#94a3b8" stroke-width="0"/>
          <path d="m620.96,271.88l-291.7,145.37c-11.22,5.59-24.84,1.03-30.43-10.19l-87.2-174.97c-5.59-11.22-1.03-24.84,10.19-30.43L513.51,56.29c11.22-5.59,24.84-1.03,30.43,10.19l87.2,174.97c5.59,11.22,1.03,24.84-10.19,30.43Z" fill="#e2e8f0" stroke-width="0"/>
          <g>
            <path d="m564.15-289.05L-72.74,28.35c-4.49,2.24-9.94.41-12.17-4.08l-6.47-12.98c-2.24-4.49-.41-9.94,4.08-12.17l636.89-317.41c4.49-2.24,9.94-.41,12.17,4.08l6.47,12.98c2.24,4.49.41,9.94-4.08,12.17Z" fill="#1e293b" stroke-width="0"/>
            <rect x="-17.48" y="2.59" width="44.69" height="44.69" rx="9.08" ry="9.08" transform="translate(-10.61 4.79) rotate(-26.49)" fill="#1e293b" stroke-width="0"/>
            <rect x="34.18" y="-23.15" width="44.69" height="44.69" rx="9.08" ry="9.08" transform="translate(6.29 25.13) rotate(-26.49)" fill="#1e293b" stroke-width="0"/>
            <rect x="85.83" y="-48.9" width="44.69" height="44.69" rx="9.08" ry="9.08" transform="translate(23.2 45.46) rotate(-26.49)" fill="#1e293b" stroke-width="0"/>
            <rect x="-24.63" y="247.04" width="44.69" height="44.69" rx="9.08" ry="9.08" transform="translate(-120.4 27.26) rotate(-26.49)" fill="#1e293b" stroke-width="0"/>
            <rect x="27.03" y="221.3" width="44.69" height="44.69" rx="9.08" ry="9.08" transform="translate(-103.49 47.6) rotate(-26.49)" fill="#1e293b" stroke-width="0"/>
            <rect x="78.68" y="195.55" width="44.69" height="44.69" rx="9.08" ry="9.08" transform="translate(-86.58 67.94) rotate(-26.49)" fill="#1e293b" stroke-width="0"/>
            <rect x="129.56" y="166.51" width="59.5" height="44.69" rx="9.08" ry="9.08" transform="translate(-67.51 90.89) rotate(-26.49)" fill="#1e293b" stroke-width="0"/>
            <rect x="525.61" y="-27.18" width="44.69" height="44.69" rx="9.08" ry="9.08" transform="translate(1036.22 -253.57) rotate(153.51)" fill="#1e293b" stroke-width="0"/>
            <rect x="459.92" y="1.87" width="59.5" height="44.69" rx="9.08" ry="9.08" transform="translate(938.72 -172.53) rotate(153.51)" fill="#1e293b" stroke-width="0"/>
            <path d="m453.48,67.21l-238.17,118.69c-4.49,2.24-9.94.41-12.17-4.08l-11.84-23.75c-2.24-4.49-.41-9.94,4.08-12.17L433.54,27.22c4.49-2.24,9.94-.41,12.17,4.08l11.84,23.75c2.24,4.49.41,9.94-4.08,12.17Z" fill="#1e293b" stroke-width="0"/>
            <rect x="194.79" y="-42.97" width="44.69" height="44.69" rx="9.08" ry="9.08" transform="translate(402.26 -135.94) rotate(153.51)" fill="#1e293b" stroke-width="0"/>
            <rect x="143.13" y="-17.23" width="44.69" height="44.69" rx="9.08" ry="9.08" transform="translate(315.85 -64.11) rotate(153.51)" fill="#1e293b" stroke-width="0"/>
            <rect x="91.47" y="8.52" width="44.69" height="44.69" rx="9.08" ry="9.08" transform="translate(229.44 7.71) rotate(153.51)" fill="#1e293b" stroke-width="0"/>
            <rect x="39.81" y="34.26" width="44.69" height="44.69" rx="9.08" ry="9.08" transform="translate(143.04 79.54) rotate(153.51)" fill="#1e293b" stroke-width="0"/>
            <rect x="75.16" y="76.87" width="44.69" height="44.69" rx="9.08" ry="9.08" transform="translate(229.02 144.51) rotate(153.51)" fill="#1e293b" stroke-width="0"/>
            <rect x="126.46" y="51.3" width="44.69" height="44.69" rx="9.08" ry="9.08" transform="translate(314.83 73.18) rotate(153.51)" fill="#1e293b" stroke-width="0"/>
            <rect x="177.76" y="25.73" width="44.69" height="44.69" rx="9.08" ry="9.08" transform="translate(400.64 1.85) rotate(153.51)" fill="#1e293b" stroke-width="0"/>
            <rect x="229.06" y=".17" width="44.69" height="44.69" rx="9.08" ry="9.08" transform="translate(486.45 -69.47) rotate(153.51)" fill="#1e293b" stroke-width="0"/>
            <rect x="280.36" y="-25.4" width="44.69" height="44.69" rx="9.08" ry="9.08" transform="translate(572.26 -140.8) rotate(153.51)" fill="#1e293b" stroke-width="0"/>
            <rect x="23.5" y="102.61" width="44.69" height="44.69" rx="9.08" ry="9.08" transform="translate(142.61 216.34) rotate(153.51)" fill="#1e293b" stroke-width="0"/>
            <rect x="-11.84" y="60" width="44.69" height="44.69" rx="9.08" ry="9.08" transform="translate(56.63 151.37) rotate(153.51)" fill="#1e293b" stroke-width="0"/>
            <rect x="-75.35" y="139.37" width="94.87" height="44.69" rx="9.08" ry="9.08" transform="translate(19.24 318.9) rotate(153.51)" fill="#1e293b" stroke-width="0"/>
            <rect x="75.62" y="136.86" width="44.69" height="44.69" rx="9.08" ry="9.08" transform="translate(256.66 257.99) rotate(153.51)" fill="#1e293b" stroke-width="0"/>
            <rect x="126.92" y="111.29" width="44.69" height="44.69" rx="9.08" ry="9.08" transform="translate(342.47 186.66) rotate(153.51)" fill="#1e293b" stroke-width="0"/>
            <rect x="178.23" y="85.72" width="44.69" height="44.69" rx="9.08" ry="9.08" transform="translate(428.3 115.32) rotate(153.51)" fill="#1e293b" stroke-width="0"/>
            <rect x="229.54" y="60.15" width="44.69" height="44.69" rx="9.08" ry="9.08" transform="translate(514.12 43.97) rotate(153.51)" fill="#1e293b" stroke-width="0"/>
            <rect x="280.85" y="34.58" width="44.69" height="44.69" rx="9.08" ry="9.08" transform="translate(599.95 -27.37) rotate(153.51)" fill="#1e293b" stroke-width="0"/>
            <rect x="332.16" y="9.01" width="44.69" height="44.69" rx="9.08" ry="9.08" transform="translate(685.77 -98.71) rotate(153.51)" fill="#1e293b" stroke-width="0"/>
            <rect x="383.47" y="-16.56" width="44.69" height="44.69" rx="9.08" ry="9.08" transform="translate(771.6 -170.05) rotate(153.51)" fill="#1e293b" stroke-width="0"/>
            <rect x="434.78" y="-42.13" width="44.69" height="44.69" rx="9.08" ry="9.08" transform="translate(857.42 -241.4) rotate(153.51)" fill="#1e293b" stroke-width="0"/>
            <rect x="-52.95" y="180.65" width="126.09" height="44.69" rx="9.08" ry="9.08" transform="translate(-89.48 25.82) rotate(-26.49)" fill="#1e293b" stroke-width="0"/>
          </g>
          <path d="m677.75-449.14L-280.63,28.48c-4.54,2.26-10.06.42-12.32-4.12h0c-2.26-4.54-.42-10.06,4.12-12.32l958.38-477.62c4.54-2.26,10.06-.42,12.32,4.12h0c2.26,4.54.42,10.06-4.12,12.32Z" fill="#f1f1f2" stroke-width="0"/>
        </g>
        <polygon points="783.11 105.07 732.5 6.34 632.26 57.72 629.52 59.13 626.19 60.83 619.66 64.18 615.68 66.22 612.94 67.62 582.97 82.98 659.61 232.52 780.58 170.51 809.15 155.87 783.11 105.07" fill="#ffc800" stroke-width="0"/>
        <g>
          <path d="m645.03,134.55c-1.29.65-2.67,1-4.13,1.03-1.46.03-2.91-.22-4.33-.76-1.43-.54-2.75-1.35-3.97-2.43-1.22-1.08-2.23-2.42-3.03-4.02-.81-1.6-1.33-3.3-1.57-5.12-.24-1.82-.18-3.6.17-5.33.36-1.73,1.02-3.31,1.98-4.74.96-1.43,2.23-2.54,3.81-3.33.59-.3,1.21-.54,1.85-.72.64-.18,1.31-.31,2.02-.39.36-.05.66,0,.92.13.25.14.44.36.56.66.13.27.19.55.16.85-.03.3-.13.56-.3.79-.17.23-.41.36-.73.39-.28.01-.67.07-1.18.17-.51.11-1.17.36-1.97.76-1.17.59-2.1,1.42-2.81,2.48-.71,1.07-1.17,2.26-1.4,3.6-.22,1.34-.22,2.72,0,4.16.23,1.44.69,2.85,1.38,4.22.66,1.31,1.47,2.38,2.42,3.21.95.83,1.96,1.44,3.02,1.82,1.07.39,2.12.56,3.14.53,1.03-.03,1.95-.25,2.77-.67,1.15-.58,2.06-1.45,2.74-2.62.68-1.17,1.13-2.5,1.36-3.98.22-1.49.22-3.01-.02-4.58-.24-1.56-.7-3.02-1.38-4.37-.61-1.26-1.33-2.27-2.15-3.02-.82-.75-1.88-1.39-3.17-1.92-.24-.11-.44-.24-.6-.39-.16-.15-.3-.32-.4-.53-.17-.33-.19-.67-.08-1.04.11-.37.36-.65.75-.84.33-.17.75-.22,1.25-.15.51.06,1.11.3,1.81.72.78.43,1.5.94,2.17,1.54.67.6,1.28,1.26,1.83,1.98.56.72,1.05,1.5,1.47,2.34.75,1.47,1.26,2.99,1.55,4.55.29,1.56.36,3.11.22,4.63-.14,1.52-.47,2.96-.98,4.31-.51,1.35-1.2,2.55-2.08,3.59-.87,1.05-1.9,1.87-3.09,2.47Z" stroke-width="0"/>
          <path d="m654.36,109.78c-.09-.34-.06-.65.1-.94.16-.29.41-.51.73-.68.35-.18.72-.23,1.11-.17.39.06.7.33.94.8.11.23.23.54.36.94s.27.87.44,1.4c.18-1.37.57-2.52,1.17-3.44.6-.92,1.38-1.62,2.34-2.11.92-.47,1.84-.68,2.76-.64.92.04,1.8.27,2.63.71.84.44,1.6,1.02,2.29,1.75.69.73,1.26,1.55,1.72,2.45.55,1.08.91,2.24,1.07,3.45.16,1.21.13,2.4-.11,3.55-.24,1.15-.69,2.2-1.36,3.14-.67.94-1.54,1.69-2.63,2.24-.45.23-1,.42-1.64.58-.64.16-1.25.23-1.82.21-.42-.02-.79-.11-1.12-.26-.32-.16-.56-.38-.7-.67-.19-.37-.23-.73-.12-1.08.11-.35.32-.61.65-.77.16-.08.36-.13.58-.16.22-.02.46-.03.72-.03.33-.01.69-.03,1.08-.07.4-.03.79-.15,1.18-.34.61-.31,1.11-.77,1.48-1.38.37-.61.61-1.31.73-2.1.11-.79.1-1.6-.03-2.43-.14-.83-.4-1.62-.78-2.38-.8-1.58-1.66-2.6-2.59-3.06-.93-.47-1.89-.45-2.87.04-1,.51-1.67,1.28-2.01,2.31-.34,1.03-.47,2.2-.38,3.51.08,1.31.26,2.65.52,4.04.42,1.18.91,2.39,1.47,3.63.56,1.24,1.15,2.44,1.76,3.6.61,1.16,1.19,2.2,1.74,3.13.25.39.49.86.73,1.4.24.55.42,1.1.53,1.66.12.56.12,1.07.02,1.53-.1.46-.37.8-.8,1.02-.51.26-.99.21-1.44-.14-.45-.35-.86-.83-1.23-1.44s-.69-1.17-.95-1.68c-.69-1.37-1.29-2.6-1.79-3.68-.5-1.08-.95-2.19-1.35-3.31-.4-1.12-.79-2.39-1.18-3.82-.46-1.05-.92-2.17-1.4-3.34-.48-1.17-.94-2.35-1.39-3.54s-.84-2.31-1.17-3.38Z" stroke-width="0"/>
          <path d="m677.65,110.48l-1.9-1.78c2.05-1.42,3.58-2.71,4.58-3.86,1-1.15,1.61-2.15,1.84-2.99.23-.85.21-1.53-.05-2.04-.29-.57-.7-.91-1.23-1.02-.53-.1-1.08-.01-1.65.28-.51.26-.99.66-1.45,1.22-.45.55-.8,1.21-1.04,1.97-.24.76-.33,1.61-.27,2.52.07.92.36,1.89.88,2.91.69,1.37,1.51,2.39,2.44,3.07.93.67,1.88,1.05,2.86,1.12.98.07,1.87-.1,2.69-.51.65-.33,1.22-.77,1.69-1.32.47-.55.82-1.2,1.05-1.96.1-.36.22-.7.37-1.02.15-.32.36-.55.65-.7.25-.12.48-.18.71-.17.23.01.43.09.61.21.18.13.33.3.44.53.1.21.17.4.2.59.03.19.02.4-.04.64-.18.86-.49,1.67-.92,2.41s-.95,1.4-1.55,1.96c-.6.56-1.26,1.02-1.98,1.39-.98.5-2.02.79-3.12.88-1.1.09-2.19-.04-3.29-.4-1.09-.36-2.13-.97-3.1-1.83-.97-.86-1.81-1.98-2.52-3.37-.73-1.45-1.13-2.84-1.18-4.16-.05-1.32.13-2.54.55-3.67.42-1.13,1.01-2.1,1.77-2.94.76-.83,1.6-1.48,2.52-1.95.86-.43,1.72-.68,2.6-.74.87-.05,1.67.12,2.4.52.73.4,1.33,1.06,1.79,1.98.32.63.48,1.39.46,2.25-.01.87-.27,1.82-.79,2.87s-1.34,2.16-2.47,3.35c-1.13,1.19-2.66,2.44-4.57,3.74Z" stroke-width="0"/>
          <path d="m689.26,92.5c-.2-.34-.23-.71-.1-1.11.13-.4.41-.71.84-.93.33-.17.65-.21.96-.12.31.09.65.35,1.02.8.37.45.79,1.12,1.28,2.03.06-1.31.34-2.5.85-3.55s1.27-1.84,2.3-2.36c1.1-.56,2.26-.75,3.45-.57,1.2.18,2.34.71,3.43,1.6,1.09.89,2.04,2.12,2.83,3.69.45.88.87,1.79,1.26,2.72.39.93.79,1.86,1.2,2.79.4.93.82,1.85,1.26,2.76.2.39.21.77.04,1.15-.17.38-.47.68-.9.9-.41.21-.8.25-1.16.14-.36-.11-.65-.36-.84-.75-.28-.55-.55-1.14-.81-1.75-.26-.61-.53-1.25-.81-1.91-.28-.65-.56-1.32-.85-2-.29-.67-.61-1.36-.96-2.06-.59-1.17-1.22-2.1-1.9-2.8-.68-.7-1.36-1.15-2.07-1.34-.7-.2-1.41-.11-2.13.25-.55.28-.98.74-1.29,1.38-.31.64-.5,1.38-.57,2.22-.08.84-.07,1.69.03,2.57.1.88.26,1.68.5,2.41.47,1.43.86,2.64,1.17,3.61.31.97.57,1.77.78,2.38.21.61.38,1.13.51,1.55.11.33.1.63-.04.91-.14.28-.39.5-.73.68-.37.19-.7.28-.99.29-.29,0-.54-.07-.74-.24-.2-.17-.35-.4-.44-.68-.42-1.33-.86-2.63-1.32-3.9-.46-1.27-.95-2.5-1.46-3.69-.51-1.19-1.03-2.31-1.56-3.35-.32-.63-.6-1.17-.83-1.6-.23-.44-.44-.82-.63-1.17-.19-.34-.38-.66-.57-.94Z" stroke-width="0"/>
          <path d="m718.82,79.75c-.38.22-.74.25-1.08.11-.34-.15-.61-.4-.8-.77-.18-.35-.22-.7-.13-1.05.09-.35.33-.64.7-.86.51-.31,1.05-.63,1.62-.95.57-.33,1.17-.65,1.79-.99.63-.33,1.31-.69,2.04-1.07.73-.38,1.52-.79,2.36-1.21.35-.18.71-.2,1.08-.08.37.12.66.37.88.75.19.37.21.74.06,1.11-.15.37-.38.64-.71.8-.86.44-1.59.81-2.2,1.13-.61.32-1.19.63-1.73.92-.55.29-1.12.6-1.72.95-.6.34-1.32.75-2.16,1.23Zm-1.53-6.98c-.17-.43-.17-.81-.02-1.15.15-.33.41-.59.78-.78.25-.12.51-.2.79-.23.28-.03.54.02.78.13.24.11.41.32.51.63.5,1.39,1,2.72,1.5,3.99s1.02,2.51,1.56,3.72c.54,1.22,1.13,2.46,1.77,3.73.81,1.55,1.5,2.75,2.09,3.63.58.87,1.06,1.47,1.43,1.8.37.33.62.46.74.4.18-.09.36-.33.53-.71.17-.38.31-.79.44-1.22.13-.44.21-.76.27-.96.05-.21.14-.37.27-.5.13-.13.26-.23.41-.3.25-.12.5-.18.77-.16.27.02.51.1.74.24.23.14.4.34.53.58.07.14.11.32.13.51.01.2-.01.44-.07.73-.14.74-.36,1.41-.65,2.03-.29.61-.63,1.13-1.01,1.55s-.79.75-1.24.97c-.8.4-1.63.46-2.48.16-.86-.3-1.72-1.01-2.57-2.15-.6-.83-1.16-1.68-1.7-2.55-.53-.87-1.03-1.77-1.5-2.69-.63-1.25-1.21-2.46-1.72-3.64-.52-1.18-1.02-2.39-1.5-3.65-.48-1.26-.99-2.63-1.53-4.1Z" stroke-width="0"/>
          <path d="m736.1,67.11c.47-.24.96-.43,1.48-.58.52-.15,1.02-.23,1.52-.27.5-.03.96.01,1.38.13,1.32.28,2.51.91,3.56,1.9,1.05.99,1.91,2.14,2.59,3.47.57,1.12.98,2.29,1.22,3.49.25,1.2.31,2.36.19,3.49-.12,1.13-.46,2.14-1,3.05-.54.9-1.33,1.62-2.35,2.13-1.04.53-2.12.79-3.24.79-1.12,0-2.21-.22-3.28-.66-1.07-.44-2.04-1.07-2.92-1.89-.88-.83-1.61-1.8-2.18-2.93-.54-1.06-.9-2.18-1.09-3.34-.19-1.16-.18-2.31.04-3.43s.66-2.15,1.33-3.08,1.59-1.69,2.76-2.28Zm-.32,10.5c.52,1.02,1.18,1.9,1.99,2.64.81.73,1.69,1.21,2.64,1.44.95.23,1.9.1,2.84-.38.65-.33,1.13-.79,1.42-1.39.29-.6.44-1.27.44-2.03,0-.76-.11-1.53-.33-2.32-.22-.79-.51-1.53-.86-2.23-.63-1.25-1.37-2.21-2.21-2.87-.84-.67-1.72-1.07-2.63-1.2-.31.05-.6.13-.87.23-.27.1-.54.21-.81.35-.7.35-1.24.82-1.65,1.39-.4.58-.66,1.22-.78,1.93-.12.71-.1,1.45.03,2.2s.39,1.5.76,2.24Z" stroke-width="0"/>
          <path d="m669.02,168.94c-.31.15-.61.21-.91.17-.3-.04-.59-.2-.86-.47-.75-.78-1.52-1.55-2.32-2.33-.79-.78-1.59-1.55-2.4-2.31-.81-.76-1.62-1.53-2.43-2.32-.81-.79-1.59-1.58-2.36-2.37.17,2.41.32,4.46.47,6.14.15,1.69.28,3.11.4,4.27.12,1.16.24,2.17.35,3.04.02.25,0,.48-.07.69-.07.22-.18.4-.34.56-.15.15-.32.28-.51.37-.31.16-.64.22-.98.19-.35-.03-.63-.2-.83-.5-1.08-1.53-2.26-2.97-3.54-4.32-1.27-1.35-2.56-2.68-3.86-4.01-1.3-1.32-2.52-2.68-3.67-4.08-.1-.15-.19-.27-.26-.35-.07-.08-.14-.19-.21-.34-.14-.29-.12-.61.06-.98.19-.36.48-.65.87-.84.29-.14.59-.2.9-.16.31.03.59.18.83.45.66.8,1.33,1.58,2.01,2.34.68.76,1.37,1.52,2.06,2.28.69.75,1.4,1.53,2.12,2.32.72.79,1.45,1.62,2.2,2.47-.13-1.53-.26-3-.38-4.41s-.24-2.81-.34-4.18c-.1-1.37-.21-2.73-.32-4.06-.12-.3-.17-.59-.15-.87.02-.28.12-.54.3-.79.17-.24.41-.44.72-.6.27-.13.55-.19.86-.17.31.02.59.19.85.5.44.47.87.95,1.27,1.44.4.49.82.97,1.27,1.44.5.52.99,1.04,1.48,1.56.49.52,1,1.04,1.52,1.56.52.52,1.05,1.04,1.58,1.57.54.53,1.07,1.07,1.61,1.62-.31-1.49-.57-2.93-.77-4.35-.2-1.42-.38-2.82-.53-4.21-.15-1.39-.32-2.77-.5-4.14-.06-.38-.02-.7.13-.96.15-.26.37-.46.66-.6.39-.2.78-.25,1.17-.17.39.08.68.31.86.68.04.08.07.18.09.28.02.11.03.23.06.38.25,1.86.46,3.71.64,5.57.18,1.86.42,3.71.72,5.54s.72,3.63,1.29,5.4c.15.44.15.84.01,1.21-.14.36-.41.65-.82.86Z" stroke-width="0"/>
          <path d="m686.09,148.2c.63,1.25,1.04,2.53,1.23,3.83s.15,2.56-.1,3.75c-.26,1.2-.72,2.27-1.4,3.21-.68.95-1.55,1.69-2.61,2.23-1.29.65-2.6.92-3.92.79-1.32-.13-2.55-.6-3.69-1.43-1.14-.83-2.07-1.95-2.79-3.39-.65-1.29-1.07-2.61-1.25-3.96-.18-1.35-.14-2.63.13-3.86.27-1.23.74-2.33,1.42-3.3.68-.97,1.55-1.73,2.61-2.27,1.29-.65,2.59-.88,3.91-.69,1.32.19,2.55.73,3.68,1.6,1.14.88,2.07,2.03,2.79,3.46Zm-10.5,7.44c.51,1,1.1,1.79,1.78,2.38.68.58,1.41.93,2.21,1.04.79.12,1.57-.02,2.35-.42.9-.46,1.56-1.17,1.97-2.13.41-.97.56-2.06.46-3.28-.1-1.22-.47-2.45-1.1-3.7-.49-.96-1.1-1.73-1.83-2.32-.73-.58-1.5-.94-2.3-1.07s-1.58-.01-2.34.37c-.82.42-1.42,1.11-1.81,2.09-.39.98-.54,2.09-.45,3.33.09,1.24.44,2.47,1.06,3.7Z" stroke-width="0"/>
          <path d="m687.56,139.59c-.2-.44-.21-.84-.03-1.2.18-.36.46-.64.85-.83.37-.19.73-.25,1.1-.19s.65.29.86.7c.06.12.14.28.24.48.1.19.2.41.31.65.11.24.21.52.32.82.08-1.32.37-2.43.88-3.32.51-.89,1.24-1.57,2.18-2.05.47-.24,1.01-.43,1.62-.57.61-.14,1.29-.18,2.04-.12.32.02.58.11.79.26.21.15.37.38.5.67.21.46.24.87.11,1.24-.14.37-.39.64-.76.83-.21.1-.42.16-.63.16-.22,0-.43,0-.65-.02-.27-.02-.54-.03-.82-.03-.28,0-.6.09-.94.27-1.21.61-1.87,1.7-1.99,3.26-.12,1.56.06,3.41.54,5.53.33.71.65,1.36.94,1.97.29.61.57,1.2.83,1.76.26.56.51,1.1.76,1.62.25.52.5,1.02.75,1.51.13.27.18.52.14.78-.04.25-.14.48-.31.68-.17.2-.37.36-.62.49-.45.23-.86.27-1.21.11-.36-.15-.69-.43-1-.83-.3-.4-.59-.85-.84-1.37-.21-.41-.45-.93-.73-1.56-.28-.63-.55-1.26-.81-1.9-.26-.64-.46-1.18-.61-1.62l-3.79-8.18Z" stroke-width="0"/>
          <path d="m698.13,123.53c-.16-.41-.16-.79,0-1.15s.42-.64.81-.83c.51-.26.93-.27,1.27-.04.33.23.63.59.87,1.08.25.49.6,1.35,1.05,2.57.45,1.22,1.06,2.79,1.84,4.7.77,1.91,1.75,4.14,2.95,6.7.01-.03.14-.3.38-.81.24-.51.55-1.17.91-1.97.37-.8.76-1.66,1.18-2.58.42-.92.83-1.82,1.23-2.71.4-.88.75-1.64,1.04-2.28.1-.21.22-.39.34-.54.13-.15.27-.27.44-.36.2-.1.4-.17.6-.19.19-.02.38,0,.55.05.17.06.32.14.46.27.14.12.25.28.35.46.1.21.17.41.2.63.03.21,0,.43-.11.63-.18.4-.43.92-.74,1.55-.31.63-.65,1.33-1.01,2.09-.36.76-.72,1.53-1.09,2.31-.37.78-.71,1.49-1.04,2.14-.33.65-.59,1.2-.81,1.64.53.24,1.2.58,2,1.01.8.43,1.58.85,2.35,1.26.59.3,1.17.55,1.76.77.59.22,1.12.35,1.61.4.49.05.9-.01,1.25-.19.33-.17.58-.5.75-1,.17-.5.31-.94.42-1.33.06-.29.15-.54.26-.75.11-.21.27-.37.48-.47.23-.11.47-.17.72-.17.26,0,.5.06.72.17.23.12.41.31.54.57.12.25.17.54.15.87-.02.33-.09.7-.2,1.08-.12.47-.31.96-.57,1.47-.26.5-.57.96-.92,1.37-.36.41-.75.73-1.18.94-.74.37-1.53.53-2.37.47-.84-.06-1.69-.26-2.56-.6-.86-.33-1.72-.71-2.57-1.13-.85-.47-1.63-.9-2.34-1.3-.7-.4-1.33-.71-1.87-.92.53,1.1,1.03,2.17,1.52,3.22.48,1.05.97,2.11,1.45,3.18.22.43.24.82.07,1.16-.17.34-.44.61-.81.8-.39.2-.77.26-1.15.2-.38-.06-.68-.31-.9-.74-1.81-3.94-3.6-7.91-5.36-11.9-1.76-3.99-3.41-7.93-4.93-11.81Z" stroke-width="0"/>
        </g>
      </g>
      <g>
        <path d="m1268.78,124.47c-.82-3.62-2.08-6.51-4.17-8.71h0c-3-3.15-7.69-4.87-15.2-5.24-9.94-.49-17.39,3.54-20.19,5.35h0s-.31-.79-.31-.79c-.1-.26-.26-.49-.45-.67-.2-.19-.44-.33-.7-.41-3.52-1.14-7.21-2.05-10.93-2.09-.31,0-.61,0-.92,0,.02,0,.03,0,.05,0-2.69.06-5.45.6-7.33,2.67-2.55,2.81-3.75,7.01-4.97,10.54-1.53,4.44-2.32,9.38.96,13.3,1.64,1.97,3.82,3.54,6.2,4.76,2.38,1.22,4.96,2.1,7.41,2.68.07.02.14.02.2.03-.01,0-.02,0-.03,0,.09.02.18.02.27.03.09,0,.18.02.27.03.13,0,.25-.01.38-.03.08,0,.17-.01.25-.03.14-.03.27-.07.41-.12.07-.02.13-.03.2-.06.2-.08.39-.18.56-.3l.45-.3c.43.79.95,1.12.95,1.12,0,0,7.34,6.88,18.02,6.1.86-.06,1.53.74,1.31,1.58-.61,2.28-2.48,6.78-8.16,13.46-6.83,8.04-12.74,15.88-14.87,18.74-.41.55-.39,1.29.01,1.81,0,0-.56.6-.87,1.69,0,0,0,.02,0,.02,0,0,0,0,0,0-.02.06-.02.11-.03.17,0,.05-.02.09-.03.14,0,.06,0,.12,0,.18,0,.05,0,.09,0,.14,0,.07.02.14.04.21,0,.04.01.07.02.11.03.1.07.2.12.3v.04c-.06.15-.09.3-.11.45,0,0,0,0,0,0,0,.01,0,.02,0,.04-.02.2-.02.41,0,.6,0,.03,0,.05,0,.08.03.2.08.39.15.58.01.04.03.07.04.11.08.18.17.36.29.53.02.03.04.05.06.08.13.17.27.33.44.47l5.89,4.83c.68.56,1.58.76,2.43.54l.66-.17h0c.34.16.73.2,1.11.12,1.28-.29,1.99-.95,1.99-.95h0c.65.47,1.57.35,2.07-.3l17.12-21.96c3.26-4.14,6.36-8.45,9.07-12.98,2.08-3.48,3.93-7.08,5.44-10.85,1.77-4.38,3.07-8.95,3.76-13.63.67-4.54,1.69-9.49.66-14.05Z" fill="#1a1a1a" opacity=".33" stroke-width="0"/>
        <path d="m1189.87,74.61c-1.88-2.08-4.64-2.61-7.33-2.67.02,0,.03,0,.05,0-.31,0-.62,0-.92,0-3.72.04-7.41.95-10.93,2.09-.26.09-.5.23-.7.41-.2.19-.35.42-.45.67l-.31.79h0c-.16-.1-.33-.21-.52-.33-.05-.03-.1-.06-.16-.09-.15-.09-.3-.18-.47-.28-.06-.04-.13-.07-.19-.11-.2-.12-.42-.24-.65-.36-.03-.01-.05-.03-.08-.04-.25-.14-.52-.28-.8-.42-.07-.04-.15-.07-.22-.11-.22-.11-.44-.21-.67-.32-.1-.05-.19-.09-.29-.14-.25-.12-.51-.23-.78-.35-.07-.03-.14-.06-.21-.09-.34-.14-.69-.28-1.05-.42-.09-.03-.18-.07-.27-.1-.28-.11-.57-.21-.86-.31-.13-.04-.25-.09-.38-.13-.29-.1-.59-.19-.9-.29-.11-.03-.22-.07-.34-.1-.41-.12-.83-.24-1.27-.35-.1-.02-.2-.05-.29-.07-.35-.08-.7-.16-1.05-.24-.15-.03-.31-.06-.47-.09-.33-.07-.66-.13-1-.18-.15-.03-.3-.05-.45-.08-.06,0-.12-.02-.18-.03.01,0,.03,0,.04.01-2.07-.31-4.3-.46-6.68-.34-7.51.37-12.2,2.09-15.2,5.24h0c-2.09,2.2-3.36,5.09-4.17,8.71-1.03,4.56,0,9.51.66,14.05.69,4.68,1.99,9.25,3.76,13.63,1.52,3.76,3.37,7.37,5.44,10.85,2.71,4.53,5.81,8.84,9.07,12.98l16.6,21.29h0s.53.68.53.68c.25.32.61.51.98.57.1.01.19,0,.29-.01.28-.01.56-.08.8-.26h0s.36.33,1.02.63c0,0-.01,0-.02,0,.02,0,.04.02.06.02.09.04.18.07.28.11.05.02.1.04.16.06.14.05.29.09.45.13.02,0,.03.01.05.01.38.08.77.04,1.11-.12,0,0,0,0,0,0h0,0s.62.16.62.16h.04s.09.02.13.03c.81.16,1.65-.03,2.29-.56l5.4-4.43.49-.4c.82-.67,1.17-1.76.93-2.78-.01-.05-.02-.1-.03-.15v-.04c.18-.39.23-.84.11-1.26-.08-.27-.17-.51-.27-.72-.16-.36-.33-.6-.44-.76-.09-.12-.16-.21-.16-.21.18-.23.27-.51.29-.79,0-.04.02-.07.02-.11,0-.04-.02-.09-.02-.13,0-.12-.02-.23-.05-.34-.03-.09-.09-.18-.13-.26-.03-.06-.05-.12-.09-.18h0s0,0,0,0c-.75-1-1.96-2.63-3.51-4.65-.5-.65-1.04-1.35-1.61-2.08-.67-.86-1.38-1.76-2.12-2.7-.3-.38-.61-.77-.93-1.17-.35-.43-.7-.87-1.06-1.32-1.76-2.18-3.66-4.49-5.64-6.82-2.27-2.67-3.92-4.98-5.14-6.95-1.82-2.96-2.65-5.13-3.02-6.5-.16-.58.12-1.14.59-1.41.04-.02.08-.05.12-.07.18-.08.38-.12.6-.1,10.69.77,18.02-6.1,18.02-6.1,0,0,.13-.08.32-.27.18-.18.42-.46.63-.86l.45.3c.18.12.37.22.56.3.06.03.13.04.2.06.13.04.27.09.41.12.08.02.17.02.25.03.13.01.25.03.38.03.09,0,.18-.02.27-.03.09,0,.18,0,.27-.03-.01,0-.02,0-.03,0,.07-.01.14-.01.2-.03,2.45-.58,5.03-1.46,7.41-2.68,2.38-1.23,4.55-2.8,6.2-4.76,3.28-3.92,2.49-8.86.96-13.3-1.21-3.53-2.42-7.73-4.97-10.54Z" fill="#1a1a1a" opacity=".33" stroke-width="0"/>
        <g>
          <path d="m1230.17,118.56c-.11.07-.21.14-.31.2-.57.38-.99.94-1.19,1.6-1.21,4.06-5.85,19.69-6.78,23.14-.56,2.07-.21,3.45.25,4.31l-.45.3c-.74.5-1.65.66-2.52.44-2.45-.58-5.03-1.46-7.41-2.68-2.38-1.23-4.55-2.8-6.2-4.76-3.28-3.92-2.49-8.86-.96-13.3,1.21-3.53,2.42-7.73,4.97-10.54,2.08-2.3,5.25-2.72,8.2-2.68,3.72.04,7.41.95,10.93,2.09.26.09.5.23.7.41.2.19.35.42.45.67l.31.79h0Z" fill="#f7f7f7" stroke-width="0"/>
          <path d="m1230.17,118.56c-.11.07-.21.14-.31.2-.57.38-.99.94-1.19,1.6-1.21,4.06-5.85,19.69-6.78,23.14-.56,2.07-.21,3.45.25,4.31l-.45.3c-.69.47-1.53.64-2.34.48.41-.08.79-.24,1.14-.48l.45-.3c-.46-.85-.81-2.24-.25-4.31.93-3.45,5.57-19.08,6.78-23.14.2-.66.61-1.22,1.19-1.6.1-.06.2-.13.31-.2h0s-.31-.79-.31-.79c-.1-.26-.26-.49-.45-.67-.2-.19-.44-.33-.7-.41-3.43-1.11-7.03-2-10.65-2.09.31,0,.62,0,.92,0,3.72.04,7.41.95,10.93,2.09.26.09.5.23.7.41.2.19.35.42.45.67l.31.79h0Z" opacity=".2" stroke-width="0"/>
          <path d="m1269.08,141.21c-.69,4.68-1.99,9.25-3.76,13.63-1.52,3.76-3.37,7.37-5.44,10.85-2.71,4.53-5.81,8.84-9.07,12.98l-17.12,21.96c-.5.64-1.42.77-2.07.29-.03-.02-.06-.04-.08-.07l-11.89-9.98c-.09-.07-.16-.15-.23-.24-.4-.52-.42-1.26-.01-1.81,2.13-2.86,8.04-10.7,14.87-18.74,5.68-6.68,7.54-11.18,8.16-13.46.23-.84-.44-1.64-1.31-1.58-10.68.77-18.02-6.1-18.02-6.1,0,0-.52-.33-.95-1.12-.46-.85-.81-2.24-.25-4.31.93-3.45,5.57-19.08,6.78-23.14.2-.66.61-1.22,1.19-1.6.1-.06.2-.13.31-.2,2.8-1.8,10.24-5.84,20.19-5.35,7.51.37,12.2,2.09,15.2,5.24h0c2.09,2.2,3.36,5.09,4.17,8.71,1.03,4.56,0,9.51-.66,14.05Z" fill="#f2f2f2" stroke-width="0"/>
          <path d="m1244.33,150.36c-1.99-2.24-5.17-.73-5.17-.73,0,0-4.07,1.42-3.28,2.87.79,1.45,3.47,1.04,3.47,1.04,0,0,1.8-.32,3.88-1.32s1.1-1.87,1.1-1.87Z" fill="#545454" stroke-width="0"/>
          <path d="m1243.23,152.22c-2.08.99-3.88,1.32-3.88,1.32,0,0-2.68.41-3.47-1.04-.26-.48.01-.96.49-1.38.83,1.38,3.43.98,3.43.98,0,0,1.8-.32,3.88-1.32.28-.13.5-.26.68-.39.16.17.7.96-1.14,1.83Z" fill="#373736" stroke-width="0"/>
          <path d="m1256.72,125.79c-8.09-1.8-16.57-.62-16.57-.62,0,0-2.56.38-2.56-2.27s3.03-4.45,11.55-4.45,10.46,1.47,10.46,1.47c0,0,2.89,1.51,1.28,4.12-1.61,2.6-4.17,1.75-4.17,1.75Z" fill="#373736" stroke-width="0"/>
          <path d="m1231.61,200.92h0s-.71.67-1.99.95c-.38.08-.77.04-1.11-.12h0c-.14-.06-.27-.14-.39-.24l-9.01-7.35c-.2-.16-.36-.36-.47-.58-.19-.39-.24-.83-.12-1.26.31-1.09.87-1.69.87-1.69.07.09.14.17.23.24l11.89,9.98s.06.05.08.07Z" fill="#bbc6d2" stroke-width="0"/>
          <path d="m1231.61,200.92h0s-.71.67-1.99.95c-.38.08-.77.04-1.11-.12h0c-.14-.06-.27-.14-.39-.24l-9.01-7.35c-.2-.16-.36-.36-.47-.58-.19-.38-.24-.82-.12-1.24.03.11.07.22.12.33.11.22.27.42.47.58l9.01,7.35c.12.1.25.18.39.24h0c.34.16.73.2,1.11.12.59-.13,1.06-.35,1.39-.54l.51.43s.06.05.08.07Z" opacity=".2" stroke-width="0"/>
          <path d="m1228.51,201.75l-.66.17c-.85.22-1.75.02-2.43-.54l-5.89-4.83c-.86-.71-1.21-1.86-.89-2.92v-.04c.12.22.28.42.48.58l9.01,7.35c.12.1.25.18.39.24Z" fill="#f2f2f2" stroke-width="0"/>
          <path d="m1228.51,201.75l-.66.17c-.85.22-1.75.02-2.43-.54l-5.89-4.83c-.74-.61-1.11-1.55-.99-2.48.09.69.43,1.33.99,1.79l5.89,4.83c.66.54,1.53.75,2.36.55l.33.27c.12.1.25.18.39.24Z" opacity=".2" stroke-width="0"/>
          <path d="m1269.08,141.21c-.69,4.68-1.99,9.25-3.76,13.63-1.52,3.76-3.37,7.37-5.44,10.85-1.63-11.37-17.67-10.84-17.67-10.84,0,0,24.31-1.24,23.36-36.38,2.09,2.2,3.36,5.09,4.17,8.71,1.03,4.56,0,9.51-.66,14.05Z" opacity=".1" stroke-width="0"/>
          <path d="m1231.52,132.62c-1.03,4.18-3.48,7.3-4.87,6.96s-.57-3.92.46-8.1c1.03-4.18,1.9-7.38,3.29-7.03,1.39.34,2.16,4,1.12,8.17Z" fill="#fff" opacity=".6" stroke-width="0"/>
        </g>
        <g>
          <path d="m1175.02,79.88c.11.07.21.14.31.2.57.38.99.94,1.19,1.6,1.21,4.06,5.85,19.69,6.78,23.14.56,2.07.21,3.45-.25,4.31l.45.3c.74.5,1.65.66,2.52.44,2.45-.58,5.03-1.46,7.41-2.68,2.38-1.23,4.55-2.8,6.2-4.76,3.28-3.92,2.49-8.86.96-13.3-1.21-3.53-2.42-7.73-4.97-10.54-2.08-2.3-5.25-2.72-8.2-2.68-3.72.04-7.41.95-10.93,2.09-.26.09-.5.23-.7.41-.2.19-.35.42-.45.67l-.31.79h0Z" fill="#f7f7f7" stroke-width="0"/>
          <path d="m1175.02,79.88c.11.07.21.14.31.2.57.38.99.94,1.19,1.6,1.21,4.06,5.85,19.69,6.78,23.14.56,2.07.21,3.45-.25,4.31l.45.3c.69.47,1.53.64,2.34.48-.41-.08-.79-.24-1.14-.48l-.45-.3c.46-.85.81-2.24.25-4.31-.93-3.45-5.57-19.08-6.78-23.14-.2-.66-.61-1.22-1.19-1.6-.1-.06-.2-.13-.31-.2h0s.31-.79.31-.79c.1-.26.26-.49.45-.67.2-.19.44-.33.7-.41,3.43-1.11,7.03-2,10.65-2.09-.31,0-.62,0-.92,0-3.72.04-7.41.95-10.93,2.09-.26.09-.5.23-.7.41-.2.19-.35.42-.45.67l-.31.79h0Z" opacity=".2" stroke-width="0"/>
          <path d="m1136.12,102.53c.69,4.68,1.99,9.25,3.76,13.63,1.52,3.76,3.37,7.37,5.44,10.85,2.71,4.53,5.81,8.84,9.07,12.98l17.12,21.96c.5.64,1.42.77,2.07.29.03-.02.06-.04.08-.07l11.89-9.98c.09-.07.16-.15.23-.24.4-.52.42-1.26.01-1.81-2.13-2.86-8.04-10.7-14.87-18.74-5.68-6.68-7.54-11.18-8.16-13.46-.23-.84.44-1.64,1.31-1.58,10.68.77,18.02-6.1,18.02-6.1,0,0,.52-.33.95-1.12.46-.85.81-2.24.25-4.31-.93-3.45-5.57-19.08-6.78-23.14-.2-.66-.61-1.22-1.19-1.6-.1-.06-.2-.13-.31-.2-2.8-1.8-10.24-5.84-20.19-5.35-7.51.37-12.2,2.09-15.2,5.24h0c-2.09,2.2-3.36,5.09-4.17,8.71-1.03,4.56,0,9.51.66,14.05Z" fill="#f2f2f2" stroke-width="0"/>
          <path d="m1185.79,151.95c-.07.09-.14.17-.23.24l-11.89,9.98s-.06.05-.08.07c-.65.47-1.57.35-2.07-.29l-.53-.67,11.52-9.68c.09-.07.16-.15.23-.24.4-.52.42-1.26.01-1.81-2.13-2.86-8.04-10.7-14.87-18.74-5.68-6.68-7.54-11.18-8.16-13.46-.23-.84.44-1.64,1.31-1.58,10.69.77,18.02-6.1,18.02-6.1,0,0,.52-.33.95-1.12.46-.85.81-2.24.25-4.31-.93-3.45-5.57-19.08-6.78-23.14-.19-.66-.61-1.22-1.18-1.6-.1-.06-.2-.13-.31-.2-1.79-1.15-5.47-3.22-10.5-4.43,6.58.97,11.41,3.65,13.55,5.02.11.07.21.14.31.2.57.38.99.95,1.18,1.6,1.21,4.06,5.85,19.69,6.78,23.14.56,2.07.21,3.45-.25,4.31-.42.79-.95,1.12-.95,1.12,0,0-7.34,6.88-18.02,6.1-.86-.06-1.53.74-1.31,1.58.61,2.28,2.48,6.78,8.16,13.46,6.83,8.04,12.75,15.88,14.87,18.74.41.55.39,1.29-.01,1.81Z" opacity=".2" stroke-width="0"/>
          <path d="m1160.86,111.68c1.99-2.24,5.17-.73,5.17-.73,0,0,4.07,1.42,3.28,2.87-.79,1.45-3.47,1.04-3.47,1.04,0,0-1.8-.32-3.88-1.32-2.08-.99-1.1-1.87-1.1-1.87Z" fill="#545454" stroke-width="0"/>
          <path d="m1161.96,113.54c2.08.99,3.88,1.32,3.88,1.32,0,0,2.68.41,3.47-1.04.26-.48-.01-.96-.49-1.38-.83,1.38-3.43.98-3.43.98,0,0-1.8-.32-3.88-1.32-.28-.13-.5-.26-.68-.39-.16.17-.7.96,1.14,1.83Z" fill="#373736" stroke-width="0"/>
          <path d="m1148.47,87.11c8.09-1.8,16.57-.62,16.57-.62,0,0,2.56.38,2.56-2.27s-3.03-4.45-11.55-4.45-10.46,1.47-10.46,1.47c0,0-2.89,1.51-1.28,4.12,1.61,2.6,4.17,1.75,4.17,1.75Z" fill="#373736" stroke-width="0"/>
          <path d="m1173.58,162.24h0s.71.67,1.99.95c.38.08.77.04,1.11-.12h0c.14-.06.27-.14.39-.24l9.01-7.35c.2-.16.36-.36.47-.58.19-.39.24-.83.12-1.26-.31-1.09-.87-1.69-.87-1.69-.07.09-.14.17-.23.24l-11.89,9.98s-.06.05-.08.07Z" fill="#bbc6d2" stroke-width="0"/>
          <path d="m1186.54,154.9c-.11.22-.27.42-.47.58l-9.01,7.35c-.12.1-.25.18-.39.24-.35.16-.73.2-1.11.12-.38-.09-.71-.21-.99-.33.02,0,.04,0,.06.01.38.08.77.04,1.11-.12h0c.14-.06.27-.14.39-.24l9.01-7.35c.2-.16.36-.36.47-.58.19-.39.24-.83.12-1.26-.11-.38-.25-.7-.39-.96l.21-.18c.09-.07.16-.15.23-.24,0,0,.56.6.88,1.69.12.43.07.88-.12,1.26Z" opacity=".2" stroke-width="0"/>
          <path d="m1176.68,163.07l.66.17c.85.22,1.75.02,2.43-.54l5.89-4.83c.86-.71,1.21-1.86.89-2.92v-.04c-.12.22-.28.42-.48.58l-9.01,7.35c-.12.1-.25.18-.39.24Z" fill="#f2f2f2" stroke-width="0"/>
          <path d="m1185.66,157.87l-5.89,4.83c-.68.56-1.58.76-2.43.54l-.66-.17s.08-.04.12-.06c.81.16,1.65-.05,2.29-.57l5.89-4.83c.63-.52.99-1.27,1.01-2.06l.09-.07c.2-.16.36-.36.47-.58v.04c.33,1.07-.02,2.22-.88,2.93Z" opacity=".2" stroke-width="0"/>
          <path d="m1144.34,84.04c-2.39,2.92-2.98,6.94-4.41,5.76-1.44-1.18-1.26-5.15,1.13-8.08,2.39-2.92,6.1-3.68,7.54-2.5,1.44,1.18-1.86,1.89-4.25,4.81Z" fill="#fff" opacity=".6" stroke-width="0"/>
        </g>
        <rect x="1315.96" y="32.91" width="179.63" height="134.06" rx="43.48" ry="43.48" transform="translate(2733.04 -373.89) rotate(156.29)" fill="#1a1a1a" opacity=".33" stroke-width="0"/>
        <g>
          <rect x="1313.61" y="40.94" width="179.63" height="134.06" rx="43.48" ry="43.48" transform="translate(2731.78 -357.57) rotate(156.29)" fill="#ededed" stroke-width="0"/>
          <path d="m1337.93,69.3l5.32-2.34c-19.88,8.73-28.92,31.93-20.19,51.82l25.72,58.55c-5.88-4.02-10.74-9.68-13.82-16.68l-17.29-39.36c-8.76-19.95.31-43.23,20.26-51.99Z" fill="#fff" stroke-width="0"/>
          <path d="m1466.67,104.97l-18.38-41.84c-8.6-19.59-31.45-28.49-51.04-19.89l22.14-9.72c20.38-8.95,44.17.31,53.12,20.7l17.11,38.95c8.95,20.38-.31,44.17-20.7,53.12l-22.14,9.72c19.59-8.6,28.49-31.45,19.89-51.04Z" fill="#dbdbdb" stroke-width="0"/>
          <rect x="1354.64" y="82.19" width="79.04" height="8.68" rx="4.34" ry="4.34" transform="translate(2705.42 -394.92) rotate(156.29)" fill="#dbdbdb" stroke-width="0"/>
          <rect x="1304.22" y="86.2" width="179.63" height=".78" transform="translate(82.88 567.94) rotate(-23.71)" fill="#c1c1c1" stroke-width="0"/>
          <circle cx="1403.84" cy="108.57" r="1.93" fill="#373736" stroke-width="0"/>
        </g>
      </g>
      <g clip-path="url(#clippath-1)">
        <g>
          <path d="m2008.96,1089.09l-115.17-235.34,13.55-8.12c5.4-3.24,7.15-10.24,3.92-15.64l-6.28-10.47c-3.24-5.4-10.24-7.15-15.64-3.92l-11,6.59-14.06-28.72,12.93-6.33c5.65-2.77,7.99-9.59,5.23-15.25l-5.37-10.97c-2.77-5.65-9.59-7.99-15.25-5.23l-12.93,6.33-12.58-25.71,11.82-4.46c5.89-2.22,8.86-8.8,6.64-14.69l-4.31-11.42c-2.22-5.89-8.8-8.86-14.69-6.64l-14.91,5.63-10.18-20.81,12.93-6.33c5.65-2.77,7.99-9.59,5.23-15.25l-5.37-10.97c-2.77-5.65-9.59-7.99-15.25-5.23l-12.93,6.33-27.83-56.86c-3.75-7.67-12.81-10.94-20.23-7.31l-339.82,166.3c-7.42,3.63-10.39,12.79-6.64,20.46l19.17,39.17-1.41.69-7.25,3.55c-.66.32-.9,1.21-.53,1.97.37.76,1.21,1.12,1.87.79l7.25-3.55,1.42-.69,1.8,3.68-1.42.69-7.26,3.55c-.66.32-.9,1.2-.53,1.97.37.76,1.21,1.11,1.87.79l7.25-3.55,1.43-.7,8.75,17.89-1.43.7-7.26,3.55c-.66.32-.9,1.2-.53,1.97.37.76,1.21,1.11,1.87.79l7.25-3.55,1.44-.7,1.8,3.67-1.44.71-7.25,3.55c-.66.33-.9,1.21-.53,1.97.37.76,1.21,1.12,1.87.79l7.25-3.55,1.44-.71,8.76,17.89-1.49.73-7.25,3.55c-.66.32-.9,1.21-.53,1.97.37.76,1.21,1.11,1.87.79l7.25-3.55,1.49-.73,1.8,3.68-1.5.73-7.26,3.55c-.66.32-.9,1.2-.53,1.97.37.76,1.21,1.11,1.87.79l7.25-3.55,1.5-.74,8.76,17.89-1.53.75-7.25,3.55c-.67.33-.91,1.21-.53,1.96.37.76,1.21,1.12,1.87.8l7.26-3.55,1.53-.75,1.8,3.67-1.54.75-7.25,3.55c-.66.33-.9,1.21-.53,1.97.37.76,1.21,1.11,1.87.79l7.25-3.55,1.54-.75,8.76,17.89-1.56.77h0s-7.26,3.55-7.26,3.55c-.66.32-.9,1.21-.53,1.97.37.76,1.21,1.11,1.87.79l7.25-3.55,1.57-.77,1.8,3.68-1.57.77-7.25,3.55c-.67.33-.9,1.21-.53,1.97.37.76,1.21,1.12,1.87.8l7.26-3.55,1.58-.77,8.75,17.89-1.6.78-7.25,3.55c-.66.32-.9,1.2-.53,1.96.37.77,1.21,1.12,1.87.79l7.25-3.55,1.61-.79,1.8,3.68-1.61.79h0s-7.25,3.55-7.25,3.55c-.66.32-.9,1.21-.53,1.97.37.76,1.21,1.11,1.87.79l7.25-3.55,1.62-.79,8.75,17.89-1.64.8-7.25,3.55c-.66.32-.9,1.21-.53,1.97.37.76,1.21,1.11,1.87.79l7.25-3.55,1.65-.81,1.8,3.68-1.65.81-7.25,3.55c-.66.32-.9,1.2-.53,1.97.37.76,1.21,1.12,1.87.8l7.26-3.55,1.65-.81,8.75,17.89-1.68.82-7.25,3.55c-.66.32-.9,1.2-.53,1.96.38.77,1.21,1.12,1.87.79l7.25-3.55,1.68-.82,1.8,3.68-1.69.83-7.25,3.55c-.66.32-.9,1.21-.53,1.97.37.76,1.21,1.11,1.87.79l7.25-3.55,1.69-.83,8.76,17.89-1.72.84-7.25,3.55c-.66.32-.9,1.21-.53,1.97.37.76,1.21,1.11,1.87.79l7.25-3.55,1.72-.84,1.8,3.68-1.73.84-7.25,3.55c-.66.32-.9,1.2-.53,1.96.37.77,1.21,1.12,1.88.8l7.25-3.55,1.73-.85,8.75,17.89-1.76.86-7.25,3.55c-.66.32-.9,1.2-.53,1.96.37.77,1.21,1.12,1.87.79l7.25-3.55,1.76-.86,1.8,3.68-1.76.86-7.26,3.55c-.66.32-.9,1.21-.53,1.97.37.76,1.21,1.11,1.87.79l7.25-3.55,1.77-.87,8.76,17.89-1.79.88-7.25,3.55c-.67.33-.9,1.21-.53,1.97.37.76,1.21,1.12,1.87.8l7.25-3.55,1.8-.88,1.8,3.68-1.8.88-7.25,3.55c-.66.32-.9,1.2-.53,1.96.37.76,1.21,1.12,1.87.79l7.25-3.55,1.81-.88,8.76,17.89-1.83.9h0s-7.26,3.55-7.26,3.55c-.66.33-.9,1.21-.53,1.97.37.76,1.21,1.12,1.87.79l7.25-3.55,1.84-.9,1.8,3.68-1.84.9-7.25,3.55c-.67.33-.9,1.21-.53,1.97.37.76,1.21,1.12,1.87.8l7.25-3.55,1.84-.9,8.76,17.89-1.87.92-7.25,3.55c-.66.32-.9,1.21-.53,1.97.37.76,1.21,1.12,1.87.8l7.25-3.55,1.87-.92,1.8,3.68-1.88.92-7.25,3.55c-.66.32-.9,1.2-.53,1.96.37.76,1.21,1.12,1.87.79l7.25-3.55,1.88-.92,8.76,17.89-1.91.93-7.26,3.55c-.66.33-.9,1.21-.53,1.97.37.76,1.21,1.11,1.87.79l7.25-3.55,1.91-.94,1.8,3.68-1.92.94-7.25,3.55c-.66.32-.9,1.21-.53,1.97.37.76,1.21,1.12,1.87.8l7.26-3.55,1.92-.94,8.76,17.89-1.95.95-7.25,3.55c-.66.32-.9,1.2-.53,1.97.37.76,1.21,1.12,1.87.79l7.25-3.55,1.95-.95,1.8,3.68-1.96.96-7.25,3.55c-.66.32-.9,1.2-.53,1.96.37.77,1.21,1.12,1.87.79l7.25-3.55,1.96-.96,8.76,17.89-1.98.97-7.26,3.55c-.66.33-.9,1.21-.53,1.97.37.76,1.21,1.11,1.87.79l7.26-3.55h0s1.99-.97,1.99-.97l1.8,3.68-1.99.98-7.25,3.55c-.66.32-.9,1.21-.53,1.97.37.76,1.21,1.12,1.87.79l7.25-3.55,2-.98,19.02,38.86c3.75,7.67,12.81,10.94,20.23,7.31l339.82-166.3c7.42-3.63,10.39-12.79,6.64-20.46Zm-565.44-276.69c-.37-.76-1.21-1.12-1.87-.79l-6.01,2.94-2.43,1.19-1.8-3.68,2.43-1.19,6.01-2.94c.66-.32.9-1.21.53-1.97-.37-.76-1.21-1.11-1.87-.79l-6,2.94-2.44,1.19-1.64-3.35,15.13-7.41,7.41,15.13-15.13,7.41-1.27-2.59,2.42-1.19,6-2.94c.66-.33.9-1.21.53-1.97Zm13.23,27.09c-.37-.76-1.21-1.11-1.87-.79l-6,2.94-2.41,1.18-1.8-3.68,2.41-1.18,6-2.94c.67-.33.9-1.21.53-1.97-.38-.76-1.22-1.12-1.87-.79l-6.01,2.94-2.42,1.18-1.63-3.32,15.13-7.41,7.41,15.13-15.13,7.41-1.28-2.62,2.41-1.18,6-2.94c.66-.32.9-1.21.53-1.97Zm13.2,27.12c-.37-.76-1.21-1.12-1.87-.8l-6,2.94-2.35,1.15-1.8-3.68,2.35-1.15,6-2.94c.66-.32.9-1.21.53-1.97-.37-.76-1.21-1.11-1.87-.79l-6,2.93-2.36,1.16-1.61-3.29,15.13-7.41,7.4,15.13-15.13,7.41-1.29-2.64,2.34-1.15,6-2.94c.66-.33.9-1.21.53-1.97Zm13.22,27.1c-.37-.76-1.21-1.11-1.87-.79l-6,2.94-2.31,1.13-1.8-3.68,2.31-1.13,6.01-2.94c.66-.32.9-1.2.53-1.96-.38-.76-1.21-1.12-1.87-.79l-6.01,2.94-2.32,1.13-1.6-3.27,15.13-7.41,7.41,15.13-15.13,7.41-1.31-2.68,2.31-1.13,6-2.94c.66-.32.9-1.21.53-1.97Zm13.22,27.1c-.38-.76-1.21-1.12-1.87-.79l-6,2.94-2.27,1.11-1.8-3.68,2.28-1.11,6-2.94c.66-.32.9-1.21.53-1.97-.37-.76-1.21-1.12-1.87-.79l-6,2.94-2.28,1.12-1.58-3.23,15.13-7.41,7.41,15.13-15.13,7.41-1.33-2.71,2.27-1.11,6-2.94c.66-.32.9-1.2.53-1.96Zm13.21,27.1c-.37-.76-1.21-1.12-1.87-.79l-6,2.93-2.24,1.09-1.8-3.68,2.24-1.1,6-2.94c.66-.32.9-1.2.53-1.96-.37-.77-1.21-1.12-1.88-.8l-6,2.94-2.24,1.1-1.57-3.2,15.13-7.41,7.4,15.13-15.13,7.41-1.34-2.74,2.23-1.09,6-2.94c.66-.32.9-1.21.53-1.97Zm13.22,27.1c-.37-.77-1.21-1.12-1.87-.79l-6,2.94-2.2,1.07-1.8-3.68,2.2-1.08,6-2.94c.66-.32.9-1.21.53-1.97-.37-.76-1.21-1.12-1.87-.79l-6.01,2.94-2.21,1.08-1.55-3.17,15.13-7.41,7.41,15.13-15.13,7.41-1.36-2.77,2.19-1.07,6-2.94c.66-.32.9-1.2.53-1.96Zm13.21,27.1c-.37-.76-1.21-1.12-1.87-.79l-6,2.94-2.16,1.06-1.8-3.68,2.16-1.06,6-2.94c.66-.32.9-1.2.53-1.97-.37-.76-1.21-1.11-1.87-.79l-6,2.94-2.17,1.06-1.53-3.14,15.13-7.41,7.41,15.13-15.13,7.41-1.37-2.8,2.15-1.05,6-2.94c.66-.32.9-1.21.53-1.97Zm13.22,27.1c-.37-.76-1.21-1.12-1.87-.79l-6.01,2.94-2.12,1.04-1.8-3.68,2.13-1.04,6-2.94c.67-.33.9-1.21.53-1.97-.37-.76-1.21-1.12-1.87-.8l-6.01,2.94-2.13,1.04-1.52-3.1,15.13-7.41,7.4,15.13-15.13,7.41-1.39-2.83,2.11-1.03,6.01-2.94c.66-.32.9-1.2.53-1.96Zm13.21,27.1c-.37-.76-1.21-1.12-1.87-.8l-6,2.94-2.08,1.02-1.8-3.68,2.09-1.02,6-2.94c.66-.32.9-1.2.53-1.97-.37-.76-1.21-1.11-1.87-.79l-6,2.94-2.09,1.02-1.5-3.07,15.13-7.41,7.41,15.13-15.13,7.41-1.4-2.87,2.08-1.02,6-2.94c.67-.33.9-1.21.53-1.97Zm13.22,27.1c-.37-.76-1.21-1.12-1.88-.79l-6,2.94-2.04,1-1.8-3.68,2.05-1.01,6-2.94c.66-.32.9-1.21.53-1.97-.37-.76-1.21-1.12-1.87-.79l-6,2.94-2.06,1.01-1.49-3.04,15.13-7.41,7.41,15.13-15.13,7.41-1.42-2.9,2.04-1,6-2.94c.66-.32.9-1.2.53-1.96Zm13.22,27.1c-.37-.76-1.21-1.11-1.87-.79l-6.01,2.94-2,.98-1.8-3.68,2.01-.98,6-2.94c.66-.32.9-1.2.53-1.97-.37-.76-1.21-1.12-1.87-.79l-6,2.94-2.01.98-1.47-3.01,15.13-7.41,7.41,15.13-15.13,7.41-1.43-2.92,2-.98,6.01-2.94c.66-.32.9-1.21.53-1.97Zm13.21,27.1c-.37-.76-1.21-1.12-1.87-.79l-6,2.94-1.97.96-1.8-3.68,1.98-.97,6-2.94c.66-.33.9-1.21.53-1.97-.37-.76-1.21-1.11-1.87-.79l-6,2.94-1.98.97-1.46-2.99,15.13-7.41,7.41,15.13-15.13,7.41-1.45-2.96,1.97-.96,6-2.94c.66-.32.9-1.2.53-1.97Zm13.22,27.1c-.37-.76-1.21-1.11-1.87-.79l-6,2.94-1.93.94-1.8-3.68,1.94-.95,6-2.93c.66-.32.9-1.2.53-1.97-.37-.76-1.21-1.12-1.87-.79l-6,2.93-1.94.95-1.44-2.95,15.13-7.41,7.41,15.13-15.13,7.41-1.46-2.99,1.93-.94,6-2.94c.66-.32.9-1.21.53-1.97Zm13.21,27.1c-.37-.76-1.21-1.12-1.87-.79l-6,2.94-1.89.93-1.8-3.68,1.9-.93,6-2.94c.66-.33.9-1.21.53-1.97-.37-.76-1.21-1.11-1.87-.79l-6,2.94-1.9.93-1.43-2.93,15.13-7.41,7.41,15.13-15.13,7.41-1.48-3.02,1.89-.92,6-2.94c.66-.32.9-1.2.53-1.97Zm13.22,27.1c-.37-.76-1.21-1.11-1.87-.79l-6,2.94-1.85.91-1.8-3.68,1.86-.91,6-2.94c.67-.33.9-1.21.53-1.97-.37-.76-1.21-1.12-1.87-.8l-6,2.94-1.87.91-1.42-2.9,15.13-7.41,7.41,15.13-15.13,7.41-1.48-3.03,1.85-.91,6-2.94c.66-.32.9-1.21.53-1.97Z" fill="#020617" mix-blend-mode="hard-light" opacity=".33" stroke-width="0"/>
          <g>
            <path d="m1741.76,584.32l-339.82,166.3c-7.42,3.63-10.39,12.79-6.64,20.46l241.49,493.47c3.75,7.67,12.81,10.94,20.23,7.31l339.82-166.3c7.42-3.63,10.39-12.79,6.64-20.46l-241.49-493.47c-3.75-7.67-12.81-10.94-20.23-7.31Zm-125.64,612.35l-7.41-15.13,15.13-7.41,7.41,15.13-15.13,7.41Zm20.99,4.57l7.41,15.13-15.13,7.41-7.41-15.13,15.13-7.41Zm-34.26-31.68l-7.41-15.13,15.13-7.41,7.41,15.13-15.13,7.41Zm-13.27-27.11l-7.41-15.13,15.13-7.41,7.41,15.13-15.13,7.41Zm-13.27-27.11l-7.41-15.13,15.13-7.41,7.41,15.13-15.13,7.41Zm-13.27-27.11l-7.41-15.13,15.13-7.41,7.41,15.13-15.13,7.41Zm-13.27-27.11l-7.41-15.13,15.13-7.41,7.41,15.13-15.13,7.41Zm-13.27-27.11l-7.4-15.13,15.13-7.41,7.4,15.13-15.13,7.41Zm-13.27-27.11l-7.41-15.13,15.13-7.41,7.41,15.13-15.13,7.41Zm-13.27-27.11l-7.41-15.13,15.13-7.41,7.41,15.13-15.13,7.41Zm-13.27-27.11l-7.4-15.13,15.13-7.41,7.4,15.13-15.13,7.41Zm-13.27-27.11l-7.41-15.13,15.13-7.41,7.41,15.13-15.13,7.41Zm-13.27-27.11l-7.41-15.13,15.13-7.41,7.41,15.13-15.13,7.41Zm-13.27-27.11l-7.4-15.13,15.13-7.41,7.4,15.13-15.13,7.41Zm-13.27-27.11l-7.41-15.13,15.13-7.41,7.41,15.13-15.13,7.41Zm-13.27-27.11l-7.41-15.13,15.13-7.41,7.41,15.13-15.13,7.41Z" fill="#14b8a6" stroke-width="0"/>
            <g>
              <rect x="1809.53" y="829.03" width="100.23" height="35.01" rx="11.4" ry="11.4" transform="translate(-170.64 1076.4) rotate(-30.94)" fill="#98ce00" stroke-width="0"/>
              <rect x="1779.15" y="766.95" width="100.23" height="35.01" rx="11.4" ry="11.4" transform="translate(-158.62 883.93) rotate(-26.08)" fill="#ff3562" stroke-width="0"/>
              <rect x="1750.14" y="707.66" width="100.23" height="35.01" rx="11.4" ry="11.4" transform="translate(-140.1 682.47) rotate(-20.68)" fill="#ffc800" stroke-width="0"/>
              <rect x="1725.55" y="657.41" width="100.23" height="35.01" rx="11.4" ry="11.4" transform="translate(-115.92 849.22) rotate(-26.08)" fill="#ff8427" stroke-width="0"/>
              <g>
                <path d="m1735.12,597.13l-322.33,157.74c-8.89,4.35-12.56,15.08-8.21,23.96l231.79,473.63c4.35,8.89,15.08,12.56,23.96,8.21l322.33-157.74c8.89-4.35,12.56-15.08,8.21-23.96l-231.79-473.63c-4.35-8.89-15.08-12.56-23.96-8.22Zm-132.28,572.43l-7.41-15.13,15.13-7.41,7.41,15.13-15.13,7.41Zm21,4.57l7.41,15.13-15.13,7.41-7.41-15.13,15.13-7.41Zm-34.26-31.69l-7.41-15.13,15.13-7.41,7.41,15.13-15.13,7.41Zm-13.27-27.11l-7.41-15.13,15.13-7.41,7.41,15.13-15.13,7.41Zm-13.27-27.11l-7.41-15.13,15.13-7.41,7.41,15.13-15.13,7.41Zm-13.27-27.11l-7.41-15.13,15.13-7.41,7.41,15.13-15.13,7.41Zm-13.27-27.11l-7.4-15.13,15.13-7.41,7.4,15.13-15.13,7.41Zm-13.27-27.11l-7.41-15.13,15.13-7.41,7.41,15.13-15.13,7.41Zm-13.27-27.11l-7.41-15.13,15.13-7.41,7.41,15.13-15.13,7.41Zm-13.27-27.11l-7.4-15.13,15.13-7.41,7.4,15.13-15.13,7.41Zm-13.27-27.11l-7.41-15.13,15.13-7.41,7.41,15.13-15.13,7.41Zm-13.27-27.11l-7.41-15.13,15.13-7.41,7.41,15.13-15.13,7.41Zm-13.27-27.11l-7.4-15.13,15.13-7.41,7.4,15.13-15.13,7.41Zm-13.27-27.11l-7.41-15.13,15.13-7.41,7.41,15.13-15.13,7.41Zm178.35,364.45l15.13-7.41,7.41,15.13-15.13,7.41-7.41-15.13Zm-176.49-398.97l-15.13,7.41-7.41-15.13,15.13-7.41,7.41,15.13Z" opacity=".12" stroke-width="0"/>
                <g>
                  <path d="m1732.15,601.05l-318.54,155.89c-8.8,4.31-12.44,14.93-8.13,23.73l229.99,469.97c4.31,8.8,14.93,12.44,23.73,8.13l318.54-155.89c8.8-4.31,12.44-14.93,8.13-23.72l-229.99-469.97c-4.31-8.8-14.93-12.44-23.72-8.14Zm-87.64,615.32l-15.13,7.41-7.41-15.13,15.13-7.41,7.41,15.13Zm-13.26-27.1l-15.13,7.41-7.41-15.13,15.13-7.41,7.41,15.13Zm-13.27-27.11l-15.13,7.41-7.41-15.13,15.13-7.41,7.41,15.13Zm-13.27-27.11l-15.13,7.41-7.41-15.13,15.13-7.41,7.41,15.13Zm-13.27-27.11l-15.13,7.41-7.41-15.13,15.13-7.41,7.41,15.13Zm-13.27-27.11l-15.13,7.41-7.41-15.13,15.13-7.41,7.41,15.13Zm-13.27-27.11l-15.13,7.41-7.41-15.13,15.13-7.41,7.41,15.13Zm-13.27-27.11l-15.13,7.41-7.4-15.13,15.13-7.41,7.4,15.13Zm-13.27-27.11l-15.13,7.41-7.41-15.13,15.13-7.41,7.41,15.13Zm-13.27-27.11l-15.13,7.41-7.41-15.13,15.13-7.41,7.41,15.13Zm-13.27-27.11l-15.13,7.41-7.4-15.13,15.13-7.41,7.4,15.13Zm-13.27-27.11l-15.13,7.41-7.41-15.13,15.13-7.41,7.41,15.13Zm-13.27-27.11l-15.13,7.41-7.41-15.13,15.13-7.41,7.41,15.13Zm-13.27-27.11l-15.13,7.41-7.4-15.13,15.13-7.41,7.4,15.13Zm-13.27-27.11l-15.13,7.41-7.41-15.13,15.13-7.41,7.41,15.13Zm-13.27-27.11l-15.13,7.41-7.41-15.13,15.13-7.41,7.41,15.13Z" fill="#fafafa" stroke-width="0"/>
                  <g>
                    <path d="m1748.35,650.43l-288.82,141.34c-.05.03-.12,0-.14-.05s0-.12.05-.14l288.82-141.34c.05-.03.12,0,.14.05s0,.12-.05.14Z" stroke-width="0"/>
                    <path d="m1762.78,679.9l-288.82,141.34c-.05.03-.12,0-.14-.05s0-.12.05-.14l288.82-141.34c.05-.03.12,0,.14.05s0,.12-.05.14Z" stroke-width="0"/>
                    <path d="m1777.2,709.38l-288.82,141.34c-.05.03-.12,0-.14-.05s0-.12.05-.14l288.82-141.34c.05-.03.12,0,.14.05s0,.12-.05.14Z" stroke-width="0"/>
                    <path d="m1791.63,738.86l-288.82,141.34c-.05.03-.12,0-.14-.05s0-.12.05-.14l288.82-141.34c.05-.03.12,0,.14.05s0,.12-.05.14Z" stroke-width="0"/>
                    <path d="m1806.05,768.33l-288.82,141.34c-.05.03-.12,0-.14-.05s0-.12.05-.14l288.82-141.34c.05-.03.12,0,.14.05s0,.12-.05.14Z" stroke-width="0"/>
                    <path d="m1820.48,797.81l-288.82,141.34c-.05.03-.12,0-.14-.05s0-.12.05-.14l288.82-141.34c.05-.03.12,0,.14.05s0,.12-.05.14Z" stroke-width="0"/>
                    <path d="m1834.9,827.28l-288.82,141.34c-.05.03-.12,0-.14-.05s0-.12.05-.14l288.82-141.34c.05-.03.12,0,.14.05s0,.12-.05.14Z" stroke-width="0"/>
                    <path d="m1849.32,856.76l-288.82,141.34c-.05.03-.12,0-.14-.05s0-.12.05-.14l288.82-141.34c.05-.03.12,0,.14.05s0,.12-.05.14Z" stroke-width="0"/>
                    <path d="m1863.75,886.23l-288.82,141.34c-.05.03-.12,0-.14-.05s0-.12.05-.14l288.82-141.34c.05-.03.12,0,.14.05s0,.12-.05.14Z" stroke-width="0"/>
                    <path d="m1878.17,915.71l-288.82,141.34c-.05.03-.12,0-.14-.05s0-.12.05-.14l288.82-141.34c.05-.03.12,0,.14.05s0,.12-.05.14Z" stroke-width="0"/>
                    <path d="m1892.6,945.19l-288.82,141.34c-.05.03-.12,0-.14-.05s0-.12.05-.14l288.82-141.34c.05-.03.12,0,.14.05s0,.12-.05.14Z" stroke-width="0"/>
                    <path d="m1907.02,974.66l-288.82,141.34c-.05.03-.12,0-.14-.05s0-.12.05-.14l288.82-141.34c.05-.03.12,0,.14.05s0,.12-.05.14Z" stroke-width="0"/>
                    <path d="m1921.45,1004.14l-288.82,141.34c-.05.03-.12,0-.14-.05s0-.12.05-.14l288.82-141.34c.05-.03.12,0,.14.05s0,.12-.05.14Z" stroke-width="0"/>
                    <path d="m1935.87,1033.61l-288.82,141.34c-.05.03-.12,0-.14-.05s0-.12.05-.14l288.82-141.34c.05-.03.12,0,.14.05s0,.12-.05.14Z" stroke-width="0"/>
                    <path d="m1950.3,1063.09l-288.82,141.34c-.05.03-.12,0-.14-.05s0-.12.05-.14l288.82-141.34c.05-.03.12,0,.14.05s0,.12-.05.14Z" stroke-width="0"/>
                  </g>
                </g>
              </g>
              <g>
                <g>
                  <path d="m1434.9,801.97c.37.76.14,1.64-.53,1.97l-6.01,2.94-5.25,2.56-8.71,4.26-7.25,3.55c-.67.33-1.5-.03-1.87-.79-.37-.76-.14-1.64.53-1.97l7.25-3.55,8.71-4.26,5.25-2.57,6-2.94c.66-.32,1.5.03,1.87.79Z" fill="gray" stroke-width="0"/>
                  <path d="m1438.04,808.41c.37.76.13,1.64-.53,1.97l-6,2.94-5.26,2.57-8.71,4.26-7.25,3.55c-.66.32-1.5-.03-1.87-.79-.37-.77-.14-1.64.53-1.97l7.26-3.55,8.71-4.26,5.25-2.57,6.01-2.94c.66-.32,1.5.03,1.87.79Z" fill="gray" stroke-width="0"/>
                </g>
                <g>
                  <path d="m1448.13,829.06c.37.76.13,1.64-.53,1.97l-6,2.94-5.25,2.57-8.71,4.26-7.25,3.55c-.66.32-1.5-.03-1.87-.79-.37-.77-.14-1.64.53-1.97l7.26-3.55,8.71-4.26,5.25-2.57,6.01-2.94c.66-.33,1.5.03,1.87.79Z" fill="gray" stroke-width="0"/>
                  <path d="m1451.27,835.5c.37.76.14,1.64-.53,1.97l-6,2.94-5.26,2.57-8.71,4.26-7.25,3.55c-.67.33-1.5-.03-1.87-.79-.37-.76-.13-1.64.53-1.97l7.25-3.55,8.71-4.26,5.25-2.57,6-2.94c.66-.32,1.5.03,1.87.79Z" fill="gray" stroke-width="0"/>
                </g>
                <g>
                  <path d="m1461.33,856.17c.37.76.14,1.64-.53,1.97l-6,2.94-5.26,2.57-8.71,4.26-7.25,3.55c-.66.32-1.5-.03-1.87-.79-.37-.76-.14-1.64.53-1.97l7.25-3.55,8.71-4.26,5.26-2.57,6-2.93c.66-.32,1.5.03,1.87.79Z" fill="gray" stroke-width="0"/>
                  <path d="m1464.47,862.62c.37.76.13,1.64-.53,1.97l-6,2.94-5.25,2.57-8.71,4.26-7.25,3.55c-.66.32-1.5-.03-1.87-.79-.38-.77-.14-1.64.53-1.97l7.26-3.55,8.71-4.26,5.26-2.57,6-2.94c.66-.33,1.5.03,1.87.8Z" fill="gray" stroke-width="0"/>
                </g>
                <g>
                  <path d="m1474.55,883.28c.37.76.13,1.64-.53,1.96l-6.01,2.94-5.25,2.57-8.71,4.26-7.26,3.55c-.66.32-1.5-.03-1.87-.8-.37-.76-.14-1.64.53-1.96l7.25-3.55,8.71-4.26,5.25-2.57,6.01-2.94c.66-.33,1.5.03,1.87.79Z" fill="gray" stroke-width="0"/>
                  <path d="m1477.68,889.72c.37.76.14,1.64-.53,1.97l-6,2.94-5.26,2.57-8.71,4.26-7.25,3.55c-.66.32-1.5-.03-1.87-.79-.37-.76-.13-1.64.53-1.97l7.25-3.55,8.71-4.26,5.25-2.57,6-2.94c.66-.32,1.5.03,1.87.79Z" fill="gray" stroke-width="0"/>
                </g>
                <g>
                  <path d="m1487.76,910.38c.37.76.14,1.64-.53,1.97l-6,2.94-5.25,2.57-8.71,4.26-7.25,3.55c-.66.32-1.5-.03-1.87-.79-.37-.76-.14-1.65.53-1.97l7.26-3.55h0s8.7-4.26,8.7-4.26l5.25-2.57,6-2.94c.67-.33,1.5.03,1.87.79Z" fill="gray" stroke-width="0"/>
                  <path d="m1490.9,916.82c.37.76.13,1.64-.53,1.96l-6,2.94-5.25,2.57-8.71,4.26-7.26,3.55c-.66.32-1.5-.03-1.87-.8-.38-.76-.14-1.64.53-1.97l7.25-3.55,8.71-4.26,5.25-2.57,6-2.94c.66-.33,1.5.03,1.87.79Z" fill="gray" stroke-width="0"/>
                </g>
                <g>
                  <path d="m1500.98,937.48c.37.76.13,1.64-.53,1.96l-6,2.94-5.26,2.57-8.71,4.26-7.25,3.55c-.66.33-1.5-.02-1.87-.79-.37-.76-.13-1.64.53-1.96l7.25-3.55,8.71-4.26,5.25-2.57,6-2.94c.66-.32,1.5.03,1.88.8Z" fill="gray" stroke-width="0"/>
                  <path d="m1504.11,943.92c.37.76.14,1.64-.53,1.97l-6,2.94-5.25,2.57-8.71,4.26-7.25,3.55c-.66.32-1.5-.03-1.87-.79-.37-.76-.14-1.64.53-1.97l7.25-3.55h0s8.7-4.26,8.7-4.26l5.26-2.57,6-2.93c.67-.33,1.5.03,1.87.79Z" fill="gray" stroke-width="0"/>
                </g>
                <g>
                  <path d="m1514.19,964.58c.37.76.14,1.64-.53,1.97l-6,2.94-5.25,2.57-8.71,4.26-7.25,3.55c-.66.32-1.5-.03-1.87-.79-.37-.76-.14-1.64.53-1.97l7.25-3.55,8.71-4.26,5.25-2.57,6.01-2.94c.66-.32,1.5.03,1.87.79Z" fill="gray" stroke-width="0"/>
                  <path d="m1517.33,971.02c.37.76.13,1.64-.53,1.96l-6,2.94-5.25,2.57-8.71,4.26-7.26,3.55c-.66.32-1.5-.03-1.87-.8-.37-.76-.14-1.64.53-1.97l7.25-3.55,8.71-4.26,5.25-2.57,6-2.94c.66-.33,1.5.03,1.87.79Z" fill="gray" stroke-width="0"/>
                </g>
                <g>
                  <path d="m1527.4,991.68c.37.77.14,1.64-.53,1.97l-6,2.94-5.25,2.57-8.71,4.26-7.25,3.55c-.66.33-1.5-.03-1.87-.79-.37-.76-.13-1.64.53-1.96l7.25-3.55,8.71-4.26,5.25-2.57,6-2.94c.66-.32,1.5.03,1.87.79Z" fill="gray" stroke-width="0"/>
                  <path d="m1530.54,998.12c.37.76.14,1.64-.53,1.97l-6,2.94-5.25,2.57-8.71,4.26-7.25,3.55c-.66.32-1.5-.03-1.87-.79-.37-.76-.14-1.64.53-1.97l7.25-3.55,8.71-4.26,5.25-2.57,6-2.94c.66-.32,1.5.03,1.87.79Z" fill="gray" stroke-width="0"/>
                </g>
                <g>
                  <path d="m1540.62,1018.78c.37.76.14,1.64-.53,1.97l-6,2.94-5.25,2.57-8.71,4.26-7.25,3.55c-.66.32-1.5-.03-1.87-.79-.37-.76-.14-1.64.53-1.97l7.25-3.55,8.71-4.26,5.25-2.57,6-2.94c.66-.32,1.5.03,1.87.8Z" fill="gray" stroke-width="0"/>
                  <path d="m1543.76,1025.22c.37.76.13,1.64-.53,1.96l-6.01,2.94-5.25,2.57-8.71,4.26-7.25,3.55c-.67.33-1.51-.03-1.88-.8-.37-.76-.13-1.64.53-1.96l7.25-3.55,8.71-4.26,5.25-2.57,6.01-2.94c.66-.33,1.5.03,1.87.79Z" fill="gray" stroke-width="0"/>
                </g>
                <g>
                  <path d="m1553.83,1045.88c.37.77.14,1.64-.53,1.97l-6,2.94-5.25,2.57-8.71,4.26-7.25,3.55c-.66.33-1.5-.03-1.87-.79-.37-.76-.13-1.64.53-1.96l7.25-3.55,8.71-4.26,5.25-2.57,6-2.94c.66-.32,1.5.03,1.87.79Z" fill="gray" stroke-width="0"/>
                  <path d="m1556.97,1052.32c.37.76.14,1.64-.53,1.97l-6,2.94-5.26,2.57-8.71,4.26-7.25,3.55c-.66.32-1.5-.03-1.87-.79-.37-.76-.14-1.64.53-1.97l7.26-3.55,8.71-4.26,5.25-2.57,6-2.94c.66-.32,1.5.03,1.87.8Z" fill="gray" stroke-width="0"/>
                </g>
                <g>
                  <path d="m1567.05,1072.98c.37.76.14,1.64-.53,1.97l-6,2.94-5.26,2.57-8.71,4.26-7.25,3.55c-.66.32-1.5-.03-1.87-.8-.37-.76-.14-1.64.53-1.97l7.25-3.55,8.71-4.26,5.25-2.57,6-2.94c.66-.32,1.5.03,1.87.79Z" fill="gray" stroke-width="0"/>
                  <path d="m1570.19,1079.42c.37.76.13,1.64-.53,1.96l-6,2.94-5.25,2.57-8.71,4.26-7.25,3.55c-.66.33-1.5-.03-1.87-.79-.37-.76-.13-1.64.53-1.96l7.25-3.55,8.71-4.26,5.25-2.57,6-2.94c.66-.32,1.5.03,1.88.79Z" fill="gray" stroke-width="0"/>
                </g>
              </g>
            </g>
          </g>
          <path d="m1694.81,784.1l-24.83-24.14-4.91-4.78c-1.51-1.47-3.96-1.48-5.68-.05-.05.05-.11.09-.16.14l-1.33,1.21-5.85-6.42-1.05-1.16c-1.61-1.77-4.35-1.89-6.11-.29l-1.61,1.47-1.61,1.47c-1.77,1.61-1.89,4.35-.29,6.11l1.05,1.16,5.85,6.42-1.25,1.14c-.05.05-.11.1-.16.15-1.58,1.57-1.8,4.02-.48,5.66l4.3,5.34,11.18,13.89c-.09.15-.17.32-.26.48-.02.04-.04.08-.06.12-.07.15-.15.3-.22.46-.01.03-.02.05-.04.08-.08.19-.16.38-.24.58-.01.03-.03.07-.04.1-.06.17-.13.34-.19.52-.02.05-.04.1-.05.15-.07.21-.14.43-.21.66,0,.01,0,.02,0,.03-.06.21-.12.44-.17.66-.02.06-.03.13-.04.19-.05.21-.09.41-.13.63,0,.04-.02.09-.02.13-.04.26-.08.52-.12.8,0,.02,0,.04,0,.06h0c-.13,1.02-.17,2.14-.11,3.36,0,.04,0,.09,0,.13.71,12.39,12.01,24.08,13.23,25.31,22.84,24.09,45.69,48.19,68.54,72.28.92-1.46,1.79-3.69.79-6.53-1.56-4.44-6.82-8.03-8.64-9.3-21.63-15.15-45.97-46.99-52.7-57.12-.81-1.23-1.67-2.59-2.46-4.05-1.06-1.96-1.98-4.11-2.47-6.32h0c-.17-.74-.29-1.49-.34-2.25-.11-1.39,0-2.59.22-3.61,1.2,1.4,2.42,2.78,3.66,4.14l77.84,85.45,7.52,8.05,10.59,11.32,15.12,16.18c7.63,8.16,15.62,15.96,23.97,23.4l38.87,32.97-.05.05,5.32,3.33c.81.51,1.83.47,2.6-.07l7.49,6.3c.67.56,1.45.45,1.98.03.03-.02.06-.04.08-.07.53-.48.76-1.3.23-2.05l-5.59-8.07c.5-.7.59-1.64.19-2.44l-2.73-5.41.03-.02-29.33-41.94c-6.62-9-13.65-17.69-21.06-26.04l-14.7-16.56-10.29-11.59-7.31-8.23-77.84-85.45c-2.54-2.79-5.18-5.51-7.89-8.15Z" fill="#1a1a1a" opacity=".33" stroke-width="0"/>
          <g>
            <g>
              <rect x="1647.8" y="739.98" width="13.02" height="26.04" rx="4.33" ry="4.33" transform="translate(-77.47 1304.98) rotate(-42.15)" fill="#255cc0" stroke-width="0"/>
              <path d="m1665.09,783.13l14.44,15.95c-.45.74-.98,1.81-1.29,3.25-.22,1.02-.33,2.22-.23,3.61.22,3.01,1.38,5.96,2.79,8.58.78,1.47,1.63,2.83,2.44,4.06,6.7,10.15,30.94,42.06,52.51,57.27,1.81,1.28,7.07,4.88,8.61,9.32.99,2.85.12,5.07-.81,6.53-22.76-24.16-45.53-48.32-68.3-72.48-1.22-1.24-12.48-12.96-13.15-25.35,0-.04,0-.09,0-.13-.2-4.14.85-7.08,1.94-9.01.36-.64.73-1.17,1.05-1.6Z" fill="#ff8427" stroke-width="0"/>
              <path d="m1853.42,963.72l9.42,13.69.12.17,4.29,6.24,5.57,8.08c.52.75.29,1.57-.24,2.05-.03.03-.05.05-.08.07-.53.43-1.32.53-1.98-.03l-7.47-6.32-5.81-4.91-.16-.14-12.69-10.74c-.72-.62-.74-1.73-.04-2.36l6.72-6.08c.7-.64,1.81-.51,2.35.27Z" fill="#e8e8e8" stroke-width="0"/>
              <path d="m1864.65,975.78l.1.19,2.71,5.42c.4.8.31,1.74-.2,2.44-.09.13-.21.26-.33.37l-3.64,3.29c-.08.07-.16.13-.24.19-.77.53-1.79.57-2.6.06l-5.3-3.35,9.51-8.61Z" fill="#eb9532" stroke-width="0"/>
              <path d="m1704.86,785.67l77.56,85.68,7.28,8.26,10.25,11.62,14.65,16.6c7.38,8.37,14.39,17.08,20.98,26.1l29.19,42.02-9.42,8.53-.16-.14-38.75-33.08c-8.32-7.46-16.29-15.29-23.89-23.46l-15.06-16.22-10.55-11.35-7.49-8.07-77.56-85.68c-1.23-1.36-2.45-2.75-3.64-4.15-1.26-1.47-2.5-2.97-3.71-4.49l-10.49-13.11-11.14-13.92-4.28-5.35c-1.31-1.65-1.09-4.09.5-5.66.05-.05.1-.1.16-.15l12.23-11.07c.05-.05.11-.1.16-.14,1.72-1.42,4.17-1.41,5.68.07l4.9,4.79,24.75,24.21c2.7,2.64,5.33,5.37,7.86,8.17Z" fill="#255cc0" stroke-width="0"/>
              <path d="m1672.76,753.86l-19.35,17.51-4.61-5.71c-1.42-1.76-1.27-4.28.31-5.86.05-.05.1-.1.16-.15l12.23-11.07c.05-.05.11-.1.16-.14,1.72-1.42,4.25-1.31,5.86.27l5.23,5.15Z" fill="#ff8427" stroke-width="0"/>
              <polygon points="1789.7 879.6 1799.95 891.23 1777.48 911.57 1766.93 900.22 1789.7 879.6" fill="#ff8427" stroke-width="0"/>
              <path d="m1653.3,742.19l1.05,1.16-9.65,8.74-1.05-1.16c-1.6-1.77-1.47-4.51.3-6.11l3.24-2.93c1.77-1.6,4.51-1.47,6.11.3Z" fill="#ff8427" stroke-width="0"/>
            </g>
            <path d="m1645.57,743.35l226.93,250.68c-.53.43-1.32.53-1.98-.03l-7.47-6.32c-.77.53-1.79.57-2.6.06l-5.3-3.35.05-.05-38.75-33.08c-8.32-7.46-16.29-15.29-23.89-23.46l-15.06-16.22-10.55-11.35-7.49-8.07-77.56-85.68c-1.23-1.36-2.45-2.75-3.64-4.15-.22,1.02-.33,2.22-.23,3.61.06.76.17,1.51.34,2.26l-16.13-17.81c.3-2.42,1.05-4.29,1.82-5.65l-11.14-13.92-4.28-5.35c-1.31-1.65-1.09-4.09.5-5.66.05-.05.1-.1.16-.15l1.25-1.13-6.87-7.59c-1.6-1.77-1.47-4.51.3-6.11l1.62-1.46Z" mix-blend-mode="darken" opacity=".25" stroke-width="0"/>
          </g>
        </g>
      </g>
    </g>
  </g>
</svg>