<?xml version="1.0" encoding="UTF-8"?>
<svg xmlns="http://www.w3.org/2000/svg" xmlns:xlink="http://www.w3.org/1999/xlink" viewBox="0 0 1920 1080">
  <defs>
    <linearGradient id="linear-gradient" x1="-4531.23" y1="1660.02" x2="-4609.29" y2="1479.88" gradientTransform="translate(6383.24 1502.4) rotate(34.38)" gradientUnits="userSpaceOnUse">
      <stop offset="0" stop-color="#774f3f"/>
      <stop offset="1" stop-color="#dda780"/>
    </linearGradient>
    <linearGradient id="linear-gradient-2" x1="-4584.92" y1="1524.33" x2="-4534.57" y2="1632.87" gradientTransform="translate(6383.24 1502.4) rotate(34.38)" gradientUnits="userSpaceOnUse">
      <stop offset="0" stop-color="#774f3f"/>
      <stop offset="1" stop-color="#563021"/>
    </linearGradient>
    <linearGradient id="linear-gradient-3" x1="-4605.01" y1="1509.98" x2="-4592.57" y2="1509.98" xlink:href="#linear-gradient-2"/>
    <linearGradient id="linear-gradient-4" x1="-4654.41" y1="1540.14" x2="-4641.98" y2="1540.14" xlink:href="#linear-gradient-2"/>
    <linearGradient id="linear-gradient-5" x1="-4635.59" y1="1505.88" x2="-4627.3" y2="1505.88" xlink:href="#linear-gradient-2"/>
    <linearGradient id="linear-gradient-6" x1="-4586.07" y1="1479.13" x2="-4577.79" y2="1479.13" xlink:href="#linear-gradient-2"/>
    <linearGradient id="linear-gradient-7" x1="-4615.79" y1="1550.56" x2="-4605.43" y2="1550.56" xlink:href="#linear-gradient-2"/>
    <linearGradient id="linear-gradient-8" x1="-4624.08" y1="1564.27" x2="-4617.86" y2="1564.27" xlink:href="#linear-gradient-2"/>
    <linearGradient id="linear-gradient-9" x1="-4617.87" y1="1540.14" x2="-4611.66" y2="1540.14" xlink:href="#linear-gradient-2"/>
    <linearGradient id="linear-gradient-10" x1="-4589.18" y1="1504.84" x2="-4582.97" y2="1504.84" xlink:href="#linear-gradient-2"/>
    <linearGradient id="linear-gradient-11" x1="-4661.09" y1="1553.61" x2="-4654.87" y2="1553.61" xlink:href="#linear-gradient-2"/>
    <linearGradient id="linear-gradient-12" x1="-4622.02" y1="1495.26" x2="-4615.8" y2="1495.26" xlink:href="#linear-gradient-2"/>
    <linearGradient id="linear-gradient-13" x1="-4569.06" y1="1483.27" x2="-4562.84" y2="1483.27" xlink:href="#linear-gradient-2"/>
    <linearGradient id="linear-gradient-14" x1="-4655.91" y1="1590.05" x2="-4649.69" y2="1590.05" xlink:href="#linear-gradient-2"/>
    <linearGradient id="linear-gradient-15" x1="-4646.84" y1="1583.23" x2="-4644.77" y2="1583.23" xlink:href="#linear-gradient-2"/>
    <linearGradient id="linear-gradient-16" x1="-4653.84" y1="1603.52" x2="-4651.77" y2="1603.52" xlink:href="#linear-gradient-2"/>
    <linearGradient id="linear-gradient-17" x1="-4652.8" y1="1576.36" x2="-4650.73" y2="1576.36" xlink:href="#linear-gradient-2"/>
    <linearGradient id="linear-gradient-18" x1="-4634.54" y1="1570.43" x2="-4630.39" y2="1570.43" xlink:href="#linear-gradient-2"/>
    <linearGradient id="linear-gradient-19" x1="-4647.3" y1="1553.61" x2="-4645.23" y2="1553.61" xlink:href="#linear-gradient-2"/>
    <linearGradient id="linear-gradient-20" x1="-4662.12" y1="1548.49" x2="-4660.04" y2="1548.49" xlink:href="#linear-gradient-2"/>
    <linearGradient id="linear-gradient-21" x1="-4664.2" y1="1570.43" x2="-4662.13" y2="1570.43" xlink:href="#linear-gradient-2"/>
    <linearGradient id="linear-gradient-22" x1="-4574.69" y1="1473.95" x2="-4572.62" y2="1473.95" xlink:href="#linear-gradient-2"/>
    <linearGradient id="linear-gradient-23" x1="-4594.65" y1="1482.24" x2="-4592.57" y2="1482.24" xlink:href="#linear-gradient-2"/>
    <linearGradient id="linear-gradient-24" x1="-4640.77" y1="1546.35" x2="-4636.63" y2="1546.35" xlink:href="#linear-gradient-2"/>
    <linearGradient id="linear-gradient-25" x1="-4624.08" y1="1541.17" x2="-4622.01" y2="1541.17" xlink:href="#linear-gradient-2"/>
    <linearGradient id="linear-gradient-26" x1="-4618.9" y1="1523.71" x2="-4614.75" y2="1523.71" xlink:href="#linear-gradient-2"/>
    <linearGradient id="linear-gradient-27" x1="-4640.77" y1="1508.98" x2="-4638.7" y2="1508.98" xlink:href="#linear-gradient-2"/>
    <linearGradient id="linear-gradient-28" x1="-4645.23" y1="1564.27" x2="-4643.16" y2="1564.27" xlink:href="#linear-gradient-2"/>
    <linearGradient id="linear-gradient-29" x1="-4632.47" y1="1561.17" x2="-4630.39" y2="1561.17" xlink:href="#linear-gradient-2"/>
    <linearGradient id="linear-gradient-30" x1="-4563.88" y1="1493.02" x2="-4561.81" y2="1493.02" xlink:href="#linear-gradient-2"/>
    <linearGradient id="linear-gradient-31" x1="-4592.57" y1="1497.7" x2="-4590.5" y2="1497.7" xlink:href="#linear-gradient-2"/>
    <linearGradient id="linear-gradient-32" x1="-4600.26" y1="1491.47" x2="-4598.19" y2="1491.47" xlink:href="#linear-gradient-2"/>
    <linearGradient id="linear-gradient-33" x1="-4562.12" y1="1478.09" x2="-4560.04" y2="1478.09" xlink:href="#linear-gradient-2"/>
    <linearGradient id="linear-gradient-34" x1="-4582.97" y1="1497.7" x2="-4580.89" y2="1497.7" xlink:href="#linear-gradient-2"/>
    <linearGradient id="linear-gradient-35" x1="-4614.76" y1="1486.38" x2="-4612.69" y2="1486.38" xlink:href="#linear-gradient-2"/>
    <linearGradient id="linear-gradient-36" x1="-4550.53" y1="1480.17" x2="-4548.45" y2="1480.17" xlink:href="#linear-gradient-2"/>
    <linearGradient id="linear-gradient-37" x1="-4639.74" y1="1531.85" x2="-4637.66" y2="1531.85" xlink:href="#linear-gradient-2"/>
    <linearGradient id="linear-gradient-38" x1="-4643.02" y1="1521.68" x2="-4640.94" y2="1521.68" xlink:href="#linear-gradient-2"/>
    <linearGradient id="linear-gradient-39" x1="-4626.15" y1="1522.71" x2="-4624.08" y2="1522.71" xlink:href="#linear-gradient-2"/>
    <linearGradient id="linear-gradient-40" x1="-4613.73" y1="1505.88" x2="-4611.66" y2="1505.88" xlink:href="#linear-gradient-2"/>
    <linearGradient id="linear-gradient-41" x1="-4629.37" y1="1495.26" x2="-4627.3" y2="1495.26" xlink:href="#linear-gradient-2"/>
    <linearGradient id="linear-gradient-42" x1="-4609.58" y1="1516.2" x2="-4607.51" y2="1516.2" xlink:href="#linear-gradient-2"/>
    <linearGradient id="linear-gradient-43" x1="-4635.5" y1="1521.64" x2="-4631.36" y2="1521.64" xlink:href="#linear-gradient-2"/>
    <linearGradient id="linear-gradient-44" x1="-4625.11" y1="1510.02" x2="-4620.97" y2="1510.02" xlink:href="#linear-gradient-2"/>
    <linearGradient id="linear-gradient-45" x1="-4623.04" y1="1547.45" x2="-4618.9" y2="1547.45" xlink:href="#linear-gradient-2"/>
    <linearGradient id="linear-gradient-46" x1="-4603.37" y1="1523.71" x2="-4599.22" y2="1523.71" xlink:href="#linear-gradient-2"/>
    <linearGradient id="linear-gradient-47" x1="-4650.99" y1="1525.63" x2="-4644.77" y2="1525.63" xlink:href="#linear-gradient-2"/>
    <linearGradient id="linear-gradient-48" x1="-4660.05" y1="1533.92" x2="-4655.91" y2="1533.92" xlink:href="#linear-gradient-2"/>
    <linearGradient id="linear-gradient-49" x1="-4664.2" y1="1583.23" x2="-4660.05" y2="1583.23" xlink:href="#linear-gradient-2"/>
    <linearGradient id="linear-gradient-50" x1="-4657.98" y1="1567.1" x2="-4653.84" y2="1567.1" xlink:href="#linear-gradient-2"/>
    <linearGradient id="linear-gradient-51" x1="-4605.44" y1="1498.73" x2="-4601.3" y2="1498.73" xlink:href="#linear-gradient-2"/>
    <linearGradient id="linear-gradient-52" x1="-4603.37" y1="1481.2" x2="-4599.22" y2="1481.2" xlink:href="#linear-gradient-2"/>
    <linearGradient id="linear-gradient-53" x1="-4576.77" y1="1489.49" x2="-4572.62" y2="1489.49" xlink:href="#linear-gradient-2"/>
    <linearGradient id="linear-gradient-54" x1="-4548.45" y1="1490.08" x2="-4544.31" y2="1490.08" xlink:href="#linear-gradient-2"/>
    <linearGradient id="linear-gradient-55" x1="-4538.23" y1="1485.34" x2="-4532.01" y2="1485.34" xlink:href="#linear-gradient-2"/>
    <clipPath id="clippath">
      <rect x=".03" y="-.88" width="964.7" height="599.24" fill="none" stroke-width="0"/>
    </clipPath>
    <clipPath id="clippath-1">
      <rect x="1397.9" y="583.72" width="522.07" height="497.16" fill="none" stroke-width="0"/>
    </clipPath>
  </defs>
  <g isolation="isolate">
    <g id="Layer_1" data-name="Layer 1">
      <g>
        <g>
          <circle cx="1733.68" cy="208.39" r="132.5" fill="#1a1a1a" opacity=".33" stroke-width="0"/>
          <path d="m1846.84,366.66c-.25.2-.5.4-.76.58-3.28,2.35-7.2,3.29-10.97,2.89-4.07-.43-7.98-2.41-10.75-5.84l-36.78-45.43,24.85-20.12,36.78,45.43c5.35,6.61,4.56,16.2-1.64,21.86-.23.22-.47.42-.72.63Z" fill="#0d43a7" stroke-width="0"/>
          <path d="m1845.35,367.87c-3.43,2.78-7.66,3.9-11.73,3.47-4.07-.43-7.98-2.41-10.75-5.84l-36.78-45.43,1.49-1.21,36.78,45.43c2.78,3.43,6.68,5.41,10.75,5.84,3.77.4,7.68-.54,10.97-2.89-.23.22-.47.42-.72.63Z" fill="#0a3480" stroke-width="0"/>
          <path d="m1848.33,365.45c-.25.2-.5.4-.76.58,6.2-5.66,6.99-15.25,1.64-21.86l-36.78-45.43,1.49-1.21,36.78,45.43c5.55,6.86,4.5,16.93-2.37,22.48Z" fill="#0a3480" stroke-width="0"/>
          <path d="m1795.75,328.96l24.85-20.12,9.05,11.18s-4.23,6.89-11.05,12.47c-6.82,5.58-13.12,8.49-13.12,8.49l-9.73-12.02Z" fill="#0a3480" stroke-width="0"/>
          <circle cx="1725.41" cy="216.66" r="132.5" fill="#0d43a7" stroke-width="0"/>
          <circle cx="1725.41" cy="216.66" r="129.31" transform="translate(352.16 1283.51) rotate(-45)" fill="#255cc0" stroke-width="0"/>
          <circle cx="1725.41" cy="216.66" r="109.32" fill="#0d43a7" stroke-width="0"/>
          <g>
            <path d="m1810.07,274.64c-32.06,46.86-96.03,58.86-142.88,26.8-12.59-8.61-22.66-19.52-30.03-31.79-20.09-33.4-20.21-76.82,3.23-111.09,32.06-46.86,96.03-58.86,142.89-26.8,22.64,15.48,37.14,38.42,42.47,63.27,5.7,26.59.9,55.39-15.67,79.61Z" fill="url(#linear-gradient)" stroke-width="0"/>
            <path d="m1644.42,234.34c-.24,1.71-.31,3.42-.22,5.11.52,6.29,2.18,12.31,4.72,17.94.85,1.88,1.79,3.71,2.82,5.49,2.14,3.58,4.55,6.95,7.19,10.12,1.32,1.58,2.69,3.11,4.12,4.59,12.68,13.68,29.67,22.92,47.85,26.24,2.04.4,4.1.74,6.18.98,2.08.25,4.18.41,6.29.47,1.34.1,2.68.16,4.02.18,4.03.07,8.06-.21,12.07-.87,1.75-.31,3.5-.68,5.23-1.1,5.19-1.26,10.28-2.98,15.14-5.06,1.9-.9,3.78-1.88,5.62-2.92,5.52-3.12,10.76-6.74,15.59-10.75,1.43-1.19,2.83-2.41,4.2-3.66,4.28-4.08,8.34-8.57,11.96-13.38,1.21-1.61,2.36-3.25,3.46-4.92,12.72-17.68,16.93-41.91,4.69-60.89-.65-1.22-1.36-2.39-2.11-3.54-6.01-10.7-16.38-17.8-27.4-22.45-.98-.43-1.96-.84-2.95-1.22-5.95-2.26-12.37-3.21-19.06-2.3-.9.09-1.81.23-2.72.43-.91.19-1.82.44-2.73.75-11.54,3.86-16.59,15.07-22.67,24.63-3.72,5.84-8.13,11.43-13.97,15.16-5.84,3.73-13.31,5.39-19.83,3.04-8.21-2.95-13.87-11.65-22.51-12.84-1.54-.21-3.07-.15-4.56.13-1.49.29-2.94.8-4.32,1.49-9.29,5.09-13.87,15.27-15.69,25.56-.16,1.19-.29,2.38-.39,3.57Z" fill="url(#linear-gradient-2)" stroke-width="0"/>
            <path d="m1740.46,155.62c-1.94,2.83-5.81,3.56-8.64,1.62-2.83-1.94-3.56-5.81-1.62-8.64,1.94-2.83,5.81-3.56,8.64-1.62,2.83,1.94,3.56,5.81,1.62,8.64Z" fill="url(#linear-gradient-3)" stroke-width="0"/>
            <path d="m1682.65,152.61c-1.94,2.83-5.81,3.56-8.64,1.62-2.83-1.94-3.56-5.81-1.62-8.64,1.94-2.83,5.81-3.56,8.64-1.62,2.83,1.94,3.56,5.81,1.62,8.64Z" fill="url(#linear-gradient-4)" stroke-width="0"/>
            <path d="m1714.11,132.62c-1.29,1.89-3.87,2.37-5.76,1.08-1.89-1.29-2.37-3.87-1.08-5.76,1.29-1.89,3.87-2.37,5.76-1.08,1.89,1.29,2.37,3.87,1.08,5.76Z" fill="url(#linear-gradient-5)" stroke-width="0"/>
            <path d="m1770.08,138.51c-1.29,1.89-3.87,2.37-5.76,1.08-1.89-1.29-2.37-3.87-1.08-5.76,1.29-1.89,3.87-2.37,5.76-1.08,1.89,1.29,2.37,3.87,1.08,5.76Z" fill="url(#linear-gradient-6)" stroke-width="0"/>
            <path d="m1706.93,181.85c-1.62,2.36-4.84,2.97-7.2,1.35-2.36-1.62-2.97-4.84-1.35-7.2,1.62-2.36,4.84-2.97,7.2-1.35,2.36,1.62,2.97,4.84,1.35,7.2Z" fill="url(#linear-gradient-7)" stroke-width="0"/>
            <path d="m1688.93,186.15c-.97,1.42-2.9,1.78-4.32.81-1.42-.97-1.78-2.9-.81-4.32.97-1.42,2.9-1.78,4.32-.81,1.42.97,1.78,2.9.81,4.32Z" fill="url(#linear-gradient-8)" stroke-width="0"/>
            <path d="m1707.68,169.73c-.97,1.42-2.9,1.78-4.32.81-1.42-.97-1.78-2.9-.81-4.32.97-1.42,2.9-1.78,4.32-.81,1.42.97,1.78,2.9.81,4.32Z" fill="url(#linear-gradient-9)" stroke-width="0"/>
            <path d="m1751.29,156.8c-.97,1.42-2.9,1.78-4.32.81-1.42-.97-1.78-2.9-.81-4.32.97-1.42,2.9-1.78,4.32-.81,1.42.97,1.78,2.9.81,4.32Z" fill="url(#linear-gradient-10)" stroke-width="0"/>
            <path d="m1664.41,156.45c-.97,1.42-2.9,1.78-4.32.81-1.42-.97-1.78-2.9-.81-4.32.97-1.42,2.9-1.78,4.32-.81s1.78,2.9.81,4.32Z" fill="url(#linear-gradient-11)" stroke-width="0"/>
            <path d="m1729.6,130.35c-.97,1.42-2.9,1.78-4.32.81-1.42-.97-1.78-2.9-.81-4.32.97-1.42,2.9-1.78,4.32-.81,1.42.97,1.78,2.9.81,4.32Z" fill="url(#linear-gradient-12)" stroke-width="0"/>
            <path d="m1780.07,150.36c-.97,1.42-2.9,1.78-4.32.81-1.42-.97-1.78-2.9-.81-4.32.97-1.42,2.9-1.78,4.32-.81,1.42.97,1.78,2.9.81,4.32Z" fill="url(#linear-gradient-13)" stroke-width="0"/>
            <path d="m1648.11,189.45c-.97,1.42-2.9,1.78-4.32.81-1.42-.97-1.78-2.9-.81-4.32.97-1.42,2.9-1.78,4.32-.81,1.42.97,1.78,2.9.81,4.32Z" fill="url(#linear-gradient-14)" stroke-width="0"/>
            <path d="m1656.02,186.6c-.32.47-.97.59-1.44.27-.47-.32-.59-.97-.27-1.44.32-.47.97-.59,1.44-.27.47.32.59.97.27,1.44Z" fill="url(#linear-gradient-15)" stroke-width="0"/>
            <path d="m1638.79,199.4c-.32.47-.97.59-1.44.27-.47-.32-.59-.97-.27-1.44.32-.47.97-.59,1.44-.27.47.32.59.97.27,1.44Z" fill="url(#linear-gradient-16)" stroke-width="0"/>
            <path d="m1654.98,177.57c-.32.47-.97.59-1.44.27-.47-.32-.59-.97-.27-1.44.32-.47.97-.59,1.44-.27s.59.97.27,1.44Z" fill="url(#linear-gradient-17)" stroke-width="0"/>
            <path d="m1675.12,184.15c-.65.94-1.94,1.19-2.88.54s-1.19-1.94-.54-2.88,1.94-1.19,2.88-.54,1.19,1.94.54,2.88Z" fill="url(#linear-gradient-18)" stroke-width="0"/>
            <path d="m1672.37,161.89c-.32.47-.97.59-1.44.27-.47-.32-.59-.97-.27-1.44.32-.47.97-.59,1.44-.27.47.32.59.97.27,1.44Z" fill="url(#linear-gradient-19)" stroke-width="0"/>
            <path d="m1663.03,149.31c-.32.47-.97.59-1.44.27-.47-.32-.59-.97-.27-1.44.32-.47.97-.59,1.44-.27.47.32.59.97.27,1.44Z" fill="url(#linear-gradient-20)" stroke-width="0"/>
            <path d="m1648.93,166.24c-.32.47-.97.59-1.44.27-.47-.32-.59-.97-.27-1.44.32-.47.97-.59,1.44-.27.47.32.59.97.27,1.44Z" fill="url(#linear-gradient-21)" stroke-width="0"/>
            <path d="m1777.27,137.15c-.32.47-.97.59-1.44.27-.47-.32-.59-.97-.27-1.44.32-.47.97-.59,1.44-.27.47.32.59.97.27,1.44Z" fill="url(#linear-gradient-22)" stroke-width="0"/>
            <path d="m1756.12,132.72c-.32.47-.97.59-1.44.27-.47-.32-.59-.97-.27-1.44.32-.47.97-.59,1.44-.27.47.32.59.97.27,1.44Z" fill="url(#linear-gradient-23)" stroke-width="0"/>
            <path d="m1683.56,160.77c-.65.94-1.94,1.19-2.88.54-.94-.65-1.19-1.94-.54-2.88.65-.94,1.94-1.19,2.88-.54s1.19,1.94.54,2.88Z" fill="url(#linear-gradient-24)" stroke-width="0"/>
            <path d="m1698.55,164.75c-.32.47-.97.59-1.44.27s-.59-.97-.27-1.44c.32-.47.97-.59,1.44-.27.47.32.59.97.27,1.44Z" fill="url(#linear-gradient-25)" stroke-width="0"/>
            <path d="m1714.4,154.43c-.65.94-1.94,1.19-2.88.54-.94-.65-1.19-1.94-.54-2.88s1.94-1.19,2.88-.54c.94.65,1.19,1.94.54,2.88Z" fill="url(#linear-gradient-26)" stroke-width="0"/>
            <path d="m1702.95,128.75c-.32.47-.97.59-1.44.27-.47-.32-.59-.97-.27-1.44.32-.47.97-.59,1.44-.27.47.32.59.97.27,1.44Z" fill="url(#linear-gradient-27)" stroke-width="0"/>
            <path d="m1668.05,171.87c-.32.47-.97.59-1.44.27-.47-.32-.59-.97-.27-1.44.32-.47.97-.59,1.44-.27.47.32.59.97.27,1.44Z" fill="url(#linear-gradient-28)" stroke-width="0"/>
            <path d="m1680.34,176.51c-.32.47-.97.59-1.44.27-.47-.32-.59-.97-.27-1.44.32-.47.97-.59,1.44-.27.47.32.59.97.27,1.44Z" fill="url(#linear-gradient-29)" stroke-width="0"/>
            <path d="m1775.42,158.99c-.32.47-.97.59-1.44.27-.47-.32-.59-.97-.27-1.44.32-.47.97-.59,1.44-.27.47.32.59.97.27,1.44Z" fill="url(#linear-gradient-30)" stroke-width="0"/>
            <path d="m1749.1,146.65c-.32.47-.97.59-1.44.27-.47-.32-.59-.97-.27-1.44.32-.47.97-.59,1.44-.27.47.32.59.97.27,1.44Z" fill="url(#linear-gradient-31)" stroke-width="0"/>
            <path d="m1746.28,137.17c-.32.47-.97.59-1.44.27-.47-.32-.59-.97-.27-1.44.32-.47.97-.59,1.44-.27.47.32.59.97.27,1.44Z" fill="url(#linear-gradient-32)" stroke-width="0"/>
            <path d="m1785.31,147.67c-.32.47-.97.59-1.44.27-.47-.32-.59-.97-.27-1.44.32-.47.97-.59,1.44-.27.47.32.59.97.27,1.44Z" fill="url(#linear-gradient-33)" stroke-width="0"/>
            <path d="m1757.03,152.08c-.32.47-.97.59-1.44.27-.47-.32-.59-.97-.27-1.44.32-.47.97-.59,1.44-.27.47.32.59.97.27,1.44Z" fill="url(#linear-gradient-34)" stroke-width="0"/>
            <path d="m1737.18,124.78c-.32.47-.97.59-1.44.27-.47-.32-.59-.97-.27-1.44.32-.47.97-.59,1.44-.27.47.32.59.97.27,1.44Z" fill="url(#linear-gradient-35)" stroke-width="0"/>
            <path d="m1793.7,155.92c-.32.47-.97.59-1.44.27-.47-.32-.59-.97-.27-1.44.32-.47.97-.59,1.44-.27.47.32.59.97.27,1.44Z" fill="url(#linear-gradient-36)" stroke-width="0"/>
            <path d="m1690.9,148.21c-.32.47-.97.59-1.44.27-.47-.32-.59-.97-.27-1.44.32-.47.97-.59,1.44-.27.47.32.59.97.27,1.44Z" fill="url(#linear-gradient-37)" stroke-width="0"/>
            <path d="m1693.93,137.96c-.32.47-.97.59-1.44.27-.47-.32-.59-.97-.27-1.44.32-.47.97-.59,1.44-.27.47.32.59.97.27,1.44Z" fill="url(#linear-gradient-38)" stroke-width="0"/>
            <path d="m1707.27,148.34c-.32.47-.97.59-1.44.27-.47-.32-.59-.97-.27-1.44.32-.47.97-.59,1.44-.27.47.32.59.97.27,1.44Z" fill="url(#linear-gradient-39)" stroke-width="0"/>
            <path d="m1727.03,141.46c-.32.47-.97.59-1.44.27-.47-.32-.59-.97-.27-1.44.32-.47.97-.59,1.44-.27.47.32.59.97.27,1.44Z" fill="url(#linear-gradient-40)" stroke-width="0"/>
            <path d="m1720.11,123.86c-.32.47-.97.59-1.44.27-.47-.32-.59-.97-.27-1.44.32-.47.97-.59,1.44-.27s.59.97.27,1.44Z" fill="url(#linear-gradient-41)" stroke-width="0"/>
            <path d="m1724.62,152.31c-.32.47-.97.59-1.44.27-.47-.32-.59-.97-.27-1.44.32-.47.97-.59,1.44-.27.47.32.59.97.27,1.44Z" fill="url(#linear-gradient-42)" stroke-width="0"/>
            <path d="m1701.87,143.34c-.65.94-1.94,1.19-2.88.54s-1.19-1.94-.54-2.88,1.94-1.19,2.88-.54c.94.65,1.19,1.94.54,2.88Z" fill="url(#linear-gradient-43)" stroke-width="0"/>
            <path d="m1717,139.62c-.65.94-1.94,1.19-2.88.54-.94-.65-1.19-1.94-.54-2.88s1.94-1.19,2.88-.54c.94.65,1.19,1.94.54,2.88Z" fill="url(#linear-gradient-44)" stroke-width="0"/>
            <path d="m1697.57,171.68c-.65.94-1.94,1.19-2.88.54-.94-.65-1.19-1.94-.54-2.88s1.94-1.19,2.88-.54c.94.65,1.19,1.94.54,2.88Z" fill="url(#linear-gradient-45)" stroke-width="0"/>
            <path d="m1727.22,163.19c-.65.94-1.94,1.19-2.88.54-.94-.65-1.19-1.94-.54-2.88s1.94-1.19,2.88-.54,1.19,1.94.54,2.88Z" fill="url(#linear-gradient-46)" stroke-width="0"/>
            <path d="m1688.54,139.07c-.97,1.42-2.9,1.78-4.32.81s-1.78-2.9-.81-4.32c.97-1.42,2.9-1.78,4.32-.81,1.42.97,1.78,2.9.81,4.32Z" fill="url(#linear-gradient-47)" stroke-width="0"/>
            <path d="m1674.67,139.62c-.65.94-1.94,1.19-2.88.54s-1.19-1.94-.54-2.88c.65-.94,1.94-1.19,2.88-.54.94.65,1.19,1.94.54,2.88Z" fill="url(#linear-gradient-48)" stroke-width="0"/>
            <path d="m1643.41,177.97c-.65.94-1.94,1.19-2.88.54-.94-.65-1.19-1.94-.54-2.88.65-.94,1.94-1.19,2.88-.54s1.19,1.94.54,2.88Z" fill="url(#linear-gradient-49)" stroke-width="0"/>
            <path d="m1657.64,168.17c-.65.94-1.94,1.19-2.88.54s-1.19-1.94-.54-2.88,1.94-1.19,2.88-.54c.94.65,1.19,1.94.54,2.88Z" fill="url(#linear-gradient-50)" stroke-width="0"/>
            <path d="m1739.61,141.41c-.65.94-1.94,1.19-2.88.54s-1.19-1.94-.54-2.88c.65-.94,1.94-1.19,2.88-.54s1.19,1.94.54,2.88Z" fill="url(#linear-gradient-51)" stroke-width="0"/>
            <path d="m1751.22,128.11c-.65.94-1.94,1.19-2.88.54s-1.19-1.94-.54-2.88c.65-.94,1.94-1.19,2.88-.54s1.19,1.94.54,2.88Z" fill="url(#linear-gradient-52)" stroke-width="0"/>
            <path d="m1768.49,149.97c-.65.94-1.94,1.19-2.88.54-.94-.65-1.19-1.94-.54-2.88s1.94-1.19,2.88-.54c.94.65,1.19,1.94.54,2.88Z" fill="url(#linear-gradient-53)" stroke-width="0"/>
            <path d="m1791.53,166.44c-.65.94-1.94,1.19-2.88.54s-1.19-1.94-.54-2.88c.65-.94,1.94-1.19,2.88-.54.94.65,1.19,1.94.54,2.88Z" fill="url(#linear-gradient-54)" stroke-width="0"/>
            <path d="m1804.35,169.48c-.97,1.42-2.9,1.78-4.32.81-1.42-.97-1.78-2.9-.81-4.32s2.9-1.78,4.32-.81,1.78,2.9.81,4.32Z" fill="url(#linear-gradient-55)" stroke-width="0"/>
          </g>
          <path d="m1830.8,245.81c-4.18-29.28-20.16-56.77-46.5-74.79-49.83-34.09-117.87-21.33-151.96,28.5-7.01,10.24-12.03,21.25-15.17,32.58-3.74-26.13,1.92-53.67,18-77.17,34.09-49.83,102.12-62.59,151.96-28.5,39.59,27.09,55.78,75.6,43.67,119.38Z" fill="#603d28" mix-blend-mode="multiply" opacity=".15" stroke-width="0"/>
        </g>
        <g>
          <path d="m160.11,766.39c.09.74.21,1.49.36,2.23l4.09,19.99h0c-.68.16-1.12.83-.98,1.52l2.01,9.86c.14.68.81,1.13,1.49,1.01h0s1.57,7.69,1.57,7.69h0c-.67.23-1.1.93-.95,1.65l2.62,12.8c.15.71.81,1.19,1.52,1.14h0s.61,2.99.61,2.99h0c-.67.23-1.1.93-.95,1.65l2.62,12.8c.15.72.81,1.19,1.52,1.14h0s36.08,176.59,36.08,176.59c2.96,14.46,17.08,23.79,31.54,20.84l99.74-20.38c14.46-2.95,23.79-17.08,20.83-31.54l-2.2-10.78-37.27-182.39c.61-.83.89-1.91.67-2.99l-4.67-22.88c-.22-1.09-.9-1.97-1.79-2.49l-5.98-29.29c-2.95-14.46-17.08-23.79-31.54-20.83l-99.74,20.38c-13.72,2.8-22.82,15.65-21.2,29.3Z" fill="#1a1a1a" opacity=".33" stroke-width="0"/>
          <g>
            <path d="m285.54,714.32c14.82-2.96,29.22,6.56,32.16,21.26l51.06,255.53c2.94,14.7-6.7,29.02-21.52,31.98l-95.94,19.17c-14.82,2.96-29.22-6.56-32.16-21.26l-51.06-255.53c-2.94-14.7,6.7-29.02,21.52-31.98l95.94-19.17m-.24-1.2l-95.94,19.17c-15.46,3.09-25.55,18.08-22.48,33.42l51.06,255.53c3.06,15.34,18.14,25.3,33.6,22.21l95.94-19.17c15.46-3.09,25.55-18.08,22.48-33.42l-51.06-255.53c-3.06-15.34-18.14-25.3-33.6-22.21h0Z" fill="#94a3b8" stroke-width="0"/>
            <path d="m285.55,714.31l-95.96,19.18c-14.82,2.96-24.46,17.28-21.52,31.99l51.06,255.55c2.94,14.7,17.34,24.22,32.16,21.26l95.96-19.18c14.82-2.96,24.46-17.28,21.52-31.99l-51.06-255.55c-2.94-14.7-17.34-24.22-32.16-21.26Zm78.4,277.77c2.41,12.04-5.51,23.81-17.65,26.23l-95.96,19.18c-12.14,2.43-23.97-5.4-26.38-17.43l-51.06-255.55c-2.41-12.04,5.51-23.81,17.65-26.23l95.96-19.18c12.14-2.43,23.97,5.4,26.38,17.43l51.06,255.55Z" fill="#020617" stroke-width="0"/>
            <path d="m285.55,714.31l-95.96,19.18c-14.82,2.96-24.46,17.28-21.52,31.99l51.06,255.55c2.94,14.7,17.34,24.22,32.16,21.26l95.96-19.18c14.82-2.96,24.46-17.28,21.52-31.99l-51.06-255.55c-2.94-14.7-17.34-24.22-32.16-21.26Z" fill="#020617" stroke-width="0"/>
            <path d="m363.95,992.08c2.41,12.04-5.51,23.81-17.65,26.23l-95.96,19.18c-12.14,2.43-23.97-5.4-26.38-17.43l-51.06-255.55c-2.41-12.04,5.51-23.81,17.65-26.23l95.96-19.18c12.14-2.43,23.97,5.4,26.38,17.43l51.06,255.55Z" fill="#020617" stroke-width="0"/>
            <path d="m363.95,992.08c2.41,12.04-5.51,23.81-17.65,26.23l-95.96,19.18c-12.14,2.43-23.97-5.4-26.38-17.43l-51.06-255.55c-2.41-12.04,5.51-23.81,17.65-26.23l95.96-19.18c12.14-2.43,23.97,5.4,26.38,17.43l51.06,255.55Z" fill="#fff" mix-blend-mode="lighten" opacity=".07" stroke-width="0"/>
            <path d="m173.7,794.67h.65v16.96h-.65c-.31,0-.57-.25-.57-.57v-15.82c0-.31.25-.57.57-.57Z" transform="translate(-154.01 49.61) rotate(-11.3)" fill="#64748b" stroke-width="0"/>
            <path d="m179.65,819.34h.59v26.65h-.59c-.34,0-.62-.28-.62-.62v-25.41c0-.34.28-.62.62-.62Z" transform="translate(-159.68 51.34) rotate(-11.3)" fill="#64748b" stroke-width="0"/>
            <path d="m185.81,850.13h.59v26.65h-.59c-.34,0-.62-.28-.62-.62v-25.41c0-.34.28-.62.62-.62Z" transform="translate(-165.59 53.14) rotate(-11.3)" fill="#64748b" stroke-width="0"/>
            <rect x="216.92" y="731.97" width="46.32" height="15.13" rx="7.56" ry="7.56" transform="translate(-140.26 61.38) rotate(-11.3)" fill="#020617" stroke-width="0"/>
            <path d="m254.83,734.74c.98-.2,1.94.44,2.14,1.43s-.44,1.94-1.43,2.14-1.94-.44-2.14-1.43.44-1.94,1.43-2.14m-.59-2.97c-2.62.52-4.33,3.08-3.8,5.7.52,2.62,3.08,4.33,5.7,3.8s4.33-3.08,3.8-5.7-3.08-4.33-5.7-3.8h0Z" fill="#1e293b" stroke-width="0"/>
            <path d="m285.3,713.12l-67.36,308.13c3.06,15.34,18.14,25.3,33.6,22.21l95.94-19.17c15.46-3.09,25.55-18.08,22.48-33.42l-51.06-255.53c-3.06-15.34-18.14-25.3-33.6-22.21h0Z" fill="#fff" mix-blend-mode="screen" opacity=".06" stroke-width="0"/>
          </g>
        </g>
        <g clip-path="url(#clippath)">
          <g>
            <path d="m649.29-398.35L915.07,134.96c6.15,12.34,2.26,26.76-8.69,32.22L57.09,590.43c-10.95,5.46-24.81-.12-30.96-12.46L-239.65,44.66c-6.15-12.34-2.26-26.76,8.69-32.22l849.29-423.25c10.95-5.46,24.81.12,30.96,12.46Z" fill="#020617" mix-blend-mode="hard-light" opacity=".33" stroke-width="0"/>
            <path d="m649.34-404.11L915.12,129.2c6.15,12.34,2.44,26.67-8.29,32.02L74.85,575.86c-10.73,5.35-24.41-.32-30.56-12.66L-221.49,29.89c-6.15-12.34-2.44-26.67,8.29-32.02l831.99-414.63c10.73-5.35,24.41.32,30.56,12.66Z" fill="#cbd5e1" stroke-width="0"/>
            <path d="m563.21,332.47l-144.74,72.13c-.04-2.48.34-4.93,1.11-7.25,1.75-5.22,5.49-9.77,10.8-12.41l109.95-54.8c7.68-3.83,16.54-2.64,22.87,2.33Z" fill="#94a3b8" stroke-width="0"/>
            <path d="m625.18,272.76l-291.7,145.37c-11.22,5.59-24.84,1.03-30.43-10.19l-87.2-174.97c-5.59-11.22-1.03-24.84,10.19-30.43L517.74,57.17c11.22-5.59,24.84-1.03,30.43,10.19l87.2,174.97c5.59,11.22,1.03,24.84-10.19,30.43Z" fill="#e2e8f0" stroke-width="0"/>
            <g>
              <path d="m568.38-288.17L-68.52,29.23c-4.49,2.24-9.94.41-12.17-4.08l-6.47-12.98c-2.24-4.49-.41-9.94,4.08-12.17l636.89-317.41c4.49-2.24,9.94-.41,12.17,4.08l6.47,12.98c2.24,4.49.41,9.94-4.08,12.17Z" fill="#1e293b" stroke-width="0"/>
              <rect x="-13.25" y="3.47" width="44.69" height="44.69" rx="9.08" ry="9.08" transform="translate(-10.56 6.76) rotate(-26.49)" fill="#1e293b" stroke-width="0"/>
              <rect x="38.4" y="-22.27" width="44.69" height="44.69" rx="9.08" ry="9.08" transform="translate(6.35 27.1) rotate(-26.49)" fill="#1e293b" stroke-width="0"/>
              <rect x="90.06" y="-48.02" width="44.69" height="44.69" rx="9.08" ry="9.08" transform="translate(23.25 47.44) rotate(-26.49)" fill="#1e293b" stroke-width="0"/>
              <rect x="-20.4" y="247.92" width="44.69" height="44.69" rx="9.08" ry="9.08" transform="translate(-120.35 29.24) rotate(-26.49)" fill="#1e293b" stroke-width="0"/>
              <rect x="31.25" y="222.18" width="44.69" height="44.69" rx="9.08" ry="9.08" transform="translate(-103.44 49.58) rotate(-26.49)" fill="#1e293b" stroke-width="0"/>
              <rect x="82.91" y="196.43" width="44.69" height="44.69" rx="9.08" ry="9.08" transform="translate(-86.53 69.92) rotate(-26.49)" fill="#1e293b" stroke-width="0"/>
              <rect x="133.79" y="167.39" width="59.5" height="44.69" rx="9.08" ry="9.08" transform="translate(-67.46 92.86) rotate(-26.49)" fill="#1e293b" stroke-width="0"/>
              <rect x="529.83" y="-26.3" width="44.69" height="44.69" rx="9.08" ry="9.08" transform="translate(1044.62 -253.79) rotate(153.51)" fill="#1e293b" stroke-width="0"/>
              <rect x="464.14" y="2.75" width="59.5" height="44.69" rx="9.08" ry="9.08" transform="translate(947.13 -172.74) rotate(153.51)" fill="#1e293b" stroke-width="0"/>
              <path d="m457.7,68.09l-238.17,118.69c-4.49,2.24-9.94.41-12.17-4.08l-11.84-23.75c-2.24-4.49-.41-9.94,4.08-12.17L437.77,28.1c4.49-2.24,9.94-.41,12.17,4.08l11.84,23.75c2.24,4.49.41,9.94-4.08,12.17Z" fill="#1e293b" stroke-width="0"/>
              <rect x="199.01" y="-42.09" width="44.69" height="44.69" rx="9.08" ry="9.08" transform="translate(410.66 -136.16) rotate(153.51)" fill="#1e293b" stroke-width="0"/>
              <rect x="147.35" y="-16.35" width="44.69" height="44.69" rx="9.08" ry="9.08" transform="translate(324.25 -64.33) rotate(153.51)" fill="#1e293b" stroke-width="0"/>
              <rect x="95.7" y="9.4" width="44.69" height="44.69" rx="9.08" ry="9.08" transform="translate(237.85 7.5) rotate(153.51)" fill="#1e293b" stroke-width="0"/>
              <rect x="44.04" y="35.14" width="44.69" height="44.69" rx="9.08" ry="9.08" transform="translate(151.44 79.32) rotate(153.51)" fill="#1e293b" stroke-width="0"/>
              <rect x="79.39" y="77.75" width="44.69" height="44.69" rx="9.08" ry="9.08" transform="translate(237.42 144.3) rotate(153.51)" fill="#1e293b" stroke-width="0"/>
              <rect x="130.69" y="52.18" width="44.69" height="44.69" rx="9.08" ry="9.08" transform="translate(323.23 72.97) rotate(153.51)" fill="#1e293b" stroke-width="0"/>
              <rect x="181.99" y="26.61" width="44.69" height="44.69" rx="9.08" ry="9.08" transform="translate(409.04 1.64) rotate(153.51)" fill="#1e293b" stroke-width="0"/>
              <rect x="233.28" y="1.05" width="44.69" height="44.69" rx="9.08" ry="9.08" transform="translate(494.85 -69.69) rotate(153.51)" fill="#1e293b" stroke-width="0"/>
              <rect x="284.58" y="-24.52" width="44.69" height="44.69" rx="9.08" ry="9.08" transform="translate(580.66 -141.02) rotate(153.51)" fill="#1e293b" stroke-width="0"/>
              <rect x="27.73" y="103.49" width="44.69" height="44.69" rx="9.08" ry="9.08" transform="translate(151.02 216.12) rotate(153.51)" fill="#1e293b" stroke-width="0"/>
              <rect x="-7.62" y="60.88" width="44.69" height="44.69" rx="9.08" ry="9.08" transform="translate(65.03 151.15) rotate(153.51)" fill="#1e293b" stroke-width="0"/>
              <rect x="-71.12" y="140.25" width="94.87" height="44.69" rx="9.08" ry="9.08" transform="translate(27.64 318.68) rotate(153.51)" fill="#1e293b" stroke-width="0"/>
              <rect x="79.85" y="137.74" width="44.69" height="44.69" rx="9.08" ry="9.08" transform="translate(265.06 257.77) rotate(153.51)" fill="#1e293b" stroke-width="0"/>
              <rect x="131.15" y="112.17" width="44.69" height="44.69" rx="9.08" ry="9.08" transform="translate(350.87 186.44) rotate(153.51)" fill="#1e293b" stroke-width="0"/>
              <rect x="182.46" y="86.6" width="44.69" height="44.69" rx="9.08" ry="9.08" transform="translate(436.7 115.1) rotate(153.51)" fill="#1e293b" stroke-width="0"/>
              <rect x="233.77" y="61.03" width="44.69" height="44.69" rx="9.08" ry="9.08" transform="translate(522.52 43.76) rotate(153.51)" fill="#1e293b" stroke-width="0"/>
              <rect x="285.08" y="35.46" width="44.69" height="44.69" rx="9.08" ry="9.08" transform="translate(608.35 -27.59) rotate(153.51)" fill="#1e293b" stroke-width="0"/>
              <rect x="336.39" y="9.89" width="44.69" height="44.69" rx="9.08" ry="9.08" transform="translate(694.18 -98.93) rotate(153.51)" fill="#1e293b" stroke-width="0"/>
              <rect x="387.7" y="-15.68" width="44.69" height="44.69" rx="9.08" ry="9.08" transform="translate(780 -170.27) rotate(153.51)" fill="#1e293b" stroke-width="0"/>
              <rect x="439.01" y="-41.25" width="44.69" height="44.69" rx="9.08" ry="9.08" transform="translate(865.83 -241.61) rotate(153.51)" fill="#1e293b" stroke-width="0"/>
              <rect x="-48.72" y="181.53" width="126.09" height="44.69" rx="9.08" ry="9.08" transform="translate(-89.43 27.79) rotate(-26.49)" fill="#1e293b" stroke-width="0"/>
            </g>
            <path d="m681.98-448.26L-276.4,29.36c-4.54,2.26-10.06.42-12.32-4.12h0c-2.26-4.54-.42-10.06,4.12-12.32l958.38-477.62c4.54-2.26,10.06-.42,12.32,4.12h0c2.26,4.54.42,10.06-4.12,12.32Z" fill="#f1f1f2" stroke-width="0"/>
          </g>
        </g>
        <polygon points="787.33 105.95 736.73 7.22 636.49 58.6 633.74 60.01 630.42 61.71 623.89 65.06 619.91 67.1 617.16 68.5 587.19 83.86 663.84 233.4 784.81 171.39 813.37 156.75 787.33 105.95" fill="#ffc800" stroke-width="0"/>
        <g>
          <path d="m649.25,135.43c-1.29.65-2.67,1-4.13,1.03-1.46.03-2.91-.22-4.33-.76-1.43-.54-2.75-1.35-3.96-2.43-1.22-1.08-2.23-2.42-3.04-4.02-.81-1.6-1.33-3.3-1.57-5.12-.24-1.82-.18-3.6.17-5.33.36-1.73,1.02-3.31,1.98-4.74s2.23-2.54,3.81-3.33c.59-.3,1.21-.54,1.85-.72.64-.18,1.31-.31,2.02-.39.36-.05.66,0,.92.13.25.14.44.36.56.66.13.27.19.55.16.85-.03.3-.13.56-.3.79-.17.23-.41.36-.73.39-.28.01-.67.07-1.18.17-.51.11-1.17.36-1.96.76-1.17.59-2.1,1.42-2.81,2.48-.71,1.07-1.17,2.26-1.4,3.6-.22,1.34-.22,2.72,0,4.16.23,1.44.69,2.85,1.38,4.22.66,1.31,1.47,2.38,2.42,3.21s1.96,1.44,3.02,1.82c1.07.39,2.12.56,3.14.53,1.03-.03,1.95-.25,2.77-.67,1.15-.58,2.06-1.45,2.74-2.62.68-1.17,1.13-2.5,1.36-3.98.22-1.49.22-3.01-.02-4.58s-.7-3.02-1.38-4.37c-.61-1.26-1.33-2.27-2.15-3.02-.82-.75-1.88-1.39-3.17-1.92-.24-.11-.44-.24-.6-.39-.17-.15-.3-.32-.4-.53-.17-.33-.19-.67-.08-1.04.11-.37.36-.65.75-.84.33-.17.75-.22,1.25-.15.51.06,1.11.3,1.81.72.78.43,1.5.94,2.17,1.54.67.6,1.28,1.26,1.83,1.98.56.72,1.05,1.5,1.47,2.34.75,1.47,1.26,2.99,1.55,4.55.29,1.56.36,3.11.22,4.63-.14,1.52-.47,2.96-.98,4.31-.51,1.35-1.2,2.55-2.08,3.59-.87,1.05-1.9,1.87-3.09,2.47Z" stroke-width="0"/>
          <path d="m658.58,110.66c-.09-.34-.06-.65.1-.94s.41-.51.74-.68c.35-.18.72-.23,1.11-.17.39.06.7.33.94.8.11.23.23.54.36.94s.27.87.44,1.4c.18-1.37.57-2.52,1.17-3.44.6-.92,1.38-1.62,2.34-2.11.92-.47,1.84-.68,2.76-.64.92.04,1.8.27,2.63.71.84.44,1.6,1.02,2.29,1.75.69.73,1.26,1.55,1.72,2.45.55,1.08.91,2.24,1.07,3.45.17,1.21.13,2.4-.11,3.55-.24,1.15-.7,2.2-1.36,3.14-.67.94-1.54,1.69-2.63,2.24-.45.23-1,.42-1.64.58-.64.16-1.25.23-1.82.21-.42-.02-.79-.11-1.12-.26-.32-.16-.56-.38-.7-.67-.19-.37-.23-.73-.12-1.08.11-.35.32-.61.65-.77.16-.08.36-.13.58-.16.22-.02.46-.03.71-.03.33-.01.69-.03,1.08-.07.4-.03.79-.15,1.18-.34.61-.31,1.11-.77,1.48-1.38.37-.61.61-1.31.73-2.1.11-.79.1-1.6-.03-2.43-.14-.83-.4-1.62-.78-2.38-.8-1.58-1.66-2.6-2.59-3.06-.93-.47-1.89-.45-2.87.04-1,.51-1.67,1.28-2.01,2.31-.34,1.03-.47,2.2-.38,3.51.08,1.31.26,2.65.52,4.04.42,1.18.91,2.39,1.47,3.63.57,1.24,1.15,2.44,1.76,3.6.61,1.16,1.19,2.2,1.74,3.13.25.39.49.86.73,1.4.24.55.42,1.1.53,1.66.12.56.12,1.07.02,1.53-.1.46-.37.8-.8,1.02-.51.26-.99.21-1.44-.14-.45-.35-.86-.83-1.23-1.44s-.69-1.17-.95-1.68c-.69-1.37-1.29-2.6-1.79-3.68s-.95-2.19-1.35-3.31c-.4-1.12-.79-2.39-1.18-3.82-.46-1.05-.92-2.17-1.4-3.34-.48-1.17-.94-2.35-1.39-3.54-.45-1.19-.84-2.31-1.17-3.38Z" stroke-width="0"/>
          <path d="m681.88,111.36l-1.9-1.78c2.05-1.42,3.58-2.71,4.58-3.86,1-1.15,1.61-2.15,1.84-2.99.23-.85.21-1.53-.05-2.04-.29-.57-.7-.91-1.23-1.02-.53-.1-1.08-.01-1.65.28-.51.26-.99.66-1.45,1.22-.45.55-.8,1.21-1.04,1.97-.24.76-.33,1.61-.26,2.52.07.92.36,1.89.88,2.91.69,1.37,1.51,2.39,2.44,3.07.93.67,1.88,1.05,2.86,1.12.97.07,1.87-.1,2.69-.51.65-.33,1.22-.77,1.69-1.32.47-.55.82-1.2,1.05-1.96.1-.36.22-.7.37-1.02.15-.32.36-.55.65-.7.25-.12.48-.18.71-.17.23.01.43.09.61.21.18.13.33.3.44.53.1.21.17.4.2.59.03.19.02.4-.04.64-.18.86-.49,1.67-.92,2.41s-.95,1.4-1.55,1.96c-.6.56-1.26,1.02-1.98,1.39-.98.5-2.02.79-3.12.88-1.1.09-2.19-.04-3.29-.4-1.09-.36-2.13-.97-3.1-1.83-.97-.86-1.81-1.98-2.52-3.37-.73-1.45-1.13-2.84-1.18-4.16-.05-1.32.13-2.54.55-3.67s1.01-2.1,1.77-2.94c.76-.83,1.6-1.48,2.52-1.95.86-.43,1.72-.68,2.6-.74.87-.05,1.67.12,2.4.52.73.4,1.33,1.06,1.79,1.98.32.63.48,1.39.46,2.25-.01.87-.27,1.82-.79,2.87-.51,1.04-1.34,2.16-2.47,3.35-1.13,1.19-2.66,2.44-4.57,3.74Z" stroke-width="0"/>
          <path d="m693.49,93.38c-.2-.34-.23-.71-.1-1.11.13-.4.41-.71.84-.93.33-.17.65-.21.96-.12.31.09.65.35,1.02.8.37.45.79,1.12,1.28,2.03.05-1.31.34-2.5.84-3.55s1.27-1.84,2.3-2.36c1.1-.56,2.26-.75,3.45-.57,1.2.18,2.34.71,3.43,1.6,1.09.89,2.04,2.12,2.83,3.69.45.88.87,1.79,1.26,2.72.39.93.79,1.86,1.2,2.79.41.93.82,1.85,1.26,2.76.2.39.21.77.04,1.15-.17.38-.47.68-.9.9-.41.21-.8.25-1.16.14-.36-.11-.64-.36-.84-.75-.28-.55-.55-1.14-.81-1.75-.26-.61-.53-1.25-.81-1.91-.28-.65-.57-1.32-.86-2-.29-.67-.61-1.36-.96-2.06-.59-1.17-1.22-2.1-1.9-2.8-.67-.7-1.36-1.15-2.07-1.34-.7-.2-1.41-.11-2.13.25-.55.28-.98.74-1.29,1.38-.31.64-.5,1.38-.58,2.22-.08.84-.07,1.69.03,2.57.1.88.26,1.68.5,2.41.47,1.43.86,2.64,1.17,3.61.31.97.57,1.77.78,2.38.21.61.38,1.13.51,1.55.11.33.1.63-.04.91s-.39.5-.73.68c-.37.19-.7.28-.99.29-.29,0-.54-.07-.74-.24-.2-.17-.35-.4-.44-.68-.42-1.33-.86-2.63-1.32-3.9-.46-1.27-.95-2.5-1.46-3.69-.51-1.19-1.03-2.31-1.56-3.35-.32-.63-.6-1.17-.83-1.6-.23-.44-.44-.82-.63-1.17-.19-.34-.38-.66-.57-.94Z" stroke-width="0"/>
          <path d="m723.04,80.63c-.38.22-.74.25-1.08.11-.34-.15-.61-.4-.8-.77-.18-.35-.22-.7-.13-1.05.09-.35.33-.64.7-.86.51-.31,1.05-.63,1.62-.95s1.17-.65,1.79-.99c.63-.33,1.31-.69,2.04-1.07.73-.38,1.52-.79,2.36-1.21.35-.18.71-.2,1.08-.08.37.12.66.37.88.75.19.37.21.74.06,1.11-.15.37-.38.64-.71.8-.86.44-1.59.81-2.2,1.13-.61.32-1.19.63-1.73.92s-1.12.6-1.72.95c-.6.34-1.32.75-2.16,1.23Zm-1.53-6.98c-.17-.43-.17-.81-.02-1.15.15-.33.41-.59.78-.78.25-.12.51-.2.79-.23.28-.03.54.02.78.13.24.11.41.32.51.63.5,1.39,1,2.72,1.5,3.99.5,1.26,1.02,2.51,1.56,3.72.54,1.22,1.13,2.46,1.77,3.73.81,1.55,1.5,2.75,2.09,3.63s1.06,1.47,1.43,1.8c.37.33.62.46.74.4.18-.09.36-.33.53-.71.17-.38.31-.79.44-1.22.13-.44.21-.76.27-.96.05-.21.14-.37.27-.5.13-.13.26-.23.41-.3.25-.12.5-.18.77-.16.27.02.51.1.74.24.23.14.4.34.53.58.07.14.12.32.13.51.01.2-.01.44-.07.73-.14.74-.36,1.41-.65,2.03-.29.61-.63,1.13-1.01,1.55-.38.42-.79.75-1.24.97-.8.4-1.63.46-2.48.16-.86-.3-1.72-1.01-2.57-2.15-.6-.83-1.16-1.68-1.7-2.55-.53-.87-1.03-1.77-1.5-2.69-.63-1.25-1.21-2.46-1.72-3.64-.52-1.18-1.02-2.39-1.5-3.65-.48-1.26-1-2.63-1.54-4.1Z" stroke-width="0"/>
          <path d="m740.32,67.99c.47-.24.96-.43,1.48-.58.52-.15,1.02-.23,1.52-.27.5-.03.96.01,1.38.13,1.32.28,2.51.91,3.56,1.9,1.05.99,1.91,2.14,2.58,3.47.57,1.12.98,2.29,1.22,3.49.25,1.2.31,2.36.19,3.49-.12,1.13-.46,2.14-1,3.05-.54.9-1.33,1.62-2.35,2.13-1.04.53-2.12.79-3.24.79-1.12,0-2.21-.22-3.28-.66-1.07-.44-2.04-1.07-2.92-1.89-.88-.83-1.61-1.8-2.17-2.93-.54-1.06-.9-2.18-1.09-3.34-.19-1.16-.18-2.31.04-3.43.22-1.12.66-2.15,1.33-3.08.67-.93,1.59-1.69,2.76-2.28Zm-.32,10.5c.52,1.02,1.18,1.9,1.99,2.64.81.73,1.69,1.21,2.64,1.44.95.23,1.89.1,2.84-.38.66-.33,1.13-.79,1.42-1.39.29-.6.44-1.27.44-2.03,0-.76-.11-1.53-.33-2.32-.22-.79-.5-1.53-.86-2.23-.63-1.25-1.37-2.21-2.21-2.87s-1.71-1.07-2.63-1.2c-.31.05-.6.13-.87.23-.27.1-.54.21-.81.35-.7.35-1.24.82-1.65,1.39-.4.58-.66,1.22-.78,1.93-.12.71-.1,1.45.03,2.2s.39,1.5.76,2.24Z" stroke-width="0"/>
          <path d="m673.25,169.82c-.31.15-.61.21-.91.17s-.59-.2-.86-.47c-.75-.78-1.52-1.55-2.32-2.33-.79-.78-1.59-1.55-2.4-2.31-.81-.76-1.62-1.53-2.43-2.32-.81-.79-1.59-1.58-2.36-2.37.17,2.41.32,4.46.47,6.14s.28,3.11.4,4.27c.12,1.16.24,2.17.35,3.04.02.25,0,.48-.07.69-.07.22-.18.4-.34.56-.15.15-.32.28-.51.37-.31.16-.63.22-.98.19s-.63-.2-.83-.5c-1.08-1.53-2.26-2.97-3.54-4.32-1.27-1.35-2.56-2.68-3.86-4.01-1.3-1.32-2.52-2.68-3.67-4.08-.1-.15-.19-.27-.26-.35-.07-.08-.14-.19-.21-.34-.14-.29-.12-.61.06-.98.19-.36.48-.65.87-.84.29-.14.59-.2.9-.16.31.03.59.18.83.45.66.8,1.33,1.58,2.01,2.34.68.76,1.37,1.52,2.06,2.28.69.75,1.4,1.53,2.12,2.32.72.79,1.45,1.62,2.2,2.47-.13-1.53-.26-3-.38-4.41-.12-1.42-.24-2.81-.34-4.18-.1-1.37-.21-2.73-.32-4.06-.12-.3-.17-.59-.15-.87.02-.28.12-.54.3-.79.17-.24.41-.44.72-.6.27-.13.55-.19.86-.17.31.02.59.19.85.5.44.47.87.95,1.27,1.44.4.49.82.97,1.27,1.44.5.52.99,1.04,1.49,1.56.49.52,1,1.04,1.52,1.56.52.52,1.05,1.04,1.58,1.57.54.53,1.07,1.07,1.61,1.62-.32-1.49-.57-2.93-.77-4.35-.2-1.42-.38-2.82-.53-4.21-.15-1.39-.32-2.77-.5-4.14-.06-.38-.02-.7.13-.96.15-.26.37-.46.66-.6.39-.2.78-.25,1.17-.17.39.08.68.31.87.68.04.08.07.18.09.28.02.11.03.23.06.38.25,1.86.46,3.71.64,5.57.18,1.86.42,3.71.72,5.54s.72,3.63,1.29,5.4c.15.44.15.84.01,1.21-.14.36-.41.65-.82.86Z" stroke-width="0"/>
          <path d="m690.32,149.08c.63,1.25,1.04,2.53,1.23,3.83s.15,2.56-.11,3.75c-.26,1.2-.72,2.27-1.4,3.21-.68.95-1.55,1.69-2.61,2.23-1.29.65-2.6.92-3.92.79-1.32-.13-2.55-.6-3.69-1.43-1.14-.83-2.07-1.95-2.79-3.39-.65-1.29-1.07-2.61-1.25-3.96-.18-1.35-.14-2.63.13-3.86.27-1.23.74-2.33,1.42-3.3.68-.97,1.55-1.73,2.61-2.27,1.29-.65,2.59-.88,3.91-.69,1.32.19,2.55.73,3.68,1.6,1.14.88,2.07,2.03,2.79,3.46Zm-10.5,7.44c.51,1,1.1,1.79,1.78,2.38.68.58,1.41.93,2.21,1.04.79.12,1.57-.02,2.35-.42.9-.46,1.56-1.17,1.97-2.13.41-.97.56-2.06.46-3.28-.1-1.22-.47-2.45-1.1-3.7-.49-.96-1.09-1.73-1.83-2.32-.73-.58-1.5-.94-2.3-1.07s-1.58-.01-2.34.37c-.82.42-1.42,1.11-1.81,2.09-.39.98-.54,2.09-.45,3.33.09,1.24.44,2.47,1.06,3.7Z" stroke-width="0"/>
          <path d="m691.79,140.47c-.2-.44-.21-.84-.03-1.2.18-.36.46-.64.85-.83.37-.19.73-.25,1.1-.19.36.06.65.29.86.7.06.12.14.28.24.48.1.19.2.41.31.65.11.24.21.52.32.82.08-1.32.37-2.43.88-3.32.51-.89,1.24-1.57,2.18-2.05.47-.24,1.01-.43,1.62-.57.61-.14,1.29-.18,2.04-.12.32.02.58.11.79.26.21.15.37.38.5.67.21.46.24.87.11,1.24-.14.37-.39.64-.76.83-.21.1-.42.16-.63.16-.22,0-.43,0-.65-.02-.27-.02-.54-.03-.82-.03-.28,0-.6.09-.94.27-1.21.61-1.87,1.7-1.99,3.26-.12,1.56.06,3.41.54,5.53.33.71.64,1.36.94,1.97.29.61.57,1.2.83,1.76.26.56.51,1.1.76,1.62.25.52.5,1.02.75,1.51.13.27.18.52.14.78-.04.25-.14.48-.31.68-.17.2-.38.36-.62.49-.45.23-.86.27-1.21.11-.36-.15-.69-.43-1-.83-.3-.4-.59-.85-.84-1.37-.21-.41-.45-.93-.73-1.56-.28-.63-.55-1.26-.81-1.9-.26-.64-.46-1.18-.61-1.62l-3.79-8.18Z" stroke-width="0"/>
          <path d="m702.36,124.41c-.16-.41-.16-.79,0-1.15.15-.36.42-.64.81-.83.51-.26.93-.27,1.27-.04.33.23.62.59.87,1.08s.6,1.35,1.05,2.57c.45,1.22,1.06,2.79,1.84,4.7.77,1.91,1.75,4.14,2.95,6.7,0-.03.14-.3.38-.81.24-.51.55-1.17.92-1.97.37-.8.76-1.66,1.18-2.58.42-.92.83-1.82,1.23-2.71.4-.88.75-1.64,1.04-2.28.1-.21.22-.39.34-.54.13-.15.27-.27.44-.36.2-.1.4-.17.6-.19.19-.02.38,0,.55.05s.32.14.46.27c.14.12.25.28.35.46.1.21.17.41.2.63.03.21,0,.43-.11.63-.18.4-.43.92-.74,1.55s-.65,1.33-1.01,2.09-.72,1.53-1.09,2.31-.71,1.49-1.04,2.14c-.33.65-.59,1.2-.81,1.64.53.24,1.2.58,2,1.01.8.43,1.58.85,2.35,1.26.59.3,1.17.55,1.76.77.58.22,1.12.35,1.61.4.49.05.91-.01,1.25-.19.33-.17.58-.5.75-1,.17-.5.31-.94.42-1.33.06-.29.15-.54.26-.75s.27-.37.47-.47c.23-.11.47-.17.72-.17.26,0,.5.06.72.17.23.12.41.31.54.57.12.25.17.54.15.87-.02.33-.09.7-.2,1.08-.12.47-.31.96-.57,1.47-.26.5-.57.96-.92,1.37-.36.41-.75.73-1.18.94-.74.37-1.53.53-2.37.47s-1.69-.26-2.56-.6c-.86-.33-1.72-.71-2.58-1.13-.85-.47-1.63-.9-2.34-1.3-.7-.4-1.33-.71-1.87-.92.53,1.1,1.03,2.17,1.51,3.22.48,1.05.97,2.11,1.45,3.18.22.43.24.82.07,1.16-.17.34-.44.61-.81.8-.39.2-.77.26-1.15.2-.38-.06-.68-.31-.9-.74-1.81-3.94-3.6-7.91-5.36-11.9-1.76-3.99-3.41-7.93-4.93-11.81Z" stroke-width="0"/>
        </g>
        <g>
          <path d="m1273,125.35c-.82-3.62-2.08-6.51-4.17-8.71h0c-3-3.15-7.69-4.87-15.2-5.24-9.94-.49-17.39,3.54-20.19,5.35h0s-.31-.79-.31-.79c-.1-.26-.26-.49-.45-.67-.2-.19-.44-.33-.7-.41-3.52-1.14-7.21-2.05-10.93-2.09-.31,0-.61,0-.92,0,.02,0,.03,0,.05,0-2.69.06-5.45.6-7.33,2.67-2.55,2.81-3.75,7.01-4.97,10.54-1.53,4.44-2.32,9.38.96,13.3,1.64,1.97,3.82,3.54,6.2,4.76,2.38,1.22,4.96,2.1,7.41,2.68.07.02.14.02.2.03-.01,0-.02,0-.03,0,.09.02.18.02.27.03.09,0,.18.02.27.03.13,0,.25-.01.38-.03.08,0,.17-.01.25-.03.14-.03.27-.07.41-.12.07-.02.13-.03.2-.06.2-.08.39-.18.56-.3l.45-.3c.43.79.95,1.12.95,1.12,0,0,7.34,6.88,18.02,6.1.86-.06,1.53.74,1.31,1.58-.61,2.28-2.48,6.78-8.16,13.46-6.83,8.04-12.74,15.88-14.87,18.74-.41.55-.39,1.29.01,1.81,0,0-.56.6-.87,1.69,0,0,0,.02,0,.02,0,0,0,0,0,0-.02.06-.02.11-.03.17,0,.05-.02.09-.03.14,0,.06,0,.12,0,.18,0,.05,0,.09,0,.14,0,.07.02.14.04.21,0,.04.01.07.02.11.03.1.07.2.12.3v.04c-.06.15-.09.3-.11.45,0,0,0,0,0,0,0,.01,0,.02,0,.04-.02.2-.02.41,0,.6,0,.03,0,.05,0,.08.03.2.08.39.15.58.01.04.03.07.04.11.08.18.17.36.29.53.02.03.04.05.06.08.13.17.27.33.44.47l5.89,4.83c.68.56,1.58.76,2.43.54l.66-.17h0c.34.16.73.2,1.11.12,1.28-.29,1.99-.95,1.99-.95h0c.65.47,1.57.35,2.07-.3l17.12-21.96c3.26-4.14,6.36-8.45,9.07-12.98,2.08-3.48,3.93-7.08,5.44-10.85,1.77-4.38,3.07-8.95,3.76-13.63.67-4.54,1.69-9.49.66-14.05Z" fill="#1a1a1a" opacity=".33" stroke-width="0"/>
          <path d="m1194.09,75.49c-1.88-2.08-4.64-2.61-7.33-2.67.02,0,.03,0,.05,0-.31,0-.62,0-.92,0-3.72.04-7.41.95-10.93,2.09-.26.09-.5.23-.7.41-.2.19-.35.42-.45.67l-.31.79h0c-.16-.1-.33-.21-.52-.33-.05-.03-.1-.06-.16-.09-.15-.09-.3-.18-.47-.28-.06-.04-.13-.07-.19-.11-.2-.12-.42-.24-.65-.36-.03-.01-.05-.03-.08-.04-.25-.14-.52-.28-.8-.42-.07-.04-.15-.07-.22-.11-.22-.11-.44-.21-.67-.32-.1-.05-.19-.09-.29-.14-.25-.12-.51-.23-.78-.35-.07-.03-.14-.06-.21-.09-.34-.14-.69-.28-1.05-.42-.09-.03-.18-.07-.27-.1-.28-.11-.57-.21-.86-.31-.13-.04-.25-.09-.38-.13-.29-.1-.59-.19-.9-.29-.11-.03-.22-.07-.34-.1-.41-.12-.83-.24-1.27-.35-.1-.02-.2-.05-.29-.07-.35-.08-.7-.16-1.05-.24-.15-.03-.31-.06-.47-.09-.33-.07-.66-.13-1-.18-.15-.03-.3-.05-.45-.08-.06,0-.12-.02-.18-.03.01,0,.03,0,.04.01-2.07-.31-4.3-.46-6.68-.34-7.51.37-12.2,2.09-15.2,5.24h0c-2.09,2.2-3.36,5.09-4.17,8.71-1.03,4.56,0,9.51.66,14.05.69,4.68,1.99,9.25,3.76,13.63,1.52,3.76,3.37,7.37,5.44,10.85,2.71,4.53,5.81,8.84,9.07,12.98l16.6,21.29h0s.53.68.53.68c.25.32.61.51.98.57.1.01.19,0,.29-.01.28-.01.56-.08.8-.26h0s.36.33,1.02.63c0,0-.01,0-.02,0,.02,0,.04.02.06.02.09.04.18.07.28.11.05.02.1.04.16.06.14.05.29.09.45.13.02,0,.03.01.05.01.38.08.77.04,1.11-.12,0,0,0,0,0,0h0,0s.62.16.62.16h.04s.09.02.13.03c.81.16,1.65-.03,2.29-.56l5.4-4.43.49-.4c.82-.67,1.17-1.76.93-2.78-.01-.05-.02-.1-.03-.15v-.04c.18-.39.23-.84.11-1.26-.08-.27-.17-.51-.27-.72-.16-.36-.33-.6-.44-.76-.09-.12-.16-.21-.16-.21.18-.23.27-.51.29-.79,0-.04.02-.07.02-.11,0-.04-.02-.09-.02-.13,0-.12-.02-.23-.05-.34-.03-.09-.09-.18-.13-.26-.03-.06-.05-.12-.09-.18h0s0,0,0,0c-.75-1-1.96-2.63-3.51-4.65-.5-.65-1.04-1.35-1.61-2.08-.67-.86-1.38-1.76-2.12-2.7-.3-.38-.61-.77-.93-1.17-.35-.43-.7-.87-1.06-1.32-1.76-2.18-3.66-4.49-5.64-6.82-2.27-2.67-3.92-4.98-5.14-6.95-1.82-2.96-2.65-5.13-3.02-6.5-.16-.58.12-1.14.59-1.41.04-.02.08-.05.12-.07.18-.08.38-.12.6-.1,10.69.77,18.02-6.1,18.02-6.1,0,0,.13-.08.32-.27.18-.18.42-.46.63-.86l.45.3c.18.12.37.22.56.3.06.03.13.04.2.06.13.04.27.09.41.12.08.02.17.02.25.03.13.01.25.03.38.03.09,0,.18-.02.27-.03.09,0,.18,0,.27-.03-.01,0-.02,0-.03,0,.07-.01.14-.01.2-.03,2.45-.58,5.03-1.46,7.41-2.68,2.38-1.23,4.55-2.8,6.2-4.76,3.28-3.92,2.49-8.86.96-13.3-1.21-3.53-2.42-7.73-4.97-10.54Z" fill="#1a1a1a" opacity=".33" stroke-width="0"/>
          <g>
            <path d="m1234.4,119.44c-.11.07-.21.14-.31.2-.57.38-.99.94-1.19,1.6-1.21,4.06-5.85,19.69-6.78,23.14-.56,2.07-.21,3.45.25,4.31l-.45.3c-.74.5-1.65.66-2.52.44-2.45-.58-5.03-1.46-7.41-2.68-2.38-1.23-4.55-2.8-6.2-4.76-3.28-3.92-2.49-8.86-.96-13.3,1.21-3.53,2.42-7.73,4.97-10.54,2.08-2.3,5.25-2.72,8.2-2.68,3.72.04,7.41.95,10.93,2.09.26.09.5.23.7.41.2.19.35.42.45.67l.31.79h0Z" fill="#f7f7f7" stroke-width="0"/>
            <path d="m1234.4,119.44c-.11.07-.21.14-.31.2-.57.38-.99.94-1.19,1.6-1.21,4.06-5.85,19.69-6.78,23.14-.56,2.07-.21,3.45.25,4.31l-.45.3c-.69.47-1.53.64-2.34.48.41-.08.79-.24,1.14-.48l.45-.3c-.46-.85-.81-2.24-.25-4.31.93-3.45,5.57-19.08,6.78-23.14.2-.66.61-1.22,1.19-1.6.1-.06.2-.13.31-.2h0s-.31-.79-.31-.79c-.1-.26-.26-.49-.45-.67-.2-.19-.44-.33-.7-.41-3.43-1.11-7.03-2-10.65-2.09.31,0,.62,0,.92,0,3.72.04,7.41.95,10.93,2.09.26.09.5.23.7.41.2.19.35.42.45.67l.31.79h0Z" opacity=".2" stroke-width="0"/>
            <path d="m1273.3,142.09c-.69,4.68-1.99,9.25-3.76,13.63-1.52,3.76-3.37,7.37-5.44,10.85-2.71,4.53-5.81,8.84-9.07,12.98l-17.12,21.96c-.5.64-1.42.77-2.07.29-.03-.02-.06-.04-.08-.07l-11.89-9.98c-.09-.07-.16-.15-.23-.24-.4-.52-.42-1.26-.01-1.81,2.13-2.86,8.04-10.7,14.87-18.74,5.68-6.68,7.54-11.18,8.16-13.46.23-.84-.44-1.64-1.31-1.58-10.68.77-18.02-6.1-18.02-6.1,0,0-.52-.33-.95-1.12-.46-.85-.81-2.24-.25-4.31.93-3.45,5.57-19.08,6.78-23.14.2-.66.61-1.22,1.19-1.6.1-.06.2-.13.31-.2,2.8-1.8,10.24-5.84,20.19-5.35,7.51.37,12.2,2.09,15.2,5.24h0c2.09,2.2,3.36,5.09,4.17,8.71,1.03,4.56,0,9.51-.66,14.05Z" fill="#f2f2f2" stroke-width="0"/>
            <path d="m1248.56,151.24c-1.99-2.24-5.17-.73-5.17-.73,0,0-4.07,1.42-3.28,2.87.79,1.45,3.47,1.04,3.47,1.04,0,0,1.8-.32,3.88-1.32s1.1-1.87,1.1-1.87Z" fill="#545454" stroke-width="0"/>
            <path d="m1247.45,153.1c-2.08.99-3.88,1.32-3.88,1.32,0,0-2.68.41-3.47-1.04-.26-.48.01-.96.49-1.38.83,1.38,3.43.98,3.43.98,0,0,1.8-.32,3.88-1.32.28-.13.5-.26.68-.39.16.17.7.96-1.14,1.83Z" fill="#373736" stroke-width="0"/>
            <path d="m1260.94,126.67c-8.09-1.8-16.57-.62-16.57-.62,0,0-2.56.38-2.56-2.27s3.03-4.45,11.55-4.45,10.46,1.47,10.46,1.47c0,0,2.89,1.51,1.28,4.12-1.61,2.6-4.17,1.75-4.17,1.75Z" fill="#373736" stroke-width="0"/>
            <path d="m1235.84,201.8h0s-.71.67-1.99.95c-.38.08-.77.04-1.11-.12h0c-.14-.06-.27-.14-.39-.24l-9.01-7.35c-.2-.16-.36-.36-.47-.58-.19-.39-.24-.83-.12-1.26.31-1.09.87-1.69.87-1.69.07.09.14.17.23.24l11.89,9.98s.06.05.08.07Z" fill="#bbc6d2" stroke-width="0"/>
            <path d="m1235.84,201.8h0s-.71.67-1.99.95c-.38.08-.77.04-1.11-.12h0c-.14-.06-.27-.14-.39-.24l-9.01-7.35c-.2-.16-.36-.36-.47-.58-.19-.38-.24-.82-.12-1.24.03.11.07.22.12.33.11.22.27.42.47.58l9.01,7.35c.12.1.25.18.39.24h0c.34.16.73.2,1.11.12.59-.13,1.06-.35,1.39-.54l.51.43s.06.05.08.07Z" opacity=".2" stroke-width="0"/>
            <path d="m1232.74,202.63l-.66.17c-.85.22-1.75.02-2.43-.54l-5.89-4.83c-.86-.71-1.21-1.86-.89-2.92v-.04c.12.22.28.42.48.58l9.01,7.35c.12.1.25.18.39.24Z" fill="#f2f2f2" stroke-width="0"/>
            <path d="m1232.74,202.63l-.66.17c-.85.22-1.75.02-2.43-.54l-5.89-4.83c-.74-.61-1.11-1.55-.99-2.48.09.69.43,1.33.99,1.79l5.89,4.83c.66.54,1.53.75,2.36.55l.33.27c.12.1.25.18.39.24Z" opacity=".2" stroke-width="0"/>
            <path d="m1273.3,142.09c-.69,4.68-1.99,9.25-3.76,13.63-1.52,3.76-3.37,7.37-5.44,10.85-1.63-11.37-17.67-10.84-17.67-10.84,0,0,24.31-1.24,23.36-36.38,2.09,2.2,3.36,5.09,4.17,8.71,1.03,4.56,0,9.51-.66,14.05Z" opacity=".1" stroke-width="0"/>
            <path d="m1235.75,133.5c-1.03,4.18-3.48,7.3-4.87,6.96s-.57-3.92.46-8.1c1.03-4.18,1.9-7.38,3.29-7.03,1.39.34,2.16,4,1.12,8.17Z" fill="#fff" opacity=".6" stroke-width="0"/>
          </g>
          <g>
            <path d="m1179.25,80.76c.11.07.21.14.31.2.57.38.99.94,1.19,1.6,1.21,4.06,5.85,19.69,6.78,23.14.56,2.07.21,3.45-.25,4.31l.45.3c.74.5,1.65.66,2.52.44,2.45-.58,5.03-1.46,7.41-2.68,2.38-1.23,4.55-2.8,6.2-4.76,3.28-3.92,2.49-8.86.96-13.3-1.21-3.53-2.42-7.73-4.97-10.54-2.08-2.3-5.25-2.72-8.2-2.68-3.72.04-7.41.95-10.93,2.09-.26.09-.5.23-.7.41-.2.19-.35.42-.45.67l-.31.79h0Z" fill="#f7f7f7" stroke-width="0"/>
            <path d="m1179.25,80.76c.11.07.21.14.31.2.57.38.99.94,1.19,1.6,1.21,4.06,5.85,19.69,6.78,23.14.56,2.07.21,3.45-.25,4.31l.45.3c.69.47,1.53.64,2.34.48-.41-.08-.79-.24-1.14-.48l-.45-.3c.46-.85.81-2.24.25-4.31-.93-3.45-5.57-19.08-6.78-23.14-.2-.66-.61-1.22-1.19-1.6-.1-.06-.2-.13-.31-.2h0s.31-.79.31-.79c.1-.26.26-.49.45-.67.2-.19.44-.33.7-.41,3.43-1.11,7.03-2,10.65-2.09-.31,0-.62,0-.92,0-3.72.04-7.41.95-10.93,2.09-.26.09-.5.23-.7.41-.2.19-.35.42-.45.67l-.31.79h0Z" opacity=".2" stroke-width="0"/>
            <path d="m1140.34,103.41c.69,4.68,1.99,9.25,3.76,13.63,1.52,3.76,3.37,7.37,5.44,10.85,2.71,4.53,5.81,8.84,9.07,12.98l17.12,21.96c.5.64,1.42.77,2.07.29.03-.02.06-.04.08-.07l11.89-9.98c.09-.07.16-.15.23-.24.4-.52.42-1.26.01-1.81-2.13-2.86-8.04-10.7-14.87-18.74-5.68-6.68-7.54-11.18-8.16-13.46-.23-.84.44-1.64,1.31-1.58,10.68.77,18.02-6.1,18.02-6.1,0,0,.52-.33.95-1.12.46-.85.81-2.24.25-4.31-.93-3.45-5.57-19.08-6.78-23.14-.2-.66-.61-1.22-1.19-1.6-.1-.06-.2-.13-.31-.2-2.8-1.8-10.24-5.84-20.19-5.35-7.51.37-12.2,2.09-15.2,5.24h0c-2.09,2.2-3.36,5.09-4.17,8.71-1.03,4.56,0,9.51.66,14.05Z" fill="#f2f2f2" stroke-width="0"/>
            <path d="m1190.01,152.83c-.07.09-.14.17-.23.24l-11.89,9.98s-.06.05-.08.07c-.65.47-1.57.35-2.07-.29l-.53-.67,11.52-9.68c.09-.07.16-.15.23-.24.4-.52.42-1.26.01-1.81-2.13-2.86-8.04-10.7-14.87-18.74-5.68-6.68-7.54-11.18-8.16-13.46-.23-.84.44-1.64,1.31-1.58,10.69.77,18.02-6.1,18.02-6.1,0,0,.52-.33.95-1.12.46-.85.81-2.24.25-4.31-.93-3.45-5.57-19.08-6.78-23.14-.19-.66-.61-1.22-1.18-1.6-.1-.06-.2-.13-.31-.2-1.79-1.15-5.47-3.22-10.5-4.43,6.58.97,11.41,3.65,13.55,5.02.11.07.21.14.31.2.57.38.99.95,1.18,1.6,1.21,4.06,5.85,19.69,6.78,23.14.56,2.07.21,3.45-.25,4.31-.42.79-.95,1.12-.95,1.12,0,0-7.34,6.88-18.02,6.1-.86-.06-1.53.74-1.31,1.58.61,2.28,2.48,6.78,8.16,13.46,6.83,8.04,12.75,15.88,14.87,18.74.41.55.39,1.29-.01,1.81Z" opacity=".2" stroke-width="0"/>
            <path d="m1165.09,112.56c1.99-2.24,5.17-.73,5.17-.73,0,0,4.07,1.42,3.28,2.87-.79,1.45-3.47,1.04-3.47,1.04,0,0-1.8-.32-3.88-1.32-2.08-.99-1.1-1.87-1.1-1.87Z" fill="#545454" stroke-width="0"/>
            <path d="m1166.19,114.42c2.08.99,3.88,1.32,3.88,1.32,0,0,2.68.41,3.47-1.04.26-.48-.01-.96-.49-1.38-.83,1.38-3.43.98-3.43.98,0,0-1.8-.32-3.88-1.32-.28-.13-.5-.26-.68-.39-.16.17-.7.96,1.14,1.83Z" fill="#373736" stroke-width="0"/>
            <path d="m1152.7,87.99c8.09-1.8,16.57-.62,16.57-.62,0,0,2.56.38,2.56-2.27s-3.03-4.45-11.55-4.45-10.46,1.47-10.46,1.47c0,0-2.89,1.51-1.28,4.12,1.61,2.6,4.17,1.75,4.17,1.75Z" fill="#373736" stroke-width="0"/>
            <path d="m1177.81,163.12h0s.71.67,1.99.95c.38.08.77.04,1.11-.12h0c.14-.06.27-.14.39-.24l9.01-7.35c.2-.16.36-.36.47-.58.19-.39.24-.83.12-1.26-.31-1.09-.87-1.69-.87-1.69-.07.09-.14.17-.23.24l-11.89,9.98s-.06.05-.08.07Z" fill="#bbc6d2" stroke-width="0"/>
            <path d="m1190.77,155.78c-.11.22-.27.42-.47.58l-9.01,7.35c-.12.1-.25.18-.39.24-.35.16-.73.2-1.11.12-.38-.09-.71-.21-.99-.33.02,0,.04,0,.06.01.38.08.77.04,1.11-.12h0c.14-.06.27-.14.39-.24l9.01-7.35c.2-.16.36-.36.47-.58.19-.39.24-.83.12-1.26-.11-.38-.25-.7-.39-.96l.21-.18c.09-.07.16-.15.23-.24,0,0,.56.6.88,1.69.12.43.07.88-.12,1.26Z" opacity=".2" stroke-width="0"/>
            <path d="m1180.91,163.95l.66.17c.85.22,1.75.02,2.43-.54l5.89-4.83c.86-.71,1.21-1.86.89-2.92v-.04c-.12.22-.28.42-.48.58l-9.01,7.35c-.12.1-.25.18-.39.24Z" fill="#f2f2f2" stroke-width="0"/>
            <path d="m1189.89,158.75l-5.89,4.83c-.68.56-1.58.76-2.43.54l-.66-.17s.08-.04.12-.06c.81.16,1.65-.05,2.29-.57l5.89-4.83c.63-.52.99-1.27,1.01-2.06l.09-.07c.2-.16.36-.36.47-.58v.04c.33,1.07-.02,2.22-.88,2.93Z" opacity=".2" stroke-width="0"/>
            <path d="m1148.57,84.92c-2.39,2.92-2.98,6.94-4.41,5.76-1.44-1.18-1.26-5.15,1.13-8.08,2.39-2.92,6.1-3.68,7.54-2.5,1.44,1.18-1.86,1.89-4.25,4.81Z" fill="#fff" opacity=".6" stroke-width="0"/>
          </g>
          <rect x="1320.18" y="33.8" width="179.63" height="134.06" rx="43.48" ry="43.48" transform="translate(2741.49 -373.91) rotate(156.29)" fill="#1a1a1a" opacity=".33" stroke-width="0"/>
          <g>
            <rect x="1317.84" y="41.82" width="179.63" height="134.06" rx="43.48" ry="43.48" transform="translate(2740.24 -357.58) rotate(156.29)" fill="#ededed" stroke-width="0"/>
            <path d="m1342.16,70.18l5.32-2.34c-19.88,8.73-28.92,31.93-20.19,51.82l25.72,58.55c-5.88-4.02-10.74-9.68-13.82-16.68l-17.29-39.36c-8.76-19.95.31-43.23,20.26-51.99Z" fill="#fff" stroke-width="0"/>
            <path d="m1470.89,105.85l-18.38-41.84c-8.6-19.59-31.45-28.49-51.04-19.89l22.14-9.72c20.38-8.95,44.17.31,53.12,20.7l17.11,38.95c8.95,20.38-.31,44.17-20.7,53.12l-22.14,9.72c19.59-8.6,28.49-31.45,19.89-51.04Z" fill="#dbdbdb" stroke-width="0"/>
            <rect x="1358.87" y="83.07" width="79.04" height="8.68" rx="4.34" ry="4.34" transform="translate(2713.87 -394.93) rotate(156.29)" fill="#dbdbdb" stroke-width="0"/>
            <rect x="1308.45" y="87.08" width="179.63" height=".78" transform="translate(82.88 569.71) rotate(-23.71)" fill="#c1c1c1" stroke-width="0"/>
            <circle cx="1408.07" cy="109.45" r="1.93" fill="#373736" stroke-width="0"/>
          </g>
        </g>
        <g clip-path="url(#clippath-1)">
          <g>
            <path d="m2013.18,1089.97l-115.17-235.34,13.55-8.12c5.4-3.24,7.15-10.24,3.92-15.64l-6.28-10.47c-3.24-5.4-10.24-7.15-15.64-3.92l-11,6.59-14.06-28.72,12.93-6.33c5.65-2.77,7.99-9.59,5.23-15.25l-5.37-10.97c-2.77-5.65-9.59-7.99-15.25-5.23l-12.93,6.33-12.58-25.71,11.82-4.46c5.89-2.22,8.86-8.8,6.64-14.69l-4.31-11.42c-2.22-5.89-8.8-8.86-14.69-6.64l-14.91,5.63-10.18-20.81,12.93-6.33c5.65-2.77,7.99-9.59,5.23-15.25l-5.37-10.97c-2.77-5.65-9.59-7.99-15.25-5.23l-12.93,6.33-27.83-56.86c-3.75-7.67-12.81-10.94-20.23-7.31l-339.82,166.3c-7.42,3.63-10.39,12.79-6.64,20.46l19.17,39.17-1.41.69-7.25,3.55c-.66.32-.9,1.21-.53,1.97.37.76,1.21,1.12,1.87.79l7.25-3.55,1.42-.69,1.8,3.68-1.42.69-7.26,3.55c-.66.32-.9,1.2-.53,1.97.37.76,1.21,1.11,1.87.79l7.25-3.55,1.43-.7,8.75,17.89-1.43.7-7.26,3.55c-.66.32-.9,1.2-.53,1.97.37.76,1.21,1.11,1.87.79l7.25-3.55,1.44-.7,1.8,3.67-1.44.71-7.25,3.55c-.66.33-.9,1.21-.53,1.97.37.76,1.21,1.12,1.87.79l7.25-3.55,1.44-.71,8.76,17.89-1.49.73-7.25,3.55c-.66.32-.9,1.21-.53,1.97.37.76,1.21,1.11,1.87.79l7.25-3.55,1.49-.73,1.8,3.68-1.5.73-7.26,3.55c-.66.32-.9,1.2-.53,1.97.37.76,1.21,1.11,1.87.79l7.25-3.55,1.5-.74,8.76,17.89-1.53.75-7.25,3.55c-.67.33-.91,1.21-.53,1.96.37.76,1.21,1.12,1.87.8l7.26-3.55,1.53-.75,1.8,3.67-1.54.75-7.25,3.55c-.66.33-.9,1.21-.53,1.97.37.76,1.21,1.11,1.87.79l7.25-3.55,1.54-.75,8.76,17.89-1.56.77h0s-7.26,3.55-7.26,3.55c-.66.32-.9,1.21-.53,1.97.37.76,1.21,1.11,1.87.79l7.25-3.55,1.57-.77,1.8,3.68-1.57.77-7.25,3.55c-.67.33-.9,1.21-.53,1.97.37.76,1.21,1.12,1.87.8l7.26-3.55,1.58-.77,8.75,17.89-1.6.78-7.25,3.55c-.66.32-.9,1.2-.53,1.96.37.77,1.21,1.12,1.87.79l7.25-3.55,1.61-.79,1.8,3.68-1.61.79h0s-7.25,3.55-7.25,3.55c-.66.32-.9,1.21-.53,1.97.37.76,1.21,1.11,1.87.79l7.25-3.55,1.62-.79,8.75,17.89-1.64.8-7.25,3.55c-.66.32-.9,1.21-.53,1.97.37.76,1.21,1.11,1.87.79l7.25-3.55,1.65-.81,1.8,3.68-1.65.81-7.25,3.55c-.66.32-.9,1.2-.53,1.97.37.76,1.21,1.12,1.87.8l7.26-3.55,1.65-.81,8.75,17.89-1.68.82-7.25,3.55c-.66.32-.9,1.2-.53,1.96.38.77,1.21,1.12,1.87.79l7.25-3.55,1.68-.82,1.8,3.68-1.69.83-7.25,3.55c-.66.32-.9,1.21-.53,1.97.37.76,1.21,1.11,1.87.79l7.25-3.55,1.69-.83,8.76,17.89-1.72.84-7.25,3.55c-.66.32-.9,1.21-.53,1.97.37.76,1.21,1.11,1.87.79l7.25-3.55,1.72-.84,1.8,3.68-1.73.84-7.25,3.55c-.66.32-.9,1.2-.53,1.96.37.77,1.21,1.12,1.88.8l7.25-3.55,1.73-.85,8.75,17.89-1.76.86-7.25,3.55c-.66.32-.9,1.2-.53,1.96.37.77,1.21,1.12,1.87.79l7.25-3.55,1.76-.86,1.8,3.68-1.76.86-7.26,3.55c-.66.32-.9,1.21-.53,1.97.37.76,1.21,1.11,1.87.79l7.25-3.55,1.77-.87,8.76,17.89-1.79.88-7.25,3.55c-.67.33-.9,1.21-.53,1.97.37.76,1.21,1.12,1.87.8l7.25-3.55,1.8-.88,1.8,3.68-1.8.88-7.25,3.55c-.66.32-.9,1.2-.53,1.96.37.76,1.21,1.12,1.87.79l7.25-3.55,1.81-.88,8.76,17.89-1.83.9h0s-7.26,3.55-7.26,3.55c-.66.33-.9,1.21-.53,1.97.37.76,1.21,1.12,1.87.79l7.25-3.55,1.84-.9,1.8,3.68-1.84.9-7.25,3.55c-.67.33-.9,1.21-.53,1.97.37.76,1.21,1.12,1.87.8l7.25-3.55,1.84-.9,8.76,17.89-1.87.92-7.25,3.55c-.66.32-.9,1.21-.53,1.97.37.76,1.21,1.12,1.87.8l7.25-3.55,1.87-.92,1.8,3.68-1.88.92-7.25,3.55c-.66.32-.9,1.2-.53,1.96.37.76,1.21,1.12,1.87.79l7.25-3.55,1.88-.92,8.76,17.89-1.91.93-7.26,3.55c-.66.33-.9,1.21-.53,1.97.37.76,1.21,1.11,1.87.79l7.25-3.55,1.91-.94,1.8,3.68-1.92.94-7.25,3.55c-.66.32-.9,1.21-.53,1.97.37.76,1.21,1.12,1.87.8l7.26-3.55,1.92-.94,8.76,17.89-1.95.95-7.25,3.55c-.66.32-.9,1.2-.53,1.97.37.76,1.21,1.12,1.87.79l7.25-3.55,1.95-.95,1.8,3.68-1.96.96-7.25,3.55c-.66.32-.9,1.2-.53,1.96.37.77,1.21,1.12,1.87.79l7.25-3.55,1.96-.96,8.76,17.89-1.98.97-7.26,3.55c-.66.33-.9,1.21-.53,1.97.37.76,1.21,1.11,1.87.79l7.26-3.55h0s1.99-.97,1.99-.97l1.8,3.68-1.99.98-7.25,3.55c-.66.32-.9,1.21-.53,1.97.37.76,1.21,1.12,1.87.79l7.25-3.55,2-.98,19.02,38.86c3.75,7.67,12.81,10.94,20.23,7.31l339.82-166.3c7.42-3.63,10.39-12.79,6.64-20.46Zm-565.44-276.69c-.37-.76-1.21-1.12-1.87-.79l-6.01,2.94-2.43,1.19-1.8-3.68,2.43-1.19,6.01-2.94c.66-.32.9-1.21.53-1.97-.37-.76-1.21-1.11-1.87-.79l-6,2.94-2.44,1.19-1.64-3.35,15.13-7.41,7.41,15.13-15.13,7.41-1.27-2.59,2.42-1.19,6-2.94c.66-.33.9-1.21.53-1.97Zm13.23,27.09c-.37-.76-1.21-1.11-1.87-.79l-6,2.94-2.41,1.18-1.8-3.68,2.41-1.18,6-2.94c.67-.33.9-1.21.53-1.97-.38-.76-1.22-1.12-1.87-.79l-6.01,2.94-2.42,1.18-1.63-3.32,15.13-7.41,7.41,15.13-15.13,7.41-1.28-2.62,2.41-1.18,6-2.94c.66-.32.9-1.21.53-1.97Zm13.2,27.12c-.37-.76-1.21-1.12-1.87-.8l-6,2.94-2.35,1.15-1.8-3.68,2.35-1.15,6-2.94c.66-.32.9-1.21.53-1.97-.37-.76-1.21-1.11-1.87-.79l-6,2.93-2.36,1.16-1.61-3.29,15.13-7.41,7.4,15.13-15.13,7.41-1.29-2.64,2.34-1.15,6-2.94c.66-.33.9-1.21.53-1.97Zm13.22,27.1c-.37-.76-1.21-1.11-1.87-.79l-6,2.94-2.31,1.13-1.8-3.68,2.31-1.13,6.01-2.94c.66-.32.9-1.2.53-1.96-.38-.76-1.21-1.12-1.87-.79l-6.01,2.94-2.32,1.13-1.6-3.27,15.13-7.41,7.41,15.13-15.13,7.41-1.31-2.68,2.31-1.13,6-2.94c.66-.32.9-1.21.53-1.97Zm13.22,27.1c-.38-.76-1.21-1.12-1.87-.79l-6,2.94-2.27,1.11-1.8-3.68,2.28-1.11,6-2.94c.66-.32.9-1.21.53-1.97-.37-.76-1.21-1.12-1.87-.79l-6,2.94-2.28,1.12-1.58-3.23,15.13-7.41,7.41,15.13-15.13,7.41-1.33-2.71,2.27-1.11,6-2.94c.66-.32.9-1.2.53-1.96Zm13.21,27.1c-.37-.76-1.21-1.12-1.87-.79l-6,2.93-2.24,1.09-1.8-3.68,2.24-1.1,6-2.94c.66-.32.9-1.2.53-1.96-.37-.77-1.21-1.12-1.88-.8l-6,2.94-2.24,1.1-1.57-3.2,15.13-7.41,7.4,15.13-15.13,7.41-1.34-2.74,2.23-1.09,6-2.94c.66-.32.9-1.21.53-1.97Zm13.22,27.1c-.37-.77-1.21-1.12-1.87-.79l-6,2.94-2.2,1.07-1.8-3.68,2.2-1.08,6-2.94c.66-.32.9-1.21.53-1.97-.37-.76-1.21-1.12-1.87-.79l-6.01,2.94-2.21,1.08-1.55-3.17,15.13-7.41,7.41,15.13-15.13,7.41-1.36-2.77,2.19-1.07,6-2.94c.66-.32.9-1.2.53-1.96Zm13.21,27.1c-.37-.76-1.21-1.12-1.87-.79l-6,2.94-2.16,1.06-1.8-3.68,2.16-1.06,6-2.94c.66-.32.9-1.2.53-1.97-.37-.76-1.21-1.11-1.87-.79l-6,2.94-2.17,1.06-1.53-3.14,15.13-7.41,7.41,15.13-15.13,7.41-1.37-2.8,2.15-1.05,6-2.94c.66-.32.9-1.21.53-1.97Zm13.22,27.1c-.37-.76-1.21-1.12-1.87-.79l-6.01,2.94-2.12,1.04-1.8-3.68,2.13-1.04,6-2.94c.67-.33.9-1.21.53-1.97-.37-.76-1.21-1.12-1.87-.8l-6.01,2.94-2.13,1.04-1.52-3.1,15.13-7.41,7.4,15.13-15.13,7.41-1.39-2.83,2.11-1.03,6.01-2.94c.66-.32.9-1.2.53-1.96Zm13.21,27.1c-.37-.76-1.21-1.12-1.87-.8l-6,2.94-2.08,1.02-1.8-3.68,2.09-1.02,6-2.94c.66-.32.9-1.2.53-1.97-.37-.76-1.21-1.11-1.87-.79l-6,2.94-2.09,1.02-1.5-3.07,15.13-7.41,7.41,15.13-15.13,7.41-1.4-2.87,2.08-1.02,6-2.94c.67-.33.9-1.21.53-1.97Zm13.22,27.1c-.37-.76-1.21-1.12-1.88-.79l-6,2.94-2.04,1-1.8-3.68,2.05-1.01,6-2.94c.66-.32.9-1.21.53-1.97-.37-.76-1.21-1.12-1.87-.79l-6,2.94-2.06,1.01-1.49-3.04,15.13-7.41,7.41,15.13-15.13,7.41-1.42-2.9,2.04-1,6-2.94c.66-.32.9-1.2.53-1.96Zm13.22,27.1c-.37-.76-1.21-1.11-1.87-.79l-6.01,2.94-2,.98-1.8-3.68,2.01-.98,6-2.94c.66-.32.9-1.2.53-1.97-.37-.76-1.21-1.12-1.87-.79l-6,2.94-2.01.98-1.47-3.01,15.13-7.41,7.41,15.13-15.13,7.41-1.43-2.92,2-.98,6.01-2.94c.66-.32.9-1.21.53-1.97Zm13.21,27.1c-.37-.76-1.21-1.12-1.87-.79l-6,2.94-1.97.96-1.8-3.68,1.98-.97,6-2.94c.66-.33.9-1.21.53-1.97-.37-.76-1.21-1.11-1.87-.79l-6,2.94-1.98.97-1.46-2.99,15.13-7.41,7.41,15.13-15.13,7.41-1.45-2.96,1.97-.96,6-2.94c.66-.32.9-1.2.53-1.97Zm13.22,27.1c-.37-.76-1.21-1.11-1.87-.79l-6,2.94-1.93.94-1.8-3.68,1.94-.95,6-2.93c.66-.32.9-1.2.53-1.97-.37-.76-1.21-1.12-1.87-.79l-6,2.93-1.94.95-1.44-2.95,15.13-7.41,7.41,15.13-15.13,7.41-1.46-2.99,1.93-.94,6-2.94c.66-.32.9-1.21.53-1.97Zm13.21,27.1c-.37-.76-1.21-1.12-1.87-.79l-6,2.94-1.89.93-1.8-3.68,1.9-.93,6-2.94c.66-.33.9-1.21.53-1.97-.37-.76-1.21-1.11-1.87-.79l-6,2.94-1.9.93-1.43-2.93,15.13-7.41,7.41,15.13-15.13,7.41-1.48-3.02,1.89-.92,6-2.94c.66-.32.9-1.2.53-1.97Zm13.22,27.1c-.37-.76-1.21-1.11-1.87-.79l-6,2.94-1.85.91-1.8-3.68,1.86-.91,6-2.94c.67-.33.9-1.21.53-1.97-.37-.76-1.21-1.12-1.87-.8l-6,2.94-1.87.91-1.42-2.9,15.13-7.41,7.41,15.13-15.13,7.41-1.48-3.03,1.85-.91,6-2.94c.66-.32.9-1.21.53-1.97Z" fill="#020617" mix-blend-mode="hard-light" opacity=".33" stroke-width="0"/>
            <g>
              <path d="m1745.98,585.2l-339.82,166.3c-7.42,3.63-10.39,12.79-6.64,20.46l241.49,493.47c3.75,7.67,12.81,10.94,20.23,7.31l339.82-166.3c7.42-3.63,10.39-12.79,6.64-20.46l-241.49-493.47c-3.75-7.67-12.81-10.94-20.23-7.31Zm-125.64,612.35l-7.41-15.13,15.13-7.41,7.41,15.13-15.13,7.41Zm20.99,4.57l7.41,15.13-15.13,7.41-7.41-15.13,15.13-7.41Zm-34.26-31.68l-7.41-15.13,15.13-7.41,7.41,15.13-15.13,7.41Zm-13.27-27.11l-7.41-15.13,15.13-7.41,7.41,15.13-15.13,7.41Zm-13.27-27.11l-7.41-15.13,15.13-7.41,7.41,15.13-15.13,7.41Zm-13.27-27.11l-7.41-15.13,15.13-7.41,7.41,15.13-15.13,7.41Zm-13.27-27.11l-7.41-15.13,15.13-7.41,7.41,15.13-15.13,7.41Zm-13.27-27.11l-7.4-15.13,15.13-7.41,7.4,15.13-15.13,7.41Zm-13.27-27.11l-7.41-15.13,15.13-7.41,7.41,15.13-15.13,7.41Zm-13.27-27.11l-7.41-15.13,15.13-7.41,7.41,15.13-15.13,7.41Zm-13.27-27.11l-7.4-15.13,15.13-7.41,7.4,15.13-15.13,7.41Zm-13.27-27.11l-7.41-15.13,15.13-7.41,7.41,15.13-15.13,7.41Zm-13.27-27.11l-7.41-15.13,15.13-7.41,7.41,15.13-15.13,7.41Zm-13.27-27.11l-7.4-15.13,15.13-7.41,7.4,15.13-15.13,7.41Zm-13.27-27.11l-7.41-15.13,15.13-7.41,7.41,15.13-15.13,7.41Zm-13.27-27.11l-7.41-15.13,15.13-7.41,7.41,15.13-15.13,7.41Z" fill="#14b8a6" stroke-width="0"/>
              <g>
                <rect x="1813.76" y="829.91" width="100.23" height="35.01" rx="11.4" ry="11.4" transform="translate(-170.49 1078.7) rotate(-30.94)" fill="#98ce00" stroke-width="0"/>
                <rect x="1783.38" y="767.83" width="100.23" height="35.01" rx="11.4" ry="11.4" transform="translate(-158.57 885.88) rotate(-26.08)" fill="#ff3562" stroke-width="0"/>
                <rect x="1754.37" y="708.54" width="100.23" height="35.01" rx="11.4" ry="11.4" transform="translate(-140.13 684.02) rotate(-20.68)" fill="#ffc800" stroke-width="0"/>
                <rect x="1729.77" y="658.29" width="100.23" height="35.01" rx="11.4" ry="11.4" transform="translate(-115.88 851.17) rotate(-26.08)" fill="#ff8427" stroke-width="0"/>
                <g>
                  <path d="m1739.35,598.01l-322.33,157.74c-8.89,4.35-12.56,15.08-8.21,23.96l231.79,473.63c4.35,8.89,15.08,12.56,23.96,8.21l322.33-157.74c8.89-4.35,12.56-15.08,8.21-23.96l-231.79-473.63c-4.35-8.89-15.08-12.56-23.96-8.22Zm-132.28,572.43l-7.41-15.13,15.13-7.41,7.41,15.13-15.13,7.41Zm21,4.57l7.41,15.13-15.13,7.41-7.41-15.13,15.13-7.41Zm-34.26-31.69l-7.41-15.13,15.13-7.41,7.41,15.13-15.13,7.41Zm-13.27-27.11l-7.41-15.13,15.13-7.41,7.41,15.13-15.13,7.41Zm-13.27-27.11l-7.41-15.13,15.13-7.41,7.41,15.13-15.13,7.41Zm-13.27-27.11l-7.41-15.13,15.13-7.41,7.41,15.13-15.13,7.41Zm-13.27-27.11l-7.4-15.13,15.13-7.41,7.4,15.13-15.13,7.41Zm-13.27-27.11l-7.41-15.13,15.13-7.41,7.41,15.13-15.13,7.41Zm-13.27-27.11l-7.41-15.13,15.13-7.41,7.41,15.13-15.13,7.41Zm-13.27-27.11l-7.4-15.13,15.13-7.41,7.4,15.13-15.13,7.41Zm-13.27-27.11l-7.41-15.13,15.13-7.41,7.41,15.13-15.13,7.41Zm-13.27-27.11l-7.41-15.13,15.13-7.41,7.41,15.13-15.13,7.41Zm-13.27-27.11l-7.4-15.13,15.13-7.41,7.4,15.13-15.13,7.41Zm-13.27-27.11l-7.41-15.13,15.13-7.41,7.41,15.13-15.13,7.41Zm178.35,364.45l15.13-7.41,7.41,15.13-15.13,7.41-7.41-15.13Zm-176.49-398.97l-15.13,7.41-7.41-15.13,15.13-7.41,7.41,15.13Z" opacity=".12" stroke-width="0"/>
                  <g>
                    <path d="m1736.37,601.93l-318.54,155.89c-8.8,4.31-12.44,14.93-8.13,23.73l229.99,469.97c4.31,8.8,14.93,12.44,23.73,8.13l318.54-155.89c8.8-4.31,12.44-14.93,8.13-23.72l-229.99-469.97c-4.31-8.8-14.93-12.44-23.72-8.14Zm-87.64,615.32l-15.13,7.41-7.41-15.13,15.13-7.41,7.41,15.13Zm-13.26-27.1l-15.13,7.41-7.41-15.13,15.13-7.41,7.41,15.13Zm-13.27-27.11l-15.13,7.41-7.41-15.13,15.13-7.41,7.41,15.13Zm-13.27-27.11l-15.13,7.41-7.41-15.13,15.13-7.41,7.41,15.13Zm-13.27-27.11l-15.13,7.41-7.41-15.13,15.13-7.41,7.41,15.13Zm-13.27-27.11l-15.13,7.41-7.41-15.13,15.13-7.41,7.41,15.13Zm-13.27-27.11l-15.13,7.41-7.41-15.13,15.13-7.41,7.41,15.13Zm-13.27-27.11l-15.13,7.41-7.4-15.13,15.13-7.41,7.4,15.13Zm-13.27-27.11l-15.13,7.41-7.41-15.13,15.13-7.41,7.41,15.13Zm-13.27-27.11l-15.13,7.41-7.41-15.13,15.13-7.41,7.41,15.13Zm-13.27-27.11l-15.13,7.41-7.4-15.13,15.13-7.41,7.4,15.13Zm-13.27-27.11l-15.13,7.41-7.41-15.13,15.13-7.41,7.41,15.13Zm-13.27-27.11l-15.13,7.41-7.41-15.13,15.13-7.41,7.41,15.13Zm-13.27-27.11l-15.13,7.41-7.4-15.13,15.13-7.41,7.4,15.13Zm-13.27-27.11l-15.13,7.41-7.41-15.13,15.13-7.41,7.41,15.13Zm-13.27-27.11l-15.13,7.41-7.41-15.13,15.13-7.41,7.41,15.13Z" fill="#fafafa" stroke-width="0"/>
                    <g>
                      <path d="m1752.58,651.31l-288.82,141.34c-.05.03-.12,0-.14-.05s0-.12.05-.14l288.82-141.34c.05-.03.12,0,.14.05s0,.12-.05.14Z" stroke-width="0"/>
                      <path d="m1767,680.78l-288.82,141.34c-.05.03-.12,0-.14-.05s0-.12.05-.14l288.82-141.34c.05-.03.12,0,.14.05s0,.12-.05.14Z" stroke-width="0"/>
                      <path d="m1781.43,710.26l-288.82,141.34c-.05.03-.12,0-.14-.05s0-.12.05-.14l288.82-141.34c.05-.03.12,0,.14.05s0,.12-.05.14Z" stroke-width="0"/>
                      <path d="m1795.85,739.74l-288.82,141.34c-.05.03-.12,0-.14-.05s0-.12.05-.14l288.82-141.34c.05-.03.12,0,.14.05s0,.12-.05.14Z" stroke-width="0"/>
                      <path d="m1810.28,769.21l-288.82,141.34c-.05.03-.12,0-.14-.05s0-.12.05-.14l288.82-141.34c.05-.03.12,0,.14.05s0,.12-.05.14Z" stroke-width="0"/>
                      <path d="m1824.7,798.69l-288.82,141.34c-.05.03-.12,0-.14-.05s0-.12.05-.14l288.82-141.34c.05-.03.12,0,.14.05s0,.12-.05.14Z" stroke-width="0"/>
                      <path d="m1839.13,828.16l-288.82,141.34c-.05.03-.12,0-.14-.05s0-.12.05-.14l288.82-141.34c.05-.03.12,0,.14.05s0,.12-.05.14Z" stroke-width="0"/>
                      <path d="m1853.55,857.64l-288.82,141.34c-.05.03-.12,0-.14-.05s0-.12.05-.14l288.82-141.34c.05-.03.12,0,.14.05s0,.12-.05.14Z" stroke-width="0"/>
                      <path d="m1867.98,887.11l-288.82,141.34c-.05.03-.12,0-.14-.05s0-.12.05-.14l288.82-141.34c.05-.03.12,0,.14.05s0,.12-.05.14Z" stroke-width="0"/>
                      <path d="m1882.4,916.59l-288.82,141.34c-.05.03-.12,0-.14-.05s0-.12.05-.14l288.82-141.34c.05-.03.12,0,.14.05s0,.12-.05.14Z" stroke-width="0"/>
                      <path d="m1896.83,946.07l-288.82,141.34c-.05.03-.12,0-.14-.05s0-.12.05-.14l288.82-141.34c.05-.03.12,0,.14.05s0,.12-.05.14Z" stroke-width="0"/>
                      <path d="m1911.25,975.54l-288.82,141.34c-.05.03-.12,0-.14-.05s0-.12.05-.14l288.82-141.34c.05-.03.12,0,.14.05s0,.12-.05.14Z" stroke-width="0"/>
                      <path d="m1925.68,1005.02l-288.82,141.34c-.05.03-.12,0-.14-.05s0-.12.05-.14l288.82-141.34c.05-.03.12,0,.14.05s0,.12-.05.14Z" stroke-width="0"/>
                      <path d="m1940.1,1034.49l-288.82,141.34c-.05.03-.12,0-.14-.05s0-.12.05-.14l288.82-141.34c.05-.03.12,0,.14.05s0,.12-.05.14Z" stroke-width="0"/>
                      <path d="m1954.53,1063.97l-288.82,141.34c-.05.03-.12,0-.14-.05s0-.12.05-.14l288.82-141.34c.05-.03.12,0,.14.05s0,.12-.05.14Z" stroke-width="0"/>
                    </g>
                  </g>
                </g>
                <g>
                  <g>
                    <path d="m1439.12,802.85c.37.76.14,1.64-.53,1.97l-6.01,2.94-5.25,2.56-8.71,4.26-7.25,3.55c-.67.33-1.5-.03-1.87-.79-.37-.76-.14-1.64.53-1.97l7.25-3.55,8.71-4.26,5.25-2.57,6-2.94c.66-.32,1.5.03,1.87.79Z" fill="gray" stroke-width="0"/>
                    <path d="m1442.26,809.29c.37.76.13,1.64-.53,1.97l-6,2.94-5.26,2.57-8.71,4.26-7.25,3.55c-.66.32-1.5-.03-1.87-.79-.37-.77-.14-1.64.53-1.97l7.26-3.55,8.71-4.26,5.25-2.57,6.01-2.94c.66-.32,1.5.03,1.87.79Z" fill="gray" stroke-width="0"/>
                  </g>
                  <g>
                    <path d="m1452.36,829.94c.37.76.13,1.64-.53,1.97l-6,2.94-5.25,2.57-8.71,4.26-7.25,3.55c-.66.32-1.5-.03-1.87-.79-.37-.77-.14-1.64.53-1.97l7.26-3.55,8.71-4.26,5.25-2.57,6.01-2.94c.66-.33,1.5.03,1.87.79Z" fill="gray" stroke-width="0"/>
                    <path d="m1455.5,836.38c.37.76.14,1.64-.53,1.97l-6,2.94-5.26,2.57-8.71,4.26-7.25,3.55c-.67.33-1.5-.03-1.87-.79-.37-.76-.13-1.64.53-1.97l7.25-3.55,8.71-4.26,5.25-2.57,6-2.94c.66-.32,1.5.03,1.87.79Z" fill="gray" stroke-width="0"/>
                  </g>
                  <g>
                    <path d="m1465.55,857.05c.37.76.14,1.64-.53,1.97l-6,2.94-5.26,2.57-8.71,4.26-7.25,3.55c-.66.32-1.5-.03-1.87-.79-.37-.76-.14-1.64.53-1.97l7.25-3.55,8.71-4.26,5.26-2.57,6-2.93c.66-.32,1.5.03,1.87.79Z" fill="gray" stroke-width="0"/>
                    <path d="m1468.69,863.5c.37.76.13,1.64-.53,1.97l-6,2.94-5.25,2.57-8.71,4.26-7.25,3.55c-.66.32-1.5-.03-1.87-.79-.38-.77-.14-1.64.53-1.97l7.26-3.55,8.71-4.26,5.26-2.57,6-2.94c.66-.33,1.5.03,1.87.8Z" fill="gray" stroke-width="0"/>
                  </g>
                  <g>
                    <path d="m1478.77,884.16c.37.76.13,1.64-.53,1.96l-6.01,2.94-5.25,2.57-8.71,4.26-7.26,3.55c-.66.32-1.5-.03-1.87-.8-.37-.76-.14-1.64.53-1.96l7.25-3.55,8.71-4.26,5.25-2.57,6.01-2.94c.66-.33,1.5.03,1.87.79Z" fill="gray" stroke-width="0"/>
                    <path d="m1481.91,890.6c.37.76.14,1.64-.53,1.97l-6,2.94-5.26,2.57-8.71,4.26-7.25,3.55c-.66.32-1.5-.03-1.87-.79-.37-.76-.13-1.64.53-1.97l7.25-3.55,8.71-4.26,5.25-2.57,6-2.94c.66-.32,1.5.03,1.87.79Z" fill="gray" stroke-width="0"/>
                  </g>
                  <g>
                    <path d="m1491.98,911.26c.37.76.14,1.64-.53,1.97l-6,2.94-5.25,2.57-8.71,4.26-7.25,3.55c-.66.32-1.5-.03-1.87-.79-.37-.76-.14-1.65.53-1.97l7.26-3.55h0s8.7-4.26,8.7-4.26l5.25-2.57,6-2.94c.67-.33,1.5.03,1.87.79Z" fill="gray" stroke-width="0"/>
                    <path d="m1495.13,917.7c.37.76.13,1.64-.53,1.96l-6,2.94-5.25,2.57-8.71,4.26-7.26,3.55c-.66.32-1.5-.03-1.87-.8-.38-.76-.14-1.64.53-1.97l7.25-3.55,8.71-4.26,5.25-2.57,6-2.94c.66-.33,1.5.03,1.87.79Z" fill="gray" stroke-width="0"/>
                  </g>
                  <g>
                    <path d="m1505.2,938.36c.37.76.13,1.64-.53,1.96l-6,2.94-5.26,2.57-8.71,4.26-7.25,3.55c-.66.33-1.5-.02-1.87-.79-.37-.76-.13-1.64.53-1.96l7.25-3.55,8.71-4.26,5.25-2.57,6-2.94c.66-.32,1.5.03,1.88.8Z" fill="gray" stroke-width="0"/>
                    <path d="m1508.34,944.8c.37.76.14,1.64-.53,1.97l-6,2.94-5.25,2.57-8.71,4.26-7.25,3.55c-.66.32-1.5-.03-1.87-.79-.37-.76-.14-1.64.53-1.97l7.25-3.55h0s8.7-4.26,8.7-4.26l5.26-2.57,6-2.93c.67-.33,1.5.03,1.87.79Z" fill="gray" stroke-width="0"/>
                  </g>
                  <g>
                    <path d="m1518.42,965.46c.37.76.14,1.64-.53,1.97l-6,2.94-5.25,2.57-8.71,4.26-7.25,3.55c-.66.32-1.5-.03-1.87-.79-.37-.76-.14-1.64.53-1.97l7.25-3.55,8.71-4.26,5.25-2.57,6.01-2.94c.66-.32,1.5.03,1.87.79Z" fill="gray" stroke-width="0"/>
                    <path d="m1521.56,971.9c.37.76.13,1.64-.53,1.96l-6,2.94-5.25,2.57-8.71,4.26-7.26,3.55c-.66.32-1.5-.03-1.87-.8-.37-.76-.14-1.64.53-1.97l7.25-3.55,8.71-4.26,5.25-2.57,6-2.94c.66-.33,1.5.03,1.87.79Z" fill="gray" stroke-width="0"/>
                  </g>
                  <g>
                    <path d="m1531.63,992.56c.37.77.14,1.64-.53,1.97l-6,2.94-5.25,2.57-8.71,4.26-7.25,3.55c-.66.33-1.5-.03-1.87-.79-.37-.76-.13-1.64.53-1.96l7.25-3.55,8.71-4.26,5.25-2.57,6-2.94c.66-.32,1.5.03,1.87.79Z" fill="gray" stroke-width="0"/>
                    <path d="m1534.77,999c.37.76.14,1.64-.53,1.97l-6,2.94-5.25,2.57-8.71,4.26-7.25,3.55c-.66.32-1.5-.03-1.87-.79-.37-.76-.14-1.64.53-1.97l7.25-3.55,8.71-4.26,5.25-2.57,6-2.94c.66-.32,1.5.03,1.87.79Z" fill="gray" stroke-width="0"/>
                  </g>
                  <g>
                    <path d="m1544.85,1019.66c.37.76.14,1.64-.53,1.97l-6,2.94-5.25,2.57-8.71,4.26-7.25,3.55c-.66.32-1.5-.03-1.87-.79-.37-.76-.14-1.64.53-1.97l7.25-3.55,8.71-4.26,5.25-2.57,6-2.94c.66-.32,1.5.03,1.87.8Z" fill="gray" stroke-width="0"/>
                    <path d="m1547.99,1026.1c.37.76.13,1.64-.53,1.96l-6.01,2.94-5.25,2.57-8.71,4.26-7.25,3.55c-.67.33-1.51-.03-1.88-.8-.37-.76-.13-1.64.53-1.96l7.25-3.55,8.71-4.26,5.25-2.57,6.01-2.94c.66-.33,1.5.03,1.87.79Z" fill="gray" stroke-width="0"/>
                  </g>
                  <g>
                    <path d="m1558.06,1046.76c.37.77.14,1.64-.53,1.97l-6,2.94-5.25,2.57-8.71,4.26-7.25,3.55c-.66.33-1.5-.03-1.87-.79-.37-.76-.13-1.64.53-1.96l7.25-3.55,8.71-4.26,5.25-2.57,6-2.94c.66-.32,1.5.03,1.87.79Z" fill="gray" stroke-width="0"/>
                    <path d="m1561.2,1053.2c.37.76.14,1.64-.53,1.97l-6,2.94-5.26,2.57-8.71,4.26-7.25,3.55c-.66.32-1.5-.03-1.87-.79-.37-.76-.14-1.64.53-1.97l7.26-3.55,8.71-4.26,5.25-2.57,6-2.94c.66-.32,1.5.03,1.87.8Z" fill="gray" stroke-width="0"/>
                  </g>
                  <g>
                    <path d="m1571.28,1073.86c.37.76.14,1.64-.53,1.97l-6,2.94-5.26,2.57-8.71,4.26-7.25,3.55c-.66.32-1.5-.03-1.87-.8-.37-.76-.14-1.64.53-1.97l7.25-3.55,8.71-4.26,5.25-2.57,6-2.94c.66-.32,1.5.03,1.87.79Z" fill="gray" stroke-width="0"/>
                    <path d="m1574.42,1080.3c.37.76.13,1.64-.53,1.96l-6,2.94-5.25,2.57-8.71,4.26-7.25,3.55c-.66.33-1.5-.03-1.87-.79-.37-.76-.13-1.64.53-1.96l7.25-3.55,8.71-4.26,5.25-2.57,6-2.94c.66-.32,1.5.03,1.88.79Z" fill="gray" stroke-width="0"/>
                  </g>
                </g>
              </g>
            </g>
            <path d="m1699.04,784.98l-24.83-24.14-4.91-4.78c-1.51-1.47-3.96-1.48-5.68-.05-.05.05-.11.09-.16.14l-1.33,1.21-5.85-6.42-1.05-1.16c-1.61-1.77-4.35-1.89-6.11-.29l-1.61,1.47-1.61,1.47c-1.77,1.61-1.89,4.35-.29,6.11l1.05,1.16,5.85,6.42-1.25,1.14c-.05.05-.11.1-.16.15-1.58,1.57-1.8,4.02-.48,5.66l4.3,5.34,11.18,13.89c-.09.15-.17.32-.26.48-.02.04-.04.08-.06.12-.07.15-.15.3-.22.46-.01.03-.02.05-.04.08-.08.19-.16.38-.24.58-.01.03-.03.07-.04.1-.06.17-.13.34-.19.52-.02.05-.04.1-.05.15-.07.21-.14.43-.21.66,0,.01,0,.02,0,.03-.06.21-.12.44-.17.66-.02.06-.03.13-.04.19-.05.21-.09.41-.13.63,0,.04-.02.09-.02.13-.04.26-.08.52-.12.8,0,.02,0,.04,0,.06h0c-.13,1.02-.17,2.14-.11,3.36,0,.04,0,.09,0,.13.71,12.39,12.01,24.08,13.23,25.31,22.84,24.09,45.69,48.19,68.54,72.28.92-1.46,1.79-3.69.79-6.53-1.56-4.44-6.82-8.03-8.64-9.3-21.63-15.15-45.97-46.99-52.7-57.12-.81-1.23-1.67-2.59-2.46-4.05-1.06-1.96-1.98-4.11-2.47-6.32h0c-.17-.74-.29-1.49-.34-2.25-.11-1.39,0-2.59.22-3.61,1.2,1.4,2.42,2.78,3.66,4.14l77.84,85.45,7.52,8.05,10.59,11.32,15.12,16.18c7.63,8.16,15.62,15.96,23.97,23.4l38.87,32.97-.05.05,5.32,3.33c.81.51,1.83.47,2.6-.07l7.49,6.3c.67.56,1.45.45,1.98.03.03-.02.06-.04.08-.07.53-.48.76-1.3.23-2.05l-5.59-8.07c.5-.7.59-1.64.19-2.44l-2.73-5.41.03-.02-29.33-41.94c-6.62-9-13.65-17.69-21.06-26.04l-14.7-16.56-10.29-11.59-7.31-8.23-77.84-85.45c-2.54-2.79-5.18-5.51-7.89-8.15Z" fill="#1a1a1a" opacity=".33" stroke-width="0"/>
            <g>
              <g>
                <rect x="1652.03" y="740.86" width="13.02" height="26.04" rx="4.33" ry="4.33" transform="translate(-76.97 1308.05) rotate(-42.15)" fill="#255cc0" stroke-width="0"/>
                <path d="m1669.32,784.01l14.44,15.95c-.45.74-.98,1.81-1.29,3.25-.22,1.02-.33,2.22-.23,3.61.22,3.01,1.38,5.96,2.79,8.58.78,1.47,1.63,2.83,2.44,4.06,6.7,10.15,30.94,42.06,52.51,57.27,1.81,1.28,7.07,4.88,8.61,9.32.99,2.85.12,5.07-.81,6.53-22.76-24.16-45.53-48.32-68.3-72.48-1.22-1.24-12.48-12.96-13.15-25.35,0-.04,0-.09,0-.13-.2-4.14.85-7.08,1.94-9.01.36-.64.73-1.17,1.05-1.6Z" fill="#ff8427" stroke-width="0"/>
                <path d="m1857.65,964.6l9.42,13.69.12.17,4.29,6.24,5.57,8.08c.52.75.29,1.57-.24,2.05-.03.03-.05.05-.08.07-.53.43-1.32.53-1.98-.03l-7.47-6.32-5.81-4.91-.16-.14-12.69-10.74c-.72-.62-.74-1.73-.04-2.36l6.72-6.08c.7-.64,1.81-.51,2.35.27Z" fill="#e8e8e8" stroke-width="0"/>
                <path d="m1868.88,976.66l.1.19,2.71,5.42c.4.8.31,1.74-.2,2.44-.09.13-.21.26-.33.37l-3.64,3.29c-.08.07-.16.13-.24.19-.77.53-1.79.57-2.6.06l-5.3-3.35,9.51-8.61Z" fill="#eb9532" stroke-width="0"/>
                <path d="m1709.09,786.55l77.56,85.68,7.28,8.26,10.25,11.62,14.65,16.6c7.38,8.37,14.39,17.08,20.98,26.1l29.19,42.02-9.42,8.53-.16-.14-38.75-33.08c-8.32-7.46-16.29-15.29-23.89-23.46l-15.06-16.22-10.55-11.35-7.49-8.07-77.56-85.68c-1.23-1.36-2.45-2.75-3.64-4.15-1.26-1.47-2.5-2.97-3.71-4.49l-10.49-13.11-11.14-13.92-4.28-5.35c-1.31-1.65-1.09-4.09.5-5.66.05-.05.1-.1.16-.15l12.23-11.07c.05-.05.11-.1.16-.14,1.72-1.42,4.17-1.41,5.68.07l4.9,4.79,24.75,24.21c2.7,2.64,5.33,5.37,7.86,8.17Z" fill="#255cc0" stroke-width="0"/>
                <path d="m1676.98,754.74l-19.35,17.51-4.61-5.71c-1.42-1.76-1.27-4.28.31-5.86.05-.05.1-.1.16-.15l12.23-11.07c.05-.05.11-.1.16-.14,1.72-1.42,4.25-1.31,5.86.27l5.23,5.15Z" fill="#ff8427" stroke-width="0"/>
                <polygon points="1793.93 880.48 1804.18 892.11 1781.71 912.45 1771.16 901.1 1793.93 880.48" fill="#ff8427" stroke-width="0"/>
                <path d="m1657.53,743.07l1.05,1.16-9.65,8.74-1.05-1.16c-1.6-1.77-1.47-4.51.3-6.11l3.24-2.93c1.77-1.6,4.51-1.47,6.11.3Z" fill="#ff8427" stroke-width="0"/>
              </g>
              <path d="m1649.8,744.23l226.93,250.68c-.53.43-1.32.53-1.98-.03l-7.47-6.32c-.77.53-1.79.57-2.6.06l-5.3-3.35.05-.05-38.75-33.08c-8.32-7.46-16.29-15.29-23.89-23.46l-15.06-16.22-10.55-11.35-7.49-8.07-77.56-85.68c-1.23-1.36-2.45-2.75-3.64-4.15-.22,1.02-.33,2.22-.23,3.61.06.76.17,1.51.34,2.26l-16.13-17.81c.3-2.42,1.05-4.29,1.82-5.65l-11.14-13.92-4.28-5.35c-1.31-1.65-1.09-4.09.5-5.66.05-.05.1-.1.16-.15l1.25-1.13-6.87-7.59c-1.6-1.77-1.47-4.51.3-6.11l1.62-1.46Z" mix-blend-mode="darken" opacity=".25" stroke-width="0"/>
            </g>
          </g>
        </g>
      </g>
    </g>
  </g>
</svg>