<?xml version="1.0" encoding="UTF-8"?>
<svg xmlns="http://www.w3.org/2000/svg" xmlns:xlink="http://www.w3.org/1999/xlink" viewBox="0 0 1920 1080">
  <defs>
    <linearGradient id="linear-gradient" x1="-4140.46" y1="2938.23" x2="-4218.52" y2="2758.09" gradientTransform="translate(6778.2 225.98) rotate(34.38)" gradientUnits="userSpaceOnUse">
      <stop offset="0" stop-color="#774f3f"/>
      <stop offset="1" stop-color="#dda780"/>
    </linearGradient>
    <linearGradient id="linear-gradient-2" x1="-4194.15" y1="2802.54" x2="-4143.8" y2="2911.09" gradientTransform="translate(6778.2 225.98) rotate(34.38)" gradientUnits="userSpaceOnUse">
      <stop offset="0" stop-color="#774f3f"/>
      <stop offset="1" stop-color="#563021"/>
    </linearGradient>
    <linearGradient id="linear-gradient-3" x1="-4214.24" y1="2788.2" x2="-4201.81" y2="2788.2" xlink:href="#linear-gradient-2"/>
    <linearGradient id="linear-gradient-4" x1="-4263.64" y1="2818.36" x2="-4251.21" y2="2818.36" xlink:href="#linear-gradient-2"/>
    <linearGradient id="linear-gradient-5" x1="-4244.82" y1="2784.09" x2="-4236.54" y2="2784.09" xlink:href="#linear-gradient-2"/>
    <linearGradient id="linear-gradient-6" x1="-4195.31" y1="2757.35" x2="-4187.02" y2="2757.35" xlink:href="#linear-gradient-2"/>
    <linearGradient id="linear-gradient-7" x1="-4225.02" y1="2828.78" x2="-4214.66" y2="2828.78" xlink:href="#linear-gradient-2"/>
    <linearGradient id="linear-gradient-8" x1="-4233.31" y1="2842.49" x2="-4227.09" y2="2842.49" xlink:href="#linear-gradient-2"/>
    <linearGradient id="linear-gradient-9" x1="-4227.1" y1="2818.35" x2="-4220.89" y2="2818.35" xlink:href="#linear-gradient-2"/>
    <linearGradient id="linear-gradient-10" x1="-4198.41" y1="2783.06" x2="-4192.2" y2="2783.06" xlink:href="#linear-gradient-2"/>
    <linearGradient id="linear-gradient-11" x1="-4270.32" y1="2831.82" x2="-4264.11" y2="2831.82" xlink:href="#linear-gradient-2"/>
    <linearGradient id="linear-gradient-12" x1="-4231.25" y1="2773.47" x2="-4225.03" y2="2773.47" xlink:href="#linear-gradient-2"/>
    <linearGradient id="linear-gradient-13" x1="-4178.29" y1="2761.49" x2="-4172.08" y2="2761.49" xlink:href="#linear-gradient-2"/>
    <linearGradient id="linear-gradient-14" x1="-4265.14" y1="2868.27" x2="-4258.93" y2="2868.27" xlink:href="#linear-gradient-2"/>
    <linearGradient id="linear-gradient-15" x1="-4256.07" y1="2861.45" x2="-4254" y2="2861.45" xlink:href="#linear-gradient-2"/>
    <linearGradient id="linear-gradient-16" x1="-4263.07" y1="2881.74" x2="-4261" y2="2881.74" xlink:href="#linear-gradient-2"/>
    <linearGradient id="linear-gradient-17" x1="-4262.03" y1="2854.58" x2="-4259.96" y2="2854.58" xlink:href="#linear-gradient-2"/>
    <linearGradient id="linear-gradient-18" x1="-4243.77" y1="2848.64" x2="-4239.63" y2="2848.64" xlink:href="#linear-gradient-2"/>
    <linearGradient id="linear-gradient-19" x1="-4256.54" y1="2831.82" x2="-4254.46" y2="2831.82" xlink:href="#linear-gradient-2"/>
    <linearGradient id="linear-gradient-20" x1="-4271.35" y1="2826.71" x2="-4269.28" y2="2826.71" xlink:href="#linear-gradient-2"/>
    <linearGradient id="linear-gradient-21" x1="-4273.43" y1="2848.64" x2="-4271.36" y2="2848.64" xlink:href="#linear-gradient-2"/>
    <linearGradient id="linear-gradient-22" x1="-4183.93" y1="2752.17" x2="-4181.85" y2="2752.17" xlink:href="#linear-gradient-2"/>
    <linearGradient id="linear-gradient-23" x1="-4203.88" y1="2760.45" x2="-4201.81" y2="2760.45" xlink:href="#linear-gradient-2"/>
    <linearGradient id="linear-gradient-24" x1="-4250" y1="2824.57" x2="-4245.86" y2="2824.57" xlink:href="#linear-gradient-2"/>
    <linearGradient id="linear-gradient-25" x1="-4233.31" y1="2819.39" x2="-4231.24" y2="2819.39" xlink:href="#linear-gradient-2"/>
    <linearGradient id="linear-gradient-26" x1="-4228.13" y1="2801.93" x2="-4223.99" y2="2801.93" xlink:href="#linear-gradient-2"/>
    <linearGradient id="linear-gradient-27" x1="-4250" y1="2787.2" x2="-4247.93" y2="2787.2" xlink:href="#linear-gradient-2"/>
    <linearGradient id="linear-gradient-28" x1="-4254.46" y1="2842.49" x2="-4252.39" y2="2842.49" xlink:href="#linear-gradient-2"/>
    <linearGradient id="linear-gradient-29" x1="-4241.7" y1="2839.38" x2="-4239.63" y2="2839.38" xlink:href="#linear-gradient-2"/>
    <linearGradient id="linear-gradient-30" x1="-4173.11" y1="2771.24" x2="-4171.04" y2="2771.24" xlink:href="#linear-gradient-2"/>
    <linearGradient id="linear-gradient-31" x1="-4201.81" y1="2775.92" x2="-4199.73" y2="2775.92" xlink:href="#linear-gradient-2"/>
    <linearGradient id="linear-gradient-32" x1="-4209.49" y1="2769.68" x2="-4207.42" y2="2769.68" xlink:href="#linear-gradient-2"/>
    <linearGradient id="linear-gradient-33" x1="-4171.35" y1="2756.31" x2="-4169.28" y2="2756.31" xlink:href="#linear-gradient-2"/>
    <linearGradient id="linear-gradient-34" x1="-4192.2" y1="2775.92" x2="-4190.13" y2="2775.92" xlink:href="#linear-gradient-2"/>
    <linearGradient id="linear-gradient-35" x1="-4224" y1="2764.6" x2="-4221.92" y2="2764.6" xlink:href="#linear-gradient-2"/>
    <linearGradient id="linear-gradient-36" x1="-4159.76" y1="2758.38" x2="-4157.68" y2="2758.38" xlink:href="#linear-gradient-2"/>
    <linearGradient id="linear-gradient-37" x1="-4248.97" y1="2810.07" x2="-4246.89" y2="2810.07" xlink:href="#linear-gradient-2"/>
    <linearGradient id="linear-gradient-38" x1="-4252.25" y1="2799.89" x2="-4250.18" y2="2799.89" xlink:href="#linear-gradient-2"/>
    <linearGradient id="linear-gradient-39" x1="-4235.38" y1="2800.93" x2="-4233.31" y2="2800.93" xlink:href="#linear-gradient-2"/>
    <linearGradient id="linear-gradient-40" x1="-4222.96" y1="2784.09" x2="-4220.89" y2="2784.09" xlink:href="#linear-gradient-2"/>
    <linearGradient id="linear-gradient-41" x1="-4238.6" y1="2773.47" x2="-4236.53" y2="2773.47" xlink:href="#linear-gradient-2"/>
    <linearGradient id="linear-gradient-42" x1="-4218.82" y1="2794.41" x2="-4216.74" y2="2794.41" xlink:href="#linear-gradient-2"/>
    <linearGradient id="linear-gradient-43" x1="-4244.73" y1="2799.85" x2="-4240.59" y2="2799.85" xlink:href="#linear-gradient-2"/>
    <linearGradient id="linear-gradient-44" x1="-4234.35" y1="2788.24" x2="-4230.2" y2="2788.24" xlink:href="#linear-gradient-2"/>
    <linearGradient id="linear-gradient-45" x1="-4232.27" y1="2825.67" x2="-4228.13" y2="2825.67" xlink:href="#linear-gradient-2"/>
    <linearGradient id="linear-gradient-46" x1="-4212.6" y1="2801.93" x2="-4208.46" y2="2801.93" xlink:href="#linear-gradient-2"/>
    <linearGradient id="linear-gradient-47" x1="-4260.22" y1="2803.85" x2="-4254" y2="2803.85" xlink:href="#linear-gradient-2"/>
    <linearGradient id="linear-gradient-48" x1="-4269.29" y1="2812.14" x2="-4265.14" y2="2812.14" xlink:href="#linear-gradient-2"/>
    <linearGradient id="linear-gradient-49" x1="-4273.43" y1="2861.45" x2="-4269.29" y2="2861.45" xlink:href="#linear-gradient-2"/>
    <linearGradient id="linear-gradient-50" x1="-4267.21" y1="2845.32" x2="-4263.07" y2="2845.32" xlink:href="#linear-gradient-2"/>
    <linearGradient id="linear-gradient-51" x1="-4214.67" y1="2776.95" x2="-4210.53" y2="2776.95" xlink:href="#linear-gradient-2"/>
    <linearGradient id="linear-gradient-52" x1="-4212.6" y1="2759.42" x2="-4208.46" y2="2759.42" xlink:href="#linear-gradient-2"/>
    <linearGradient id="linear-gradient-53" x1="-4186" y1="2767.71" x2="-4181.85" y2="2767.71" xlink:href="#linear-gradient-2"/>
    <linearGradient id="linear-gradient-54" x1="-4157.68" y1="2768.29" x2="-4153.54" y2="2768.29" xlink:href="#linear-gradient-2"/>
    <linearGradient id="linear-gradient-55" x1="-4147.46" y1="2763.56" x2="-4141.24" y2="2763.56" xlink:href="#linear-gradient-2"/>
    <clipPath id="clippath">
      <rect width="960" height="540" fill="none" stroke-width="0"/>
    </clipPath>
  </defs>
  <g isolation="isolate">
    <g id="Layer_1" data-name="Layer 1">
      <g>
        <path d="m1758.75,638.05l-262.64,126.19c-5.85,2.81-8.32,9.79-5.53,15.6l14.74,30.68-6.28,3.02c-.57.28-.82.96-.54,1.54.28.57.96.82,1.54.54l6.28-3.02,1.33,2.77-6.28,3.02c-.57.28-.82.96-.54,1.54.28.57.96.82,1.54.54l6.28-3.02,6.32,13.16-6.28,3.02c-.57.28-.82.96-.54,1.54.28.57.96.82,1.54.54l6.28-3.02,1.33,2.77-6.28,3.02c-.57.28-.82.96-.54,1.54.28.57.96.82,1.54.54l6.28-3.02,6.32,13.16-6.28,3.02c-.57.28-.82.96-.54,1.54.28.57.96.82,1.54.54l6.28-3.02,1.33,2.77-6.28,3.02c-.57.28-.82.96-.54,1.54.28.57.96.82,1.54.54l6.28-3.02,6.32,13.16-6.28,3.02c-.57.28-.82.96-.54,1.54.28.57.96.82,1.54.54l6.28-3.02,1.33,2.77-6.28,3.02c-.57.28-.82.96-.54,1.54.28.57.96.82,1.54.54l6.28-3.02,6.32,13.16-6.28,3.02c-.57.28-.82.96-.54,1.54s.96.82,1.54.54l6.28-3.02,1.33,2.77-6.28,3.02c-.57.28-.82.96-.54,1.54.28.57.96.82,1.54.54l6.28-3.02,6.32,13.16-6.28,3.02c-.57.28-.82.96-.54,1.54.28.57.96.82,1.54.54l6.28-3.02,1.33,2.77-6.28,3.02c-.57.28-.82.96-.54,1.54.28.57.96.82,1.54.54l6.28-3.02,6.32,13.16-6.28,3.02c-.57.28-.82.96-.54,1.54.28.57.96.82,1.54.54l6.28-3.02,1.33,2.77-6.28,3.02c-.57.28-.82.96-.54,1.54.28.57.96.82,1.54.54l6.28-3.02,6.32,13.16-6.28,3.02c-.57.28-.82.96-.54,1.54.28.57.96.82,1.54.54l6.28-3.02,1.33,2.77-6.28,3.02c-.57.28-.82.96-.54,1.54.28.57.96.82,1.54.54l6.28-3.02,6.32,13.16-6.28,3.02c-.57.28-.82.96-.54,1.54.28.57.96.82,1.54.54l6.28-3.02,1.33,2.77-6.28,3.02c-.57.28-.82.96-.54,1.54.28.57.96.82,1.54.54l6.28-3.02,6.32,13.16-6.28,3.02c-.57.28-.82.96-.54,1.54.28.57.96.82,1.54.54l6.28-3.02,1.33,2.77-6.28,3.02c-.57.28-.82.96-.54,1.54.28.57.96.82,1.54.54l6.28-3.02,6.32,13.16-6.28,3.02c-.57.28-.82.96-.54,1.54.28.57.96.82,1.54.54l6.28-3.02,1.33,2.77-6.28,3.02c-.57.28-.82.96-.54,1.54.28.57.96.82,1.54.54l6.28-3.02,6.32,13.16-6.28,3.02c-.57.28-.82.96-.54,1.54.28.57.96.82,1.54.54l6.28-3.02,1.33,2.77-6.28,3.02c-.57.28-.82.96-.54,1.54.28.57.96.82,1.54.54l6.28-3.02,6.32,13.16-6.28,3.02c-.57.28-.82.96-.54,1.54.28.57.96.82,1.54.54l6.28-3.02,1.33,2.77-6.28,3.02c-.57.28-.82.96-.54,1.54.28.57.96.82,1.54.54l6.28-3.02,6.32,13.16-6.28,3.02c-.57.28-.82.96-.54,1.54.28.57.96.82,1.54.54l6.28-3.02,1.33,2.77-6.28,3.02c-.57.28-.82.96-.54,1.54.28.57.96.82,1.54.54l6.28-3.02,6.32,13.16-6.28,3.02c-.57.28-.82.96-.54,1.54.28.57.96.82,1.54.54l6.28-3.02,1.33,2.77-6.28,3.02c-.57.28-.82.96-.54,1.54.28.57.96.82,1.54.54l6.28-3.02,6.32,13.16-6.28,3.02c-.57.28-.82.96-.54,1.54.28.57.96.82,1.54.54l6.28-3.02,1.33,2.77-6.28,3.02c-.57.28-.82.96-.54,1.54.28.57.96.82,1.54.54l6.28-3.02,15.05,31.33c2.79,5.81,9.79,8.24,15.64,5.43l262.64-126.19c5.85-2.81,8.32-9.79,5.53-15.6l-177.88-370.23c-2.79-5.81-9.79-8.24-15.64-5.43Z" fill="#1a1a1a" opacity=".33" stroke-width="0"/>
        <g>
          <path d="m1767.73,621.35l-262.64,126.19c-5.85,2.81-8.32,9.79-5.53,15.6l177.88,370.23c2.79,5.81,9.79,8.24,15.64,5.43l262.64-126.19c5.85-2.81,8.32-9.79,5.53-15.6l-177.88-370.23c-2.79-5.81-9.79-8.24-15.64-5.43Z" fill="#14b8a6" stroke-width="0"/>
          <g>
            <path d="m1766.34,633.26l-251.07,120.63c-4.88,2.34-6.93,8.2-4.59,13.08l170.72,355.32c2.34,4.88,8.2,6.93,13.08,4.59l251.07-120.63c4.88-2.34,6.93-8.2,4.59-13.08l-170.72-355.32c-2.34-4.88-8.2-6.93-13.08-4.59Z" fill="#f7f7f7" stroke-width="0"/>
            <path d="m1690.25,1128.04c-3.72,0-7.31-2.09-9.02-5.66l-170.72-355.32c-1.16-2.41-1.31-5.12-.42-7.64.88-2.52,2.7-4.54,5.1-5.7l251.07-120.63.08.17-.08-.17c2.41-1.16,5.12-1.31,7.64-.42,2.52.88,4.54,2.7,5.7,5.1l170.72,355.32c2.39,4.97.29,10.95-4.68,13.34l-251.07,120.63c-1.39.67-2.86.99-4.31.99Zm80.33-495.56c-1.42,0-2.84.32-4.15.95l-251.07,120.63c-2.31,1.11-4.06,3.06-4.91,5.48-.85,2.42-.71,5.03.41,7.34l170.72,355.32c2.29,4.78,8.05,6.79,12.82,4.5l251.07-120.63c4.78-2.3,6.79-8.05,4.5-12.82l-170.72-355.32c-1.11-2.31-3.06-4.06-5.48-4.91-1.04-.37-2.12-.55-3.19-.55Z" fill="#999" stroke-width="0"/>
          </g>
          <g>
            <rect x="1527.3" y="781.67" width="13.45" height="13.45" transform="translate(-190.11 742.12) rotate(-25.66)" fill="gray" stroke-width="0"/>
            <rect x="1536.97" y="801.8" width="13.45" height="13.45" transform="translate(-197.88 748.29) rotate(-25.66)" fill="gray" stroke-width="0"/>
            <rect x="1546.64" y="821.94" width="13.45" height="13.45" transform="translate(-205.64 754.46) rotate(-25.66)" fill="gray" stroke-width="0"/>
            <rect x="1556.32" y="842.07" width="13.45" height="13.45" transform="translate(-213.41 760.64) rotate(-25.66)" fill="gray" stroke-width="0"/>
            <rect x="1565.99" y="862.2" width="13.45" height="13.45" transform="translate(-221.17 766.82) rotate(-25.66)" fill="gray" stroke-width="0"/>
            <rect x="1575.66" y="882.33" width="13.45" height="13.45" transform="translate(-228.94 773) rotate(-25.66)" fill="gray" stroke-width="0"/>
            <rect x="1585.34" y="902.47" width="13.45" height="13.45" transform="translate(-236.7 779.17) rotate(-25.66)" fill="gray" stroke-width="0"/>
            <rect x="1595.01" y="922.6" width="13.45" height="13.45" transform="translate(-244.47 785.33) rotate(-25.66)" fill="gray" stroke-width="0"/>
            <rect x="1604.68" y="942.73" width="13.45" height="13.45" transform="translate(-252.23 791.52) rotate(-25.66)" fill="gray" stroke-width="0"/>
            <rect x="1614.36" y="962.86" width="13.45" height="13.45" transform="translate(-260 797.7) rotate(-25.66)" fill="gray" stroke-width="0"/>
            <rect x="1624.03" y="983" width="13.45" height="13.45" transform="translate(-267.76 803.87) rotate(-25.66)" fill="gray" stroke-width="0"/>
            <rect x="1633.7" y="1003.13" width="13.45" height="13.45" transform="translate(-275.53 810.04) rotate(-25.66)" fill="gray" stroke-width="0"/>
            <rect x="1643.37" y="1023.26" width="13.45" height="13.45" transform="translate(-283.29 816.22) rotate(-25.66)" fill="gray" stroke-width="0"/>
            <rect x="1653.05" y="1043.39" width="13.45" height="13.45" transform="translate(-291.06 822.4) rotate(-25.66)" fill="gray" stroke-width="0"/>
            <rect x="1662.72" y="1063.53" width="13.45" height="13.45" transform="translate(-298.82 828.58) rotate(-25.66)" fill="gray" stroke-width="0"/>
          </g>
          <g>
            <g>
              <path d="m1532.57,787.6l-23.55,11.31c-.57.28-1.26.03-1.54-.54-.28-.57-.03-1.26.54-1.54l23.55-11.31c.57-.28,1.26-.03,1.54.54.28.57.03,1.26-.54,1.54Z" fill="#4d4d4d" stroke-width="0"/>
              <path d="m1534.9,792.45l-23.55,11.32c-.57.28-1.26.03-1.54-.54-.28-.57-.03-1.26.54-1.54l23.55-11.31c.57-.28,1.26-.03,1.54.54.28.57.03,1.26-.54,1.54Z" fill="#4d4d4d" stroke-width="0"/>
            </g>
            <g>
              <path d="m1542.22,807.68l-23.55,11.31c-.57.28-1.26.03-1.54-.54-.28-.57-.03-1.26.54-1.54l23.55-11.32c.57-.28,1.26-.03,1.54.54.28.57.03,1.26-.54,1.54Z" fill="#4d4d4d" stroke-width="0"/>
              <path d="m1544.55,812.53l-23.55,11.31c-.57.28-1.26.03-1.54-.54-.28-.57-.03-1.26.54-1.54l23.55-11.31c.57-.28,1.26-.03,1.54.54.28.57.03,1.26-.54,1.54Z" fill="#4d4d4d" stroke-width="0"/>
            </g>
            <g>
              <path d="m1551.87,827.77l-23.55,11.31c-.57.28-1.26.03-1.54-.54-.28-.57-.03-1.26.54-1.54l23.55-11.31c.57-.28,1.26-.03,1.54.54.28.57.03,1.26-.54,1.54Z" fill="#4d4d4d" stroke-width="0"/>
              <path d="m1554.2,832.62l-23.55,11.31c-.57.28-1.26.03-1.54-.54-.28-.57-.03-1.26.54-1.54l23.55-11.31c.57-.28,1.26-.03,1.54.54.28.57.03,1.26-.54,1.54Z" fill="#4d4d4d" stroke-width="0"/>
            </g>
            <g>
              <path d="m1561.53,847.86l-23.55,11.31c-.57.28-1.26.03-1.54-.54-.28-.57-.03-1.26.54-1.54l23.55-11.32c.57-.28,1.26-.03,1.54.54.28.57.03,1.26-.54,1.54Z" fill="#4d4d4d" stroke-width="0"/>
              <path d="m1563.85,852.71l-23.55,11.31c-.57.28-1.26.03-1.54-.54-.28-.57-.03-1.26.54-1.54l23.55-11.31c.57-.28,1.26-.03,1.54.54.28.57.03,1.26-.54,1.54Z" fill="#4d4d4d" stroke-width="0"/>
            </g>
            <g>
              <path d="m1571.18,867.94l-23.55,11.31c-.57.28-1.26.03-1.54-.54-.28-.57-.03-1.26.54-1.54l23.55-11.31c.57-.28,1.26-.03,1.54.54.28.57.03,1.26-.54,1.54Z" fill="#4d4d4d" stroke-width="0"/>
              <path d="m1573.51,872.79l-23.55,11.31c-.57.28-1.26.03-1.54-.54-.28-.57-.03-1.26.54-1.54l23.55-11.31c.57-.28,1.26-.03,1.54.54.28.57.03,1.26-.54,1.54Z" fill="#4d4d4d" stroke-width="0"/>
            </g>
            <g>
              <path d="m1580.83,888.03l-23.55,11.31c-.57.28-1.26.03-1.54-.54-.28-.57-.03-1.26.54-1.54l23.55-11.31c.57-.28,1.26-.03,1.54.54.28.57.03,1.26-.54,1.54Z" fill="#4d4d4d" stroke-width="0"/>
              <path d="m1583.16,892.88l-23.55,11.31c-.57.28-1.26.03-1.54-.54-.28-.57-.03-1.26.54-1.54l23.55-11.32c.57-.28,1.26-.03,1.54.54.28.57.03,1.26-.54,1.54Z" fill="#4d4d4d" stroke-width="0"/>
            </g>
            <g>
              <path d="m1590.48,908.12l-23.55,11.32c-.57.28-1.26.03-1.54-.54-.28-.57-.03-1.26.54-1.54l23.55-11.32c.57-.28,1.26-.03,1.54.54.28.57.03,1.26-.54,1.54Z" fill="#4d4d4d" stroke-width="0"/>
              <path d="m1592.81,912.96l-23.55,11.31c-.57.28-1.26.03-1.54-.54-.28-.57-.03-1.26.54-1.54l23.55-11.32c.57-.28,1.26-.03,1.54.54s.03,1.26-.54,1.54Z" fill="#4d4d4d" stroke-width="0"/>
            </g>
            <g>
              <path d="m1600.13,928.2l-23.55,11.32c-.57.28-1.26.03-1.54-.54s-.03-1.26.54-1.54l23.55-11.31c.57-.28,1.26-.03,1.54.54.28.57.03,1.26-.54,1.54Z" fill="#4d4d4d" stroke-width="0"/>
              <path d="m1602.46,933.05l-23.55,11.31c-.57.28-1.26.03-1.54-.54-.28-.57-.03-1.26.54-1.54l23.55-11.31c.57-.28,1.26-.03,1.54.54.28.57.03,1.26-.54,1.54Z" fill="#4d4d4d" stroke-width="0"/>
            </g>
            <g>
              <path d="m1609.78,948.29l-23.55,11.32c-.57.28-1.26.03-1.54-.54s-.03-1.26.54-1.54l23.55-11.31c.57-.28,1.26-.03,1.54.54.28.57.03,1.26-.54,1.54Z" fill="#4d4d4d" stroke-width="0"/>
              <path d="m1612.11,953.14l-23.55,11.31c-.57.28-1.26.03-1.54-.54-.28-.57-.03-1.26.54-1.54l23.55-11.31c.57-.28,1.26-.03,1.54.54.28.57.03,1.26-.54,1.54Z" fill="#4d4d4d" stroke-width="0"/>
            </g>
            <g>
              <path d="m1619.43,968.38l-23.55,11.31c-.57.28-1.26.03-1.54-.54-.28-.57-.03-1.26.54-1.54l23.55-11.31c.57-.28,1.26-.03,1.54.54.28.57.03,1.26-.54,1.54Z" fill="#4d4d4d" stroke-width="0"/>
              <path d="m1621.76,973.22l-23.55,11.31c-.57.28-1.26.03-1.54-.54-.28-.57-.03-1.26.54-1.54l23.55-11.31c.57-.28,1.26-.03,1.54.54.28.57.03,1.26-.54,1.54Z" fill="#4d4d4d" stroke-width="0"/>
            </g>
            <g>
              <path d="m1629.08,988.46l-23.55,11.32c-.57.28-1.26.03-1.54-.54s-.03-1.26.54-1.54l23.55-11.31c.57-.28,1.26-.03,1.54.54.28.57.03,1.26-.54,1.54Z" fill="#4d4d4d" stroke-width="0"/>
              <path d="m1631.41,993.31l-23.55,11.32c-.57.28-1.26.03-1.54-.54-.28-.57-.03-1.26.54-1.54l23.55-11.32c.57-.28,1.26-.03,1.54.54s.03,1.26-.54,1.54Z" fill="#4d4d4d" stroke-width="0"/>
            </g>
            <g>
              <path d="m1638.73,1008.55l-23.55,11.31c-.57.28-1.26.03-1.54-.54-.28-.57-.03-1.26.54-1.54l23.55-11.31c.57-.28,1.26-.03,1.54.54s.03,1.26-.54,1.54Z" fill="#4d4d4d" stroke-width="0"/>
              <path d="m1641.06,1013.4l-23.55,11.32c-.57.28-1.26.03-1.54-.54-.28-.57-.03-1.26.54-1.54l23.55-11.32c.57-.28,1.26-.03,1.54.54.28.57.03,1.26-.54,1.54Z" fill="#4d4d4d" stroke-width="0"/>
            </g>
            <g>
              <path d="m1648.38,1028.64l-23.55,11.31c-.57.28-1.26.03-1.54-.54-.28-.57-.03-1.26.54-1.54l23.55-11.31c.57-.28,1.26-.03,1.54.54.28.57.03,1.26-.54,1.54Z" fill="#4d4d4d" stroke-width="0"/>
              <path d="m1650.71,1033.48l-23.55,11.31c-.57.28-1.26.03-1.54-.54-.28-.57-.03-1.26.54-1.54l23.55-11.31c.57-.28,1.26-.03,1.54.54.28.57.03,1.26-.54,1.54Z" fill="#4d4d4d" stroke-width="0"/>
            </g>
            <g>
              <path d="m1658.04,1048.72l-23.55,11.31c-.57.28-1.26.03-1.54-.54-.28-.57-.03-1.26.54-1.54l23.55-11.31c.57-.28,1.26-.03,1.54.54.28.57.03,1.26-.54,1.54Z" fill="#4d4d4d" stroke-width="0"/>
              <path d="m1660.36,1053.57l-23.55,11.31c-.57.28-1.26.03-1.54-.54-.28-.57-.03-1.26.54-1.54l23.55-11.32c.57-.28,1.26-.03,1.54.54.28.57.03,1.26-.54,1.54Z" fill="#4d4d4d" stroke-width="0"/>
            </g>
            <g>
              <path d="m1667.69,1068.81l-23.55,11.31c-.57.28-1.26.03-1.54-.54-.28-.57-.03-1.26.54-1.54l23.55-11.31c.57-.28,1.26-.03,1.54.54.28.57.03,1.26-.54,1.54Z" fill="#4d4d4d" stroke-width="0"/>
              <path d="m1670.02,1073.66l-23.55,11.31c-.57.28-1.26.03-1.54-.54-.28-.57-.03-1.26.54-1.54l23.55-11.31c.57-.28,1.26-.03,1.54.54.28.57.03,1.26-.54,1.54Z" fill="#4d4d4d" stroke-width="0"/>
            </g>
          </g>
          <g>
            <path d="m1572.27,782.33c-.14,0-.28-.08-.35-.22-.09-.19-.01-.42.18-.51l190.13-91.35c.19-.09.42-.01.51.18.09.19.01.42-.18.51l-190.13,91.35c-.05.03-.11.04-.17.04Z" fill="#92e0ea" stroke-width="0"/>
            <path d="m1584.34,807.01c-.14,0-.28-.08-.35-.22-.09-.19-.01-.42.18-.51l190.13-91.35c.19-.09.42-.01.51.18.09.19.01.42-.18.51l-190.13,91.35c-.05.03-.11.04-.17.04Z" fill="#92e0ea" stroke-width="0"/>
            <path d="m1596.41,831.69c-.14,0-.28-.08-.35-.22-.09-.19-.01-.42.18-.51l190.13-91.35c.19-.09.42-.01.51.18.09.19.01.42-.18.51l-190.13,91.35c-.05.03-.11.04-.17.04Z" fill="#92e0ea" stroke-width="0"/>
            <path d="m1608.48,856.37c-.14,0-.28-.08-.35-.22-.09-.19-.01-.42.18-.51l190.13-91.35c.19-.09.42-.01.51.18.09.19.01.42-.18.51l-190.13,91.35c-.05.03-.11.04-.17.04Z" fill="#92e0ea" stroke-width="0"/>
            <path d="m1620.55,881.05c-.14,0-.28-.08-.35-.22-.09-.19-.01-.42.18-.51l190.13-91.35c.19-.09.42-.01.51.18.09.19.01.42-.18.51l-190.13,91.35c-.05.03-.11.04-.17.04Z" fill="#92e0ea" stroke-width="0"/>
            <path d="m1632.63,905.73c-.14,0-.28-.08-.35-.22-.09-.19-.01-.42.18-.51l190.13-91.35c.19-.09.42-.01.51.18.09.19.01.42-.18.51l-190.13,91.35c-.05.03-.11.04-.17.04Z" fill="#92e0ea" stroke-width="0"/>
            <path d="m1644.7,930.41c-.14,0-.28-.08-.35-.22-.09-.19-.01-.42.18-.51l190.13-91.35c.19-.09.42-.01.51.18.09.19.01.42-.18.51l-190.13,91.35c-.05.03-.11.04-.17.04Z" fill="#92e0ea" stroke-width="0"/>
            <path d="m1656.77,955.08c-.14,0-.28-.08-.35-.22-.09-.19-.01-.42.18-.51l190.13-91.35c.19-.09.42-.01.51.18.09.19.01.42-.18.51l-190.13,91.35c-.05.03-.11.04-.17.04Z" fill="#92e0ea" stroke-width="0"/>
            <path d="m1668.84,979.76c-.14,0-.28-.08-.35-.22-.09-.19-.01-.42.18-.51l190.13-91.35c.19-.09.42-.01.51.18.09.19.01.42-.18.51l-190.13,91.35c-.05.03-.11.04-.17.04Z" fill="#92e0ea" stroke-width="0"/>
            <path d="m1680.91,1004.44c-.14,0-.28-.08-.35-.22-.09-.19-.01-.42.18-.51l190.13-91.35c.19-.09.42-.01.51.18.09.19.01.42-.18.51l-190.13,91.35c-.05.03-.11.04-.17.04Z" fill="#92e0ea" stroke-width="0"/>
            <path d="m1692.98,1029.12c-.14,0-.28-.08-.35-.22-.09-.19-.01-.42.18-.51l190.13-91.35c.19-.09.42-.01.51.18.09.19.01.42-.18.51l-190.13,91.35c-.05.03-.11.04-.17.04Z" fill="#92e0ea" stroke-width="0"/>
            <path d="m1705.05,1053.8c-.14,0-.28-.08-.35-.22-.09-.19-.01-.42.18-.51l190.13-91.35c.19-.09.42-.01.51.18.09.19.01.42-.18.51l-190.13,91.35c-.05.03-.11.04-.17.04Z" fill="#92e0ea" stroke-width="0"/>
            <path d="m1717.12,1078.48c-.14,0-.28-.08-.35-.22-.09-.19-.01-.42.18-.51l190.13-91.35c.19-.09.42-.01.51.18.09.19.01.42-.18.51l-190.13,91.35c-.05.03-.11.04-.17.04Z" fill="#92e0ea" stroke-width="0"/>
          </g>
        </g>
        <path d="m1694.81,784.1l-24.83-24.14-4.91-4.78c-1.51-1.47-3.96-1.48-5.68-.05-.05.05-.11.09-.16.14l-1.33,1.21-5.85-6.42-1.05-1.16c-1.61-1.77-4.35-1.89-6.11-.29l-1.61,1.47-1.61,1.47c-1.77,1.61-1.89,4.35-.29,6.11l1.05,1.16,5.85,6.42-1.25,1.14c-.05.05-.11.1-.16.15-1.58,1.57-1.8,4.02-.48,5.66l4.3,5.34,11.18,13.89c-.09.15-.17.32-.26.48-.02.04-.04.08-.06.12-.07.15-.15.3-.22.46-.01.03-.02.05-.04.08-.08.19-.16.38-.24.58-.01.03-.03.07-.04.1-.06.17-.13.34-.19.52-.02.05-.04.1-.05.15-.07.21-.14.43-.21.66,0,.01,0,.02,0,.03-.06.21-.12.44-.17.66-.02.06-.03.13-.04.19-.05.21-.09.41-.13.63,0,.04-.02.09-.02.13-.04.26-.08.52-.12.8,0,.02,0,.04,0,.06h0c-.13,1.02-.17,2.14-.11,3.36,0,.04,0,.09,0,.13.71,12.39,12.01,24.08,13.23,25.31,22.84,24.09,45.69,48.19,68.54,72.28.92-1.46,1.79-3.69.79-6.53-1.56-4.44-6.82-8.03-8.64-9.3-21.63-15.15-45.97-46.99-52.7-57.12-.81-1.23-1.67-2.59-2.46-4.05-1.06-1.96-1.98-4.11-2.47-6.32h0c-.17-.74-.29-1.49-.34-2.25-.11-1.39,0-2.59.22-3.61,1.2,1.4,2.42,2.78,3.66,4.14l77.84,85.45,7.52,8.05,10.59,11.32,15.12,16.18c7.63,8.16,15.62,15.96,23.97,23.4l38.87,32.97-.05.05,5.32,3.33c.81.51,1.83.47,2.6-.07l7.49,6.3c.67.56,1.45.45,1.98.03.03-.02.06-.04.08-.07.53-.48.76-1.3.23-2.05l-5.59-8.07c.5-.7.59-1.64.19-2.44l-2.73-5.41.03-.02-29.33-41.94c-6.62-9-13.65-17.69-21.06-26.04l-14.7-16.56-10.29-11.59-7.31-8.23-77.84-85.45c-2.54-2.79-5.18-5.51-7.89-8.15Z" fill="#1a1a1a" opacity=".33" stroke-width="0"/>
        <g>
          <g>
            <rect x="1648.06" y="740.16" width="13.02" height="26.04" rx="4.33" ry="4.33" transform="translate(-75.8 1310.57) rotate(-42.33)" fill="#6d747a" stroke-width="0"/>
            <path d="m1665.45,783.28l14.49,15.91c-.44.74-.97,1.82-1.28,3.25-.22,1.02-.32,2.22-.22,3.61.23,3.01,1.4,5.96,2.81,8.58.79,1.47,1.64,2.83,2.46,4.05,6.73,10.13,31.08,41.97,52.7,57.12,1.82,1.27,7.08,4.86,8.64,9.3,1,2.84.13,5.07-.79,6.53-22.84-24.09-45.69-48.19-68.54-72.28-1.22-1.24-12.52-12.92-13.23-25.31,0-.04,0-.09,0-.13-.21-4.14.83-7.08,1.91-9.02.36-.65.73-1.18,1.05-1.61Z" fill="#ff8427" stroke-width="0"/>
            <path d="m1854.38,963.33l9.47,13.66.12.17,4.31,6.23,5.59,8.07c.52.75.3,1.57-.23,2.05-.03.03-.05.05-.08.07-.53.43-1.32.53-1.98-.03l-7.49-6.3-5.82-4.9-.16-.13-12.72-10.7c-.73-.61-.75-1.72-.05-2.36l6.7-6.1c.7-.64,1.81-.51,2.35.27Z" fill="#e8e8e8" stroke-width="0"/>
            <path d="m1865.65,975.35l.1.19,2.73,5.41c.4.8.31,1.74-.19,2.44-.09.13-.21.26-.33.37l-3.63,3.3c-.08.07-.16.14-.24.19-.77.54-1.79.57-2.6.07l-5.32-3.33,9.49-8.64Z" fill="#eb9532" stroke-width="0"/>
            <path d="m1705.23,785.7l77.84,85.45,7.31,8.23,10.29,11.59,14.7,16.56c7.41,8.35,14.44,17.04,21.06,26.04l29.33,41.94-9.4,8.56-.16-.13-38.87-32.97c-8.35-7.43-16.34-15.24-23.97-23.4l-15.12-16.18-10.59-11.32-7.52-8.05-77.84-85.45c-1.24-1.36-2.46-2.74-3.66-4.14-1.26-1.47-2.51-2.96-3.72-4.47l-10.54-13.08-11.18-13.89-4.3-5.34c-1.32-1.64-1.1-4.08.48-5.66.05-.05.1-.1.16-.15l12.2-11.11c.05-.05.11-.1.16-.14,1.71-1.43,4.17-1.42,5.68.05l4.91,4.78,24.83,24.14c2.71,2.64,5.34,5.36,7.89,8.15Z" fill="#6d747a" stroke-width="0"/>
            <path d="m1673.02,753.98l-19.3,17.58-4.63-5.7c-1.42-1.75-1.28-4.28.3-5.86.05-.05.1-.1.16-.15l12.2-11.11c.05-.05.11-.1.16-.14,1.72-1.42,4.25-1.33,5.86.25l5.24,5.14Z" fill="#ff8427" stroke-width="0"/>
            <polygon points="1790.38 879.39 1800.67 890.98 1778.26 911.4 1767.67 900.08 1790.38 879.39" fill="#ff8427" stroke-width="0"/>
            <path d="m1653.53,742.37l1.05,1.16-9.63,8.77-1.05-1.16c-1.61-1.77-1.48-4.5.29-6.11l3.23-2.94c1.77-1.61,4.5-1.48,6.11.29Z" fill="#ff8427" stroke-width="0"/>
          </g>
          <path d="m1645.8,743.55l227.75,250.03c-.53.43-1.32.53-1.98-.03l-7.49-6.3c-.77.54-1.79.57-2.6.07l-5.32-3.33.05-.05-38.87-32.97c-8.35-7.43-16.34-15.24-23.97-23.4l-15.12-16.18-10.59-11.32-7.52-8.05-77.84-85.45c-1.24-1.36-2.46-2.74-3.66-4.14-.22,1.02-.32,2.22-.22,3.61.06.76.18,1.51.34,2.26l-16.19-17.77c.3-2.43,1.04-4.29,1.8-5.65l-11.18-13.89-4.3-5.34c-1.32-1.64-1.1-4.08.48-5.66.05-.05.1-.1.16-.15l1.25-1.14-6.9-7.57c-1.61-1.77-1.48-4.5.29-6.11l1.61-1.47Z" opacity=".39" stroke-width="0"/>
        </g>
      </g>
      <g>
        <rect x="1276.19" y="96.09" width="168.03" height="168.03" transform="translate(93.79 -347.91) rotate(15.09)" fill="#98ce00" stroke-width="0"/>
        <rect x="1275.37" y="95.81" width="168.03" height="168.03" transform="translate(64.05 -270.02) rotate(11.62)" fill="#98ce00" stroke-width="0"/>
        <path d="m1411.54,282.37l4,.82,7.37-35.87,5.22-22.66,6.05-26.27,19.79-73.38-2.72-.73,1.78-7.73-109.76-25.28-.73-11.97c-.24-3.9-1.48-7.52-3.49-10.2-2.15-2.86-4.93-4.34-7.82-4.17-2.9.18-5.47,1.99-7.26,5.09-1.67,2.9-2.46,6.65-2.22,10.55l.36,5.82-32.82-7.56-1.51,6.55-3-.62-19.26,93.72-17.53,65.02,3.95,1.06-.98,4.79,78.87,16.21,80.4,21.68,1.32-4.88Zm-86.83-201.98c-.4-6.53,2.67-12.25,6.71-12.5,4.03-.25,7.78,5.06,8.17,11.59l.68,11.09-3.64-.84c-.74-2.13-2.38-3.55-4.24-3.44-1.14.07-2.18.72-2.91,1.79l-4.35-1-.41-6.7Z" fill="#1a1a1a" opacity=".33" stroke-width="0"/>
        <g>
          <polygon points="1437.36 220.51 1462.26 112.39 1352.5 87.11 1349.49 86.42 1345.85 85.58 1338.7 83.93 1334.34 82.93 1331.33 82.24 1298.52 74.68 1260.8 238.42 1393.27 268.93 1424.54 276.14 1437.36 220.51" fill="#98ce00" stroke-width="0"/>
          <path d="m1347.53,127.62c-.61.03-1.21-.03-1.8-.18-1.43-.38-2.75-1.34-3.84-2.79-1.4-1.87-2.26-4.37-2.42-7.07l-1.57-25.71-.23-3.71c-.09-1.42.21-2.81.83-3.9.07-.11.13-.22.2-.32.73-1.07,1.77-1.72,2.91-1.79,1.86-.12,3.5,1.3,4.24,3.44.22.63.36,1.32.4,2.05l.38,6.25,1.13,18.43c.05.81-.57,1.52-1.39,1.57-.81.05-1.52-.57-1.57-1.39l-1.18-19.3-.33-5.38c-.1-1.68-.97-2.74-1.51-2.71-.23.01-.5.25-.72.63-.33.58-.5,1.4-.44,2.24l.28,4.58,1.52,24.84c.13,2.12.78,4.07,1.83,5.47.53.71,1.64,1.88,3.09,1.8,1.45-.09,2.41-1.39,2.85-2.16.88-1.52,1.29-3.53,1.16-5.65l-1.36-22.2-.51-8.23-.68-11.09c-.4-6.53-4.14-11.84-8.17-11.59-4.03.25-7.1,5.97-6.71,12.5l.41,6.7-3.01-.69-.36-5.82c-.24-3.9.55-7.65,2.22-10.55,1.78-3.1,4.36-4.91,7.26-5.09,2.89-.18,5.67,1.3,7.82,4.17,2.01,2.68,3.25,6.31,3.49,10.2l.73,11.97.51,8.23,1.31,21.32c.16,2.69-.39,5.29-1.55,7.31-1.28,2.22-3.14,3.51-5.24,3.64Z" fill="#313a43" stroke-width="0"/>
        </g>
      </g>
      <g>
        <circle cx="1716.07" cy="220.89" r="132.5" fill="#1a1a1a" opacity=".33" stroke-width="0"/>
        <path d="m1842.61,365.78c-.25.2-.5.4-.76.58-3.28,2.35-7.2,3.29-10.97,2.89-4.07-.43-7.98-2.41-10.75-5.84l-36.78-45.43,24.85-20.12,36.78,45.43c5.35,6.61,4.56,16.2-1.64,21.86-.23.22-.47.42-.72.63Z" fill="#0d43a7" stroke-width="0"/>
        <path d="m1841.12,366.98c-3.43,2.78-7.66,3.9-11.73,3.47-4.07-.43-7.98-2.41-10.75-5.84l-36.78-45.43,1.49-1.21,36.78,45.43c2.78,3.43,6.68,5.41,10.75,5.84,3.77.4,7.68-.54,10.97-2.89-.23.22-.47.42-.72.63Z" fill="#0a3480" stroke-width="0"/>
        <path d="m1844.1,364.57c-.25.2-.5.4-.76.58,6.2-5.66,6.99-15.25,1.64-21.86l-36.78-45.43,1.49-1.21,36.78,45.43c5.55,6.86,4.5,16.93-2.37,22.48Z" fill="#0a3480" stroke-width="0"/>
        <path d="m1791.53,328.08l24.85-20.12,9.05,11.18s-4.23,6.89-11.05,12.47c-6.82,5.58-13.12,8.49-13.12,8.49l-9.73-12.02Z" fill="#0a3480" stroke-width="0"/>
        <circle cx="1721.18" cy="215.78" r="132.5" fill="#0d43a7" stroke-width="0"/>
        <circle cx="1721.18" cy="215.78" r="129.31" transform="translate(351.54 1280.26) rotate(-45)" fill="#255cc0" stroke-width="0"/>
        <circle cx="1721.18" cy="215.78" r="109.32" fill="#0d43a7" stroke-width="0"/>
        <g>
          <path d="m1805.84,273.76c-32.06,46.86-96.03,58.86-142.88,26.8-12.59-8.61-22.66-19.52-30.03-31.79-20.09-33.4-20.21-76.82,3.23-111.09,32.06-46.86,96.03-58.86,142.89-26.8,22.64,15.48,37.14,38.42,42.47,63.27,5.7,26.59.9,55.39-15.67,79.61Z" fill="url(#linear-gradient)" stroke-width="0"/>
          <path d="m1640.19,233.46c-.24,1.71-.31,3.42-.22,5.11.52,6.29,2.18,12.31,4.72,17.94.85,1.88,1.79,3.71,2.82,5.49,2.14,3.58,4.55,6.95,7.19,10.12,1.32,1.58,2.69,3.11,4.12,4.59,12.68,13.68,29.67,22.92,47.85,26.24,2.04.4,4.1.74,6.18.98,2.08.25,4.18.41,6.29.47,1.34.1,2.68.16,4.02.18,4.03.07,8.06-.21,12.07-.87,1.75-.31,3.5-.68,5.23-1.1,5.19-1.26,10.28-2.98,15.14-5.06,1.9-.9,3.78-1.88,5.62-2.92,5.52-3.12,10.76-6.74,15.59-10.75,1.43-1.19,2.83-2.41,4.2-3.66,4.28-4.08,8.34-8.57,11.96-13.38,1.21-1.61,2.36-3.25,3.46-4.92,12.72-17.68,16.93-41.91,4.69-60.89-.65-1.22-1.36-2.39-2.11-3.54-6.01-10.7-16.38-17.8-27.4-22.45-.98-.43-1.96-.84-2.95-1.22-5.95-2.26-12.37-3.21-19.06-2.3-.9.09-1.81.23-2.72.43-.91.19-1.82.44-2.73.75-11.54,3.86-16.59,15.07-22.67,24.63-3.72,5.84-8.13,11.43-13.97,15.16-5.84,3.73-13.31,5.39-19.83,3.04-8.21-2.95-13.87-11.65-22.51-12.84-1.54-.21-3.07-.15-4.56.13-1.49.29-2.94.8-4.32,1.49-9.29,5.09-13.87,15.27-15.69,25.56-.16,1.19-.29,2.38-.39,3.57Z" fill="url(#linear-gradient-2)" stroke-width="0"/>
          <path d="m1736.23,154.74c-1.94,2.83-5.81,3.56-8.64,1.62-2.83-1.94-3.56-5.81-1.62-8.64,1.94-2.83,5.81-3.56,8.64-1.62,2.83,1.94,3.56,5.81,1.62,8.64Z" fill="url(#linear-gradient-3)" stroke-width="0"/>
          <path d="m1678.43,151.73c-1.94,2.83-5.81,3.56-8.64,1.62-2.83-1.94-3.56-5.81-1.62-8.64,1.94-2.83,5.81-3.56,8.64-1.62,2.83,1.94,3.56,5.81,1.62,8.64Z" fill="url(#linear-gradient-4)" stroke-width="0"/>
          <path d="m1709.88,131.74c-1.29,1.89-3.87,2.37-5.76,1.08-1.89-1.29-2.37-3.87-1.08-5.76,1.29-1.89,3.87-2.37,5.76-1.08,1.89,1.29,2.37,3.87,1.08,5.76Z" fill="url(#linear-gradient-5)" stroke-width="0"/>
          <path d="m1765.85,137.63c-1.29,1.89-3.87,2.37-5.76,1.08-1.89-1.29-2.37-3.87-1.08-5.76,1.29-1.89,3.87-2.37,5.76-1.08,1.89,1.29,2.37,3.87,1.08,5.76Z" fill="url(#linear-gradient-6)" stroke-width="0"/>
          <path d="m1702.71,180.97c-1.62,2.36-4.84,2.97-7.2,1.35-2.36-1.62-2.97-4.84-1.35-7.2,1.62-2.36,4.84-2.97,7.2-1.35,2.36,1.62,2.97,4.84,1.35,7.2Z" fill="url(#linear-gradient-7)" stroke-width="0"/>
          <path d="m1684.71,185.27c-.97,1.42-2.9,1.78-4.32.81-1.42-.97-1.78-2.9-.81-4.32.97-1.42,2.9-1.78,4.32-.81,1.42.97,1.78,2.9.81,4.32Z" fill="url(#linear-gradient-8)" stroke-width="0"/>
          <path d="m1703.45,168.85c-.97,1.42-2.9,1.78-4.32.81-1.42-.97-1.78-2.9-.81-4.32.97-1.42,2.9-1.78,4.32-.81,1.42.97,1.78,2.9.81,4.32Z" fill="url(#linear-gradient-9)" stroke-width="0"/>
          <path d="m1747.06,155.92c-.97,1.42-2.9,1.78-4.32.81-1.42-.97-1.78-2.9-.81-4.32.97-1.42,2.9-1.78,4.32-.81,1.42.97,1.78,2.9.81,4.32Z" fill="url(#linear-gradient-10)" stroke-width="0"/>
          <path d="m1660.18,155.57c-.97,1.42-2.9,1.78-4.32.81-1.42-.97-1.78-2.9-.81-4.32.97-1.42,2.9-1.78,4.32-.81s1.78,2.9.81,4.32Z" fill="url(#linear-gradient-11)" stroke-width="0"/>
          <path d="m1725.37,129.47c-.97,1.42-2.9,1.78-4.32.81-1.42-.97-1.78-2.9-.81-4.32.97-1.42,2.9-1.78,4.32-.81,1.42.97,1.78,2.9.81,4.32Z" fill="url(#linear-gradient-12)" stroke-width="0"/>
          <path d="m1775.84,149.48c-.97,1.42-2.9,1.78-4.32.81-1.42-.97-1.78-2.9-.81-4.32.97-1.42,2.9-1.78,4.32-.81,1.42.97,1.78,2.9.81,4.32Z" fill="url(#linear-gradient-13)" stroke-width="0"/>
          <path d="m1643.88,188.57c-.97,1.42-2.9,1.78-4.32.81-1.42-.97-1.78-2.9-.81-4.32.97-1.42,2.9-1.78,4.32-.81,1.42.97,1.78,2.9.81,4.32Z" fill="url(#linear-gradient-14)" stroke-width="0"/>
          <path d="m1651.8,185.72c-.32.47-.97.59-1.44.27-.47-.32-.59-.97-.27-1.44.32-.47.97-.59,1.44-.27.47.32.59.97.27,1.44Z" fill="url(#linear-gradient-15)" stroke-width="0"/>
          <path d="m1634.57,198.52c-.32.47-.97.59-1.44.27-.47-.32-.59-.97-.27-1.44.32-.47.97-.59,1.44-.27.47.32.59.97.27,1.44Z" fill="url(#linear-gradient-16)" stroke-width="0"/>
          <path d="m1650.75,176.69c-.32.47-.97.59-1.44.27-.47-.32-.59-.97-.27-1.44.32-.47.97-.59,1.44-.27s.59.97.27,1.44Z" fill="url(#linear-gradient-17)" stroke-width="0"/>
          <path d="m1670.89,183.27c-.65.94-1.94,1.19-2.88.54s-1.19-1.94-.54-2.88,1.94-1.19,2.88-.54,1.19,1.94.54,2.88Z" fill="url(#linear-gradient-18)" stroke-width="0"/>
          <path d="m1668.14,161.01c-.32.47-.97.59-1.44.27-.47-.32-.59-.97-.27-1.44.32-.47.97-.59,1.44-.27.47.32.59.97.27,1.44Z" fill="url(#linear-gradient-19)" stroke-width="0"/>
          <path d="m1658.8,148.43c-.32.47-.97.59-1.44.27-.47-.32-.59-.97-.27-1.44.32-.47.97-.59,1.44-.27.47.32.59.97.27,1.44Z" fill="url(#linear-gradient-20)" stroke-width="0"/>
          <path d="m1644.7,165.36c-.32.47-.97.59-1.44.27-.47-.32-.59-.97-.27-1.44.32-.47.97-.59,1.44-.27.47.32.59.97.27,1.44Z" fill="url(#linear-gradient-21)" stroke-width="0"/>
          <path d="m1773.04,136.27c-.32.47-.97.59-1.44.27-.47-.32-.59-.97-.27-1.44.32-.47.97-.59,1.44-.27.47.32.59.97.27,1.44Z" fill="url(#linear-gradient-22)" stroke-width="0"/>
          <path d="m1751.89,131.84c-.32.47-.97.59-1.44.27-.47-.32-.59-.97-.27-1.44.32-.47.97-.59,1.44-.27.47.32.59.97.27,1.44Z" fill="url(#linear-gradient-23)" stroke-width="0"/>
          <path d="m1679.34,159.89c-.65.94-1.94,1.19-2.88.54-.94-.65-1.19-1.94-.54-2.88.65-.94,1.94-1.19,2.88-.54s1.19,1.94.54,2.88Z" fill="url(#linear-gradient-24)" stroke-width="0"/>
          <path d="m1694.33,163.87c-.32.47-.97.59-1.44.27s-.59-.97-.27-1.44c.32-.47.97-.59,1.44-.27.47.32.59.97.27,1.44Z" fill="url(#linear-gradient-25)" stroke-width="0"/>
          <path d="m1710.17,153.55c-.65.94-1.94,1.19-2.88.54-.94-.65-1.19-1.94-.54-2.88s1.94-1.19,2.88-.54c.94.65,1.19,1.94.54,2.88Z" fill="url(#linear-gradient-26)" stroke-width="0"/>
          <path d="m1698.72,127.87c-.32.47-.97.59-1.44.27-.47-.32-.59-.97-.27-1.44.32-.47.97-.59,1.44-.27.47.32.59.97.27,1.44Z" fill="url(#linear-gradient-27)" stroke-width="0"/>
          <path d="m1663.83,170.99c-.32.47-.97.59-1.44.27-.47-.32-.59-.97-.27-1.44.32-.47.97-.59,1.44-.27.47.32.59.97.27,1.44Z" fill="url(#linear-gradient-28)" stroke-width="0"/>
          <path d="m1676.12,175.63c-.32.47-.97.59-1.44.27-.47-.32-.59-.97-.27-1.44.32-.47.97-.59,1.44-.27.47.32.59.97.27,1.44Z" fill="url(#linear-gradient-29)" stroke-width="0"/>
          <path d="m1771.2,158.11c-.32.47-.97.59-1.44.27-.47-.32-.59-.97-.27-1.44.32-.47.97-.59,1.44-.27.47.32.59.97.27,1.44Z" fill="url(#linear-gradient-30)" stroke-width="0"/>
          <path d="m1744.87,145.77c-.32.47-.97.59-1.44.27-.47-.32-.59-.97-.27-1.44.32-.47.97-.59,1.44-.27.47.32.59.97.27,1.44Z" fill="url(#linear-gradient-31)" stroke-width="0"/>
          <path d="m1742.05,136.29c-.32.47-.97.59-1.44.27-.47-.32-.59-.97-.27-1.44.32-.47.97-.59,1.44-.27.47.32.59.97.27,1.44Z" fill="url(#linear-gradient-32)" stroke-width="0"/>
          <path d="m1781.08,146.79c-.32.47-.97.59-1.44.27-.47-.32-.59-.97-.27-1.44.32-.47.97-.59,1.44-.27.47.32.59.97.27,1.44Z" fill="url(#linear-gradient-33)" stroke-width="0"/>
          <path d="m1752.8,151.2c-.32.47-.97.59-1.44.27-.47-.32-.59-.97-.27-1.44.32-.47.97-.59,1.44-.27.47.32.59.97.27,1.44Z" fill="url(#linear-gradient-34)" stroke-width="0"/>
          <path d="m1732.95,123.9c-.32.47-.97.59-1.44.27-.47-.32-.59-.97-.27-1.44.32-.47.97-.59,1.44-.27.47.32.59.97.27,1.44Z" fill="url(#linear-gradient-35)" stroke-width="0"/>
          <path d="m1789.48,155.04c-.32.47-.97.59-1.44.27-.47-.32-.59-.97-.27-1.44.32-.47.97-.59,1.44-.27.47.32.59.97.27,1.44Z" fill="url(#linear-gradient-36)" stroke-width="0"/>
          <path d="m1686.67,147.33c-.32.47-.97.59-1.44.27-.47-.32-.59-.97-.27-1.44.32-.47.97-.59,1.44-.27.47.32.59.97.27,1.44Z" fill="url(#linear-gradient-37)" stroke-width="0"/>
          <path d="m1689.71,137.08c-.32.47-.97.59-1.44.27-.47-.32-.59-.97-.27-1.44.32-.47.97-.59,1.44-.27.47.32.59.97.27,1.44Z" fill="url(#linear-gradient-38)" stroke-width="0"/>
          <path d="m1703.04,147.46c-.32.47-.97.59-1.44.27-.47-.32-.59-.97-.27-1.44.32-.47.97-.59,1.44-.27.47.32.59.97.27,1.44Z" fill="url(#linear-gradient-39)" stroke-width="0"/>
          <path d="m1722.8,140.58c-.32.47-.97.59-1.44.27-.47-.32-.59-.97-.27-1.44.32-.47.97-.59,1.44-.27.47.32.59.97.27,1.44Z" fill="url(#linear-gradient-40)" stroke-width="0"/>
          <path d="m1715.89,122.98c-.32.47-.97.59-1.44.27-.47-.32-.59-.97-.27-1.44.32-.47.97-.59,1.44-.27s.59.97.27,1.44Z" fill="url(#linear-gradient-41)" stroke-width="0"/>
          <path d="m1720.39,151.43c-.32.47-.97.59-1.44.27-.47-.32-.59-.97-.27-1.44.32-.47.97-.59,1.44-.27.47.32.59.97.27,1.44Z" fill="url(#linear-gradient-42)" stroke-width="0"/>
          <path d="m1697.64,142.46c-.65.94-1.94,1.19-2.88.54s-1.19-1.94-.54-2.88,1.94-1.19,2.88-.54c.94.65,1.19,1.94.54,2.88Z" fill="url(#linear-gradient-43)" stroke-width="0"/>
          <path d="m1712.77,138.74c-.65.94-1.94,1.19-2.88.54-.94-.65-1.19-1.94-.54-2.88s1.94-1.19,2.88-.54c.94.65,1.19,1.94.54,2.88Z" fill="url(#linear-gradient-44)" stroke-width="0"/>
          <path d="m1693.35,170.8c-.65.94-1.94,1.19-2.88.54-.94-.65-1.19-1.94-.54-2.88s1.94-1.19,2.88-.54c.94.65,1.19,1.94.54,2.88Z" fill="url(#linear-gradient-45)" stroke-width="0"/>
          <path d="m1722.99,162.31c-.65.94-1.94,1.19-2.88.54-.94-.65-1.19-1.94-.54-2.88s1.94-1.19,2.88-.54,1.19,1.94.54,2.88Z" fill="url(#linear-gradient-46)" stroke-width="0"/>
          <path d="m1684.31,138.19c-.97,1.42-2.9,1.78-4.32.81s-1.78-2.9-.81-4.32c.97-1.42,2.9-1.78,4.32-.81,1.42.97,1.78,2.9.81,4.32Z" fill="url(#linear-gradient-47)" stroke-width="0"/>
          <path d="m1670.44,138.74c-.65.94-1.94,1.19-2.88.54s-1.19-1.94-.54-2.88c.65-.94,1.94-1.19,2.88-.54.94.65,1.19,1.94.54,2.88Z" fill="url(#linear-gradient-48)" stroke-width="0"/>
          <path d="m1639.18,177.09c-.65.94-1.94,1.19-2.88.54-.94-.65-1.19-1.94-.54-2.88.65-.94,1.94-1.19,2.88-.54s1.19,1.94.54,2.88Z" fill="url(#linear-gradient-49)" stroke-width="0"/>
          <path d="m1653.42,167.29c-.65.94-1.94,1.19-2.88.54s-1.19-1.94-.54-2.88,1.94-1.19,2.88-.54c.94.65,1.19,1.94.54,2.88Z" fill="url(#linear-gradient-50)" stroke-width="0"/>
          <path d="m1735.38,140.53c-.65.94-1.94,1.19-2.88.54s-1.19-1.94-.54-2.88c.65-.94,1.94-1.19,2.88-.54s1.19,1.94.54,2.88Z" fill="url(#linear-gradient-51)" stroke-width="0"/>
          <path d="m1746.99,127.23c-.65.94-1.94,1.19-2.88.54s-1.19-1.94-.54-2.88c.65-.94,1.94-1.19,2.88-.54s1.19,1.94.54,2.88Z" fill="url(#linear-gradient-52)" stroke-width="0"/>
          <path d="m1764.26,149.09c-.65.94-1.94,1.19-2.88.54-.94-.65-1.19-1.94-.54-2.88s1.94-1.19,2.88-.54c.94.65,1.19,1.94.54,2.88Z" fill="url(#linear-gradient-53)" stroke-width="0"/>
          <path d="m1787.3,165.56c-.65.94-1.94,1.19-2.88.54s-1.19-1.94-.54-2.88c.65-.94,1.94-1.19,2.88-.54.94.65,1.19,1.94.54,2.88Z" fill="url(#linear-gradient-54)" stroke-width="0"/>
          <path d="m1800.12,168.6c-.97,1.42-2.9,1.78-4.32.81-1.42-.97-1.78-2.9-.81-4.32s2.9-1.78,4.32-.81,1.78,2.9.81,4.32Z" fill="url(#linear-gradient-55)" stroke-width="0"/>
        </g>
        <path d="m1826.58,244.93c-4.18-29.28-20.16-56.77-46.5-74.79-49.83-34.09-117.87-21.33-151.96,28.5-7.01,10.24-12.03,21.25-15.17,32.58-3.74-26.13,1.92-53.67,18-77.17,34.09-49.83,102.12-62.59,151.96-28.5,39.59,27.09,55.78,75.6,43.67,119.38Z" fill="#603d28" mix-blend-mode="multiply" opacity=".15" stroke-width="0"/>
      </g>
      <g>
        <path d="m83.35,746.74c.09.74.21,1.49.36,2.23l4.09,19.99h0c-.68.16-1.12.83-.98,1.52l2.01,9.86c.14.68.81,1.13,1.49,1.01h0s1.57,7.69,1.57,7.69h0c-.67.23-1.1.93-.95,1.65l2.62,12.8c.15.71.81,1.19,1.52,1.14h0s.61,2.99.61,2.99h0c-.67.23-1.1.93-.95,1.65l2.62,12.8c.15.72.81,1.19,1.52,1.14h0s36.08,176.59,36.08,176.59c2.96,14.46,17.08,23.79,31.54,20.84l99.74-20.38c14.46-2.95,23.79-17.08,20.83-31.54l-2.2-10.78-37.27-182.39c.61-.83.89-1.91.67-2.99l-4.67-22.88c-.22-1.09-.9-1.97-1.79-2.49l-5.98-29.29c-2.95-14.46-17.08-23.79-31.54-20.83l-99.74,20.38c-13.72,2.8-22.82,15.65-21.2,29.3Z" fill="#1a1a1a" opacity=".33" stroke-width="0"/>
        <g>
          <path d="m197.31,694.67c14.82-2.96,29.22,6.56,32.16,21.26l51.06,255.53c2.94,14.7-6.7,29.02-21.52,31.98l-95.94,19.17c-14.82,2.96-29.22-6.56-32.16-21.26l-51.06-255.53c-2.94-14.7,6.7-29.02,21.52-31.98l95.94-19.17m-.24-1.2l-95.94,19.17c-15.46,3.09-25.55,18.08-22.48,33.42l51.06,255.53c3.06,15.34,18.14,25.3,33.6,22.21l95.94-19.17c15.46-3.09,25.55-18.08,22.48-33.42l-51.06-255.53c-3.06-15.34-18.14-25.3-33.6-22.21h0Z" fill="#94a3b8" stroke-width="0"/>
          <path d="m197.32,694.66l-95.96,19.18c-14.82,2.96-24.46,17.28-21.52,31.99l51.06,255.55c2.94,14.7,17.34,24.22,32.16,21.26l95.96-19.18c14.82-2.96,24.46-17.28,21.52-31.99l-51.06-255.55c-2.94-14.7-17.34-24.22-32.16-21.26Zm78.4,277.77c2.41,12.04-5.51,23.81-17.65,26.23l-95.96,19.18c-12.14,2.43-23.97-5.4-26.38-17.43l-51.06-255.55c-2.41-12.04,5.51-23.81,17.65-26.23l95.96-19.18c12.14-2.43,23.97,5.4,26.38,17.43l51.06,255.55Z" fill="#020617" stroke-width="0"/>
          <path d="m197.32,694.66l-95.96,19.18c-14.82,2.96-24.46,17.28-21.52,31.99l51.06,255.55c2.94,14.7,17.34,24.22,32.16,21.26l95.96-19.18c14.82-2.96,24.46-17.28,21.52-31.99l-51.06-255.55c-2.94-14.7-17.34-24.22-32.16-21.26Z" fill="#020617" stroke-width="0"/>
          <path d="m275.72,972.43c2.41,12.04-5.51,23.81-17.65,26.23l-95.96,19.18c-12.14,2.43-23.97-5.4-26.38-17.43l-51.06-255.55c-2.41-12.04,5.51-23.81,17.65-26.23l95.96-19.18c12.14-2.43,23.97,5.4,26.38,17.43l51.06,255.55Z" fill="#020617" stroke-width="0"/>
          <path d="m275.72,972.43c2.41,12.04-5.51,23.81-17.65,26.23l-95.96,19.18c-12.14,2.43-23.97-5.4-26.38-17.43l-51.06-255.55c-2.41-12.04,5.51-23.81,17.65-26.23l95.96-19.18c12.14-2.43,23.97,5.4,26.38,17.43l51.06,255.55Z" fill="#fff" mix-blend-mode="lighten" opacity=".07" stroke-width="0"/>
          <path d="m85.47,775.02h.65v16.96h-.65c-.31,0-.57-.25-.57-.57v-15.82c0-.31.25-.57.57-.57Z" transform="translate(-151.87 31.94) rotate(-11.3)" fill="#64748b" stroke-width="0"/>
          <path d="m91.42,799.69h.59v26.65h-.59c-.34,0-.62-.28-.62-.62v-25.41c0-.34.28-.62.62-.62Z" transform="translate(-157.54 33.67) rotate(-11.3)" fill="#64748b" stroke-width="0"/>
          <path d="m97.57,830.48h.59v26.65h-.59c-.34,0-.62-.28-.62-.62v-25.41c0-.34.28-.62.62-.62Z" transform="translate(-163.45 35.47) rotate(-11.3)" fill="#64748b" stroke-width="0"/>
          <rect x="128.69" y="712.32" width="46.32" height="15.13" rx="7.56" ry="7.56" transform="translate(-138.12 43.71) rotate(-11.3)" fill="#020617" stroke-width="0"/>
          <path d="m166.59,715.09c.98-.2,1.94.44,2.14,1.43s-.44,1.94-1.43,2.14-1.94-.44-2.14-1.43.44-1.94,1.43-2.14m-.59-2.97c-2.62.52-4.33,3.08-3.8,5.7.52,2.62,3.08,4.33,5.7,3.8s4.33-3.08,3.8-5.7c-.52-2.62-3.08-4.33-5.7-3.8h0Z" fill="#1e293b" stroke-width="0"/>
        </g>
      </g>
      <g clip-path="url(#clippath)">
        <g>
          <path d="m728.97-362.38l225.83,462.87c13.36,27.38.07,61.59-29.52,76.03L193.54,533.54c-29.6,14.44-64.74,3.85-78.1-23.53L-110.39,47.14c-.29-.58-.54-1.18-.76-1.78-3.82-10.25,1.36-22.34,12.17-27.62l797.76-389.22c11.44-5.58,25.02-1.49,30.19,9.1Z" fill="#1a1a1a" opacity=".33" stroke-width="0"/>
          <rect x="695.57" y="-31.14" width="38.59" height="38.64" rx="4.1" ry="4.1" transform="translate(1352.16 -335.89) rotate(153.99)" fill="#231f20" stroke-width="0"/>
          <path d="m699.06-371L-98.7,18.21c-11.44,5.58-17.6,16.72-13.68,24.76l2.57,5.27c.15.46.34.92.56,1.36L62.16,400.92c10.14,20.78,42.65,25.97,72.25,11.53L866.15,55.45c29.6-14.44,45.52-43.26,35.38-64.04l-2.17-4.45c-.29-.74-.61-1.46-.96-2.18l-171.41-351.32c-3.92-8.04-16.49-10.04-27.93-4.46Z" fill="#a8a8a8" stroke-width="0"/>
          <path d="m733.46-353.18l217.88,446.57c12.89,26.41-.78,59.84-30.38,74.28L189.21,524.67c-29.6,14.44-64.36,4.64-77.24-21.77L-105.91,56.33c-.28-.56-.52-1.14-.73-1.72-3.65-9.9,1.66-21.72,12.47-27l797.76-389.22c11.44-5.58,24.88-1.79,29.86,8.42Z" fill="#cbd5e1" stroke-width="0"/>
          <g>
            <rect x="381.04" y="158.61" width="244.93" height="171.51" rx="21.28" ry="21.28" transform="translate(-56.17 245.52) rotate(-26.01)" fill="#94a3b8" stroke-width="0"/>
            <path d="m440.91,368.37c-2.39,0-4.79-.4-7.12-1.2-5.49-1.89-9.91-5.79-12.44-10.97l-56.54-115.89c-2.53-5.19-2.88-11.07-.99-16.56,1.89-5.49,5.79-9.91,10.97-12.44l181.87-88.73c5.19-2.53,11.07-2.88,16.56-.99,5.49,1.89,9.91,5.79,12.44,10.97l56.54,115.89c5.24,10.75.77,23.76-9.98,29.01l-181.87,88.73c-2.99,1.46-6.2,2.19-9.44,2.19Zm125.2-247.18c-3.12,0-6.22.71-9.09,2.11l-181.87,88.73c-4.99,2.44-8.74,6.69-10.56,11.98-1.82,5.29-1.48,10.95.95,15.94l56.54,115.89c2.44,4.99,6.69,8.74,11.98,10.56,5.29,1.82,10.95,1.48,15.94-.95l181.87-88.73.18.37-.18-.37c10.35-5.05,14.66-17.57,9.61-27.92l-56.54-115.89c-2.43-4.99-6.69-8.74-11.98-10.56-2.24-.77-4.55-1.16-6.85-1.16Z" fill="#94a3b8" stroke-width="0"/>
          </g>
          <path d="m778.28-29.89L121.14,290.72c-8.03,3.92-17.8.55-21.71-7.47L-14.12,50.5c-3.92-8.03-.55-17.8,7.47-21.71l657.14-320.61c8.03-3.92,17.8-.55,21.71,7.47l113.56,232.75c3.92,8.03.55,17.8-7.47,21.71Z" fill="#94a3b8" stroke-width="0"/>
          <g>
            <g>
              <rect x=".91" y="36.42" width="38.28" height="20.69" rx="2.98" ry="2.98" transform="translate(-18.48 13.53) rotate(-26.01)" fill="#0f172a" stroke-width="0"/>
              <rect x="42.81" y="15.98" width="38.28" height="20.69" rx="2.98" ry="2.98" transform="translate(-5.27 29.83) rotate(-26.01)" fill="#0f172a" stroke-width="0"/>
              <rect x="84.71" y="-4.46" width="38.28" height="20.69" rx="2.98" ry="2.98" transform="translate(7.94 46.13) rotate(-26.01)" fill="#0f172a" stroke-width="0"/>
              <rect x="126.61" y="-24.91" width="38.28" height="20.69" rx="2.98" ry="2.98" transform="translate(21.14 62.44) rotate(-26.01)" fill="#0f172a" stroke-width="0"/>
            </g>
            <g>
              <rect x="18.05" y="63.49" width="38.23" height="38.28" rx="4.06" ry="4.06" transform="translate(-32.47 24.66) rotate(-26.01)" fill="#0f172a" stroke-width="0"/>
              <rect x="64.51" y="40.82" width="38.23" height="38.28" rx="4.06" ry="4.06" transform="translate(-17.82 42.74) rotate(-26.01)" fill="#0f172a" stroke-width="0"/>
              <rect x="110.97" y="18.15" width="38.23" height="38.28" rx="4.06" ry="4.06" transform="translate(-3.18 60.82) rotate(-26.01)" fill="#0f172a" stroke-width="0"/>
              <rect x="157.43" y="-4.52" width="38.23" height="38.28" rx="4.06" ry="4.06" transform="translate(11.47 78.89) rotate(-26.01)" fill="#0f172a" stroke-width="0"/>
              <rect x="203.9" y="-27.19" width="38.23" height="38.28" rx="4.06" ry="4.06" transform="translate(26.11 96.97) rotate(-26.01)" fill="#0f172a" stroke-width="0"/>
            </g>
            <g>
              <rect x="342.94" y="-41.03" width="38.23" height="38.28" rx="4.06" ry="4.06" transform="translate(677.85 -200.31) rotate(153.99)" fill="#0f172a" stroke-width="0"/>
              <rect x="296.48" y="-18.36" width="38.23" height="38.28" rx="4.06" ry="4.06" transform="translate(599.57 -136.9) rotate(153.99)" fill="#0f172a" stroke-width="0"/>
              <rect x="250.01" y="4.31" width="38.23" height="38.28" rx="4.06" ry="4.06" transform="translate(521.29 -73.48) rotate(153.99)" fill="#0f172a" stroke-width="0"/>
              <rect x="203.55" y="26.98" width="38.23" height="38.28" rx="4.06" ry="4.06" transform="translate(2.33 102.31) rotate(-26.01)" fill="#0f172a" stroke-width="0"/>
              <rect x="157.09" y="49.65" width="38.23" height="38.28" rx="4.06" ry="4.06" transform="translate(364.73 53.34) rotate(153.99)" fill="#0f172a" stroke-width="0"/>
              <rect x="110.63" y="72.31" width="38.23" height="38.28" rx="4.06" ry="4.06" transform="translate(286.45 116.76) rotate(153.99)" fill="#0f172a" stroke-width="0"/>
              <rect x="37.93" y="101.04" width="65.87" height="38.28" rx="5.33" ry="5.33" transform="translate(-45.52 43.24) rotate(-26.01)" fill="#0f172a" stroke-width="0"/>
            </g>
            <g>
              <rect x="421.63" y="-25.43" width="38.23" height="38.28" rx="4.06" ry="4.06" transform="translate(834.11 -205.2) rotate(153.99)" fill="#0f172a" stroke-width="0"/>
              <rect x="375.17" y="-2.76" width="38.23" height="38.28" rx="4.06" ry="4.06" transform="translate(755.83 -141.78) rotate(153.99)" fill="#0f172a" stroke-width="0"/>
              <rect x="328.71" y="19.91" width="38.23" height="38.28" rx="4.06" ry="4.06" transform="translate(677.55 -78.37) rotate(153.99)" fill="#0f172a" stroke-width="0"/>
              <rect x="282.25" y="42.58" width="38.23" height="38.28" rx="4.06" ry="4.06" transform="translate(599.27 -14.96) rotate(153.99)" fill="#0f172a" stroke-width="0"/>
              <rect x="235.79" y="65.25" width="38.23" height="38.28" rx="4.06" ry="4.06" transform="translate(520.99 48.46) rotate(153.99)" fill="#0f172a" stroke-width="0"/>
              <rect x="189.33" y="87.91" width="38.23" height="38.28" rx="4.06" ry="4.06" transform="translate(442.71 111.87) rotate(153.99)" fill="#0f172a" stroke-width="0"/>
              <rect x="142.86" y="110.58" width="38.23" height="38.28" rx="4.06" ry="4.06" transform="translate(364.44 175.29) rotate(153.99)" fill="#0f172a" stroke-width="0"/>
              <rect x="58.53" y="142" width="78.12" height="38.28" rx="5.8" ry="5.8" transform="translate(-60.77 59.11) rotate(-26.01)" fill="#0f172a" stroke-width="0"/>
            </g>
            <g>
              <rect x="559.07" y="-38.48" width="38.23" height="38.28" rx="4.06" ry="4.06" transform="translate(67.03 251.57) rotate(-26.01)" fill="#0f172a" stroke-width="0"/>
              <rect x="512.61" y="-15.82" width="38.23" height="38.28" rx="4.06" ry="4.06" transform="translate(1011.06 -226.84) rotate(153.99)" fill="#0f172a" stroke-width="0"/>
              <rect x="466.14" y="6.85" width="38.23" height="38.28" rx="4.06" ry="4.06" transform="translate(932.78 -163.42) rotate(153.99)" fill="#0f172a" stroke-width="0"/>
              <rect x="419.68" y="29.52" width="38.23" height="38.28" rx="4.06" ry="4.06" transform="translate(854.5 -100.01) rotate(153.99)" fill="#0f172a" stroke-width="0"/>
              <rect x="373.22" y="52.19" width="38.23" height="38.28" rx="4.06" ry="4.06" transform="translate(776.22 -36.6) rotate(153.99)" fill="#0f172a" stroke-width="0"/>
              <rect x="326.76" y="74.86" width="38.23" height="38.28" rx="4.06" ry="4.06" transform="translate(-6.19 161.18) rotate(-26.01)" fill="#0f172a" stroke-width="0"/>
              <rect x="280.3" y="97.53" width="38.23" height="38.28" rx="4.06" ry="4.06" transform="translate(619.66 90.23) rotate(153.99)" fill="#0f172a" stroke-width="0"/>
              <rect x="233.83" y="120.19" width="38.23" height="38.28" rx="4.06" ry="4.06" transform="translate(541.38 153.65) rotate(153.99)" fill="#0f172a" stroke-width="0"/>
              <rect x="187.37" y="142.86" width="38.23" height="38.28" rx="4.06" ry="4.06" transform="translate(-50.13 106.95) rotate(-26.01)" fill="#0f172a" stroke-width="0"/>
              <rect x="78.5" y="179.94" width="103.97" height="38.28" rx="6.69" ry="6.69" transform="translate(-74.08 77.37) rotate(-26.01)" fill="#0f172a" stroke-width="0"/>
            </g>
            <g>
              <rect x="208.65" y="186.48" width="38.23" height="38.28" rx="4.06" ry="4.06" transform="translate(-67.1 120.69) rotate(-26.01)" fill="#0f172a" stroke-width="0"/>
              <rect x="161.84" y="209.31" width="38.23" height="38.28" rx="4.06" ry="4.06" transform="translate(443.76 354.43) rotate(153.99)" fill="#0f172a" stroke-width="0"/>
              <rect x="102.76" y="234.81" width="51.88" height="38.28" rx="4.73" ry="4.73" transform="translate(-98.32 82.15) rotate(-26.01)" fill="#0f172a" stroke-width="0"/>
              <rect x="255.12" y="163.81" width="38.23" height="38.28" rx="4.06" ry="4.06" transform="translate(600.92 227.12) rotate(153.99)" fill="#0f172a" stroke-width="0"/>
              <rect x="546.31" y="21.74" width="38.23" height="38.28" rx="4.06" ry="4.06" transform="translate(1091.51 -170.31) rotate(153.99)" fill="#0f172a" stroke-width="0"/>
              <rect x="592.77" y="-.93" width="38.23" height="38.28" rx="4.06" ry="4.06" transform="translate(53.98 270.15) rotate(-26.01)" fill="#0f172a" stroke-width="0"/>
              <rect x="639.24" y="-23.6" width="38.23" height="38.28" rx="4.06" ry="4.06" transform="translate(1248.08 -297.15) rotate(153.99)" fill="#0f172a" stroke-width="0"/>
              <rect x="290.95" y="92.65" width="258.26" height="38.28" rx="5.8" ry="5.8" transform="translate(-6.48 195.52) rotate(-26.01)" fill="#0f172a" stroke-width="0"/>
            </g>
          </g>
          <path d="m-5.59-27.21L7.97.58c1.12,2.29.16,5.08-2.14,6.2l-26.4,12.88c-2.29,1.12-5.08.16-6.2-2.14l-13.56-27.79L-5.59-27.21Z" fill="#2a2a2c" stroke-width="0"/>
          <rect x="-40.32" y="-33.79" width="38.27" height="38.27" rx="4.02" ry="4.02" transform="translate(4.28 -10.77) rotate(-26.01)" fill="#b7b5b6" stroke-width="0"/>
          <path d="m675.7-633.65c.04.21.08.42.11.63l38.35,232.48c1.7,10.28-3.56,20.46-12.92,25.03L-106.51,18.58c-9.37,4.57-20.62,2.45-27.68-5.22l-2.57-2.79-157.05-170.52c-10.69-11.61-7.18-30.24,7-37.16l929.02-453.26c13.99-6.83,30.57,1.55,33.49,16.72Z" fill="#313a43" stroke-width="0"/>
          <path d="m674.5-640.98l1.2,7.33c-2.91-15.18-19.49-23.55-33.49-16.72L-286.81-197.11c-14.19,6.92-17.7,25.55-7,37.16L-136.76,10.57c-1.17-.87-2.27-1.85-3.29-2.95l-159.93-173.16c-10.71-11.6-7.15-30.26,7.1-37.21l933.68-455.53c14.26-6.96,31.15,1.72,33.7,17.3Z" fill="#b5b5b5" stroke-width="0"/>
          <path d="m876.64,159.71l-17.47-32.18-10.61-20.7-12.3-23.99-38.31-74.74-100.24,51.38-19.33,9.91-29.97,15.36,46.02,91.54,34.52,63.59,70.77-38.41,76.91-41.75Z" fill="#1a1a1a" opacity=".33" stroke-width="0"/>
          <polygon points="849.58 106.83 798.97 8.1 698.74 59.48 695.99 60.89 692.66 62.59 686.13 65.94 682.16 67.98 679.41 69.38 649.44 84.74 726.08 234.28 847.06 172.27 875.62 157.63 849.58 106.83" fill="#98ce00" stroke-width="0"/>
          <g>
            <path d="m711.46,136.36c-1.29.65-2.66.99-4.13,1.03-1.46.03-2.91-.22-4.33-.76-1.43-.54-2.75-1.34-3.97-2.43-1.22-1.08-2.23-2.42-3.03-4.02-.81-1.6-1.33-3.3-1.57-5.12-.24-1.82-.18-3.6.17-5.33.36-1.73,1.02-3.31,1.98-4.74.96-1.42,2.23-2.54,3.81-3.33.59-.3,1.21-.54,1.85-.72.64-.18,1.31-.31,2.02-.39.36-.05.66,0,.92.13.25.14.44.36.56.66.13.27.19.55.16.84-.03.3-.13.56-.3.79s-.41.36-.73.39c-.28.01-.67.07-1.18.17-.51.1-1.17.36-1.97.76-1.17.59-2.1,1.42-2.81,2.48-.71,1.07-1.17,2.27-1.4,3.6-.23,1.33-.22,2.72,0,4.16.23,1.44.69,2.85,1.38,4.22.66,1.31,1.47,2.38,2.42,3.21.95.83,1.96,1.44,3.02,1.82,1.07.39,2.12.56,3.14.53,1.03-.03,1.95-.25,2.77-.67,1.15-.58,2.06-1.45,2.74-2.62.68-1.17,1.13-2.49,1.36-3.98s.22-3.01-.02-4.58c-.24-1.56-.7-3.02-1.38-4.37-.61-1.26-1.33-2.27-2.15-3.02-.82-.75-1.88-1.39-3.17-1.92-.24-.11-.44-.24-.6-.39-.17-.15-.3-.32-.4-.53-.17-.33-.19-.67-.08-1.04.11-.37.36-.64.75-.84.33-.17.75-.22,1.25-.15.51.06,1.11.3,1.81.72.78.43,1.5.94,2.17,1.54.66.6,1.28,1.26,1.83,1.98.56.72,1.05,1.5,1.47,2.34.75,1.47,1.26,2.99,1.55,4.55.29,1.56.36,3.11.22,4.63-.14,1.52-.47,2.96-.98,4.31-.51,1.35-1.2,2.55-2.08,3.59-.87,1.04-1.9,1.87-3.09,2.47Z" stroke-width="0"/>
            <path d="m720.79,111.59c-.09-.34-.06-.65.1-.94s.41-.52.74-.68c.35-.18.72-.23,1.11-.17.39.06.7.33.94.8.11.23.23.54.36.94.13.4.27.87.44,1.4.18-1.38.57-2.52,1.17-3.45.6-.92,1.38-1.62,2.34-2.11.92-.47,1.84-.68,2.76-.64.92.04,1.8.27,2.63.71.84.44,1.6,1.02,2.29,1.75.69.73,1.26,1.55,1.72,2.45.55,1.08.91,2.24,1.07,3.45.16,1.21.13,2.4-.11,3.55-.24,1.15-.69,2.2-1.36,3.14-.67.94-1.54,1.69-2.63,2.24-.45.23-1,.42-1.64.58-.64.16-1.25.23-1.82.21-.42-.02-.79-.11-1.12-.26-.32-.16-.56-.38-.7-.67-.19-.37-.23-.73-.12-1.08.11-.35.32-.61.65-.77.16-.08.36-.13.58-.16.22-.02.46-.03.72-.03.33-.01.69-.03,1.08-.07.39-.03.79-.15,1.18-.34.61-.31,1.11-.77,1.48-1.38.37-.61.61-1.31.73-2.1.11-.79.1-1.6-.03-2.43-.14-.83-.4-1.62-.78-2.38-.8-1.58-1.66-2.6-2.59-3.06-.93-.47-1.89-.45-2.87.04-1,.51-1.67,1.28-2.01,2.31-.34,1.03-.47,2.2-.38,3.51.08,1.31.26,2.65.52,4.04.42,1.18.91,2.39,1.47,3.63.57,1.24,1.15,2.44,1.76,3.6.61,1.16,1.19,2.2,1.74,3.13.25.39.49.86.73,1.41.24.55.41,1.1.53,1.66.12.56.12,1.07.02,1.53-.1.46-.37.8-.79,1.02-.51.26-.99.21-1.44-.14-.45-.35-.86-.83-1.23-1.44-.37-.61-.69-1.17-.95-1.68-.69-1.37-1.29-2.6-1.79-3.68-.5-1.08-.95-2.19-1.35-3.31-.4-1.12-.79-2.39-1.18-3.82-.46-1.05-.92-2.17-1.4-3.34-.48-1.17-.94-2.35-1.39-3.54-.45-1.19-.84-2.31-1.17-3.38Z" stroke-width="0"/>
            <path d="m744.08,112.29l-1.9-1.77c2.05-1.42,3.58-2.71,4.58-3.86,1-1.15,1.61-2.15,1.84-2.99.23-.85.21-1.53-.05-2.04-.29-.57-.7-.91-1.23-1.02s-1.08-.01-1.65.28c-.51.26-.99.66-1.45,1.21s-.8,1.21-1.04,1.97c-.24.77-.33,1.61-.27,2.52.06.92.36,1.89.88,2.91.69,1.37,1.51,2.39,2.44,3.07.93.67,1.88,1.04,2.86,1.12.98.07,1.87-.1,2.69-.51.65-.33,1.22-.77,1.69-1.32.47-.54.82-1.2,1.05-1.96.1-.36.23-.7.37-1.02.15-.32.36-.55.65-.7.25-.12.48-.18.71-.17.23.02.43.09.61.21.18.13.33.3.44.53.1.21.17.4.2.59.03.19.02.4-.04.64-.18.86-.49,1.67-.92,2.41-.43.75-.95,1.4-1.55,1.96s-1.26,1.02-1.98,1.39c-.98.5-2.02.79-3.12.88-1.1.09-2.19-.04-3.29-.4-1.09-.36-2.13-.97-3.1-1.82-.97-.86-1.81-1.98-2.52-3.37-.73-1.45-1.13-2.84-1.18-4.16-.05-1.32.13-2.55.55-3.67.42-1.13,1.01-2.11,1.77-2.94.76-.83,1.6-1.49,2.52-1.95.86-.43,1.73-.68,2.6-.74.87-.05,1.67.12,2.4.52.73.4,1.33,1.06,1.79,1.98.32.63.48,1.39.46,2.25-.01.87-.27,1.82-.79,2.87s-1.34,2.16-2.47,3.35c-1.13,1.19-2.66,2.44-4.57,3.74Z" stroke-width="0"/>
            <path d="m755.69,94.31c-.2-.34-.23-.71-.1-1.11.13-.4.41-.71.84-.93.33-.17.65-.21.96-.12.31.09.65.35,1.02.8.37.45.79,1.12,1.28,2.03.06-1.31.34-2.5.85-3.55.51-1.05,1.27-1.84,2.3-2.36,1.1-.56,2.26-.75,3.45-.57,1.2.18,2.34.71,3.43,1.6,1.09.89,2.04,2.12,2.83,3.69.45.88.87,1.79,1.26,2.72.39.93.79,1.86,1.2,2.79.4.93.82,1.84,1.26,2.76.2.39.21.77.04,1.15-.17.38-.47.68-.9.9-.41.21-.8.25-1.16.14-.36-.11-.65-.36-.84-.75-.28-.55-.55-1.14-.81-1.75-.26-.61-.53-1.25-.81-1.9-.28-.65-.57-1.32-.86-2-.29-.67-.61-1.36-.96-2.06-.59-1.17-1.22-2.1-1.9-2.8-.68-.7-1.36-1.15-2.07-1.34-.7-.2-1.41-.11-2.13.25-.55.28-.98.74-1.29,1.38s-.5,1.38-.57,2.22c-.08.84-.07,1.69.03,2.57.1.88.26,1.68.5,2.4.47,1.44.86,2.64,1.17,3.61s.57,1.77.78,2.38c.21.62.38,1.13.51,1.55.11.33.1.63-.04.91-.14.28-.39.5-.73.68-.37.19-.7.28-.99.29-.29,0-.54-.07-.74-.24-.2-.17-.35-.4-.44-.68-.42-1.33-.86-2.63-1.32-3.9s-.95-2.5-1.46-3.69c-.51-1.19-1.03-2.31-1.56-3.35-.32-.63-.6-1.17-.83-1.6-.23-.43-.44-.82-.63-1.17-.19-.34-.38-.66-.57-.94Z" stroke-width="0"/>
            <path d="m785.25,81.56c-.38.22-.74.25-1.08.11s-.61-.4-.8-.77c-.18-.35-.22-.7-.13-1.05.09-.36.33-.64.7-.86.51-.31,1.05-.63,1.62-.95.57-.33,1.17-.65,1.79-.99.63-.33,1.31-.69,2.04-1.07.73-.38,1.52-.79,2.36-1.21.35-.18.71-.2,1.08-.08.37.12.66.37.88.75.19.37.21.74.06,1.11-.15.37-.38.64-.71.8-.86.44-1.59.81-2.2,1.13-.61.32-1.19.63-1.73.92-.55.29-1.12.6-1.72.95-.6.34-1.32.75-2.16,1.23Zm-1.52-6.98c-.17-.43-.17-.81-.02-1.15.15-.33.41-.59.78-.78.25-.12.51-.2.79-.23.28-.03.54.01.78.13s.41.32.51.63c.5,1.39,1,2.72,1.5,3.99.5,1.27,1.02,2.51,1.56,3.72.54,1.22,1.13,2.46,1.77,3.73.81,1.55,1.5,2.75,2.09,3.63.58.88,1.06,1.47,1.43,1.8.37.33.62.46.74.4.18-.09.36-.33.53-.71.17-.38.31-.79.44-1.23.13-.44.21-.76.27-.96.05-.21.14-.37.27-.5.13-.13.26-.23.41-.3.25-.12.5-.18.77-.16.27.02.51.1.74.24.23.14.4.34.53.58.07.14.11.32.13.52.01.2-.01.44-.07.73-.14.74-.36,1.41-.65,2.03-.29.61-.63,1.13-1.01,1.55-.38.42-.79.75-1.24.98-.8.4-1.63.46-2.48.16-.86-.3-1.72-1.01-2.57-2.15-.6-.83-1.16-1.68-1.7-2.55-.53-.87-1.03-1.77-1.5-2.69-.63-1.25-1.21-2.46-1.72-3.64-.52-1.18-1.02-2.4-1.5-3.66-.48-1.26-.99-2.62-1.53-4.1Z" stroke-width="0"/>
            <path d="m802.53,68.92c.47-.24.96-.43,1.48-.58.52-.14,1.02-.23,1.52-.27.5-.03.96.01,1.38.13,1.32.28,2.51.91,3.56,1.9,1.05.99,1.91,2.14,2.59,3.47.57,1.13.98,2.29,1.22,3.49.25,1.2.31,2.36.19,3.49-.12,1.13-.46,2.15-1,3.05-.54.9-1.33,1.62-2.35,2.13-1.04.53-2.12.79-3.24.79s-2.21-.22-3.28-.65c-1.07-.44-2.04-1.07-2.92-1.89-.88-.83-1.61-1.8-2.18-2.93-.54-1.06-.9-2.18-1.09-3.34-.19-1.16-.18-2.31.04-3.43.22-1.12.66-2.15,1.33-3.08.67-.93,1.59-1.69,2.76-2.28Zm-.32,10.5c.52,1.02,1.18,1.9,1.99,2.64.81.74,1.69,1.22,2.64,1.44.95.23,1.9.1,2.84-.37.65-.33,1.13-.79,1.42-1.39.29-.6.44-1.27.44-2.03,0-.76-.11-1.53-.33-2.32-.22-.79-.5-1.53-.86-2.23-.63-1.25-1.37-2.21-2.21-2.88-.84-.67-1.72-1.07-2.63-1.2-.31.05-.6.13-.87.23-.27.1-.54.22-.81.35-.7.35-1.24.82-1.65,1.39-.4.58-.66,1.22-.78,1.93-.12.71-.1,1.45.03,2.2.14.75.39,1.5.76,2.24Z" stroke-width="0"/>
            <path d="m735.45,170.75c-.31.16-.61.21-.92.17-.3-.04-.59-.2-.86-.47-.75-.78-1.53-1.55-2.32-2.33-.79-.78-1.59-1.55-2.4-2.31-.81-.76-1.62-1.53-2.43-2.32-.81-.79-1.6-1.58-2.36-2.37.17,2.41.32,4.46.47,6.14.15,1.69.28,3.11.4,4.27.12,1.16.24,2.17.35,3.05.02.25,0,.48-.07.69-.07.21-.18.4-.34.55-.15.16-.32.28-.51.37-.31.16-.64.22-.98.19-.35-.03-.63-.2-.83-.5-1.08-1.53-2.26-2.97-3.54-4.32-1.27-1.35-2.56-2.68-3.86-4s-2.52-2.68-3.67-4.08c-.1-.15-.19-.27-.26-.35-.07-.08-.14-.19-.21-.34-.14-.29-.12-.61.06-.98s.48-.65.87-.84c.29-.14.59-.2.9-.17s.59.18.83.45c.66.8,1.33,1.58,2.01,2.34.68.76,1.37,1.52,2.06,2.28.69.76,1.4,1.53,2.12,2.32.72.79,1.45,1.62,2.2,2.47-.13-1.53-.26-3-.38-4.41-.12-1.41-.24-2.81-.34-4.18-.1-1.37-.21-2.73-.32-4.06-.12-.3-.18-.59-.15-.87.02-.28.12-.54.3-.79.17-.24.41-.44.72-.6.27-.13.55-.19.86-.17.31.02.59.19.85.5.44.47.87.95,1.27,1.44.4.49.82.97,1.27,1.44.5.52.99,1.04,1.48,1.56.49.52,1,1.04,1.52,1.56.52.52,1.05,1.04,1.58,1.57.54.53,1.07,1.07,1.61,1.62-.31-1.49-.57-2.94-.77-4.35-.2-1.42-.38-2.82-.53-4.21s-.32-2.77-.5-4.14c-.06-.38-.02-.7.13-.95.15-.26.37-.46.66-.6.39-.2.78-.25,1.17-.17.39.09.68.31.87.68.04.08.07.18.09.28.02.11.03.23.06.38.25,1.86.46,3.71.64,5.58.18,1.86.42,3.71.72,5.53.3,1.83.72,3.63,1.29,5.4.15.44.15.84.01,1.21-.14.37-.41.65-.82.86Z" stroke-width="0"/>
            <path d="m752.53,150.01c.63,1.25,1.04,2.53,1.23,3.83.19,1.31.15,2.56-.11,3.75-.26,1.2-.72,2.27-1.4,3.21s-1.55,1.69-2.61,2.23c-1.29.65-2.6.91-3.92.79-1.32-.13-2.55-.6-3.69-1.43s-2.07-1.95-2.79-3.39c-.65-1.29-1.07-2.61-1.25-3.96-.18-1.35-.14-2.63.13-3.86.27-1.23.74-2.33,1.42-3.3.68-.97,1.55-1.73,2.61-2.27,1.29-.65,2.59-.88,3.91-.69,1.32.19,2.55.73,3.68,1.61,1.14.88,2.07,2.03,2.79,3.46Zm-10.5,7.43c.51,1,1.1,1.79,1.78,2.38.68.58,1.41.93,2.2,1.04.79.12,1.57-.02,2.35-.42.9-.46,1.56-1.17,1.97-2.13.41-.97.56-2.06.46-3.28-.1-1.22-.47-2.46-1.1-3.7-.49-.96-1.1-1.73-1.83-2.31-.73-.58-1.5-.94-2.3-1.07s-1.58-.01-2.34.37c-.82.41-1.42,1.11-1.81,2.09-.39.98-.54,2.09-.45,3.33.09,1.24.44,2.47,1.06,3.7Z" stroke-width="0"/>
            <path d="m753.99,141.4c-.2-.44-.21-.84-.03-1.2.18-.36.46-.64.85-.83.37-.19.73-.25,1.1-.19.36.06.65.29.86.7.06.12.14.28.24.48s.2.41.31.65c.11.24.22.51.32.82.08-1.32.37-2.43.88-3.32.51-.89,1.24-1.57,2.18-2.05.47-.24,1.01-.43,1.62-.57.61-.14,1.29-.18,2.04-.12.32.02.58.1.79.26.21.15.37.38.5.67.21.46.24.88.11,1.24-.14.37-.39.64-.76.83-.21.1-.42.16-.63.16-.22,0-.43,0-.65-.02-.27-.02-.54-.03-.82-.03-.28,0-.6.09-.94.27-1.21.61-1.87,1.7-1.99,3.26-.12,1.56.06,3.41.54,5.53.33.71.65,1.37.94,1.97.29.61.57,1.2.83,1.76.26.56.51,1.1.76,1.62.25.52.5,1.02.75,1.51.13.27.18.52.14.78-.04.25-.14.48-.31.68-.17.2-.38.36-.62.49-.45.23-.86.26-1.21.11-.36-.15-.69-.43-1-.83-.3-.4-.59-.85-.85-1.36-.21-.41-.45-.93-.73-1.56-.28-.63-.55-1.26-.81-1.9-.26-.64-.46-1.18-.61-1.62l-3.79-8.18Z" stroke-width="0"/>
            <path d="m764.56,125.33c-.16-.41-.16-.79,0-1.15.15-.36.42-.64.81-.83.51-.26.94-.27,1.27-.04.33.23.63.59.87,1.08.25.49.6,1.35,1.05,2.57.45,1.22,1.06,2.79,1.84,4.7.77,1.91,1.76,4.14,2.95,6.7.01-.03.14-.3.38-.81.24-.51.55-1.16.91-1.96.37-.8.76-1.66,1.18-2.58.42-.92.83-1.82,1.23-2.71.4-.88.75-1.64,1.04-2.28.1-.21.22-.39.34-.54.13-.15.27-.27.44-.35.2-.1.4-.17.6-.19.19-.02.38,0,.55.05.17.06.32.14.46.27.14.12.25.28.35.46.1.21.17.42.2.63s0,.43-.1.63c-.18.4-.43.92-.74,1.55-.31.63-.65,1.33-1.01,2.09-.36.76-.72,1.53-1.09,2.31s-.71,1.49-1.04,2.14c-.33.65-.59,1.2-.81,1.64.53.25,1.2.58,2,1.01.8.43,1.58.85,2.35,1.26.59.3,1.17.55,1.76.77.59.22,1.12.35,1.61.4s.9-.01,1.25-.19c.33-.17.58-.5.75-1,.17-.5.31-.94.42-1.33.06-.29.15-.54.26-.75.11-.21.27-.37.47-.47.22-.11.47-.17.72-.17.26,0,.5.06.72.17s.41.31.54.57c.12.25.17.54.15.87-.02.33-.09.69-.2,1.08-.12.47-.31.96-.57,1.46-.26.51-.57.96-.92,1.37s-.75.73-1.18.94c-.74.37-1.53.53-2.37.46-.84-.06-1.69-.26-2.56-.6-.86-.33-1.72-.71-2.57-1.13-.85-.47-1.63-.9-2.34-1.3-.7-.4-1.33-.71-1.87-.92.53,1.1,1.03,2.17,1.52,3.22.48,1.05.97,2.11,1.45,3.18.22.43.24.82.07,1.16s-.44.61-.81.8c-.39.2-.77.26-1.15.2-.38-.06-.68-.31-.9-.74-1.81-3.94-3.6-7.91-5.36-11.9-1.76-3.99-3.41-7.93-4.93-11.81Z" stroke-width="0"/>
          </g>
        </g>
      </g>
    </g>
  </g>
</svg>