<?xml version="1.0" encoding="UTF-8"?>
<svg id="Layer_27" data-name="Layer 27" xmlns="http://www.w3.org/2000/svg" viewBox="0 0 200.56 98.27">
  <path d="m56.9,22.54H20.35c-2.19,0-4.22.93-5.66,2.36-1.52,1.52-2.45,3.55-2.45,5.74v14.52c0,3.8,1.6,7.26,4.14,9.79,2.53,2.53,5.99,4.14,9.79,4.14h30.73c3.8,0,7.26-1.6,9.79-4.14,2.53-2.53,4.05-5.99,4.05-9.79v-8.78c0-3.8-1.52-7.26-4.05-9.79-2.53-2.53-5.99-4.05-9.79-4.05h0ZM20.35,10.3h36.56c7.18,0,13.68,2.95,18.41,7.68,4.73,4.73,7.68,11.23,7.68,18.41v8.78c0,7.18-2.96,13.76-7.68,18.49-4.73,4.73-11.23,7.68-18.41,7.68h-30.73c-7.18,0-13.76-2.96-18.49-7.68C2.95,58.93,0,52.34,0,45.17v-14.52c0-5.57,2.28-10.72,5.99-14.35,3.71-3.72,8.78-5.99,14.35-5.99h0Z" fill="#0d43a7" stroke-width="0"/>
  <path d="m27.44,10.3h29.47c7.18,0,13.68,2.95,18.41,7.68,4.73,4.73,7.68,11.23,7.68,18.41v8.78c0,7.18-2.96,13.76-7.68,18.49-4.73,4.73-11.23,7.68-18.41,7.68h-26c-1.18-4.14-2.11-8.19-2.87-12.24h28.87c3.8,0,7.26-1.6,9.79-4.14,2.53-2.53,4.05-5.99,4.05-9.79v-8.78c0-3.8-1.52-7.26-4.05-9.79-2.53-2.53-5.99-4.05-9.79-4.05h-30.56c.25-4.73.68-8.86,1.1-12.24h0Z" fill="#0a3480" stroke-width="0"/>
  <path d="m118.11,98.27h-44.58C32.84,82.82,35.63,36.89,35.63,0h164.89c0,36.89,2.79,82.82-37.91,98.27h-44.49Z" fill="#255cc0" fill-rule="evenodd" stroke-width="0"/>
  <path d="m91.86,98.27h-18.32C32.84,82.82,35.63,36.89,35.63,0h33.86c0,36.89-1.69,82.82,22.37,98.27h0Z" fill="#0d43a7" fill-rule="evenodd" stroke-width="0"/>
  <path d="m184.9,35.21c.17-1.69,1.6-2.95,3.29-2.87,1.69.09,2.96,1.52,2.87,3.21-.59,9.54-1.94,19-5.07,27.44-3.21,8.7-8.27,16.38-16.13,22.29-1.27,1.01-3.21.76-4.22-.59-1.01-1.35-.76-3.29.59-4.31,6.75-5.07,11.14-11.82,14.01-19.5,2.87-7.85,4.14-16.63,4.64-25.67h0Zm.42-22.46c0-1.69,1.35-3.04,3.04-3.04s3.04,1.35,3.04,3.04v.25c0,4.05.08,8.19,0,12.33,0,1.69-1.44,3.04-3.12,3.04s-3.04-1.44-2.95-3.12v-12.5h0Z" fill="#6c92d8" stroke-width="0"/>
</svg>