<?xml version="1.0" encoding="UTF-8"?>
<svg xmlns="http://www.w3.org/2000/svg" viewBox="0 0 200 100">
  <g isolation="isolate">
    <g id="cup-light">
      <g>
        <path d="m56.75,26.19H20.29c-2.19,0-4.21,1.07-5.64,2.74-1.52,1.76-2.44,4.1-2.44,6.64v16.8c0,4.4,1.6,8.4,4.13,11.33,2.53,2.93,5.98,4.79,9.77,4.79h30.65c3.79,0,7.24-1.86,9.77-4.79,2.53-2.93,4.04-6.94,4.04-11.33v-10.16c0-4.4-1.52-8.4-4.04-11.33-2.53-2.93-5.98-4.69-9.77-4.69h0ZM20.29,12.03h36.46c7.16,0,13.64,3.42,18.35,8.89,4.71,5.47,7.66,12.99,7.66,21.3v10.16c0,8.3-2.95,15.92-7.66,21.4-4.71,5.47-11.2,8.89-18.35,8.89h-30.65c-7.16,0-13.72-3.42-18.44-8.89-4.71-5.47-7.66-13.09-7.66-21.4v-16.8c0-6.45,2.27-12.41,5.98-16.61,3.7-4.3,8.76-6.94,14.31-6.94h0Z" fill="#255cc0" stroke-width="0"/>
        <path d="m56.75,26.19H20.29c-2.19,0-4.21,1.07-5.64,2.74-1.52,1.76-2.44,4.1-2.44,6.64v16.8c0,4.4,1.6,8.4,4.13,11.33,2.53,2.93,5.98,4.79,9.77,4.79h30.65c3.79,0,7.24-1.86,9.77-4.79,2.53-2.93,4.04-6.94,4.04-11.33v-10.16c0-4.4-1.52-8.4-4.04-11.33-2.53-2.93-5.98-4.69-9.77-4.69h0ZM20.29,12.03h36.46c7.16,0,13.64,3.42,18.35,8.89,4.71,5.47,7.66,12.99,7.66,21.3v10.16c0,8.3-2.95,15.92-7.66,21.4-4.71,5.47-11.2,8.89-18.35,8.89h-30.65c-7.16,0-13.72-3.42-18.44-8.89-4.71-5.47-7.66-13.09-7.66-21.4v-16.8c0-6.45,2.27-12.41,5.98-16.61,3.7-4.3,8.76-6.94,14.31-6.94h0Z" mix-blend-mode="hard-light" opacity=".25" stroke-width="0"/>
        <path d="m31.58,12.03h27.15c6.61,0,12.6,3.42,16.96,8.89,4.36,5.47,7.08,12.99,7.08,21.3v10.16c0,8.3-2.72,15.92-7.08,21.4-4.36,5.47-10.35,8.89-16.96,8.89h-17.34c-4.52-.95-8.02-11.23-6.64-14.17h23.98c3.5,0,6.69-1.86,9.02-4.79,2.33-2.93,3.73-6.94,3.73-11.33v-10.16c0-4.4-1.4-8.4-3.73-11.33-2.33-2.93-5.52-4.69-9.02-4.69h-27.22c-1.73-2.17-1.6-12.07.07-14.17h0Z" mix-blend-mode="hard-light" opacity=".25" stroke-width="0"/>
        <path d="m117.77,100h-43.51c-.63,0-1.26-.12-1.85-.35C34.54,84.31,35.34,41.36,35.49,5.06c.01-2.8,2.24-5.06,4.99-5.06h154.51c2.75,0,4.98,2.26,4.99,5.06.15,36.29.95,79.24-36.93,94.58-.59.24-1.22.35-1.85.35h-43.42Z" fill="#255cc0" fill-rule="evenodd" stroke-width="0"/>
        <path d="m91.58,100h-17.32c-.63,0-1.26-.12-1.85-.35C34.54,84.31,35.34,41.36,35.49,5.06c.01-2.8,2.24-5.06,4.99-5.06h29.66s-.84.08-.86,2.99-1.68,81.29,22.32,97.01h0Z" fill-rule="evenodd" mix-blend-mode="hard-light" opacity=".25" stroke-width="0"/>
        <path d="m184.38,36.93c.17-1.69,1.6-2.95,3.28-2.87,1.68.09,2.95,1.52,2.86,3.21-.59,9.54-1.94,19-5.05,27.44-3.2,8.7-8.25,16.38-16.08,22.29-1.26,1.01-3.2.76-4.21-.59-1.01-1.35-.76-3.29.59-4.31,6.74-5.07,11.11-11.82,13.98-19.5,2.86-7.85,4.13-16.63,4.63-25.67h0Zm.42-22.46c0-1.69,1.35-3.04,3.03-3.04s3.03,1.35,3.03,3.04v.25c0,4.05.08,8.19,0,12.33,0,1.69-1.43,3.04-3.12,3.04s-3.03-1.44-2.95-3.12v-12.5h0Z" fill="#fff" mix-blend-mode="hard-light" opacity=".25" stroke-width="0"/>
      </g>
    </g>
  </g>
</svg>