<?xml version="1.0" encoding="UTF-8"?>
<svg id="desktop" xmlns="http://www.w3.org/2000/svg" viewBox="0 0 500 422">
  <path d="m206.5,422h-13c-.83,0-1.58-.11-2.12-.29s-.88-.43-.88-.71h19c0,.26-.29.49-.76.67-.55.2-1.35.33-2.23.33Z" fill="#020617" stroke-width="0"/>
  <path d="m306.5,422h-13c-1.66,0-3-.45-3-1h19c0,.55-1.34,1-3,1Z" fill="#020617" stroke-width="0"/>
  <path d="m248.48,9.36c.47.37,1.06.56,1.65.56.22,0,.44-.03.66-.08.58-.15,1.1-.49,1.46-.95.37-.47.57-1.06.57-1.66,0-.6-.2-1.18-.57-1.65-.37-.47-.89-.81-1.46-.96-.82-.21-1.7-.02-2.34.5-.65.51-1.03,1.31-1.02,2.12,0,.82.4,1.61,1.04,2.11Zm1.17-2.74c.13-.11.31-.17.49-.17.06,0,.13,0,.19.02.16.04.32.14.42.28.1.13.16.31.16.47h0c0,.17-.06.34-.17.48-.1.13-.26.23-.43.28-.22.06-.48,0-.66-.14-.18-.14-.3-.37-.3-.61,0-.23.11-.47.3-.61Z" fill="#18181b" stroke-width="0"/>
  <path d="m189,418h122v1.78c0,.68-.55,1.22-1.22,1.22h-119.55c-.68,0-1.22-.55-1.22-1.22v-1.78h0Z" fill="#94a3b8" stroke-width="0"/>
  <rect x="189" y="344" width="122" height="74" fill="#64748b" stroke-width="0"/>
  <rect x="189" y="344" width="122" height="2" fill="#111827" stroke-width="0"/>
  <path d="m488,344H12C5.37,344,0,338.63,0,332v-38h500v38c0,6.63-5.37,12-12,12Z" fill="#94a3b8" stroke-width="0"/>
  <path d="m487,13v268H13V13h474m3.77-13H9.23C4.13,0,0,4.13,0,9.23v284.77h500V9.23c0-5.1-4.13-9.23-9.23-9.23h0Z" fill="#020617" stroke-width="0"/>
  <path d="m250.24,5.71c.42,0,.77.34.77.75s-.34.75-.77.75-.77-.34-.77-.75.34-.75.77-.75m0-1.25c-1.11,0-2.02.9-2.02,2s.9,2,2.02,2,2.02-.9,2.02-2-.9-2-2.02-2h0Z" fill="#1e293b" stroke-width="0"/>
</svg>