<?xml version="1.0" encoding="UTF-8"?>
<svg xmlns="http://www.w3.org/2000/svg" viewBox="0 0 2400.36 230.75">
  <g isolation="isolate">
    <g id="Layer_26" data-name="Layer 26">
      <g>
        <polygon points="1556.49 105.28 843.87 105.28 127.05 105.28 127.05 230.75 843.87 230.75 1556.49 230.75 2273.31 230.75 2273.31 105.28 1556.49 105.28" fill="#334155" fill-rule="evenodd" stroke-width="0"/>
        <rect y="0" width="2400.36" height="45.68" fill="#ffbe47" stroke-width="0"/>
        <rect y="32.99" width="2400.18" height="12.68" fill="#fca400" stroke-width="0"/>
        <rect x="50.18" y="45.78" width="76.87" height="184.97" fill="#94a3b8" stroke-width="0"/>
        <path d="m148.28,173.94c3.27,0,5.94-2.66,5.94-5.93s-2.66-5.94-5.94-5.94-5.93,2.66-5.93,5.94,2.66,5.93,5.93,5.93h0Z" fill="#eee" fill-rule="evenodd" stroke-width="0"/>
        <path d="m148.28,200.9c3.27,0,5.94-2.66,5.94-5.94s-2.66-5.93-5.94-5.93-5.93,2.66-5.93,5.93,2.66,5.94,5.93,5.94h0Z" fill="#eee" fill-rule="evenodd" stroke-width="0"/>
        <rect x="2273.31" y="45.78" width="76.87" height="184.97" fill="#94a3b8" stroke-width="0"/>
        <path d="m2252.08,146.99c-3.27,0-5.94-2.66-5.94-5.93s2.66-5.94,5.94-5.94c3.26,0,5.93,2.66,5.93,5.94s-2.66,5.93-5.93,5.93h0Z" fill="#eee" fill-rule="evenodd" stroke-width="0"/>
        <path d="m2252.08,173.94c-3.27,0-5.94-2.66-5.94-5.93s2.66-5.94,5.94-5.94,5.93,2.66,5.93,5.94-2.66,5.93-5.93,5.93h0Z" fill="#eee" fill-rule="evenodd" stroke-width="0"/>
        <path d="m2252.08,200.9c-3.27,0-5.94-2.66-5.94-5.94s2.66-5.93,5.94-5.93c3.26,0,5.93,2.66,5.93,5.93s-2.66,5.94-5.93,5.94h0Z" fill="#eee" fill-rule="evenodd" stroke-width="0"/>
        <rect x="2273.31" y="45.78" width="76.87" height="18.17" fill="#64748b" stroke-width="0"/>
        <rect x="50.18" y="45.68" width="76.87" height="18.17" fill="#64748b" stroke-width="0"/>
      </g>
      <path d="m0,0v45.68h50.18v185.07h76.87s2223.13,0,2223.13,0V45.78l50.18-.1V0m-127.05,63.94v41.34H127.05v-59.61l2146.26.1v18.17Z" fill="#111827" mix-blend-mode="multiply" opacity=".49" stroke-width="0"/>
    </g>
  </g>
</svg>