<?xml version="1.0" encoding="UTF-8"?>
<svg xmlns="http://www.w3.org/2000/svg" viewBox="0 0 885 745">
  <g isolation="isolate">
    <g id="desktop-dark">
      <g>
        <rect x="335" y="610" width="215" height="135" fill="#64748b" stroke-width="0"/>
        <rect x="335" y="610" width="215" height="5" mix-blend-mode="hard-light" opacity=".85" stroke-width="0"/>
        <path d="m872.89,610H12.11C5.42,610,0,604.58,0,597.89v-77.89h885v77.89c0,6.69-5.42,12.11-12.11,12.11Z" fill="#94a3b8" stroke-width="0"/>
        <path d="m868.66,0H16.34C7.32,0,0,7.31,0,16.33v503.67h885V16.33C885,7.31,877.68,0,868.66,0h0Z" fill="#020617" stroke-width="0"/>
        <path d="m442.5,10.08c.73,0,1.33.59,1.33,1.31s-.6,1.31-1.33,1.31-1.33-.59-1.33-1.31.6-1.31,1.33-1.31m0-2.19c-1.93,0-3.5,1.57-3.5,3.5s1.57,3.5,3.5,3.5,3.5-1.57,3.5-3.5-1.57-3.5-3.5-3.5h0Z" fill="#1e293b" stroke-width="0"/>
        <path d="m439.81,16.57c.84.65,1.88,1,2.92,1,.39,0,.78-.05,1.16-.15,1.03-.26,1.95-.86,2.59-1.68.66-.83,1.02-1.87,1.01-2.93,0-1.06-.36-2.1-1-2.92-.65-.83-1.57-1.44-2.58-1.69-1.45-.37-3-.04-4.14.89-1.14.9-1.81,2.31-1.8,3.76,0,1.46.7,2.86,1.84,3.73Zm2.07-4.84c.23-.19.55-.29.86-.29.11,0,.22.01.33.04.29.07.56.25.75.49.18.24.29.54.29.84h0c0,.31-.1.61-.3.85-.18.24-.45.41-.76.49-.39.1-.84,0-1.18-.25-.32-.24-.53-.66-.53-1.08,0-.4.19-.82.53-1.09Z" fill="#18181b" stroke-width="0"/>
      </g>
      <g>
        <g>
          <path d="m240.6,740h-18.11v-2.38c0-.31,1.18-.57,2.66-.57h12.78c1.47,0,2.66.26,2.66.57v2.38Z" fill="#94a3b8" fill-rule="evenodd" stroke-width="0"/>
          <path d="m260.45,740h-18.11v-2.38c0-.31,1.18-.57,2.66-.57h12.78c1.47,0,2.66.26,2.66.57v2.38Z" fill="#94a3b8" fill-rule="evenodd" stroke-width="0"/>
          <path d="m280.29,740h-18.11v-2.38c0-.31,1.19-.57,2.66-.57h12.78c1.47,0,2.66.26,2.66.57v2.38Z" fill="#94a3b8" fill-rule="evenodd" stroke-width="0"/>
          <path d="m452.6,740h-18.11v-2.38c0-.31,1.18-.57,2.66-.57h12.78c1.47,0,2.66.26,2.66.57v2.38Z" fill="#94a3b8" fill-rule="evenodd" stroke-width="0"/>
          <path d="m472.45,740h-18.11v-2.38c0-.31,1.19-.57,2.66-.57h12.78c1.47,0,2.66.26,2.66.57v2.38Z" fill="#94a3b8" fill-rule="evenodd" stroke-width="0"/>
          <path d="m492.29,740h-18.11v-2.38c0-.31,1.19-.57,2.66-.57h12.78c1.47,0,2.66.26,2.66.57v2.38Z" fill="#94a3b8" fill-rule="evenodd" stroke-width="0"/>
          <path d="m512.45,740h-18.1v-2.38c0-.31,1.19-.57,2.66-.57h12.78c1.47,0,2.65.26,2.65.57v2.38Z" fill="#94a3b8" fill-rule="evenodd" stroke-width="0"/>
          <path d="m532.62,740h-18.1v-2.38c0-.31,1.19-.57,2.65-.57h12.79c1.47,0,2.65.26,2.65.57v2.38Z" fill="#94a3b8" fill-rule="evenodd" stroke-width="0"/>
          <path d="m552.79,740h-18.11v-2.38c0-.31,1.19-.57,2.66-.57h12.79c1.46,0,2.65.26,2.65.57v2.38Z" fill="#94a3b8" fill-rule="evenodd" stroke-width="0"/>
          <path d="m572.96,740h-18.11v-2.38c0-.31,1.19-.57,2.66-.57h12.78c1.47,0,2.66.26,2.66.57v2.38Z" fill="#94a3b8" fill-rule="evenodd" stroke-width="0"/>
          <path d="m604.65,740h-18.11v-2.38c0-.31,1.19-.57,2.66-.57h12.79c1.46,0,2.65.26,2.65.57v2.38Z" fill="#94a3b8" fill-rule="evenodd" stroke-width="0"/>
          <path d="m623.92,740h-18.09v-2.38c0-.31,1.18-.57,2.65-.57h12.79c1.47,0,2.64.26,2.64.57v2.38Z" fill="#94a3b8" fill-rule="evenodd" stroke-width="0"/>
          <path d="m643.22,740h-18.11v-2.38c0-.31,1.19-.57,2.67-.57h12.77c1.47,0,2.66.26,2.66.57v2.38Z" fill="#94a3b8" fill-rule="evenodd" stroke-width="0"/>
          <path d="m662.49,740h-18.1v-2.38c0-.31,1.19-.57,2.65-.57h12.79c1.47,0,2.65.26,2.65.57v2.38Z" fill="#94a3b8" fill-rule="evenodd" stroke-width="0"/>
          <path d="m432.02,739.95l-149.99.05v-2.38c0-.32,1.19-.57,2.66-.57l144.66-.05c.69,0,1.38.06,1.88.17.5.11.79.25.79.41v2.38Z" fill="#94a3b8" fill-rule="evenodd" stroke-width="0"/>
        </g>
        <rect x="219.99" y="740" width="445" height="5" rx="1.11" ry="1.11" fill="#cbd5e1" stroke-width="0"/>
      </g>
      <g>
        <path d="m782.5,741.22c-.86-9.01-20.68-16.22-45-16.22s-44.14,7.21-45,16.22h90Z" fill="#cbd5e1" stroke-width="0"/>
        <rect x="692.5" y="741.22" width="89.81" height="3.78" fill="#94a3b8" stroke-width="0"/>
      </g>
      <path d="m868.66,0H16.34C7.32,0,0,7.31,0,16.33v581.57c0,6.69,5.42,12.11,12.11,12.11h322.89v127.03l-50.31.02c-1.47,0-2.66.25-2.66.57v2.38l52.97-.02v.02h-54.71v-2.38c0-.31-1.19-.57-2.66-.57h-12.78c-1.47,0-2.66.26-2.66.57v2.38h-1.74v-2.38c0-.31-1.19-.57-2.66-.57h-12.78c-1.48,0-2.66.26-2.66.57v2.38h-1.74v-2.38c0-.31-1.19-.57-2.66-.57h-12.78c-1.48,0-2.66.26-2.66.57v2.38h-1.39c-.61,0-1.11.5-1.11,1.11v2.78c0,.61.5,1.11,1.11,1.11h561.21v-3.78h.19c-.86-9.01-20.68-16.22-45-16.22s-44.14,7.21-45,16.22v3.78h-28.62c.61,0,1.11-.5,1.11-1.11v-2.78c0-.61-.5-1.11-1.11-1.11h-1.39v-2.38c0-.31-1.18-.57-2.65-.57h-12.79c-1.46,0-2.65.26-2.65.57v2.38h-1.18v-2.38c0-.31-1.19-.57-2.66-.57h-12.77c-1.48,0-2.67.26-2.67.57v2.38h-1.19v-2.38c0-.31-1.17-.57-2.64-.57h-12.79c-1.47,0-2.65.26-2.65.57v2.38h-1.18v-2.38c0-.31-1.19-.57-2.65-.57h-12.79c-1.47,0-2.66.26-2.66.57v2.38h-13.58v-2.38c0-.31-1.19-.57-2.66-.57h-12.78c-1.47,0-2.66.26-2.66.57v2.38h-2.06v-2.38c0-.31-1.19-.57-2.65-.57h-.14v-127.05h323.06c6.59,0,11.94-5.38,11.94-12.03V16.33C885,7.31,877.68,0,868.66,0Z" fill="#111827" mix-blend-mode="multiply" opacity=".5" stroke-width="0"/>
    </g>
  </g>
</svg>