<?xml version="1.0" encoding="UTF-8"?>
<svg xmlns="http://www.w3.org/2000/svg" viewBox="0 0 2400 235">
  <g isolation="isolate">
    <g id="desk-dark">
      <g>
        <polyline points="0 0 0 45 2400 45 2400 0" fill="#ffc800" fill-rule="evenodd" stroke-width="0"/>
        <rect y="35" width="2400" height="10" mix-blend-mode="multiply" opacity=".4" stroke-width="0"/>
        <g>
          <rect x="52" y="45" width="75" height="190" fill="#94a3b8" stroke-width="0"/>
          <rect x="52" y="45" width="75" height="10" mix-blend-mode="hard-light" stroke-width="0"/>
        </g>
        <g>
          <rect x="2273" y="45" width="75" height="190" fill="#94a3b8" stroke-width="0"/>
          <rect x="2273" y="45" width="75" height="10" mix-blend-mode="hard-light" stroke-width="0"/>
        </g>
        <g>
          <polygon points="1556.26 110 843.74 110 127 110 127 235 843.74 235 1556.26 235 2273 235 2273 110 1556.26 110" fill="#334155" fill-rule="evenodd" stroke-width="0"/>
          <g>
            <path d="m152.99,151.54c3.31,0,6.01-2.7,6.01-5.99s-2.7-6.01-6.01-6.01-5.99,2.7-5.99,6.01,2.7,5.99,5.99,5.99h0Z" fill="#eee" fill-rule="evenodd" stroke-width="0"/>
            <path d="m152.99,178.49c3.31,0,6.01-2.7,6.01-5.99s-2.7-6.01-6.01-6.01-5.99,2.7-5.99,6.01,2.7,5.99,5.99,5.99h0Z" fill="#eee" fill-rule="evenodd" stroke-width="0"/>
            <path d="m152.99,205.46c3.31,0,6.01-2.7,6.01-6.01s-2.7-5.99-6.01-5.99-5.99,2.7-5.99,5.99,2.7,6.01,5.99,6.01h0Z" fill="#eee" fill-rule="evenodd" stroke-width="0"/>
          </g>
          <g>
            <path d="m2246.99,151.54c3.31,0,6.01-2.7,6.01-5.99s-2.7-6.01-6.01-6.01-5.99,2.7-5.99,6.01,2.7,5.99,5.99,5.99h0Z" fill="#eee" fill-rule="evenodd" stroke-width="0"/>
            <path d="m2246.99,178.49c3.31,0,6.01-2.7,6.01-5.99s-2.7-6.01-6.01-6.01-5.99,2.7-5.99,6.01,2.7,5.99,5.99,5.99h0Z" fill="#eee" fill-rule="evenodd" stroke-width="0"/>
            <path d="m2246.99,205.46c3.31,0,6.01-2.7,6.01-6.01s-2.7-5.99-6.01-5.99-5.99,2.7-5.99,5.99,2.7,6.01,5.99,6.01h0Z" fill="#eee" fill-rule="evenodd" stroke-width="0"/>
          </g>
        </g>
      </g>
      <path d="m0,0v45h52v190h2296V45h52V0m-127,110H127V45h2146v65Z" fill="#111827" mix-blend-mode="multiply" opacity=".5" stroke-width="0"/>
    </g>
  </g>
</svg>