<?xml version="1.0" encoding="UTF-8"?>
<svg id="Desktop" xmlns="http://www.w3.org/2000/svg" viewBox="0 0 1920 1080">
	<polyline points="1920 0 1920 1080 0 1080 0 0 1920 0" class="bg-white dark:bg-gray-300" stroke-width="0" />
	<rect width="1920" height="600" fill="#d4d4d4" stroke-width="0" />
	<rect x="244.32" y="20" width="300" height="100" class="bg-white dark:bg-gray-300" stroke-width="0" />
	<g>
		<rect x="1600" y="60" width="80" height="20" class="bg-white dark:bg-gray-300" stroke-width="0" />
		<rect x="1500" y="60" width="80" height="20" class="bg-white dark:bg-gray-300" stroke-width="0" />
		<rect x="1400" y="60" width="80" height="20" class="bg-white dark:bg-gray-300" stroke-width="0" />
		<rect x="1300" y="60" width="80" height="20" class="bg-white dark:bg-gray-300" stroke-width="0" />
		<rect x="1200" y="60" width="80" height="20" class="bg-white dark:bg-gray-300" stroke-width="0" />
		<rect x="1100" y="60" width="80" height="20" class="bg-white dark:bg-gray-300" stroke-width="0" />
	</g>
	<g>
		<rect x="472.5" y="200" width="975" height="70" class="bg-white dark:bg-gray-300" stroke-width="0" />
		<rect x="527.5" y="300" width="865" height="70" class="bg-white dark:bg-gray-300" stroke-width="0" />
	</g>
	<rect x="810" y="430" width="300" height="60" class="bg-gray-100 dark:bg-gray-400" stroke-width="0" />
	<g>
		<g>
			<path d="m610.56,708.21h330v220h-330v-220Z" fill="#d4d4d4" stroke-width="0" />
			<path d="m805,792.66l-63.16,63.16-29.45-29.45-101.84,101.84h330l-135.56-135.55Z" class="bg-white dark:bg-gray-300" isolation="isolate" opacity=".68" stroke-width="0" />
			<circle cx="659.8" cy="761.27" r="23.38" class="bg-white dark:bg-gray-300" isolation="isolate" opacity=".68" stroke-width="0" />
		</g>
		<g>
			<rect x="610.56" y="954.07" width="330" height="40.54" fill="#d4d4d4" stroke-width="0" />
			<rect x="623.95" y="1014.05" width="303.21" height="40.54" fill="#d4d4d4" stroke-width="0" />
		</g>
	</g>
	<g>
		<g>
			<path d="m979.44,708.21h330v220h-330v-220Z" fill="#d4d4d4" stroke-width="0" />
			<path d="m1173.88,792.66l-63.16,63.16-29.45-29.45-101.84,101.84h330l-135.56-135.55Z" class="bg-white dark:bg-gray-300" isolation="isolate" opacity=".68" stroke-width="0" />
			<circle cx="1028.69" cy="761.27" r="23.38" class="bg-white dark:bg-gray-300" isolation="isolate" opacity=".68" stroke-width="0" />
		</g>
		<g>
			<rect x="979.44" y="954.07" width="330" height="40.54" fill="#d4d4d4" stroke-width="0" />
			<rect x="992.84" y="1014.05" width="303.21" height="40.54" fill="#d4d4d4" stroke-width="0" />
		</g>
	</g>
	<g>
		<g>
			<path d="m1348.33,708.21h330v220h-330v-220Z" fill="#d4d4d4" stroke-width="0" />
			<path d="m1542.77,792.66l-63.16,63.16-29.45-29.45-101.84,101.84h330l-135.56-135.55Z" class="bg-white dark:bg-gray-300" isolation="isolate" opacity=".68" stroke-width="0" />
			<circle cx="1397.57" cy="761.27" r="23.38" class="bg-white dark:bg-gray-300" isolation="isolate" opacity=".68" stroke-width="0" />
		</g>
		<g>
			<rect x="1348.33" y="954.07" width="330" height="40.54" fill="#d4d4d4" stroke-width="0" />
			<rect x="1361.72" y="1014.05" width="303.21" height="40.54" fill="#d4d4d4" stroke-width="0" />
		</g>
	</g>
	<g>
		<g>
			<path d="m241.67,708.21h330v220H241.67v-220Z" fill="#d4d4d4" stroke-width="0" />
			<path d="m436.11,792.66l-63.16,63.16-29.45-29.45-101.84,101.84h330l-135.56-135.55Z" class="bg-white dark:bg-gray-300" isolation="isolate" opacity=".68" stroke-width="0" />
			<circle cx="290.92" cy="761.27" r="23.38" class="bg-white dark:bg-gray-300" isolation="isolate" opacity=".68" stroke-width="0" />
		</g>
		<g>
			<rect x="241.67" y="954.07" width="330" height="40.54" fill="#d4d4d4" stroke-width="0" />
			<rect x="255.07" y="1014.05" width="303.21" height="40.54" fill="#d4d4d4" stroke-width="0" />
		</g>
	</g>
</svg>
