<?xml version="1.0" encoding="UTF-8"?>
<svg xmlns="http://www.w3.org/2000/svg" viewBox="0 0 884.6 747.03">
  <g isolation="isolate">
    <g id="Layer_28" data-name="Layer 28">
      <g>
        <g>
          <path d="m868.27,0H16.33C7.31,0,0,7.31,0,16.33v503.81h884.6V16.33C884.6,7.31,877.29,0,868.27,0h0Z" fill="#030712" stroke-width="0"/>
          <path d="m365.35,746.6h-23.01c-1.46,0-2.79-.2-3.75-.52s-1.55-.76-1.55-1.25h33.61c0,.45-.51.87-1.35,1.18-.97.36-2.38.59-3.95.59Z" fill="#030712" stroke-width="0"/>
          <path d="m542.27,746.6h-23.01c-2.93,0-5.3-.79-5.3-1.77h33.61c0,.98-2.37,1.77-5.3,1.77Z" fill="#030712" stroke-width="0"/>
          <path d="m439.61,16.57c.84.65,1.88,1,2.92,1,.39,0,.78-.05,1.16-.15,1.03-.26,1.95-.86,2.59-1.68.66-.83,1.02-1.87,1.01-2.93,0-1.06-.36-2.1-1-2.92-.65-.83-1.57-1.44-2.58-1.69-1.45-.37-3-.04-4.14.89-1.14.9-1.81,2.31-1.8,3.76,0,1.46.7,2.86,1.84,3.73Zm2.07-4.84c.23-.19.55-.29.86-.29.11,0,.22.01.33.04.29.07.56.25.75.49.18.24.29.54.29.84h0c0,.31-.1.61-.3.85-.18.24-.45.41-.76.49-.39.1-.84,0-1.18-.25-.32-.24-.53-.66-.53-1.08,0-.4.19-.82.53-1.09Z" fill="#1e293b" stroke-width="0"/>
          <path d="m334.38,734.22h215.84v8.88c0,.96-.78,1.73-1.73,1.73h-212.38c-.96,0-1.73-.78-1.73-1.73v-8.88h0Z" fill="#6b7280" stroke-width="0"/>
          <rect x="334.38" y="608.61" width="215.84" height="125.61" fill="#64748b" stroke-width="0"/>
          <rect x="334.38" y="608.61" width="215.84" height="3.54" fill="#020617" stroke-width="0"/>
          <path d="m872.6,608.61H12C5.37,608.61,0,603.23,0,596.61v-76.46h884.6v76.46c0,6.63-5.37,12-12,12Z" fill="#94a3b8" stroke-width="0"/>
        </g>
        <g>
          <path d="m244.93,737.29h-17.29v-6.21c0-.82,1.13-1.49,2.54-1.49h12.21c1.4,0,2.54.67,2.54,1.49v6.21Z" fill="#94a3b8" fill-rule="evenodd" stroke-width="0"/>
          <path d="m263.88,737.29h-17.29v-6.21c0-.82,1.13-1.49,2.54-1.49h12.21c1.4,0,2.54.67,2.54,1.49v6.21Z" fill="#94a3b8" fill-rule="evenodd" stroke-width="0"/>
          <path d="m282.83,737.29h-17.29v-6.21c0-.82,1.14-1.49,2.54-1.49h12.21c1.4,0,2.54.67,2.54,1.49v6.21Z" fill="#94a3b8" fill-rule="evenodd" stroke-width="0"/>
          <path d="m447.36,737.29h-17.29v-6.21c0-.82,1.13-1.49,2.54-1.49h12.21c1.4,0,2.54.67,2.54,1.49v6.21Z" fill="#94a3b8" fill-rule="evenodd" stroke-width="0"/>
          <path d="m466.31,737.29h-17.29v-6.21c0-.82,1.14-1.49,2.54-1.49h12.21c1.4,0,2.54.67,2.54,1.49v6.21Z" fill="#94a3b8" fill-rule="evenodd" stroke-width="0"/>
          <path d="m485.26,737.29h-17.29v-6.21c0-.82,1.14-1.49,2.54-1.49h12.21c1.4,0,2.54.67,2.54,1.49v6.21Z" fill="#94a3b8" fill-rule="evenodd" stroke-width="0"/>
          <path d="m504.51,737.29h-17.28v-6.21c0-.82,1.14-1.49,2.54-1.49h12.21c1.4,0,2.53.67,2.53,1.49v6.21Z" fill="#94a3b8" fill-rule="evenodd" stroke-width="0"/>
          <path d="m523.76,737.29h-17.28v-6.21c0-.82,1.14-1.49,2.53-1.49h12.22c1.4,0,2.53.67,2.53,1.49v6.21Z" fill="#94a3b8" fill-rule="evenodd" stroke-width="0"/>
          <path d="m543.02,737.29h-17.29v-6.21c0-.82,1.14-1.49,2.54-1.49h12.22c1.39,0,2.53.67,2.53,1.49v6.21Z" fill="#94a3b8" fill-rule="evenodd" stroke-width="0"/>
          <path d="m562.28,737.29h-17.29v-6.21c0-.82,1.14-1.49,2.54-1.49h12.21c1.4,0,2.54.67,2.54,1.49v6.21Z" fill="#94a3b8" fill-rule="evenodd" stroke-width="0"/>
          <path d="m592.54,737.29h-17.29v-6.21c0-.82,1.14-1.49,2.54-1.49h12.22c1.39,0,2.53.67,2.53,1.49v6.21Z" fill="#94a3b8" fill-rule="evenodd" stroke-width="0"/>
          <path d="m610.94,737.29h-17.27v-6.21c0-.82,1.13-1.49,2.53-1.49h12.22c1.4,0,2.52.67,2.52,1.49v6.21Z" fill="#94a3b8" fill-rule="evenodd" stroke-width="0"/>
          <path d="m629.37,737.29h-17.29v-6.21c0-.82,1.14-1.49,2.55-1.49h12.19c1.4,0,2.54.67,2.54,1.49v6.21Z" fill="#94a3b8" fill-rule="evenodd" stroke-width="0"/>
          <path d="m647.77,737.29h-17.28v-6.21c0-.82,1.14-1.49,2.53-1.49h12.22c1.4,0,2.53.67,2.53,1.49v6.21Z" fill="#94a3b8" fill-rule="evenodd" stroke-width="0"/>
          <path d="m427.7,737.16l-143.21.13v-6.21c0-.83,1.14-1.49,2.54-1.49l138.13-.13c.66,0,1.32.17,1.79.43.48.29.75.66.75,1.06v6.21Z" fill="#94a3b8" fill-rule="evenodd" stroke-width="0"/>
          <path d="m660.16,742.32c0,2.56-2.78,4.64-6.19,4.64H221.49c-3.43,0-6.19-2.08-6.19-4.64v-4.22c0-2.58,2.76-4.65,6.19-4.65h432.47c3.42,0,6.19,2.08,6.19,4.65v4.22Z" fill="#cbd5e1" fill-rule="evenodd" stroke-width="0"/>
          <path d="m215.3,741.2v1.12c0,2.56,2.76,4.64,6.19,4.64h432.47c3.42,0,6.19-2.08,6.19-4.64v-1.12H215.3Z" fill="#94a3b8" fill-rule="evenodd" stroke-width="0"/>
        </g>
        <g>
          <path d="m817,742.48c-.91-10.82-21.8-19.49-47.45-19.49s-46.54,8.67-47.45,19.49h94.9Z" fill="#cbd5e1" stroke-width="0"/>
          <rect x="722.1" y="742.48" width="94.7" height="4.54" fill="#94a3b8" stroke-width="0"/>
        </g>
        <path d="m816.8,746.96v-4.48h.2c-.91-10.82-21.8-19.49-47.45-19.49s-46.54,8.67-47.45,19.49v4.48h-68.14c3.42,0,6.19-2.08,6.19-4.64v-4.22c0-2.58-2.77-4.65-6.19-4.65h-6.19v-2.37c0-.82-1.13-1.49-2.53-1.49h-12.22c-1.39,0-2.53.67-2.53,1.49v2.37h-1.13v-2.37c0-.82-1.14-1.49-2.54-1.49h-12.19c-1.42,0-2.55.67-2.55,1.49v2.37h-1.14v-2.37c0-.82-1.12-1.49-2.52-1.49h-12.22c-1.4,0-2.53.67-2.53,1.49v2.37h-1.13v-2.37c0-.82-1.14-1.49-2.53-1.49h-12.22c-1.4,0-2.54.67-2.54,1.49v2.37h-12.97v-2.37c0-.82-1.14-1.49-2.54-1.49h-9.52v-120.98h322.38c6.63,0,12-5.37,12-12V16.33C884.6,7.31,877.29,0,868.27,0H16.33C7.31,0,0,7.31,0,16.33v580.27c0,6.63,5.37,12,12,12h322.38v120.93l-47.35.05c-1.4,0-2.54.66-2.54,1.49v2.37h-1.66v-2.37c0-.82-1.14-1.49-2.54-1.49h-12.21c-1.4,0-2.54.67-2.54,1.49v2.37h-1.66v-2.37c0-.82-1.14-1.49-2.54-1.49h-12.21c-1.42,0-2.54.67-2.54,1.49v2.37h-1.66v-2.37c0-.82-1.14-1.49-2.54-1.49h-12.21c-1.42,0-2.54.67-2.54,1.49v2.37h-6.15c-3.43,0-6.19,2.08-6.19,4.65v4.22c0,2.56,2.76,4.64,6.19,4.64h595.31Z" fill="#111827" mix-blend-mode="multiply" opacity=".49" stroke-width="0"/>
      </g>
    </g>
  </g>
</svg>