<?xml version="1.0" encoding="UTF-8"?>
<svg xmlns="http://www.w3.org/2000/svg" xmlns:xlink="http://www.w3.org/1999/xlink" viewBox="0 0 1920 1080">
  <defs>
    <linearGradient id="linear-gradient" x1="-4140.46" y1="2938.23" x2="-4218.52" y2="2758.09" gradientTransform="translate(6778.2 225.98) rotate(34.38)" gradientUnits="userSpaceOnUse">
      <stop offset="0" stop-color="#774f3f"/>
      <stop offset="1" stop-color="#dda780"/>
    </linearGradient>
    <linearGradient id="linear-gradient-2" x1="-4194.15" y1="2802.54" x2="-4143.8" y2="2911.09" gradientTransform="translate(6778.2 225.98) rotate(34.38)" gradientUnits="userSpaceOnUse">
      <stop offset="0" stop-color="#774f3f"/>
      <stop offset="1" stop-color="#563021"/>
    </linearGradient>
    <linearGradient id="linear-gradient-3" x1="-4214.24" y1="2788.2" x2="-4201.81" y2="2788.2" xlink:href="#linear-gradient-2"/>
    <linearGradient id="linear-gradient-4" x1="-4263.64" y1="2818.36" x2="-4251.21" y2="2818.36" xlink:href="#linear-gradient-2"/>
    <linearGradient id="linear-gradient-5" x1="-4244.82" y1="2784.09" x2="-4236.54" y2="2784.09" xlink:href="#linear-gradient-2"/>
    <linearGradient id="linear-gradient-6" x1="-4195.31" y1="2757.35" x2="-4187.02" y2="2757.35" xlink:href="#linear-gradient-2"/>
    <linearGradient id="linear-gradient-7" x1="-4225.02" y1="2828.78" x2="-4214.66" y2="2828.78" xlink:href="#linear-gradient-2"/>
    <linearGradient id="linear-gradient-8" x1="-4233.31" y1="2842.49" x2="-4227.09" y2="2842.49" xlink:href="#linear-gradient-2"/>
    <linearGradient id="linear-gradient-9" x1="-4227.1" y1="2818.35" x2="-4220.89" y2="2818.35" xlink:href="#linear-gradient-2"/>
    <linearGradient id="linear-gradient-10" x1="-4198.41" y1="2783.06" x2="-4192.2" y2="2783.06" xlink:href="#linear-gradient-2"/>
    <linearGradient id="linear-gradient-11" x1="-4270.32" y1="2831.82" x2="-4264.11" y2="2831.82" xlink:href="#linear-gradient-2"/>
    <linearGradient id="linear-gradient-12" x1="-4231.25" y1="2773.47" x2="-4225.03" y2="2773.47" xlink:href="#linear-gradient-2"/>
    <linearGradient id="linear-gradient-13" x1="-4178.29" y1="2761.49" x2="-4172.08" y2="2761.49" xlink:href="#linear-gradient-2"/>
    <linearGradient id="linear-gradient-14" x1="-4265.14" y1="2868.27" x2="-4258.93" y2="2868.27" xlink:href="#linear-gradient-2"/>
    <linearGradient id="linear-gradient-15" x1="-4256.07" y1="2861.45" x2="-4254" y2="2861.45" xlink:href="#linear-gradient-2"/>
    <linearGradient id="linear-gradient-16" x1="-4263.07" y1="2881.74" x2="-4261" y2="2881.74" xlink:href="#linear-gradient-2"/>
    <linearGradient id="linear-gradient-17" x1="-4262.03" y1="2854.58" x2="-4259.96" y2="2854.58" xlink:href="#linear-gradient-2"/>
    <linearGradient id="linear-gradient-18" x1="-4243.77" y1="2848.64" x2="-4239.63" y2="2848.64" xlink:href="#linear-gradient-2"/>
    <linearGradient id="linear-gradient-19" x1="-4256.54" y1="2831.82" x2="-4254.46" y2="2831.82" xlink:href="#linear-gradient-2"/>
    <linearGradient id="linear-gradient-20" x1="-4271.35" y1="2826.71" x2="-4269.28" y2="2826.71" xlink:href="#linear-gradient-2"/>
    <linearGradient id="linear-gradient-21" x1="-4273.43" y1="2848.64" x2="-4271.36" y2="2848.64" xlink:href="#linear-gradient-2"/>
    <linearGradient id="linear-gradient-22" x1="-4183.93" y1="2752.17" x2="-4181.85" y2="2752.17" xlink:href="#linear-gradient-2"/>
    <linearGradient id="linear-gradient-23" x1="-4203.88" y1="2760.45" x2="-4201.81" y2="2760.45" xlink:href="#linear-gradient-2"/>
    <linearGradient id="linear-gradient-24" x1="-4250" y1="2824.57" x2="-4245.86" y2="2824.57" xlink:href="#linear-gradient-2"/>
    <linearGradient id="linear-gradient-25" x1="-4233.31" y1="2819.39" x2="-4231.24" y2="2819.39" xlink:href="#linear-gradient-2"/>
    <linearGradient id="linear-gradient-26" x1="-4228.13" y1="2801.93" x2="-4223.99" y2="2801.93" xlink:href="#linear-gradient-2"/>
    <linearGradient id="linear-gradient-27" x1="-4250" y1="2787.2" x2="-4247.93" y2="2787.2" xlink:href="#linear-gradient-2"/>
    <linearGradient id="linear-gradient-28" x1="-4254.46" y1="2842.49" x2="-4252.39" y2="2842.49" xlink:href="#linear-gradient-2"/>
    <linearGradient id="linear-gradient-29" x1="-4241.7" y1="2839.38" x2="-4239.63" y2="2839.38" xlink:href="#linear-gradient-2"/>
    <linearGradient id="linear-gradient-30" x1="-4173.11" y1="2771.24" x2="-4171.04" y2="2771.24" xlink:href="#linear-gradient-2"/>
    <linearGradient id="linear-gradient-31" x1="-4201.81" y1="2775.92" x2="-4199.73" y2="2775.92" xlink:href="#linear-gradient-2"/>
    <linearGradient id="linear-gradient-32" x1="-4209.49" y1="2769.68" x2="-4207.42" y2="2769.68" xlink:href="#linear-gradient-2"/>
    <linearGradient id="linear-gradient-33" x1="-4171.35" y1="2756.31" x2="-4169.28" y2="2756.31" xlink:href="#linear-gradient-2"/>
    <linearGradient id="linear-gradient-34" x1="-4192.2" y1="2775.92" x2="-4190.13" y2="2775.92" xlink:href="#linear-gradient-2"/>
    <linearGradient id="linear-gradient-35" x1="-4224" y1="2764.6" x2="-4221.92" y2="2764.6" xlink:href="#linear-gradient-2"/>
    <linearGradient id="linear-gradient-36" x1="-4159.76" y1="2758.38" x2="-4157.68" y2="2758.38" xlink:href="#linear-gradient-2"/>
    <linearGradient id="linear-gradient-37" x1="-4248.97" y1="2810.07" x2="-4246.89" y2="2810.07" xlink:href="#linear-gradient-2"/>
    <linearGradient id="linear-gradient-38" x1="-4252.25" y1="2799.89" x2="-4250.18" y2="2799.89" xlink:href="#linear-gradient-2"/>
    <linearGradient id="linear-gradient-39" x1="-4235.38" y1="2800.93" x2="-4233.31" y2="2800.93" xlink:href="#linear-gradient-2"/>
    <linearGradient id="linear-gradient-40" x1="-4222.96" y1="2784.09" x2="-4220.89" y2="2784.09" xlink:href="#linear-gradient-2"/>
    <linearGradient id="linear-gradient-41" x1="-4238.6" y1="2773.47" x2="-4236.53" y2="2773.47" xlink:href="#linear-gradient-2"/>
    <linearGradient id="linear-gradient-42" x1="-4218.82" y1="2794.41" x2="-4216.74" y2="2794.41" xlink:href="#linear-gradient-2"/>
    <linearGradient id="linear-gradient-43" x1="-4244.73" y1="2799.85" x2="-4240.59" y2="2799.85" xlink:href="#linear-gradient-2"/>
    <linearGradient id="linear-gradient-44" x1="-4234.35" y1="2788.24" x2="-4230.2" y2="2788.24" xlink:href="#linear-gradient-2"/>
    <linearGradient id="linear-gradient-45" x1="-4232.27" y1="2825.67" x2="-4228.13" y2="2825.67" xlink:href="#linear-gradient-2"/>
    <linearGradient id="linear-gradient-46" x1="-4212.6" y1="2801.93" x2="-4208.46" y2="2801.93" xlink:href="#linear-gradient-2"/>
    <linearGradient id="linear-gradient-47" x1="-4260.22" y1="2803.85" x2="-4254" y2="2803.85" xlink:href="#linear-gradient-2"/>
    <linearGradient id="linear-gradient-48" x1="-4269.29" y1="2812.14" x2="-4265.14" y2="2812.14" xlink:href="#linear-gradient-2"/>
    <linearGradient id="linear-gradient-49" x1="-4273.43" y1="2861.45" x2="-4269.29" y2="2861.45" xlink:href="#linear-gradient-2"/>
    <linearGradient id="linear-gradient-50" x1="-4267.21" y1="2845.32" x2="-4263.07" y2="2845.32" xlink:href="#linear-gradient-2"/>
    <linearGradient id="linear-gradient-51" x1="-4214.67" y1="2776.95" x2="-4210.53" y2="2776.95" xlink:href="#linear-gradient-2"/>
    <linearGradient id="linear-gradient-52" x1="-4212.6" y1="2759.42" x2="-4208.46" y2="2759.42" xlink:href="#linear-gradient-2"/>
    <linearGradient id="linear-gradient-53" x1="-4186" y1="2767.71" x2="-4181.85" y2="2767.71" xlink:href="#linear-gradient-2"/>
    <linearGradient id="linear-gradient-54" x1="-4157.68" y1="2768.29" x2="-4153.54" y2="2768.29" xlink:href="#linear-gradient-2"/>
    <linearGradient id="linear-gradient-55" x1="-4147.46" y1="2763.56" x2="-4141.24" y2="2763.56" xlink:href="#linear-gradient-2"/>
    <clipPath id="clippath">
      <rect x="1393.68" y="582.84" width="522.07" height="497.16" fill="none" stroke-width="0"/>
    </clipPath>
    <clipPath id="clippath-1">
      <rect width="964.7" height="599.24" fill="none" stroke-width="0"/>
    </clipPath>
  </defs>
  <g isolation="isolate">
    <g id="Layer_1" data-name="Layer 1">
      <g>
        <circle cx="1729.45" cy="207.51" r="132.5" fill="#1a1a1a" opacity=".33" stroke-width="0"/>
        <path d="m1842.61,365.78c-.25.2-.5.4-.76.58-3.28,2.35-7.2,3.29-10.97,2.89-4.07-.43-7.98-2.41-10.75-5.84l-36.78-45.43,24.85-20.12,36.78,45.43c5.35,6.61,4.56,16.2-1.64,21.86-.23.22-.47.42-.72.63Z" fill="#0d43a7" stroke-width="0"/>
        <path d="m1841.12,366.98c-3.43,2.78-7.66,3.9-11.73,3.47-4.07-.43-7.98-2.41-10.75-5.84l-36.78-45.43,1.49-1.21,36.78,45.43c2.78,3.43,6.68,5.41,10.75,5.84,3.77.4,7.68-.54,10.97-2.89-.23.22-.47.42-.72.63Z" fill="#0a3480" stroke-width="0"/>
        <path d="m1844.1,364.57c-.25.2-.5.4-.76.58,6.2-5.66,6.99-15.25,1.64-21.86l-36.78-45.43,1.49-1.21,36.78,45.43c5.55,6.86,4.5,16.93-2.37,22.48Z" fill="#0a3480" stroke-width="0"/>
        <path d="m1791.53,328.08l24.85-20.12,9.05,11.18s-4.23,6.89-11.05,12.47c-6.82,5.58-13.12,8.49-13.12,8.49l-9.73-12.02Z" fill="#0a3480" stroke-width="0"/>
        <circle cx="1721.18" cy="215.78" r="132.5" fill="#0d43a7" stroke-width="0"/>
        <circle cx="1721.18" cy="215.78" r="129.31" transform="translate(351.54 1280.26) rotate(-45)" fill="#255cc0" stroke-width="0"/>
        <circle cx="1721.18" cy="215.78" r="109.32" fill="#0d43a7" stroke-width="0"/>
        <g>
          <path d="m1805.84,273.76c-32.06,46.86-96.03,58.86-142.88,26.8-12.59-8.61-22.66-19.52-30.03-31.79-20.09-33.4-20.21-76.82,3.23-111.09,32.06-46.86,96.03-58.86,142.89-26.8,22.64,15.48,37.14,38.42,42.47,63.27,5.7,26.59.9,55.39-15.67,79.61Z" fill="url(#linear-gradient)" stroke-width="0"/>
          <path d="m1640.19,233.46c-.24,1.71-.31,3.42-.22,5.11.52,6.29,2.18,12.31,4.72,17.94.85,1.88,1.79,3.71,2.82,5.49,2.14,3.58,4.55,6.95,7.19,10.12,1.32,1.58,2.69,3.11,4.12,4.59,12.68,13.68,29.67,22.92,47.85,26.24,2.04.4,4.1.74,6.18.98,2.08.25,4.18.41,6.29.47,1.34.1,2.68.16,4.02.18,4.03.07,8.06-.21,12.07-.87,1.75-.31,3.5-.68,5.23-1.1,5.19-1.26,10.28-2.98,15.14-5.06,1.9-.9,3.78-1.88,5.62-2.92,5.52-3.12,10.76-6.74,15.59-10.75,1.43-1.19,2.83-2.41,4.2-3.66,4.28-4.08,8.34-8.57,11.96-13.38,1.21-1.61,2.36-3.25,3.46-4.92,12.72-17.68,16.93-41.91,4.69-60.89-.65-1.22-1.36-2.39-2.11-3.54-6.01-10.7-16.38-17.8-27.4-22.45-.98-.43-1.96-.84-2.95-1.22-5.95-2.26-12.37-3.21-19.06-2.3-.9.09-1.81.23-2.72.43-.91.19-1.82.44-2.73.75-11.54,3.86-16.59,15.07-22.67,24.63-3.72,5.84-8.13,11.43-13.97,15.16-5.84,3.73-13.31,5.39-19.83,3.04-8.21-2.95-13.87-11.65-22.51-12.84-1.54-.21-3.07-.15-4.56.13-1.49.29-2.94.8-4.32,1.49-9.29,5.09-13.87,15.27-15.69,25.56-.16,1.19-.29,2.38-.39,3.57Z" fill="url(#linear-gradient-2)" stroke-width="0"/>
          <path d="m1736.23,154.74c-1.94,2.83-5.81,3.56-8.64,1.62-2.83-1.94-3.56-5.81-1.62-8.64,1.94-2.83,5.81-3.56,8.64-1.62,2.83,1.94,3.56,5.81,1.62,8.64Z" fill="url(#linear-gradient-3)" stroke-width="0"/>
          <path d="m1678.43,151.73c-1.94,2.83-5.81,3.56-8.64,1.62-2.83-1.94-3.56-5.81-1.62-8.64,1.94-2.83,5.81-3.56,8.64-1.62,2.83,1.94,3.56,5.81,1.62,8.64Z" fill="url(#linear-gradient-4)" stroke-width="0"/>
          <path d="m1709.88,131.74c-1.29,1.89-3.87,2.37-5.76,1.08-1.89-1.29-2.37-3.87-1.08-5.76,1.29-1.89,3.87-2.37,5.76-1.08,1.89,1.29,2.37,3.87,1.08,5.76Z" fill="url(#linear-gradient-5)" stroke-width="0"/>
          <path d="m1765.85,137.63c-1.29,1.89-3.87,2.37-5.76,1.08-1.89-1.29-2.37-3.87-1.08-5.76,1.29-1.89,3.87-2.37,5.76-1.08,1.89,1.29,2.37,3.87,1.08,5.76Z" fill="url(#linear-gradient-6)" stroke-width="0"/>
          <path d="m1702.71,180.97c-1.62,2.36-4.84,2.97-7.2,1.35-2.36-1.62-2.97-4.84-1.35-7.2,1.62-2.36,4.84-2.97,7.2-1.35,2.36,1.62,2.97,4.84,1.35,7.2Z" fill="url(#linear-gradient-7)" stroke-width="0"/>
          <path d="m1684.71,185.27c-.97,1.42-2.9,1.78-4.32.81-1.42-.97-1.78-2.9-.81-4.32.97-1.42,2.9-1.78,4.32-.81,1.42.97,1.78,2.9.81,4.32Z" fill="url(#linear-gradient-8)" stroke-width="0"/>
          <path d="m1703.45,168.85c-.97,1.42-2.9,1.78-4.32.81-1.42-.97-1.78-2.9-.81-4.32.97-1.42,2.9-1.78,4.32-.81,1.42.97,1.78,2.9.81,4.32Z" fill="url(#linear-gradient-9)" stroke-width="0"/>
          <path d="m1747.06,155.92c-.97,1.42-2.9,1.78-4.32.81-1.42-.97-1.78-2.9-.81-4.32.97-1.42,2.9-1.78,4.32-.81,1.42.97,1.78,2.9.81,4.32Z" fill="url(#linear-gradient-10)" stroke-width="0"/>
          <path d="m1660.18,155.57c-.97,1.42-2.9,1.78-4.32.81-1.42-.97-1.78-2.9-.81-4.32.97-1.42,2.9-1.78,4.32-.81s1.78,2.9.81,4.32Z" fill="url(#linear-gradient-11)" stroke-width="0"/>
          <path d="m1725.37,129.47c-.97,1.42-2.9,1.78-4.32.81-1.42-.97-1.78-2.9-.81-4.32.97-1.42,2.9-1.78,4.32-.81,1.42.97,1.78,2.9.81,4.32Z" fill="url(#linear-gradient-12)" stroke-width="0"/>
          <path d="m1775.84,149.48c-.97,1.42-2.9,1.78-4.32.81-1.42-.97-1.78-2.9-.81-4.32.97-1.42,2.9-1.78,4.32-.81,1.42.97,1.78,2.9.81,4.32Z" fill="url(#linear-gradient-13)" stroke-width="0"/>
          <path d="m1643.88,188.57c-.97,1.42-2.9,1.78-4.32.81-1.42-.97-1.78-2.9-.81-4.32.97-1.42,2.9-1.78,4.32-.81,1.42.97,1.78,2.9.81,4.32Z" fill="url(#linear-gradient-14)" stroke-width="0"/>
          <path d="m1651.8,185.72c-.32.47-.97.59-1.44.27-.47-.32-.59-.97-.27-1.44.32-.47.97-.59,1.44-.27.47.32.59.97.27,1.44Z" fill="url(#linear-gradient-15)" stroke-width="0"/>
          <path d="m1634.57,198.52c-.32.47-.97.59-1.44.27-.47-.32-.59-.97-.27-1.44.32-.47.97-.59,1.44-.27.47.32.59.97.27,1.44Z" fill="url(#linear-gradient-16)" stroke-width="0"/>
          <path d="m1650.75,176.69c-.32.47-.97.59-1.44.27-.47-.32-.59-.97-.27-1.44.32-.47.97-.59,1.44-.27s.59.97.27,1.44Z" fill="url(#linear-gradient-17)" stroke-width="0"/>
          <path d="m1670.89,183.27c-.65.94-1.94,1.19-2.88.54s-1.19-1.94-.54-2.88,1.94-1.19,2.88-.54,1.19,1.94.54,2.88Z" fill="url(#linear-gradient-18)" stroke-width="0"/>
          <path d="m1668.14,161.01c-.32.47-.97.59-1.44.27-.47-.32-.59-.97-.27-1.44.32-.47.97-.59,1.44-.27.47.32.59.97.27,1.44Z" fill="url(#linear-gradient-19)" stroke-width="0"/>
          <path d="m1658.8,148.43c-.32.47-.97.59-1.44.27-.47-.32-.59-.97-.27-1.44.32-.47.97-.59,1.44-.27.47.32.59.97.27,1.44Z" fill="url(#linear-gradient-20)" stroke-width="0"/>
          <path d="m1644.7,165.36c-.32.47-.97.59-1.44.27-.47-.32-.59-.97-.27-1.44.32-.47.97-.59,1.44-.27.47.32.59.97.27,1.44Z" fill="url(#linear-gradient-21)" stroke-width="0"/>
          <path d="m1773.04,136.27c-.32.47-.97.59-1.44.27-.47-.32-.59-.97-.27-1.44.32-.47.97-.59,1.44-.27.47.32.59.97.27,1.44Z" fill="url(#linear-gradient-22)" stroke-width="0"/>
          <path d="m1751.89,131.84c-.32.47-.97.59-1.44.27-.47-.32-.59-.97-.27-1.44.32-.47.97-.59,1.44-.27.47.32.59.97.27,1.44Z" fill="url(#linear-gradient-23)" stroke-width="0"/>
          <path d="m1679.34,159.89c-.65.94-1.94,1.19-2.88.54-.94-.65-1.19-1.94-.54-2.88.65-.94,1.94-1.19,2.88-.54s1.19,1.94.54,2.88Z" fill="url(#linear-gradient-24)" stroke-width="0"/>
          <path d="m1694.33,163.87c-.32.47-.97.59-1.44.27s-.59-.97-.27-1.44c.32-.47.97-.59,1.44-.27.47.32.59.97.27,1.44Z" fill="url(#linear-gradient-25)" stroke-width="0"/>
          <path d="m1710.17,153.55c-.65.94-1.94,1.19-2.88.54-.94-.65-1.19-1.94-.54-2.88s1.94-1.19,2.88-.54c.94.65,1.19,1.94.54,2.88Z" fill="url(#linear-gradient-26)" stroke-width="0"/>
          <path d="m1698.72,127.87c-.32.47-.97.59-1.44.27-.47-.32-.59-.97-.27-1.44.32-.47.97-.59,1.44-.27.47.32.59.97.27,1.44Z" fill="url(#linear-gradient-27)" stroke-width="0"/>
          <path d="m1663.83,170.99c-.32.47-.97.59-1.44.27-.47-.32-.59-.97-.27-1.44.32-.47.97-.59,1.44-.27.47.32.59.97.27,1.44Z" fill="url(#linear-gradient-28)" stroke-width="0"/>
          <path d="m1676.12,175.63c-.32.47-.97.59-1.44.27-.47-.32-.59-.97-.27-1.44.32-.47.97-.59,1.44-.27.47.32.59.97.27,1.44Z" fill="url(#linear-gradient-29)" stroke-width="0"/>
          <path d="m1771.2,158.11c-.32.47-.97.59-1.44.27-.47-.32-.59-.97-.27-1.44.32-.47.97-.59,1.44-.27.47.32.59.97.27,1.44Z" fill="url(#linear-gradient-30)" stroke-width="0"/>
          <path d="m1744.87,145.77c-.32.47-.97.59-1.44.27-.47-.32-.59-.97-.27-1.44.32-.47.97-.59,1.44-.27.47.32.59.97.27,1.44Z" fill="url(#linear-gradient-31)" stroke-width="0"/>
          <path d="m1742.05,136.29c-.32.47-.97.59-1.44.27-.47-.32-.59-.97-.27-1.44.32-.47.97-.59,1.44-.27.47.32.59.97.27,1.44Z" fill="url(#linear-gradient-32)" stroke-width="0"/>
          <path d="m1781.08,146.79c-.32.47-.97.59-1.44.27-.47-.32-.59-.97-.27-1.44.32-.47.97-.59,1.44-.27.47.32.59.97.27,1.44Z" fill="url(#linear-gradient-33)" stroke-width="0"/>
          <path d="m1752.8,151.2c-.32.47-.97.59-1.44.27-.47-.32-.59-.97-.27-1.44.32-.47.97-.59,1.44-.27.47.32.59.97.27,1.44Z" fill="url(#linear-gradient-34)" stroke-width="0"/>
          <path d="m1732.95,123.9c-.32.47-.97.59-1.44.27-.47-.32-.59-.97-.27-1.44.32-.47.97-.59,1.44-.27.47.32.59.97.27,1.44Z" fill="url(#linear-gradient-35)" stroke-width="0"/>
          <path d="m1789.48,155.04c-.32.47-.97.59-1.44.27-.47-.32-.59-.97-.27-1.44.32-.47.97-.59,1.44-.27.47.32.59.97.27,1.44Z" fill="url(#linear-gradient-36)" stroke-width="0"/>
          <path d="m1686.67,147.33c-.32.47-.97.59-1.44.27-.47-.32-.59-.97-.27-1.44.32-.47.97-.59,1.44-.27.47.32.59.97.27,1.44Z" fill="url(#linear-gradient-37)" stroke-width="0"/>
          <path d="m1689.71,137.08c-.32.47-.97.59-1.44.27-.47-.32-.59-.97-.27-1.44.32-.47.97-.59,1.44-.27.47.32.59.97.27,1.44Z" fill="url(#linear-gradient-38)" stroke-width="0"/>
          <path d="m1703.04,147.46c-.32.47-.97.59-1.44.27-.47-.32-.59-.97-.27-1.44.32-.47.97-.59,1.44-.27.47.32.59.97.27,1.44Z" fill="url(#linear-gradient-39)" stroke-width="0"/>
          <path d="m1722.8,140.58c-.32.47-.97.59-1.44.27-.47-.32-.59-.97-.27-1.44.32-.47.97-.59,1.44-.27.47.32.59.97.27,1.44Z" fill="url(#linear-gradient-40)" stroke-width="0"/>
          <path d="m1715.89,122.98c-.32.47-.97.59-1.44.27-.47-.32-.59-.97-.27-1.44.32-.47.97-.59,1.44-.27s.59.97.27,1.44Z" fill="url(#linear-gradient-41)" stroke-width="0"/>
          <path d="m1720.39,151.43c-.32.47-.97.59-1.44.27-.47-.32-.59-.97-.27-1.44.32-.47.97-.59,1.44-.27.47.32.59.97.27,1.44Z" fill="url(#linear-gradient-42)" stroke-width="0"/>
          <path d="m1697.64,142.46c-.65.94-1.94,1.19-2.88.54s-1.19-1.94-.54-2.88,1.94-1.19,2.88-.54c.94.65,1.19,1.94.54,2.88Z" fill="url(#linear-gradient-43)" stroke-width="0"/>
          <path d="m1712.77,138.74c-.65.94-1.94,1.19-2.88.54-.94-.65-1.19-1.94-.54-2.88s1.94-1.19,2.88-.54c.94.65,1.19,1.94.54,2.88Z" fill="url(#linear-gradient-44)" stroke-width="0"/>
          <path d="m1693.35,170.8c-.65.94-1.94,1.19-2.88.54-.94-.65-1.19-1.94-.54-2.88s1.94-1.19,2.88-.54c.94.65,1.19,1.94.54,2.88Z" fill="url(#linear-gradient-45)" stroke-width="0"/>
          <path d="m1722.99,162.31c-.65.94-1.94,1.19-2.88.54-.94-.65-1.19-1.94-.54-2.88s1.94-1.19,2.88-.54,1.19,1.94.54,2.88Z" fill="url(#linear-gradient-46)" stroke-width="0"/>
          <path d="m1684.31,138.19c-.97,1.42-2.9,1.78-4.32.81s-1.78-2.9-.81-4.32c.97-1.42,2.9-1.78,4.32-.81,1.42.97,1.78,2.9.81,4.32Z" fill="url(#linear-gradient-47)" stroke-width="0"/>
          <path d="m1670.44,138.74c-.65.94-1.94,1.19-2.88.54s-1.19-1.94-.54-2.88c.65-.94,1.94-1.19,2.88-.54.94.65,1.19,1.94.54,2.88Z" fill="url(#linear-gradient-48)" stroke-width="0"/>
          <path d="m1639.18,177.09c-.65.94-1.94,1.19-2.88.54-.94-.65-1.19-1.94-.54-2.88.65-.94,1.94-1.19,2.88-.54s1.19,1.94.54,2.88Z" fill="url(#linear-gradient-49)" stroke-width="0"/>
          <path d="m1653.42,167.29c-.65.94-1.94,1.19-2.88.54s-1.19-1.94-.54-2.88,1.94-1.19,2.88-.54c.94.65,1.19,1.94.54,2.88Z" fill="url(#linear-gradient-50)" stroke-width="0"/>
          <path d="m1735.38,140.53c-.65.94-1.94,1.19-2.88.54s-1.19-1.94-.54-2.88c.65-.94,1.94-1.19,2.88-.54s1.19,1.94.54,2.88Z" fill="url(#linear-gradient-51)" stroke-width="0"/>
          <path d="m1746.99,127.23c-.65.94-1.94,1.19-2.88.54s-1.19-1.94-.54-2.88c.65-.94,1.94-1.19,2.88-.54s1.19,1.94.54,2.88Z" fill="url(#linear-gradient-52)" stroke-width="0"/>
          <path d="m1764.26,149.09c-.65.94-1.94,1.19-2.88.54-.94-.65-1.19-1.94-.54-2.88s1.94-1.19,2.88-.54c.94.65,1.19,1.94.54,2.88Z" fill="url(#linear-gradient-53)" stroke-width="0"/>
          <path d="m1787.3,165.56c-.65.94-1.94,1.19-2.88.54s-1.19-1.94-.54-2.88c.65-.94,1.94-1.19,2.88-.54.94.65,1.19,1.94.54,2.88Z" fill="url(#linear-gradient-54)" stroke-width="0"/>
          <path d="m1800.12,168.6c-.97,1.42-2.9,1.78-4.32.81-1.42-.97-1.78-2.9-.81-4.32s2.9-1.78,4.32-.81,1.78,2.9.81,4.32Z" fill="url(#linear-gradient-55)" stroke-width="0"/>
        </g>
        <path d="m1826.58,244.93c-4.18-29.28-20.16-56.77-46.5-74.79-49.83-34.09-117.87-21.33-151.96,28.5-7.01,10.24-12.03,21.25-15.17,32.58-3.74-26.13,1.92-53.67,18-77.17,34.09-49.83,102.12-62.59,151.96-28.5,39.59,27.09,55.78,75.6,43.67,119.38Z" fill="#603d28" mix-blend-mode="multiply" opacity=".15" stroke-width="0"/>
      </g>
      <g>
        <path d="m155.88,765.51c.09.74.21,1.49.36,2.23l4.09,19.99h0c-.68.16-1.12.83-.98,1.52l2.01,9.86c.14.68.81,1.13,1.49,1.01h0s1.57,7.69,1.57,7.69h0c-.67.23-1.1.93-.95,1.65l2.62,12.8c.15.71.81,1.19,1.52,1.14h0s.61,2.99.61,2.99h0c-.67.23-1.1.93-.95,1.65l2.62,12.8c.15.72.81,1.19,1.52,1.14h0s36.08,176.59,36.08,176.59c2.96,14.46,17.08,23.79,31.54,20.84l99.74-20.38c14.46-2.95,23.79-17.08,20.83-31.54l-2.2-10.78-37.27-182.39c.61-.83.89-1.91.67-2.99l-4.67-22.88c-.22-1.09-.9-1.97-1.79-2.49l-5.98-29.29c-2.95-14.46-17.08-23.79-31.54-20.83l-99.74,20.38c-13.72,2.8-22.82,15.65-21.2,29.3Z" fill="#1a1a1a" opacity=".33" stroke-width="0"/>
        <g>
          <path d="m281.31,713.44c14.82-2.96,29.22,6.56,32.16,21.26l51.06,255.53c2.94,14.7-6.7,29.02-21.52,31.98l-95.94,19.17c-14.82,2.96-29.22-6.56-32.16-21.26l-51.06-255.53c-2.94-14.7,6.7-29.02,21.52-31.98l95.94-19.17m-.24-1.2l-95.94,19.17c-15.46,3.09-25.55,18.08-22.48,33.42l51.06,255.53c3.06,15.34,18.14,25.3,33.6,22.21l95.94-19.17c15.46-3.09,25.55-18.08,22.48-33.42l-51.06-255.53c-3.06-15.34-18.14-25.3-33.6-22.21h0Z" fill="#94a3b8" stroke-width="0"/>
          <path d="m281.32,713.43l-95.96,19.18c-14.82,2.96-24.46,17.28-21.52,31.99l51.06,255.55c2.94,14.7,17.34,24.22,32.16,21.26l95.96-19.18c14.82-2.96,24.46-17.28,21.52-31.99l-51.06-255.55c-2.94-14.7-17.34-24.22-32.16-21.26Zm78.4,277.77c2.41,12.04-5.51,23.81-17.65,26.23l-95.96,19.18c-12.14,2.43-23.97-5.4-26.38-17.43l-51.06-255.55c-2.41-12.04,5.51-23.81,17.65-26.23l95.96-19.18c12.14-2.43,23.97,5.4,26.38,17.43l51.06,255.55Z" fill="#020617" stroke-width="0"/>
          <path d="m281.32,713.43l-95.96,19.18c-14.82,2.96-24.46,17.28-21.52,31.99l51.06,255.55c2.94,14.7,17.34,24.22,32.16,21.26l95.96-19.18c14.82-2.96,24.46-17.28,21.52-31.99l-51.06-255.55c-2.94-14.7-17.34-24.22-32.16-21.26Z" fill="#020617" stroke-width="0"/>
          <path d="m359.72,991.2c2.41,12.04-5.51,23.81-17.65,26.23l-95.96,19.18c-12.14,2.43-23.97-5.4-26.38-17.43l-51.06-255.55c-2.41-12.04,5.51-23.81,17.65-26.23l95.96-19.18c12.14-2.43,23.97,5.4,26.38,17.43l51.06,255.55Z" fill="#020617" stroke-width="0"/>
          <path d="m359.72,991.2c2.41,12.04-5.51,23.81-17.65,26.23l-95.96,19.18c-12.14,2.43-23.97-5.4-26.38-17.43l-51.06-255.55c-2.41-12.04,5.51-23.81,17.65-26.23l95.96-19.18c12.14-2.43,23.97,5.4,26.38,17.43l51.06,255.55Z" fill="#fff" mix-blend-mode="lighten" opacity=".07" stroke-width="0"/>
          <path d="m169.48,793.79h.65v16.96h-.65c-.31,0-.57-.25-.57-.57v-15.82c0-.31.25-.57.57-.57Z" transform="translate(-153.92 48.77) rotate(-11.3)" fill="#64748b" stroke-width="0"/>
          <path d="m175.43,818.46h.59v26.65h-.59c-.34,0-.62-.28-.62-.62v-25.41c0-.34.28-.62.62-.62Z" transform="translate(-159.59 50.5) rotate(-11.3)" fill="#64748b" stroke-width="0"/>
          <path d="m181.58,849.25h.59v26.65h-.59c-.34,0-.62-.28-.62-.62v-25.41c0-.34.28-.62.62-.62Z" transform="translate(-165.5 52.3) rotate(-11.3)" fill="#64748b" stroke-width="0"/>
          <rect x="212.69" y="731.09" width="46.32" height="15.13" rx="7.56" ry="7.56" transform="translate(-140.17 60.53) rotate(-11.3)" fill="#020617" stroke-width="0"/>
          <path d="m250.6,733.86c.98-.2,1.94.44,2.14,1.43s-.44,1.94-1.43,2.14-1.94-.44-2.14-1.43.44-1.94,1.43-2.14m-.59-2.97c-2.62.52-4.33,3.08-3.8,5.7.52,2.62,3.08,4.33,5.7,3.8s4.33-3.08,3.8-5.7c-.52-2.62-3.08-4.33-5.7-3.8h0Z" fill="#1e293b" stroke-width="0"/>
          <path d="m281.07,712.24l-67.36,308.13c3.06,15.34,18.14,25.3,33.6,22.21l95.94-19.17c15.46-3.09,25.55-18.08,22.48-33.42l-51.06-255.53c-3.06-15.34-18.14-25.3-33.6-22.21h0Z" fill="#fff" mix-blend-mode="screen" opacity=".06" stroke-width="0"/>
        </g>
      </g>
      <g>
        <path d="m1268.78,124.47c-.82-3.62-2.08-6.51-4.17-8.71h0c-3-3.15-7.69-4.87-15.2-5.24-9.94-.49-17.39,3.54-20.19,5.35h0s-.31-.79-.31-.79c-.1-.26-.26-.49-.45-.67-.2-.19-.44-.33-.7-.41-3.52-1.14-7.21-2.05-10.93-2.09-.31,0-.61,0-.92,0,.02,0,.03,0,.05,0-2.69.06-5.45.6-7.33,2.67-2.55,2.81-3.75,7.01-4.97,10.54-1.53,4.44-2.32,9.38.96,13.3,1.64,1.97,3.82,3.54,6.2,4.76,2.38,1.22,4.96,2.1,7.41,2.68.07.02.14.02.2.03-.01,0-.02,0-.03,0,.09.02.18.02.27.03.09,0,.18.02.27.03.13,0,.25-.01.38-.03.08,0,.17-.01.25-.03.14-.03.27-.07.41-.12.07-.02.13-.03.2-.06.2-.08.39-.18.56-.3l.45-.3c.43.79.95,1.12.95,1.12,0,0,7.34,6.88,18.02,6.1.86-.06,1.53.74,1.31,1.58-.61,2.28-2.48,6.78-8.16,13.46-6.83,8.04-12.74,15.88-14.87,18.74-.41.55-.39,1.29.01,1.81,0,0-.56.6-.87,1.69,0,0,0,.02,0,.02,0,0,0,0,0,0-.02.06-.02.11-.03.17,0,.05-.02.09-.03.14,0,.06,0,.12,0,.18,0,.05,0,.09,0,.14,0,.07.02.14.04.21,0,.04.01.07.02.11.03.1.07.2.12.3v.04c-.06.15-.09.3-.11.45,0,0,0,0,0,0,0,.01,0,.02,0,.04-.02.2-.02.41,0,.6,0,.03,0,.05,0,.08.03.2.08.39.15.58.01.04.03.07.04.11.08.18.17.36.29.53.02.03.04.05.06.08.13.17.27.33.44.47l5.89,4.83c.68.56,1.58.76,2.43.54l.66-.17h0c.34.16.73.2,1.11.12,1.28-.29,1.99-.95,1.99-.95h0c.65.47,1.57.35,2.07-.3l17.12-21.96c3.26-4.14,6.36-8.45,9.07-12.98,2.08-3.48,3.93-7.08,5.44-10.85,1.77-4.38,3.07-8.95,3.76-13.63.67-4.54,1.69-9.49.66-14.05Z" fill="#1a1a1a" opacity=".33" stroke-width="0"/>
        <path d="m1189.87,74.61c-1.88-2.08-4.64-2.61-7.33-2.67.02,0,.03,0,.05,0-.31,0-.62,0-.92,0-3.72.04-7.41.95-10.93,2.09-.26.09-.5.23-.7.41-.2.19-.35.42-.45.67l-.31.79h0c-.16-.1-.33-.21-.52-.33-.05-.03-.1-.06-.16-.09-.15-.09-.3-.18-.47-.28-.06-.04-.13-.07-.19-.11-.2-.12-.42-.24-.65-.36-.03-.01-.05-.03-.08-.04-.25-.14-.52-.28-.8-.42-.07-.04-.15-.07-.22-.11-.22-.11-.44-.21-.67-.32-.1-.05-.19-.09-.29-.14-.25-.12-.51-.23-.78-.35-.07-.03-.14-.06-.21-.09-.34-.14-.69-.28-1.05-.42-.09-.03-.18-.07-.27-.1-.28-.11-.57-.21-.86-.31-.13-.04-.25-.09-.38-.13-.29-.1-.59-.19-.9-.29-.11-.03-.22-.07-.34-.1-.41-.12-.83-.24-1.27-.35-.1-.02-.2-.05-.29-.07-.35-.08-.7-.16-1.05-.24-.15-.03-.31-.06-.47-.09-.33-.07-.66-.13-1-.18-.15-.03-.3-.05-.45-.08-.06,0-.12-.02-.18-.03.01,0,.03,0,.04.01-2.07-.31-4.3-.46-6.68-.34-7.51.37-12.2,2.09-15.2,5.24h0c-2.09,2.2-3.36,5.09-4.17,8.71-1.03,4.56,0,9.51.66,14.05.69,4.68,1.99,9.25,3.76,13.63,1.52,3.76,3.37,7.37,5.44,10.85,2.71,4.53,5.81,8.84,9.07,12.98l16.6,21.29h0s.53.68.53.68c.25.32.61.51.98.57.1.01.19,0,.29-.01.28-.01.56-.08.8-.26h0s.36.33,1.02.63c0,0-.01,0-.02,0,.02,0,.04.02.06.02.09.04.18.07.28.11.05.02.1.04.16.06.14.05.29.09.45.13.02,0,.03.01.05.01.38.08.77.04,1.11-.12,0,0,0,0,0,0h0,0s.62.16.62.16h.04s.09.02.13.03c.81.16,1.65-.03,2.29-.56l5.4-4.43.49-.4c.82-.67,1.17-1.76.93-2.78-.01-.05-.02-.1-.03-.15v-.04c.18-.39.23-.84.11-1.26-.08-.27-.17-.51-.27-.72-.16-.36-.33-.6-.44-.76-.09-.12-.16-.21-.16-.21.18-.23.27-.51.29-.79,0-.04.02-.07.02-.11,0-.04-.02-.09-.02-.13,0-.12-.02-.23-.05-.34-.03-.09-.09-.18-.13-.26-.03-.06-.05-.12-.09-.18h0s0,0,0,0c-.75-1-1.96-2.63-3.51-4.65-.5-.65-1.04-1.35-1.61-2.08-.67-.86-1.38-1.76-2.12-2.7-.3-.38-.61-.77-.93-1.17-.35-.43-.7-.87-1.06-1.32-1.76-2.18-3.66-4.49-5.64-6.82-2.27-2.67-3.92-4.98-5.14-6.95-1.82-2.96-2.65-5.13-3.02-6.5-.16-.58.12-1.14.59-1.41.04-.02.08-.05.12-.07.18-.08.38-.12.6-.1,10.69.77,18.02-6.1,18.02-6.1,0,0,.13-.08.32-.27.18-.18.42-.46.63-.86l.45.3c.18.12.37.22.56.3.06.03.13.04.2.06.13.04.27.09.41.12.08.02.17.02.25.03.13.01.25.03.38.03.09,0,.18-.02.27-.03.09,0,.18,0,.27-.03-.01,0-.02,0-.03,0,.07-.01.14-.01.2-.03,2.45-.58,5.03-1.46,7.41-2.68,2.38-1.23,4.55-2.8,6.2-4.76,3.28-3.92,2.49-8.86.96-13.3-1.21-3.53-2.42-7.73-4.97-10.54Z" fill="#1a1a1a" opacity=".33" stroke-width="0"/>
        <g>
          <path d="m1230.17,118.56c-.11.07-.21.14-.31.2-.57.38-.99.94-1.19,1.6-1.21,4.06-5.85,19.69-6.78,23.14-.56,2.07-.21,3.45.25,4.31l-.45.3c-.74.5-1.65.66-2.52.44-2.45-.58-5.03-1.46-7.41-2.68-2.38-1.23-4.55-2.8-6.2-4.76-3.28-3.92-2.49-8.86-.96-13.3,1.21-3.53,2.42-7.73,4.97-10.54,2.08-2.3,5.25-2.72,8.2-2.68,3.72.04,7.41.95,10.93,2.09.26.09.5.23.7.41.2.19.35.42.45.67l.31.79h0Z" fill="#f7f7f7" stroke-width="0"/>
          <path d="m1230.17,118.56c-.11.07-.21.14-.31.2-.57.38-.99.94-1.19,1.6-1.21,4.06-5.85,19.69-6.78,23.14-.56,2.07-.21,3.45.25,4.31l-.45.3c-.69.47-1.53.64-2.34.48.41-.08.79-.24,1.14-.48l.45-.3c-.46-.85-.81-2.24-.25-4.31.93-3.45,5.57-19.08,6.78-23.14.2-.66.61-1.22,1.19-1.6.1-.06.2-.13.31-.2h0s-.31-.79-.31-.79c-.1-.26-.26-.49-.45-.67-.2-.19-.44-.33-.7-.41-3.43-1.11-7.03-2-10.65-2.09.31,0,.62,0,.92,0,3.72.04,7.41.95,10.93,2.09.26.09.5.23.7.41.2.19.35.42.45.67l.31.79h0Z" opacity=".2" stroke-width="0"/>
          <path d="m1269.08,141.21c-.69,4.68-1.99,9.25-3.76,13.63-1.52,3.76-3.37,7.37-5.44,10.85-2.71,4.53-5.81,8.84-9.07,12.98l-17.12,21.96c-.5.64-1.42.77-2.07.29-.03-.02-.06-.04-.08-.07l-11.89-9.98c-.09-.07-.16-.15-.23-.24-.4-.52-.42-1.26-.01-1.81,2.13-2.86,8.04-10.7,14.87-18.74,5.68-6.68,7.54-11.18,8.16-13.46.23-.84-.44-1.64-1.31-1.58-10.68.77-18.02-6.1-18.02-6.1,0,0-.52-.33-.95-1.12-.46-.85-.81-2.24-.25-4.31.93-3.45,5.57-19.08,6.78-23.14.2-.66.61-1.22,1.19-1.6.1-.06.2-.13.31-.2,2.8-1.8,10.24-5.84,20.19-5.35,7.51.37,12.2,2.09,15.2,5.24h0c2.09,2.2,3.36,5.09,4.17,8.71,1.03,4.56,0,9.51-.66,14.05Z" fill="#f2f2f2" stroke-width="0"/>
          <path d="m1244.33,150.36c-1.99-2.24-5.17-.73-5.17-.73,0,0-4.07,1.42-3.28,2.87.79,1.45,3.47,1.04,3.47,1.04,0,0,1.8-.32,3.88-1.32s1.1-1.87,1.1-1.87Z" fill="#545454" stroke-width="0"/>
          <path d="m1243.23,152.22c-2.08.99-3.88,1.32-3.88,1.32,0,0-2.68.41-3.47-1.04-.26-.48.01-.96.49-1.38.83,1.38,3.43.98,3.43.98,0,0,1.8-.32,3.88-1.32.28-.13.5-.26.68-.39.16.17.7.96-1.14,1.83Z" fill="#373736" stroke-width="0"/>
          <path d="m1256.72,125.79c-8.09-1.8-16.57-.62-16.57-.62,0,0-2.56.38-2.56-2.27s3.03-4.45,11.55-4.45,10.46,1.47,10.46,1.47c0,0,2.89,1.51,1.28,4.12-1.61,2.6-4.17,1.75-4.17,1.75Z" fill="#373736" stroke-width="0"/>
          <path d="m1231.61,200.92h0s-.71.67-1.99.95c-.38.08-.77.04-1.11-.12h0c-.14-.06-.27-.14-.39-.24l-9.01-7.35c-.2-.16-.36-.36-.47-.58-.19-.39-.24-.83-.12-1.26.31-1.09.87-1.69.87-1.69.07.09.14.17.23.24l11.89,9.98s.06.05.08.07Z" fill="#bbc6d2" stroke-width="0"/>
          <path d="m1231.61,200.92h0s-.71.67-1.99.95c-.38.08-.77.04-1.11-.12h0c-.14-.06-.27-.14-.39-.24l-9.01-7.35c-.2-.16-.36-.36-.47-.58-.19-.38-.24-.82-.12-1.24.03.11.07.22.12.33.11.22.27.42.47.58l9.01,7.35c.12.1.25.18.39.24h0c.34.16.73.2,1.11.12.59-.13,1.06-.35,1.39-.54l.51.43s.06.05.08.07Z" opacity=".2" stroke-width="0"/>
          <path d="m1228.51,201.75l-.66.17c-.85.22-1.75.02-2.43-.54l-5.89-4.83c-.86-.71-1.21-1.86-.89-2.92v-.04c.12.22.28.42.48.58l9.01,7.35c.12.1.25.18.39.24Z" fill="#f2f2f2" stroke-width="0"/>
          <path d="m1228.51,201.75l-.66.17c-.85.22-1.75.02-2.43-.54l-5.89-4.83c-.74-.61-1.11-1.55-.99-2.48.09.69.43,1.33.99,1.79l5.89,4.83c.66.54,1.53.75,2.36.55l.33.27c.12.1.25.18.39.24Z" opacity=".2" stroke-width="0"/>
          <path d="m1269.08,141.21c-.69,4.68-1.99,9.25-3.76,13.63-1.52,3.76-3.37,7.37-5.44,10.85-1.63-11.37-17.67-10.84-17.67-10.84,0,0,24.31-1.24,23.36-36.38,2.09,2.2,3.36,5.09,4.17,8.71,1.03,4.56,0,9.51-.66,14.05Z" opacity=".1" stroke-width="0"/>
          <path d="m1231.52,132.62c-1.03,4.18-3.48,7.3-4.87,6.96s-.57-3.92.46-8.1c1.03-4.18,1.9-7.38,3.29-7.03,1.39.34,2.16,4,1.12,8.17Z" fill="#fff" opacity=".6" stroke-width="0"/>
        </g>
        <g>
          <path d="m1175.02,79.88c.11.07.21.14.31.2.57.38.99.94,1.19,1.6,1.21,4.06,5.85,19.69,6.78,23.14.56,2.07.21,3.45-.25,4.31l.45.3c.74.5,1.65.66,2.52.44,2.45-.58,5.03-1.46,7.41-2.68,2.38-1.23,4.55-2.8,6.2-4.76,3.28-3.92,2.49-8.86.96-13.3-1.21-3.53-2.42-7.73-4.97-10.54-2.08-2.3-5.25-2.72-8.2-2.68-3.72.04-7.41.95-10.93,2.09-.26.09-.5.23-.7.41-.2.19-.35.42-.45.67l-.31.79h0Z" fill="#f7f7f7" stroke-width="0"/>
          <path d="m1175.02,79.88c.11.07.21.14.31.2.57.38.99.94,1.19,1.6,1.21,4.06,5.85,19.69,6.78,23.14.56,2.07.21,3.45-.25,4.31l.45.3c.69.47,1.53.64,2.34.48-.41-.08-.79-.24-1.14-.48l-.45-.3c.46-.85.81-2.24.25-4.31-.93-3.45-5.57-19.08-6.78-23.14-.2-.66-.61-1.22-1.19-1.6-.1-.06-.2-.13-.31-.2h0s.31-.79.31-.79c.1-.26.26-.49.45-.67.2-.19.44-.33.7-.41,3.43-1.11,7.03-2,10.65-2.09-.31,0-.62,0-.92,0-3.72.04-7.41.95-10.93,2.09-.26.09-.5.23-.7.41-.2.19-.35.42-.45.67l-.31.79h0Z" opacity=".2" stroke-width="0"/>
          <path d="m1136.12,102.53c.69,4.68,1.99,9.25,3.76,13.63,1.52,3.76,3.37,7.37,5.44,10.85,2.71,4.53,5.81,8.84,9.07,12.98l17.12,21.96c.5.64,1.42.77,2.07.29.03-.02.06-.04.08-.07l11.89-9.98c.09-.07.16-.15.23-.24.4-.52.42-1.26.01-1.81-2.13-2.86-8.04-10.7-14.87-18.74-5.68-6.68-7.54-11.18-8.16-13.46-.23-.84.44-1.64,1.31-1.58,10.68.77,18.02-6.1,18.02-6.1,0,0,.52-.33.95-1.12.46-.85.81-2.24.25-4.31-.93-3.45-5.57-19.08-6.78-23.14-.2-.66-.61-1.22-1.19-1.6-.1-.06-.2-.13-.31-.2-2.8-1.8-10.24-5.84-20.19-5.35-7.51.37-12.2,2.09-15.2,5.24h0c-2.09,2.2-3.36,5.09-4.17,8.71-1.03,4.56,0,9.51.66,14.05Z" fill="#f2f2f2" stroke-width="0"/>
          <path d="m1185.79,151.95c-.07.09-.14.17-.23.24l-11.89,9.98s-.06.05-.08.07c-.65.47-1.57.35-2.07-.29l-.53-.67,11.52-9.68c.09-.07.16-.15.23-.24.4-.52.42-1.26.01-1.81-2.13-2.86-8.04-10.7-14.87-18.74-5.68-6.68-7.54-11.18-8.16-13.46-.23-.84.44-1.64,1.31-1.58,10.69.77,18.02-6.1,18.02-6.1,0,0,.52-.33.95-1.12.46-.85.81-2.24.25-4.31-.93-3.45-5.57-19.08-6.78-23.14-.19-.66-.61-1.22-1.18-1.6-.1-.06-.2-.13-.31-.2-1.79-1.15-5.47-3.22-10.5-4.43,6.58.97,11.41,3.65,13.55,5.02.11.07.21.14.31.2.57.38.99.95,1.18,1.6,1.21,4.06,5.85,19.69,6.78,23.14.56,2.07.21,3.45-.25,4.31-.42.79-.95,1.12-.95,1.12,0,0-7.34,6.88-18.02,6.1-.86-.06-1.53.74-1.31,1.58.61,2.28,2.48,6.78,8.16,13.46,6.83,8.04,12.75,15.88,14.87,18.74.41.55.39,1.29-.01,1.81Z" opacity=".2" stroke-width="0"/>
          <path d="m1160.86,111.68c1.99-2.24,5.17-.73,5.17-.73,0,0,4.07,1.42,3.28,2.87-.79,1.45-3.47,1.04-3.47,1.04,0,0-1.8-.32-3.88-1.32-2.08-.99-1.1-1.87-1.1-1.87Z" fill="#545454" stroke-width="0"/>
          <path d="m1161.96,113.54c2.08.99,3.88,1.32,3.88,1.32,0,0,2.68.41,3.47-1.04.26-.48-.01-.96-.49-1.38-.83,1.38-3.43.98-3.43.98,0,0-1.8-.32-3.88-1.32-.28-.13-.5-.26-.68-.39-.16.17-.7.96,1.14,1.83Z" fill="#373736" stroke-width="0"/>
          <path d="m1148.47,87.11c8.09-1.8,16.57-.62,16.57-.62,0,0,2.56.38,2.56-2.27s-3.03-4.45-11.55-4.45-10.46,1.47-10.46,1.47c0,0-2.89,1.51-1.28,4.12,1.61,2.6,4.17,1.75,4.17,1.75Z" fill="#373736" stroke-width="0"/>
          <path d="m1173.58,162.24h0s.71.67,1.99.95c.38.08.77.04,1.11-.12h0c.14-.06.27-.14.39-.24l9.01-7.35c.2-.16.36-.36.47-.58.19-.39.24-.83.12-1.26-.31-1.09-.87-1.69-.87-1.69-.07.09-.14.17-.23.24l-11.89,9.98s-.06.05-.08.07Z" fill="#bbc6d2" stroke-width="0"/>
          <path d="m1186.54,154.9c-.11.22-.27.42-.47.58l-9.01,7.35c-.12.1-.25.18-.39.24-.35.16-.73.2-1.11.12-.38-.09-.71-.21-.99-.33.02,0,.04,0,.06.01.38.08.77.04,1.11-.12h0c.14-.06.27-.14.39-.24l9.01-7.35c.2-.16.36-.36.47-.58.19-.39.24-.83.12-1.26-.11-.38-.25-.7-.39-.96l.21-.18c.09-.07.16-.15.23-.24,0,0,.56.6.88,1.69.12.43.07.88-.12,1.26Z" opacity=".2" stroke-width="0"/>
          <path d="m1176.68,163.07l.66.17c.85.22,1.75.02,2.43-.54l5.89-4.83c.86-.71,1.21-1.86.89-2.92v-.04c-.12.22-.28.42-.48.58l-9.01,7.35c-.12.1-.25.18-.39.24Z" fill="#f2f2f2" stroke-width="0"/>
          <path d="m1185.66,157.87l-5.89,4.83c-.68.56-1.58.76-2.43.54l-.66-.17s.08-.04.12-.06c.81.16,1.65-.05,2.29-.57l5.89-4.83c.63-.52.99-1.27,1.01-2.06l.09-.07c.2-.16.36-.36.47-.58v.04c.33,1.07-.02,2.22-.88,2.93Z" opacity=".2" stroke-width="0"/>
          <path d="m1144.34,84.04c-2.39,2.92-2.98,6.94-4.41,5.76-1.44-1.18-1.26-5.15,1.13-8.08,2.39-2.92,6.1-3.68,7.54-2.5,1.44,1.18-1.86,1.89-4.25,4.81Z" fill="#fff" opacity=".6" stroke-width="0"/>
        </g>
        <rect x="1315.96" y="32.91" width="179.63" height="134.06" rx="43.48" ry="43.48" transform="translate(2733.04 -373.89) rotate(156.29)" fill="#1a1a1a" opacity=".33" stroke-width="0"/>
        <g>
          <rect x="1313.61" y="40.94" width="179.63" height="134.06" rx="43.48" ry="43.48" transform="translate(2731.78 -357.57) rotate(156.29)" fill="#ededed" stroke-width="0"/>
          <path d="m1337.93,69.3l5.32-2.34c-19.88,8.73-28.92,31.93-20.19,51.82l25.72,58.55c-5.88-4.02-10.74-9.68-13.82-16.68l-17.29-39.36c-8.76-19.95.31-43.23,20.26-51.99Z" fill="#fff" stroke-width="0"/>
          <path d="m1466.67,104.97l-18.38-41.84c-8.6-19.59-31.45-28.49-51.04-19.89l22.14-9.72c20.38-8.95,44.17.31,53.12,20.7l17.11,38.95c8.95,20.38-.31,44.17-20.7,53.12l-22.14,9.72c19.59-8.6,28.49-31.45,19.89-51.04Z" fill="#dbdbdb" stroke-width="0"/>
          <rect x="1354.64" y="82.19" width="79.04" height="8.68" rx="4.34" ry="4.34" transform="translate(2705.42 -394.92) rotate(156.29)" fill="#dbdbdb" stroke-width="0"/>
          <rect x="1304.22" y="86.2" width="179.63" height=".78" transform="translate(82.88 567.94) rotate(-23.71)" fill="#c1c1c1" stroke-width="0"/>
          <circle cx="1403.84" cy="108.57" r="1.93" fill="#373736" stroke-width="0"/>
        </g>
      </g>
      <g clip-path="url(#clippath)">
        <g>
          <path d="m2008.96,1089.09l-115.17-235.34,13.55-8.12c5.4-3.24,7.15-10.24,3.92-15.64l-6.28-10.47c-3.24-5.4-10.24-7.15-15.64-3.92l-11,6.59-14.06-28.72,12.93-6.33c5.65-2.77,7.99-9.59,5.23-15.25l-5.37-10.97c-2.77-5.65-9.59-7.99-15.25-5.23l-12.93,6.33-12.58-25.71,11.82-4.46c5.89-2.22,8.86-8.8,6.64-14.69l-4.31-11.42c-2.22-5.89-8.8-8.86-14.69-6.64l-14.91,5.63-10.18-20.81,12.93-6.33c5.65-2.77,7.99-9.59,5.23-15.25l-5.37-10.97c-2.77-5.65-9.59-7.99-15.25-5.23l-12.93,6.33-27.83-56.86c-3.75-7.67-12.81-10.94-20.23-7.31l-339.82,166.3c-7.42,3.63-10.39,12.79-6.64,20.46l19.17,39.17-1.41.69-7.25,3.55c-.66.32-.9,1.21-.53,1.97.37.76,1.21,1.12,1.87.79l7.25-3.55,1.42-.69,1.8,3.68-1.42.69-7.26,3.55c-.66.32-.9,1.2-.53,1.97.37.76,1.21,1.11,1.87.79l7.25-3.55,1.43-.7,8.75,17.89-1.43.7-7.26,3.55c-.66.32-.9,1.2-.53,1.97.37.76,1.21,1.11,1.87.79l7.25-3.55,1.44-.7,1.8,3.67-1.44.71-7.25,3.55c-.66.33-.9,1.21-.53,1.97.37.76,1.21,1.12,1.87.79l7.25-3.55,1.44-.71,8.76,17.89-1.49.73-7.25,3.55c-.66.32-.9,1.21-.53,1.97.37.76,1.21,1.11,1.87.79l7.25-3.55,1.49-.73,1.8,3.68-1.5.73-7.26,3.55c-.66.32-.9,1.2-.53,1.97.37.76,1.21,1.11,1.87.79l7.25-3.55,1.5-.74,8.76,17.89-1.53.75-7.25,3.55c-.67.33-.91,1.21-.53,1.96.37.76,1.21,1.12,1.87.8l7.26-3.55,1.53-.75,1.8,3.67-1.54.75-7.25,3.55c-.66.33-.9,1.21-.53,1.97.37.76,1.21,1.11,1.87.79l7.25-3.55,1.54-.75,8.76,17.89-1.56.77h0s-7.26,3.55-7.26,3.55c-.66.32-.9,1.21-.53,1.97.37.76,1.21,1.11,1.87.79l7.25-3.55,1.57-.77,1.8,3.68-1.57.77-7.25,3.55c-.67.33-.9,1.21-.53,1.97.37.76,1.21,1.12,1.87.8l7.26-3.55,1.58-.77,8.75,17.89-1.6.78-7.25,3.55c-.66.32-.9,1.2-.53,1.96.37.77,1.21,1.12,1.87.79l7.25-3.55,1.61-.79,1.8,3.68-1.61.79h0s-7.25,3.55-7.25,3.55c-.66.32-.9,1.21-.53,1.97.37.76,1.21,1.11,1.87.79l7.25-3.55,1.62-.79,8.75,17.89-1.64.8-7.25,3.55c-.66.32-.9,1.21-.53,1.97.37.76,1.21,1.11,1.87.79l7.25-3.55,1.65-.81,1.8,3.68-1.65.81-7.25,3.55c-.66.32-.9,1.2-.53,1.97.37.76,1.21,1.12,1.87.8l7.26-3.55,1.65-.81,8.75,17.89-1.68.82-7.25,3.55c-.66.32-.9,1.2-.53,1.96.38.77,1.21,1.12,1.87.79l7.25-3.55,1.68-.82,1.8,3.68-1.69.83-7.25,3.55c-.66.32-.9,1.21-.53,1.97.37.76,1.21,1.11,1.87.79l7.25-3.55,1.69-.83,8.76,17.89-1.72.84-7.25,3.55c-.66.32-.9,1.21-.53,1.97.37.76,1.21,1.11,1.87.79l7.25-3.55,1.72-.84,1.8,3.68-1.73.84-7.25,3.55c-.66.32-.9,1.2-.53,1.96.37.77,1.21,1.12,1.88.8l7.25-3.55,1.73-.85,8.75,17.89-1.76.86-7.25,3.55c-.66.32-.9,1.2-.53,1.96.37.77,1.21,1.12,1.87.79l7.25-3.55,1.76-.86,1.8,3.68-1.76.86-7.26,3.55c-.66.32-.9,1.21-.53,1.97.37.76,1.21,1.11,1.87.79l7.25-3.55,1.77-.87,8.76,17.89-1.79.88-7.25,3.55c-.67.33-.9,1.21-.53,1.97.37.76,1.21,1.12,1.87.8l7.25-3.55,1.8-.88,1.8,3.68-1.8.88-7.25,3.55c-.66.32-.9,1.2-.53,1.96.37.76,1.21,1.12,1.87.79l7.25-3.55,1.81-.88,8.76,17.89-1.83.9h0s-7.26,3.55-7.26,3.55c-.66.33-.9,1.21-.53,1.97.37.76,1.21,1.12,1.87.79l7.25-3.55,1.84-.9,1.8,3.68-1.84.9-7.25,3.55c-.67.33-.9,1.21-.53,1.97.37.76,1.21,1.12,1.87.8l7.25-3.55,1.84-.9,8.76,17.89-1.87.92-7.25,3.55c-.66.32-.9,1.21-.53,1.97.37.76,1.21,1.12,1.87.8l7.25-3.55,1.87-.92,1.8,3.68-1.88.92-7.25,3.55c-.66.32-.9,1.2-.53,1.96.37.76,1.21,1.12,1.87.79l7.25-3.55,1.88-.92,8.76,17.89-1.91.93-7.26,3.55c-.66.33-.9,1.21-.53,1.97.37.76,1.21,1.11,1.87.79l7.25-3.55,1.91-.94,1.8,3.68-1.92.94-7.25,3.55c-.66.32-.9,1.21-.53,1.97.37.76,1.21,1.12,1.87.8l7.26-3.55,1.92-.94,8.76,17.89-1.95.95-7.25,3.55c-.66.32-.9,1.2-.53,1.97.37.76,1.21,1.12,1.87.79l7.25-3.55,1.95-.95,1.8,3.68-1.96.96-7.25,3.55c-.66.32-.9,1.2-.53,1.96.37.77,1.21,1.12,1.87.79l7.25-3.55,1.96-.96,8.76,17.89-1.98.97-7.26,3.55c-.66.33-.9,1.21-.53,1.97.37.76,1.21,1.11,1.87.79l7.26-3.55h0s1.99-.97,1.99-.97l1.8,3.68-1.99.98-7.25,3.55c-.66.32-.9,1.21-.53,1.97.37.76,1.21,1.12,1.87.79l7.25-3.55,2-.98,19.02,38.86c3.75,7.67,12.81,10.94,20.23,7.31l339.82-166.3c7.42-3.63,10.39-12.79,6.64-20.46Zm-565.44-276.69c-.37-.76-1.21-1.12-1.87-.79l-6.01,2.94-2.43,1.19-1.8-3.68,2.43-1.19,6.01-2.94c.66-.32.9-1.21.53-1.97-.37-.76-1.21-1.11-1.87-.79l-6,2.94-2.44,1.19-1.64-3.35,15.13-7.41,7.41,15.13-15.13,7.41-1.27-2.59,2.42-1.19,6-2.94c.66-.33.9-1.21.53-1.97Zm13.23,27.09c-.37-.76-1.21-1.11-1.87-.79l-6,2.94-2.41,1.18-1.8-3.68,2.41-1.18,6-2.94c.67-.33.9-1.21.53-1.97-.38-.76-1.22-1.12-1.87-.79l-6.01,2.94-2.42,1.18-1.63-3.32,15.13-7.41,7.41,15.13-15.13,7.41-1.28-2.62,2.41-1.18,6-2.94c.66-.32.9-1.21.53-1.97Zm13.2,27.12c-.37-.76-1.21-1.12-1.87-.8l-6,2.94-2.35,1.15-1.8-3.68,2.35-1.15,6-2.94c.66-.32.9-1.21.53-1.97-.37-.76-1.21-1.11-1.87-.79l-6,2.93-2.36,1.16-1.61-3.29,15.13-7.41,7.4,15.13-15.13,7.41-1.29-2.64,2.34-1.15,6-2.94c.66-.33.9-1.21.53-1.97Zm13.22,27.1c-.37-.76-1.21-1.11-1.87-.79l-6,2.94-2.31,1.13-1.8-3.68,2.31-1.13,6.01-2.94c.66-.32.9-1.2.53-1.96-.38-.76-1.21-1.12-1.87-.79l-6.01,2.94-2.32,1.13-1.6-3.27,15.13-7.41,7.41,15.13-15.13,7.41-1.31-2.68,2.31-1.13,6-2.94c.66-.32.9-1.21.53-1.97Zm13.22,27.1c-.38-.76-1.21-1.12-1.87-.79l-6,2.94-2.27,1.11-1.8-3.68,2.28-1.11,6-2.94c.66-.32.9-1.21.53-1.97-.37-.76-1.21-1.12-1.87-.79l-6,2.94-2.28,1.12-1.58-3.23,15.13-7.41,7.41,15.13-15.13,7.41-1.33-2.71,2.27-1.11,6-2.94c.66-.32.9-1.2.53-1.96Zm13.21,27.1c-.37-.76-1.21-1.12-1.87-.79l-6,2.93-2.24,1.09-1.8-3.68,2.24-1.1,6-2.94c.66-.32.9-1.2.53-1.96-.37-.77-1.21-1.12-1.88-.8l-6,2.94-2.24,1.1-1.57-3.2,15.13-7.41,7.4,15.13-15.13,7.41-1.34-2.74,2.23-1.09,6-2.94c.66-.32.9-1.21.53-1.97Zm13.22,27.1c-.37-.77-1.21-1.12-1.87-.79l-6,2.94-2.2,1.07-1.8-3.68,2.2-1.08,6-2.94c.66-.32.9-1.21.53-1.97-.37-.76-1.21-1.12-1.87-.79l-6.01,2.94-2.21,1.08-1.55-3.17,15.13-7.41,7.41,15.13-15.13,7.41-1.36-2.77,2.19-1.07,6-2.94c.66-.32.9-1.2.53-1.96Zm13.21,27.1c-.37-.76-1.21-1.12-1.87-.79l-6,2.94-2.16,1.06-1.8-3.68,2.16-1.06,6-2.94c.66-.32.9-1.2.53-1.97-.37-.76-1.21-1.11-1.87-.79l-6,2.94-2.17,1.06-1.53-3.14,15.13-7.41,7.41,15.13-15.13,7.41-1.37-2.8,2.15-1.05,6-2.94c.66-.32.9-1.21.53-1.97Zm13.22,27.1c-.37-.76-1.21-1.12-1.87-.79l-6.01,2.94-2.12,1.04-1.8-3.68,2.13-1.04,6-2.94c.67-.33.9-1.21.53-1.97-.37-.76-1.21-1.12-1.87-.8l-6.01,2.94-2.13,1.04-1.52-3.1,15.13-7.41,7.4,15.13-15.13,7.41-1.39-2.83,2.11-1.03,6.01-2.94c.66-.32.9-1.2.53-1.96Zm13.21,27.1c-.37-.76-1.21-1.12-1.87-.8l-6,2.94-2.08,1.02-1.8-3.68,2.09-1.02,6-2.94c.66-.32.9-1.2.53-1.97-.37-.76-1.21-1.11-1.87-.79l-6,2.94-2.09,1.02-1.5-3.07,15.13-7.41,7.41,15.13-15.13,7.41-1.4-2.87,2.08-1.02,6-2.94c.67-.33.9-1.21.53-1.97Zm13.22,27.1c-.37-.76-1.21-1.12-1.88-.79l-6,2.94-2.04,1-1.8-3.68,2.05-1.01,6-2.94c.66-.32.9-1.21.53-1.97-.37-.76-1.21-1.12-1.87-.79l-6,2.94-2.06,1.01-1.49-3.04,15.13-7.41,7.41,15.13-15.13,7.41-1.42-2.9,2.04-1,6-2.94c.66-.32.9-1.2.53-1.96Zm13.22,27.1c-.37-.76-1.21-1.11-1.87-.79l-6.01,2.94-2,.98-1.8-3.68,2.01-.98,6-2.94c.66-.32.9-1.2.53-1.97-.37-.76-1.21-1.12-1.87-.79l-6,2.94-2.01.98-1.47-3.01,15.13-7.41,7.41,15.13-15.13,7.41-1.43-2.92,2-.98,6.01-2.94c.66-.32.9-1.21.53-1.97Zm13.21,27.1c-.37-.76-1.21-1.12-1.87-.79l-6,2.94-1.97.96-1.8-3.68,1.98-.97,6-2.94c.66-.33.9-1.21.53-1.97-.37-.76-1.21-1.11-1.87-.79l-6,2.94-1.98.97-1.46-2.99,15.13-7.41,7.41,15.13-15.13,7.41-1.45-2.96,1.97-.96,6-2.94c.66-.32.9-1.2.53-1.97Zm13.22,27.1c-.37-.76-1.21-1.11-1.87-.79l-6,2.94-1.93.94-1.8-3.68,1.94-.95,6-2.93c.66-.32.9-1.2.53-1.97-.37-.76-1.21-1.12-1.87-.79l-6,2.93-1.94.95-1.44-2.95,15.13-7.41,7.41,15.13-15.13,7.41-1.46-2.99,1.93-.94,6-2.94c.66-.32.9-1.21.53-1.97Zm13.21,27.1c-.37-.76-1.21-1.12-1.87-.79l-6,2.94-1.89.93-1.8-3.68,1.9-.93,6-2.94c.66-.33.9-1.21.53-1.97-.37-.76-1.21-1.11-1.87-.79l-6,2.94-1.9.93-1.43-2.93,15.13-7.41,7.41,15.13-15.13,7.41-1.48-3.02,1.89-.92,6-2.94c.66-.32.9-1.2.53-1.97Zm13.22,27.1c-.37-.76-1.21-1.11-1.87-.79l-6,2.94-1.85.91-1.8-3.68,1.86-.91,6-2.94c.67-.33.9-1.21.53-1.97-.37-.76-1.21-1.12-1.87-.8l-6,2.94-1.87.91-1.42-2.9,15.13-7.41,7.41,15.13-15.13,7.41-1.48-3.03,1.85-.91,6-2.94c.66-.32.9-1.21.53-1.97Z" fill="#020617" mix-blend-mode="hard-light" opacity=".33" stroke-width="0"/>
          <g>
            <path d="m1741.76,584.32l-339.82,166.3c-7.42,3.63-10.39,12.79-6.64,20.46l241.49,493.47c3.75,7.67,12.81,10.94,20.23,7.31l339.82-166.3c7.42-3.63,10.39-12.79,6.64-20.46l-241.49-493.47c-3.75-7.67-12.81-10.94-20.23-7.31Zm-125.64,612.35l-7.41-15.13,15.13-7.41,7.41,15.13-15.13,7.41Zm20.99,4.57l7.41,15.13-15.13,7.41-7.41-15.13,15.13-7.41Zm-34.26-31.68l-7.41-15.13,15.13-7.41,7.41,15.13-15.13,7.41Zm-13.27-27.11l-7.41-15.13,15.13-7.41,7.41,15.13-15.13,7.41Zm-13.27-27.11l-7.41-15.13,15.13-7.41,7.41,15.13-15.13,7.41Zm-13.27-27.11l-7.41-15.13,15.13-7.41,7.41,15.13-15.13,7.41Zm-13.27-27.11l-7.41-15.13,15.13-7.41,7.41,15.13-15.13,7.41Zm-13.27-27.11l-7.4-15.13,15.13-7.41,7.4,15.13-15.13,7.41Zm-13.27-27.11l-7.41-15.13,15.13-7.41,7.41,15.13-15.13,7.41Zm-13.27-27.11l-7.41-15.13,15.13-7.41,7.41,15.13-15.13,7.41Zm-13.27-27.11l-7.4-15.13,15.13-7.41,7.4,15.13-15.13,7.41Zm-13.27-27.11l-7.41-15.13,15.13-7.41,7.41,15.13-15.13,7.41Zm-13.27-27.11l-7.41-15.13,15.13-7.41,7.41,15.13-15.13,7.41Zm-13.27-27.11l-7.4-15.13,15.13-7.41,7.4,15.13-15.13,7.41Zm-13.27-27.11l-7.41-15.13,15.13-7.41,7.41,15.13-15.13,7.41Zm-13.27-27.11l-7.41-15.13,15.13-7.41,7.41,15.13-15.13,7.41Z" fill="#14b8a6" stroke-width="0"/>
            <g>
              <rect x="1809.53" y="829.03" width="100.23" height="35.01" rx="11.4" ry="11.4" transform="translate(-170.64 1076.4) rotate(-30.94)" fill="#98ce00" stroke-width="0"/>
              <rect x="1779.15" y="766.95" width="100.23" height="35.01" rx="11.4" ry="11.4" transform="translate(-158.62 883.93) rotate(-26.08)" fill="#ff3562" stroke-width="0"/>
              <rect x="1750.14" y="707.66" width="100.23" height="35.01" rx="11.4" ry="11.4" transform="translate(-140.1 682.47) rotate(-20.68)" fill="#ffc800" stroke-width="0"/>
              <rect x="1725.55" y="657.41" width="100.23" height="35.01" rx="11.4" ry="11.4" transform="translate(-115.92 849.22) rotate(-26.08)" fill="#ff8427" stroke-width="0"/>
              <g>
                <path d="m1735.12,597.13l-322.33,157.74c-8.89,4.35-12.56,15.08-8.21,23.96l231.79,473.63c4.35,8.89,15.08,12.56,23.96,8.21l322.33-157.74c8.89-4.35,12.56-15.08,8.21-23.96l-231.79-473.63c-4.35-8.89-15.08-12.56-23.96-8.22Zm-132.28,572.43l-7.41-15.13,15.13-7.41,7.41,15.13-15.13,7.41Zm21,4.57l7.41,15.13-15.13,7.41-7.41-15.13,15.13-7.41Zm-34.26-31.69l-7.41-15.13,15.13-7.41,7.41,15.13-15.13,7.41Zm-13.27-27.11l-7.41-15.13,15.13-7.41,7.41,15.13-15.13,7.41Zm-13.27-27.11l-7.41-15.13,15.13-7.41,7.41,15.13-15.13,7.41Zm-13.27-27.11l-7.41-15.13,15.13-7.41,7.41,15.13-15.13,7.41Zm-13.27-27.11l-7.4-15.13,15.13-7.41,7.4,15.13-15.13,7.41Zm-13.27-27.11l-7.41-15.13,15.13-7.41,7.41,15.13-15.13,7.41Zm-13.27-27.11l-7.41-15.13,15.13-7.41,7.41,15.13-15.13,7.41Zm-13.27-27.11l-7.4-15.13,15.13-7.41,7.4,15.13-15.13,7.41Zm-13.27-27.11l-7.41-15.13,15.13-7.41,7.41,15.13-15.13,7.41Zm-13.27-27.11l-7.41-15.13,15.13-7.41,7.41,15.13-15.13,7.41Zm-13.27-27.11l-7.4-15.13,15.13-7.41,7.4,15.13-15.13,7.41Zm-13.27-27.11l-7.41-15.13,15.13-7.41,7.41,15.13-15.13,7.41Zm178.35,364.45l15.13-7.41,7.41,15.13-15.13,7.41-7.41-15.13Zm-176.49-398.97l-15.13,7.41-7.41-15.13,15.13-7.41,7.41,15.13Z" opacity=".12" stroke-width="0"/>
                <g>
                  <path d="m1732.15,601.05l-318.54,155.89c-8.8,4.31-12.44,14.93-8.13,23.73l229.99,469.97c4.31,8.8,14.93,12.44,23.73,8.13l318.54-155.89c8.8-4.31,12.44-14.93,8.13-23.72l-229.99-469.97c-4.31-8.8-14.93-12.44-23.72-8.14Zm-87.64,615.32l-15.13,7.41-7.41-15.13,15.13-7.41,7.41,15.13Zm-13.26-27.1l-15.13,7.41-7.41-15.13,15.13-7.41,7.41,15.13Zm-13.27-27.11l-15.13,7.41-7.41-15.13,15.13-7.41,7.41,15.13Zm-13.27-27.11l-15.13,7.41-7.41-15.13,15.13-7.41,7.41,15.13Zm-13.27-27.11l-15.13,7.41-7.41-15.13,15.13-7.41,7.41,15.13Zm-13.27-27.11l-15.13,7.41-7.41-15.13,15.13-7.41,7.41,15.13Zm-13.27-27.11l-15.13,7.41-7.41-15.13,15.13-7.41,7.41,15.13Zm-13.27-27.11l-15.13,7.41-7.4-15.13,15.13-7.41,7.4,15.13Zm-13.27-27.11l-15.13,7.41-7.41-15.13,15.13-7.41,7.41,15.13Zm-13.27-27.11l-15.13,7.41-7.41-15.13,15.13-7.41,7.41,15.13Zm-13.27-27.11l-15.13,7.41-7.4-15.13,15.13-7.41,7.4,15.13Zm-13.27-27.11l-15.13,7.41-7.41-15.13,15.13-7.41,7.41,15.13Zm-13.27-27.11l-15.13,7.41-7.41-15.13,15.13-7.41,7.41,15.13Zm-13.27-27.11l-15.13,7.41-7.4-15.13,15.13-7.41,7.4,15.13Zm-13.27-27.11l-15.13,7.41-7.41-15.13,15.13-7.41,7.41,15.13Zm-13.27-27.11l-15.13,7.41-7.41-15.13,15.13-7.41,7.41,15.13Z" fill="#fafafa" stroke-width="0"/>
                  <g>
                    <path d="m1748.35,650.43l-288.82,141.34c-.05.03-.12,0-.14-.05s0-.12.05-.14l288.82-141.34c.05-.03.12,0,.14.05s0,.12-.05.14Z" stroke-width="0"/>
                    <path d="m1762.78,679.9l-288.82,141.34c-.05.03-.12,0-.14-.05s0-.12.05-.14l288.82-141.34c.05-.03.12,0,.14.05s0,.12-.05.14Z" stroke-width="0"/>
                    <path d="m1777.2,709.38l-288.82,141.34c-.05.03-.12,0-.14-.05s0-.12.05-.14l288.82-141.34c.05-.03.12,0,.14.05s0,.12-.05.14Z" stroke-width="0"/>
                    <path d="m1791.63,738.86l-288.82,141.34c-.05.03-.12,0-.14-.05s0-.12.05-.14l288.82-141.34c.05-.03.12,0,.14.05s0,.12-.05.14Z" stroke-width="0"/>
                    <path d="m1806.05,768.33l-288.82,141.34c-.05.03-.12,0-.14-.05s0-.12.05-.14l288.82-141.34c.05-.03.12,0,.14.05s0,.12-.05.14Z" stroke-width="0"/>
                    <path d="m1820.48,797.81l-288.82,141.34c-.05.03-.12,0-.14-.05s0-.12.05-.14l288.82-141.34c.05-.03.12,0,.14.05s0,.12-.05.14Z" stroke-width="0"/>
                    <path d="m1834.9,827.28l-288.82,141.34c-.05.03-.12,0-.14-.05s0-.12.05-.14l288.82-141.34c.05-.03.12,0,.14.05s0,.12-.05.14Z" stroke-width="0"/>
                    <path d="m1849.32,856.76l-288.82,141.34c-.05.03-.12,0-.14-.05s0-.12.05-.14l288.82-141.34c.05-.03.12,0,.14.05s0,.12-.05.14Z" stroke-width="0"/>
                    <path d="m1863.75,886.23l-288.82,141.34c-.05.03-.12,0-.14-.05s0-.12.05-.14l288.82-141.34c.05-.03.12,0,.14.05s0,.12-.05.14Z" stroke-width="0"/>
                    <path d="m1878.17,915.71l-288.82,141.34c-.05.03-.12,0-.14-.05s0-.12.05-.14l288.82-141.34c.05-.03.12,0,.14.05s0,.12-.05.14Z" stroke-width="0"/>
                    <path d="m1892.6,945.19l-288.82,141.34c-.05.03-.12,0-.14-.05s0-.12.05-.14l288.82-141.34c.05-.03.12,0,.14.05s0,.12-.05.14Z" stroke-width="0"/>
                    <path d="m1907.02,974.66l-288.82,141.34c-.05.03-.12,0-.14-.05s0-.12.05-.14l288.82-141.34c.05-.03.12,0,.14.05s0,.12-.05.14Z" stroke-width="0"/>
                    <path d="m1921.45,1004.14l-288.82,141.34c-.05.03-.12,0-.14-.05s0-.12.05-.14l288.82-141.34c.05-.03.12,0,.14.05s0,.12-.05.14Z" stroke-width="0"/>
                    <path d="m1935.87,1033.61l-288.82,141.34c-.05.03-.12,0-.14-.05s0-.12.05-.14l288.82-141.34c.05-.03.12,0,.14.05s0,.12-.05.14Z" stroke-width="0"/>
                    <path d="m1950.3,1063.09l-288.82,141.34c-.05.03-.12,0-.14-.05s0-.12.05-.14l288.82-141.34c.05-.03.12,0,.14.05s0,.12-.05.14Z" stroke-width="0"/>
                  </g>
                </g>
              </g>
              <g>
                <g>
                  <path d="m1434.9,801.97c.37.76.14,1.64-.53,1.97l-6.01,2.94-5.25,2.56-8.71,4.26-7.25,3.55c-.67.33-1.5-.03-1.87-.79-.37-.76-.14-1.64.53-1.97l7.25-3.55,8.71-4.26,5.25-2.57,6-2.94c.66-.32,1.5.03,1.87.79Z" fill="gray" stroke-width="0"/>
                  <path d="m1438.04,808.41c.37.76.13,1.64-.53,1.97l-6,2.94-5.26,2.57-8.71,4.26-7.25,3.55c-.66.32-1.5-.03-1.87-.79-.37-.77-.14-1.64.53-1.97l7.26-3.55,8.71-4.26,5.25-2.57,6.01-2.94c.66-.32,1.5.03,1.87.79Z" fill="gray" stroke-width="0"/>
                </g>
                <g>
                  <path d="m1448.13,829.06c.37.76.13,1.64-.53,1.97l-6,2.94-5.25,2.57-8.71,4.26-7.25,3.55c-.66.32-1.5-.03-1.87-.79-.37-.77-.14-1.64.53-1.97l7.26-3.55,8.71-4.26,5.25-2.57,6.01-2.94c.66-.33,1.5.03,1.87.79Z" fill="gray" stroke-width="0"/>
                  <path d="m1451.27,835.5c.37.76.14,1.64-.53,1.97l-6,2.94-5.26,2.57-8.71,4.26-7.25,3.55c-.67.33-1.5-.03-1.87-.79-.37-.76-.13-1.64.53-1.97l7.25-3.55,8.71-4.26,5.25-2.57,6-2.94c.66-.32,1.5.03,1.87.79Z" fill="gray" stroke-width="0"/>
                </g>
                <g>
                  <path d="m1461.33,856.17c.37.76.14,1.64-.53,1.97l-6,2.94-5.26,2.57-8.71,4.26-7.25,3.55c-.66.32-1.5-.03-1.87-.79-.37-.76-.14-1.64.53-1.97l7.25-3.55,8.71-4.26,5.26-2.57,6-2.93c.66-.32,1.5.03,1.87.79Z" fill="gray" stroke-width="0"/>
                  <path d="m1464.47,862.62c.37.76.13,1.64-.53,1.97l-6,2.94-5.25,2.57-8.71,4.26-7.25,3.55c-.66.32-1.5-.03-1.87-.79-.38-.77-.14-1.64.53-1.97l7.26-3.55,8.71-4.26,5.26-2.57,6-2.94c.66-.33,1.5.03,1.87.8Z" fill="gray" stroke-width="0"/>
                </g>
                <g>
                  <path d="m1474.55,883.28c.37.76.13,1.64-.53,1.96l-6.01,2.94-5.25,2.57-8.71,4.26-7.26,3.55c-.66.32-1.5-.03-1.87-.8-.37-.76-.14-1.64.53-1.96l7.25-3.55,8.71-4.26,5.25-2.57,6.01-2.94c.66-.33,1.5.03,1.87.79Z" fill="gray" stroke-width="0"/>
                  <path d="m1477.68,889.72c.37.76.14,1.64-.53,1.97l-6,2.94-5.26,2.57-8.71,4.26-7.25,3.55c-.66.32-1.5-.03-1.87-.79-.37-.76-.13-1.64.53-1.97l7.25-3.55,8.71-4.26,5.25-2.57,6-2.94c.66-.32,1.5.03,1.87.79Z" fill="gray" stroke-width="0"/>
                </g>
                <g>
                  <path d="m1487.76,910.38c.37.76.14,1.64-.53,1.97l-6,2.94-5.25,2.57-8.71,4.26-7.25,3.55c-.66.32-1.5-.03-1.87-.79-.37-.76-.14-1.65.53-1.97l7.26-3.55h0s8.7-4.26,8.7-4.26l5.25-2.57,6-2.94c.67-.33,1.5.03,1.87.79Z" fill="gray" stroke-width="0"/>
                  <path d="m1490.9,916.82c.37.76.13,1.64-.53,1.96l-6,2.94-5.25,2.57-8.71,4.26-7.26,3.55c-.66.32-1.5-.03-1.87-.8-.38-.76-.14-1.64.53-1.97l7.25-3.55,8.71-4.26,5.25-2.57,6-2.94c.66-.33,1.5.03,1.87.79Z" fill="gray" stroke-width="0"/>
                </g>
                <g>
                  <path d="m1500.98,937.48c.37.76.13,1.64-.53,1.96l-6,2.94-5.26,2.57-8.71,4.26-7.25,3.55c-.66.33-1.5-.02-1.87-.79-.37-.76-.13-1.64.53-1.96l7.25-3.55,8.71-4.26,5.25-2.57,6-2.94c.66-.32,1.5.03,1.88.8Z" fill="gray" stroke-width="0"/>
                  <path d="m1504.11,943.92c.37.76.14,1.64-.53,1.97l-6,2.94-5.25,2.57-8.71,4.26-7.25,3.55c-.66.32-1.5-.03-1.87-.79-.37-.76-.14-1.64.53-1.97l7.25-3.55h0s8.7-4.26,8.7-4.26l5.26-2.57,6-2.93c.67-.33,1.5.03,1.87.79Z" fill="gray" stroke-width="0"/>
                </g>
                <g>
                  <path d="m1514.19,964.58c.37.76.14,1.64-.53,1.97l-6,2.94-5.25,2.57-8.71,4.26-7.25,3.55c-.66.32-1.5-.03-1.87-.79-.37-.76-.14-1.64.53-1.97l7.25-3.55,8.71-4.26,5.25-2.57,6.01-2.94c.66-.32,1.5.03,1.87.79Z" fill="gray" stroke-width="0"/>
                  <path d="m1517.33,971.02c.37.76.13,1.64-.53,1.96l-6,2.94-5.25,2.57-8.71,4.26-7.26,3.55c-.66.32-1.5-.03-1.87-.8-.37-.76-.14-1.64.53-1.97l7.25-3.55,8.71-4.26,5.25-2.57,6-2.94c.66-.33,1.5.03,1.87.79Z" fill="gray" stroke-width="0"/>
                </g>
                <g>
                  <path d="m1527.4,991.68c.37.77.14,1.64-.53,1.97l-6,2.94-5.25,2.57-8.71,4.26-7.25,3.55c-.66.33-1.5-.03-1.87-.79-.37-.76-.13-1.64.53-1.96l7.25-3.55,8.71-4.26,5.25-2.57,6-2.94c.66-.32,1.5.03,1.87.79Z" fill="gray" stroke-width="0"/>
                  <path d="m1530.54,998.12c.37.76.14,1.64-.53,1.97l-6,2.94-5.25,2.57-8.71,4.26-7.25,3.55c-.66.32-1.5-.03-1.87-.79-.37-.76-.14-1.64.53-1.97l7.25-3.55,8.71-4.26,5.25-2.57,6-2.94c.66-.32,1.5.03,1.87.79Z" fill="gray" stroke-width="0"/>
                </g>
                <g>
                  <path d="m1540.62,1018.78c.37.76.14,1.64-.53,1.97l-6,2.94-5.25,2.57-8.71,4.26-7.25,3.55c-.66.32-1.5-.03-1.87-.79-.37-.76-.14-1.64.53-1.97l7.25-3.55,8.71-4.26,5.25-2.57,6-2.94c.66-.32,1.5.03,1.87.8Z" fill="gray" stroke-width="0"/>
                  <path d="m1543.76,1025.22c.37.76.13,1.64-.53,1.96l-6.01,2.94-5.25,2.57-8.71,4.26-7.25,3.55c-.67.33-1.51-.03-1.88-.8-.37-.76-.13-1.64.53-1.96l7.25-3.55,8.71-4.26,5.25-2.57,6.01-2.94c.66-.33,1.5.03,1.87.79Z" fill="gray" stroke-width="0"/>
                </g>
                <g>
                  <path d="m1553.83,1045.88c.37.77.14,1.64-.53,1.97l-6,2.94-5.25,2.57-8.71,4.26-7.25,3.55c-.66.33-1.5-.03-1.87-.79-.37-.76-.13-1.64.53-1.96l7.25-3.55,8.71-4.26,5.25-2.57,6-2.94c.66-.32,1.5.03,1.87.79Z" fill="gray" stroke-width="0"/>
                  <path d="m1556.97,1052.32c.37.76.14,1.64-.53,1.97l-6,2.94-5.26,2.57-8.71,4.26-7.25,3.55c-.66.32-1.5-.03-1.87-.79-.37-.76-.14-1.64.53-1.97l7.26-3.55,8.71-4.26,5.25-2.57,6-2.94c.66-.32,1.5.03,1.87.8Z" fill="gray" stroke-width="0"/>
                </g>
                <g>
                  <path d="m1567.05,1072.98c.37.76.14,1.64-.53,1.97l-6,2.94-5.26,2.57-8.71,4.26-7.25,3.55c-.66.32-1.5-.03-1.87-.8-.37-.76-.14-1.64.53-1.97l7.25-3.55,8.71-4.26,5.25-2.57,6-2.94c.66-.32,1.5.03,1.87.79Z" fill="gray" stroke-width="0"/>
                  <path d="m1570.19,1079.42c.37.76.13,1.64-.53,1.96l-6,2.94-5.25,2.57-8.71,4.26-7.25,3.55c-.66.33-1.5-.03-1.87-.79-.37-.76-.13-1.64.53-1.96l7.25-3.55,8.71-4.26,5.25-2.57,6-2.94c.66-.32,1.5.03,1.88.79Z" fill="gray" stroke-width="0"/>
                </g>
              </g>
            </g>
          </g>
          <path d="m1694.81,784.1l-24.83-24.14-4.91-4.78c-1.51-1.47-3.96-1.48-5.68-.05-.05.05-.11.09-.16.14l-1.33,1.21-5.85-6.42-1.05-1.16c-1.61-1.77-4.35-1.89-6.11-.29l-1.61,1.47-1.61,1.47c-1.77,1.61-1.89,4.35-.29,6.11l1.05,1.16,5.85,6.42-1.25,1.14c-.05.05-.11.1-.16.15-1.58,1.57-1.8,4.02-.48,5.66l4.3,5.34,11.18,13.89c-.09.15-.17.32-.26.48-.02.04-.04.08-.06.12-.07.15-.15.3-.22.46-.01.03-.02.05-.04.08-.08.19-.16.38-.24.58-.01.03-.03.07-.04.1-.06.17-.13.34-.19.52-.02.05-.04.1-.05.15-.07.21-.14.43-.21.66,0,.01,0,.02,0,.03-.06.21-.12.44-.17.66-.02.06-.03.13-.04.19-.05.21-.09.41-.13.63,0,.04-.02.09-.02.13-.04.26-.08.52-.12.8,0,.02,0,.04,0,.06h0c-.13,1.02-.17,2.14-.11,3.36,0,.04,0,.09,0,.13.71,12.39,12.01,24.08,13.23,25.31,22.84,24.09,45.69,48.19,68.54,72.28.92-1.46,1.79-3.69.79-6.53-1.56-4.44-6.82-8.03-8.64-9.3-21.63-15.15-45.97-46.99-52.7-57.12-.81-1.23-1.67-2.59-2.46-4.05-1.06-1.96-1.98-4.11-2.47-6.32h0c-.17-.74-.29-1.49-.34-2.25-.11-1.39,0-2.59.22-3.61,1.2,1.4,2.42,2.78,3.66,4.14l77.84,85.45,7.52,8.05,10.59,11.32,15.12,16.18c7.63,8.16,15.62,15.96,23.97,23.4l38.87,32.97-.05.05,5.32,3.33c.81.51,1.83.47,2.6-.07l7.49,6.3c.67.56,1.45.45,1.98.03.03-.02.06-.04.08-.07.53-.48.76-1.3.23-2.05l-5.59-8.07c.5-.7.59-1.64.19-2.44l-2.73-5.41.03-.02-29.33-41.94c-6.62-9-13.65-17.69-21.06-26.04l-14.7-16.56-10.29-11.59-7.31-8.23-77.84-85.45c-2.54-2.79-5.18-5.51-7.89-8.15Z" fill="#1a1a1a" opacity=".33" stroke-width="0"/>
          <g>
            <g>
              <rect x="1647.8" y="739.98" width="13.02" height="26.04" rx="4.33" ry="4.33" transform="translate(-77.47 1304.98) rotate(-42.15)" fill="#255cc0" stroke-width="0"/>
              <path d="m1665.09,783.13l14.44,15.95c-.45.74-.98,1.81-1.29,3.25-.22,1.02-.33,2.22-.23,3.61.22,3.01,1.38,5.96,2.79,8.58.78,1.47,1.63,2.83,2.44,4.06,6.7,10.15,30.94,42.06,52.51,57.27,1.81,1.28,7.07,4.88,8.61,9.32.99,2.85.12,5.07-.81,6.53-22.76-24.16-45.53-48.32-68.3-72.48-1.22-1.24-12.48-12.96-13.15-25.35,0-.04,0-.09,0-.13-.2-4.14.85-7.08,1.94-9.01.36-.64.73-1.17,1.05-1.6Z" fill="#ff8427" stroke-width="0"/>
              <path d="m1853.42,963.72l9.42,13.69.12.17,4.29,6.24,5.57,8.08c.52.75.29,1.57-.24,2.05-.03.03-.05.05-.08.07-.53.43-1.32.53-1.98-.03l-7.47-6.32-5.81-4.91-.16-.14-12.69-10.74c-.72-.62-.74-1.73-.04-2.36l6.72-6.08c.7-.64,1.81-.51,2.35.27Z" fill="#e8e8e8" stroke-width="0"/>
              <path d="m1864.65,975.78l.1.19,2.71,5.42c.4.8.31,1.74-.2,2.44-.09.13-.21.26-.33.37l-3.64,3.29c-.08.07-.16.13-.24.19-.77.53-1.79.57-2.6.06l-5.3-3.35,9.51-8.61Z" fill="#eb9532" stroke-width="0"/>
              <path d="m1704.86,785.67l77.56,85.68,7.28,8.26,10.25,11.62,14.65,16.6c7.38,8.37,14.39,17.08,20.98,26.1l29.19,42.02-9.42,8.53-.16-.14-38.75-33.08c-8.32-7.46-16.29-15.29-23.89-23.46l-15.06-16.22-10.55-11.35-7.49-8.07-77.56-85.68c-1.23-1.36-2.45-2.75-3.64-4.15-1.26-1.47-2.5-2.97-3.71-4.49l-10.49-13.11-11.14-13.92-4.28-5.35c-1.31-1.65-1.09-4.09.5-5.66.05-.05.1-.1.16-.15l12.23-11.07c.05-.05.11-.1.16-.14,1.72-1.42,4.17-1.41,5.68.07l4.9,4.79,24.75,24.21c2.7,2.64,5.33,5.37,7.86,8.17Z" fill="#255cc0" stroke-width="0"/>
              <path d="m1672.76,753.86l-19.35,17.51-4.61-5.71c-1.42-1.76-1.27-4.28.31-5.86.05-.05.1-.1.16-.15l12.23-11.07c.05-.05.11-.1.16-.14,1.72-1.42,4.25-1.31,5.86.27l5.23,5.15Z" fill="#ff8427" stroke-width="0"/>
              <polygon points="1789.7 879.6 1799.95 891.23 1777.48 911.57 1766.93 900.22 1789.7 879.6" fill="#ff8427" stroke-width="0"/>
              <path d="m1653.3,742.19l1.05,1.16-9.65,8.74-1.05-1.16c-1.6-1.77-1.47-4.51.3-6.11l3.24-2.93c1.77-1.6,4.51-1.47,6.11.3Z" fill="#ff8427" stroke-width="0"/>
            </g>
            <path d="m1645.57,743.35l226.93,250.68c-.53.43-1.32.53-1.98-.03l-7.47-6.32c-.77.53-1.79.57-2.6.06l-5.3-3.35.05-.05-38.75-33.08c-8.32-7.46-16.29-15.29-23.89-23.46l-15.06-16.22-10.55-11.35-7.49-8.07-77.56-85.68c-1.23-1.36-2.45-2.75-3.64-4.15-.22,1.02-.33,2.22-.23,3.61.06.76.17,1.51.34,2.26l-16.13-17.81c.3-2.42,1.05-4.29,1.82-5.65l-11.14-13.92-4.28-5.35c-1.31-1.65-1.09-4.09.5-5.66.05-.05.1-.1.16-.15l1.25-1.13-6.87-7.59c-1.6-1.77-1.47-4.51.3-6.11l1.62-1.46Z" mix-blend-mode="darken" opacity=".25" stroke-width="0"/>
          </g>
        </g>
      </g>
      <g>
        <g clip-path="url(#clippath-1)">
          <g>
            <path d="m649.26-397.47L915.04,135.84c6.15,12.34,2.26,26.76-8.69,32.22L57.06,591.31c-10.95,5.46-24.81-.12-30.96-12.46L-239.68,45.54c-6.15-12.34-2.26-26.76,8.69-32.22l849.29-423.25c10.95-5.46,24.81.12,30.96,12.46Z" fill="#020617" mix-blend-mode="hard-light" opacity=".33" stroke-width="0"/>
            <path d="m649.31-403.23L915.09,130.08c6.15,12.34,2.44,26.67-8.29,32.02L74.81,576.74c-10.73,5.35-24.41-.32-30.56-12.66L-221.52,30.77c-6.15-12.34-2.44-26.67,8.29-32.02l831.99-414.63c10.73-5.35,24.41.32,30.56,12.66Z" fill="#cbd5e1" stroke-width="0"/>
            <path d="m563.18,333.35l-144.74,72.13c-.04-2.48.34-4.93,1.11-7.25,1.75-5.22,5.49-9.77,10.8-12.41l109.95-54.8c7.68-3.83,16.54-2.64,22.87,2.33Z" fill="#94a3b8" stroke-width="0"/>
            <path d="m625.15,273.64l-291.7,145.37c-11.22,5.59-24.84,1.03-30.43-10.19l-87.2-174.97c-5.59-11.22-1.03-24.84,10.19-30.43L517.71,58.05c11.22-5.59,24.84-1.03,30.43,10.19l87.2,174.97c5.59,11.22,1.03,24.84-10.19,30.43Z" fill="#e2e8f0" stroke-width="0"/>
            <g>
              <path d="m568.35-287.29L-68.55,30.12c-4.49,2.24-9.94.41-12.17-4.08l-6.47-12.98c-2.24-4.49-.41-9.94,4.08-12.17l636.89-317.41c4.49-2.24,9.94-.41,12.17,4.08l6.47,12.98c2.24,4.49.41,9.94-4.08,12.17Z" fill="#1e293b" stroke-width="0"/>
              <rect x="586.85" y="-27.24" width="44.69" height="20.52" rx="4.54" ry="4.54" transform="translate(71.53 269.94) rotate(-26.49)" fill="#1e293b" stroke-width="0"/>
              <rect x="-13.29" y="4.35" width="44.69" height="44.69" rx="9.08" ry="9.08" transform="translate(-10.96 6.84) rotate(-26.49)" fill="#1e293b" stroke-width="0"/>
              <rect x="38.37" y="-21.39" width="44.69" height="44.69" rx="9.08" ry="9.08" transform="translate(5.95 27.18) rotate(-26.49)" fill="#1e293b" stroke-width="0"/>
              <rect x="90.03" y="-47.14" width="44.69" height="44.69" rx="9.08" ry="9.08" transform="translate(22.86 47.52) rotate(-26.49)" fill="#1e293b" stroke-width="0"/>
              <rect x="-20.44" y="248.8" width="44.69" height="44.69" rx="9.08" ry="9.08" transform="translate(-120.74 29.32) rotate(-26.49)" fill="#1e293b" stroke-width="0"/>
              <rect x="31.22" y="223.06" width="44.69" height="44.69" rx="9.08" ry="9.08" transform="translate(-103.84 49.66) rotate(-26.49)" fill="#1e293b" stroke-width="0"/>
              <rect x="82.88" y="197.31" width="44.69" height="44.69" rx="9.08" ry="9.08" transform="translate(-86.93 70) rotate(-26.49)" fill="#1e293b" stroke-width="0"/>
              <rect x="133.76" y="168.27" width="59.5" height="44.69" rx="9.08" ry="9.08" transform="translate(-67.85 92.94) rotate(-26.49)" fill="#1e293b" stroke-width="0"/>
              <rect x="529.8" y="-25.42" width="44.69" height="44.69" rx="9.08" ry="9.08" transform="translate(1044.95 -252.1) rotate(153.51)" fill="#1e293b" stroke-width="0"/>
              <rect x="464.11" y="3.63" width="59.5" height="44.69" rx="9.08" ry="9.08" transform="translate(947.46 -171.06) rotate(153.51)" fill="#1e293b" stroke-width="0"/>
              <path d="m457.67,68.97l-238.17,118.69c-4.49,2.24-9.94.41-12.17-4.08l-11.84-23.75c-2.24-4.49-.41-9.94,4.08-12.17L437.74,28.98c4.49-2.24,9.94-.41,12.17,4.08l11.84,23.75c2.24,4.49.41,9.94-4.08,12.17Z" fill="#1e293b" stroke-width="0"/>
              <rect x="198.98" y="-41.21" width="44.69" height="44.69" rx="9.08" ry="9.08" transform="translate(411 -134.48) rotate(153.51)" fill="#1e293b" stroke-width="0"/>
              <rect x="147.32" y="-15.47" width="44.69" height="44.69" rx="9.08" ry="9.08" transform="translate(324.59 -62.65) rotate(153.51)" fill="#1e293b" stroke-width="0"/>
              <rect x="95.67" y="10.28" width="44.69" height="44.69" rx="9.08" ry="9.08" transform="translate(238.18 9.18) rotate(153.51)" fill="#1e293b" stroke-width="0"/>
              <rect x="44.01" y="36.02" width="44.69" height="44.69" rx="9.08" ry="9.08" transform="translate(151.77 81) rotate(153.51)" fill="#1e293b" stroke-width="0"/>
              <rect x="79.35" y="78.63" width="44.69" height="44.69" rx="9.08" ry="9.08" transform="translate(237.76 145.98) rotate(153.51)" fill="#1e293b" stroke-width="0"/>
              <rect x="130.65" y="53.06" width="44.69" height="44.69" rx="9.08" ry="9.08" transform="translate(323.57 74.65) rotate(153.51)" fill="#1e293b" stroke-width="0"/>
              <rect x="181.95" y="27.5" width="44.69" height="44.69" rx="9.08" ry="9.08" transform="translate(409.38 3.32) rotate(153.51)" fill="#1e293b" stroke-width="0"/>
              <rect x="233.25" y="1.93" width="44.69" height="44.69" rx="9.08" ry="9.08" transform="translate(495.19 -68.01) rotate(153.51)" fill="#1e293b" stroke-width="0"/>
              <rect x="284.55" y="-23.64" width="44.69" height="44.69" rx="9.08" ry="9.08" transform="translate(581 -139.34) rotate(153.51)" fill="#1e293b" stroke-width="0"/>
              <rect x="335.85" y="-49.2" width="44.69" height="44.69" rx="9.08" ry="9.08" transform="translate(666.8 -210.67) rotate(153.51)" fill="#1e293b" stroke-width="0"/>
              <rect x="27.7" y="104.37" width="44.69" height="44.69" rx="9.08" ry="9.08" transform="translate(151.35 217.81) rotate(153.51)" fill="#1e293b" stroke-width="0"/>
              <rect x="-7.65" y="61.76" width="44.69" height="44.69" rx="9.08" ry="9.08" transform="translate(65.36 152.83) rotate(153.51)" fill="#1e293b" stroke-width="0"/>
              <rect x="-71.15" y="141.13" width="94.87" height="44.69" rx="9.08" ry="9.08" transform="translate(27.97 320.36) rotate(153.51)" fill="#1e293b" stroke-width="0"/>
              <rect x="79.82" y="138.62" width="44.69" height="44.69" rx="9.08" ry="9.08" transform="translate(265.4 259.45) rotate(153.51)" fill="#1e293b" stroke-width="0"/>
              <rect x="131.12" y="113.05" width="44.69" height="44.69" rx="9.08" ry="9.08" transform="translate(351.21 188.12) rotate(153.51)" fill="#1e293b" stroke-width="0"/>
              <rect x="182.43" y="87.48" width="44.69" height="44.69" rx="9.08" ry="9.08" transform="translate(437.03 116.78) rotate(153.51)" fill="#1e293b" stroke-width="0"/>
              <rect x="233.74" y="61.91" width="44.69" height="44.69" rx="9.08" ry="9.08" transform="translate(522.86 45.44) rotate(153.51)" fill="#1e293b" stroke-width="0"/>
              <rect x="285.05" y="36.34" width="44.69" height="44.69" rx="9.08" ry="9.08" transform="translate(608.68 -25.9) rotate(153.51)" fill="#1e293b" stroke-width="0"/>
              <rect x="336.36" y="10.77" width="44.69" height="44.69" rx="9.08" ry="9.08" transform="translate(694.51 -97.25) rotate(153.51)" fill="#1e293b" stroke-width="0"/>
              <rect x="387.66" y="-14.8" width="44.69" height="44.69" rx="9.08" ry="9.08" transform="translate(780.33 -168.59) rotate(153.51)" fill="#1e293b" stroke-width="0"/>
              <rect x="438.97" y="-40.37" width="44.69" height="44.69" rx="9.08" ry="9.08" transform="translate(866.16 -239.93) rotate(153.51)" fill="#1e293b" stroke-width="0"/>
              <rect x="-48.75" y="182.41" width="126.09" height="44.69" rx="9.08" ry="9.08" transform="translate(-89.83 27.87) rotate(-26.49)" fill="#1e293b" stroke-width="0"/>
            </g>
            <path d="m681.95-447.38L-276.43,30.24c-4.54,2.26-10.06.42-12.32-4.12h0c-2.26-4.54-.42-10.06,4.12-12.32l958.38-477.62c4.54-2.26,10.06-.42,12.32,4.12h0c2.26,4.54.42,10.06-4.12,12.32Z" fill="#f1f1f2" stroke-width="0"/>
          </g>
          <polygon points="787.3 106.83 736.7 8.1 636.46 59.48 633.71 60.89 630.39 62.59 623.85 65.94 619.88 67.98 617.13 69.38 587.16 84.74 663.81 234.28 784.78 172.27 813.34 157.63 787.3 106.83" fill="#ffc800" stroke-width="0"/>
          <g>
            <path d="m607.74,100.86c-.37.17-.7.19-.98.06-.28-.13-.5-.34-.65-.63-.15-.29-.2-.6-.15-.93.05-.33.26-.58.63-.74,2.32-1.02,4.67-2.17,7.04-3.43,2.37-1.26,4.7-2.59,7-3.96.34-.19.66-.22.97-.08.31.14.54.35.68.64.17.33.2.64.1.94-.1.3-.3.55-.61.75-1.6.98-3.16,1.89-4.67,2.72-1.51.83-3.02,1.62-4.55,2.38-1.52.76-3.13,1.52-4.82,2.29Zm5.05-3.43c-.15-.38-.15-.71,0-1,.15-.29.37-.51.68-.67.29-.15.61-.2.95-.15.34.05.58.26.73.64l8.4,18.08c.17.37.18.7.03.99s-.37.51-.66.66c-.31.16-.63.21-.97.17s-.59-.25-.75-.63l-8.4-18.08Z" stroke-width="0"/>
            <path d="m634.26,84.91c.25.02.46.1.63.22.17.12.31.28.41.49.1.19.14.4.12.62s-.08.43-.2.62c-.12.19-.28.34-.49.44-.07.04-.19.06-.35.08-.16.02-.36.04-.58.07-.21.02-.42.05-.65.1s-.45.11-.67.19c-.22.08-.42.17-.61.26-.83.42-1.51,1.03-2.06,1.84s-.93,1.73-1.15,2.76c-.22,1.03-.27,2.11-.14,3.22.13,1.12.46,2.19.98,3.23.8,1.59,1.79,2.89,2.95,3.9s2.39,1.66,3.67,1.95c1.28.28,2.48.14,3.6-.42.79-.4,1.44-.99,1.95-1.77.51-.78.85-1.67,1.04-2.67.19-1,.2-2.06.04-3.16-.16-1.1-.5-2.18-1.03-3.23-.36-.71-.84-1.43-1.44-2.18s-1.26-1.42-1.97-2.03c-.71-.61-1.39-1.07-2.05-1.38-.21-.11-.41-.23-.6-.35-.19-.12-.34-.29-.46-.52-.17-.33-.2-.66-.1-1,.1-.34.3-.59.61-.75.12-.06.25-.1.39-.12.14-.02.28-.02.42,0,.14.02.26.05.38.1.92.36,1.82.88,2.71,1.57.89.69,1.72,1.48,2.49,2.38.77.9,1.42,1.87,1.94,2.9.75,1.48,1.23,2.95,1.45,4.4.21,1.45.18,2.82-.11,4.12-.29,1.29-.82,2.45-1.59,3.47-.77,1.02-1.78,1.84-3.02,2.47-1.19.6-2.43.89-3.71.87-1.28-.02-2.53-.33-3.77-.92-1.23-.59-2.38-1.43-3.46-2.52-1.07-1.09-1.99-2.4-2.76-3.92-.71-1.4-1.14-2.82-1.3-4.28-.16-1.46-.07-2.84.27-4.17.34-1.32.91-2.51,1.71-3.56.8-1.05,1.81-1.89,3.04-2.51.6-.3,1.19-.53,1.77-.67s1.15-.19,1.71-.15Z" stroke-width="0"/>
            <path d="m663.6,94.02c-.82-1.84-1.62-3.69-2.41-5.56-.78-1.87-1.57-3.74-2.37-5.61-.49-1.18-.99-2.36-1.51-3.53s-1.05-2.33-1.61-3.47c-.12-.24-.16-.5-.11-.77.05-.27.18-.51.41-.71.34-.28.68-.54,1.03-.79.35-.25.7-.49,1.05-.71.35-.22.7-.44,1.04-.64.34-.2.67-.39,1-.56,1.76-.89,3.42-1.4,4.98-1.53,1.56-.13,3,.04,4.32.51,1.32.47,2.48,1.17,3.49,2.11,1,.93,1.81,2.01,2.43,3.24.67,1.33,1.09,2.76,1.25,4.29.16,1.53.02,3.07-.42,4.6-.44,1.53-1.21,2.97-2.31,4.3-1.1,1.34-2.57,2.47-4.42,3.41-.54.27-1.09.51-1.66.73-.57.21-1.18.41-1.81.57-.09.13-.19.25-.31.35-.12.1-.25.19-.39.26-.28.14-.58.18-.91.13-.33-.05-.58-.26-.77-.62Zm1.76-2.55c.18-.03.4-.08.65-.17s.52-.18.81-.3c.29-.11.57-.23.83-.34s.49-.21.66-.3c1.19-.6,2.23-1.37,3.11-2.3.88-.93,1.56-1.99,2.03-3.16.47-1.17.68-2.42.62-3.74-.05-1.33-.43-2.68-1.13-4.06-.65-1.29-1.45-2.28-2.37-2.96-.93-.68-1.92-1.12-2.98-1.32-1.06-.2-2.1-.21-3.14-.04-1.04.18-1.99.48-2.85.92-.36.18-.74.39-1.13.62-.39.23-.76.46-1.11.69s-.65.44-.9.63c.5,1.07.98,2.13,1.44,3.17.46,1.04.92,2.09,1.38,3.14.46,1.05.9,2.1,1.35,3.15.45,1.05.9,2.1,1.35,3.15.45,1.05.91,2.12,1.38,3.2Z" stroke-width="0"/>
            <path d="m686.29,58.52c.29-.06.55-.04.77.08.22.12.39.29.5.51.07.14.11.3.13.49.02.18,0,.37-.08.56s-.17.35-.32.5c-.14.15-.35.26-.62.33-.27.03-.61.09-1.03.18-.42.09-.91.28-1.48.57-1.12.57-2,1.33-2.63,2.29-.63.96-1.03,2.02-1.21,3.2-.18,1.17-.16,2.36.05,3.57.21,1.21.58,2.34,1.12,3.41.51,1,1.12,1.88,1.84,2.64.72.76,1.51,1.36,2.38,1.79.87.43,1.78.64,2.73.65.96,0,1.92-.24,2.91-.74,1.19-.6,2.11-1.46,2.77-2.59.66-1.12.96-2.44.92-3.96s-.51-3.16-1.41-4.94c-.51-1-1.08-1.88-1.71-2.63-.63-.75-1.25-1.38-1.87-1.87-.62-.49-1.14-.84-1.57-1.06-.29-.16-.53-.28-.71-.37-.18-.09-.31-.24-.41-.43-.08-.16-.12-.32-.13-.51,0-.18.02-.37.08-.56.06-.19.14-.36.25-.5.11-.14.24-.25.38-.32.28-.14.54-.18.8-.11.26.06.52.17.78.32s.5.29.72.42c1.2.67,2.3,1.57,3.28,2.69s1.81,2.36,2.48,3.68c.72,1.42,1.19,2.85,1.43,4.31s.23,2.87-.04,4.23c-.27,1.36-.81,2.59-1.64,3.7-.83,1.11-1.94,2.02-3.33,2.73-1.16.58-2.29.91-3.4.99-1.11.07-2.17-.05-3.18-.37-1.01-.32-1.95-.79-2.81-1.39-.87-.6-1.64-1.3-2.31-2.1-.67-.8-1.22-1.62-1.65-2.46-.7-1.38-1.15-2.85-1.35-4.4-.2-1.56-.14-3.09.18-4.59.32-1.51.9-2.87,1.74-4.1.84-1.23,1.96-2.2,3.36-2.9.47-.24.98-.44,1.55-.61.57-.17,1.14-.28,1.72-.33Z" stroke-width="0"/>
            <path d="m701.43,61.71c-.55.28-1.08.35-1.59.22-.51-.13-.9-.46-1.17-1-.17-.33-.18-.67-.04-1.04.14-.36.41-.65.81-.85.47-.24.94-.27,1.43-.1.49.17.84.47,1.07.92.12.24.18.48.17.73s-.06.46-.17.66c-.11.2-.27.35-.5.46Zm5.07,11.64c-.45.23-.9.29-1.35.2-.45-.1-.77-.34-.96-.72-.23-.45-.28-.89-.15-1.32.13-.43.41-.76.84-.98.41-.21.83-.24,1.26-.08.42.15.74.43.94.83.19.38.23.78.12,1.19-.11.42-.35.71-.69.89Z" stroke-width="0"/>
            <path d="m644.58,169.75c-.43.22-.8.24-1.11.06-.31-.18-.5-.37-.58-.57-1.16-3.07-2.39-6.11-3.68-9.11s-2.62-5.88-4-8.65c-.16-.35-.24-.64-.24-.87,0-.23.08-.43.26-.62.18-.19.44-.39.78-.61,1.24-.8,2.5-1.57,3.76-2.29,1.27-.73,2.55-1.43,3.85-2.11.33-.17.65-.19.96-.06.31.12.55.34.73.64.17.3.2.62.07.94-.13.33-.34.56-.63.71-1.15.6-2.28,1.23-3.4,1.88-1.12.65-2.25,1.32-3.38,2,.54,1.11,1.08,2.25,1.62,3.42.54,1.17,1.05,2.32,1.54,3.46.84-.49,1.71-.99,2.63-1.51.92-.52,2.03-1.11,3.34-1.77.31-.16.62-.18.93-.06.31.12.55.32.72.62.17.3.21.63.1.97-.11.35-.31.59-.6.74-1.35.68-2.49,1.28-3.45,1.79-.95.51-1.85,1.02-2.68,1.5.55,1.3,1.08,2.58,1.57,3.82.5,1.24,1.02,2.56,1.55,3.96.17.37.17.71.02,1.01-.15.3-.38.53-.69.69Z" stroke-width="0"/>
            <path d="m647.93,143.74c-.24-.48-.28-.97-.12-1.45.17-.49.5-.85,1-1.11.5-.25.99-.29,1.46-.12.48.17.85.51,1.11,1.03.15.29.21.6.2.91-.02.31-.1.59-.26.85-.15.25-.38.45-.67.6-.59.3-1.12.38-1.61.26-.48-.12-.86-.44-1.12-.96Zm3.35,5.46c-.07-.27-.04-.53.11-.79.14-.25.35-.45.63-.59.38-.19.74-.24,1.08-.14.34.1.59.34.74.72.49,1.36.98,2.6,1.46,3.73.48,1.13.96,2.19,1.42,3.16.46.98.91,1.93,1.35,2.86.44.93.85,1.87,1.25,2.82.16.35.17.69.05,1-.12.31-.35.55-.68.72-.41.21-.79.24-1.12.1-.33-.14-.61-.46-.84-.96-.17-.41-.42-1-.77-1.75-.35-.75-.75-1.6-1.19-2.55-.45-.95-.9-1.92-1.36-2.94-.46-1.01-.88-1.99-1.25-2.93s-.67-1.75-.87-2.45Z" stroke-width="0"/>
            <path d="m675.27,154.22c-.19.1-.4.16-.64.18-.24.02-.46-.01-.66-.11-.2-.09-.35-.27-.46-.52-.45-1.22-.88-2.41-1.29-3.55-.42-1.14-.91-2.29-1.49-3.42-.42-.83-.87-1.57-1.35-2.21s-.97-1.12-1.48-1.41c-.51-.3-1-.32-1.49-.08-.67.34-1.18.95-1.53,1.83-.35.88-.45,2.13-.33,3.76.05.58.12,1.15.2,1.7.08.56.17,1.11.27,1.65.1.55.22,1.1.35,1.66.06.21.14.46.24.76s.19.61.29.93c.1.32.19.63.29.92.1.3.17.55.21.77.09.43.07.79-.07,1.09-.13.29-.35.51-.64.66-.38.19-.71.23-.98.12-.27-.11-.5-.32-.67-.62-.04-.09-.09-.18-.12-.28s-.08-.22-.14-.37c-.05-.15-.11-.32-.17-.53-.3-1.06-.66-2.19-1.07-3.37-.42-1.19-.93-2.38-1.53-3.57-.21-.41-.47-.9-.78-1.46-.31-.56-.62-1.08-.92-1.58-.3-.5-.52-.86-.68-1.09-.08-.16-.15-.35-.21-.58s-.05-.46.04-.69c.09-.23.3-.43.63-.59.31-.16.58-.21.82-.17.24.04.46.16.67.36.12.11.27.29.44.52.17.24.35.5.53.79.18.29.33.57.47.83.14.27.25.49.33.66,0-.93.09-1.81.26-2.63.17-.82.47-1.56.91-2.22.44-.65,1.04-1.18,1.82-1.57.81-.41,1.59-.56,2.33-.45.74.11,1.43.41,2.07.89.64.48,1.23,1.07,1.76,1.77.53.71,1,1.46,1.4,2.25.29.57.57,1.18.85,1.83.28.65.54,1.3.79,1.95.25.65.49,1.28.7,1.89.21.61.41,1.16.59,1.65.15.38.16.71.04.99-.12.28-.33.49-.62.64Z" stroke-width="0"/>
            <path d="m676.58,144.61c-.47-.93-.8-1.89-.97-2.89-.18-.99-.17-1.97.02-2.92s.59-1.83,1.19-2.63c.6-.8,1.45-1.48,2.53-2.03.45-.23.91-.41,1.38-.55.47-.14.96-.23,1.46-.27-.43-1.06-.84-2.13-1.25-3.2-.4-1.07-.81-2.24-1.24-3.5-.05-.19-.05-.37.02-.54.06-.17.16-.33.3-.47.13-.14.29-.26.46-.35.41-.21.78-.23,1.1-.07.32.16.6.49.85.97.12.24.3.72.55,1.43.24.71.52,1.52.83,2.41.31.89.61,1.73.9,2.52.45,1.18.95,2.35,1.5,3.51.55,1.16,1.15,2.37,1.79,3.63.45.88.9,1.75,1.36,2.59.46.85.92,1.69,1.39,2.52.2.35.22.68.07.97-.15.29-.38.52-.67.66-.33.17-.66.22-.98.17-.33-.05-.59-.25-.79-.61-.13-.26-.27-.52-.41-.78-.14-.26-.29-.54-.45-.83-.16-.29-.32-.58-.5-.89.1,1.27.01,2.43-.26,3.46-.28,1.04-.93,1.82-1.97,2.35-.78.39-1.57.53-2.37.4-.8-.13-1.57-.44-2.3-.95s-1.4-1.12-2.01-1.84c-.6-.72-1.11-1.48-1.51-2.28Zm2.24-1.49c.52,1.02,1.08,1.85,1.7,2.5.62.65,1.22,1.09,1.81,1.33.58.24,1.08.25,1.5.04.47-.24.78-.69.93-1.37.16-.67.2-1.49.13-2.44-.07-.95-.23-1.94-.49-2.95-.14-.62-.28-1.18-.41-1.68-.13-.5-.28-.97-.44-1.42s-.34-.91-.53-1.37c-.3,0-.61.03-.91.07-.3.04-.6.11-.89.19-.29.08-.58.2-.85.33-.62.31-1.16.78-1.62,1.39-.46.61-.71,1.36-.76,2.25-.05.89.23,1.93.83,3.12Z" stroke-width="0"/>
            <path d="m698.87,125.25c-.08-.29-.05-.55.09-.79.14-.24.34-.43.62-.57.29-.15.6-.2.93-.15s.59.27.79.67c.1.19.2.45.3.79.11.34.23.73.37,1.18.15-1.16.48-2.13.99-2.9.51-.78,1.16-1.37,1.98-1.78.78-.39,1.55-.57,2.33-.54.77.03,1.51.23,2.22.6s1.35.86,1.93,1.48c.58.62,1.07,1.3,1.45,2.06.46.92.76,1.88.9,2.91.14,1.02.11,2.02-.1,2.99-.2.97-.59,1.85-1.15,2.65s-1.3,1.42-2.21,1.88c-.38.19-.84.35-1.38.49-.54.13-1.05.19-1.54.18-.35-.02-.67-.09-.94-.22-.27-.13-.47-.32-.59-.56-.16-.31-.19-.61-.1-.91.09-.29.27-.51.55-.65.14-.07.3-.11.49-.13.19-.02.39-.03.6-.03.28-.01.58-.03.91-.06.33-.03.66-.12.99-.29.52-.26.93-.65,1.25-1.17.31-.52.52-1.11.61-1.77.1-.67.09-1.35-.03-2.05-.12-.7-.33-1.37-.66-2.01-.67-1.33-1.4-2.19-2.19-2.58-.78-.39-1.59-.38-2.42.04-.85.43-1.41,1.08-1.7,1.95-.29.87-.39,1.86-.32,2.96.07,1.1.22,2.24.44,3.4.35.99.76,2.01,1.24,3.06.48,1.05.97,2.06,1.49,3.03.51.98,1,1.85,1.46,2.64.21.33.41.72.62,1.18.2.46.35.93.45,1.4.1.47.1.9.02,1.29-.08.39-.31.68-.67.86-.43.22-.84.18-1.21-.12-.38-.3-.72-.7-1.04-1.21-.31-.51-.58-.99-.8-1.42-.58-1.16-1.09-2.19-1.51-3.11-.42-.91-.8-1.84-1.14-2.79-.34-.94-.67-2.02-.99-3.22-.38-.89-.78-1.83-1.18-2.82-.4-.99-.79-1.98-1.17-2.98-.38-1-.71-1.95-.99-2.85Z" stroke-width="0"/>
            <path d="m716.22,125.38c-.51-1.02-.84-2.08-.97-3.18-.14-1.1-.09-2.17.12-3.2.22-1.03.61-1.95,1.18-2.77.57-.82,1.31-1.46,2.2-1.91.47-.24.98-.41,1.54-.52.56-.11,1.18-.12,1.86-.03-.13-.39-.15-.71-.04-.95s.32-.45.65-.62c.41-.21.77-.23,1.07-.07.3.16.55.44.75.84.1.19.25.57.45,1.14.2.57.42,1.22.66,1.94.24.72.46,1.42.66,2.08.21.66.36,1.18.46,1.54.21.54.45,1.08.72,1.62.24.48.52.94.82,1.36.3.42.6.74.89.95.29.21.55.26.77.14.24-.12.4-.27.48-.44.08-.17.12-.35.13-.55,0-.2.02-.4.02-.6,0-.26.03-.51.11-.75.07-.24.25-.44.55-.58.28-.14.56-.18.86-.11.29.07.53.27.7.62.1.21.18.45.22.73.04.28.04.58-.02.89-.05.37-.16.75-.33,1.12-.17.38-.39.73-.66,1.05s-.61.59-1.03.79c-.55.28-1.08.41-1.58.38-.5-.03-.98-.19-1.44-.47-.46-.29-.9-.68-1.33-1.18-.11.9-.36,1.75-.76,2.54-.4.8-.98,1.39-1.74,1.77-.83.42-1.64.61-2.43.56-.79-.04-1.54-.26-2.24-.64-.7-.38-1.33-.88-1.89-1.5-.56-.62-1.02-1.29-1.39-2.01Zm2.37-1.29c.28.55.6,1.04.96,1.45.36.41.74.75,1.14,1s.8.4,1.2.45c.4.04.78-.02,1.15-.21.72-.37,1.21-.9,1.46-1.6.25-.7.33-1.52.22-2.45-.1-.93-.32-1.96-.64-3.07-.33-1.11-.71-2.28-1.14-3.48-.48-.13-1-.17-1.56-.12-.56.05-1.08.19-1.54.42-.57.29-1.02.67-1.34,1.13-.33.47-.55.98-.67,1.54s-.16,1.14-.11,1.73.14,1.17.3,1.72c.16.55.35,1.05.58,1.5Z" stroke-width="0"/>
            <path d="m732.31,117.1c-.54-1.07-.86-2.18-.97-3.33-.11-1.15-.02-2.26.27-3.32.28-1.06.75-2.02,1.39-2.88.64-.85,1.43-1.52,2.36-1.99.43-.22.88-.38,1.34-.5.46-.11.95-.16,1.46-.14-.04-.29.02-.51.17-.69.15-.17.31-.3.48-.39.34-.17.66-.24.95-.21s.52.23.7.57l.47.93c.15.08.27.17.36.26.09.09.17.21.24.35.14.28.17.56.11.85l.35.7c.33.66.67,1.31,1.01,1.97.34.66.7,1.34,1.05,2.05.47.93.92,1.89,1.35,2.86s.83,1.95,1.22,2.92c.63,1.59,1.01,3.07,1.15,4.46.14,1.38-.01,2.59-.44,3.62-.43,1.03-1.18,1.82-2.25,2.36-.47.24-1,.42-1.61.54-.61.12-1.28.18-2.02.18-.74,0-1.54-.08-2.39-.24-.22-.04-.41-.12-.58-.22-.17-.11-.3-.25-.39-.42-.09-.17-.13-.37-.13-.58,0-.22.04-.43.13-.64.09-.21.25-.37.47-.48.17-.09.38-.14.61-.17s.48,0,.72.04c.44.06.91.11,1.4.16s.96.04,1.43,0c.46-.05.88-.17,1.26-.36.59-.3.96-.75,1.14-1.36.17-.6.21-1.28.13-2.02-.08-.74-.23-1.45-.44-2.12-.17-.56-.32-1.02-.44-1.39-.12-.36-.23-.69-.34-1-.11-.3-.24-.64-.39-1.02-.04,1.04-.29,1.9-.75,2.59s-1.08,1.23-1.83,1.61c-1.07.54-2.16.73-3.29.57-1.12-.16-2.16-.6-3.13-1.33-.96-.73-1.74-1.67-2.32-2.82Zm7.74,1.35c.64-.32,1.07-.78,1.3-1.37.23-.59.3-1.32.2-2.17-.09-.85-.3-1.81-.63-2.88-.1-.28-.24-.65-.43-1.11-.19-.47-.4-.95-.62-1.44-.22-.5-.41-.93-.58-1.31-.17-.38-.28-.62-.33-.72-.46-.09-.92-.1-1.38-.02-.46.08-.83.19-1.13.34-.64.32-1.16.78-1.56,1.38-.4.59-.68,1.28-.83,2.05-.15.77-.17,1.57-.05,2.4.12.83.37,1.63.76,2.41s.89,1.4,1.5,1.87c.61.47,1.25.76,1.92.87.67.1,1.29.01,1.86-.28Z" stroke-width="0"/>
            <path d="m747.04,109.59c-.43-.85-.75-1.78-.96-2.8s-.26-2.04-.14-3.07c.12-1.02.48-1.99,1.08-2.88.6-.9,1.49-1.65,2.68-2.25.71-.36,1.44-.58,2.2-.67.76-.09,1.46.01,2.1.3s1.16.82,1.54,1.58c.44.88.57,1.79.38,2.73-.19.94-.59,1.87-1.2,2.77-.6.9-1.31,1.74-2.11,2.5-.81.76-1.59,1.4-2.35,1.92.63.94,1.35,1.53,2.17,1.76.82.23,1.69.12,2.61-.34s1.65-1.08,2.2-1.85c.55-.77.98-1.66,1.27-2.67.05-.16.13-.29.23-.41.1-.12.21-.21.34-.27.21-.1.41-.16.62-.17.2,0,.4.04.58.15.18.1.33.26.43.46.06.12.1.28.11.47,0,.19,0,.37-.02.53-.14.85-.45,1.66-.94,2.44-.49.78-1.08,1.47-1.76,2.08-.68.61-1.37,1.09-2.08,1.44-1.33.67-2.57.9-3.71.69-1.15-.21-2.17-.72-3.05-1.54-.89-.82-1.62-1.79-2.19-2.91Zm2.08-1.87c1.04-.77,1.91-1.57,2.61-2.42.7-.85,1.18-1.66,1.45-2.42.27-.77.29-1.38.06-1.85-.16-.31-.45-.52-.87-.63-.42-.11-.97,0-1.65.35-.62.31-1.15.77-1.59,1.36-.44.59-.68,1.34-.73,2.25-.05.91.19,2.04.72,3.38Z" stroke-width="0"/>
          </g>
          <path d="m915.09,130.08l-265.78-533.31c-6.15-12.34-19.83-18.01-30.56-12.66l-86.58,43.15h0l149.78-74.64c4.54-2.26,6.39-7.78,4.12-12.32h0c-2.26-4.54-7.78-6.39-12.32-4.12L-284.63,13.8c-4.54,2.26-6.39,7.78-4.12,12.32h0c2.26,4.54,7.78,6.39,12.32,4.12L-126.66-44.4h0L-213.23-1.25c-4.43,2.21-7.67,5.96-9.5,10.46l-8.26,4.11c-10.95,5.46-14.84,19.88-8.69,32.22L26.1,578.85c6.15,12.34,20.01,17.92,30.96,12.46L906.35,168.06c8.1-4.04,12.33-12.98,11.5-22.35.65-5.03-.2-10.5-2.76-15.62Z" fill="#111827" mix-blend-mode="multiply" opacity=".5" stroke-width="0"/>
        </g>
        <path d="m1789.88,329.09l28.76,35.53c2.78,3.43,6.68,5.41,10.75,5.84,4.07.43,8.3-.69,11.73-3.47.25-.2.49-.41.72-.63.26-.18.51-.37.76-.58.25-.2.49-.41.72-.63.26-.18.51-.38.76-.58,6.86-5.55,7.92-15.62,2.37-22.48l-28.76-35.53c.46-.49.93-.98,1.39-1.48,51.19-46.94,57.64-126.23,13.35-180.94-46.04-56.88-129.48-65.66-186.36-19.62-5.26,4.26-10.11,8.84-14.54,13.69-51.19,46.94-57.64,126.23-13.35,180.94,42.22,52.16,115.89,63.86,171.68,29.94Z" fill="#111827" mix-blend-mode="multiply" opacity=".5" stroke-width="0"/>
        <path d="m314.67,734.45c-3.06-15.34-18.14-25.3-33.6-22.21l-95.94,19.17c-4.99,1-9.41,3.24-13.02,6.32-10.88,4.53-17.66,15.85-16.24,27.78.09.74.21,1.49.36,2.23l4.09,19.99h0c-.68.16-1.12.83-.98,1.52l2.01,9.86c.14.68.81,1.13,1.49,1.01h0s1.57,7.69,1.57,7.69h0c-.67.23-1.1.93-.95,1.65l2.62,12.8c.15.71.81,1.19,1.52,1.14h0s.61,2.99.61,2.99h0c-.67.23-1.1.93-.95,1.65l2.62,12.8c.15.72.81,1.19,1.52,1.14h0s36.08,176.59,36.08,176.59c2.12,10.35,9.95,18.07,19.53,20.54,5.88,3.5,13.05,4.92,20.29,3.47l95.94-19.17c15.46-3.09,25.55-18.08,22.48-33.42l-51.06-255.53Z" fill="#111827" mix-blend-mode="multiply" opacity=".5" stroke-width="0"/>
        <path d="m1268.33,122.74c-.81-2.82-1.98-5.14-3.72-6.97h0c-3-3.15-7.69-4.87-15.2-5.24-9.94-.49-17.39,3.54-20.19,5.35h0s-.31-.79-.31-.79c-.1-.26-.26-.49-.45-.67-.2-.19-.44-.33-.7-.41-3.52-1.14-7.21-2.05-10.93-2.09-.31,0-.61,0-.92,0,.02,0,.03,0,.05,0-2.69.06-5.45.6-7.33,2.67-2.55,2.81-3.75,7.01-4.97,10.54-1.32,3.85-2.09,8.06-.14,11.67.3,1.52.94,2.98,2.06,4.32,1.64,1.97,3.82,3.54,6.2,4.76,2.38,1.22,4.96,2.1,7.41,2.68.07.02.14.02.2.03-.01,0-.02,0-.03,0,.09.02.18.02.27.03.09,0,.18.02.27.03.13,0,.25-.01.38-.03.08,0,.17-.01.25-.03.14-.03.27-.07.41-.12.07-.02.13-.03.2-.06.2-.08.39-.18.56-.3l.45-.3c.43.79.95,1.12.95,1.12,0,0,7.34,6.88,18.02,6.1,0,0,0,0,0,0-.88,2.5-2.94,6.62-7.81,12.35-6.83,8.04-12.74,15.88-14.87,18.74-.41.55-.39,1.29.01,1.81,0,0-.56.6-.87,1.69,0,0,0,.02,0,.02,0,0,0,0,0,0-.02.06-.02.11-.03.17,0,.05-.02.09-.03.14,0,.06,0,.12,0,.18,0,.05,0,.09,0,.14,0,.07.02.14.04.21,0,.04.01.07.02.11.03.1.07.2.12.3v.04c-.06.15-.09.3-.11.45,0,0,0,0,0,0,0,.01,0,.02,0,.04-.02.2-.02.41,0,.6,0,.03,0,.05,0,.08.03.2.08.39.15.58.01.04.03.07.04.11.08.18.17.36.29.53.02.03.04.05.06.08.13.17.27.33.44.47h.01c-.01.08-.03.15-.04.22,0,0,0,0,0,0,0,.01,0,.02,0,.04-.02.2-.02.4,0,.6,0,.03,0,.05,0,.08.03.2.08.39.15.58.01.04.03.07.04.11.08.18.17.36.29.53.02.03.04.05.06.08.13.17.27.33.44.47l5.89,4.83c.68.56,1.58.76,2.43.54l.66-.17h0c.34.16.73.2,1.11.12,1.28-.29,1.99-.95,1.99-.95h0c.65.47,1.57.35,2.07-.3l17.12-21.96c3.26-4.14,6.36-8.45,9.07-12.98,2.08-3.48,3.93-7.08,5.44-10.85,1.77-4.38,3.07-8.95,3.76-13.63.67-4.54,1.69-9.49.66-14.05-.37-1.62-.83-3.09-1.41-4.42Z" fill="#111827" mix-blend-mode="multiply" opacity=".5" stroke-width="0"/>
        <path d="m1195.61,78.59c-1.22-1.35-2.82-2.04-4.53-2.38-.37-.57-.76-1.11-1.21-1.6-1.88-2.08-4.64-2.61-7.33-2.67.02,0,.03,0,.05,0-.31,0-.62,0-.92,0-3.72.04-7.41.95-10.93,2.09-.26.09-.5.23-.7.41-.2.19-.35.42-.45.67l-.31.79h0c-.16-.1-.33-.21-.52-.33-.05-.03-.1-.06-.16-.09-.15-.09-.3-.18-.47-.28-.06-.04-.13-.07-.2-.11-.2-.12-.42-.24-.65-.36-.03-.01-.05-.03-.08-.04-.25-.14-.52-.28-.8-.42-.07-.04-.15-.07-.22-.11-.22-.11-.44-.21-.67-.32-.1-.05-.19-.09-.29-.14-.25-.12-.51-.23-.78-.35-.07-.03-.14-.06-.21-.09-.34-.14-.69-.28-1.05-.42-.09-.03-.18-.07-.27-.1-.28-.11-.57-.21-.86-.31-.13-.04-.25-.09-.38-.13-.29-.1-.59-.19-.9-.29-.11-.03-.22-.07-.34-.1-.41-.12-.83-.24-1.27-.35-.1-.02-.2-.05-.29-.07-.35-.08-.7-.16-1.05-.24-.15-.03-.31-.06-.47-.09-.33-.07-.66-.13-1-.18-.15-.03-.3-.05-.45-.08-.06,0-.12-.02-.18-.03.01,0,.03,0,.04.01-2.07-.31-4.3-.46-6.68-.34-7.51.37-12.2,2.09-15.2,5.24h0c-2.09,2.2-3.36,5.09-4.17,8.71-1.03,4.56,0,9.51.66,14.05.69,4.68,1.99,9.25,3.76,13.63,1.52,3.76,3.37,7.37,5.44,10.85,2.71,4.53,5.81,8.84,9.07,12.98l16.6,21.29h0s.53.68.53.68c.25.32.61.51.98.57.1.01.19,0,.29-.01.28-.01.56-.08.8-.26h0s.36.33,1.02.63c0,0-.01,0-.02,0,.02,0,.04.02.06.02.09.04.18.07.28.11.02,0,.04.02.06.02l1.75,2.24h0s.53.67.53.67c.25.32.61.51.98.57.1.01.2,0,.29-.01.28-.02.56-.08.8-.26h0s.36.33,1.02.63c0,0-.01,0-.02,0,.02,0,.04.02.06.02.09.04.18.07.27.11.05.02.1.04.16.06.14.05.29.09.45.13.02,0,.03,0,.05.01.38.08.77.04,1.11-.12,0,0,0,0,0,0h0,0s.66.17.66.17c.85.22,1.75.02,2.43-.54l5.89-4.83s0,0,0,0h0c.07-.06.14-.13.21-.2.03-.03.06-.06.09-.09.64-.71.87-1.71.6-2.64h0s0,0,0,0h0s0-.04,0-.04c.19-.39.24-.84.12-1.26-.08-.26-.17-.49-.26-.69-.16-.34-.31-.58-.43-.75-.11-.15-.19-.25-.19-.25.18-.23.26-.5.29-.78,0-.04.02-.08.02-.12,0-.06-.02-.13-.03-.19-.01-.1-.01-.19-.04-.28-.05-.15-.12-.3-.23-.44-.88-1.19-2.42-3.24-4.41-5.8-.23-.3-.47-.61-.72-.92-.67-.86-1.38-1.76-2.12-2.7-.3-.38-.61-.77-.93-1.17-.35-.43-.7-.87-1.06-1.32-1.76-2.18-3.66-4.49-5.64-6.82-2.37-2.79-4.07-5.19-5.29-7.21-1.72-2.83-2.51-4.92-2.86-6.25-.23-.84.44-1.64,1.31-1.58,9.42.68,16.23-4.57,17.71-5.83.2-.17.31-.27.31-.27s.03-.02.09-.06c0,0,.02-.02.03-.03.05-.04.11-.09.19-.17.18-.18.42-.46.63-.86l.45.3c.18.12.37.22.56.3.06.03.13.04.2.06.13.05.27.09.41.12.08.02.17.02.25.03.13.01.25.03.38.03.09,0,.18-.02.27-.03s.18,0,.27-.03c-.01,0-.02,0-.03,0,.07-.01.14-.01.2-.03,2.45-.58,5.03-1.46,7.41-2.68,2.38-1.23,4.55-2.8,6.2-4.76,3.28-3.92,2.49-8.86.96-13.3-1.21-3.53-2.42-7.73-4.97-10.54Z" fill="#111827" mix-blend-mode="multiply" opacity=".5" stroke-width="0"/>
        <path d="m1498.04,118.99c4.17-10.45,4.31-22.49-.57-33.6l-18.94-43.12c-9.66-21.99-35.31-31.98-57.3-22.32l-84.84,37.27c-13.63,5.99-22.65,18.13-25.23,31.73-4.15,10.39-4.31,22.36.49,33.42h0s.08.18.08.18c0,0,0,0,0,0l18.94,43.12c9.66,21.99,35.31,31.98,57.3,22.32l84.84-37.27c13.63-5.99,22.65-18.13,25.23-31.73Z" fill="#111827" mix-blend-mode="multiply" opacity=".5" stroke-width="0"/>
        <path d="m1572.01,1078.94c.66-.32.9-1.21.53-1.97-.37-.76-1.21-1.12-1.87-.79l-6,2.94-1.8.88h7.49c0-.08,0-.16-.02-.23l1.69-.83Z" fill="#111827" mix-blend-mode="multiply" opacity=".5" stroke-width="0"/>
        <path d="m1907.33,845.63c5.4-3.24,7.15-10.24,3.92-15.64l-6.28-10.47c-1.44-2.41-3.64-4.09-6.11-4.93-3.45-4.65-9.94-6.02-15.01-2.98l-8.27,4.96-11.31-23.1,12.93-6.33c5.65-2.77,7.99-9.59,5.23-15.25l-5.37-10.97c-1.39-2.84-3.81-4.84-6.58-5.78-3.21-4.32-9.14-5.88-14.15-3.43l-10.08,4.94-9.95-20.32,11.82-4.46c5.89-2.22,8.86-8.8,6.64-14.69l-4.31-11.42c-1.25-3.32-3.89-5.71-7.01-6.77-2.96-3.98-8.29-5.69-13.16-3.86l-11.94,4.51-7.68-15.7,12.93-6.33c5.65-2.77,7.99-9.59,5.23-15.25l-5.37-10.97c-1.39-2.84-3.81-4.84-6.58-5.78-3.21-4.32-9.14-5.88-14.15-3.43l-10.08,4.93-25.19-51.48c-1.72-3.52-4.57-6.1-7.85-7.52-4.45-5.04-11.71-6.78-17.85-3.77l-339.82,166.3c-7.42,3.63-10.39,12.79-6.64,20.46l19.17,39.17-1.41.69-7.25,3.55c-.66.32-.9,1.21-.53,1.97.37.76,1.21,1.12,1.87.79l7.25-3.55,1.42-.69,1.28,2.62-5.82,2.85c-.56.28-.81.96-.65,1.63l-1.69.83c-.66.32-.9,1.2-.53,1.97.37.76,1.21,1.11,1.87.79l7.25-3.55,1.43-.7,1.28,2.62-5.83,2.86c-.66.32-.9,1.2-.53,1.97.37.76,1.21,1.11,1.87.79l5.83-2.85,6.12,12.51-1.43.7-7.26,3.55c-.66.32-.9,1.2-.53,1.97.37.76,1.21,1.11,1.87.79l7.25-3.55,1.44-.7,1.28,2.62-5.84,2.86c-.56.28-.82.95-.65,1.62l-1.69.83c-.66.33-.9,1.21-.53,1.97.37.76,1.21,1.12,1.87.79l7.25-3.55,1.44-.71,1.28,2.62-5.85,2.86c-.66.33-.9,1.21-.53,1.97.37.76,1.21,1.12,1.87.79l5.85-2.86,6.12,12.51-1.49.73-7.25,3.55c-.66.32-.9,1.21-.53,1.97.37.76,1.21,1.11,1.87.79l7.25-3.55,1.49-.73,1.28,2.62-5.9,2.89c-.56.27-.79.95-.63,1.62l-1.71.84c-.66.32-.9,1.2-.53,1.97.37.76,1.21,1.11,1.87.79l7.25-3.55,1.5-.74,1.28,2.62-5.91,2.89c-.66.32-.9,1.2-.53,1.97.37.76,1.21,1.11,1.87.79l5.91-2.89,6.12,12.51-1.53.75-7.25,3.55c-.67.33-.91,1.21-.53,1.96.37.76,1.21,1.12,1.87.8l7.26-3.55,1.53-.75,1.28,2.62-5.93,2.9c-.57.28-.82.96-.65,1.62l-1.69.83c-.66.33-.9,1.21-.53,1.97.37.76,1.21,1.11,1.87.79l7.25-3.55,1.54-.75,1.28,2.62-5.95,2.91c-.66.33-.9,1.21-.53,1.97.37.76,1.21,1.11,1.87.79l5.95-2.91,6.12,12.51-1.56.77h0s-7.26,3.55-7.26,3.55c-.66.32-.9,1.21-.53,1.97.37.76,1.21,1.11,1.87.79l7.25-3.55,1.57-.77,1.28,2.62-5.97,2.93c-.56.27-.79.95-.63,1.61l-1.71.84c-.67.33-.9,1.21-.53,1.97.37.76,1.21,1.12,1.87.8l7.26-3.55,1.58-.77,1.28,2.62-5.98,2.93c-.67.33-.9,1.21-.53,1.97.37.76,1.21,1.12,1.87.8l5.99-2.93,6.12,12.51-1.6.78-7.25,3.55c-.66.32-.9,1.2-.53,1.96.37.77,1.21,1.12,1.87.79l7.25-3.55,1.61-.79,1.29,2.63-6.01,2.94c-.56.28-.82.96-.65,1.62l-1.69.83c-.66.32-.9,1.21-.53,1.97.37.76,1.21,1.11,1.87.79l7.25-3.55,1.62-.79,1.28,2.62-6.02,2.95c-.66.32-.9,1.21-.53,1.97.37.76,1.21,1.11,1.87.79l6.03-2.95,6.12,12.51-1.64.8-7.25,3.55c-.66.32-.9,1.21-.53,1.97.37.76,1.21,1.11,1.87.79l7.25-3.55,1.65-.81,1.28,2.62-6.05,2.96c-.56.27-.79.95-.63,1.61l-1.71.84c-.66.32-.9,1.2-.53,1.97.37.76,1.21,1.12,1.87.8l7.26-3.55,1.65-.81,1.28,2.62-6.06,2.96c-.66.32-.9,1.2-.53,1.97.37.76,1.21,1.12,1.87.8l6.06-2.97,6.12,12.51-1.68.82-7.25,3.55c-.66.32-.9,1.2-.53,1.96.38.77,1.21,1.12,1.87.79l7.25-3.55,1.68-.82,1.29,2.63-6.09,2.98c-.57.28-.82.96-.65,1.62l-1.69.83c-.66.32-.9,1.21-.53,1.97.37.76,1.21,1.11,1.87.79l7.25-3.55,1.69-.83,1.28,2.62-6.1,2.99c-.66.32-.9,1.21-.53,1.97.37.76,1.21,1.11,1.87.79l6.1-2.99,6.12,12.51-1.72.84-7.25,3.55c-.66.32-.9,1.21-.53,1.97.37.76,1.21,1.11,1.87.79l7.25-3.55,1.72-.84,1.28,2.62-6.13,3c-.57.28-.82.96-.65,1.62l-1.69.83c-.66.32-.9,1.2-.53,1.96.37.77,1.21,1.12,1.88.8l7.25-3.55,1.73-.85,1.28,2.62-6.13,3c-.66.32-.9,1.2-.53,1.96.37.77,1.21,1.12,1.88.8l6.14-3,6.12,12.51-1.76.86-7.25,3.55c-.66.32-.9,1.2-.53,1.96.37.77,1.21,1.12,1.87.79l7.25-3.55,1.76-.86,1.29,2.63-6.16,3.02c-.57.28-.82.96-.65,1.62l-1.69.83c-.66.32-.9,1.21-.53,1.97.37.76,1.21,1.11,1.87.79l7.25-3.55,1.77-.87,1.28,2.62-6.17,3.02c-.66.32-.9,1.21-.53,1.97.37.76,1.21,1.11,1.87.79l6.18-3.02,5.59,11.43h16.06l-1.22-2.5,5.21-2.55c.34-.16.56-.48.65-.84l6.22-3.04,4.37,8.93h342.23v-172.68l-26.21-53.57,13.55-8.12Zm-474.14-29.94l-1.27-2.59,5.58-2.73c.56-.28.82-.96.65-1.62l1.69-.83c.66-.32.9-1.21.53-1.97-.37-.76-1.21-1.11-1.87-.79l-6,2.94-2.44,1.19-1.28-2.62,5.59-2.74c.46-.22.69-.71.68-1.24l5.66-2.77,4.77,9.75-12.29,6.01Zm13.27,27.11l-1.28-2.62,5.56-2.72c.56-.27.79-.95.63-1.61l1.71-.84c.67-.33.9-1.21.53-1.97-.38-.76-1.22-1.12-1.87-.79l-6.01,2.94-2.42,1.18-1.28-2.62,5.57-2.73c.45-.22.7-.69.7-1.21l5.68-2.78,4.77,9.75-12.29,6.01Zm21.61,23l-6,2.94-2.35,1.15-1.28-2.62,5.5-2.69c.57-.28.82-.96.65-1.63l1.69-.83c.66-.32.9-1.21.53-1.97-.37-.76-1.21-1.11-1.87-.79l-6,2.93-2.36,1.16-1.28-2.62,5.51-2.7c.43-.21.66-.66.68-1.16l5.77-2.82,4.77,9.75-3.74,1.83c-.07.02-.14.04-.21.07Zm13.21,27.1l-6,2.94-2.31,1.13-1.28-2.62,5.47-2.67c.56-.28.81-.96.65-1.63l1.69-.83c.66-.32.9-1.2.53-1.96-.38-.76-1.21-1.12-1.87-.79l-6.01,2.94-2.32,1.13-1.28-2.62,5.47-2.68c.43-.21.67-.65.7-1.13l5.8-2.84,4.77,9.75-3.66,1.79c-.11.02-.23.05-.34.1Zm13.22,27.1l-6,2.94-2.27,1.11-1.28-2.63,5.43-2.66c.56-.28.82-.96.65-1.62l1.69-.83c.66-.32.9-1.21.53-1.97-.37-.76-1.21-1.12-1.87-.79l-6,2.94-2.28,1.12-1.28-2.62,5.44-2.66c.41-.2.66-.62.7-1.1l5.85-2.87,4.77,9.75-3.61,1.77c-.15.01-.3.04-.44.11Zm13.21,27.1l-6,2.93-2.24,1.09-1.28-2.62,5.39-2.64c.57-.28.82-.96.65-1.63l1.69-.83c.66-.32.9-1.2.53-1.96-.37-.77-1.21-1.12-1.88-.8l-6,2.94-2.24,1.1-1.28-2.62,5.4-2.64c.4-.2.64-.6.69-1.05l5.92-2.89,4.77,9.75-3.57,1.75c-.18,0-.37.04-.54.12Zm13.22,27.1l-6,2.94-2.2,1.07-1.29-2.63,5.35-2.62c.57-.28.82-.96.65-1.62l1.69-.83c.66-.32.9-1.21.53-1.97-.37-.76-1.21-1.12-1.87-.79l-6.01,2.94-2.21,1.08-1.28-2.62,5.36-2.62c.39-.19.63-.58.69-1.01l5.98-2.92,4.77,9.75-3.56,1.74c-.21-.01-.41.02-.6.11Zm7.21,30.03l-2.16,1.06-1.28-2.62,5.31-2.6c.56-.27.79-.95.63-1.62l1.71-.84c.66-.32.9-1.2.53-1.97-.37-.76-1.21-1.11-1.87-.79l-6,2.94-2.17,1.06-1.28-2.62,5.32-2.6c.38-.18.61-.55.68-.97l6.04-2.95,4.77,9.75-3.54,1.73c-.23-.03-.46,0-.67.1l-6,2.94Zm19.22,24.17l-6.01,2.94-2.12,1.04-1.28-2.63,5.27-2.58c.57-.28.82-.95.65-1.62l1.69-.83c.67-.33.9-1.21.53-1.97-.37-.76-1.21-1.12-1.87-.8l-6.01,2.94-2.13,1.04-1.28-2.62,5.28-2.59c.36-.18.59-.53.67-.93l6.1-2.98,4.77,9.75-3.53,1.73c-.25-.04-.5-.01-.73.1Zm14.01,27.01c-.27-.06-.55-.04-.8.09l-6,2.94-2.08,1.02-1.28-2.62,5.24-2.56c.57-.28.82-.96.65-1.63l1.69-.83c.66-.32.9-1.2.53-1.97-.37-.76-1.21-1.11-1.87-.79l-6,2.94-2.09,1.02-1.28-2.62,5.25-2.57c.35-.17.58-.5.66-.88l6.16-3.01,4.77,9.75-3.52,1.72Z" fill="#111827" mix-blend-mode="multiply" opacity=".5" stroke-width="0"/>
      </g>
    </g>
  </g>
</svg>