<?xml version="1.0" encoding="UTF-8"?>
<svg xmlns="http://www.w3.org/2000/svg" xmlns:xlink="http://www.w3.org/1999/xlink" viewBox="0 0 2400.36 977.71">
  <defs>
    <filter id="outer-glow-1" filterUnits="userSpaceOnUse">
      <feOffset dx="0" dy="0"/>
      <feGaussianBlur result="blur" stdDeviation="5"/>
      <feFlood flood-color="#374151" flood-opacity="1"/>
      <feComposite in2="blur" operator="in"/>
      <feComposite in="SourceGraphic"/>
    </filter>
    <filter id="outer-glow-2" filterUnits="userSpaceOnUse">
      <feOffset dx="0" dy="0"/>
      <feGaussianBlur result="blur-2" stdDeviation="8"/>
      <feFlood flood-color="#0f172a" flood-opacity="1"/>
      <feComposite in2="blur-2" operator="in"/>
      <feComposite in="SourceGraphic"/>
    </filter>
    <filter id="outer-glow-3" filterUnits="userSpaceOnUse">
      <feOffset dx="0" dy="0"/>
      <feGaussianBlur result="blur-3" stdDeviation="8"/>
      <feFlood flood-color="#475569" flood-opacity="1"/>
      <feComposite in2="blur-3" operator="in"/>
      <feComposite in="SourceGraphic"/>
    </filter>
    <filter id="outer-glow-4" filterUnits="userSpaceOnUse">
      <feOffset dx="0" dy="0"/>
      <feGaussianBlur result="blur-4" stdDeviation="8"/>
      <feFlood flood-color="#1e293b" flood-opacity="1"/>
      <feComposite in2="blur-4" operator="in"/>
      <feComposite in="SourceGraphic"/>
    </filter>
  </defs>
  <g isolation="isolate">
    <g id="Layer_28" data-name="Layer 28">
      <g>
        <g>
          <g>
            <polygon points="413.16 523.79 336.07 641.17 324.55 633.64 401.65 516.24 408.91 517.73 413.16 523.79" fill="#41535b" fill-rule="evenodd" stroke-width="0"/>
            <polygon points="413.16 523.79 336.07 641.17 330.32 637.42 409.7 516.53 413.16 523.79" fill="#334650" fill-rule="evenodd" stroke-width="0"/>
            <path d="m401.65,516.24l24.16-24.24-12.59,31.65c-1.18.69-2.94,2.1-3.9,1.51-1.84-1.14,1.78-4.97-.73-6.65-2.44-1.6-4.75,3.19-6.47,2.07-1.58-1.03-.46-4.33-.46-4.33h0Z" fill="#f9d8c8" fill-rule="evenodd" stroke-width="0"/>
            <path d="m425.81,492l-12.59,31.65c-1.18.69-2.94,2.1-3.9,1.51-1.84-1.14,1.78-4.97-.73-6.65l-.13-.07,17.36-26.44Z" fill="#dfbba9" fill-rule="evenodd" stroke-width="0"/>
            <polygon points="418.47 499.36 425.81 492 421.96 501.66 418.47 499.36" fill="#444342" fill-rule="evenodd" stroke-width="0"/>
            <polygon points="393.28 504.68 335.23 632.57 322.71 626.89 380.75 499 388.14 499.36 393.28 504.68" fill="#41535b" fill-rule="evenodd" stroke-width="0"/>
            <polygon points="393.28 504.68 335.23 632.57 328.97 629.72 388.74 498.03 393.28 504.68" fill="#334650" fill-rule="evenodd" stroke-width="0"/>
            <path d="m380.75,499l20.11-27.68-7.56,33.21c-1.05.87-2.59,2.53-3.6,2.1-1.99-.83.98-5.2-1.77-6.44-2.65-1.23-4.18,3.87-6.06,3.03-1.71-.75-1.12-4.21-1.12-4.21h0Z" fill="#f9d8c8" fill-rule="evenodd" stroke-width="0"/>
            <path d="m400.86,471.32l-7.56,33.21c-1.05.87-2.59,2.53-3.6,2.1-1.99-.83.98-5.2-1.77-6.44l-.13-.07,13.07-28.8Z" fill="#dfbba9" fill-rule="evenodd" stroke-width="0"/>
            <polygon points="394.75 479.73 400.86 471.32 398.57 481.46 394.75 479.73" fill="#444342" fill-rule="evenodd" stroke-width="0"/>
            <path d="m358.18,485.18l-9.28-.91,2.18-22.3c.06-.67.35-1.28.84-1.71l1.71-.59,4.67.48c1.27.13,2.2,1.36,2.06,2.74l-2.18,22.29Z" fill="#b3b3b3" fill-rule="evenodd" stroke-width="0"/>
            <path d="m364.41,498.11l-24.1-2.39,1.91-19.79c.08-.87.48-1.67,1.09-2.22.62-.55,1.43-.83,2.23-.75l18.1,1.76c.81.09,1.53.5,2.03,1.18.51.66.75,1.54.66,2.4l-1.93,19.81Z" fill="#5d5a5a" fill-rule="evenodd" stroke-width="0"/>
            <polygon points="322.65 677.03 341.6 482.47 365.72 484.81 346.78 679.28 322.65 677.03" fill="#3b3839" fill-rule="evenodd" stroke-width="0"/>
            <polygon points="334.44 678.12 352.56 483.55 365.72 484.81 346.78 679.28 334.44 678.12" fill="#444342" fill-rule="evenodd" stroke-width="0"/>
            <polygon points="365.6 486 365.89 483.01 339.24 480.39 338.74 480.35 337.2 480.88 336.44 482.4 331.39 534.31 333.98 534.57 336.53 534.24 337.7 522.24 335.52 518.72 338.72 485.63 339.5 484.08 341.01 483.58 365.6 486" fill="#b3b3b3" fill-rule="evenodd" stroke-width="0"/>
            <polygon points="320.41 485.94 331.79 486.98 315.9 662.21 304.52 661.17 320.41 485.94" fill="#51bac5" fill-rule="evenodd" stroke-width="0"/>
            <polygon points="326.11 486.46 331.79 486.98 315.9 662.21 310.21 661.69 326.11 486.46" fill="#5bc0cf" fill-rule="evenodd" stroke-width="0"/>
            <path d="m331.86,496.92l1.14.11-.29,3.14-.94-.08h0l-4.23-.39-8.3-.75-3.48,38.37-1.02-.09c-.39-.4-.41-.19-.23-7.75.18-7.58.82-31.6,1.4-34.82,3.34-17.92,7.2-31.6,10.7-52.02.19-1.36,6.88-.94,6.84.62l-1.59,53.66Z" fill="#ed835c" fill-rule="evenodd" stroke-width="0"/>
          </g>
          <rect x="276.77" y="565.2" width="321.1" height="169.97" fill="#0d9488" stroke-width="0"/>
          <polygon points="473.8 735.19 443.68 735.17 276.77 735.17 276.77 666.3 313.94 605.48 422.46 631.37 463.9 565.86 492.37 701.22 487.88 716.42 473.8 735.19" fill="#0f766e" stroke-width="0"/>
          <polygon points="517.32 704.11 559.08 716.42 545.33 735.17 597.86 735.17 597.86 565.2 517.32 704.11" fill="#fff" fill-rule="evenodd" opacity=".1" stroke-width="0"/>
          <path d="m487.88,704.11h71.2c1.56,0,2.84,1.27,2.84,2.84v6.64c0,1.56-1.28,2.83-2.84,2.83h-71.2c-1.57,0-2.84-1.27-2.84-2.83v-6.64c0-1.57,1.27-2.84,2.84-2.84h0Z" fill="#0d9488" fill-rule="evenodd" stroke-width="0"/>
          <path d="m561.14,715.54c-.52.54-1.25.88-2.06.88h-71.2c-.85,0-1.61-.37-2.13-.96-.44-.5,75.39.08,75.39.08Z" fill="#0f766e" fill-rule="evenodd" stroke-width="0"/>
          <path d="m291.38,666.3h157.15c2.57,0,4.57,3.69,4.29,7.93l-2.88,44.33c-.24,3.64-2.09,6.39-4.29,6.39h-151.39c-2.21,0-4.06-2.76-4.29-6.39l-2.88-44.33c-.28-4.23,1.72-7.93,4.29-7.93" fill="#0d9488" stroke-width="0"/>
          <g>
            <path d="m352.77,595.91h0c-45.85-12.96-58.84,49.4-24.04,70.39h17.66c-18.78-14.09-19.87-59.68,6.38-70.39" fill="#639a2e" stroke-width="0"/>
            <path d="m352.83,597.3c-.16,0-.3-.03-.45-.07.18.23.08.1-.01,0h0s.01.01.01.01h-.02s-.05-.01-.05-.01l-.1-.02-.2-.04-.41-.08-.82-.16-1.63-.32c-1.08-.26-2.2-.27-3.28-.42-.55-.05-1.09-.14-1.64-.16l-1.64-.02-1.63-.02c-.54.02-1.08.09-1.62.13-4.31.33-8.49,1.54-12.13,3.68-7.37,4.23-12.18,11.93-14.38,20.2-2.25,8.32-1.83,17.4,1.01,25.61,2.84,8.22,8.35,15.52,15.74,20.34h.01c.14.1.25.23.36.36h-5.49c-2.73-1.97-5.25-4.26-7.44-6.84-3.09-3.67-5.52-7.88-7.26-12.35-3.47-8.96-4.09-18.97-1.81-28.38,1.18-4.69,3.12-9.27,6.03-13.25,2.9-3.97,6.71-7.33,11.09-9.61,4.38-2.28,9.28-3.42,14.1-3.49.6,0,1.21-.05,1.8-.02l1.79.14,1.79.14c.59.06,1.17.2,1.76.29,1.16.25,2.35.36,3.48.74l1.7.48.85.24.42.12.21.06.11.03.05.02h.03c.16.21.08.11,0,0-.14-.18-.27-.36,1,1.26.03.75-.55,1.38-1.3,1.41" fill="#75aa3d" stroke-width="0"/>
            <path d="m326.47,663.71h3.85c-.98-.94-1.91-1.92-2.79-2.96-3.09-3.67-5.52-7.88-7.26-12.35-3.47-8.96-4.09-18.97-1.81-28.38,1.18-4.69,3.12-9.27,6.03-13.25,2.9-3.97,6.71-7.33,11.09-9.61.57-.3,1.15-.57,1.74-.83-3.6.51-7.06,1.65-10.13,3.46-7.37,4.23-12.18,11.93-14.38,20.2-2.25,8.32-1.83,17.4,1.01,25.61,2.43,7.03,6.81,13.39,12.66,18.1" fill="#467f1b" stroke-width="0"/>
            <path d="m324.43,666.3c-1.12-.81-2.19-1.68-3.23-2.6h5.27c-5.85-4.71-10.23-11.07-12.66-18.1-2.84-8.21-3.26-17.29-1.01-25.61,2.2-8.27,7.01-15.97,14.38-20.2,3.07-1.8,6.53-2.95,10.13-3.46,2.2-.97,4.51-1.67,6.86-2.11-.48-.55-.87-1.13-1.18-1.71l-.26-.02-1.79-.14c-.13,0-.27,0-.4,0-.47,0-.93.02-1.4.03-4.82.07-9.71,1.22-14.1,3.49-4.38,2.28-8.19,5.64-11.09,9.61-2.91,3.98-4.85,8.56-6.03,13.25-.9,3.71-1.35,7.52-1.35,11.32,0,5.83,1.06,11.64,3.16,17.06,1.74,4.47,4.17,8.68,7.26,12.35,2.19,2.58,4.71,4.87,7.44,6.84" fill="#548c25" stroke-width="0"/>
            <path d="m387.14,595.91h0c45.85-12.96,58.84,49.4,24.04,70.39h-17.65c18.78-14.09,19.87-59.68-6.38-70.39" fill="#639a2e" stroke-width="0"/>
            <path d="m415.49,666.3h-5.49c.1-.13.21-.25.36-.35h.01c7.39-4.83,12.9-12.13,15.74-20.35,2.84-8.21,3.26-17.29,1.01-25.61-2.2-8.27-7.01-15.97-14.38-20.2-3.64-2.14-7.82-3.34-12.13-3.68-.54-.04-1.08-.12-1.62-.13l-1.63.02-1.64.02c-.55.02-1.09.11-1.64.16-1.09.14-2.2.15-3.28.42l-1.63.32-.82.16-.41.08-.21.04-.1.02h-.05s-.03.01-.03.01v-.02s0,0,0,0c-.09.11-.18.23,0,0-.14.04-.29.08-.45.07-.75-.03-1.33-.66-1.3-1.41,1.27-1.62,1.14-1.44,1-1.26-.07.1-.15.2,0,0h.02s.05-.02.05-.02l.11-.03.21-.06.42-.12.85-.24,1.7-.48c1.12-.37,2.31-.49,3.47-.74.59-.1,1.17-.23,1.76-.29l1.79-.14,1.79-.14c.6-.02,1.2.02,1.81.02,4.82.07,9.71,1.22,14.09,3.49,4.38,2.28,8.19,5.64,11.09,9.61,2.91,3.98,4.85,8.56,6.03,13.25,2.28,9.41,1.66,19.42-1.81,28.38-1.74,4.47-4.17,8.68-7.26,12.35-2.19,2.58-4.71,4.87-7.44,6.84" fill="#75aa3d" stroke-width="0"/>
            <path d="m407.87,663.71h5.57c5.84-4.71,10.23-11.07,12.66-18.1,2.84-8.21,3.26-17.29,1.01-25.61-2.2-8.27-7.01-15.97-14.38-20.2-2.08-1.22-4.34-2.14-6.7-2.76,3.53,2.2,6.62,5.11,9.07,8.45,2.91,3.98,4.85,8.56,6.03,13.25,2.28,9.41,1.66,19.42-1.81,28.38-1.74,4.47-4.17,8.68-7.26,12.35-1.29,1.52-2.69,2.94-4.18,4.25" fill="#76ab3b" stroke-width="0"/>
            <path d="m415.49,666.3c2.73-1.97,5.25-4.26,7.44-6.84,3.09-3.67,5.53-7.88,7.26-12.35,2.1-5.43,3.16-11.23,3.16-17.06,0-3.8-.45-7.61-1.35-11.32-1.18-4.69-3.12-9.27-6.03-13.25-2.9-3.97-6.71-7.33-11.09-9.61-4.38-2.28-9.28-3.42-14.09-3.49-.47,0-.94-.03-1.41-.03-.13,0-.27,0-.4,0l-1.79.14-.26.02c-.12.22-.24.44-.38.66,2.58.58,5.1,1.47,7.47,2.7.69.36,1.36.74,2.02,1.15,2.36.62,4.62,1.54,6.7,2.76,7.37,4.23,12.18,11.93,14.38,20.2,2.25,8.32,1.83,17.4-1.01,25.61-2.43,7.03-6.81,13.39-12.66,18.1h5.27c-1.04.91-2.11,1.79-3.23,2.6" fill="#85b949" stroke-width="0"/>
            <path d="m369.81,596.05h0s.04,0,.06,0c-.02,0-.04,0-.06,0-2.63-35.07,26.45-22.07,9.47-.02-2.91-.36-6.06-.37-9.47.03" fill="#ffc612" stroke-width="0"/>
            <path d="m384.29,585.81c10.16-9.61,19.82,4.47,8.17,11.01-1.75.29-3.55.68-5.41,1.2h0c-2.09-.85-4.38-1.47-6.82-1.85l-.5-.78c2.57-3.49,3.98-6.73,4.56-9.58" fill="#fdda30" stroke-width="0"/>
            <path d="m360.67,596.09c-17.1-22.09,12.05-35.15,9.43-.09-3.4-.36-6.54-.31-9.43.09" fill="#fdda30" stroke-width="0"/>
            <path d="m353.29,598.04s.03-.02.05-.02h0c-2.1-.6-4.13-1.03-6.08-1.31-13.46-7.81,2.59-25.89,13.94-2.89l-1.57,2.44c-2.27.39-4.38.99-6.34,1.79" fill="#ffc612" stroke-width="0"/>
            <path d="m370.27,592.56c2.02-.29,4.08-.47,6.16-.47,1.74,0,3.48.12,5.22.38.75-1.29,1.34-2.54,1.79-3.74-2.62-.68-5.47-1.04-8.55-1.04-1.53,0-3.11.09-4.76.27.12,1.41.17,2.94.14,4.59" fill="#ffb009" stroke-width="0"/>
            <path d="m392.88,596.57c3.89-2.35,5.2-5.57,4.83-8.34-3.3.12-6.83.66-10.57,1.72h0c-1.18-.48-2.41-.89-3.7-1.23-.45,1.2-1.04,2.45-1.79,3.74.26.04.51.08.76.13.12.02.23.04.35.06h0c3.54.66,7.01,1.98,10.13,3.91" fill="#fdc119" stroke-width="0"/>
            <path d="m369.65,592.65c-1.95-.28-3.94-.43-5.93-.43-1.09,0-2.19.05-3.28.14-.83-1.52-1.67-2.84-2.53-3.96,2.21-.46,4.58-.71,7.11-.71,1.58,0,3.22.09,4.92.29.06,0,.12-.01.18-.02.12,1.41.17,2.94.14,4.59-.19.03-.37.06-.56.08-.02,0-.04,0-.06.01m.21-4.66h0" fill="#fdc119" stroke-width="0"/>
            <path d="m347.17,596.65h-.01s0,0,.01,0m-.03-.02s0,0,0,0t0,0m-.02-.01s0,0,0,0c0,0,0,0,0,0m-.02-.01s0,0,0,0t0,0m-.02-.01s0,0,0,0c0,0,0,0,0,0" fill="#638918" stroke-width="0"/>
            <path d="m347.18,596.66c3.04-1.86,6.4-3.16,9.84-3.82,1.14-.22,2.28-.37,3.42-.47-.83-1.52-1.67-2.84-2.53-3.96-1.84.38-3.57.92-5.19,1.58.02,0,.03-.01.05-.02h0c-3.75-1.06-7.27-1.61-10.57-1.72-.37,2.77.95,6,4.86,8.35,0,0,0,0,0,0,0,0,.01,0,.02.01t0,0s.01,0,.02.01c0,0,0,0,0,0,0,0,.01,0,.02.01t0,0s.01,0,.02.01h.01s0,.01.01.01" fill="#ffb009" stroke-width="0"/>
            <path d="m393.52,666.3h-24.64c2.15-24.02-2.06-48.41.98-72.36,43.33-5.12,45.89,55.68,23.66,72.36" fill="#639a2e" stroke-width="0"/>
            <path d="m369.96,593.93s-.06,0-.09,0c-3.04,23.95,1.17,48.34-.98,72.36h-22.5c-22.22-16.67-19.67-77.39,23.57-72.37" fill="#639a2e" stroke-width="0"/>
            <path d="m402.94,658.47c-1.69,2.86-3.74,5.57-6.23,7.83h-3.97,0s.02-.02.02-.02c3.02-2.58,5.4-5.86,7.17-9.45,1.8-3.57,3.06-7.43,3.87-11.38,1.58-7.89,1.59-16.15-.27-23.89-.92-3.87-2.27-7.6-4.11-11.03-1.83-3.44-4.21-6.57-7.18-9.02-2.95-2.48-6.49-4.24-10.29-5.23-3.81-1-7.85-1.25-11.92-1.03h-.04c-.66.04-1.26-.44-1.36-1.11-.11-.72.38-1.39,1.09-1.5,4.25-.67,8.67-.8,13.04.02,4.36.81,8.61,2.63,12.23,5.33,3.62,2.7,6.61,6.2,8.85,10.07,2.23,3.88,3.71,8.11,4.6,12.41,1.72,8.61,1.49,17.49-.66,25.91-1.09,4.2-2.65,8.3-4.84,12.09" fill="#75aa3d" stroke-width="0"/>
            <path d="m389.49,663.71h5.88c1.82-2.06,3.34-4.39,4.57-6.87,1.8-3.57,3.06-7.43,3.87-11.38,1.58-7.89,1.59-16.15-.27-23.89-.92-3.87-2.27-7.6-4.11-11.03-1.83-3.44-4.21-6.57-7.18-9.02-2.59-2.17-5.63-3.8-8.9-4.83.66.41,1.3.85,1.92,1.31,3.62,2.7,6.61,6.2,8.85,10.07,2.23,3.88,3.71,8.11,4.6,12.41,1.72,8.61,1.49,17.49-.66,25.91-1.09,4.2-2.65,8.3-4.84,12.09-1.08,1.84-2.32,3.61-3.72,5.24" fill="#76ab3b" stroke-width="0"/>
            <path d="m382.75,592.67c-.12-.02-.23-.04-.35-.06.12.02.23.04.35.06" fill="#fdcc27" stroke-width="0"/>
            <path d="m395.37,663.71h3.86c1.4-1.63,2.63-3.4,3.71-5.24,2.19-3.79,3.75-7.89,4.84-12.09,1.2-4.7,1.8-9.55,1.79-14.41,0-3.84-.38-7.7-1.14-11.5-.9-4.3-2.37-8.53-4.6-12.41-2.24-3.87-5.23-7.37-8.85-10.07-3.63-2.69-7.87-4.52-12.23-5.33h0c-.12-.02-.23-.04-.35-.06-1.99-.35-3.99-.51-5.97-.51-1.68,0-3.36.11-5.02.31.53.07,1.07.16,1.6.26,3.61.67,7.14,2.04,10.31,4.02,3.27,1.03,6.31,2.66,8.9,4.83,2.98,2.45,5.36,5.58,7.18,9.02,1.84,3.43,3.2,7.17,4.11,11.03,1.86,7.74,1.85,16,.27,23.89-.8,3.95-2.06,7.8-3.87,11.38-1.23,2.48-2.75,4.81-4.57,6.87" fill="#85b949" stroke-width="0"/>
            <path d="m369.75,595.19h-.04c-4.06-.24-8.12-.04-11.94.98-3.82.98-7.38,2.75-10.35,5.25-5.99,4.98-9.58,12.45-11.11,20.21-.79,3.89-1.15,7.88-1.17,11.88-.03,4,.32,8.02,1.13,11.94.8,3.93,2.06,7.76,3.83,11.33,1.78,3.55,4.1,6.84,7.09,9.42l.03.02s.04.06.07.08h-4.3c-2.46-2.23-4.51-4.9-6.18-7.74-2.22-3.78-3.79-7.89-4.9-12.1-2.16-8.42-2.55-17.36-.52-25.92,1.01-4.27,2.55-8.44,4.77-12.29,2.21-3.84,5.11-7.37,8.72-10.05,3.58-2.7,7.79-4.53,12.12-5.37,4.34-.82,8.74-.77,12.99-.13.63.1,1.1.66,1.06,1.31-.04.69-.63,1.22-1.32,1.18" fill="#75aa3d" stroke-width="0"/>
            <path d="m344.71,663.71h5.3c-1.38-1.6-2.59-3.34-3.65-5.14-2.22-3.78-3.79-7.89-4.9-12.1-2.16-8.42-2.55-17.36-.52-25.92,1.01-4.27,2.55-8.44,4.77-12.29,2.21-3.84,5.12-7.37,8.72-10.05.92-.69,1.89-1.33,2.88-1.91-3.64,1-7.03,2.73-9.87,5.12-5.99,4.98-9.58,12.45-11.11,20.21-.79,3.89-1.15,7.88-1.17,11.88-.03,4,.32,8.02,1.13,11.94.8,3.93,2.06,7.76,3.83,11.33,1.25,2.49,2.76,4.86,4.59,6.94" fill="#467f1b" stroke-width="0"/>
            <path d="m340.49,663.71h4.22c-1.83-2.08-3.34-4.44-4.59-6.94-1.78-3.56-3.04-7.4-3.83-11.33-.82-3.92-1.16-7.94-1.13-11.94.02-4,.38-7.99,1.17-11.88,1.53-7.76,5.12-15.22,11.11-20.21,2.85-2.39,6.23-4.12,9.87-5.12,2.87-1.66,6.02-2.84,9.23-3.46.69-.13,1.37-.23,2.06-.32-1.61-.19-3.25-.29-4.89-.29-2.23,0-4.46.19-6.69.61-4.33.84-8.53,2.67-12.12,5.37-3.61,2.68-6.52,6.21-8.72,10.05-2.22,3.85-3.76,8.03-4.77,12.29-.9,3.81-1.32,7.7-1.33,11.58,0,4.84.65,9.67,1.85,14.33,1.11,4.2,2.68,8.31,4.9,12.1,1.06,1.81,2.28,3.54,3.65,5.14" fill="#548c25" stroke-width="0"/>
            <path d="m370.39,666.3h-2.85c.09-5.78,0-11.56-.26-17.34-.12-3.04-.3-6.07-.46-9.12-.15-3.04-.24-6.1-.31-9.16-.08-6.12-.2-12.28.04-18.45.22-6.17.71-12.36,1.76-18.48.14-.78.7-.74,1.51-.68.86.07,1.65.21,1.58,1.07-.47,6.03-.59,12.08-.5,18.13.1,6.06.34,12.14.66,18.24.14,3.05.25,6.11.29,9.18.01,3.07-.04,6.15-.1,9.23-.18,5.79-.52,11.61-1.36,17.38" fill="#75aa3d" stroke-width="0"/>
            <path d="m370.73,663.71h4.01c5.03-17.42-3.35-50.61-3.41-68.37-.4,5.63-.51,11.28-.43,16.94h0c.1,6.06.34,12.14.66,18.24.14,3.05.25,6.11.29,9.18,0,.34,0,.67,0,1.01,0,2.74-.05,5.48-.1,8.22-.15,4.93-.42,9.87-1.02,14.78" fill="#80b542" stroke-width="0"/>
            <path d="m365.26,663.71h2.31c0-.63,0-1.25,0-1.88,0-4.29-.1-8.58-.29-12.87-.12-3.04-.3-6.07-.46-9.12-.15-3.04-.24-6.1-.31-9.16-.05-3.44-.1-6.9-.1-10.36,0-2.69.04-5.39.14-8.09h0s0-.09,0-.14c.21-5.64.64-11.29,1.52-16.88-4.54,20.23-5.48,54.11-2.82,68.5" fill="#467f1b" stroke-width="0"/>
            <path d="m367.57,663.71c0-.63,0-1.25,0-1.88,0,.63,0,1.25,0,1.88h0m-1.15-43.39c0-2.69.04-5.39.14-8.09h0c-.1,2.7-.14,5.4-.14,8.09m.14-8.23c.21-5.64.64-11.29,1.52-16.88,0,0,0,0,0-.01h.02c-.88,5.6-1.34,11.25-1.54,16.89" fill="#548c25" stroke-width="0"/>
            <path d="m333.28,666.3h9.73c-.89-.81-1.73-1.68-2.52-2.6h-10.17c.95.91,1.94,1.77,2.96,2.6" fill="#518922" stroke-width="0"/>
            <path d="m329.92,666.3h3.36c-1.02-.82-2.01-1.69-2.96-2.6h-3.85c.99.8,2.01,1.54,3.08,2.24h.01c.14.1.25.23.36.36" fill="#397114" stroke-width="0"/>
            <path d="m324.43,666.3h5.49c-.1-.13-.21-.25-.36-.35h-.01c-1.07-.71-2.1-1.45-3.08-2.25h-5.27c1.04.91,2.11,1.79,3.23,2.6h0" fill="#457d1c" stroke-width="0"/>
            <path d="m396.71,666.3h7.91c1.12-.81,2.21-1.68,3.25-2.6h-8.65c-.78.91-1.62,1.78-2.51,2.6" fill="#518922" stroke-width="0"/>
            <path d="m404.62,666.3h5.38c.1-.13.21-.25.36-.35h.01c1.07-.7,2.09-1.45,3.08-2.25h-5.57c-1.04.92-2.13,1.78-3.25,2.6" fill="#61982c" stroke-width="0"/>
            <path d="m410,666.3h5.49c1.12-.81,2.19-1.68,3.23-2.6h-5.27c-.99.8-2.01,1.54-3.08,2.24h-.01c-.15.1-.25.23-.36.36h0" fill="#6da537" stroke-width="0"/>
            <path d="m373.84,666.3h13.14c.89-.81,1.73-1.68,2.51-2.6h-14.75c-.26.91-.56,1.78-.9,2.6" fill="#518922" stroke-width="0"/>
            <path d="m352.53,666.3h13.31c-.21-.77-.4-1.64-.58-2.6h-15.25c.79.91,1.63,1.78,2.52,2.6" fill="#518922" stroke-width="0"/>
            <path d="m386.98,666.3h5.76s0,0,0,0l.02-.02c.93-.8,1.8-1.66,2.6-2.57h-5.88c-.78.91-1.62,1.78-2.51,2.6" fill="#61982c" stroke-width="0"/>
            <path d="m392.74,666.3h3.97c.89-.81,1.73-1.68,2.51-2.6h-3.86c-.81.91-1.68,1.78-2.6,2.57l-.02.02h0" fill="#6da537" stroke-width="0"/>
            <path d="m347.31,666.3h5.22c-.9-.81-1.73-1.68-2.52-2.6h-5.3c.78.88,1.61,1.72,2.5,2.49l.03.02s.04.06.07.08" fill="#397114" stroke-width="0"/>
            <path d="m343.01,666.3h4.3s-.04-.06-.07-.08l-.03-.02c-.89-.77-1.73-1.6-2.5-2.49h-4.22c.79.91,1.63,1.78,2.52,2.6h0" fill="#457d1c" stroke-width="0"/>
            <path d="m367.54,666.3h2.85c.13-.86.24-1.73.35-2.6h-3.17c0,.87-.01,1.73-.03,2.6" fill="#60972e" stroke-width="0"/>
            <path d="m370.39,666.3h3.45c.34-.82.64-1.69.9-2.6h-4.01c-.1.87-.22,1.73-.35,2.6" fill="#69a132" stroke-width="0"/>
            <path d="m365.84,666.3h1.7c.01-.87.02-1.73.03-2.6h-2.31c.18.95.37,1.82.58,2.6" fill="#397114" stroke-width="0"/>
            <polyline points="324.43 666.3 328.73 666.3 329.92 666.3 333.28 666.3 343.01 666.3 346.39 666.3 347.31 666.3 352.53 666.3 365.84 666.3 367.54 666.3 368.89 666.3 370.39 666.3 373.84 666.3 386.98 666.3 392.74 666.3 393.52 666.3 396.71 666.3 404.62 666.3 410 666.3 411.18 666.3 415.49 666.3 415.49 666.3 324.43 666.3 324.43 666.3" fill="#835924" stroke-width="0"/>
          </g>
          <path d="m437.16,718.15c1.92,0,3.57-2.59,3.79-6.09l1.89-31.4c.23-3.74-1.29-7.11-3.38-7.51-.14-.03-.28-.04-.42-.04-1.91,0-3.57,2.6-3.78,6.09l-1.89,31.4c-.23,3.74,1.29,7.11,3.38,7.51.14.03.28.04.41.04" fill="#14b8a6" stroke-width="0"/>
          <path d="m294.26,724.95h6.08c-2.21,0-4.06-2.76-4.29-6.39l-2.88-44.33c-.27-4.23,1.73-7.93,4.29-7.93h-6.08c-2.41,0-4.32,3.25-4.32,7.14,0,.26,0,.52.02.79l2.88,44.33c.24,3.64,2.09,6.39,4.29,6.39" fill="#115e59" stroke-width="0"/>
          <path d="m573.09,683.48c0,8.97-7.36,16.26-16.4,16.26h-71.47c-9.04,0-16.4-7.3-16.4-16.26v-190.34c0-8.97,7.36-16.26,16.4-16.26h71.47c9.04,0,16.4,7.3,16.4,16.26v190.34Z" fill="#030712" stroke-width="0"/>
          <path d="m573.09,683.48c0,8.97-7.36,16.26-16.4,16.26h-71.47c-9.04,0-16.4-7.3-16.4-16.26v-190.34c0-8.97,7.36-16.26,16.4-16.26h71.47c9.04,0,16.4,7.3,16.4,16.26v190.34Z" fill="#030712" stroke-width="0"/>
          <path d="m573.09,683.48c0,8.97-7.36,16.26-16.4,16.26h-71.47c-9.04,0-16.4-7.3-16.4-16.26v-190.34c0-8.97,7.36-16.26,16.4-16.26h71.47c9.04,0,16.4,7.3,16.4,16.26v190.34Z" fill="#030712" stroke-width="0"/>
          <g>
            <path d="m556.7,473.31h-71.47c-11.04,0-19.99,8.88-19.99,19.83v190.34c0,10.95,8.95,19.83,19.99,19.83h71.47c11.04,0,19.99-8.88,19.99-19.83v-190.34c0-10.95-8.95-19.83-19.99-19.83Zm16.4,210.17c0,8.97-7.36,16.26-16.4,16.26h-71.47c-9.04,0-16.4-7.3-16.4-16.26v-190.34c0-8.97,7.36-16.26,16.4-16.26h71.47c9.04,0,16.4,7.3,16.4,16.26v190.34Z" fill="#020617" stroke-width="0"/>
            <path d="m556.69,473.32c11.04,0,19.99,8.88,19.99,19.83v190.33c0,10.95-8.95,19.83-19.99,19.83h-71.46c-11.04,0-19.99-8.88-19.99-19.83v-190.33c0-10.95,8.95-19.83,19.99-19.83h71.46m0-.89h-71.46c-11.52,0-20.89,9.29-20.89,20.72v190.33c0,11.42,9.37,20.72,20.89,20.72h71.46c11.52,0,20.89-9.29,20.89-20.72v-190.33c0-11.42-9.37-20.72-20.89-20.72h0Z" fill="#94a3b8" stroke-width="0"/>
            <path d="m573.09,683.48c0,8.97-7.36,16.26-16.4,16.26h-71.47c-9.04,0-16.4-7.3-16.4-16.26v-190.34c0-8.97,7.36-16.26,16.4-16.26h71.47c9.04,0,16.4,7.3,16.4,16.26v190.34Z" fill="none" stroke-width="0"/>
            <path d="m468.83,683.48c0,8.97,7.36,16.26,16.4,16.26h71.47c9.04,0,16.4-7.3,16.4-16.26v-178.92h-104.27v178.92Z" fill="#374151" filter="url(#outer-glow-1)" stroke-width="0"/>
            <path d="m463.87,514.75h.47v12.38h-.47c-.23,0-.41-.19-.41-.41v-11.56c0-.23.19-.41.41-.41Z" fill="#64748b" stroke-width="0"/>
            <path d="m463.91,533.19h.43v19.46h-.43c-.25,0-.45-.2-.45-.45v-18.56c0-.25.2-.45.45-.45Z" fill="#64748b" stroke-width="0"/>
            <path d="m463.91,556.13h.43v19.46h-.43c-.25,0-.45-.2-.45-.45v-18.56c0-.25.2-.45.45-.45Z" fill="#64748b" stroke-width="0"/>
          </g>
        </g>
        <g>
          <path d="m1624.63-11.69h-851.94c-9.02,0-16.33,7.31-16.33,16.33v503.81h884.6V4.64c0-9.02-7.31-16.33-16.33-16.33h0Z" fill="#030712" stroke-width="0"/>
          <path d="m1121.71,734.91h-23.01c-1.46,0-2.79-.2-3.75-.52s-1.55-.76-1.55-1.25h33.61c0,.45-.51.87-1.35,1.18-.97.36-2.38.59-3.95.59Z" fill="#030712" stroke-width="0"/>
          <path d="m1298.63,734.91h-23.01c-2.93,0-5.3-.79-5.3-1.77h33.61c0,.98-2.37,1.77-5.3,1.77Z" fill="#030712" stroke-width="0"/>
          <path d="m1195.97,4.87c.84.65,1.88,1,2.92,1,.39,0,.78-.05,1.16-.15,1.03-.26,1.95-.86,2.59-1.68.66-.83,1.02-1.87,1.01-2.93,0-1.06-.36-2.1-1-2.92-.65-.83-1.57-1.44-2.58-1.69-1.45-.37-3-.04-4.14.89-1.14.9-1.81,2.31-1.8,3.76,0,1.46.7,2.86,1.84,3.73Zm2.07-4.84c.23-.19.55-.29.86-.29.11,0,.22.01.33.04.29.07.56.25.75.49.18.24.29.54.29.84h0c0,.31-.1.61-.3.85-.18.24-.45.41-.76.49-.39.1-.84,0-1.18-.25-.32-.24-.53-.66-.53-1.08,0-.4.19-.82.53-1.09Z" fill="#1e293b" stroke-width="0"/>
          <path d="m1090.74,722.53h215.84v8.88c0,.96-.78,1.73-1.73,1.73h-212.38c-.96,0-1.73-.78-1.73-1.73v-8.88h0Z" fill="#6b7280" stroke-width="0"/>
          <rect x="1090.74" y="596.92" width="215.84" height="125.61" fill="#64748b" stroke-width="0"/>
          <rect x="1090.74" y="596.92" width="215.84" height="3.54" fill="#020617" stroke-width="0"/>
          <path d="m1628.97,596.92h-860.6c-6.63,0-12-5.37-12-12v-76.46h884.6v76.46c0,6.63-5.37,12-12,12Z" fill="#94a3b8" stroke-width="0"/>
        </g>
        <g>
          <path d="m1001.3,725.6h-17.29v-6.21c0-.82,1.13-1.49,2.54-1.49h12.21c1.4,0,2.54.67,2.54,1.49v6.21Z" fill="#94a3b8" fill-rule="evenodd" stroke-width="0"/>
          <path d="m1020.24,725.6h-17.29v-6.21c0-.82,1.13-1.49,2.54-1.49h12.21c1.4,0,2.54.67,2.54,1.49v6.21Z" fill="#94a3b8" fill-rule="evenodd" stroke-width="0"/>
          <path d="m1039.19,725.6h-17.29v-6.21c0-.82,1.14-1.49,2.54-1.49h12.21c1.4,0,2.54.67,2.54,1.49v6.21Z" fill="#94a3b8" fill-rule="evenodd" stroke-width="0"/>
          <path d="m1203.72,725.6h-17.29v-6.21c0-.82,1.13-1.49,2.54-1.49h12.21c1.4,0,2.54.67,2.54,1.49v6.21Z" fill="#94a3b8" fill-rule="evenodd" stroke-width="0"/>
          <path d="m1222.67,725.6h-17.29v-6.21c0-.82,1.14-1.49,2.54-1.49h12.21c1.4,0,2.54.67,2.54,1.49v6.21Z" fill="#94a3b8" fill-rule="evenodd" stroke-width="0"/>
          <path d="m1241.62,725.6h-17.29v-6.21c0-.82,1.14-1.49,2.54-1.49h12.21c1.4,0,2.54.67,2.54,1.49v6.21Z" fill="#94a3b8" fill-rule="evenodd" stroke-width="0"/>
          <path d="m1260.87,725.6h-17.28v-6.21c0-.82,1.14-1.49,2.54-1.49h12.21c1.4,0,2.53.67,2.53,1.49v6.21Z" fill="#94a3b8" fill-rule="evenodd" stroke-width="0"/>
          <path d="m1280.13,725.6h-17.28v-6.21c0-.82,1.14-1.49,2.53-1.49h12.22c1.4,0,2.53.67,2.53,1.49v6.21Z" fill="#94a3b8" fill-rule="evenodd" stroke-width="0"/>
          <path d="m1299.39,725.6h-17.29v-6.21c0-.82,1.14-1.49,2.54-1.49h12.22c1.39,0,2.53.67,2.53,1.49v6.21Z" fill="#94a3b8" fill-rule="evenodd" stroke-width="0"/>
          <path d="m1318.64,725.6h-17.29v-6.21c0-.82,1.14-1.49,2.54-1.49h12.21c1.4,0,2.54.67,2.54,1.49v6.21Z" fill="#94a3b8" fill-rule="evenodd" stroke-width="0"/>
          <path d="m1348.9,725.6h-17.29v-6.21c0-.82,1.14-1.49,2.54-1.49h12.22c1.39,0,2.53.67,2.53,1.49v6.21Z" fill="#94a3b8" fill-rule="evenodd" stroke-width="0"/>
          <path d="m1367.3,725.6h-17.27v-6.21c0-.82,1.13-1.49,2.53-1.49h12.22c1.4,0,2.52.67,2.52,1.49v6.21Z" fill="#94a3b8" fill-rule="evenodd" stroke-width="0"/>
          <path d="m1385.73,725.6h-17.29v-6.21c0-.82,1.14-1.49,2.55-1.49h12.19c1.4,0,2.54.67,2.54,1.49v6.21Z" fill="#94a3b8" fill-rule="evenodd" stroke-width="0"/>
          <path d="m1404.14,725.6h-17.28v-6.21c0-.82,1.14-1.49,2.53-1.49h12.22c1.4,0,2.53.67,2.53,1.49v6.21Z" fill="#94a3b8" fill-rule="evenodd" stroke-width="0"/>
          <path d="m1184.07,725.46l-143.21.13v-6.21c0-.83,1.14-1.49,2.54-1.49l138.13-.13c.66,0,1.32.17,1.79.43.48.29.75.66.75,1.06v6.21Z" fill="#94a3b8" fill-rule="evenodd" stroke-width="0"/>
          <path d="m1416.52,730.63c0,2.56-2.78,4.64-6.19,4.64h-432.47c-3.43,0-6.19-2.08-6.19-4.64v-4.22c0-2.58,2.76-4.65,6.19-4.65h432.47c3.42,0,6.19,2.08,6.19,4.65v4.22Z" fill="#cbd5e1" fill-rule="evenodd" stroke-width="0"/>
          <path d="m971.67,729.51v1.12c0,2.56,2.76,4.64,6.19,4.64h432.47c3.42,0,6.19-2.08,6.19-4.64v-1.12h-444.85Z" fill="#94a3b8" fill-rule="evenodd" stroke-width="0"/>
        </g>
        <g>
          <path d="m1573.36,730.79c-.91-10.82-21.8-19.49-47.45-19.49s-46.54,8.67-47.45,19.49h94.9Z" fill="#cbd5e1" stroke-width="0"/>
          <rect x="1478.46" y="730.79" width="94.7" height="4.54" fill="#94a3b8" stroke-width="0"/>
        </g>
        <g>
          <path d="m2248.94,333.3h-539.78c-7.77,0-14.07,6.3-14.07,14.07v360.83h567.92v-360.83c0-7.77-6.3-14.07-14.07-14.07Z" fill="#020617" stroke-width="0"/>
          <path d="m2248.94,333.3c7.77,0,14.07,6.3,14.07,14.07v360.83h-567.92v-360.83c0-7.77,6.3-14.07,14.07-14.07h539.78m0-3.54h-539.78c-9.71,0-17.61,7.9-17.61,17.61v364.37h574.99v-364.37c0-9.71-7.9-17.61-17.61-17.61h0Z" fill="#94a3b8" stroke-width="0"/>
          <path d="m1660.06,708.38h636.91v20.37c0,3.4-2.76,6.17-6.17,6.17h-624.58c-3.4,0-6.17-2.76-6.17-6.17v-20.37h0Z" fill="#94a3b8" stroke-width="0"/>
          <path d="m1928.09,708.38h92v6.3c0,3.2-2.59,5.79-5.79,5.79h-80.42c-3.2,0-5.79-2.59-5.79-5.79v-6.3h0Z" fill="#64748b" stroke-width="0"/>
          <path d="m1979.05,341.44c.73,0,1.33.6,1.33,1.33s-.6,1.33-1.33,1.33-1.33-.6-1.33-1.33.6-1.33,1.33-1.33m0-2.21c-1.95,0-3.54,1.58-3.54,3.54s1.58,3.54,3.54,3.54,3.54-1.58,3.54-3.54-1.58-3.54-3.54-3.54h0Z" fill="#27272a" stroke-width="0"/>
        </g>
        <g>
          <path d="m689.21,657.87h-36.56c-2.19,0-4.22.93-5.66,2.36-1.52,1.52-2.45,3.55-2.45,5.74v14.52c0,3.8,1.6,7.26,4.14,9.79,2.53,2.53,5.99,4.14,9.79,4.14h30.73c3.8,0,7.26-1.6,9.79-4.14,2.53-2.53,4.05-5.99,4.05-9.79v-8.78c0-3.8-1.52-7.26-4.05-9.79-2.53-2.53-5.99-4.05-9.79-4.05h0Zm-36.56-12.24h36.56c7.18,0,13.68,2.95,18.41,7.68,4.73,4.73,7.68,11.23,7.68,18.41v8.78c0,7.18-2.96,13.76-7.68,18.49-4.73,4.73-11.23,7.68-18.41,7.68h-30.73c-7.18,0-13.76-2.96-18.49-7.68-4.73-4.73-7.68-11.31-7.68-18.49v-14.52c0-5.57,2.28-10.72,5.99-14.35,3.71-3.72,8.78-5.99,14.35-5.99h0Z" fill="#0d43a7" stroke-width="0"/>
          <path d="m659.75,645.62h29.47c7.18,0,13.68,2.95,18.41,7.68,4.73,4.73,7.68,11.23,7.68,18.41v8.78c0,7.18-2.96,13.76-7.68,18.49-4.73,4.73-11.23,7.68-18.41,7.68h-26c-1.18-4.14-2.11-8.19-2.87-12.24h28.87c3.8,0,7.26-1.6,9.79-4.14,2.53-2.53,4.05-5.99,4.05-9.79v-8.78c0-3.8-1.52-7.26-4.05-9.79-2.53-2.53-5.99-4.05-9.79-4.05h-30.56c.25-4.73.68-8.86,1.1-12.24h0Z" fill="#0a3480" stroke-width="0"/>
          <path d="m750.42,733.6h-44.58c-40.69-15.45-37.91-61.38-37.91-98.27h164.89c0,36.89,2.79,82.82-37.91,98.27h-44.49Z" fill="#255cc0" fill-rule="evenodd" stroke-width="0"/>
          <path d="m724.17,733.6h-18.32c-40.69-15.45-37.91-61.38-37.91-98.27h33.86c0,36.89-1.69,82.82,22.37,98.27h0Z" fill="#0d43a7" fill-rule="evenodd" stroke-width="0"/>
          <path d="m817.21,670.53c.17-1.69,1.6-2.95,3.29-2.87,1.69.09,2.96,1.52,2.87,3.21-.59,9.54-1.94,19-5.07,27.44-3.21,8.7-8.27,16.38-16.13,22.29-1.27,1.01-3.21.76-4.22-.59-1.01-1.35-.76-3.29.59-4.31,6.75-5.07,11.14-11.82,14.01-19.5,2.87-7.85,4.14-16.63,4.64-25.67h0Zm.42-22.46c0-1.69,1.35-3.04,3.04-3.04s3.04,1.35,3.04,3.04v.25c0,4.05.08,8.19,0,12.33,0,1.69-1.44,3.04-3.12,3.04s-3.04-1.44-2.95-3.12v-12.5h0Z" fill="#6c92d8" stroke-width="0"/>
        </g>
        <g>
          <polygon points="1554.97 840.55 842.36 840.55 125.53 840.55 125.53 966.02 842.36 966.02 1554.97 966.02 2271.8 966.02 2271.8 840.55 1554.97 840.55" fill="#334155" fill-rule="evenodd" stroke-width="0"/>
          <rect x="-1.52" y="735.27" width="2400.36" height="45.68" fill="#ffbe47" stroke-width="0"/>
          <rect x="-1.52" y="768.26" width="2400.18" height="12.68" fill="#fca400" stroke-width="0"/>
          <rect x="48.66" y="781.05" width="76.87" height="184.97" fill="#94a3b8" stroke-width="0"/>
          <path d="m146.76,909.21c3.27,0,5.94-2.66,5.94-5.93s-2.66-5.94-5.94-5.94-5.93,2.66-5.93,5.94,2.66,5.93,5.93,5.93h0Z" fill="#eee" fill-rule="evenodd" stroke-width="0"/>
          <path d="m146.76,936.17c3.27,0,5.94-2.66,5.94-5.94s-2.66-5.93-5.94-5.93-5.93,2.66-5.93,5.93,2.66,5.94,5.93,5.94h0Z" fill="#eee" fill-rule="evenodd" stroke-width="0"/>
          <rect x="2271.8" y="781.05" width="76.87" height="184.97" fill="#94a3b8" stroke-width="0"/>
          <path d="m2250.57,882.26c-3.27,0-5.94-2.66-5.94-5.93s2.66-5.94,5.94-5.94,5.93,2.66,5.93,5.94-2.66,5.93-5.93,5.93h0Z" fill="#eee" fill-rule="evenodd" stroke-width="0"/>
          <path d="m2250.57,909.21c-3.27,0-5.94-2.66-5.94-5.93s2.66-5.94,5.94-5.94,5.93,2.66,5.93,5.94-2.66,5.93-5.93,5.93h0Z" fill="#eee" fill-rule="evenodd" stroke-width="0"/>
          <path d="m2250.57,936.17c-3.27,0-5.94-2.66-5.94-5.94s2.66-5.93,5.94-5.93,5.93,2.66,5.93,5.93-2.66,5.94-5.93,5.94h0Z" fill="#eee" fill-rule="evenodd" stroke-width="0"/>
          <rect x="2271.8" y="781.05" width="76.87" height="18.17" fill="#64748b" stroke-width="0"/>
          <rect x="48.66" y="780.95" width="76.87" height="18.17" fill="#64748b" stroke-width="0"/>
        </g>
      </g>
      <path d="m473.8,735.19l.02-.02h124.04v-169.97h-20.29v-72.05c0-11.42-9.37-20.72-20.89-20.72h-71.46c-11.52,0-20.89,9.29-20.89,20.72v21.6h-.47c-.23,0-.41.19-.41.41v11.56c0,.23.19.41.41.41h.47v6.06h-.43c-.25,0-.45.2-.45.45v18.56c0,.25.2.45.45.45h.43v3.47h-.43c-.25,0-.45.2-.45.45v8.62h-77.5l27.19-41.41-.04-.09s.07-.04.1-.06l12.59-31.65-7.34,7.36h0s-16.82,16.88-16.82,16.88l-32.15,48.96h-3.69l27.47-60.52-.06-.09s.06-.05.08-.07l5.25-23.06h.01s2.3-10.14,2.3-10.14l-6.11,8.41h0s-14,19.27-14,19.27l-20.9,46.06,5.87-60.24h0s.64-6.51.64-6.51c.09-.86-.15-1.74-.66-2.4-.51-.69-1.23-1.09-2.03-1.18l-4.41-.43,1.11-11.4c.14-1.38-.78-2.61-2.06-2.74l-4.67-.48-1.71.59c-.49.43-.79,1.04-.84,1.71l-1.12,11.42-4.41-.43c-.81-.08-1.61.2-2.23.75-.62.55-1.02,1.35-1.09,2.22l-.45,4.7-2.53-.25-.5-.04-1.55.53-.75,1.53-5.05,51.91,2.59.25,2.55-.33,1.17-11.99-2.19-3.53,3.21-33.09.77-1.55,1.51-.51.47.05-.04.36-7.91,81.22h-8.84l5.91-65.21,1.16.11.94.08.29-3.14-1.14-.11,1.59-53.66c.03-1.56-6.66-1.98-6.84-.62-3.5,20.42-7.36,34.1-10.7,52.02-.59,3.22-1.23,27.24-1.4,34.82-.18,7.56-.15,7.35.23,7.75l1.02.09,3.48-38.37h0s-6.01,66.25-6.01,66.25h-36.46v101.1h0v68.87h166.91l30.13.02Z" fill="#111827" mix-blend-mode="multiply" opacity=".49" stroke-width="0"/>
      <path d="m2290.81,735.27c3.41,0,6.17-2.76,6.17-6.17v-20.37h-30.42v-361c0-9.71-7.9-17.61-17.61-17.61h-539.78c-9.71,0-17.61,7.9-17.61,17.61v361h-31.5v20.37c0,3.41,2.76,6.17,6.17,6.17h-93.06v-4.48h.2c-.91-10.82-21.8-19.49-47.45-19.49s-46.54,8.67-47.45,19.49v4.48h-68.14c3.42,0,6.19-2.08,6.19-4.64v-4.22c0-2.58-2.77-4.65-6.19-4.65h-6.19v-2.37c0-.82-1.13-1.49-2.53-1.49h-12.22c-1.39,0-2.53.67-2.53,1.49v2.37h-1.13v-2.37c0-.82-1.14-1.49-2.54-1.49h-12.19c-1.42,0-2.55.67-2.55,1.49v2.37h-1.14v-2.37c0-.82-1.12-1.49-2.52-1.49h-12.22c-1.4,0-2.53.67-2.53,1.49v2.37h-1.13v-2.37c0-.82-1.14-1.49-2.53-1.49h-12.22c-1.4,0-2.54.67-2.54,1.49v2.37h-12.97v-2.37c0-.82-1.14-1.49-2.54-1.49h-9.52v-120.98h322.38c6.63,0,12-5.37,12-12V4.64c0-9.02-7.31-16.33-16.33-16.33h-851.94c-9.02,0-16.33,7.31-16.33,16.33v503.81h0v76.46c0,6.63,5.37,12,12,12h322.38v120.93l-47.35.05c-1.4,0-2.54.66-2.54,1.49v2.37h-1.66v-2.37c0-.82-1.14-1.49-2.54-1.49h-12.21c-1.4,0-2.54.67-2.54,1.49v2.37h-1.66v-2.37c0-.82-1.14-1.49-2.54-1.49h-12.21c-1.41,0-2.54.67-2.54,1.49v2.37h-1.66v-2.37c0-.82-1.14-1.49-2.54-1.49h-12.21c-1.42,0-2.54.67-2.54,1.49v2.37h-6.15c-3.43,0-6.19,2.08-6.19,4.65v4.22c0,2.56,2.76,4.64,6.19,4.64h-182.94c40.69-15.45,37.91-61.38,37.91-98.27h-164.89c0,3.37-.02,6.81-.03,10.3h-15.25c-5.57,0-10.64,2.28-14.35,5.99-3.71,3.63-5.99,8.78-5.99,14.35v14.52c0,7.18,2.95,13.76,7.68,18.49,4.73,4.73,11.31,7.68,18.49,7.68h18.05c5.53,11.73,14.56,21.33,29.31,26.93H-1.52v45.68h50.18v185.07h76.87s2223.13,0,2223.13,0v-184.97l50.18-.1v-45.68h-108.04Zm-1630.47-39.17h-1.86c-3.8,0-7.26-1.6-9.79-4.14-2.53-2.53-4.14-5.99-4.14-9.79v-14.52c0-2.2.93-4.22,2.45-5.74,1.44-1.44,3.46-2.36,5.66-2.36h15.31c.22,12.49,1.1,25.11,4.16,36.56h-11.78Zm1611.46,103.12v41.34H125.53v-59.61l2146.26.1v18.17Z" fill="#111827" mix-blend-mode="multiply" opacity=".49" stroke-width="0"/>
      <g>
        <rect x="1813.09" y="364.46" width="437.61" height="331.75" fill="#1e293b" stroke-width="0"/>
        <path d="m1707.48,346.99v17.47h543.15v-17.47c0-.93-.76-1.69-1.69-1.69h-238.81v2.98c0,2.51-2.04,4.55-4.55,4.55h-53.06c-2.51,0-4.55-2.04-4.55-4.55v-2.98h-238.81c-.93,0-1.69.76-1.69,1.69Z" fill="#0f172a" filter="url(#outer-glow-2)" stroke-width="0"/>
        <rect x="1707.4" y="364.46" width="105.69" height="331.75" fill="#475569" filter="url(#outer-glow-3)" stroke-width="0"/>
        <rect x="1813.09" y="364.46" width="437.61" height="331.75" fill="#1e293b" filter="url(#outer-glow-4)" stroke-width="0"/>
        <rect x="1813.09" y="364.46" width="437.61" height="331.75" fill="#1e293b" stroke-width="0"/>
        <path d="m1707.48,346.99v17.47h543.15v-17.47c0-.93-.76-1.69-1.69-1.69h-238.81v2.98c0,2.51-2.04,4.55-4.55,4.55h-53.06c-2.51,0-4.55-2.04-4.55-4.55v-2.98h-238.81c-.93,0-1.69.76-1.69,1.69Z" fill="#0f172a" stroke-width="0"/>
        <rect x="1707.4" y="364.46" width="105.69" height="331.75" fill="#475569" stroke-width="0"/>
        <g>
          <path d="m2225.06,354.88c0,1.55-1.25,2.81-2.8,2.81s-2.8-1.26-2.8-2.81,1.25-2.81,2.8-2.81,2.8,1.26,2.8,2.81Z" fill="#ffc440" stroke-width="0"/>
          <path d="m2233.59,354.88c0,1.55-1.25,2.81-2.8,2.81s-2.8-1.26-2.8-2.81,1.25-2.81,2.8-2.81,2.8,1.26,2.8,2.81Z" fill="#56c356" stroke-width="0"/>
          <path d="m2242.11,354.88c0,1.55-1.25,2.81-2.8,2.81s-2.8-1.26-2.8-2.81,1.25-2.81,2.8-2.81,2.8,1.26,2.8,2.81Z" fill="#ff5168" stroke-width="0"/>
        </g>
        <rect x="1813.09" y="364.46" width="1" height="331.75" fill="#334155" stroke-width="0"/>
        <g>
          <g>
            <rect x="1722.24" y="375.71" width="6.06" height="6.06" fill="#2dd4bf" stroke-width="0"/>
            <rect x="1730.65" y="377.18" width="27.71" height="3.11" fill="#cbd5e1" stroke-width="0"/>
          </g>
          <g>
            <rect x="1722.24" y="405.78" width="6.06" height="6.06" fill="#2dd4bf" stroke-width="0"/>
            <rect x="1730.65" y="407.26" width="27.71" height="3.11" fill="#cbd5e1" stroke-width="0"/>
          </g>
          <g>
            <rect x="1722.24" y="455.9" width="6.06" height="6.06" fill="#2dd4bf" stroke-width="0"/>
            <rect x="1730.65" y="457.38" width="27.71" height="3.11" fill="#cbd5e1" stroke-width="0"/>
          </g>
          <g>
            <rect x="1722.24" y="465.93" width="6.06" height="6.06" fill="#2dd4bf" stroke-width="0"/>
            <rect x="1730.65" y="467.41" width="27.71" height="3.11" fill="#cbd5e1" stroke-width="0"/>
          </g>
          <g>
            <rect x="1730.65" y="385.73" width="6.06" height="6.06" fill="#14b8a6" stroke-width="0"/>
            <rect x="1739.14" y="387.21" width="27.71" height="3.11" fill="#cbd5e1" stroke-width="0"/>
          </g>
          <g>
            <rect x="1730.65" y="395.76" width="6.06" height="6.06" fill="#14b8a6" stroke-width="0"/>
            <rect x="1739.14" y="397.23" width="38.23" height="3.11" fill="#cbd5e1" stroke-width="0"/>
          </g>
          <g>
            <rect x="1730.65" y="415.81" width="6.06" height="6.06" fill="#14b8a6" stroke-width="0"/>
            <rect x="1739.12" y="417.28" width="46.52" height="3.11" fill="#cbd5e1" stroke-width="0"/>
          </g>
          <g>
            <rect x="1730.65" y="425.83" width="6.06" height="6.06" fill="#14b8a6" stroke-width="0"/>
            <rect x="1739.12" y="427.31" width="31.43" height="3.11" fill="#cbd5e1" stroke-width="0"/>
          </g>
          <g>
            <rect x="1739.12" y="435.86" width="6.06" height="6.06" fill="#0d9488" stroke-width="0"/>
            <rect x="1747.54" y="437.33" width="51.76" height="3.11" fill="#cbd5e1" stroke-width="0"/>
          </g>
          <g>
            <rect x="1739.12" y="445.88" width="6.06" height="6.06" fill="#0d9488" stroke-width="0"/>
            <rect x="1747.54" y="447.36" width="31.59" height="3.11" fill="#cbd5e1" stroke-width="0"/>
          </g>
          <g>
            <g>
              <rect x="1722.24" y="475.55" width="6.06" height="6.06" fill="#2dd4bf" stroke-width="0"/>
              <rect x="1730.65" y="477.02" width="27.71" height="3.11" fill="#cbd5e1" stroke-width="0"/>
            </g>
            <g>
              <rect x="1722.24" y="505.62" width="6.06" height="6.06" fill="#2dd4bf" stroke-width="0"/>
              <rect x="1730.65" y="507.1" width="27.71" height="3.11" fill="#cbd5e1" stroke-width="0"/>
            </g>
            <g>
              <rect x="1722.24" y="555.74" width="6.06" height="6.06" fill="#2dd4bf" stroke-width="0"/>
              <rect x="1730.65" y="557.22" width="27.71" height="3.11" fill="#cbd5e1" stroke-width="0"/>
            </g>
            <g>
              <rect x="1722.24" y="565.77" width="6.06" height="6.06" fill="#2dd4bf" stroke-width="0"/>
              <rect x="1730.65" y="567.25" width="27.71" height="3.11" fill="#cbd5e1" stroke-width="0"/>
            </g>
            <g>
              <rect x="1730.65" y="485.57" width="6.06" height="6.06" fill="#14b8a6" stroke-width="0"/>
              <rect x="1739.14" y="487.05" width="27.71" height="3.11" fill="#cbd5e1" stroke-width="0"/>
            </g>
            <g>
              <rect x="1730.65" y="495.6" width="6.06" height="6.06" fill="#14b8a6" stroke-width="0"/>
              <rect x="1739.14" y="497.07" width="38.23" height="3.11" fill="#cbd5e1" stroke-width="0"/>
            </g>
            <g>
              <rect x="1730.65" y="515.65" width="6.06" height="6.06" fill="#14b8a6" stroke-width="0"/>
              <rect x="1739.12" y="517.12" width="46.52" height="3.11" fill="#cbd5e1" stroke-width="0"/>
            </g>
            <g>
              <rect x="1730.65" y="525.67" width="6.06" height="6.06" fill="#14b8a6" stroke-width="0"/>
              <rect x="1739.12" y="527.15" width="31.43" height="3.11" fill="#cbd5e1" stroke-width="0"/>
            </g>
            <g>
              <rect x="1739.12" y="535.69" width="6.06" height="6.06" fill="#0d9488" stroke-width="0"/>
              <rect x="1747.54" y="537.17" width="51.76" height="3.11" fill="#cbd5e1" stroke-width="0"/>
            </g>
            <g>
              <rect x="1739.12" y="545.72" width="6.06" height="6.06" fill="#0d9488" stroke-width="0"/>
              <rect x="1747.54" y="547.2" width="31.59" height="3.11" fill="#cbd5e1" stroke-width="0"/>
            </g>
          </g>
        </g>
        <g>
          <path d="m1823.81,378.68h0c-1.36,0-2.47-1.11-2.47-2.48h0c0-1.37,1.11-2.48,2.47-2.48h0c1.36,0,2.47,1.11,2.47,2.48h0c0,1.37-1.11,2.48-2.47,2.48Z" fill="#4f5569" stroke-width="0"/>
          <rect x="1833.64" y="373.71" width="29.68" height="4.96" fill="#f5ab35" stroke-width="0"/>
          <rect x="1870.66" y="373.71" width="54.14" height="4.96" fill="#f43f5e" stroke-width="0"/>
          <path d="m1823.81,393.28h0c-1.36,0-2.47-1.11-2.47-2.48h0c0-1.37,1.11-2.48,2.47-2.48h0c1.36,0,2.47,1.11,2.47,2.48h0c0,1.37-1.11,2.48-2.47,2.48Z" fill="#4f5569" stroke-width="0"/>
          <rect x="1833.64" y="388.32" width="73.98" height="4.96" fill="#f97316" stroke-width="0"/>
          <rect x="1914.95" y="388.32" width="130.53" height="4.96" fill="#14b8a6" stroke-width="0"/>
          <path d="m1823.81,407.89h0c-1.36,0-2.47-1.11-2.47-2.48h0c0-1.37,1.11-2.48,2.47-2.48h0c1.36,0,2.47,1.11,2.47,2.48h0c0,1.37-1.11,2.48-2.47,2.48Z" fill="#4f5569" stroke-width="0"/>
          <rect x="1833.64" y="402.93" width="29.68" height="4.96" fill="#f97316" stroke-width="0"/>
          <path d="m1823.81,422.5h0c-1.36,0-2.47-1.11-2.47-2.48h0c0-1.37,1.11-2.48,2.47-2.48h0c1.36,0,2.47,1.11,2.47,2.48h0c0,1.37-1.11,2.48-2.47,2.48Z" fill="#4f5569" stroke-width="0"/>
          <rect x="1833.64" y="417.53" width="17.18" height="4.96" fill="#f43f5e" stroke-width="0"/>
          <rect x="1858.15" y="417.53" width="49.47" height="4.96" fill="#e5e7eb" stroke-width="0"/>
          <path d="m1823.81,437.1h0c-1.36,0-2.47-1.11-2.47-2.48h0c0-1.37,1.11-2.48,2.47-2.48h0c1.36,0,2.47,1.11,2.47,2.48h0c0,1.37-1.11,2.48-2.47,2.48Z" fill="#4f5569" stroke-width="0"/>
          <rect x="1848.48" y="432.14" width="29.68" height="4.96" fill="#e5e7eb" stroke-width="0"/>
          <rect x="1885.5" y="432.14" width="65.33" height="4.96" fill="#06b6d4" stroke-width="0"/>
          <path d="m1823.81,451.71h0c-1.36,0-2.47-1.11-2.47-2.48h0c0-1.37,1.11-2.48,2.47-2.48h0c1.36,0,2.47,1.11,2.47,2.48h0c0,1.37-1.11,2.48-2.47,2.48Z" fill="#4f5569" stroke-width="0"/>
          <rect x="1848.48" y="446.75" width="222.51" height="4.96" fill="#14b8a6" stroke-width="0"/>
          <rect x="2079.99" y="446.75" width="30.04" height="4.96" fill="#f5ab35" stroke-width="0"/>
          <rect x="2079.99" y="446.33" width="30.04" height="4.96" fill="#f5ab35" stroke-width="0"/>
          <path d="m1823.81,466.31h0c-1.36,0-2.47-1.11-2.47-2.48h0c0-1.37,1.11-2.48,2.47-2.48h0c1.36,0,2.47,1.11,2.47,2.48h0c0,1.37-1.11,2.48-2.47,2.48Z" fill="#4f5569" stroke-width="0"/>
          <rect x="1865.53" y="461.35" width="306.64" height="4.96" fill="#06b6d4" stroke-width="0"/>
          <path d="m1823.81,480.92h0c-1.36,0-2.47-1.11-2.47-2.48h0c0-1.37,1.11-2.48,2.47-2.48h0c1.36,0,2.47,1.11,2.47,2.48h0c0,1.37-1.11,2.48-2.47,2.48Z" fill="#4f5569" stroke-width="0"/>
          <rect x="1865.53" y="475.96" width="185.12" height="4.96" fill="#06b6d4" stroke-width="0"/>
          <rect x="2058.55" y="475.96" width="51.49" height="4.96" fill="#14b8a6" stroke-width="0"/>
          <path d="m1823.81,495.53h0c-1.36,0-2.47-1.11-2.47-2.48h0c0-1.37,1.11-2.48,2.47-2.48h0c1.36,0,2.47,1.11,2.47,2.48h0c0,1.37-1.11,2.48-2.47,2.48Z" fill="#4f5569" stroke-width="0"/>
          <rect x="1848.48" y="490.56" width="17.05" height="4.96" fill="#f43f5e" stroke-width="0"/>
          <path d="m1823.81,509.94h0c-1.36,0-2.47-1.11-2.47-2.48h0c0-1.37,1.11-2.48,2.47-2.48h0c1.36,0,2.47,1.11,2.47,2.48h0c0,1.37-1.11,2.48-2.47,2.48Z" fill="#4f5569" stroke-width="0"/>
          <rect x="1848.48" y="504.98" width="29.68" height="4.96" fill="#e5e7eb" stroke-width="0"/>
          <rect x="1885.5" y="504.98" width="65.33" height="4.96" fill="#06b6d4" stroke-width="0"/>
          <path d="m1823.81,524.55h0c-1.36,0-2.47-1.11-2.47-2.48h0c0-1.37,1.11-2.48,2.47-2.48h0c1.36,0,2.47,1.11,2.47,2.48h0c0,1.37-1.11,2.48-2.47,2.48Z" fill="#4f5569" stroke-width="0"/>
          <rect x="1848.48" y="519.58" width="222.51" height="4.96" fill="#14b8a6" stroke-width="0"/>
          <rect x="2079.99" y="519.58" width="30.04" height="4.96" fill="#f5ab35" stroke-width="0"/>
          <rect x="2079.99" y="519.17" width="30.04" height="4.96" fill="#f5ab35" stroke-width="0"/>
          <path d="m1823.81,539.15h0c-1.36,0-2.47-1.11-2.47-2.48h0c0-1.37,1.11-2.48,2.47-2.48h0c1.36,0,2.47,1.11,2.47,2.48h0c0,1.37-1.11,2.48-2.47,2.48Z" fill="#4f5569" stroke-width="0"/>
          <rect x="1865.53" y="534.19" width="306.64" height="4.96" fill="#f43f5e" stroke-width="0"/>
          <path d="m1823.81,553.76h0c-1.36,0-2.47-1.11-2.47-2.48h0c0-1.37,1.11-2.48,2.47-2.48h0c1.36,0,2.47,1.11,2.47,2.48h0c0,1.37-1.11,2.48-2.47,2.48Z" fill="#4f5569" stroke-width="0"/>
          <rect x="1865.53" y="548.8" width="55.25" height="4.96" fill="#06b6d4" stroke-width="0"/>
          <rect x="1930.46" y="548.8" width="120.18" height="4.96" fill="#e5e7eb" stroke-width="0"/>
          <rect x="2058.55" y="548.8" width="51.49" height="4.96" fill="#14b8a6" stroke-width="0"/>
          <path d="m1823.81,568.37h0c-1.36,0-2.47-1.11-2.47-2.48h0c0-1.37,1.11-2.48,2.47-2.48h0c1.36,0,2.47,1.11,2.47,2.48h0c0,1.37-1.11,2.48-2.47,2.48Z" fill="#4f5569" stroke-width="0"/>
          <rect x="1848.48" y="563.4" width="17.05" height="4.96" fill="#f5ab35" stroke-width="0"/>
          <path d="m1823.81,582.78h0c-1.36,0-2.47-1.11-2.47-2.48h0c0-1.37,1.11-2.48,2.47-2.48h0c1.36,0,2.47,1.11,2.47,2.48h0c0,1.37-1.11,2.48-2.47,2.48Z" fill="#4f5569" stroke-width="0"/>
          <rect x="1848.48" y="577.82" width="29.68" height="4.96" fill="#e5e7eb" stroke-width="0"/>
          <rect x="1885.5" y="577.82" width="65.33" height="4.96" fill="#06b6d4" stroke-width="0"/>
          <path d="m1823.81,597.39h0c-1.36,0-2.47-1.11-2.47-2.48h0c0-1.37,1.11-2.48,2.47-2.48h0c1.36,0,2.47,1.11,2.47,2.48h0c0,1.37-1.11,2.48-2.47,2.48Z" fill="#4f5569" stroke-width="0"/>
          <rect x="1848.48" y="592.42" width="222.51" height="4.96" fill="#14b8a6" stroke-width="0"/>
          <rect x="2079.99" y="592.42" width="30.04" height="4.96" fill="#f5ab35" stroke-width="0"/>
          <rect x="2079.99" y="592.01" width="30.04" height="4.96" fill="#14b8a6" stroke-width="0"/>
          <path d="m1823.81,611.99h0c-1.36,0-2.47-1.11-2.47-2.48h0c0-1.37,1.11-2.48,2.47-2.48h0c1.36,0,2.47,1.11,2.47,2.48h0c0,1.37-1.11,2.48-2.47,2.48Z" fill="#4f5569" stroke-width="0"/>
          <rect x="1865.53" y="607.03" width="306.64" height="4.96" fill="#06b6d4" stroke-width="0"/>
          <path d="m1823.81,626.6h0c-1.36,0-2.47-1.11-2.47-2.48h0c0-1.37,1.11-2.48,2.47-2.48h0c1.36,0,2.47,1.11,2.47,2.48h0c0,1.37-1.11,2.48-2.47,2.48Z" fill="#4f5569" stroke-width="0"/>
          <rect x="1865.53" y="621.64" width="185.12" height="4.96" fill="#e5e7eb" stroke-width="0"/>
          <rect x="2058.55" y="621.64" width="51.49" height="4.96" fill="#ef4444" stroke-width="0"/>
          <rect x="2120.69" y="621.64" width="51.49" height="4.96" fill="#e5e7eb" stroke-width="0"/>
          <path d="m1823.81,641.21h0c-1.36,0-2.47-1.11-2.47-2.48h0c0-1.37,1.11-2.48,2.47-2.48h0c1.36,0,2.47,1.11,2.47,2.48h0c0,1.37-1.11,2.48-2.47,2.48Z" fill="#4f5569" stroke-width="0"/>
          <rect x="1848.48" y="636.24" width="17.05" height="4.96" fill="#f5ab35" stroke-width="0"/>
        </g>
      </g>
      <g>
        <path d="m556.69,472.7c11.04,0,19.99,8.88,19.99,19.83v190.33c0,10.95-8.95,19.83-19.99,19.83h-71.46c-11.04,0-19.99-8.88-19.99-19.83v-190.33c0-10.95,8.95-19.83,19.99-19.83h71.46m0-.89h-71.46c-11.52,0-20.89,9.29-20.89,20.72v190.33c0,11.42,9.37,20.72,20.89,20.72h71.46c11.52,0,20.89-9.29,20.89-20.72v-190.33c0-11.42-9.37-20.72-20.89-20.72h0Z" fill="#94a3b8" stroke-width="0"/>
        <path d="m556.7,472.7h-71.47c-11.04,0-19.99,8.88-19.99,19.83v190.34c0,10.95,8.95,19.83,19.99,19.83h71.47c11.04,0,19.99-8.88,19.99-19.83v-190.34c0-10.95-8.95-19.83-19.99-19.83Zm16.4,210.17c0,8.97-7.36,16.26-16.4,16.26h-71.47c-9.04,0-16.4-7.3-16.4-16.26v-190.34c0-8.97,7.36-16.26,16.4-16.26h71.47c9.04,0,16.4,7.3,16.4,16.26v190.34Z" fill="#020617" stroke-width="0"/>
        <path d="m556.7,472.7h-71.47c-11.04,0-19.99,8.88-19.99,19.83v190.34c0,10.95,8.95,19.83,19.99,19.83h71.47c11.04,0,19.99-8.88,19.99-19.83v-190.34c0-10.95-8.95-19.83-19.99-19.83Z" fill="#020617" stroke-width="0"/>
        <path d="m573.1,682.86c0,8.97-7.36,16.26-16.4,16.26h-71.47c-9.04,0-16.4-7.3-16.4-16.26v-190.34c0-8.97,7.36-16.26,16.4-16.26h71.47c9.04,0,16.4,7.3,16.4,16.26v190.34Z" fill="#020617" stroke-width="0"/>
        <path d="m573.1,682.86c0,8.97-7.36,16.26-16.4,16.26h-71.47c-9.04,0-16.4-7.3-16.4-16.26v-190.34c0-8.97,7.36-16.26,16.4-16.26h71.47c9.04,0,16.4,7.3,16.4,16.26v190.34Z" fill="#fff" mix-blend-mode="lighten" opacity=".07" stroke-width="0"/>
        <path d="m463.87,514.13h.47v12.38h-.47c-.23,0-.41-.19-.41-.41v-11.56c0-.23.19-.41.41-.41Z" fill="#64748b" stroke-width="0"/>
        <path d="m463.91,532.58h.43v19.46h-.43c-.25,0-.45-.2-.45-.45v-18.56c0-.25.2-.45.45-.45Z" fill="#64748b" stroke-width="0"/>
        <path d="m463.91,555.51h.43v19.46h-.43c-.25,0-.45-.2-.45-.45v-18.56c0-.25.2-.45.45-.45Z" fill="#64748b" stroke-width="0"/>
        <rect x="503.61" y="478.73" width="33.83" height="11.05" rx="5.52" ry="5.52" fill="#020617" stroke-width="0"/>
        <path d="m531.77,482.93c.73,0,1.33.6,1.33,1.33s-.6,1.33-1.33,1.33-1.33-.6-1.33-1.33.6-1.33,1.33-1.33m0-2.21c-1.95,0-3.54,1.58-3.54,3.54s1.58,3.54,3.54,3.54,3.54-1.58,3.54-3.54-1.58-3.54-3.54-3.54h0Z" fill="#1e293b" stroke-width="0"/>
      </g>
    </g>
  </g>
</svg>