<?xml version="1.0" encoding="UTF-8"?>
<svg xmlns="http://www.w3.org/2000/svg" viewBox="0 0 2400 980">
  <g isolation="isolate">
    <g id="featured-light">
      <g>
        <rect y="745" width="2400" height="45" fill="#ffc800" stroke-width="0"/>
        <rect y="780" width="2400" height="10" mix-blend-mode="multiply" opacity=".3" stroke-width="0"/>
        <g>
          <rect x="52" y="790" width="75" height="190" fill="#94a3b8" stroke-width="0"/>
          <polygon points="52 790 127 790 52 846 52 790" fill-rule="evenodd" mix-blend-mode="darken" opacity=".25" stroke-width="0"/>
        </g>
        <g>
          <rect x="2273" y="790" width="75" height="190" fill="#94a3b8" stroke-width="0"/>
          <polygon points="2273 790 2348 790 2273 846 2273 790" fill-rule="evenodd" mix-blend-mode="darken" opacity=".25" stroke-width="0"/>
        </g>
        <g>
          <polygon points="1556.26 855 843.74 855 127 855 127 980 843.74 980 1556.26 980 2273 980 2273 855 1556.26 855" fill="#334155" fill-rule="evenodd" stroke-width="0"/>
          <g>
            <path d="m152.99,896.54c3.31,0,6.01-2.7,6.01-5.99s-2.7-6.01-6.01-6.01-5.99,2.7-5.99,6.01,2.7,5.99,5.99,5.99h0Z" fill="#eee" fill-rule="evenodd" stroke-width="0"/>
            <path d="m152.99,923.49c3.31,0,6.01-2.7,6.01-5.99s-2.7-6.01-6.01-6.01-5.99,2.7-5.99,6.01,2.7,5.99,5.99,5.99h0Z" fill="#eee" fill-rule="evenodd" stroke-width="0"/>
            <path d="m152.99,950.46c3.31,0,6.01-2.7,6.01-6.01s-2.7-5.99-6.01-5.99-5.99,2.7-5.99,5.99,2.7,6.01,5.99,6.01h0Z" fill="#eee" fill-rule="evenodd" stroke-width="0"/>
          </g>
          <g>
            <path d="m2246.99,896.54c3.31,0,6.01-2.7,6.01-5.99s-2.7-6.01-6.01-6.01-5.99,2.7-5.99,6.01,2.7,5.99,5.99,5.99h0Z" fill="#eee" fill-rule="evenodd" stroke-width="0"/>
            <path d="m2246.99,923.49c3.31,0,6.01-2.7,6.01-5.99s-2.7-6.01-6.01-6.01-5.99,2.7-5.99,6.01,2.7,5.99,5.99,5.99h0Z" fill="#eee" fill-rule="evenodd" stroke-width="0"/>
            <path d="m2246.99,950.46c3.31,0,6.01-2.7,6.01-6.01s-2.7-5.99-6.01-5.99-5.99,2.7-5.99,5.99,2.7,6.01,5.99,6.01h0Z" fill="#eee" fill-rule="evenodd" stroke-width="0"/>
          </g>
        </g>
      </g>
      <g>
        <g>
          <g>
            <polygon points="356.74 651.37 380.04 512.92 381.01 507.32 385.58 513.47 388.89 508.67 390.61 514.15 396.82 509.98 372.42 654.99 356.74 651.37" fill="#ffc800" fill-rule="evenodd" stroke-width="0"/>
            <polygon points="356.74 651.37 380.04 512.92 381.01 507.32 385.58 513.47 388.89 508.67 390.61 514.15 367.14 653.77 356.74 651.37" fill="#ffc800" fill-rule="evenodd" stroke-width="0"/>
            <polygon points="356.74 651.37 380.04 512.92 381.01 507.32 385.58 513.47 362.16 652.62 356.74 651.37" fill-rule="evenodd" mix-blend-mode="hard-light" opacity=".25" stroke-width="0"/>
            <polygon points="396.82 509.98 394.12 476.89 381.01 507.32 385.58 513.47 388.94 508.68 390.61 514.15 396.82 509.98" fill="#e7a980" fill-rule="evenodd" stroke-width="0"/>
            <polygon points="390.61 514.15 394.12 476.89 381.01 507.32 385.58 513.47 388.54 510.85 390.61 514.15" fill="#e29663" fill-rule="evenodd" stroke-width="0"/>
            <polygon points="385.58 513.47 394.12 476.89 381.01 507.32 385.58 513.47" fill="#cf804b" fill-rule="evenodd" stroke-width="0"/>
            <polygon points="395.19 489.77 392.81 491.22 390.88 490.93 388.83 489.15 394.12 476.89 395.19 489.77" fill-rule="evenodd" stroke-width="0"/>
            <polygon points="367.14 653.77 390.61 514.15 396.82 509.98 372.42 654.99 367.14 653.77" fill="#fff" fill-rule="evenodd" mix-blend-mode="lighten" opacity=".3" stroke-width="0"/>
            <polygon points="371.59 563.11 392.22 537.34 392.22 537.34 371.01 566.48 371.59 563.11" fill-rule="evenodd" mix-blend-mode="hard-light" opacity=".35" stroke-width="0"/>
          </g>
          <g>
            <g>
              <rect x="295.27" y="463.01" width="10.28" height="20.57" rx="3.42" ry="3.42" transform="translate(-34.89 24.04) rotate(-4.33)" fill="#255cc0" stroke-width="0"/>
              <path d="m292.54,497.32l1.28,16.94c-.64.24-1.49.66-2.38,1.4-.63.53-1.28,1.22-1.89,2.14-1.32,1.99-2.02,4.39-2.42,6.71-.22,1.29-.35,2.56-.44,3.72-.74,9.58-1.07,41.23,5.03,61.17.51,1.67,2.05,6.47.85,9.99-.76,2.26-2.38,3.22-3.67,3.68-2.5-26.1-5.01-52.21-7.51-78.31-.16-1.36-1.51-14.13,4.07-22.18.02-.03.04-.06.06-.09,1.88-2.68,3.96-4,5.57-4.68.54-.23,1.02-.38,1.43-.49Z" fill="#ff8427" stroke-width="0"/>
              <path d="m322.58,701.23l-.75,13.11v.17s-.35,5.97-.35,5.97l-.44,7.74c-.04.72-.58,1.12-1.14,1.16-.03,0-.06,0-.09,0-.54,0-1.08-.31-1.22-.98l-1.6-7.56-1.24-5.88-.03-.16-2.72-12.84c-.15-.73.37-1.44,1.12-1.49l7.14-.54c.75-.06,1.37.56,1.33,1.31Z" fill="#e8e8e8" stroke-width="0"/>
              <path d="m323.75,714.19l-.03.17-.93,4.69c-.14.69-.65,1.23-1.3,1.42-.12.04-.25.06-.39.07l-3.86.29c-.08,0-.16,0-.25,0-.74-.04-1.39-.52-1.65-1.23l-1.69-4.66,10.1-.77Z" fill="#eb9532" stroke-width="0"/>
              <path d="m316.12,518.17l6.9,91.03.55,8.68.77,12.22,1.1,17.45c.55,8.8.7,17.63.45,26.45l-2.14,40.36-10.01.76-.03-.16-8.16-39.42c-1.58-8.68-2.76-17.43-3.54-26.21l-1.54-17.42-1.08-12.19-.77-8.66-6.9-91.03c-.11-1.45-.2-2.9-.26-4.35-.07-1.53-.12-3.06-.14-4.6l-.2-13.26-.21-14.08-.08-5.41c-.02-1.66,1.3-3.08,3.05-3.29.06,0,.11-.01.17-.02l13-.98c.06,0,.11,0,.17,0,1.76-.05,3.28,1.14,3.51,2.79l.74,5.36,3.72,27.09c.41,2.96.72,5.93.95,8.91Z" fill="#255cc0" stroke-width="0"/>
              <path d="m311.5,482.77l-20.56,1.56-.11-5.8c-.03-1.78,1.29-3.29,3.03-3.51.06,0,.11-.01.17-.02l13-.98c.06,0,.11,0,.17,0,1.76-.05,3.29,1.24,3.53,3.01l.76,5.75Z" fill="#ff8427" stroke-width="0"/>
              <polygon points="323.57 617.87 324.33 630.09 300.46 631.9 299.37 619.71 323.57 617.87" fill="#ff8427" stroke-width="0"/>
              <path d="m305.02,466.06l.09,1.23-10.25.78-.09-1.23c-.14-1.88,1.27-3.52,3.15-3.67l3.44-.26c1.88-.14,3.52,1.27,3.67,3.15Z" fill="#ff8427" stroke-width="0"/>
            </g>
            <path d="m299.63,463.04l20.18,266.34c-.54,0-1.08-.31-1.22-.98l-1.6-7.56c-.74-.04-1.39-.52-1.65-1.23l-1.69-4.66h.05s-8.16-39.42-8.16-39.42c-1.58-8.68-2.76-17.43-3.54-26.21l-1.54-17.42-1.08-12.19-.77-8.66-6.9-91.03c-.11-1.45-.2-2.9-.26-4.35-.63.53-1.28,1.22-1.89,2.14-.33.5-.62,1.03-.88,1.57l-1.43-18.93c1.36-1.37,2.73-2.16,3.87-2.64l-.21-14.08-.08-5.41c-.02-1.66,1.3-3.08,3.05-3.29.06,0,.11-.01.17-.02l1.33-.1-.61-8.07c-.14-1.88,1.27-3.52,3.15-3.67l1.72-.13Z" mix-blend-mode="darken" opacity=".25" stroke-width="0"/>
          </g>
          <g>
            <path d="m307.63,484.23c-1.77.86-6.17,3.99-4.38,13.34,1.65,8.56,20.2,82.75,34.78,134.45l16.56-6.95c-13.04-51.92-33.12-123.52-35.9-131.6-3.05-9.01-8.45-9.54-10.4-9.39-.28.06-.41.05-.66.16h0Z" fill-rule="evenodd" mix-blend-mode="darken" opacity=".25" stroke-width="0"/>
            <path d="m310.04,482.41c-1.77.86-6.17,3.99-4.38,13.34,1.65,8.56,20.2,82.75,34.78,134.45l16.56-6.95c-13.04-51.92-33.12-123.52-35.9-131.6-3.05-9.01-8.45-9.54-10.4-9.39-.28.06-.41.05-.66.16h0Z" fill="#ff3562" fill-rule="evenodd" stroke-width="0"/>
            <path d="m310.04,482.41c-1.77.86-6.17,3.99-4.38,13.34,1.65,8.56,20.2,82.75,34.78,134.45l7.93-3.33c-12.43-46.7-38.07-144.57-38.33-144.46h0Z" fill-rule="evenodd" mix-blend-mode="darken" opacity=".25" stroke-width="0"/>
            <path d="m327.93,584.15l17.69-4.69c.51,1.79.97,3.61,1.45,5.48l-17.69,4.69c-.48-1.87-.99-3.66-1.45-5.48h0Z" fill="#e5e5e5" fill-rule="evenodd" stroke-width="0"/>
            <polygon points="327.55 582.67 345.24 577.98 345.52 578.95 327.78 583.66 327.55 582.67" fill="#e5e5e5" fill-rule="evenodd" stroke-width="0"/>
            <polygon points="329.54 590.17 347.21 585.43 347.49 586.4 329.75 591.11 329.54 590.17" fill="#e5e5e5" fill-rule="evenodd" stroke-width="0"/>
            <path d="m318.32,506.2l13.84,51.22,3.11,2.77.02.05,2.33,8.58-.26,7.78-3.74.96-4.14-6.54-2.27-8.6-.02-.05,1.27-3.94-13.84-51.22-3.11-2.77-.02-.05-2.27-8.6,1.69-.47c.22-1.07.91-1.9,1.93-2.21.97-.29,2,.13,2.7.93l1.77-.44,2.32,8.58-.03.07-1.27,3.94Z" fill="#e5e5e5" fill-rule="evenodd" stroke-width="0"/>
            <path d="m335.43,577.1l-1.82.46-4.14-6.54-2.27-8.6-.02-.05,1.27-3.94-13.84-51.22-3.11-2.77-.02-.05-2.27-8.6,1.69-.47c.22-1.07.91-1.9,1.88-2.19l22.66,83.97Z" fill="#ccc" fill-rule="evenodd" stroke-width="0"/>
          </g>
          <g>
            <polygon points="318.35 638.85 400.91 525.3 404.28 520.72 405.63 528.25 410.73 525.43 409.83 531.11 417.25 530.14 330.78 649.08 318.35 638.85" fill="#ffc800" fill-rule="evenodd" stroke-width="0"/>
            <polygon points="318.35 638.85 400.91 525.3 404.28 520.72 405.63 528.25 410.73 525.43 409.83 531.11 326.6 645.64 318.35 638.85" fill="#ffc800" fill-rule="evenodd" stroke-width="0"/>
            <polygon points="318.35 638.85 400.91 525.3 404.28 520.72 405.63 528.25 322.66 642.39 318.35 638.85" fill-rule="evenodd" mix-blend-mode="darken" opacity=".25" stroke-width="0"/>
            <polygon points="417.25 530.14 429.58 499.32 404.28 520.72 405.63 528.25 410.77 525.47 409.83 531.11 417.25 530.14" fill="#e7a980" fill-rule="evenodd" stroke-width="0"/>
            <polygon points="409.83 531.11 429.58 499.32 404.28 520.72 405.63 528.25 409.45 527.23 409.83 531.11" fill="#e29663" fill-rule="evenodd" stroke-width="0"/>
            <polygon points="405.63 528.25 429.58 499.32 404.28 520.72 405.63 528.25" fill="#cf804b" fill-rule="evenodd" stroke-width="0"/>
            <polygon points="424.79 511.33 422.02 511.56 420.42 510.44 419.38 507.93 429.58 499.32 424.79 511.33" fill-rule="evenodd" stroke-width="0"/>
            <polygon points="326.6 645.64 409.83 531.11 417.25 530.14 330.78 649.08 326.6 645.64" fill="#fff" fill-rule="evenodd" mix-blend-mode="lighten" opacity=".3" stroke-width="0"/>
          </g>
        </g>
        <g>
          <rect x="280" y="575" width="320" height="170" rx="6" ry="6" fill="#14b8a6" stroke-width="0"/>
          <path d="m533.17,575.89l-63.17-.89-89.15,102.52-84.06,3.7-16.79,32.2v25.57c0,3.32,2.69,6.01,6.01,6l260.15-.26,16.02-22.42" mix-blend-mode="darken" opacity=".25" stroke-width="0"/>
          <path d="m466.14,574.59v9.59c0,.25.2.45.45.45h.43v106.51c0,11.28,9.25,20.46,20.62,20.46h-.72c-1.57,0-2.84,1.27-2.84,2.84v6.64c0,1.56,1.27,2.83,2.84,2.83h71.2c1.56,0,2.84-1.27,2.84-2.83v-6.64c0-1.57-1.28-2.84-2.84-2.84h.07c11.37,0,20.62-9.18,20.62-20.46v-116.54h-112.66Z" mix-blend-mode="darken" opacity=".35" stroke-width="0"/>
          <path d="m596.51,575h-2.91c1.93,0,3.49,2.69,3.49,6v158c0,3.31-1.56,6-3.49,6h2.91c1.93,0,3.49-2.69,3.49-6v-158c0-3.31-1.56-6-3.49-6Z" fill="#fff" fill-rule="evenodd" opacity=".25" stroke-width="0"/>
        </g>
        <g>
          <g>
            <path d="m387.01,616.55l-1.44-1.84c5.79-4.55,13.71-12.17,18.58-22.61l2.12.99c-5.07,10.86-13.27,18.75-19.25,23.46Z" fill="#92bf19" stroke-width="0"/>
            <path d="m404.27,590.48s-.06.07-.08.11c.04-.03.07-.07.08-.11Z" fill="#66d5c4" stroke-width="0"/>
            <path d="m404.59,590.1c2.39-2.78,5.86-3.83,9.45-4.66.2-.05.4-.1.59-.15,1.37-4.2,1.82-8.22,1.41-11.24-3.4,2.64-6.55,5.56-8.58,9.41-1.17,2.15-2.07,4.38-2.87,6.64Z" fill="#cc2a4e" stroke-width="0"/>
            <path d="m409.37,577.35c-.44-2.07-1.2-4.12-2.34-5.9-2.09,2.18-4.1,5.52-5.53,9.51.36.79.65,1.59.9,2.43.63,2.21,1.86,4.13,1.56,6.41l.27.09c-.15.2.11.4.04.58.1-.13.21-.26.32-.39.79-2.26,1.7-4.48,2.87-6.64.68-1.28,1.48-2.46,2.37-3.56-.09-.66-.23-1.33-.34-2.01,0,0-.05-.42-.11-.54Z" fill="#ff3562" stroke-width="0"/>
            <path d="m412.99,568.9c-1.76-.61-3.9.41-5.96,2.55,1.14,1.78,1.89,3.83,2.34,5.9.06.12.11.54.11.54.11.68.25,1.35.34,2.01,1.79-2.2,3.94-4.09,6.21-5.85-.36-2.67-1.39-4.57-3.04-5.14Z" fill="#99203b" stroke-width="0"/>
            <path d="m415.36,583.61c-.06.2-.71,1.62-.78,1.82-.65,1.86-1.44,3.68-2.41,5.4-.16.28-.35.6-.58.95-2.15,3.34-7.22,9.35-10.46,4.61-.5-.73-.79-1.58-.99-2.44-.04-.15-.07-.31-.1-.46-.4-2.04-.31-4.17-.06-6.22.14-1.14,1.53-7.21,1.44-7.39,2.76,3.25,3.06,9.97,3.09,9.97.16,0,3.13-3.41,4.82-4.35,2.22-1.22,5.26-1.96,6.03-1.89Z" fill="#92bf19" stroke-width="0"/>
            <g mix-blend-mode="overlay" opacity=".2">
              <path d="m411.59,591.78c-2.15,3.34-7.22,9.35-10.46,4.61-.5-.73-.79-1.58-.99-2.44-.04-.15-.07-.31-.1-.46,1.43.47,2.91.85,4.41.86,2.57.02,5.02-1,7.14-2.57Z" stroke-width="0"/>
            </g>
          </g>
          <g>
            <path d="m371.91,630.05c-.87-5.62-2.28-11.28-5.39-16.05-11.11-17.02-25.33-6.11-34.84,6.14-.82-.5-1.65-.97-2.51-1.4-.88-.44-1.78-.85-2.74-1.15.7.72,1.47,1.34,2.26,1.93.74.55,1.5,1.06,2.28,1.55-.44.58-.86,1.16-1.27,1.74-.79-.1-1.58-.17-2.38-.19-.81-.02-1.63,0-2.47.13.77.35,1.56.58,2.35.77.58.14,1.17.25,1.75.34-1.29,1.86-2.46,3.7-3.47,5.41-2.23,3.77-4.15,7.74-5.77,11.82-.43-.28-.87-.55-1.31-.8-.85-.49-1.71-.95-2.6-1.37-.89-.41-1.8-.8-2.77-1.08.72.7,1.51,1.3,2.31,1.87.8.57,1.63,1.09,2.48,1.58.49.28.99.55,1.49.81-.46,1.21-.9,2.42-1.3,3.65-.17.06-.35.11-.52.17-.76.27-1.51.58-2.25.93-.73.36-1.46.74-2.14,1.24.84-.04,1.65-.19,2.44-.38.69-.17,1.37-.37,2.04-.6-2.97,9.52-4.26,19.56-3.62,29.5-.73-.34-1.48-.64-2.25-.9-.77-.26-1.56-.49-2.4-.6.63.56,1.32,1.01,2.01,1.43.7.42,1.42.79,2.15,1.13.19.09.38.16.56.24.19,2.36.49,4.71.91,7.05,2.06,11.55,10.68,32.48,25.97,27.76,11.36-3.5,18.85-17.83,23.36-27.88,2.84-6.31,5.01-12.93,6.47-19.7,2.49-11.51,2.94-23.47,1.15-35.11Z" mix-blend-mode="darken" opacity=".25" stroke-width="0"/>
            <path d="m376.28,663.19c-1.47,6.77-3.64,13.39-6.47,19.7-4.51,10.05-12.01,24.38-23.37,27.88-15.3,4.72-23.92-16.21-25.97-27.76-3.39-19.05.73-39.12,10.54-55.71,8.31-14.07,27.11-36.6,41.04-15.27,3.11,4.76,4.52,10.43,5.39,16.05,1.79,11.65,1.34,23.6-1.15,35.11Z" fill="#a4cf37" stroke-width="0"/>
            <path d="m434.06,675.68c-.85,7.34-4.38,19.51-10.36,27.73-5.03,6.93-11.79,11.05-20.14,7.12-.81-.38-1.63-.84-2.47-1.37-2.88-1.85-5.44-4.17-7.72-6.83-3.64-4.25-6.55-9.37-8.89-14.79-1.41-3.27-2.61-6.64-3.63-10-1.51-4.96-2.63-9.89-3.48-14.37-.18-.96-.35-1.92-.5-2.87-2.09-12.83-1.86-24.77.22-34.24.67-3.07,1.54-5.87,2.59-8.37,1.14-2.73,2.5-5.08,4.06-7,2.2-2.72,4.8-4.55,7.72-5.3.12-.03.24-.06.36-.09,11.17-2.51,19.73.74,26.15,7.17,14.58,14.61,18.11,45.68,16.08,63.23Z" fill="#92bf19" stroke-width="0"/>
            <ellipse cx="392.25" cy="657.97" rx="24.89" ry="54.21" transform="translate(-90.3 63.05) rotate(-8.24)" fill="#a4cf37" stroke-width="0"/>
            <path d="m391.2,660.54c-1.28,10.99-4.22,21.8-8.78,31.88-5.01,11.08-18.29,27.33-30.62,14.77-7.87-8.01-9.85-21.85-10.44-32.57-.89-16.11,1.35-34.13,7.78-49.01,3.78-8.76,11.52-22.83,23.06-21.6,15.58,1.65,18.12,21.68,19.27,34,.7,7.49.61,15.06-.26,22.54Z" fill="#92bf19" stroke-width="0"/>
            <path d="m429.24,618.74c-.52.86-1.12,1.64-1.75,2.4-.63.75-1.29,1.47-1.99,2.17-.69.69-1.41,1.36-2.16,1.99-.76.63-1.53,1.23-2.4,1.75.52-.87,1.12-1.65,1.75-2.4.63-.75,1.29-1.47,1.99-2.17.69-.69,1.41-1.36,2.16-1.99.76-.63,1.53-1.23,2.4-1.75Z" fill="#7da315" stroke-width="0"/>
            <path d="m409.06,607.53c-.52.86-1.12,1.64-1.75,2.4-.63.75-1.29,1.47-1.99,2.17-.69.69-1.41,1.36-2.16,1.99-.76.63-1.53,1.23-2.4,1.75.52-.87,1.12-1.65,1.75-2.4.63-.75,1.29-1.47,1.99-2.17.69-.69,1.41-1.36,2.16-1.99.76-.63,1.53-1.23,2.4-1.75Z" fill="#7da315" stroke-width="0"/>
            <path d="m439.21,648.41c-.99.2-1.97.29-2.95.34-.98.05-1.96.05-2.94,0-.98-.04-1.95-.12-2.93-.24-.97-.13-1.95-.29-2.92-.58.99-.21,1.97-.29,2.95-.34.98-.05,1.96-.05,2.94,0,.98.04,1.95.12,2.93.24.97.13,1.95.29,2.92.58Z" fill="#7da315" stroke-width="0"/>
            <path d="m437.64,653.57c-.83-.14-1.61-.39-2.38-.67-.76-.28-1.51-.61-2.23-.97-.73-.36-1.43-.76-2.12-1.19-.68-.44-1.35-.91-1.97-1.49.83.14,1.61.39,2.38.67.76.28,1.51.61,2.23.97.72.36,1.43.76,2.12,1.19.68.44,1.35.91,1.97,1.49Z" fill="#7da315" stroke-width="0"/>
            <path d="m331.96,615.62c.96.31,1.86.72,2.74,1.15.88.44,1.73.92,2.56,1.44.83.51,1.64,1.06,2.43,1.65.78.59,1.55,1.21,2.26,1.93-.96-.31-1.86-.72-2.74-1.15-.88-.44-1.73-.92-2.56-1.44-.83-.51-1.64-1.06-2.43-1.65-.78-.59-1.55-1.21-2.26-1.93Z" fill="#7da315" stroke-width="0"/>
            <path d="m330.37,620.78c.83-.14,1.65-.15,2.47-.13.81.02,1.62.09,2.42.19.8.11,1.6.25,2.39.44.79.2,1.58.43,2.35.78-.83.14-1.65.15-2.47.14-.81-.02-1.62-.09-2.42-.2-.8-.11-1.6-.25-2.39-.45-.79-.2-1.58-.43-2.35-.77Z" fill="#7da315" stroke-width="0"/>
            <path d="m375.42,609c-.32.96-.75,1.84-1.2,2.72-.46.87-.95,1.71-1.48,2.54-.53.82-1.09,1.63-1.69,2.4-.61.77-1.24,1.53-1.97,2.22.32-.96.75-1.85,1.2-2.72.46-.87.95-1.71,1.48-2.54.53-.82,1.09-1.62,1.69-2.4.61-.77,1.24-1.53,1.97-2.22Z" fill="#7da315" stroke-width="0"/>
            <path d="m336.2,642.91c.96.32,1.85.74,2.72,1.19.87.45,1.72.94,2.55,1.47.83.52,1.63,1.08,2.41,1.68.78.6,1.54,1.23,2.23,1.96-.96-.32-1.85-.74-2.72-1.19-.87-.45-1.72-.94-2.55-1.47-.83-.53-1.63-1.08-2.41-1.68-.78-.6-1.54-1.23-2.23-1.96Z" fill="#7da315" stroke-width="0"/>
            <path d="m394.83,651.2c-.54.85-1.16,1.62-1.8,2.36-.65.74-1.33,1.45-2.03,2.12-.71.68-1.44,1.33-2.2,1.94-.77.61-1.56,1.2-2.44,1.7.54-.85,1.16-1.62,1.8-2.36.65-.74,1.33-1.45,2.03-2.12.71-.68,1.44-1.33,2.21-1.94.77-.61,1.56-1.2,2.44-1.7Z" fill="#7da315" stroke-width="0"/>
            <path d="m415.91,677.11c-.52.64-1.11,1.18-1.72,1.7-.61.51-1.25.98-1.9,1.42-.66.44-1.34.84-2.04,1.21-.71.36-1.43.7-2.23.93.52-.64,1.11-1.18,1.72-1.7.61-.51,1.25-.98,1.9-1.42.66-.44,1.34-.84,2.04-1.21.71-.36,1.43-.7,2.23-.93Z" fill="#7da315" stroke-width="0"/>
            <path d="m338.79,666.74c.74.24,1.4.58,2.05.95.64.37,1.26.78,1.85,1.21.59.44,1.16.91,1.7,1.42.54.51,1.05,1.05,1.5,1.68-.74-.24-1.4-.58-2.05-.95-.64-.37-1.26-.78-1.85-1.22-.59-.44-1.16-.91-1.7-1.42-.54-.51-1.05-1.05-1.5-1.68Z" fill="#7da315" stroke-width="0"/>
            <path d="m380.03,617.57c-.72.44-1.47.77-2.23,1.07-.76.29-1.53.54-2.31.75-.78.21-1.57.38-2.38.51-.81.12-1.62.21-2.46.18.72-.45,1.47-.77,2.23-1.07.76-.29,1.53-.54,2.31-.75.78-.21,1.57-.38,2.38-.51.81-.12,1.62-.21,2.46-.19Z" fill="#7da315" stroke-width="0"/>
            <path d="m318.55,635.87c.97.28,1.88.67,2.77,1.08.89.42,1.76.87,2.6,1.37.85.49,1.67,1.02,2.48,1.58.8.57,1.59,1.17,2.31,1.87-.97-.28-1.88-.67-2.77-1.08-.89-.42-1.76-.87-2.6-1.37-.85-.49-1.67-1.02-2.48-1.58-.8-.57-1.59-1.17-2.31-1.87Z" fill="#7da315" stroke-width="0"/>
            <path d="m318.62,646.13c.68-.5,1.4-.88,2.14-1.24.73-.35,1.48-.66,2.25-.93.76-.27,1.54-.5,2.33-.69.79-.18,1.6-.34,2.44-.38-.68.5-1.4.89-2.14,1.24-.73.35-1.48.66-2.25.93-.76.27-1.54.5-2.33.69-.79.18-1.6.34-2.44.38Z" fill="#7da315" stroke-width="0"/>
            <path d="m314.83,673.15c.84.12,1.62.35,2.4.6.77.26,1.52.57,2.26.9.74.34,1.45.71,2.15,1.13.7.42,1.38.87,2.01,1.44-.84-.12-1.62-.35-2.4-.6-.77-.26-1.52-.57-2.26-.91-.73-.34-1.45-.72-2.15-1.13-.7-.42-1.38-.87-2.01-1.43Z" fill="#7da315" stroke-width="0"/>
            <g mix-blend-mode="overlay" opacity=".2">
              <path d="m409.86,628.43s0,0,0,0c0,0,0,.02,0,.02.06.14.21.5.44,1.06.03.07.06.15.09.22.01.04.03.08.05.12-.26-.63-.44-1.08-.53-1.3,0-.03-.02-.05-.03-.08,0-.01,0-.02-.01-.03Z" stroke-width="0"/>
            </g>
            <g mix-blend-mode="overlay" opacity=".2">
              <path d="m434.06,675.68c-.85,7.34-4.38,19.51-10.36,27.73l-12.57-.45-17.76-.64-10.57-.38-5.96-.21-10.33-.37-6.06-1.74-15.64-4.49-22.77-6.54s8.52-2.4,14.2-5.25c5.68-2.84,4.92-11.84,4.92-11.84,0,0,.01.12.06.34.15.65.63,2.13,2.11,3.83,1.99,2.27,11.37,7.66,20.32,7.66,2.19,0,4.28-.23,6.26-.67.88-.19,1.75-.43,2.59-.7,3.09-1,5.88-2.52,8.34-4.43,1.49-1.16,2.86-2.46,4.11-3.88,5.11-5.83,6.64-34.07,6.64-34.07,0,0,.06,2.64.32,6.56.68,10.35,2.77,29.65,8.96,33.04,8.52,4.68,17.74-4.55,16.57-20.3,0,0,0-.02,0-.03-.62-8.26-2.67-16.22-4.49-21.93-.03-.09-.05-.17-.08-.25-.89-2.78-1.72-5.01-2.29-6.45-.03-.07-.06-.14-.08-.21,1.91,4.68,7.4,18.32,9.39,25.31,2.42,8.52,8.11,16.33,10.09,7.38,1.98-8.95-6.84-37.78-8.41-42.61-.82-2.52-2.33-5.43-3.59-7.63,14.58,14.61,18.11,45.68,16.08,63.23Z" stroke-width="0"/>
            </g>
          </g>
        </g>
        <g>
          <path d="m307.11,732.32l-7.41-46c-.69-4.27,2.49-8.15,6.68-8.15h-4.96c-4.33,0-7.62,3.88-6.91,8.15l7.67,46c.56,3.38,3.48,5.85,6.91,5.85h128.14c2.91,0,5.45-3.76,6.5-6.37-1.3,1.19-136.4,1.8-136.61.52Z" mix-blend-mode="darken" opacity=".25" stroke-width="0"/>
          <path d="m439.49,735.44h-128.14c-3.42,0-6.34-2.47-6.91-5.85l-7.67-46c-.71-4.27,2.58-8.15,6.91-8.15h143.47c4.33,0,7.62,3.88,6.91,8.15l-7.67,46c-.56,3.38-3.48,5.85-6.91,5.85Z" fill="#ff8427" stroke-width="0"/>
          <path d="m309.38,729.58l-7.41-46c-.69-4.27,2.49-8.15,6.68-8.15h-4.96c-4.33,0-7.62,3.88-6.91,8.15l7.67,46c.56,3.38,3.48,5.85,6.91,5.85h4.71c-3.31,0-6.13-2.47-6.68-5.85Z" mix-blend-mode="darken" opacity=".25" stroke-width="0"/>
          <path d="m439.47,725.67c1.91.23,3.85-2.16,4.47-5.61l5.56-30.96c.66-3.69-.45-7.21-2.48-7.86-.14-.04-.27-.07-.41-.09-1.9-.22-3.85,2.16-4.47,5.61l-5.56,30.96c-.66,3.69.45,7.21,2.48,7.86.13.04.27.07.41.09" fill="#fff" mix-blend-mode="hard-light" opacity=".25" stroke-width="0"/>
        </g>
        <g>
          <path d="m490.98,710h71.2c1.56,0,2.84,1.27,2.84,2.84v6.64c0,1.56-1.28,2.83-2.84,2.83h-71.2c-1.57,0-2.84-1.27-2.84-2.83v-6.64c0-1.57,1.27-2.84,2.84-2.84h0Z" fill="#ff8427" fill-rule="evenodd" stroke-width="0"/>
          <path d="m564.24,721.43c-.52.54-1.25.88-2.06.88h-71.2c-.85,0-1.61-.37-2.13-.96-.44-.5,75.39.08,75.39.08Z" fill-rule="evenodd" mix-blend-mode="hard-light" opacity=".25" stroke-width="0"/>
          <rect x="561.53" y="711.01" width="2.46" height="9.6" rx="1.23" ry="1.23" fill="#fff" mix-blend-mode="lighten" opacity=".25" stroke-width="0"/>
        </g>
        <g>
          <path d="m562.52,480.88c10.95,0,19.84,8.81,19.84,19.68v188.88c0,10.87-8.88,19.68-19.84,19.68h-70.91c-10.95,0-19.84-8.81-19.84-19.68v-188.88c0-10.87,8.88-19.68,19.84-19.68h70.91m0-.88h-70.91c-11.43,0-20.73,9.22-20.73,20.56v188.88c0,11.34,9.3,20.56,20.73,20.56h70.91c11.43,0,20.73-9.22,20.73-20.56v-188.88c0-11.34-9.3-20.56-20.73-20.56h0Z" fill="#94a3b8" stroke-width="0"/>
          <path d="m562.53,480.88h-70.93c-10.96,0-19.84,8.81-19.84,19.68v188.89c0,10.87,8.88,19.68,19.84,19.68h70.93c10.96,0,19.84-8.81,19.84-19.68v-188.89c0-10.87-8.88-19.68-19.84-19.68Zm16.27,208.57c0,8.9-7.3,16.14-16.27,16.14h-70.93c-8.97,0-16.27-7.24-16.27-16.14v-188.89c0-8.9,7.3-16.14,16.27-16.14h70.93c8.97,0,16.27,7.24,16.27,16.14v188.89Z" fill="#020617" stroke-width="0"/>
          <path d="m470.41,522h.47v12.29h-.47c-.23,0-.41-.18-.41-.41v-11.47c0-.23.18-.41.41-.41Z" fill="#64748b" stroke-width="0"/>
          <path d="m470.45,540.3h.43v19.31h-.43c-.25,0-.45-.2-.45-.45v-18.42c0-.25.2-.45.45-.45Z" fill="#64748b" stroke-width="0"/>
          <path d="m470.45,563.06h.43v19.31h-.43c-.25,0-.45-.2-.45-.45v-18.42c0-.25.2-.45.45-.45Z" fill="#64748b" stroke-width="0"/>
          <path d="m578.8,689.44c0,8.9-7.3,16.14-16.27,16.14h-70.93c-8.97,0-16.27-7.24-16.27-16.14v-188.89c0-8.9,7.3-16.14,16.27-16.14h70.93c8.97,0,16.27,7.24,16.27,16.14v188.89Z" fill="#0f172a" stroke-width="0"/>
          <path d="m578.8,689.44c0,8.9-7.3,16.14-16.27,16.14h-70.93c-8.97,0-16.27-7.24-16.27-16.14v-188.89c0-8.9,7.3-16.14,16.27-16.14h70.93c8.97,0,16.27,7.24,16.27,16.14v188.89Z" fill="none" stroke-width="0"/>
          <rect x="509.84" y="486.87" width="33.57" height="10.96" rx="5.48" ry="5.48" fill="#020617" stroke-width="0"/>
          <path d="m537.79,491.04c.73,0,1.32.59,1.32,1.32s-.59,1.32-1.32,1.32-1.32-.59-1.32-1.32.59-1.32,1.32-1.32m0-2.19c-1.94,0-3.51,1.57-3.51,3.51s1.57,3.51,3.51,3.51,3.51-1.57,3.51-3.51-1.57-3.51-3.51-3.51h0Z" fill="#1e293b" stroke-width="0"/>
          <path d="m470.88,636.22v53.22c0,11.34,9.3,20.56,20.73,20.56h70.91c11.43,0,20.73-9.22,20.73-20.56v-177.88l-112.37,124.66Z" fill="#fff" mix-blend-mode="screen" opacity=".1" stroke-width="0"/>
        </g>
      </g>
      <g>
        <path d="m1197.31,16.57c.84.65,1.88,1,2.92,1,.39,0,.78-.05,1.16-.15,1.03-.26,1.95-.86,2.59-1.68.66-.83,1.02-1.87,1.01-2.93,0-1.06-.36-2.1-1-2.92-.65-.83-1.57-1.44-2.58-1.69-1.45-.37-3-.04-4.14.89-1.14.9-1.81,2.31-1.8,3.76,0,1.46.7,2.86,1.84,3.73Zm2.07-4.84c.23-.19.55-.29.86-.29.11,0,.22.01.33.04.29.07.56.25.75.49.18.24.29.54.29.84h0c0,.31-.1.61-.3.85-.18.24-.45.41-.76.49-.39.1-.84,0-1.18-.25-.32-.24-.53-.66-.53-1.08,0-.4.19-.82.53-1.09Z" fill="#18181b" stroke-width="0"/>
        <rect x="1092.5" y="610" width="215" height="135" fill="#64748b" stroke-width="0"/>
        <rect x="1092.5" y="610" width="215" height="5" mix-blend-mode="hard-light" opacity=".5" stroke-width="0"/>
        <path d="m1630.39,610h-860.79c-6.69,0-12.11-5.42-12.11-12.11v-77.89h885v77.89c0,6.69-5.42,12.11-12.11,12.11Z" fill="#94a3b8" stroke-width="0"/>
        <path d="m1626.16,0h-852.32c-9.02,0-16.34,7.31-16.34,16.33v503.67h885V16.33c0-9.02-7.32-16.33-16.34-16.33h0Z" fill="#020617" stroke-width="0"/>
        <path d="m1200,10.08c.73,0,1.33.59,1.33,1.31s-.6,1.31-1.33,1.31-1.33-.59-1.33-1.31.6-1.31,1.33-1.31m0-2.19c-1.93,0-3.5,1.57-3.5,3.5s1.57,3.5,3.5,3.5,3.5-1.57,3.5-3.5-1.57-3.5-3.5-3.5h0Z" fill="#1e293b" stroke-width="0"/>
        <path d="m1162.82,610h467.75c6.59,0,11.94-5.38,11.94-12.03v-76.63h0V150l-479.68,460Z" fill="#fff" mix-blend-mode="screen" opacity=".1" stroke-width="0"/>
      </g>
      <g>
        <rect x="1718.34" y="358.82" width="543.31" height="349.09" fill="#1e293b" stroke-width="0"/>
        <rect x="1718.34" y="377.87" width="105.69" height="330.03" fill="#475569" stroke-width="0"/>
        <rect x="1718.34" y="358.82" width="543.31" height="19.06" fill="#0f172a" stroke-width="0"/>
        <g>
          <path d="m2236.01,368.35c0,1.54-1.25,2.8-2.8,2.8s-2.8-1.25-2.8-2.8,1.25-2.8,2.8-2.8,2.8,1.25,2.8,2.8Z" fill="#ffd333" stroke-width="0"/>
          <path d="m2244.53,368.35c0,1.54-1.25,2.8-2.8,2.8s-2.8-1.25-2.8-2.8,1.25-2.8,2.8-2.8,2.8,1.25,2.8,2.8Z" fill="#98ce00" stroke-width="0"/>
          <path d="m2253.06,368.35c0,1.54-1.25,2.8-2.8,2.8s-2.8-1.25-2.8-2.8,1.25-2.8,2.8-2.8,2.8,1.25,2.8,2.8Z" fill="#ff5168" stroke-width="0"/>
        </g>
        <rect x="1824.04" y="377.87" width="1" height="330.03" fill="#334155" stroke-width="0"/>
        <g>
          <g>
            <rect x="1733.18" y="389.07" width="6.06" height="6.03" fill="#2dd4bf" stroke-width="0"/>
            <rect x="1741.59" y="390.54" width="27.71" height="3.09" fill="#cbd5e1" stroke-width="0"/>
          </g>
          <g>
            <rect x="1733.18" y="418.98" width="6.06" height="6.03" fill="#2dd4bf" stroke-width="0"/>
            <rect x="1741.59" y="420.45" width="27.71" height="3.09" fill="#cbd5e1" stroke-width="0"/>
          </g>
          <g>
            <rect x="1733.18" y="468.85" width="6.06" height="6.03" fill="#2dd4bf" stroke-width="0"/>
            <rect x="1741.59" y="470.32" width="27.71" height="3.09" fill="#cbd5e1" stroke-width="0"/>
          </g>
          <g>
            <rect x="1733.18" y="478.82" width="6.06" height="6.03" fill="#2dd4bf" stroke-width="0"/>
            <rect x="1741.59" y="480.29" width="27.71" height="3.09" fill="#cbd5e1" stroke-width="0"/>
          </g>
          <g>
            <rect x="1741.59" y="399.04" width="6.06" height="6.03" fill="#14b8a6" stroke-width="0"/>
            <rect x="1750.08" y="400.51" width="27.71" height="3.09" fill="#cbd5e1" stroke-width="0"/>
          </g>
          <g>
            <rect x="1741.59" y="409.01" width="6.06" height="6.03" fill="#14b8a6" stroke-width="0"/>
            <rect x="1750.08" y="410.48" width="38.23" height="3.09" fill="#cbd5e1" stroke-width="0"/>
          </g>
          <g>
            <rect x="1741.59" y="428.96" width="6.06" height="6.03" fill="#14b8a6" stroke-width="0"/>
            <rect x="1750.06" y="430.43" width="46.52" height="3.09" fill="#cbd5e1" stroke-width="0"/>
          </g>
          <g>
            <rect x="1741.59" y="438.93" width="6.06" height="6.03" fill="#14b8a6" stroke-width="0"/>
            <rect x="1750.06" y="440.4" width="31.43" height="3.09" fill="#cbd5e1" stroke-width="0"/>
          </g>
          <g>
            <rect x="1750.06" y="448.9" width="6.06" height="6.03" fill="#0d9488" stroke-width="0"/>
            <rect x="1758.48" y="450.37" width="51.76" height="3.09" fill="#cbd5e1" stroke-width="0"/>
          </g>
          <g>
            <rect x="1750.06" y="458.88" width="6.06" height="6.03" fill="#0d9488" stroke-width="0"/>
            <rect x="1758.48" y="460.34" width="31.59" height="3.09" fill="#cbd5e1" stroke-width="0"/>
          </g>
          <g>
            <g>
              <rect x="1733.18" y="488.39" width="6.06" height="6.03" fill="#2dd4bf" stroke-width="0"/>
              <rect x="1741.59" y="489.86" width="27.71" height="3.09" fill="#cbd5e1" stroke-width="0"/>
            </g>
            <g>
              <rect x="1733.18" y="518.31" width="6.06" height="6.03" fill="#2dd4bf" stroke-width="0"/>
              <rect x="1741.59" y="519.78" width="27.71" height="3.09" fill="#cbd5e1" stroke-width="0"/>
            </g>
            <g>
              <rect x="1733.18" y="568.17" width="6.06" height="6.03" fill="#2dd4bf" stroke-width="0"/>
              <rect x="1741.59" y="569.64" width="27.71" height="3.09" fill="#cbd5e1" stroke-width="0"/>
            </g>
            <g>
              <rect x="1733.18" y="578.14" width="6.06" height="6.03" fill="#2dd4bf" stroke-width="0"/>
              <rect x="1741.59" y="579.61" width="27.71" height="3.09" fill="#cbd5e1" stroke-width="0"/>
            </g>
            <g>
              <rect x="1741.59" y="498.36" width="6.06" height="6.03" fill="#14b8a6" stroke-width="0"/>
              <rect x="1750.08" y="499.83" width="27.71" height="3.09" fill="#cbd5e1" stroke-width="0"/>
            </g>
            <g>
              <rect x="1741.59" y="508.33" width="6.06" height="6.03" fill="#14b8a6" stroke-width="0"/>
              <rect x="1750.08" y="509.8" width="38.23" height="3.09" fill="#cbd5e1" stroke-width="0"/>
            </g>
            <g>
              <rect x="1741.59" y="528.28" width="6.06" height="6.03" fill="#14b8a6" stroke-width="0"/>
              <rect x="1750.06" y="529.75" width="46.52" height="3.09" fill="#cbd5e1" stroke-width="0"/>
            </g>
            <g>
              <rect x="1741.59" y="538.25" width="6.06" height="6.03" fill="#14b8a6" stroke-width="0"/>
              <rect x="1750.06" y="539.72" width="31.43" height="3.09" fill="#cbd5e1" stroke-width="0"/>
            </g>
            <g>
              <rect x="1750.06" y="548.23" width="6.06" height="6.03" fill="#0d9488" stroke-width="0"/>
              <rect x="1758.48" y="549.69" width="51.76" height="3.09" fill="#cbd5e1" stroke-width="0"/>
            </g>
            <g>
              <rect x="1750.06" y="558.2" width="6.06" height="6.03" fill="#0d9488" stroke-width="0"/>
              <rect x="1758.48" y="559.67" width="31.59" height="3.09" fill="#cbd5e1" stroke-width="0"/>
            </g>
          </g>
        </g>
        <path d="m1834.75,392.02h0c-1.36,0-2.47-1.11-2.47-2.47h0c0-1.36,1.11-2.47,2.47-2.47h0c1.36,0,2.47,1.11,2.47,2.47h0c0,1.36-1.11,2.47-2.47,2.47Z" fill="#4f5569" stroke-width="0"/>
        <rect x="1844.58" y="387.08" width="29.68" height="4.94" fill="#ffc800" stroke-width="0"/>
        <rect x="1881.6" y="387.08" width="54.14" height="4.94" fill="#98ce00" stroke-width="0"/>
        <path d="m1834.75,406.55h0c-1.36,0-2.47-1.11-2.47-2.47h0c0-1.36,1.11-2.47,2.47-2.47h0c1.36,0,2.47,1.11,2.47,2.47h0c0,1.36-1.11,2.47-2.47,2.47Z" fill="#4f5569" stroke-width="0"/>
        <rect x="1844.58" y="401.61" width="73.98" height="4.94" fill="#ff8427" stroke-width="0"/>
        <rect x="1925.9" y="401.61" width="130.53" height="4.94" fill="#14b8a6" stroke-width="0"/>
        <path d="m1834.75,421.08h0c-1.36,0-2.47-1.11-2.47-2.47h0c0-1.36,1.11-2.47,2.47-2.47h0c1.36,0,2.47,1.11,2.47,2.47h0c0,1.36-1.11,2.47-2.47,2.47Z" fill="#4f5569" stroke-width="0"/>
        <rect x="1844.58" y="416.14" width="29.68" height="4.94" fill="#ff8427" stroke-width="0"/>
        <path d="m1834.75,435.61h0c-1.36,0-2.47-1.11-2.47-2.47h0c0-1.36,1.11-2.47,2.47-2.47h0c1.36,0,2.47,1.11,2.47,2.47h0c0,1.36-1.11,2.47-2.47,2.47Z" fill="#4f5569" stroke-width="0"/>
        <rect x="1844.58" y="430.68" width="17.18" height="4.94" fill="#98ce00" stroke-width="0"/>
        <rect x="1869.09" y="430.68" width="49.47" height="4.94" fill="#e5e7eb" stroke-width="0"/>
        <path d="m1834.75,450.14h0c-1.36,0-2.47-1.11-2.47-2.47h0c0-1.36,1.11-2.47,2.47-2.47h0c1.36,0,2.47,1.11,2.47,2.47h0c0,1.36-1.11,2.47-2.47,2.47Z" fill="#4f5569" stroke-width="0"/>
        <rect x="1859.42" y="445.21" width="29.68" height="4.94" fill="#ff3562" stroke-width="0"/>
        <rect x="1896.44" y="445.21" width="65.33" height="4.94" fill="#517dcd" stroke-width="0"/>
        <path d="m1834.75,464.67h0c-1.36,0-2.47-1.11-2.47-2.47h0c0-1.36,1.11-2.47,2.47-2.47h0c1.36,0,2.47,1.11,2.47,2.47h0c0,1.36-1.11,2.47-2.47,2.47Z" fill="#4f5569" stroke-width="0"/>
        <rect x="1859.42" y="459.74" width="222.51" height="4.94" fill="#14b8a6" stroke-width="0"/>
        <rect x="2090.94" y="459.74" width="30.04" height="4.94" fill="#f5ab35" stroke-width="0"/>
        <rect x="2090.94" y="459.33" width="30.04" height="4.94" fill="#ffc800" stroke-width="0"/>
        <path d="m1834.75,479.2h0c-1.36,0-2.47-1.11-2.47-2.47h0c0-1.36,1.11-2.47,2.47-2.47h0c1.36,0,2.47,1.11,2.47,2.47h0c0,1.36-1.11,2.47-2.47,2.47Z" fill="#4f5569" stroke-width="0"/>
        <rect x="1876.47" y="474.27" width="306.65" height="4.94" fill="#517dcd" stroke-width="0"/>
        <path d="m1834.75,493.74h0c-1.36,0-2.47-1.11-2.47-2.47h0c0-1.36,1.11-2.47,2.47-2.47h0c1.36,0,2.47,1.11,2.47,2.47h0c0,1.36-1.11,2.47-2.47,2.47Z" fill="#4f5569" stroke-width="0"/>
        <rect x="1876.47" y="488.8" width="185.12" height="4.94" fill="#517dcd" stroke-width="0"/>
        <rect x="2069.49" y="488.8" width="51.49" height="4.94" fill="#14b8a6" stroke-width="0"/>
        <path d="m1834.75,508.27h0c-1.36,0-2.47-1.11-2.47-2.47h0c0-1.36,1.11-2.47,2.47-2.47h0c1.36,0,2.47,1.11,2.47,2.47h0c0,1.36-1.11,2.47-2.47,2.47Z" fill="#4f5569" stroke-width="0"/>
        <rect x="1859.42" y="503.33" width="17.05" height="4.94" fill="#98ce00" stroke-width="0"/>
        <path d="m1834.75,522.61h0c-1.36,0-2.47-1.11-2.47-2.47h0c0-1.36,1.11-2.47,2.47-2.47h0c1.36,0,2.47,1.11,2.47,2.47h0c0,1.36-1.11,2.47-2.47,2.47Z" fill="#4f5569" stroke-width="0"/>
        <rect x="1859.42" y="517.67" width="29.68" height="4.94" fill="#e5e7eb" stroke-width="0"/>
        <rect x="1896.44" y="517.67" width="65.33" height="4.94" fill="#06b6d4" stroke-width="0"/>
        <path d="m1834.75,537.14h0c-1.36,0-2.47-1.11-2.47-2.47h0c0-1.36,1.11-2.47,2.47-2.47h0c1.36,0,2.47,1.11,2.47,2.47h0c0,1.36-1.11,2.47-2.47,2.47Z" fill="#4f5569" stroke-width="0"/>
        <rect x="1859.42" y="532.2" width="222.51" height="4.94" fill="#14b8a6" stroke-width="0"/>
        <rect x="2090.94" y="532.2" width="30.04" height="4.94" fill="#f5ab35" stroke-width="0"/>
        <rect x="2090.94" y="531.79" width="30.04" height="4.94" fill="#ffc800" stroke-width="0"/>
        <path d="m1834.75,551.67h0c-1.36,0-2.47-1.11-2.47-2.47h0c0-1.36,1.11-2.47,2.47-2.47h0c1.36,0,2.47,1.11,2.47,2.47h0c0,1.36-1.11,2.47-2.47,2.47Z" fill="#4f5569" stroke-width="0"/>
        <rect x="1876.47" y="546.73" width="306.65" height="4.94" fill="#98ce00" stroke-width="0"/>
        <path d="m1834.75,566.2h0c-1.36,0-2.47-1.11-2.47-2.47h0c0-1.36,1.11-2.47,2.47-2.47h0c1.36,0,2.47,1.11,2.47,2.47h0c0,1.36-1.11,2.47-2.47,2.47Z" fill="#4f5569" stroke-width="0"/>
        <rect x="1876.47" y="561.26" width="55.25" height="4.94" fill="#517dcd" stroke-width="0"/>
        <rect x="1941.41" y="561.26" width="120.18" height="4.94" fill="#e5e7eb" stroke-width="0"/>
        <rect x="2069.49" y="561.26" width="51.49" height="4.94" fill="#517dcd" stroke-width="0"/>
        <path d="m1834.75,580.73h0c-1.36,0-2.47-1.11-2.47-2.47h0c0-1.36,1.11-2.47,2.47-2.47h0c1.36,0,2.47,1.11,2.47,2.47h0c0,1.36-1.11,2.47-2.47,2.47Z" fill="#4f5569" stroke-width="0"/>
        <rect x="1859.42" y="575.79" width="17.05" height="4.94" fill="#ffc800" stroke-width="0"/>
        <path d="m1834.75,595.07h0c-1.36,0-2.47-1.11-2.47-2.47h0c0-1.36,1.11-2.47,2.47-2.47h0c1.36,0,2.47,1.11,2.47,2.47h0c0,1.36-1.11,2.47-2.47,2.47Z" fill="#4f5569" stroke-width="0"/>
        <rect x="1859.42" y="590.13" width="29.68" height="4.94" fill="#ff3562" stroke-width="0"/>
        <rect x="1896.44" y="590.13" width="65.33" height="4.94" fill="#06b6d4" stroke-width="0"/>
        <path d="m1834.75,609.6h0c-1.36,0-2.47-1.11-2.47-2.47h0c0-1.36,1.11-2.47,2.47-2.47h0c1.36,0,2.47,1.11,2.47,2.47h0c0,1.36-1.11,2.47-2.47,2.47Z" fill="#4f5569" stroke-width="0"/>
        <rect x="1859.42" y="604.66" width="222.51" height="4.94" fill="#14b8a6" stroke-width="0"/>
        <rect x="2090.94" y="604.66" width="30.04" height="4.94" fill="#f5ab35" stroke-width="0"/>
        <rect x="2090.94" y="604.25" width="30.04" height="4.94" fill="#14b8a6" stroke-width="0"/>
        <path d="m1834.75,624.13h0c-1.36,0-2.47-1.11-2.47-2.47h0c0-1.36,1.11-2.47,2.47-2.47h0c1.36,0,2.47,1.11,2.47,2.47h0c0,1.36-1.11,2.47-2.47,2.47Z" fill="#4f5569" stroke-width="0"/>
        <rect x="1876.47" y="619.19" width="306.65" height="4.94" fill="#517dcd" stroke-width="0"/>
        <path d="m1834.75,638.22h0c-1.36,0-2.47-1.11-2.47-2.48h0c0-1.37,1.11-2.48,2.47-2.48h0c1.36,0,2.47,1.11,2.47,2.48h0c0,1.37-1.11,2.48-2.47,2.48Z" fill="#4f5569" stroke-width="0"/>
        <rect x="1876.48" y="633.26" width="185.12" height="4.96" fill="#e5e7eb" stroke-width="0"/>
        <rect x="2069.49" y="633.26" width="51.49" height="4.96" fill="#98ce00" stroke-width="0"/>
        <rect x="2131.63" y="633.26" width="51.49" height="4.96" fill="#e5e7eb" stroke-width="0"/>
        <path d="m1834.75,652.82h0c-1.36,0-2.47-1.11-2.47-2.48h0c0-1.37,1.11-2.48,2.47-2.48h0c1.36,0,2.47,1.11,2.47,2.48h0c0,1.37-1.11,2.48-2.47,2.48Z" fill="#4f5569" stroke-width="0"/>
        <rect x="1859.43" y="647.86" width="17.05" height="4.96" fill="#ffc800" stroke-width="0"/>
      </g>
      <g>
        <path d="m2259.89,346.88c7.77,0,14.07,6.27,14.07,14v358.96h-567.92v-358.96c0-7.73,6.3-14,14.07-14h539.78m0-3.52h-539.78c-9.71,0-17.61,7.86-17.61,17.52v362.48h575v-362.48c0-9.66-7.9-17.52-17.61-17.52h0Z" fill="#94a3b8" stroke-width="0"/>
        <path d="m2259.89,346.88h-539.78c-7.77,0-14.07,6.27-14.07,14v358.96h567.92v-358.96c0-7.73-6.3-14-14.07-14Zm1.69,360.64h-543.15v-346.64c0-.92.76-1.68,1.69-1.68h238.81v2.97c0,2.5,2.04,4.52,4.55,4.52h53.06c2.51,0,4.55-2.03,4.55-4.52v-2.97h238.81c.93,0,1.69.75,1.69,1.68v346.64Z" fill="#020617" stroke-width="0"/>
        <path d="m2259.89,343.36l-258.39,380h276v-362.48c0-9.66-7.9-17.52-17.61-17.52h0Z" fill="#fff" mix-blend-mode="screen" opacity=".1" stroke-width="0"/>
        <path d="m2301.52,745h-623.04c-3.3,0-5.98-2.68-5.98-5.98v-19.02h635v19.02c0,3.3-2.68,5.98-5.98,5.98Z" fill="#94a3b8" stroke-width="0"/>
        <path d="m1990,356.3c.73,0,1.33.59,1.33,1.32s-.6,1.32-1.33,1.32-1.33-.59-1.33-1.32.6-1.32,1.33-1.32m0-2.2c-1.95,0-3.54,1.58-3.54,3.52s1.58,3.52,3.54,3.52,3.54-1.58,3.54-3.52-1.58-3.52-3.54-3.52h0Z" fill="#1e293b" stroke-width="0"/>
        <path d="m1944.51,720h92v6.3c0,3.2-2.59,5.79-5.79,5.79h-80.42c-3.2,0-5.79-2.59-5.79-5.79v-6.3h0Z" fill="#64748b" stroke-width="0"/>
      </g>
      <g>
        <path d="m686.75,671.19h-36.46c-2.19,0-4.21,1.07-5.64,2.74-1.52,1.76-2.44,4.1-2.44,6.64v16.8c0,4.4,1.6,8.4,4.13,11.33,2.53,2.93,5.98,4.79,9.77,4.79h30.65c3.79,0,7.24-1.86,9.77-4.79,2.53-2.93,4.04-6.94,4.04-11.33v-10.16c0-4.4-1.52-8.4-4.04-11.33-2.53-2.93-5.98-4.69-9.77-4.69h0Zm-36.46-14.17h36.46c7.16,0,13.64,3.42,18.35,8.89,4.71,5.47,7.66,12.99,7.66,21.3v10.16c0,8.3-2.95,15.92-7.66,21.4-4.71,5.47-11.2,8.89-18.35,8.89h-30.65c-7.16,0-13.72-3.42-18.44-8.89-4.71-5.47-7.66-13.09-7.66-21.4v-16.8c0-6.45,2.27-12.41,5.98-16.61,3.7-4.3,8.76-6.94,14.31-6.94h0Z" fill="#255cc0" stroke-width="0"/>
        <path d="m686.75,671.19h-36.46c-2.19,0-4.21,1.07-5.64,2.74-1.52,1.76-2.44,4.1-2.44,6.64v16.8c0,4.4,1.6,8.4,4.13,11.33,2.53,2.93,5.98,4.79,9.77,4.79h30.65c3.79,0,7.24-1.86,9.77-4.79,2.53-2.93,4.04-6.94,4.04-11.33v-10.16c0-4.4-1.52-8.4-4.04-11.33-2.53-2.93-5.98-4.69-9.77-4.69h0Zm-36.46-14.17h36.46c7.16,0,13.64,3.42,18.35,8.89,4.71,5.47,7.66,12.99,7.66,21.3v10.16c0,8.3-2.95,15.92-7.66,21.4-4.71,5.47-11.2,8.89-18.35,8.89h-30.65c-7.16,0-13.72-3.42-18.44-8.89-4.71-5.47-7.66-13.09-7.66-21.4v-16.8c0-6.45,2.27-12.41,5.98-16.61,3.7-4.3,8.76-6.94,14.31-6.94h0Z" mix-blend-mode="hard-light" opacity=".25" stroke-width="0"/>
        <path d="m661.58,657.03h27.15c6.61,0,12.6,3.42,16.96,8.89,4.36,5.47,7.08,12.99,7.08,21.3v10.16c0,8.3-2.72,15.92-7.08,21.4-4.36,5.47-10.35,8.89-16.96,8.89h-17.34c-4.52-.95-8.02-11.23-6.64-14.17h23.98c3.5,0,6.69-1.86,9.02-4.79,2.33-2.93,3.73-6.94,3.73-11.33v-10.16c0-4.4-1.4-8.4-3.73-11.33-2.33-2.93-5.52-4.69-9.02-4.69h-27.22c-1.73-2.17-1.6-12.07.07-14.17h0Z" mix-blend-mode="hard-light" opacity=".25" stroke-width="0"/>
        <path d="m747.77,745h-43.51c-.63,0-1.26-.12-1.85-.35-37.88-15.34-37.07-58.29-36.93-94.58.01-2.8,2.24-5.06,4.99-5.06h154.51c2.75,0,4.98,2.26,4.99,5.06.15,36.29.95,79.24-36.93,94.58-.59.24-1.22.35-1.85.35h-43.42Z" fill="#255cc0" fill-rule="evenodd" stroke-width="0"/>
        <path d="m721.58,745h-17.32c-.63,0-1.26-.12-1.85-.35-37.88-15.34-37.07-58.29-36.93-94.58.01-2.8,2.24-5.06,4.99-5.06h29.66s-.84.08-.86,2.99-1.68,81.29,22.32,97.01h0Z" fill-rule="evenodd" mix-blend-mode="hard-light" opacity=".25" stroke-width="0"/>
        <path d="m814.38,681.93c.17-1.69,1.6-2.95,3.28-2.87,1.68.09,2.95,1.52,2.86,3.21-.59,9.54-1.94,19-5.05,27.44-3.2,8.7-8.25,16.38-16.08,22.29-1.26,1.01-3.2.76-4.21-.59-1.01-1.35-.76-3.29.59-4.31,6.74-5.07,11.11-11.82,13.98-19.5,2.86-7.85,4.13-16.63,4.63-25.67h0Zm.42-22.46c0-1.69,1.35-3.04,3.03-3.04s3.03,1.35,3.03,3.04v.25c0,4.05.08,8.19,0,12.33,0,1.69-1.43,3.04-3.12,3.04s-3.03-1.44-2.95-3.12v-12.5h0Z" fill="#fff" mix-blend-mode="hard-light" opacity=".25" stroke-width="0"/>
      </g>
      <g>
        <g>
          <path d="m998.1,740h-18.11v-2.38c0-.31,1.18-.57,2.66-.57h12.78c1.47,0,2.66.26,2.66.57v2.38Z" fill="#94a3b8" fill-rule="evenodd" stroke-width="0"/>
          <path d="m1017.95,740h-18.11v-2.38c0-.31,1.18-.57,2.66-.57h12.78c1.47,0,2.66.26,2.66.57v2.38Z" fill="#94a3b8" fill-rule="evenodd" stroke-width="0"/>
          <path d="m1037.79,740h-18.11v-2.38c0-.31,1.19-.57,2.66-.57h12.78c1.47,0,2.66.26,2.66.57v2.38Z" fill="#94a3b8" fill-rule="evenodd" stroke-width="0"/>
          <path d="m1210.1,740h-18.11v-2.38c0-.31,1.18-.57,2.66-.57h12.78c1.47,0,2.66.26,2.66.57v2.38Z" fill="#94a3b8" fill-rule="evenodd" stroke-width="0"/>
          <path d="m1229.95,740h-18.11v-2.38c0-.31,1.19-.57,2.66-.57h12.78c1.47,0,2.66.26,2.66.57v2.38Z" fill="#94a3b8" fill-rule="evenodd" stroke-width="0"/>
          <path d="m1249.79,740h-18.11v-2.38c0-.31,1.19-.57,2.66-.57h12.78c1.47,0,2.66.26,2.66.57v2.38Z" fill="#94a3b8" fill-rule="evenodd" stroke-width="0"/>
          <path d="m1269.95,740h-18.1v-2.38c0-.31,1.19-.57,2.66-.57h12.78c1.47,0,2.65.26,2.65.57v2.38Z" fill="#94a3b8" fill-rule="evenodd" stroke-width="0"/>
          <path d="m1290.12,740h-18.1v-2.38c0-.31,1.19-.57,2.65-.57h12.79c1.47,0,2.65.26,2.65.57v2.38Z" fill="#94a3b8" fill-rule="evenodd" stroke-width="0"/>
          <path d="m1310.29,740h-18.11v-2.38c0-.31,1.19-.57,2.66-.57h12.79c1.46,0,2.65.26,2.65.57v2.38Z" fill="#94a3b8" fill-rule="evenodd" stroke-width="0"/>
          <path d="m1330.46,740h-18.11v-2.38c0-.31,1.19-.57,2.66-.57h12.78c1.47,0,2.66.26,2.66.57v2.38Z" fill="#94a3b8" fill-rule="evenodd" stroke-width="0"/>
          <path d="m1362.15,740h-18.11v-2.38c0-.31,1.19-.57,2.66-.57h12.79c1.46,0,2.65.26,2.65.57v2.38Z" fill="#94a3b8" fill-rule="evenodd" stroke-width="0"/>
          <path d="m1381.42,740h-18.09v-2.38c0-.31,1.18-.57,2.65-.57h12.79c1.47,0,2.64.26,2.64.57v2.38Z" fill="#94a3b8" fill-rule="evenodd" stroke-width="0"/>
          <path d="m1400.72,740h-18.11v-2.38c0-.31,1.19-.57,2.67-.57h12.77c1.47,0,2.66.26,2.66.57v2.38Z" fill="#94a3b8" fill-rule="evenodd" stroke-width="0"/>
          <path d="m1419.99,740h-18.1v-2.38c0-.31,1.19-.57,2.65-.57h12.79c1.47,0,2.65.26,2.65.57v2.38Z" fill="#94a3b8" fill-rule="evenodd" stroke-width="0"/>
          <path d="m1189.52,739.95l-149.99.05v-2.38c0-.32,1.19-.57,2.66-.57l144.66-.05c.69,0,1.38.06,1.88.17.5.11.79.25.79.41v2.38Z" fill="#94a3b8" fill-rule="evenodd" stroke-width="0"/>
        </g>
        <rect x="977.49" y="740" width="445" height="5" rx="1.11" ry="1.11" fill="#cbd5e1" stroke-width="0"/>
      </g>
      <g>
        <path d="m1540,741.22c-.86-9.01-20.68-16.22-45-16.22s-44.14,7.21-45,16.22h90Z" fill="#cbd5e1" stroke-width="0"/>
        <rect x="1450" y="741.22" width="89.81" height="3.78" fill="#94a3b8" stroke-width="0"/>
      </g>
    </g>
  </g>
</svg>