<svg xmlns="http://www.w3.org/2000/svg" viewBox="0 0 500 500">
  <path d="m124.67,500H58.84c-23.8,0-43.17-19.37-43.17-43.17v-184.95l-11.27-11.27c-5.86-5.86-5.86-15.36,0-21.21l11.27-11.27V43.17C15.67,19.37,35.03,0,58.84,0h65.83c8.28,0,15,6.72,15,15s-6.72,15-15,15H58.84c-7.26,0-13.17,5.91-13.17,13.17v191.16c0,3.98-1.58,7.79-4.39,10.61l-5.06,5.06,5.06,5.06c2.81,2.81,4.39,6.63,4.39,10.61v191.16c0,7.26,5.91,13.17,13.17,13.17h65.83c8.28,0,15,6.72,15,15s-6.72,15-15,15Z" class="logo-color-2" stroke-width="0" />
  <path d="m441.16,500h-65.83c-8.28,0-15-6.72-15-15s6.72-15,15-15h65.83c7.26,0,13.17-5.91,13.17-13.17v-191.16c0-3.98,1.58-7.79,4.39-10.61l5.06-5.06-5.06-5.06c-2.81-2.81-4.39-6.63-4.39-10.61V43.17c0-7.26-5.91-13.17-13.17-13.17h-65.83c-8.28,0-15-6.72-15-15s6.72-15,15-15h65.83c23.8,0,43.17,19.37,43.17,43.17v184.95l11.27,11.27c2.81,2.81,4.39,6.63,4.39,10.61s-1.58,7.79-4.39,10.61l-11.27,11.27v184.95c0,23.8-19.37,43.17-43.17,43.17Z" class="logo-color-2" stroke-width="0" />
  <path d="m250,500c-3.88,0-7.76-1.48-10.71-4.44L4.44,260.71c-5.92-5.92-5.92-15.51,0-21.43L239.29,4.44c5.92-5.92,15.51-5.92,21.43,0l234.85,234.85c5.92,5.92,5.92,15.51,0,21.43l-234.85,234.85c-2.96,2.96-6.84,4.44-10.71,4.44ZM36.58,250l213.42,213.42,213.42-213.42L250,36.58,36.58,250Z" class="logo-color-1" stroke-width="0" />
</svg>
