<?xml version="1.0" encoding="UTF-8"?>
<svg id="Layer_27" data-name="Layer 27" xmlns="http://www.w3.org/2000/svg" viewBox="0 0 601.7 24.03">
  <g>
    <path d="m29.63,14.29H12.34v-6.21c0-.82,1.13-1.49,2.54-1.49h12.21c1.4,0,2.54.67,2.54,1.49v6.21Z" fill="#94a3b8" fill-rule="evenodd" stroke-width="0"/>
    <path d="m48.58,14.29h-17.29v-6.21c0-.82,1.13-1.49,2.54-1.49h12.21c1.4,0,2.54.67,2.54,1.49v6.21Z" fill="#94a3b8" fill-rule="evenodd" stroke-width="0"/>
    <path d="m67.53,14.29h-17.29v-6.21c0-.82,1.14-1.49,2.54-1.49h12.21c1.4,0,2.54.67,2.54,1.49v6.21Z" fill="#94a3b8" fill-rule="evenodd" stroke-width="0"/>
    <path d="m232.06,14.29h-17.29v-6.21c0-.82,1.13-1.49,2.54-1.49h12.21c1.4,0,2.54.67,2.54,1.49v6.21Z" fill="#94a3b8" fill-rule="evenodd" stroke-width="0"/>
    <path d="m251.01,14.29h-17.29v-6.21c0-.82,1.14-1.49,2.54-1.49h12.21c1.4,0,2.54.67,2.54,1.49v6.21Z" fill="#94a3b8" fill-rule="evenodd" stroke-width="0"/>
    <path d="m269.95,14.29h-17.29v-6.21c0-.82,1.14-1.49,2.54-1.49h12.21c1.4,0,2.54.67,2.54,1.49v6.21Z" fill="#94a3b8" fill-rule="evenodd" stroke-width="0"/>
    <path d="m289.2,14.29h-17.28v-6.21c0-.82,1.14-1.49,2.54-1.49h12.21c1.4,0,2.53.67,2.53,1.49v6.21Z" fill="#94a3b8" fill-rule="evenodd" stroke-width="0"/>
    <path d="m308.46,14.29h-17.28v-6.21c0-.82,1.14-1.49,2.53-1.49h12.22c1.4,0,2.53.67,2.53,1.49v6.21Z" fill="#94a3b8" fill-rule="evenodd" stroke-width="0"/>
    <path d="m327.72,14.29h-17.29v-6.21c0-.82,1.14-1.49,2.54-1.49h12.22c1.39,0,2.53.67,2.53,1.49v6.21Z" fill="#94a3b8" fill-rule="evenodd" stroke-width="0"/>
    <path d="m346.98,14.29h-17.29v-6.21c0-.82,1.14-1.49,2.54-1.49h12.21c1.4,0,2.54.67,2.54,1.49v6.21Z" fill="#94a3b8" fill-rule="evenodd" stroke-width="0"/>
    <path d="m377.24,14.29h-17.29v-6.21c0-.82,1.14-1.49,2.54-1.49h12.22c1.39,0,2.53.67,2.53,1.49v6.21Z" fill="#94a3b8" fill-rule="evenodd" stroke-width="0"/>
    <path d="m395.63,14.29h-17.27v-6.21c0-.82,1.13-1.49,2.53-1.49h12.22c1.4,0,2.52.67,2.52,1.49v6.21Z" fill="#94a3b8" fill-rule="evenodd" stroke-width="0"/>
    <path d="m414.06,14.29h-17.29v-6.21c0-.82,1.14-1.49,2.55-1.49h12.19c1.4,0,2.54.67,2.54,1.49v6.21Z" fill="#94a3b8" fill-rule="evenodd" stroke-width="0"/>
    <path d="m432.47,14.29h-17.28v-6.21c0-.82,1.14-1.49,2.53-1.49h12.22c1.4,0,2.53.67,2.53,1.49v6.21Z" fill="#94a3b8" fill-rule="evenodd" stroke-width="0"/>
    <path d="m212.4,14.16l-143.21.13v-6.21c0-.83,1.14-1.49,2.54-1.49l138.13-.13c.66,0,1.32.17,1.79.43.48.29.75.66.75,1.06v6.21Z" fill="#94a3b8" fill-rule="evenodd" stroke-width="0"/>
    <path d="m444.85,19.32c0,2.56-2.78,4.64-6.19,4.64H6.19c-3.43,0-6.19-2.08-6.19-4.64v-4.22c0-2.58,2.76-4.65,6.19-4.65h432.47c3.42,0,6.19,2.08,6.19,4.65v4.22Z" fill="#cbd5e1" fill-rule="evenodd" stroke-width="0"/>
    <path d="m0,18.21v1.12c0,2.56,2.76,4.64,6.19,4.64h432.47c3.42,0,6.19-2.08,6.19-4.64v-1.12H0Z" fill="#94a3b8" fill-rule="evenodd" stroke-width="0"/>
  </g>
  <g>
    <path d="m601.7,19.49c-.91-10.82-21.8-19.49-47.45-19.49s-46.54,8.67-47.45,19.49h94.9Z" fill="#cbd5e1" stroke-width="0"/>
    <rect x="506.8" y="19.49" width="94.7" height="4.54" fill="#94a3b8" stroke-width="0"/>
  </g>
</svg>