<?xml version="1.0" encoding="UTF-8"?>
<svg xmlns="http://www.w3.org/2000/svg" viewBox="0 0 601.7 24.03">
  <g isolation="isolate">
    <g id="Layer_28" data-name="Layer 28">
      <g>
        <g>
          <path d="m601.7,19.49C600.79,8.67,579.9,0,554.25,0s-46.54,8.67-47.45,19.49h94.9Z" fill="#cbd5e1" stroke-width="0"/>
          <rect x="506.8" y="19.49" width="94.7" height="4.54" fill="#94a3b8" stroke-width="0"/>
        </g>
        <path d="m554.25,0c-25.66,0-46.54,8.67-47.45,19.49v4.48h94.7v-4.48h.2c-.91-10.82-21.8-19.49-47.45-19.49Z" fill="#111827" mix-blend-mode="multiply" opacity=".49" stroke-width="0"/>
      </g>
      <g>
        <path d="m29.63,14.29H12.34v-6.21c0-.82,1.13-1.49,2.54-1.49h12.21c1.4,0,2.54.67,2.54,1.49v6.21Z" fill="#94a3b8" fill-rule="evenodd" stroke-width="0"/>
        <path d="m48.58,14.29h-17.29v-6.21c0-.82,1.13-1.49,2.54-1.49h12.21c1.4,0,2.54.67,2.54,1.49v6.21Z" fill="#94a3b8" fill-rule="evenodd" stroke-width="0"/>
        <path d="m67.53,14.29h-17.29v-6.21c0-.82,1.14-1.49,2.54-1.49h12.21c1.4,0,2.54.67,2.54,1.49v6.21Z" fill="#94a3b8" fill-rule="evenodd" stroke-width="0"/>
        <path d="m232.06,14.29h-17.29v-6.21c0-.82,1.13-1.49,2.54-1.49h12.21c1.4,0,2.54.67,2.54,1.49v6.21Z" fill="#94a3b8" fill-rule="evenodd" stroke-width="0"/>
        <path d="m251.01,14.29h-17.29v-6.21c0-.82,1.14-1.49,2.54-1.49h12.21c1.4,0,2.54.67,2.54,1.49v6.21Z" fill="#94a3b8" fill-rule="evenodd" stroke-width="0"/>
        <path d="m269.95,14.29h-17.29v-6.21c0-.82,1.14-1.49,2.54-1.49h12.21c1.4,0,2.54.67,2.54,1.49v6.21Z" fill="#94a3b8" fill-rule="evenodd" stroke-width="0"/>
        <path d="m289.2,14.29h-17.28v-6.21c0-.82,1.14-1.49,2.54-1.49h12.21c1.4,0,2.53.67,2.53,1.49v6.21Z" fill="#94a3b8" fill-rule="evenodd" stroke-width="0"/>
        <path d="m308.46,14.29h-17.28v-6.21c0-.82,1.14-1.49,2.53-1.49h12.22c1.4,0,2.53.67,2.53,1.49v6.21Z" fill="#94a3b8" fill-rule="evenodd" stroke-width="0"/>
        <path d="m327.72,14.29h-17.29v-6.21c0-.82,1.14-1.49,2.54-1.49h12.22c1.39,0,2.53.67,2.53,1.49v6.21Z" fill="#94a3b8" fill-rule="evenodd" stroke-width="0"/>
        <path d="m346.98,14.29h-17.29v-6.21c0-.82,1.14-1.49,2.54-1.49h12.21c1.4,0,2.54.67,2.54,1.49v6.21Z" fill="#94a3b8" fill-rule="evenodd" stroke-width="0"/>
        <path d="m377.24,14.29h-17.29v-6.21c0-.82,1.14-1.49,2.54-1.49h12.22c1.39,0,2.53.67,2.53,1.49v6.21Z" fill="#94a3b8" fill-rule="evenodd" stroke-width="0"/>
        <path d="m395.63,14.29h-17.27v-6.21c0-.82,1.13-1.49,2.53-1.49h12.22c1.4,0,2.52.67,2.52,1.49v6.21Z" fill="#94a3b8" fill-rule="evenodd" stroke-width="0"/>
        <path d="m414.06,14.29h-17.29v-6.21c0-.82,1.14-1.49,2.55-1.49h12.19c1.4,0,2.54.67,2.54,1.49v6.21Z" fill="#94a3b8" fill-rule="evenodd" stroke-width="0"/>
        <path d="m432.47,14.29h-17.28v-6.21c0-.82,1.14-1.49,2.53-1.49h12.22c1.4,0,2.53.67,2.53,1.49v6.21Z" fill="#94a3b8" fill-rule="evenodd" stroke-width="0"/>
        <path d="m212.4,14.16l-143.21.13v-6.21c0-.83,1.14-1.49,2.54-1.49l138.13-.13c.66,0,1.32.17,1.79.43.48.29.75.66.75,1.06v6.21Z" fill="#94a3b8" fill-rule="evenodd" stroke-width="0"/>
        <path d="m444.85,19.32c0,2.56-2.78,4.64-6.19,4.64H6.19C2.76,23.97,0,21.89,0,19.32v-4.22C0,12.52,2.76,10.45,6.19,10.45h432.47c3.42,0,6.19,2.08,6.19,4.65v4.22Z" fill="#cbd5e1" fill-rule="evenodd" stroke-width="0"/>
        <path d="m0,18.21v1.12C0,21.89,2.76,23.97,6.19,23.97h432.47c3.42,0,6.19-2.08,6.19-4.64v-1.12H0Z" fill="#94a3b8" fill-rule="evenodd" stroke-width="0"/>
      </g>
      <path d="m438.66,10.45h-6.19v-2.37c0-.82-1.13-1.49-2.53-1.49h-12.22c-1.39,0-2.53.67-2.53,1.49v2.37h-1.13v-2.37c0-.82-1.14-1.49-2.54-1.49h-12.19c-1.42,0-2.55.67-2.55,1.49v2.37h-1.14v-2.37c0-.82-1.12-1.49-2.52-1.49h-12.22c-1.4,0-2.53.67-2.53,1.49v2.37h-1.13v-2.37c0-.82-1.14-1.49-2.53-1.49h-12.22c-1.4,0-2.54.67-2.54,1.49v2.37h-12.97v-2.37c0-.82-1.14-1.49-2.54-1.49h-12.21c-1.4,0-2.54.67-2.54,1.49v2.37h-1.97v-2.37c0-.82-1.14-1.49-2.53-1.49h-12.22c-1.4,0-2.54.67-2.54,1.49v2.37h-1.97v-2.37c0-.82-1.13-1.49-2.53-1.49h-12.22c-1.39,0-2.53.67-2.53,1.49v2.37h-1.98v-2.37c0-.82-1.13-1.49-2.53-1.49h-12.21c-1.4,0-2.54.67-2.54,1.49v2.37h-1.97v-2.37c0-.82-1.14-1.49-2.54-1.49h-12.21c-1.4,0-2.54.67-2.54,1.49v2.37h-1.66v-2.37c0-.82-1.14-1.49-2.54-1.49h-12.21c-1.4,0-2.54.67-2.54,1.49v2.37h-1.66v-2.37c0-.82-1.14-1.49-2.54-1.49h-12.21c-1.42,0-2.54.67-2.54,1.49v2.37h-2.37v-2.5c0-.4-.28-.77-.75-1.06-.48-.27-1.13-.43-1.79-.43l-138.13.13c-1.4,0-2.54.66-2.54,1.49v2.37h-1.66v-2.37c0-.82-1.14-1.49-2.54-1.49h-12.21c-1.4,0-2.54.67-2.54,1.49v2.37h-1.66v-2.37c0-.82-1.14-1.49-2.54-1.49h-12.21c-1.42,0-2.54.67-2.54,1.49v2.37h-1.66v-2.37c0-.82-1.14-1.49-2.54-1.49h-12.21c-1.42,0-2.54.67-2.54,1.49v2.37h-6.15c-3.43,0-6.19,2.08-6.19,4.65v4.22c0,2.56,2.76,4.64,6.19,4.64h432.47c3.42,0,6.19-2.08,6.19-4.64v-4.22c0-2.58-2.78-4.65-6.19-4.65Z" fill="#111827" fill-rule="evenodd" mix-blend-mode="multiply" opacity=".49" stroke-width="0"/>
    </g>
  </g>
</svg>