<?xml version="1.0" encoding="UTF-8"?>
<svg id="keyboard-light" xmlns="http://www.w3.org/2000/svg" viewBox="0 0 562.51 20">
  <g>
    <g>
      <path d="m20.61,15H2.5v-2.38c0-.31,1.18-.57,2.66-.57h12.78c1.47,0,2.66.26,2.66.57v2.38Z" fill="#94a3b8" fill-rule="evenodd" stroke-width="0"/>
      <path d="m40.45,15h-18.11v-2.38c0-.31,1.18-.57,2.66-.57h12.78c1.47,0,2.66.26,2.66.57v2.38Z" fill="#94a3b8" fill-rule="evenodd" stroke-width="0"/>
      <path d="m60.3,15h-18.11v-2.38c0-.31,1.19-.57,2.66-.57h12.78c1.47,0,2.66.26,2.66.57v2.38Z" fill="#94a3b8" fill-rule="evenodd" stroke-width="0"/>
      <path d="m232.61,15h-18.11v-2.38c0-.31,1.18-.57,2.66-.57h12.78c1.47,0,2.66.26,2.66.57v2.38Z" fill="#94a3b8" fill-rule="evenodd" stroke-width="0"/>
      <path d="m252.45,15h-18.11v-2.38c0-.31,1.19-.57,2.66-.57h12.78c1.47,0,2.66.26,2.66.57v2.38Z" fill="#94a3b8" fill-rule="evenodd" stroke-width="0"/>
      <path d="m272.3,15h-18.11v-2.38c0-.31,1.19-.57,2.66-.57h12.78c1.47,0,2.66.26,2.66.57v2.38Z" fill="#94a3b8" fill-rule="evenodd" stroke-width="0"/>
      <path d="m292.46,15h-18.1v-2.38c0-.31,1.19-.57,2.66-.57h12.78c1.47,0,2.65.26,2.65.57v2.38Z" fill="#94a3b8" fill-rule="evenodd" stroke-width="0"/>
      <path d="m312.63,15h-18.1v-2.38c0-.31,1.19-.57,2.65-.57h12.79c1.47,0,2.65.26,2.65.57v2.38Z" fill="#94a3b8" fill-rule="evenodd" stroke-width="0"/>
      <path d="m332.8,15h-18.11v-2.38c0-.31,1.19-.57,2.66-.57h12.79c1.46,0,2.65.26,2.65.57v2.38Z" fill="#94a3b8" fill-rule="evenodd" stroke-width="0"/>
      <path d="m352.96,15h-18.11v-2.38c0-.31,1.19-.57,2.66-.57h12.78c1.47,0,2.66.26,2.66.57v2.38Z" fill="#94a3b8" fill-rule="evenodd" stroke-width="0"/>
      <path d="m384.65,15h-18.11v-2.38c0-.31,1.19-.57,2.66-.57h12.79c1.46,0,2.65.26,2.65.57v2.38Z" fill="#94a3b8" fill-rule="evenodd" stroke-width="0"/>
      <path d="m403.92,15h-18.09v-2.38c0-.31,1.18-.57,2.65-.57h12.79c1.47,0,2.64.26,2.64.57v2.38Z" fill="#94a3b8" fill-rule="evenodd" stroke-width="0"/>
      <path d="m423.22,15h-18.11v-2.38c0-.31,1.19-.57,2.67-.57h12.77c1.47,0,2.66.26,2.66.57v2.38Z" fill="#94a3b8" fill-rule="evenodd" stroke-width="0"/>
      <path d="m442.5,15h-18.1v-2.38c0-.31,1.19-.57,2.65-.57h12.79c1.47,0,2.65.26,2.65.57v2.38Z" fill="#94a3b8" fill-rule="evenodd" stroke-width="0"/>
      <path d="m212.02,14.95l-149.99.05v-2.38c0-.32,1.19-.57,2.66-.57l144.66-.05c.69,0,1.38.06,1.88.17.5.11.79.25.79.41v2.38Z" fill="#94a3b8" fill-rule="evenodd" stroke-width="0"/>
    </g>
    <rect y="15" width="445" height="5" rx="1.11" ry="1.11" fill="#cbd5e1" stroke-width="0"/>
  </g>
  <g>
    <path d="m562.51,16.22c-.86-9.01-20.68-16.22-45-16.22s-44.14,7.21-45,16.22h90Z" fill="#cbd5e1" stroke-width="0"/>
    <rect x="472.51" y="16.22" width="89.81" height="3.78" fill="#94a3b8" stroke-width="0"/>
  </g>
</svg>