<?xml version="1.0" encoding="UTF-8"?>
<svg xmlns="http://www.w3.org/2000/svg" viewBox="0 0 635 401.64">
  <g isolation="isolate">
    <g id="laptop-light">
      <g>
        <rect x="45.84" y="15.46" width="543.31" height="349.09" fill="#1e293b" stroke-width="0"/>
        <rect x="45.84" y="34.51" width="105.69" height="330.03" fill="#475569" stroke-width="0"/>
        <rect x="45.84" y="15.46" width="543.31" height="19.06" fill="#0f172a" stroke-width="0"/>
        <g>
          <path d="m563.51,24.98c0,1.54-1.25,2.8-2.8,2.8s-2.8-1.25-2.8-2.8,1.25-2.8,2.8-2.8,2.8,1.25,2.8,2.8Z" fill="#ffd333" stroke-width="0"/>
          <path d="m572.03,24.98c0,1.54-1.25,2.8-2.8,2.8s-2.8-1.25-2.8-2.8,1.25-2.8,2.8-2.8,2.8,1.25,2.8,2.8Z" fill="#98ce00" stroke-width="0"/>
          <path d="m580.56,24.98c0,1.54-1.25,2.8-2.8,2.8s-2.8-1.25-2.8-2.8,1.25-2.8,2.8-2.8,2.8,1.25,2.8,2.8Z" fill="#ff5168" stroke-width="0"/>
        </g>
        <rect x="151.54" y="34.51" width="1" height="330.03" fill="#334155" stroke-width="0"/>
        <g>
          <g>
            <rect x="60.68" y="45.7" width="6.06" height="6.03" fill="#2dd4bf" stroke-width="0"/>
            <rect x="69.09" y="47.17" width="27.71" height="3.09" fill="#cbd5e1" stroke-width="0"/>
          </g>
          <g>
            <rect x="60.68" y="75.62" width="6.06" height="6.03" fill="#2dd4bf" stroke-width="0"/>
            <rect x="69.09" y="77.09" width="27.71" height="3.09" fill="#cbd5e1" stroke-width="0"/>
          </g>
          <g>
            <rect x="60.68" y="125.49" width="6.06" height="6.03" fill="#2dd4bf" stroke-width="0"/>
            <rect x="69.09" y="126.95" width="27.71" height="3.09" fill="#cbd5e1" stroke-width="0"/>
          </g>
          <g>
            <rect x="60.68" y="135.46" width="6.06" height="6.03" fill="#2dd4bf" stroke-width="0"/>
            <rect x="69.09" y="136.93" width="27.71" height="3.09" fill="#cbd5e1" stroke-width="0"/>
          </g>
          <g>
            <rect x="69.09" y="55.68" width="6.06" height="6.03" fill="#14b8a6" stroke-width="0"/>
            <rect x="77.58" y="57.15" width="27.71" height="3.09" fill="#cbd5e1" stroke-width="0"/>
          </g>
          <g>
            <rect x="69.09" y="65.65" width="6.06" height="6.03" fill="#14b8a6" stroke-width="0"/>
            <rect x="77.58" y="67.12" width="38.23" height="3.09" fill="#cbd5e1" stroke-width="0"/>
          </g>
          <g>
            <rect x="69.09" y="85.59" width="6.06" height="6.03" fill="#14b8a6" stroke-width="0"/>
            <rect x="77.56" y="87.06" width="46.52" height="3.09" fill="#cbd5e1" stroke-width="0"/>
          </g>
          <g>
            <rect x="69.09" y="95.57" width="6.06" height="6.03" fill="#14b8a6" stroke-width="0"/>
            <rect x="77.56" y="97.04" width="31.43" height="3.09" fill="#cbd5e1" stroke-width="0"/>
          </g>
          <g>
            <rect x="77.56" y="105.54" width="6.06" height="6.03" fill="#0d9488" stroke-width="0"/>
            <rect x="85.98" y="107.01" width="51.76" height="3.09" fill="#cbd5e1" stroke-width="0"/>
          </g>
          <g>
            <rect x="77.56" y="115.51" width="6.06" height="6.03" fill="#0d9488" stroke-width="0"/>
            <rect x="85.98" y="116.98" width="31.59" height="3.09" fill="#cbd5e1" stroke-width="0"/>
          </g>
          <g>
            <g>
              <rect x="60.68" y="145.03" width="6.06" height="6.03" fill="#2dd4bf" stroke-width="0"/>
              <rect x="69.09" y="146.5" width="27.71" height="3.09" fill="#cbd5e1" stroke-width="0"/>
            </g>
            <g>
              <rect x="60.68" y="174.94" width="6.06" height="6.03" fill="#2dd4bf" stroke-width="0"/>
              <rect x="69.09" y="176.41" width="27.71" height="3.09" fill="#cbd5e1" stroke-width="0"/>
            </g>
            <g>
              <rect x="60.68" y="224.81" width="6.06" height="6.03" fill="#2dd4bf" stroke-width="0"/>
              <rect x="69.09" y="226.28" width="27.71" height="3.09" fill="#cbd5e1" stroke-width="0"/>
            </g>
            <g>
              <rect x="60.68" y="234.78" width="6.06" height="6.03" fill="#2dd4bf" stroke-width="0"/>
              <rect x="69.09" y="236.25" width="27.71" height="3.09" fill="#cbd5e1" stroke-width="0"/>
            </g>
            <g>
              <rect x="69.09" y="155" width="6.06" height="6.03" fill="#14b8a6" stroke-width="0"/>
              <rect x="77.58" y="156.47" width="27.71" height="3.09" fill="#cbd5e1" stroke-width="0"/>
            </g>
            <g>
              <rect x="69.09" y="164.97" width="6.06" height="6.03" fill="#14b8a6" stroke-width="0"/>
              <rect x="77.58" y="166.44" width="38.23" height="3.09" fill="#cbd5e1" stroke-width="0"/>
            </g>
            <g>
              <rect x="69.09" y="184.92" width="6.06" height="6.03" fill="#14b8a6" stroke-width="0"/>
              <rect x="77.56" y="186.39" width="46.52" height="3.09" fill="#cbd5e1" stroke-width="0"/>
            </g>
            <g>
              <rect x="69.09" y="194.89" width="6.06" height="6.03" fill="#14b8a6" stroke-width="0"/>
              <rect x="77.56" y="196.36" width="31.43" height="3.09" fill="#cbd5e1" stroke-width="0"/>
            </g>
            <g>
              <rect x="77.56" y="204.86" width="6.06" height="6.03" fill="#0d9488" stroke-width="0"/>
              <rect x="85.98" y="206.33" width="51.76" height="3.09" fill="#cbd5e1" stroke-width="0"/>
            </g>
            <g>
              <rect x="77.56" y="214.84" width="6.06" height="6.03" fill="#0d9488" stroke-width="0"/>
              <rect x="85.98" y="216.3" width="31.59" height="3.09" fill="#cbd5e1" stroke-width="0"/>
            </g>
          </g>
        </g>
        <path d="m162.25,48.66h0c-1.36,0-2.47-1.11-2.47-2.47h0c0-1.36,1.11-2.47,2.47-2.47h0c1.36,0,2.47,1.11,2.47,2.47h0c0,1.36-1.11,2.47-2.47,2.47Z" fill="#4f5569" stroke-width="0"/>
        <rect x="172.08" y="43.72" width="29.68" height="4.94" fill="#ffc800" stroke-width="0"/>
        <rect x="209.1" y="43.72" width="54.14" height="4.94" fill="#98ce00" stroke-width="0"/>
        <path d="m162.25,63.19h0c-1.36,0-2.47-1.11-2.47-2.47h0c0-1.36,1.11-2.47,2.47-2.47h0c1.36,0,2.47,1.11,2.47,2.47h0c0,1.36-1.11,2.47-2.47,2.47Z" fill="#4f5569" stroke-width="0"/>
        <rect x="172.08" y="58.25" width="73.98" height="4.94" fill="#ff8427" stroke-width="0"/>
        <rect x="253.4" y="58.25" width="130.53" height="4.94" fill="#14b8a6" stroke-width="0"/>
        <path d="m162.25,77.72h0c-1.36,0-2.47-1.11-2.47-2.47h0c0-1.36,1.11-2.47,2.47-2.47h0c1.36,0,2.47,1.11,2.47,2.47h0c0,1.36-1.11,2.47-2.47,2.47Z" fill="#4f5569" stroke-width="0"/>
        <rect x="172.08" y="72.78" width="29.68" height="4.94" fill="#ff8427" stroke-width="0"/>
        <path d="m162.25,92.25h0c-1.36,0-2.47-1.11-2.47-2.47h0c0-1.36,1.11-2.47,2.47-2.47h0c1.36,0,2.47,1.11,2.47,2.47h0c0,1.36-1.11,2.47-2.47,2.47Z" fill="#4f5569" stroke-width="0"/>
        <rect x="172.08" y="87.31" width="17.18" height="4.94" fill="#98ce00" stroke-width="0"/>
        <rect x="196.59" y="87.31" width="49.47" height="4.94" fill="#e5e7eb" stroke-width="0"/>
        <path d="m162.25,106.78h0c-1.36,0-2.47-1.11-2.47-2.47h0c0-1.36,1.11-2.47,2.47-2.47h0c1.36,0,2.47,1.11,2.47,2.47h0c0,1.36-1.11,2.47-2.47,2.47Z" fill="#4f5569" stroke-width="0"/>
        <rect x="186.92" y="101.84" width="29.68" height="4.94" fill="#ff3562" stroke-width="0"/>
        <rect x="223.94" y="101.84" width="65.33" height="4.94" fill="#517dcd" stroke-width="0"/>
        <path d="m162.25,121.31h0c-1.36,0-2.47-1.11-2.47-2.47h0c0-1.36,1.11-2.47,2.47-2.47h0c1.36,0,2.47,1.11,2.47,2.47h0c0,1.36-1.11,2.47-2.47,2.47Z" fill="#4f5569" stroke-width="0"/>
        <rect x="186.92" y="116.37" width="222.51" height="4.94" fill="#14b8a6" stroke-width="0"/>
        <rect x="418.44" y="116.37" width="30.04" height="4.94" fill="#f5ab35" stroke-width="0"/>
        <rect x="418.44" y="115.96" width="30.04" height="4.94" fill="#ffc800" stroke-width="0"/>
        <path d="m162.25,135.84h0c-1.36,0-2.47-1.11-2.47-2.47h0c0-1.36,1.11-2.47,2.47-2.47h0c1.36,0,2.47,1.11,2.47,2.47h0c0,1.36-1.11,2.47-2.47,2.47Z" fill="#4f5569" stroke-width="0"/>
        <rect x="203.97" y="130.9" width="306.65" height="4.94" fill="#517dcd" stroke-width="0"/>
        <path d="m162.25,150.37h0c-1.36,0-2.47-1.11-2.47-2.47h0c0-1.36,1.11-2.47,2.47-2.47h0c1.36,0,2.47,1.11,2.47,2.47h0c0,1.36-1.11,2.47-2.47,2.47Z" fill="#4f5569" stroke-width="0"/>
        <rect x="203.97" y="145.44" width="185.12" height="4.94" fill="#517dcd" stroke-width="0"/>
        <rect x="396.99" y="145.44" width="51.49" height="4.94" fill="#14b8a6" stroke-width="0"/>
        <path d="m162.25,164.9h0c-1.36,0-2.47-1.11-2.47-2.47h0c0-1.36,1.11-2.47,2.47-2.47h0c1.36,0,2.47,1.11,2.47,2.47h0c0,1.36-1.11,2.47-2.47,2.47Z" fill="#4f5569" stroke-width="0"/>
        <rect x="186.92" y="159.97" width="17.05" height="4.94" fill="#98ce00" stroke-width="0"/>
        <path d="m162.25,179.24h0c-1.36,0-2.47-1.11-2.47-2.47h0c0-1.36,1.11-2.47,2.47-2.47h0c1.36,0,2.47,1.11,2.47,2.47h0c0,1.36-1.11,2.47-2.47,2.47Z" fill="#4f5569" stroke-width="0"/>
        <rect x="186.92" y="174.31" width="29.68" height="4.94" fill="#e5e7eb" stroke-width="0"/>
        <rect x="223.94" y="174.31" width="65.33" height="4.94" fill="#06b6d4" stroke-width="0"/>
        <path d="m162.25,193.77h0c-1.36,0-2.47-1.11-2.47-2.47h0c0-1.36,1.11-2.47,2.47-2.47h0c1.36,0,2.47,1.11,2.47,2.47h0c0,1.36-1.11,2.47-2.47,2.47Z" fill="#4f5569" stroke-width="0"/>
        <rect x="186.92" y="188.84" width="222.51" height="4.94" fill="#14b8a6" stroke-width="0"/>
        <rect x="418.44" y="188.84" width="30.04" height="4.94" fill="#f5ab35" stroke-width="0"/>
        <rect x="418.44" y="188.43" width="30.04" height="4.94" fill="#ffc800" stroke-width="0"/>
        <path d="m162.25,208.3h0c-1.36,0-2.47-1.11-2.47-2.47h0c0-1.36,1.11-2.47,2.47-2.47h0c1.36,0,2.47,1.11,2.47,2.47h0c0,1.36-1.11,2.47-2.47,2.47Z" fill="#4f5569" stroke-width="0"/>
        <rect x="203.97" y="203.37" width="306.65" height="4.94" fill="#98ce00" stroke-width="0"/>
        <path d="m162.25,222.83h0c-1.36,0-2.47-1.11-2.47-2.47h0c0-1.36,1.11-2.47,2.47-2.47h0c1.36,0,2.47,1.11,2.47,2.47h0c0,1.36-1.11,2.47-2.47,2.47Z" fill="#4f5569" stroke-width="0"/>
        <rect x="203.97" y="217.9" width="55.25" height="4.94" fill="#517dcd" stroke-width="0"/>
        <rect x="268.91" y="217.9" width="120.18" height="4.94" fill="#e5e7eb" stroke-width="0"/>
        <rect x="396.99" y="217.9" width="51.49" height="4.94" fill="#517dcd" stroke-width="0"/>
        <path d="m162.25,237.37h0c-1.36,0-2.47-1.11-2.47-2.47h0c0-1.36,1.11-2.47,2.47-2.47h0c1.36,0,2.47,1.11,2.47,2.47h0c0,1.36-1.11,2.47-2.47,2.47Z" fill="#4f5569" stroke-width="0"/>
        <rect x="186.92" y="232.43" width="17.05" height="4.94" fill="#ffc800" stroke-width="0"/>
        <path d="m162.25,251.7h0c-1.36,0-2.47-1.11-2.47-2.47h0c0-1.36,1.11-2.47,2.47-2.47h0c1.36,0,2.47,1.11,2.47,2.47h0c0,1.36-1.11,2.47-2.47,2.47Z" fill="#4f5569" stroke-width="0"/>
        <rect x="186.92" y="246.77" width="29.68" height="4.94" fill="#ff3562" stroke-width="0"/>
        <rect x="223.94" y="246.77" width="65.33" height="4.94" fill="#06b6d4" stroke-width="0"/>
        <path d="m162.25,266.24h0c-1.36,0-2.47-1.11-2.47-2.47h0c0-1.36,1.11-2.47,2.47-2.47h0c1.36,0,2.47,1.11,2.47,2.47h0c0,1.36-1.11,2.47-2.47,2.47Z" fill="#4f5569" stroke-width="0"/>
        <rect x="186.92" y="261.3" width="222.51" height="4.94" fill="#14b8a6" stroke-width="0"/>
        <rect x="418.44" y="261.3" width="30.04" height="4.94" fill="#f5ab35" stroke-width="0"/>
        <rect x="418.44" y="260.89" width="30.04" height="4.94" fill="#14b8a6" stroke-width="0"/>
        <path d="m162.25,280.77h0c-1.36,0-2.47-1.11-2.47-2.47h0c0-1.36,1.11-2.47,2.47-2.47h0c1.36,0,2.47,1.11,2.47,2.47h0c0,1.36-1.11,2.47-2.47,2.47Z" fill="#4f5569" stroke-width="0"/>
        <rect x="203.97" y="275.83" width="306.65" height="4.94" fill="#517dcd" stroke-width="0"/>
        <path d="m162.25,294.86h0c-1.36,0-2.47-1.11-2.47-2.48h0c0-1.37,1.11-2.48,2.47-2.48h0c1.36,0,2.47,1.11,2.47,2.48h0c0,1.37-1.11,2.48-2.47,2.48Z" fill="#4f5569" stroke-width="0"/>
        <rect x="203.98" y="289.89" width="185.12" height="4.96" fill="#e5e7eb" stroke-width="0"/>
        <rect x="396.99" y="289.89" width="51.49" height="4.96" fill="#98ce00" stroke-width="0"/>
        <rect x="459.13" y="289.89" width="51.49" height="4.96" fill="#e5e7eb" stroke-width="0"/>
        <path d="m162.25,309.46h0c-1.36,0-2.47-1.11-2.47-2.48h0c0-1.37,1.11-2.48,2.47-2.48h0c1.36,0,2.47,1.11,2.47,2.48h0c0,1.37-1.11,2.48-2.47,2.48Z" fill="#4f5569" stroke-width="0"/>
        <rect x="186.93" y="304.5" width="17.05" height="4.96" fill="#ffc800" stroke-width="0"/>
      </g>
      <g>
        <path d="m587.39,3.52c7.77,0,14.07,6.27,14.07,14v358.96H33.54V17.52c0-7.73,6.3-14,14.07-14h539.78m0-3.52H47.61c-9.71,0-17.61,7.86-17.61,17.52v362.48h575V17.52c0-9.66-7.9-17.52-17.61-17.52h0Z" fill="#94a3b8" stroke-width="0"/>
        <path d="m587.39,3.52H47.61c-7.77,0-14.07,6.27-14.07,14v358.96h567.92V17.52c0-7.73-6.3-14-14.07-14Zm1.69,360.64H45.92V17.52c0-.92.76-1.68,1.69-1.68h238.81v2.97c0,2.5,2.04,4.52,4.55,4.52h53.06c2.51,0,4.55-2.03,4.55-4.52v-2.97h238.81c.93,0,1.69.75,1.69,1.68v346.64Z" fill="#020617" stroke-width="0"/>
        <path d="m587.39,0l-258.39,380h276V17.52c0-9.66-7.9-17.52-17.61-17.52h0Z" fill="#fff" mix-blend-mode="screen" opacity=".1" stroke-width="0"/>
        <path d="m629.02,401.64H5.98c-3.3,0-5.98-2.68-5.98-5.98v-19.02h635v19.02c0,3.3-2.68,5.98-5.98,5.98Z" fill="#94a3b8" stroke-width="0"/>
        <path d="m317.5,12.93c.73,0,1.33.59,1.33,1.32s-.6,1.32-1.33,1.32-1.33-.59-1.33-1.32.6-1.32,1.33-1.32m0-2.2c-1.95,0-3.54,1.58-3.54,3.52s1.58,3.52,3.54,3.52,3.54-1.58,3.54-3.52-1.58-3.52-3.54-3.52h0Z" fill="#1e293b" stroke-width="0"/>
        <path d="m272.01,376.64h92v6.3c0,3.2-2.59,5.79-5.79,5.79h-80.42c-3.2,0-5.79-2.59-5.79-5.79v-6.3h0Z" fill="#64748b" stroke-width="0"/>
      </g>
    </g>
  </g>
</svg>