<?xml version="1.0" encoding="UTF-8"?>
<svg id="Laptop" xmlns="http://www.w3.org/2000/svg" viewBox="0 0 1440 810">
  <rect width="1440" height="810" class="bg-base-100" stroke-width="0" />
  <rect width="1440" height="450" fill="#d4d4d4" stroke-width="0" />
  <rect x="108" y="30" width="240" height="80" class="bg-base-100" stroke-width="0" />
  <g>
    <rect x="1252" y="60" width="80" height="20" class="bg-base-100" stroke-width="0" />
    <rect x="1152" y="60" width="80" height="20" class="bg-base-100" stroke-width="0" />
    <rect x="1052" y="60" width="80" height="20" class="bg-base-100" stroke-width="0" />
    <rect x="952" y="60" width="80" height="20" class="bg-base-100" stroke-width="0" />
    <rect x="852" y="60" width="80" height="20" class="bg-base-100" stroke-width="0" />
    <rect x="752" y="60" width="80" height="20" class="bg-base-100" stroke-width="0" />
  </g>
  <g>
    <rect x="302.14" y="160" width="835.71" height="60" class="bg-base-100" stroke-width="0" />
    <rect x="349.29" y="240" width="741.43" height="60" class="bg-base-100" stroke-width="0" />
  </g>
  <rect x="620" y="355.72" width="200" height="40" fill="#fafafa" stroke-width="0" />
  <rect width="1440" height="810" fill="none" stroke-width="0" />
  <g>
    <g>
      <path d="m530,556.67h380v253.33h-380v-253.33Z" fill="#d4d4d4" stroke-width="0" />
      <path d="m753.9,653.91l-72.73,72.73-33.91-33.91-117.27,117.27h380l-156.1-156.09Z" class="bg-base-100" isolation="isolate" opacity=".68" stroke-width="0" />
      <circle cx="586.71" cy="617.76" r="26.92" class="bg-base-100" isolation="isolate" opacity=".68" stroke-width="0" />
    </g>
    <g>
      <path d="m108,556.67h380v253.33H108v-253.33Z" fill="#d4d4d4" stroke-width="0" />
      <path d="m331.9,653.91l-72.73,72.73-33.91-33.91-117.27,117.27h380l-156.1-156.09Z" class="bg-base-100" isolation="isolate" opacity=".68" stroke-width="0" />
      <circle cx="164.71" cy="617.76" r="26.92" class="bg-base-100" isolation="isolate" opacity=".68" stroke-width="0" />
    </g>
    <g>
      <path d="m952,556.67h380v253.33h-380v-253.33Z" fill="#d4d4d4" stroke-width="0" />
      <path d="m1175.9,653.91l-72.73,72.73-33.91-33.91-117.27,117.27h380l-156.1-156.09Z" class="bg-base-100" isolation="isolate" opacity=".68" stroke-width="0" />
      <circle cx="1008.71" cy="617.76" r="26.92" class="bg-base-100" isolation="isolate" opacity=".68" stroke-width="0" />
    </g>
  </g>
</svg>
