<?xml version="1.0" encoding="UTF-8"?>
<svg id="Layer_27" data-name="Layer 27" xmlns="http://www.w3.org/2000/svg" viewBox="0 0 636.91 405.15">
  <rect x="47.34" y="15.54" width="543.31" height="350.91" fill="#1e293b" stroke-width="0"/>
  <rect x="47.34" y="34.69" width="105.69" height="331.75" fill="#475569" stroke-width="0"/>
  <rect x="47.34" y="15.54" width="543.31" height="19.16" fill="#0f172a" stroke-width="0"/>
  <g>
    <path d="m565,25.11c0,1.55-1.25,2.81-2.8,2.81s-2.8-1.26-2.8-2.81,1.25-2.81,2.8-2.81,2.8,1.26,2.8,2.81Z" fill="#ffc440" stroke-width="0"/>
    <path d="m573.53,25.11c0,1.55-1.25,2.81-2.8,2.81s-2.8-1.26-2.8-2.81,1.25-2.81,2.8-2.81,2.8,1.26,2.8,2.81Z" fill="#56c356" stroke-width="0"/>
    <path d="m582.05,25.11c0,1.55-1.25,2.81-2.8,2.81s-2.8-1.26-2.8-2.81,1.25-2.81,2.8-2.81,2.8,1.26,2.8,2.81Z" fill="#ff5168" stroke-width="0"/>
  </g>
  <rect x="153.04" y="34.69" width="1" height="331.75" fill="#334155" stroke-width="0"/>
  <g>
    <g>
      <rect x="62.18" y="45.94" width="6.06" height="6.06" fill="#2dd4bf" stroke-width="0"/>
      <rect x="70.59" y="47.42" width="27.71" height="3.11" fill="#cbd5e1" stroke-width="0"/>
    </g>
    <g>
      <rect x="62.18" y="76.02" width="6.06" height="6.06" fill="#2dd4bf" stroke-width="0"/>
      <rect x="70.59" y="77.49" width="27.71" height="3.11" fill="#cbd5e1" stroke-width="0"/>
    </g>
    <g>
      <rect x="62.18" y="126.14" width="6.06" height="6.06" fill="#2dd4bf" stroke-width="0"/>
      <rect x="70.59" y="127.61" width="27.71" height="3.11" fill="#cbd5e1" stroke-width="0"/>
    </g>
    <g>
      <rect x="62.18" y="136.16" width="6.06" height="6.06" fill="#2dd4bf" stroke-width="0"/>
      <rect x="70.59" y="137.64" width="27.71" height="3.11" fill="#cbd5e1" stroke-width="0"/>
    </g>
    <g>
      <rect x="70.59" y="55.97" width="6.06" height="6.06" fill="#14b8a6" stroke-width="0"/>
      <rect x="79.08" y="57.44" width="27.71" height="3.11" fill="#cbd5e1" stroke-width="0"/>
    </g>
    <g>
      <rect x="70.59" y="65.99" width="6.06" height="6.06" fill="#14b8a6" stroke-width="0"/>
      <rect x="79.08" y="67.47" width="38.23" height="3.11" fill="#cbd5e1" stroke-width="0"/>
    </g>
    <g>
      <rect x="70.59" y="86.04" width="6.06" height="6.06" fill="#14b8a6" stroke-width="0"/>
      <rect x="79.06" y="87.52" width="46.52" height="3.11" fill="#cbd5e1" stroke-width="0"/>
    </g>
    <g>
      <rect x="70.59" y="96.06" width="6.06" height="6.06" fill="#14b8a6" stroke-width="0"/>
      <rect x="79.06" y="97.54" width="31.43" height="3.11" fill="#cbd5e1" stroke-width="0"/>
    </g>
    <g>
      <rect x="79.06" y="106.09" width="6.06" height="6.06" fill="#0d9488" stroke-width="0"/>
      <rect x="87.48" y="107.57" width="51.76" height="3.11" fill="#cbd5e1" stroke-width="0"/>
    </g>
    <g>
      <rect x="79.06" y="116.11" width="6.06" height="6.06" fill="#0d9488" stroke-width="0"/>
      <rect x="87.48" y="117.59" width="31.59" height="3.11" fill="#cbd5e1" stroke-width="0"/>
    </g>
    <g>
      <g>
        <rect x="62.18" y="145.78" width="6.06" height="6.06" fill="#2dd4bf" stroke-width="0"/>
        <rect x="70.59" y="147.26" width="27.71" height="3.11" fill="#cbd5e1" stroke-width="0"/>
      </g>
      <g>
        <rect x="62.18" y="175.86" width="6.06" height="6.06" fill="#2dd4bf" stroke-width="0"/>
        <rect x="70.59" y="177.33" width="27.71" height="3.11" fill="#cbd5e1" stroke-width="0"/>
      </g>
      <g>
        <rect x="62.18" y="225.98" width="6.06" height="6.06" fill="#2dd4bf" stroke-width="0"/>
        <rect x="70.59" y="227.45" width="27.71" height="3.11" fill="#cbd5e1" stroke-width="0"/>
      </g>
      <g>
        <rect x="62.18" y="236" width="6.06" height="6.06" fill="#2dd4bf" stroke-width="0"/>
        <rect x="70.59" y="237.48" width="27.71" height="3.11" fill="#cbd5e1" stroke-width="0"/>
      </g>
      <g>
        <rect x="70.59" y="155.81" width="6.06" height="6.06" fill="#14b8a6" stroke-width="0"/>
        <rect x="79.08" y="157.28" width="27.71" height="3.11" fill="#cbd5e1" stroke-width="0"/>
      </g>
      <g>
        <rect x="70.59" y="165.83" width="6.06" height="6.06" fill="#14b8a6" stroke-width="0"/>
        <rect x="79.08" y="167.31" width="38.23" height="3.11" fill="#cbd5e1" stroke-width="0"/>
      </g>
      <g>
        <rect x="70.59" y="185.88" width="6.06" height="6.06" fill="#14b8a6" stroke-width="0"/>
        <rect x="79.06" y="187.36" width="46.52" height="3.11" fill="#cbd5e1" stroke-width="0"/>
      </g>
      <g>
        <rect x="70.59" y="195.9" width="6.06" height="6.06" fill="#14b8a6" stroke-width="0"/>
        <rect x="79.06" y="197.38" width="31.43" height="3.11" fill="#cbd5e1" stroke-width="0"/>
      </g>
      <g>
        <rect x="79.06" y="205.93" width="6.06" height="6.06" fill="#0d9488" stroke-width="0"/>
        <rect x="87.48" y="207.41" width="51.76" height="3.11" fill="#cbd5e1" stroke-width="0"/>
      </g>
      <g>
        <rect x="79.06" y="215.95" width="6.06" height="6.06" fill="#0d9488" stroke-width="0"/>
        <rect x="87.48" y="217.43" width="31.59" height="3.11" fill="#cbd5e1" stroke-width="0"/>
      </g>
    </g>
  </g>
  <path d="m163.75,48.91h0c-1.36,0-2.47-1.11-2.47-2.48h0c0-1.37,1.11-2.48,2.47-2.48h0c1.36,0,2.47,1.11,2.47,2.48h0c0,1.37-1.11,2.48-2.47,2.48Z" fill="#4f5569" stroke-width="0"/>
  <rect x="173.58" y="43.95" width="29.68" height="4.96" fill="#f5ab35" stroke-width="0"/>
  <rect x="210.6" y="43.95" width="54.14" height="4.96" fill="#f43f5e" stroke-width="0"/>
  <path d="m163.75,63.52h0c-1.36,0-2.47-1.11-2.47-2.48h0c0-1.37,1.11-2.48,2.47-2.48h0c1.36,0,2.47,1.11,2.47,2.48h0c0,1.37-1.11,2.48-2.47,2.48Z" fill="#4f5569" stroke-width="0"/>
  <rect x="173.58" y="58.55" width="73.98" height="4.96" fill="#f97316" stroke-width="0"/>
  <rect x="254.89" y="58.55" width="130.53" height="4.96" fill="#14b8a6" stroke-width="0"/>
  <path d="m163.75,78.12h0c-1.36,0-2.47-1.11-2.47-2.48h0c0-1.37,1.11-2.48,2.47-2.48h0c1.36,0,2.47,1.11,2.47,2.48h0c0,1.37-1.11,2.48-2.47,2.48Z" fill="#4f5569" stroke-width="0"/>
  <rect x="173.58" y="73.16" width="29.68" height="4.96" fill="#f97316" stroke-width="0"/>
  <path d="m163.75,92.73h0c-1.36,0-2.47-1.11-2.47-2.48h0c0-1.37,1.11-2.48,2.47-2.48h0c1.36,0,2.47,1.11,2.47,2.48h0c0,1.37-1.11,2.48-2.47,2.48Z" fill="#4f5569" stroke-width="0"/>
  <rect x="173.58" y="87.77" width="17.18" height="4.96" fill="#f43f5e" stroke-width="0"/>
  <rect x="198.09" y="87.77" width="49.47" height="4.96" fill="#e5e7eb" stroke-width="0"/>
  <path d="m163.75,107.34h0c-1.36,0-2.47-1.11-2.47-2.48h0c0-1.37,1.11-2.48,2.47-2.48h0c1.36,0,2.47,1.11,2.47,2.48h0c0,1.37-1.11,2.48-2.47,2.48Z" fill="#4f5569" stroke-width="0"/>
  <rect x="188.42" y="102.37" width="29.68" height="4.96" fill="#e5e7eb" stroke-width="0"/>
  <rect x="225.44" y="102.37" width="65.33" height="4.96" fill="#06b6d4" stroke-width="0"/>
  <path d="m163.75,121.94h0c-1.36,0-2.47-1.11-2.47-2.48h0c0-1.37,1.11-2.48,2.47-2.48h0c1.36,0,2.47,1.11,2.47,2.48h0c0,1.37-1.11,2.48-2.47,2.48Z" fill="#4f5569" stroke-width="0"/>
  <rect x="188.42" y="116.98" width="222.51" height="4.96" fill="#14b8a6" stroke-width="0"/>
  <rect x="419.93" y="116.98" width="30.04" height="4.96" fill="#f5ab35" stroke-width="0"/>
  <rect x="419.93" y="116.57" width="30.04" height="4.96" fill="#f5ab35" stroke-width="0"/>
  <path d="m163.75,136.55h0c-1.36,0-2.47-1.11-2.47-2.48h0c0-1.37,1.11-2.48,2.47-2.48h0c1.36,0,2.47,1.11,2.47,2.48h0c0,1.37-1.11,2.48-2.47,2.48Z" fill="#4f5569" stroke-width="0"/>
  <rect x="205.47" y="131.59" width="306.64" height="4.96" fill="#06b6d4" stroke-width="0"/>
  <path d="m163.75,151.16h0c-1.36,0-2.47-1.11-2.47-2.48h0c0-1.37,1.11-2.48,2.47-2.48h0c1.36,0,2.47,1.11,2.47,2.48h0c0,1.37-1.11,2.48-2.47,2.48Z" fill="#4f5569" stroke-width="0"/>
  <rect x="205.47" y="146.19" width="185.12" height="4.96" fill="#06b6d4" stroke-width="0"/>
  <rect x="398.49" y="146.19" width="51.49" height="4.96" fill="#14b8a6" stroke-width="0"/>
  <path d="m163.75,165.76h0c-1.36,0-2.47-1.11-2.47-2.48h0c0-1.37,1.11-2.48,2.47-2.48h0c1.36,0,2.47,1.11,2.47,2.48h0c0,1.37-1.11,2.48-2.47,2.48Z" fill="#4f5569" stroke-width="0"/>
  <rect x="188.42" y="160.8" width="17.05" height="4.96" fill="#f43f5e" stroke-width="0"/>
  <path d="m163.75,180.18h0c-1.36,0-2.47-1.11-2.47-2.48h0c0-1.37,1.11-2.48,2.47-2.48h0c1.36,0,2.47,1.11,2.47,2.48h0c0,1.37-1.11,2.48-2.47,2.48Z" fill="#4f5569" stroke-width="0"/>
  <rect x="188.42" y="175.21" width="29.68" height="4.96" fill="#e5e7eb" stroke-width="0"/>
  <rect x="225.44" y="175.21" width="65.33" height="4.96" fill="#06b6d4" stroke-width="0"/>
  <path d="m163.75,194.78h0c-1.36,0-2.47-1.11-2.47-2.48h0c0-1.37,1.11-2.48,2.47-2.48h0c1.36,0,2.47,1.11,2.47,2.48h0c0,1.37-1.11,2.48-2.47,2.48Z" fill="#4f5569" stroke-width="0"/>
  <rect x="188.42" y="189.82" width="222.51" height="4.96" fill="#14b8a6" stroke-width="0"/>
  <rect x="419.93" y="189.82" width="30.04" height="4.96" fill="#f5ab35" stroke-width="0"/>
  <rect x="419.93" y="189.41" width="30.04" height="4.96" fill="#f5ab35" stroke-width="0"/>
  <path d="m163.75,209.39h0c-1.36,0-2.47-1.11-2.47-2.48h0c0-1.37,1.11-2.48,2.47-2.48h0c1.36,0,2.47,1.11,2.47,2.48h0c0,1.37-1.11,2.48-2.47,2.48Z" fill="#4f5569" stroke-width="0"/>
  <rect x="205.47" y="204.43" width="306.64" height="4.96" fill="#f43f5e" stroke-width="0"/>
  <path d="m163.75,223.99h0c-1.36,0-2.47-1.11-2.47-2.48h0c0-1.37,1.11-2.48,2.47-2.48h0c1.36,0,2.47,1.11,2.47,2.48h0c0,1.37-1.11,2.48-2.47,2.48Z" fill="#4f5569" stroke-width="0"/>
  <rect x="205.47" y="219.03" width="55.25" height="4.96" fill="#06b6d4" stroke-width="0"/>
  <rect x="270.4" y="219.03" width="120.18" height="4.96" fill="#e5e7eb" stroke-width="0"/>
  <rect x="398.49" y="219.03" width="51.49" height="4.96" fill="#14b8a6" stroke-width="0"/>
  <path d="m163.75,238.6h0c-1.36,0-2.47-1.11-2.47-2.48h0c0-1.37,1.11-2.48,2.47-2.48h0c1.36,0,2.47,1.11,2.47,2.48h0c0,1.37-1.11,2.48-2.47,2.48Z" fill="#4f5569" stroke-width="0"/>
  <rect x="188.42" y="233.64" width="17.05" height="4.96" fill="#f5ab35" stroke-width="0"/>
  <path d="m163.75,253.01h0c-1.36,0-2.47-1.11-2.47-2.48h0c0-1.37,1.11-2.48,2.47-2.48h0c1.36,0,2.47,1.11,2.47,2.48h0c0,1.37-1.11,2.48-2.47,2.48Z" fill="#4f5569" stroke-width="0"/>
  <rect x="188.42" y="248.05" width="29.68" height="4.96" fill="#e5e7eb" stroke-width="0"/>
  <rect x="225.44" y="248.05" width="65.33" height="4.96" fill="#06b6d4" stroke-width="0"/>
  <path d="m163.75,267.62h0c-1.36,0-2.47-1.11-2.47-2.48h0c0-1.37,1.11-2.48,2.47-2.48h0c1.36,0,2.47,1.11,2.47,2.48h0c0,1.37-1.11,2.48-2.47,2.48Z" fill="#4f5569" stroke-width="0"/>
  <rect x="188.42" y="262.66" width="222.51" height="4.96" fill="#14b8a6" stroke-width="0"/>
  <rect x="419.93" y="262.66" width="30.04" height="4.96" fill="#f5ab35" stroke-width="0"/>
  <rect x="419.93" y="262.24" width="30.04" height="4.96" fill="#14b8a6" stroke-width="0"/>
  <path d="m163.75,282.23h0c-1.36,0-2.47-1.11-2.47-2.48h0c0-1.37,1.11-2.48,2.47-2.48h0c1.36,0,2.47,1.11,2.47,2.48h0c0,1.37-1.11,2.48-2.47,2.48Z" fill="#4f5569" stroke-width="0"/>
  <rect x="205.47" y="277.26" width="306.64" height="4.96" fill="#06b6d4" stroke-width="0"/>
  <path d="m163.75,296.83h0c-1.36,0-2.47-1.11-2.47-2.48h0c0-1.37,1.11-2.48,2.47-2.48h0c1.36,0,2.47,1.11,2.47,2.48h0c0,1.37-1.11,2.48-2.47,2.48Z" fill="#4f5569" stroke-width="0"/>
  <rect x="205.47" y="291.87" width="185.12" height="4.96" fill="#e5e7eb" stroke-width="0"/>
  <rect x="398.49" y="291.87" width="51.49" height="4.96" fill="#ef4444" stroke-width="0"/>
  <rect x="460.63" y="291.87" width="51.49" height="4.96" fill="#e5e7eb" stroke-width="0"/>
  <path d="m163.75,311.44h0c-1.36,0-2.47-1.11-2.47-2.48h0c0-1.37,1.11-2.48,2.47-2.48h0c1.36,0,2.47,1.11,2.47,2.48h0c0,1.37-1.11,2.48-2.47,2.48Z" fill="#4f5569" stroke-width="0"/>
  <rect x="188.42" y="306.48" width="17.05" height="4.96" fill="#f5ab35" stroke-width="0"/>
  <path d="m588.88,3.54c7.77,0,14.07,6.3,14.07,14.07v360.83H35.04V17.61c0-7.77,6.3-14.07,14.07-14.07h539.78m0-3.54H49.11c-9.71,0-17.61,7.9-17.61,17.61v364.37h574.99V17.61c0-9.71-7.9-17.61-17.61-17.61h0Z" fill="#94a3b8" stroke-width="0"/>
  <path d="m588.88,3.54H49.11c-7.77,0-14.07,6.3-14.07,14.07v360.83h567.92V17.61c0-7.77-6.3-14.07-14.07-14.07Zm1.69,362.52H47.42V17.61c0-.93.76-1.69,1.68-1.69h238.81v2.98c0,2.51,2.04,4.55,4.55,4.55h53.06c2.51,0,4.55-2.04,4.55-4.55v-2.98h238.81c.93,0,1.69.76,1.69,1.69v348.45Z" fill="#020617" stroke-width="0"/>
  <path d="m0,378.61h636.91v20.37c0,3.4-2.76,6.17-6.17,6.17H6.17c-3.4,0-6.17-2.76-6.17-6.17v-20.37h0Z" fill="#94a3b8" stroke-width="0"/>
  <path d="m268.03,378.61h92v6.3c0,3.2-2.59,5.79-5.79,5.79h-80.42c-3.2,0-5.79-2.59-5.79-5.79v-6.3h0Z" fill="#64748b" stroke-width="0"/>
  <path d="m319,11.68c.73,0,1.33.6,1.33,1.33s-.6,1.33-1.33,1.33-1.33-.6-1.33-1.33.6-1.33,1.33-1.33m0-2.21c-1.95,0-3.54,1.58-3.54,3.54s1.58,3.54,3.54,3.54,3.54-1.58,3.54-3.54-1.58-3.54-3.54-3.54h0Z" fill="#1e293b" stroke-width="0"/>
</svg>