<svg xmlns="http://www.w3.org/2000/svg" viewBox="0 0 146.04 28.09">
	<g>
		<path d="m6,25.92h-3.15c-1.16,0-2.1-.94-2.1-2.1v-8.84l-.53-.53c-.29-.29-.29-.77,0-1.06l.53-.53V4.01c0-1.16.94-2.1,2.1-2.1h3.15c.41,0,.75.34.75.75s-.34.75-.75.75h-3.15c-.33,0-.6.27-.6.6v9.15c0,.2-.08.39-.22.53l-.22.22.22.22c.14.14.22.33.22.53v9.15c0,.33.27.6.6.6h3.15c.41,0,.75.34.75.75s-.34.75-.75.75Z" class="logo-color-2" stroke-width="0" />
		<path d="m21.15,25.92h-3.15c-.41,0-.75-.34-.75-.75s.34-.75.75-.75h3.15c.33,0,.6-.27.6-.6v-9.15c0-.2.08-.39.22-.53l.22-.22-.22-.22c-.14-.14-.22-.33-.22-.53V4.01c0-.33-.27-.6-.6-.6h-3.15c-.41,0-.75-.34-.75-.75s.34-.75.75-.75h3.15c1.16,0,2.1.94,2.1,2.1v8.84l.53.53c.29.29.29.77,0,1.06l-.53.53v8.84c0,1.16-.94,2.1-2.1,2.1Z" class="logo-color-2" stroke-width="0" />
		<path d="m8.75,22.67c-.2,0-.39-.08-.53-.22L.22,14.45c-.29-.29-.29-.77,0-1.06l8-8c.29-.29.77-.29,1.06,0s.29.77,0,1.06L1.81,13.92l6.67,6.67,6.07-14.95c.09-.23.3-.4.55-.45.24-.05.5.03.68.2l8,8c.29.29.29.77,0,1.06l-8,8c-.29.29-.77.29-1.06,0s-.29-.77,0-1.06l7.47-7.47-6.67-6.67-6.07,14.95c-.09.23-.3.4-.55.45-.05.01-.1.02-.15.02Z" class="fill-primary" stroke-width="0" />
	</g>
	<g>
		<path d="m30.15,11.82h3.64c.1,1.08.78,1.6,1.74,1.6s1.64-.5,1.64-1.32c0-2.6-7.02-1.2-6.98-6.18,0-2.66,2.18-4.14,5.12-4.14s5.12,1.52,5.26,4.2h-3.7c-.06-.9-.7-1.44-1.62-1.46-.82-.02-1.44.4-1.44,1.28,0,2.44,6.94,1.34,6.94,6.04,0,2.36-1.84,4.32-5.12,4.32-3.02,0-5.38-1.5-5.48-4.34Z" class="headings-fill" stroke-width="0" />
		<path d="m46.56,4.7c1.66,0,2.84.76,3.44,1.74v-1.58h3.42v11.16h-3.42v-1.58c-.62.98-1.8,1.74-3.46,1.74-2.72,0-4.9-2.24-4.9-5.76s2.18-5.72,4.92-5.72Zm1,2.98c-1.28,0-2.44.96-2.44,2.74s1.16,2.78,2.44,2.78,2.44-.98,2.44-2.76-1.14-2.76-2.44-2.76Z" class="headings-fill" stroke-width="0" />
		<path d="m68.55,7.7c-1.3,0-2.14.8-2.14,2.26v6.06h-3.4v-6.06c0-1.46-.84-2.26-2.14-2.26s-2.14.8-2.14,2.26v6.06h-3.42V4.86h3.42v1.4c.66-.9,1.8-1.52,3.26-1.52,1.68,0,3.04.74,3.8,2.08.74-1.18,2.14-2.08,3.76-2.08,2.76,0,4.54,1.76,4.54,4.76v6.52h-3.4v-6.06c0-1.46-.84-2.26-2.14-2.26Z" class="headings-fill" stroke-width="0" />
		<path d="m90.63,6.4c0,1.76-.96,3.42-3.12,4.06l3.24,5.56h-3.86l-2.92-5.3h-.82v5.3h-3.42V1.98h5.74c3.44,0,5.16,1.98,5.16,4.42Zm-5.36-1.58h-2.12v3.48h2.12c1.28,0,1.88-.66,1.88-1.76,0-1.04-.6-1.72-1.88-1.72Z" class="headings-fill" stroke-width="0" />
		<path d="m96.23,4.7c1.66,0,2.84.76,3.44,1.74v-1.58h3.42v11.16h-3.42v-1.58c-.62.98-1.8,1.74-3.46,1.74-2.72,0-4.9-2.24-4.9-5.76s2.18-5.72,4.92-5.72Zm1,2.98c-1.28,0-2.44.96-2.44,2.74s1.16,2.78,2.44,2.78,2.44-.98,2.44-2.76-1.14-2.76-2.44-2.76Z" class="headings-fill" stroke-width="0" />
		<path d="m110.54,7.6c-1.3,0-2.14.84-2.14,2.36v6.06h-3.42V4.86h3.42v1.48c.68-.94,1.88-1.6,3.38-1.6,2.58,0,4.3,1.76,4.3,4.76v6.52h-3.4v-6.06c0-1.52-.84-2.36-2.14-2.36Z" class="headings-fill" stroke-width="0" />
		<path d="m121.32,1.22v8.18l3.38-4.54h4.22l-4.64,5.6,4.68,5.56h-4.24l-3.4-4.68v4.68h-3.42V1.22h3.42Z" class="headings-fill" stroke-width="0" />
		<path d="m129.32,1.86c0-1.04.82-1.86,2.04-1.86s2.02.82,2.02,1.86-.82,1.84-2.02,1.84-2.04-.82-2.04-1.84Zm3.74,3v11.16h-3.42V4.86h3.42Z" class="headings-fill" stroke-width="0" />
		<path d="m140.5,7.6c-1.3,0-2.14.84-2.14,2.36v6.06h-3.42V4.86h3.42v1.48c.68-.94,1.88-1.6,3.38-1.6,2.58,0,4.3,1.76,4.3,4.76v6.52h-3.4v-6.06c0-1.52-.84-2.36-2.14-2.36Z" class="headings-fill" stroke-width="0" />
	</g>
	<g>
		<path d="m31.29,25.96v-6.78h4.42v1.06h-3.11v1.81h2.5v1.03h-2.5v2.89h-1.31Z" class="content-fill" stroke-width="0" />
		<path d="m37.93,26.08c-.4,0-.74-.08-1.02-.25-.28-.17-.49-.41-.64-.73-.15-.32-.22-.71-.22-1.19v-2.84h1.3v2.71c0,.39.08.69.25.89s.42.29.76.29c.22,0,.41-.05.59-.15.17-.1.3-.25.4-.44s.15-.42.15-.69v-2.62h1.31v4.88h-1.15l-.1-.79c-.15.28-.36.5-.63.66s-.6.25-.98.25Z" class="content-fill" stroke-width="0" />
		<path d="m41.81,25.96v-6.97h1.31v6.97h-1.31Z" class="content-fill" stroke-width="0" />
		<path d="m44.14,25.96v-6.97h1.31v6.97h-1.31Z" class="content-fill" stroke-width="0" />
		<path d="m46.42,23.66v-1.09h4.09v1.09h-4.09Z" class="content-fill" stroke-width="0" />
		<path d="m53.43,26.08c-.45,0-.84-.07-1.17-.21-.33-.14-.58-.34-.77-.59-.19-.25-.29-.53-.32-.86h1.31c.03.12.08.23.16.33.08.1.18.18.31.24.13.06.28.09.46.09s.32-.02.43-.07c.11-.05.2-.11.25-.2s.08-.17.08-.26c0-.14-.04-.24-.12-.31-.08-.07-.2-.13-.34-.18s-.33-.1-.54-.14c-.23-.04-.46-.1-.68-.17-.22-.07-.42-.16-.6-.26-.17-.11-.31-.24-.42-.4s-.15-.36-.15-.6c0-.28.08-.54.23-.77.15-.23.38-.42.68-.55.3-.13.65-.2,1.06-.2.59,0,1.06.13,1.4.4.34.26.55.63.61,1.09h-1.23c-.04-.16-.12-.27-.26-.36-.13-.08-.31-.13-.53-.13s-.4.04-.53.13-.19.19-.19.32c0,.09.04.17.12.24s.2.13.34.18.33.1.54.15c.37.08.7.17.99.27.28.1.51.24.67.43.16.18.24.45.24.8,0,.31-.08.59-.25.83-.17.24-.41.43-.71.57s-.67.2-1.09.2Z" class="content-fill" stroke-width="0" />
		<path d="m58.42,25.96c-.34,0-.63-.05-.89-.16-.26-.11-.46-.28-.6-.53-.14-.25-.21-.59-.21-1.02v-2.07h-.84v-1.09h.84l.15-1.34h1.16v1.34h1.29v1.09h-1.29v2.09c0,.22.05.37.15.46.1.08.26.13.49.13h.63v1.11h-.87Z" class="content-fill" stroke-width="0" />
		<path d="m61.72,26.08c-.4,0-.73-.07-1-.2-.26-.13-.46-.31-.6-.53-.13-.22-.2-.47-.2-.74,0-.3.08-.57.23-.79.15-.23.38-.4.69-.53.31-.13.7-.19,1.18-.19h1.19c0-.25-.03-.45-.09-.6s-.16-.27-.3-.35c-.14-.08-.32-.12-.55-.12-.25,0-.45.05-.62.16s-.28.27-.31.49h-1.27c.03-.36.15-.66.34-.91.2-.25.46-.45.78-.59.33-.14.69-.21,1.09-.21.46,0,.86.08,1.2.23.34.15.6.38.77.67.18.29.27.65.27,1.07v3.03h-1.09l-.14-.75c-.07.13-.16.25-.26.35-.1.1-.22.19-.35.27-.13.08-.28.14-.43.18-.15.04-.33.06-.53.06Zm.32-1.01c.16,0,.31-.03.44-.09.13-.06.25-.15.34-.26.1-.11.17-.23.23-.37.06-.14.1-.28.12-.45h0s-1,0-1,0c-.21,0-.37.02-.5.07-.13.05-.22.12-.28.21-.06.09-.09.19-.09.31,0,.12.03.23.09.32.06.09.14.15.26.2.11.04.24.07.38.07Z" class="content-fill" stroke-width="0" />
		<path d="m67.83,26.08c-.49,0-.93-.11-1.31-.33s-.68-.52-.89-.9c-.21-.38-.32-.81-.32-1.3,0-.52.11-.97.32-1.35.21-.38.51-.69.89-.91.38-.22.82-.33,1.31-.33.63,0,1.15.16,1.58.49.43.33.7.78.81,1.35h-1.39c-.06-.22-.18-.4-.36-.53-.18-.13-.4-.2-.66-.2-.23,0-.43.06-.61.17s-.32.28-.42.49c-.1.21-.15.47-.15.78,0,.22.03.42.09.6.06.18.14.33.24.46.1.12.23.22.37.29.14.07.3.1.47.1s.32-.03.46-.09c.14-.06.26-.14.35-.25.1-.11.17-.24.2-.39h1.39c-.12.55-.39,1-.82,1.34-.43.34-.95.5-1.57.5Z" class="content-fill" stroke-width="0" />
		<path d="m71.03,25.96v-6.97h1.31v6.97h-1.31Zm3.2,0l-2.08-2.67,1.87-2.21h1.55l-2.41,2.75v-1.04s2.7,3.17,2.7,3.17h-1.63Z" class="content-fill" stroke-width="0" />
		<path d="m79.5,25.96l-1.77-6.78h1.39l1.18,5.3,1.38-5.3h1.45l1.35,5.3,1.19-5.3h1.41l-1.83,6.78h-1.56l-1.31-4.94-1.34,4.94h-1.56Z" class="content-fill" stroke-width="0" />
		<path d="m89.69,26.08c-.49,0-.92-.11-1.3-.32s-.67-.51-.88-.89-.31-.81-.31-1.3.1-.96.31-1.35c.21-.39.5-.69.88-.92.37-.23.81-.34,1.31-.34s.91.11,1.27.32c.36.21.64.5.84.86s.3.77.3,1.24c0,.06,0,.14,0,.22,0,.08,0,.16-.01.25h-3.95v-.8h2.65c-.02-.3-.13-.55-.33-.74-.2-.19-.45-.28-.75-.28-.23,0-.43.05-.62.16s-.33.26-.44.46c-.11.2-.17.46-.17.77v.28c0,.26.05.5.15.69.1.2.24.35.42.46.18.11.39.17.63.17s.44-.05.6-.15c.15-.1.27-.23.35-.4h1.33c-.08.3-.23.58-.45.83-.22.25-.48.44-.79.58s-.65.21-1.03.21Z" class="content-fill" stroke-width="0" />
		<path d="m95.81,26.08c-.25,0-.47-.03-.67-.1s-.37-.15-.52-.26c-.14-.11-.27-.24-.38-.39l-.15.63h-1.16v-6.97h1.31v2.78c.15-.23.36-.42.61-.58.26-.15.57-.23.95-.23.45,0,.84.11,1.2.34.35.23.63.53.84.92.21.38.31.82.31,1.3s-.1.93-.31,1.31c-.2.38-.48.69-.83.91-.35.22-.75.33-1.21.33Zm-.3-1.14c.25,0,.48-.06.67-.18.2-.12.35-.28.46-.49.11-.21.17-.46.17-.74s-.06-.52-.17-.73c-.11-.22-.27-.38-.46-.5s-.42-.18-.67-.18-.48.06-.67.18c-.2.12-.35.29-.46.5-.11.21-.16.46-.16.75s.05.52.16.73c.11.21.26.38.46.49.2.12.42.18.67.18Z" class="content-fill" stroke-width="0" />
		<path d="m100.79,25.96v-6.78h2.27c.78,0,1.43.14,1.95.42.52.28.9.67,1.15,1.18.25.51.37,1.1.37,1.79s-.12,1.28-.37,1.79c-.25.51-.63.9-1.15,1.18-.52.28-1.17.42-1.95.42h-2.27Zm1.31-1.12h.89c.55,0,.98-.09,1.31-.27.32-.18.55-.44.69-.78s.2-.74.2-1.21-.07-.89-.2-1.23-.37-.6-.69-.78c-.32-.18-.76-.27-1.31-.27h-.89v4.54Z" class="content-fill" stroke-width="0" />
		<path d="m109.68,26.08c-.49,0-.92-.11-1.3-.32s-.67-.51-.88-.89-.31-.81-.31-1.3.1-.96.31-1.35c.21-.39.5-.69.88-.92.37-.23.81-.34,1.31-.34s.91.11,1.27.32c.36.21.64.5.84.86s.3.77.3,1.24c0,.06,0,.14,0,.22,0,.08,0,.16-.01.25h-3.95v-.8h2.65c-.02-.3-.13-.55-.33-.74-.2-.19-.45-.28-.75-.28-.23,0-.43.05-.62.16s-.33.26-.44.46c-.11.2-.17.46-.17.77v.28c0,.26.05.5.15.69.1.2.24.35.42.46.18.11.39.17.63.17s.44-.05.6-.15c.15-.1.27-.23.35-.4h1.33c-.08.3-.23.58-.45.83-.22.25-.48.44-.79.58s-.65.21-1.03.21Z" class="content-fill" stroke-width="0" />
		<path d="m114.05,25.96l-1.79-4.88h1.38l1.22,3.65,1.21-3.65h1.36l-1.78,4.88h-1.59Z" class="content-fill" stroke-width="0" />
		<path d="m120.09,26.08c-.49,0-.92-.11-1.3-.32s-.67-.51-.88-.89-.31-.81-.31-1.3.1-.96.31-1.35c.21-.39.5-.69.88-.92.37-.23.81-.34,1.31-.34s.91.11,1.27.32c.36.21.64.5.84.86s.3.77.3,1.24c0,.06,0,.14,0,.22,0,.08,0,.16-.01.25h-3.95v-.8h2.65c-.02-.3-.13-.55-.33-.74-.2-.19-.45-.28-.75-.28-.23,0-.43.05-.62.16s-.33.26-.44.46c-.11.2-.17.46-.17.77v.28c0,.26.05.5.15.69.1.2.24.35.42.46.18.11.39.17.63.17s.44-.05.6-.15c.15-.1.27-.23.35-.4h1.33c-.08.3-.23.58-.45.83-.22.25-.48.44-.79.58s-.65.21-1.03.21Z" class="content-fill" stroke-width="0" />
		<path d="m123.33,25.96v-6.97h1.31v6.97h-1.31Z" class="content-fill" stroke-width="0" />
		<path d="m127.97,26.08c-.47,0-.89-.11-1.26-.32-.37-.22-.67-.52-.88-.9-.22-.38-.32-.82-.32-1.32s.11-.96.32-1.34c.22-.38.51-.68.89-.9.37-.22.8-.32,1.27-.32s.89.11,1.26.32c.37.22.66.52.88.9s.32.83.32,1.34-.11.95-.32,1.33c-.22.38-.51.68-.88.9-.37.22-.79.32-1.26.32Zm0-1.13c.21,0,.4-.05.57-.16s.31-.27.42-.48.16-.47.16-.78-.05-.58-.16-.79-.24-.37-.41-.47-.35-.16-.56-.16-.41.05-.58.16c-.17.11-.31.26-.42.47-.1.21-.15.47-.15.79s.05.57.15.78c.1.21.24.37.41.48.17.11.36.16.57.16Z" class="content-fill" stroke-width="0" />
		<path d="m131.29,28.09v-7.01h1.16l.15.67c.1-.13.22-.26.36-.38.14-.12.32-.22.51-.29s.42-.11.68-.11c.47,0,.87.11,1.22.33s.62.53.83.92c.2.39.31.83.31,1.32s-.1.93-.31,1.31c-.21.38-.48.69-.83.91s-.75.33-1.2.33c-.35,0-.66-.07-.92-.2-.26-.13-.48-.32-.64-.55v2.76h-1.31Zm2.58-3.16c.25,0,.48-.06.67-.17s.35-.28.46-.49c.11-.21.17-.45.17-.73s-.06-.53-.17-.75c-.11-.22-.27-.38-.46-.5s-.42-.18-.67-.18-.48.06-.67.18c-.2.12-.35.29-.46.5-.11.21-.16.46-.16.75s.05.52.16.73c.11.21.26.38.46.49.2.12.42.18.67.18Z" class="content-fill" stroke-width="0" />
		<path d="m139.69,26.08c-.49,0-.92-.11-1.3-.32s-.67-.51-.88-.89-.31-.81-.31-1.3.1-.96.31-1.35c.21-.39.5-.69.88-.92.37-.23.81-.34,1.31-.34s.91.11,1.27.32c.36.21.64.5.84.86s.3.77.3,1.24c0,.06,0,.14,0,.22,0,.08,0,.16-.01.25h-3.95v-.8h2.65c-.02-.3-.13-.55-.33-.74-.2-.19-.45-.28-.75-.28-.23,0-.43.05-.62.16s-.33.26-.44.46c-.11.2-.17.46-.17.77v.28c0,.26.05.5.15.69.1.2.24.35.42.46.18.11.39.17.63.17s.44-.05.6-.15c.15-.1.27-.23.35-.4h1.33c-.08.3-.23.58-.45.83-.22.25-.48.44-.79.58s-.65.21-1.03.21Z" class="content-fill" stroke-width="0" />
		<path d="m142.94,25.96v-4.88h1.16l.12.89c.12-.21.27-.39.45-.54.18-.15.38-.27.61-.35s.48-.12.76-.12v1.38h-.45c-.19,0-.37.02-.54.06-.17.04-.31.12-.43.22-.12.11-.22.25-.28.42-.06.17-.1.39-.1.65v2.26h-1.31Z" class="content-fill" stroke-width="0" />
	</g>
</svg>
