<?xml version="1.0" encoding="UTF-8"?>
<svg id="icon-dark" xmlns="http://www.w3.org/2000/svg" viewBox="0 0 146.04 28.09">
  <g>
    <path d="m6,25.92h-3.15c-1.16,0-2.1-.94-2.1-2.1v-8.84l-.53-.53c-.29-.29-.29-.77,0-1.06l.53-.53V4.01c0-1.16.94-2.1,2.1-2.1h3.15c.41,0,.75.34.75.75s-.34.75-.75.75h-3.15c-.33,0-.6.27-.6.6v9.15c0,.2-.08.39-.22.53l-.22.22.22.22c.14.14.22.33.22.53v9.15c0,.33.27.6.6.6h3.15c.41,0,.75.34.75.75s-.34.75-.75.75Z" fill="#4b5563" stroke-width="0"/>
    <path d="m21.15,25.92h-3.15c-.41,0-.75-.34-.75-.75s.34-.75.75-.75h3.15c.33,0,.6-.27.6-.6v-9.15c0-.2.08-.39.22-.53l.22-.22-.22-.22c-.14-.14-.22-.33-.22-.53V4.01c0-.33-.27-.6-.6-.6h-3.15c-.41,0-.75-.34-.75-.75s.34-.75.75-.75h3.15c1.16,0,2.1.94,2.1,2.1v8.84l.53.53c.29.29.29.77,0,1.06l-.53.53v8.84c0,1.16-.94,2.1-2.1,2.1Z" fill="#4b5563" stroke-width="0"/>
    <path d="m8.75,22.67c-.2,0-.39-.08-.53-.22L.22,14.45c-.29-.29-.29-.77,0-1.06l8-8c.29-.29.77-.29,1.06,0s.29.77,0,1.06L1.81,13.92l6.67,6.67,6.07-14.95c.09-.23.3-.4.55-.45.24-.05.5.03.68.2l8,8c.29.29.29.77,0,1.06l-8,8c-.29.29-.77.29-1.06,0s-.29-.77,0-1.06l7.47-7.47-6.67-6.67-6.07,14.95c-.09.23-.3.4-.55.45-.05.01-.1.02-.15.02Z" fill="#14b8a6" stroke-width="0"/>
  </g>
  <text transform="translate(29.3 16.14)" fill="#0f172a" font-family="Poppins-Bold, Poppins" font-size="20" font-weight="700"><tspan x="0" y="0" letter-spacing="-.03em">S</tspan><tspan x="11.76" y="0" letter-spacing="-.03em">a</tspan><tspan x="24.76" y="0" letter-spacing="-.03em">m </tspan><tspan x="49.17" y="0" letter-spacing="-.04em">R</tspan><tspan x="61.44" y="0" letter-spacing="-.03em">a</tspan><tspan x="74.43" y="0" letter-spacing="-.03em">n</tspan><tspan x="87.35" y="0" letter-spacing="-.03em">k</tspan><tspan x="99.08" y="0" letter-spacing="-.03em">i</tspan><tspan x="104.38" y="0" letter-spacing="-.03em">n</tspan></text>
  <text transform="translate(30.55 25.92)" fill="#475569" font-family="DMSans-Bold, &apos;DM Sans&apos;" font-size="9.69" font-variation-settings="&apos;opsz&apos; 14, &apos;wght&apos; 700" font-weight="700"><tspan x="0" y="0" letter-spacing="-.06em">F</tspan><tspan x="4.84" y="0" letter-spacing="-.03em">ul</tspan><tspan x="12.87" y="0" letter-spacing="-.04em">l</tspan><tspan x="15.05" y="0" letter-spacing="-.05em">-</tspan><tspan x="20.17" y="0" letter-spacing="-.04em">s</tspan><tspan x="24.96" y="0" letter-spacing="-.04em">t</tspan><tspan x="28.81" y="0" letter-spacing="-.03em">a</tspan><tspan x="34.2" y="0" letter-spacing="-.03em">c</tspan><tspan x="39.76" y="0" letter-spacing="-.04em">k </tspan><tspan x="46.84" y="0" letter-spacing="-.06em">W</tspan><tspan x="56.08" y="0" letter-spacing="-.03em">e</tspan><tspan x="61.67" y="0" letter-spacing="-.04em">b </tspan><tspan x="69.5" y="0" letter-spacing="-.03em">D</tspan><tspan x="76.08" y="0" letter-spacing="-.04em">e</tspan><tspan x="81.48" y="0" letter-spacing="-.05em">v</tspan><tspan x="86.48" y="0" letter-spacing="-.03em">e</tspan><tspan x="92.07" y="0" letter-spacing="-.03em">l</tspan><tspan x="94.39" y="0" letter-spacing="-.03em">o</tspan><tspan x="100.03" y="0" letter-spacing="-.03em">p</tspan><tspan x="106.08" y="0" letter-spacing="-.03em">e</tspan><tspan x="111.67" y="0" letter-spacing="-.04em">r</tspan></text>
</svg>