<?xml version="1.0" encoding="UTF-8"?>
<svg xmlns="http://www.w3.org/2000/svg" xmlns:xlink="http://www.w3.org/1999/xlink" viewBox="0 0 321.1 293.37">
  <defs>
    <filter id="outer-glow-1" filterUnits="userSpaceOnUse">
      <feOffset dx="0" dy="0"/>
      <feGaussianBlur result="blur" stdDeviation="5"/>
      <feFlood flood-color="#374151" flood-opacity="1"/>
      <feComposite in2="blur" operator="in"/>
      <feComposite in="SourceGraphic"/>
    </filter>
  </defs>
  <g isolation="isolate">
    <g id="Layer_28" data-name="Layer 28">
      <g>
        <g>
          <g>
            <polygon points="136.39 81.97 59.3 199.35 47.78 191.81 124.88 74.42 132.15 75.91 136.39 81.97" fill="#41535b" fill-rule="evenodd" stroke-width="0"/>
            <polygon points="136.39 81.97 59.3 199.35 53.55 195.59 132.93 74.7 136.39 81.97" fill="#334650" fill-rule="evenodd" stroke-width="0"/>
            <path d="m124.88,74.42l24.16-24.24-12.59,31.65c-1.18.69-2.94,2.1-3.9,1.51-1.84-1.14,1.78-4.97-.73-6.65-2.44-1.6-4.75,3.19-6.47,2.07-1.58-1.03-.46-4.33-.46-4.33h0Z" fill="#f9d8c8" fill-rule="evenodd" stroke-width="0"/>
            <path d="m149.04,50.18l-12.59,31.65c-1.18.69-2.94,2.1-3.9,1.51-1.84-1.14,1.78-4.97-.73-6.65l-.13-.07,17.36-26.44Z" fill="#dfbba9" fill-rule="evenodd" stroke-width="0"/>
            <polygon points="141.7 57.54 149.04 50.18 145.19 59.84 141.7 57.54" fill="#444342" fill-rule="evenodd" stroke-width="0"/>
            <polygon points="116.51 62.85 58.46 190.75 45.95 185.07 103.99 57.17 111.37 57.54 116.51 62.85" fill="#41535b" fill-rule="evenodd" stroke-width="0"/>
            <polygon points="116.51 62.85 58.46 190.75 52.2 187.9 111.97 56.21 116.51 62.85" fill="#334650" fill-rule="evenodd" stroke-width="0"/>
            <path d="m103.99,57.17l20.11-27.68-7.56,33.21c-1.05.87-2.59,2.53-3.6,2.1-1.99-.83.98-5.2-1.77-6.44-2.65-1.23-4.18,3.87-6.06,3.03-1.71-.75-1.12-4.21-1.12-4.21h0Z" fill="#f9d8c8" fill-rule="evenodd" stroke-width="0"/>
            <path d="m124.1,29.49l-7.56,33.21c-1.05.87-2.59,2.53-3.6,2.1-1.99-.83.98-5.2-1.77-6.44l-.13-.07,13.07-28.8Z" fill="#dfbba9" fill-rule="evenodd" stroke-width="0"/>
            <polygon points="117.98 37.91 124.1 29.49 121.8 39.64 117.98 37.91" fill="#444342" fill-rule="evenodd" stroke-width="0"/>
            <path d="m81.41,43.36l-9.28-.91,2.18-22.3c.06-.67.35-1.28.84-1.71l1.71-.59,4.67.48c1.27.13,2.2,1.36,2.06,2.74l-2.18,22.29Z" fill="#b3b3b3" fill-rule="evenodd" stroke-width="0"/>
            <path d="m87.65,56.29l-24.1-2.39,1.91-19.79c.08-.87.48-1.67,1.09-2.22.62-.55,1.43-.83,2.23-.75l18.1,1.76c.81.09,1.53.5,2.03,1.18.51.66.75,1.54.66,2.4l-1.93,19.81Z" fill="#5d5a5a" fill-rule="evenodd" stroke-width="0"/>
            <polygon points="45.88 235.21 64.83 40.65 88.95 42.99 70.01 237.46 45.88 235.21" fill="#3b3839" fill-rule="evenodd" stroke-width="0"/>
            <polygon points="57.68 236.29 75.8 41.73 88.95 42.99 70.01 237.46 57.68 236.29" fill="#444342" fill-rule="evenodd" stroke-width="0"/>
            <polygon points="88.83 44.17 89.12 41.19 62.47 38.57 61.98 38.52 60.43 39.06 59.68 40.58 54.63 92.49 57.21 92.75 59.77 92.41 60.94 80.42 58.75 76.89 61.96 43.81 62.73 42.26 64.24 41.75 88.83 44.17" fill="#b3b3b3" fill-rule="evenodd" stroke-width="0"/>
            <polygon points="43.65 44.12 55.02 45.16 39.14 220.39 27.75 219.35 43.65 44.12" fill="#51bac5" fill-rule="evenodd" stroke-width="0"/>
            <polygon points="49.34 44.64 55.02 45.16 39.14 220.39 33.44 219.87 49.34 44.64" fill="#5bc0cf" fill-rule="evenodd" stroke-width="0"/>
            <path d="m55.09,55.09l1.14.11-.29,3.14-.94-.08h0l-4.23-.39-8.3-.75-3.48,38.37-1.02-.09c-.39-.4-.41-.19-.23-7.75.18-7.58.82-31.6,1.4-34.82,3.34-17.92,7.2-31.6,10.7-52.02.19-1.36,6.88-.94,6.84.62l-1.59,53.66Z" fill="#ed835c" fill-rule="evenodd" stroke-width="0"/>
          </g>
          <rect x="0" y="123.38" width="321.1" height="169.97" fill="#0d9488" stroke-width="0"/>
          <polygon points="197.04 293.37 166.91 293.34 0 293.34 0 224.48 37.18 163.66 145.69 189.54 187.14 124.04 215.6 259.39 211.12 274.6 197.04 293.37" fill="#0f766e" stroke-width="0"/>
          <polygon points="240.55 262.28 282.31 274.6 268.57 293.34 321.1 293.34 321.1 123.38 240.55 262.28" fill="#fff" fill-rule="evenodd" opacity=".1" stroke-width="0"/>
          <path d="m211.12,262.28h71.2c1.56,0,2.84,1.27,2.84,2.84v6.64c0,1.56-1.28,2.83-2.84,2.83h-71.2c-1.57,0-2.84-1.27-2.84-2.83v-6.64c0-1.57,1.27-2.84,2.84-2.84h0Z" fill="#0d9488" fill-rule="evenodd" stroke-width="0"/>
          <path d="m284.37,273.71c-.52.54-1.25.88-2.06.88h-71.2c-.85,0-1.61-.37-2.13-.96-.44-.5,75.39.08,75.39.08Z" fill="#0f766e" fill-rule="evenodd" stroke-width="0"/>
          <path d="m14.61,224.48h157.15c2.57,0,4.57,3.69,4.29,7.93l-2.88,44.33c-.24,3.64-2.09,6.39-4.29,6.39H17.49c-2.21,0-4.06-2.76-4.29-6.39l-2.88-44.33c-.28-4.23,1.72-7.93,4.29-7.93" fill="#0d9488" stroke-width="0"/>
          <g>
            <path d="m76.01,154.09h0c-45.85-12.96-58.84,49.4-24.04,70.39h17.66c-18.78-14.09-19.87-59.68,6.38-70.39" fill="#639a2e" stroke-width="0"/>
            <path d="m76.06,155.47c-.16,0-.3-.03-.45-.07.18.23.08.1-.01,0h0s.01.01.01.01h-.02s-.05-.01-.05-.01l-.1-.02-.2-.04-.41-.08-.82-.16-1.63-.32c-1.08-.26-2.2-.27-3.28-.42-.55-.05-1.09-.14-1.64-.16l-1.64-.02-1.63-.02c-.54.02-1.08.09-1.62.13-4.31.33-8.49,1.54-12.13,3.68-7.37,4.23-12.18,11.93-14.38,20.2-2.25,8.32-1.83,17.4,1.01,25.61,2.84,8.22,8.35,15.52,15.74,20.34h.01c.14.1.25.23.36.36h-5.49c-2.73-1.97-5.25-4.26-7.44-6.84-3.09-3.67-5.52-7.88-7.26-12.35-3.47-8.96-4.09-18.97-1.81-28.38,1.18-4.69,3.12-9.27,6.03-13.25,2.9-3.97,6.71-7.33,11.09-9.61,4.38-2.28,9.28-3.42,14.1-3.49.6,0,1.21-.05,1.8-.02l1.79.14,1.79.14c.59.06,1.17.2,1.76.29,1.16.25,2.35.36,3.48.74l1.7.48.85.24.42.12.21.06.11.03.05.02h.03c.16.21.08.11,0,0-.14-.18-.27-.36,1,1.26.03.75-.55,1.38-1.3,1.41" fill="#75aa3d" stroke-width="0"/>
            <path d="m49.7,221.88h3.85c-.98-.94-1.91-1.92-2.79-2.96-3.09-3.67-5.52-7.88-7.26-12.35-3.47-8.96-4.09-18.97-1.81-28.38,1.18-4.69,3.12-9.27,6.03-13.25,2.9-3.97,6.71-7.33,11.09-9.61.57-.3,1.15-.57,1.74-.83-3.6.51-7.06,1.65-10.13,3.46-7.37,4.23-12.18,11.93-14.38,20.2-2.25,8.32-1.83,17.4,1.01,25.61,2.43,7.03,6.81,13.39,12.66,18.1" fill="#467f1b" stroke-width="0"/>
            <path d="m47.66,224.48c-1.12-.81-2.19-1.68-3.23-2.6h5.27c-5.85-4.71-10.23-11.07-12.66-18.1-2.84-8.21-3.26-17.29-1.01-25.61,2.2-8.27,7.01-15.97,14.38-20.2,3.07-1.8,6.53-2.95,10.13-3.46,2.2-.97,4.51-1.67,6.86-2.11-.48-.55-.87-1.13-1.18-1.71l-.26-.02-1.79-.14c-.13,0-.27,0-.4,0-.47,0-.93.02-1.4.03-4.82.07-9.71,1.22-14.1,3.49-4.38,2.28-8.19,5.64-11.09,9.61-2.91,3.98-4.85,8.56-6.03,13.25-.9,3.71-1.35,7.52-1.35,11.32,0,5.83,1.06,11.64,3.16,17.06,1.74,4.47,4.17,8.68,7.26,12.35,2.19,2.58,4.71,4.87,7.44,6.84" fill="#548c25" stroke-width="0"/>
            <path d="m110.37,154.09h0c45.85-12.96,58.84,49.4,24.04,70.39h-17.65c18.78-14.09,19.87-59.68-6.38-70.39" fill="#639a2e" stroke-width="0"/>
            <path d="m138.72,224.48h-5.49c.1-.13.21-.25.36-.35h.01c7.39-4.83,12.9-12.13,15.74-20.35,2.84-8.21,3.26-17.29,1.01-25.61-2.2-8.27-7.01-15.97-14.38-20.2-3.64-2.14-7.82-3.34-12.13-3.68-.54-.04-1.08-.12-1.62-.13l-1.63.02-1.64.02c-.55.02-1.09.11-1.64.16-1.09.14-2.2.15-3.28.42l-1.63.32-.82.16-.41.08-.21.04-.1.02h-.05s-.03.01-.03.01v-.02s0,0,0,0c-.09.11-.18.23,0,0-.14.04-.29.08-.45.07-.75-.03-1.33-.66-1.3-1.41,1.27-1.62,1.14-1.44,1-1.26-.07.1-.15.2,0,0h.02s.05-.02.05-.02l.11-.03.21-.06.42-.12.85-.24,1.7-.48c1.12-.37,2.31-.49,3.47-.74.59-.1,1.17-.23,1.76-.29l1.79-.14,1.79-.14c.6-.02,1.2.02,1.81.02,4.82.07,9.71,1.22,14.09,3.49,4.38,2.28,8.19,5.64,11.09,9.61,2.91,3.98,4.85,8.56,6.03,13.25,2.28,9.41,1.66,19.42-1.81,28.38-1.74,4.47-4.17,8.68-7.26,12.35-2.19,2.58-4.71,4.87-7.44,6.84" fill="#75aa3d" stroke-width="0"/>
            <path d="m131.11,221.88h5.57c5.84-4.71,10.23-11.07,12.66-18.1,2.84-8.21,3.26-17.29,1.01-25.61-2.2-8.27-7.01-15.97-14.38-20.2-2.08-1.22-4.34-2.14-6.7-2.76,3.53,2.2,6.62,5.11,9.07,8.45,2.91,3.98,4.85,8.56,6.03,13.25,2.28,9.41,1.66,19.42-1.81,28.38-1.74,4.47-4.17,8.68-7.26,12.35-1.29,1.52-2.69,2.94-4.18,4.25" fill="#76ab3b" stroke-width="0"/>
            <path d="m138.72,224.48c2.73-1.97,5.25-4.26,7.44-6.84,3.09-3.67,5.53-7.88,7.26-12.35,2.1-5.43,3.16-11.23,3.16-17.06,0-3.8-.45-7.61-1.35-11.32-1.18-4.69-3.12-9.27-6.03-13.25-2.9-3.97-6.71-7.33-11.09-9.61-4.38-2.28-9.28-3.42-14.09-3.49-.47,0-.94-.03-1.41-.03-.13,0-.27,0-.4,0l-1.79.14-.26.02c-.12.22-.24.44-.38.66,2.58.58,5.1,1.47,7.47,2.7.69.36,1.36.74,2.02,1.15,2.36.62,4.62,1.54,6.7,2.76,7.37,4.23,12.18,11.93,14.38,20.2,2.25,8.32,1.83,17.4-1.01,25.61-2.43,7.03-6.81,13.39-12.66,18.1h5.27c-1.04.91-2.11,1.79-3.23,2.6" fill="#85b949" stroke-width="0"/>
            <path d="m93.04,154.22h0s.04,0,.06,0c-.02,0-.04,0-.06,0-2.63-35.07,26.45-22.07,9.47-.02-2.91-.36-6.06-.37-9.47.03" fill="#ffc612" stroke-width="0"/>
            <path d="m107.52,143.99c10.16-9.61,19.82,4.47,8.17,11.01-1.75.29-3.55.68-5.41,1.2h0c-2.09-.85-4.38-1.47-6.82-1.85l-.5-.78c2.57-3.49,3.98-6.73,4.56-9.58" fill="#fdda30" stroke-width="0"/>
            <path d="m83.91,154.27c-17.1-22.09,12.05-35.15,9.43-.09-3.4-.36-6.54-.31-9.43.09" fill="#fdda30" stroke-width="0"/>
            <path d="m76.52,156.22s.03-.02.05-.02h0c-2.1-.6-4.13-1.03-6.08-1.31-13.46-7.81,2.59-25.89,13.94-2.89l-1.57,2.44c-2.27.39-4.38.99-6.34,1.79" fill="#ffc612" stroke-width="0"/>
            <path d="m93.5,150.73c2.02-.29,4.08-.47,6.16-.47,1.74,0,3.48.12,5.22.38.75-1.29,1.34-2.54,1.79-3.74-2.62-.68-5.47-1.04-8.55-1.04-1.53,0-3.11.09-4.76.27.12,1.41.17,2.94.14,4.59" fill="#ffb009" stroke-width="0"/>
            <path d="m116.12,154.75c3.89-2.35,5.2-5.57,4.83-8.34-3.3.12-6.83.66-10.57,1.72h0c-1.18-.48-2.41-.89-3.7-1.23-.45,1.2-1.04,2.45-1.79,3.74.26.04.51.08.76.13.12.02.23.04.35.06h0c3.54.66,7.01,1.98,10.13,3.91" fill="#fdc119" stroke-width="0"/>
            <path d="m92.89,150.83c-1.95-.28-3.94-.43-5.93-.43-1.09,0-2.19.05-3.28.14-.83-1.52-1.67-2.84-2.53-3.96,2.21-.46,4.58-.71,7.11-.71,1.58,0,3.22.09,4.92.29.06,0,.12-.01.18-.02.12,1.41.17,2.94.14,4.59-.19.03-.37.06-.56.08-.02,0-.04,0-.06.01m.21-4.66h0" fill="#fdc119" stroke-width="0"/>
            <path d="m70.4,154.83h-.01s0,0,.01,0m-.03-.02s0,0,0,0t0,0m-.02-.01s0,0,0,0c0,0,0,0,0,0m-.02-.01s0,0,0,0t0,0m-.02-.01s0,0,0,0c0,0,0,0,0,0" fill="#638918" stroke-width="0"/>
            <path d="m70.41,154.84c3.04-1.86,6.4-3.16,9.84-3.82,1.14-.22,2.28-.37,3.42-.47-.83-1.52-1.67-2.84-2.53-3.96-1.84.38-3.57.92-5.19,1.58.02,0,.03-.01.05-.02h0c-3.75-1.06-7.27-1.61-10.57-1.72-.37,2.77.95,6,4.86,8.35,0,0,0,0,0,0,0,0,.01,0,.02.01t0,0s.01,0,.02.01c0,0,0,0,0,0,0,0,.01,0,.02.01t0,0s.01,0,.02.01h.01s0,.01.01.01" fill="#ffb009" stroke-width="0"/>
            <path d="m116.76,224.48h-24.64c2.15-24.02-2.06-48.41.98-72.36,43.33-5.12,45.89,55.68,23.66,72.36" fill="#639a2e" stroke-width="0"/>
            <path d="m93.19,152.11s-.06,0-.09,0c-3.04,23.95,1.17,48.34-.98,72.36h-22.5c-22.22-16.67-19.67-77.39,23.57-72.37" fill="#639a2e" stroke-width="0"/>
            <path d="m126.17,216.64c-1.69,2.86-3.74,5.57-6.23,7.83h-3.97,0s.02-.02.02-.02c3.02-2.58,5.4-5.86,7.17-9.45,1.8-3.57,3.06-7.43,3.87-11.38,1.58-7.89,1.59-16.15-.27-23.89-.92-3.87-2.27-7.6-4.11-11.03-1.83-3.44-4.21-6.57-7.18-9.02-2.95-2.48-6.49-4.24-10.29-5.23-3.81-1-7.85-1.25-11.92-1.03h-.04c-.66.04-1.26-.44-1.36-1.11-.11-.72.38-1.39,1.09-1.5,4.25-.67,8.67-.8,13.04.02,4.36.81,8.61,2.63,12.23,5.33,3.62,2.7,6.61,6.2,8.85,10.07,2.23,3.88,3.71,8.11,4.6,12.41,1.72,8.61,1.49,17.49-.66,25.91-1.09,4.2-2.65,8.3-4.84,12.09" fill="#75aa3d" stroke-width="0"/>
            <path d="m112.72,221.88h5.88c1.82-2.06,3.34-4.39,4.57-6.87,1.8-3.57,3.06-7.43,3.87-11.38,1.58-7.89,1.59-16.15-.27-23.89-.92-3.87-2.27-7.6-4.11-11.03-1.83-3.44-4.21-6.57-7.18-9.02-2.59-2.17-5.63-3.8-8.9-4.83.66.41,1.3.85,1.92,1.31,3.62,2.7,6.61,6.2,8.85,10.07,2.23,3.88,3.71,8.11,4.6,12.41,1.72,8.61,1.49,17.49-.66,25.91-1.09,4.2-2.65,8.3-4.84,12.09-1.08,1.84-2.32,3.61-3.72,5.24" fill="#76ab3b" stroke-width="0"/>
            <path d="m105.99,150.84c-.12-.02-.23-.04-.35-.06.12.02.23.04.35.06" fill="#fdcc27" stroke-width="0"/>
            <path d="m118.6,221.88h3.86c1.4-1.63,2.63-3.4,3.71-5.24,2.19-3.79,3.75-7.89,4.84-12.09,1.2-4.7,1.8-9.55,1.79-14.41,0-3.84-.38-7.7-1.14-11.5-.9-4.3-2.37-8.53-4.6-12.41-2.24-3.87-5.23-7.37-8.85-10.07-3.63-2.69-7.87-4.52-12.23-5.33h0c-.12-.02-.23-.04-.35-.06-1.99-.35-3.99-.51-5.97-.51-1.68,0-3.36.11-5.02.31.53.07,1.07.16,1.6.26,3.61.67,7.14,2.04,10.31,4.02,3.27,1.03,6.31,2.66,8.9,4.83,2.98,2.45,5.36,5.58,7.18,9.02,1.84,3.43,3.2,7.17,4.11,11.03,1.86,7.74,1.85,16,.27,23.89-.8,3.95-2.06,7.8-3.87,11.38-1.23,2.48-2.75,4.81-4.57,6.87" fill="#85b949" stroke-width="0"/>
            <path d="m92.99,153.37h-.04c-4.06-.24-8.12-.04-11.94.98-3.82.98-7.38,2.75-10.35,5.25-5.99,4.98-9.58,12.45-11.11,20.21-.79,3.89-1.15,7.88-1.17,11.88-.03,4,.32,8.02,1.13,11.94.8,3.93,2.06,7.76,3.83,11.33,1.78,3.55,4.1,6.84,7.09,9.42l.03.02s.04.06.07.08h-4.3c-2.46-2.23-4.51-4.9-6.18-7.74-2.22-3.78-3.79-7.89-4.9-12.1-2.16-8.42-2.55-17.36-.52-25.92,1.01-4.27,2.55-8.44,4.77-12.29,2.21-3.84,5.11-7.37,8.72-10.05,3.58-2.7,7.79-4.53,12.12-5.37,4.34-.82,8.74-.77,12.99-.13.63.1,1.1.66,1.06,1.31-.04.69-.63,1.22-1.32,1.18" fill="#75aa3d" stroke-width="0"/>
            <path d="m67.94,221.88h5.3c-1.38-1.6-2.59-3.34-3.65-5.14-2.22-3.78-3.79-7.89-4.9-12.1-2.16-8.42-2.55-17.36-.52-25.92,1.01-4.27,2.55-8.44,4.77-12.29,2.21-3.84,5.12-7.37,8.72-10.05.92-.69,1.89-1.33,2.88-1.91-3.64,1-7.03,2.73-9.87,5.12-5.99,4.98-9.58,12.45-11.11,20.21-.79,3.89-1.15,7.88-1.17,11.88-.03,4,.32,8.02,1.13,11.94.8,3.93,2.06,7.76,3.83,11.33,1.25,2.49,2.76,4.86,4.59,6.94" fill="#467f1b" stroke-width="0"/>
            <path d="m63.72,221.88h4.22c-1.83-2.08-3.34-4.44-4.59-6.94-1.78-3.56-3.04-7.4-3.83-11.33-.82-3.92-1.16-7.94-1.13-11.94.02-4,.38-7.99,1.17-11.88,1.53-7.76,5.12-15.22,11.11-20.21,2.85-2.39,6.23-4.12,9.87-5.12,2.87-1.66,6.02-2.84,9.23-3.46.69-.13,1.37-.23,2.06-.32-1.61-.19-3.25-.29-4.89-.29-2.23,0-4.46.19-6.69.61-4.33.84-8.53,2.67-12.12,5.37-3.61,2.68-6.52,6.21-8.72,10.05-2.22,3.85-3.76,8.03-4.77,12.29-.9,3.81-1.32,7.7-1.33,11.58,0,4.84.65,9.67,1.85,14.33,1.11,4.2,2.68,8.31,4.9,12.1,1.06,1.81,2.28,3.54,3.65,5.14" fill="#548c25" stroke-width="0"/>
            <path d="m93.62,224.48h-2.85c.09-5.78,0-11.56-.26-17.34-.12-3.04-.3-6.07-.46-9.12-.15-3.04-.24-6.1-.31-9.16-.08-6.12-.2-12.28.04-18.45.22-6.17.71-12.36,1.76-18.48.14-.78.7-.74,1.51-.68.86.07,1.65.21,1.58,1.07-.47,6.03-.59,12.08-.5,18.13.1,6.06.34,12.14.66,18.24.14,3.05.25,6.11.29,9.18.01,3.07-.04,6.15-.1,9.23-.18,5.79-.52,11.61-1.36,17.38" fill="#75aa3d" stroke-width="0"/>
            <path d="m93.97,221.88h4.01c5.03-17.42-3.35-50.61-3.41-68.37-.4,5.63-.51,11.28-.43,16.94h0c.1,6.06.34,12.14.66,18.24.14,3.05.25,6.11.29,9.18,0,.34,0,.67,0,1.01,0,2.74-.05,5.48-.1,8.22-.15,4.93-.42,9.87-1.02,14.78" fill="#80b542" stroke-width="0"/>
            <path d="m88.49,221.88h2.31c0-.63,0-1.25,0-1.88,0-4.29-.1-8.58-.29-12.87-.12-3.04-.3-6.07-.46-9.12-.15-3.04-.24-6.1-.31-9.16-.05-3.44-.1-6.9-.1-10.36,0-2.69.04-5.39.14-8.09h0s0-.09,0-.14c.21-5.64.64-11.29,1.52-16.88-4.54,20.23-5.48,54.11-2.82,68.5" fill="#467f1b" stroke-width="0"/>
            <path d="m90.8,221.88c0-.63,0-1.25,0-1.88,0,.63,0,1.25,0,1.88h0m-1.15-43.39c0-2.69.04-5.39.14-8.09h0c-.1,2.7-.14,5.4-.14,8.09m.14-8.23c.21-5.64.64-11.29,1.52-16.88,0,0,0,0,0-.01h.02c-.88,5.6-1.34,11.25-1.54,16.89" fill="#548c25" stroke-width="0"/>
            <path d="m56.52,224.48h9.73c-.89-.81-1.73-1.68-2.52-2.6h-10.17c.95.91,1.94,1.77,2.96,2.6" fill="#518922" stroke-width="0"/>
            <path d="m53.15,224.48h3.36c-1.02-.82-2.01-1.69-2.96-2.6h-3.85c.99.8,2.01,1.54,3.08,2.24h.01c.14.1.25.23.36.36" fill="#397114" stroke-width="0"/>
            <path d="m47.66,224.48h5.49c-.1-.13-.21-.25-.36-.35h-.01c-1.07-.71-2.1-1.45-3.08-2.25h-5.27c1.04.91,2.11,1.79,3.23,2.6h0" fill="#457d1c" stroke-width="0"/>
            <path d="m119.95,224.48h7.91c1.12-.81,2.21-1.68,3.25-2.6h-8.65c-.78.91-1.62,1.78-2.51,2.6" fill="#518922" stroke-width="0"/>
            <path d="m127.85,224.48h5.38c.1-.13.21-.25.36-.35h.01c1.07-.7,2.09-1.45,3.08-2.25h-5.57c-1.04.92-2.13,1.78-3.25,2.6" fill="#61982c" stroke-width="0"/>
            <path d="m133.23,224.48h5.49c1.12-.81,2.19-1.68,3.23-2.6h-5.27c-.99.8-2.01,1.54-3.08,2.24h-.01c-.15.1-.25.23-.36.36h0" fill="#6da537" stroke-width="0"/>
            <path d="m97.08,224.48h13.14c.89-.81,1.73-1.68,2.51-2.6h-14.75c-.26.91-.56,1.78-.9,2.6" fill="#518922" stroke-width="0"/>
            <path d="m75.76,224.48h13.31c-.21-.77-.4-1.64-.58-2.6h-15.25c.79.91,1.63,1.78,2.52,2.6" fill="#518922" stroke-width="0"/>
            <path d="m110.21,224.48h5.76s0,0,0,0l.02-.02c.93-.8,1.8-1.66,2.6-2.57h-5.88c-.78.91-1.62,1.78-2.51,2.6" fill="#61982c" stroke-width="0"/>
            <path d="m115.97,224.48h3.97c.89-.81,1.73-1.68,2.51-2.6h-3.86c-.81.91-1.68,1.78-2.6,2.57l-.02.02h0" fill="#6da537" stroke-width="0"/>
            <path d="m70.54,224.48h5.22c-.9-.81-1.73-1.68-2.52-2.6h-5.3c.78.88,1.61,1.72,2.5,2.49l.03.02s.04.06.07.08" fill="#397114" stroke-width="0"/>
            <path d="m66.25,224.48h4.3s-.04-.06-.07-.08l-.03-.02c-.89-.77-1.73-1.6-2.5-2.49h-4.22c.79.91,1.63,1.78,2.52,2.6h0" fill="#457d1c" stroke-width="0"/>
            <path d="m90.78,224.48h2.85c.13-.86.24-1.73.35-2.6h-3.17c0,.87-.01,1.73-.03,2.6" fill="#60972e" stroke-width="0"/>
            <path d="m93.62,224.48h3.45c.34-.82.64-1.69.9-2.6h-4.01c-.1.87-.22,1.73-.35,2.6" fill="#69a132" stroke-width="0"/>
            <path d="m89.07,224.48h1.7c.01-.87.02-1.73.03-2.6h-2.31c.18.95.37,1.82.58,2.6" fill="#397114" stroke-width="0"/>
            <polyline points="47.66 224.48 51.97 224.48 53.15 224.48 56.52 224.48 66.25 224.48 69.62 224.48 70.54 224.48 75.76 224.48 89.07 224.48 90.78 224.48 92.12 224.48 93.62 224.48 97.08 224.48 110.21 224.48 115.97 224.48 116.76 224.48 119.95 224.48 127.85 224.48 133.23 224.48 134.41 224.48 138.72 224.48 138.72 224.48 47.66 224.48 47.66 224.48" fill="#835924" stroke-width="0"/>
          </g>
          <path d="m160.4,276.33c1.92,0,3.57-2.59,3.79-6.09l1.89-31.4c.23-3.74-1.29-7.11-3.38-7.51-.14-.03-.28-.04-.42-.04-1.91,0-3.57,2.6-3.78,6.09l-1.89,31.4c-.23,3.74,1.29,7.11,3.38,7.51.14.03.28.04.41.04" fill="#14b8a6" stroke-width="0"/>
          <path d="m17.49,283.13h6.08c-2.21,0-4.06-2.76-4.29-6.39l-2.88-44.33c-.27-4.23,1.73-7.93,4.29-7.93h-6.08c-2.41,0-4.32,3.25-4.32,7.14,0,.26,0,.52.02.79l2.88,44.33c.24,3.64,2.09,6.39,4.29,6.39" fill="#115e59" stroke-width="0"/>
          <path d="m296.33,241.66c0,8.97-7.36,16.26-16.4,16.26h-71.47c-9.04,0-16.4-7.3-16.4-16.26V51.32c0-8.97,7.36-16.26,16.4-16.26h71.47c9.04,0,16.4,7.3,16.4,16.26v190.34Z" fill="#030712" stroke-width="0"/>
          <path d="m296.33,241.66c0,8.97-7.36,16.26-16.4,16.26h-71.47c-9.04,0-16.4-7.3-16.4-16.26V51.32c0-8.97,7.36-16.26,16.4-16.26h71.47c9.04,0,16.4,7.3,16.4,16.26v190.34Z" fill="#030712" stroke-width="0"/>
          <path d="m296.33,241.66c0,8.97-7.36,16.26-16.4,16.26h-71.47c-9.04,0-16.4-7.3-16.4-16.26V51.32c0-8.97,7.36-16.26,16.4-16.26h71.47c9.04,0,16.4,7.3,16.4,16.26v190.34Z" fill="#030712" stroke-width="0"/>
          <g>
            <path d="m279.93,31.49h-71.47c-11.04,0-19.99,8.88-19.99,19.83v190.34c0,10.95,8.95,19.83,19.99,19.83h71.47c11.04,0,19.99-8.88,19.99-19.83V51.32c0-10.95-8.95-19.83-19.99-19.83Zm16.4,210.17c0,8.97-7.36,16.26-16.4,16.26h-71.47c-9.04,0-16.4-7.3-16.4-16.26V51.32c0-8.97,7.36-16.26,16.4-16.26h71.47c9.04,0,16.4,7.3,16.4,16.26v190.34Z" fill="#020617" stroke-width="0"/>
            <path d="m279.92,31.5c11.04,0,19.99,8.88,19.99,19.83v190.33c0,10.95-8.95,19.83-19.99,19.83h-71.46c-11.04,0-19.99-8.88-19.99-19.83V51.32c0-10.95,8.95-19.83,19.99-19.83h71.46m0-.89h-71.46c-11.52,0-20.89,9.29-20.89,20.72v190.33c0,11.42,9.37,20.72,20.89,20.72h71.46c11.52,0,20.89-9.29,20.89-20.72V51.32c0-11.42-9.37-20.72-20.89-20.72h0Z" fill="#94a3b8" stroke-width="0"/>
            <path d="m296.33,241.66c0,8.97-7.36,16.26-16.4,16.26h-71.47c-9.04,0-16.4-7.3-16.4-16.26V51.32c0-8.97,7.36-16.26,16.4-16.26h71.47c9.04,0,16.4,7.3,16.4,16.26v190.34Z" fill="none" stroke-width="0"/>
            <path d="m192.06,241.66c0,8.97,7.36,16.26,16.4,16.26h71.47c9.04,0,16.4-7.3,16.4-16.26V62.74h-104.27v178.92Z" fill="#374151" filter="url(#outer-glow-1)" stroke-width="0"/>
            <path d="m187.11,72.92h.47v12.38h-.47c-.23,0-.41-.19-.41-.41v-11.56c0-.23.19-.41.41-.41Z" fill="#64748b" stroke-width="0"/>
            <path d="m187.15,91.37h.43v19.46h-.43c-.25,0-.45-.2-.45-.45v-18.56c0-.25.2-.45.45-.45Z" fill="#64748b" stroke-width="0"/>
            <path d="m187.15,114.3h.43v19.46h-.43c-.25,0-.45-.2-.45-.45v-18.56c0-.25.2-.45.45-.45Z" fill="#64748b" stroke-width="0"/>
          </g>
        </g>
        <path d="m197.04,293.37l.02-.02h124.04V123.38h-20.29V51.32c0-11.42-9.37-20.72-20.89-20.72h-71.46c-11.52,0-20.89,9.29-20.89,20.72v21.6h-.47c-.23,0-.41.19-.41.41v11.56c0,.23.19.41.41.41h.47v6.06h-.43c-.25,0-.45.2-.45.45v18.56c0,.25.2.45.45.45h.43v3.47h-.43c-.25,0-.45.2-.45.45v8.62h-77.5l27.19-41.41-.04-.09s.07-.04.1-.06l12.59-31.65-7.34,7.36h0s-16.82,16.88-16.82,16.88l-32.15,48.96h-3.69l27.47-60.52-.06-.09s.06-.05.08-.07l5.25-23.06h.01s2.3-10.14,2.3-10.14l-6.11,8.41h0s-14,19.27-14,19.27l-20.9,46.06,5.87-60.24h0s.64-6.51.64-6.51c.09-.86-.15-1.74-.66-2.4-.51-.69-1.23-1.09-2.03-1.18l-4.41-.43,1.11-11.4c.14-1.38-.78-2.61-2.06-2.74l-4.67-.48-1.71.59c-.49.43-.79,1.04-.84,1.71l-1.12,11.42-4.41-.43c-.81-.08-1.61.2-2.23.75-.62.55-1.02,1.35-1.09,2.22l-.45,4.7-2.53-.25-.5-.04-1.55.53-.75,1.53-5.05,51.91,2.59.25,2.55-.33,1.17-11.99-2.19-3.53,3.21-33.09.77-1.55,1.51-.51.47.05-.04.36-7.91,81.22h-8.84l5.91-65.21,1.16.11.94.08.29-3.14-1.14-.11,1.59-53.66c.03-1.56-6.66-1.98-6.84-.62-3.5,20.42-7.36,34.1-10.7,52.02-.59,3.22-1.23,27.24-1.4,34.82-.18,7.56-.15,7.35.23,7.75l1.02.09,3.48-38.37h0s-6.01,66.25-6.01,66.25H0v101.1H0v68.87h166.91l30.13.02Z" fill="#111827" mix-blend-mode="multiply" opacity=".49" stroke-width="0"/>
        <g>
          <path d="m279.92,30.88c11.04,0,19.99,8.88,19.99,19.83v190.33c0,10.95-8.95,19.83-19.99,19.83h-71.46c-11.04,0-19.99-8.88-19.99-19.83V50.71c0-10.95,8.95-19.83,19.99-19.83h71.46m0-.89h-71.46c-11.52,0-20.89,9.29-20.89,20.72v190.33c0,11.42,9.37,20.72,20.89,20.72h71.46c11.52,0,20.89-9.29,20.89-20.72V50.71c0-11.42-9.37-20.72-20.89-20.72h0Z" fill="#94a3b8" stroke-width="0"/>
          <path d="m279.93,30.87h-71.47c-11.04,0-19.99,8.88-19.99,19.83v190.34c0,10.95,8.95,19.83,19.99,19.83h71.47c11.04,0,19.99-8.88,19.99-19.83V50.7c0-10.95-8.95-19.83-19.99-19.83Zm16.4,210.17c0,8.97-7.36,16.26-16.4,16.26h-71.47c-9.04,0-16.4-7.3-16.4-16.26V50.7c0-8.97,7.36-16.26,16.4-16.26h71.47c9.04,0,16.4,7.3,16.4,16.26v190.34Z" fill="#020617" stroke-width="0"/>
          <path d="m279.93,30.87h-71.47c-11.04,0-19.99,8.88-19.99,19.83v190.34c0,10.95,8.95,19.83,19.99,19.83h71.47c11.04,0,19.99-8.88,19.99-19.83V50.7c0-10.95-8.95-19.83-19.99-19.83Z" fill="#020617" stroke-width="0"/>
          <path d="m296.33,241.04c0,8.97-7.36,16.26-16.4,16.26h-71.47c-9.04,0-16.4-7.3-16.4-16.26V50.7c0-8.97,7.36-16.26,16.4-16.26h71.47c9.04,0,16.4,7.3,16.4,16.26v190.34Z" fill="#020617" stroke-width="0"/>
          <path d="m296.33,241.04c0,8.97-7.36,16.26-16.4,16.26h-71.47c-9.04,0-16.4-7.3-16.4-16.26V50.7c0-8.97,7.36-16.26,16.4-16.26h71.47c9.04,0,16.4,7.3,16.4,16.26v190.34Z" fill="#fff" mix-blend-mode="lighten" opacity=".07" stroke-width="0"/>
          <path d="m187.11,72.31h.47v12.38h-.47c-.23,0-.41-.19-.41-.41v-11.56c0-.23.19-.41.41-.41Z" fill="#64748b" stroke-width="0"/>
          <path d="m187.15,90.75h.43v19.46h-.43c-.25,0-.45-.2-.45-.45v-18.56c0-.25.2-.45.45-.45Z" fill="#64748b" stroke-width="0"/>
          <path d="m187.15,113.69h.43v19.46h-.43c-.25,0-.45-.2-.45-.45v-18.56c0-.25.2-.45.45-.45Z" fill="#64748b" stroke-width="0"/>
          <rect x="226.84" y="36.91" width="33.83" height="11.05" rx="5.52" ry="5.52" fill="#020617" stroke-width="0"/>
          <path d="m255,41.11c.73,0,1.33.6,1.33,1.33s-.6,1.33-1.33,1.33-1.33-.6-1.33-1.33.6-1.33,1.33-1.33m0-2.21c-1.95,0-3.54,1.58-3.54,3.54s1.58,3.54,3.54,3.54,3.54-1.58,3.54-3.54-1.58-3.54-3.54-3.54h0Z" fill="#1e293b" stroke-width="0"/>
        </g>
      </g>
    </g>
  </g>
</svg>