<?xml version="1.0" encoding="UTF-8"?>
<svg id="light" xmlns="http://www.w3.org/2000/svg" xmlns:xlink="http://www.w3.org/1999/xlink" viewBox="0 0 2400 980">
  <defs>
    <clipPath id="clippath">
      <path d="m574.43,697.46c0,8.97-7.36,16.26-16.4,16.26h-71.47c-9.04,0-16.4-7.3-16.4-16.26v-190.34c0-8.97,7.36-16.26,16.4-16.26h71.47c9.04,0,16.4,7.3,16.4,16.26v190.34Z" fill="none" stroke-width="0"/>
    </clipPath>
  </defs>
  <g id="desk">
    <polygon points="1556.31 854.54 843.69 854.54 126.87 854.54 126.87 980 843.69 980 1556.31 980 2273.13 980 2273.13 854.54 1556.31 854.54" fill="#4b5563" fill-rule="evenodd" stroke-width="0"/>
    <rect x="-.18" y="749.25" width="2400.36" height="45.68" fill="#ffbe47" stroke-width="0"/>
    <rect x="-.18" y="782.24" width="2400.18" height="12.68" fill="#fca400" stroke-width="0"/>
    <rect x="50" y="795.03" width="76.87" height="184.97" fill="#1f2937" stroke-width="0"/>
    <polygon points="50 794.93 126.87 794.93 50 851.45 50 794.93" fill="#090607" fill-rule="evenodd" stroke="#221814" stroke-miterlimit="10" stroke-width=".48"/>
    <path d="m148.1,896.24c3.27,0,5.94-2.66,5.94-5.93s-2.66-5.94-5.94-5.94-5.93,2.66-5.93,5.94,2.66,5.93,5.93,5.93h0Z" fill="#eee" fill-rule="evenodd" stroke-width="0"/>
    <path d="m148.1,923.19c3.27,0,5.94-2.66,5.94-5.93s-2.66-5.94-5.94-5.94-5.93,2.66-5.93,5.94,2.66,5.93,5.93,5.93h0Z" fill="#eee" fill-rule="evenodd" stroke-width="0"/>
    <path d="m148.1,950.15c3.27,0,5.94-2.66,5.94-5.94s-2.66-5.93-5.94-5.93-5.93,2.66-5.93,5.93,2.66,5.94,5.93,5.94h0Z" fill="#eee" fill-rule="evenodd" stroke-width="0"/>
    <rect x="2273.13" y="795.03" width="76.87" height="184.97" fill="#1f2937" stroke-width="0"/>
    <polygon points="2273.13 796.19 2350 796.19 2273.13 852.71 2273.13 796.19" fill="#090607" fill-rule="evenodd" stroke="#221814" stroke-miterlimit="10" stroke-width=".48"/>
    <path d="m2251.9,896.24c-3.27,0-5.94-2.66-5.94-5.93s2.66-5.94,5.94-5.94,5.93,2.66,5.93,5.94-2.66,5.93-5.93,5.93h0Z" fill="#eee" fill-rule="evenodd" stroke-width="0"/>
    <path d="m2251.9,923.19c-3.27,0-5.94-2.66-5.94-5.93s2.66-5.94,5.94-5.94,5.93,2.66,5.93,5.94-2.66,5.93-5.93,5.93h0Z" fill="#eee" fill-rule="evenodd" stroke-width="0"/>
    <path d="m2251.9,950.15c-3.27,0-5.94-2.66-5.94-5.94s2.66-5.93,5.94-5.93,5.93,2.66,5.93,5.93-2.66,5.94-5.93,5.94h0Z" fill="#eee" fill-rule="evenodd" stroke-width="0"/>
  </g>
  <g id="pencil-cup">
    <g id="pencils-pens">
      <g id="pencil-2">
        <polygon points="414.49 537.77 337.4 655.16 325.88 647.62 402.99 530.22 410.25 531.72 414.49 537.77" fill="#41535b" fill-rule="evenodd" stroke-width="0"/>
        <polygon points="414.49 537.77 337.4 655.16 331.65 651.4 411.03 530.51 414.49 537.77" fill="#334650" fill-rule="evenodd" stroke-width="0"/>
        <path d="m402.99,530.22l24.16-24.24-12.59,31.65c-1.18.69-2.94,2.1-3.9,1.51-1.84-1.14,1.78-4.97-.73-6.65-2.44-1.6-4.75,3.19-6.47,2.07-1.58-1.03-.46-4.33-.46-4.33h0Z" fill="#f9d8c8" fill-rule="evenodd" stroke-width="0"/>
        <path d="m427.14,505.98l-12.59,31.65c-1.18.69-2.94,2.1-3.9,1.51-1.84-1.14,1.78-4.97-.73-6.65l-.13-.07,17.36-26.44Z" fill="#dfbba9" fill-rule="evenodd" stroke-width="0"/>
        <polygon points="419.8 513.35 427.14 505.98 423.29 515.64 419.8 513.35" fill="#444342" fill-rule="evenodd" stroke-width="0"/>
      </g>
      <g id="pencil-1">
        <polygon points="394.62 518.66 336.56 646.56 324.05 640.88 382.09 512.98 389.48 513.35 394.62 518.66" fill="#41535b" fill-rule="evenodd" stroke-width="0"/>
        <polygon points="394.62 518.66 336.56 646.56 330.31 643.71 390.07 512.02 394.62 518.66" fill="#334650" fill-rule="evenodd" stroke-width="0"/>
        <path d="m382.09,512.98l20.11-27.68-7.56,33.21c-1.05.87-2.59,2.53-3.6,2.1-1.99-.83.98-5.2-1.77-6.44-2.65-1.23-4.18,3.87-6.06,3.03-1.71-.75-1.12-4.21-1.12-4.21h0Z" fill="#f9d8c8" fill-rule="evenodd" stroke-width="0"/>
        <path d="m402.2,485.3l-7.56,33.21c-1.05.87-2.59,2.53-3.6,2.1-1.99-.83.98-5.2-1.77-6.44l-.13-.07,13.07-28.8Z" fill="#dfbba9" fill-rule="evenodd" stroke-width="0"/>
        <polygon points="396.09 493.71 402.2 485.3 399.9 495.45 396.09 493.71" fill="#444342" fill-rule="evenodd" stroke-width="0"/>
      </g>
      <g id="click-pen">
        <path d="m359.51,499.16l-9.28-.91,2.18-22.3c.06-.67.35-1.28.84-1.71l1.71-.59,4.67.48c1.27.13,2.2,1.36,2.06,2.74l-2.18,22.29Z" fill="#b3b3b3" fill-rule="evenodd" stroke-width="0"/>
        <path d="m365.75,512.1l-24.1-2.39,1.91-19.79c.08-.87.48-1.67,1.09-2.22.62-.55,1.43-.83,2.23-.75l18.1,1.76c.81.09,1.53.5,2.03,1.18.51.66.75,1.54.66,2.4l-1.93,19.81Z" fill="#5d5a5a" fill-rule="evenodd" stroke-width="0"/>
        <polygon points="323.98 691.02 342.93 496.45 367.05 498.8 348.12 693.26 323.98 691.02" fill="#3b3839" fill-rule="evenodd" stroke-width="0"/>
        <polygon points="335.78 692.1 353.9 497.54 367.05 498.8 348.12 693.26 335.78 692.1" fill="#444342" fill-rule="evenodd" stroke-width="0"/>
        <polygon points="366.93 499.98 367.22 497 340.58 494.38 340.08 494.33 338.53 494.86 337.78 496.39 332.73 548.3 335.31 548.55 337.87 548.22 339.04 536.23 336.85 532.7 340.06 499.62 340.83 498.07 342.35 497.56 366.93 499.98" fill="#b3b3b3" fill-rule="evenodd" stroke-width="0"/>
      </g>
      <g id="cap-pen">
        <polygon points="321.75 499.93 333.13 500.96 317.24 676.19 305.85 675.16 321.75 499.93" fill="#51bac5" fill-rule="evenodd" stroke-width="0"/>
        <polygon points="327.44 500.45 333.13 500.96 317.24 676.19 311.54 675.68 327.44 500.45" fill="#5bc0cf" fill-rule="evenodd" stroke-width="0"/>
        <path d="m333.19,510.9l1.14.11-.29,3.14-.94-.08h0l-4.23-.39-8.3-.75-3.48,38.37-1.02-.09c-.39-.4-.41-.19-.23-7.75.18-7.58.82-31.6,1.4-34.82,3.34-17.92,7.2-31.6,10.7-52.02.19-1.36,6.88-.94,6.84.62l-1.59,53.66Z" fill="#ed835c" fill-rule="evenodd" stroke-width="0"/>
      </g>
    </g>
    <g id="Layer_23" data-name="Layer 23">
      <rect x="278.1" y="579.18" width="321.1" height="169.97" fill="#0d9488" stroke-width="0"/>
      <polygon points="475.14 749.18 445.01 749.15 278.1 749.15 278.1 680.28 315.28 619.46 423.79 645.35 465.24 579.84 493.7 715.2 489.22 730.4 475.14 749.18" fill="#0f766e" stroke-width="0"/>
      <polygon points="518.65 718.09 560.42 730.4 546.67 749.15 599.2 749.15 599.2 579.18 518.65 718.09" fill="#fff" fill-rule="evenodd" opacity=".1" stroke-width="0"/>
      <path d="m489.22,718.09h71.2c1.56,0,2.84,1.27,2.84,2.84v6.64c0,1.56-1.28,2.83-2.84,2.83h-71.2c-1.57,0-2.84-1.27-2.84-2.83v-6.64c0-1.57,1.27-2.84,2.84-2.84h0Z" fill="#0d9488" fill-rule="evenodd" stroke-width="0"/>
      <path d="m562.47,729.52c-.52.54-1.25.88-2.06.88h-71.2c-.85,0-1.61-.37-2.13-.96-.44-.5,75.39.08,75.39.08Z" fill="#0f766e" fill-rule="evenodd" stroke-width="0"/>
    </g>
    <g id="phone">
      <g id="screen">
        <g clip-path="url(#clippath)">
          <rect x="470.16" y="518.55" width="104.27" height="208.38" fill="#e2e8f0" stroke-width="0"/>
          <rect x="470.16" y="518.25" width="104.27" height="20.85" fill="#14b8a6" stroke-width="0"/>
          <rect x="475.37" y="522.42" width="36.49" height="12.51" fill="#fff" opacity=".79" stroke-width="0"/>
          <g opacity=".79">
            <rect x="558.79" y="524.5" width="10.43" height="1.04" fill="#fff" stroke-width="0"/>
            <rect x="558.79" y="528.15" width="10.43" height="1.04" fill="#fff" stroke-width="0"/>
            <rect x="558.79" y="531.8" width="10.43" height="1.04" fill="#fff" stroke-width="0"/>
          </g>
          <rect x="470.16" y="490.84" width="104.27" height="27.41" fill="#e2e8f0" stroke-width="0"/>
          <rect x="475.37" y="507.82" width="93.84" height="8.15" rx="1.58" ry="1.58" fill="#fff" stroke-width="0"/>
          <polygon points="569.22 566.82 475.37 566.82 475.37 547.88 569.22 547.88 569.22 566.82 569.22 566.82" fill="#64748b" stroke-width="0"/>
          <polygon points="566.97 591.05 477.62 591.05 477.62 572.1 566.97 572.1 566.97 591.05 566.97 591.05" fill="#64748b" stroke-width="0"/>
          <polygon points="569.22 751.62 475.37 751.62 475.37 600.98 569.22 600.98 569.22 751.62 569.22 751.62" fill="#fbfffa" stroke-width="0"/>
          <polygon points="508.47 738.5 480.95 738.5 480.95 710.98 508.47 710.98 508.47 738.5 508.47 738.5" fill="#64748b" stroke-width="0"/>
          <polygon points="563.87 722.33 516.07 722.33 516.07 710.98 563.87 710.98 563.87 722.33 563.87 722.33" fill="#cbd5e1" stroke-width="0"/>
          <polygon points="536.54 738.52 516.07 738.52 516.07 727.18 536.54 727.18 536.54 738.52 536.54 738.52" fill="#cbd5e1" stroke-width="0"/>
          <g>
            <path d="m480.95,613.96h83.28v84.18h-83.28v-84.18Z" fill="#255cc0" stroke-width="0"/>
            <path d="m529.99,659.64l-15.87,17.94-7.4-8.36-25.59,28.93h82.92l-34.06-38.51Z" fill="#fff" isolation="isolate" opacity=".55" stroke-width="0"/>
            <circle cx="494.94" cy="629.04" r="6.64" fill="#fff" isolation="isolate" opacity=".55" stroke-width="0"/>
          </g>
        </g>
      </g>
      <g id="device">
        <path d="m558.02,487.3c11.04,0,19.99,8.88,19.99,19.83v190.33c0,10.95-8.95,19.83-19.99,19.83h-71.46c-11.04,0-19.99-8.88-19.99-19.83v-190.33c0-10.95,8.95-19.83,19.99-19.83h71.46m0-.89h-71.46c-11.52,0-20.89,9.29-20.89,20.72v190.33c0,11.42,9.37,20.72,20.89,20.72h71.46c11.52,0,20.89-9.29,20.89-20.72v-190.33c0-11.42-9.37-20.72-20.89-20.72h0Z" fill="#94a3b8" stroke-width="0"/>
        <path d="m558.03,487.3h-71.47c-11.04,0-19.99,8.88-19.99,19.83v190.34c0,10.95,8.95,19.83,19.99,19.83h71.47c11.04,0,19.99-8.88,19.99-19.83v-190.34c0-10.95-8.95-19.83-19.99-19.83Zm16.4,210.17c0,8.97-7.36,16.26-16.4,16.26h-71.47c-9.04,0-16.4-7.3-16.4-16.26v-190.34c0-8.97,7.36-16.26,16.4-16.26h71.47c9.04,0,16.4,7.3,16.4,16.26v190.34Z" fill="#020617" stroke-width="0"/>
        <path d="m465.21,528.73h.47v12.38h-.47c-.23,0-.41-.19-.41-.41v-11.56c0-.23.19-.41.41-.41Z" fill="#64748b" stroke-width="0"/>
        <path d="m465.25,547.18h.43v19.46h-.43c-.25,0-.45-.2-.45-.45v-18.56c0-.25.2-.45.45-.45Z" fill="#64748b" stroke-width="0"/>
        <path d="m465.25,570.11h.43v19.46h-.43c-.25,0-.45-.2-.45-.45v-18.56c0-.25.2-.45.45-.45Z" fill="#64748b" stroke-width="0"/>
        <rect x="504.94" y="493.34" width="33.83" height="11.05" rx="5.52" ry="5.52" fill="#020617" stroke-width="0"/>
        <path d="m533.1,497.53c.73,0,1.33.6,1.33,1.33s-.6,1.33-1.33,1.33-1.33-.6-1.33-1.33.6-1.33,1.33-1.33m0-2.21c-1.95,0-3.54,1.58-3.54,3.54s1.58,3.54,3.54,3.54,3.54-1.58,3.54-3.54-1.58-3.54-3.54-3.54h0Z" fill="#1e293b" stroke-width="0"/>
        <path d="m558.03,487.3h-71.47c-11.04,0-19.99,8.88-19.99,19.83v190.34c0,10.95,8.95,19.83,19.99,19.83h71.47c11.04,0,19.99-8.88,19.99-19.83v-190.34c0-10.95-8.95-19.83-19.99-19.83Zm16.4,210.17c0,8.97-7.36,16.26-16.4,16.26h-71.47c-9.04,0-16.4-7.3-16.4-16.26v-190.34c0-8.97,7.36-16.26,16.4-16.26h71.47c9.04,0,16.4,7.3,16.4,16.26v190.34Z" fill="#020617" stroke-width="0"/>
      </g>
    </g>
    <g id="Layer_24" data-name="Layer 24">
      <path d="m354.11,609.89h0c-45.85-12.96-58.84,49.4-24.04,70.39h17.66c-18.78-14.09-19.87-59.68,6.38-70.39" fill="#639a2e" stroke-width="0"/>
      <path d="m354.16,611.28c-.16,0-.3-.03-.45-.07.18.23.08.1-.01,0h0s.01.01.01.01h-.02s-.05-.01-.05-.01l-.1-.02-.2-.04-.41-.08-.82-.16-1.63-.32c-1.08-.26-2.2-.27-3.28-.42-.55-.05-1.09-.14-1.64-.16l-1.64-.02-1.63-.02c-.54.02-1.08.09-1.62.13-4.31.33-8.49,1.54-12.13,3.68-7.37,4.23-12.18,11.93-14.38,20.2-2.25,8.32-1.83,17.4,1.01,25.61,2.84,8.22,8.35,15.52,15.74,20.34h.01c.14.1.25.23.36.36h-5.49c-2.73-1.97-5.25-4.26-7.44-6.84-3.09-3.67-5.52-7.88-7.26-12.35-3.47-8.96-4.09-18.97-1.81-28.38,1.18-4.69,3.12-9.27,6.03-13.25,2.9-3.97,6.71-7.33,11.09-9.61,4.38-2.28,9.28-3.42,14.1-3.49.6,0,1.21-.05,1.8-.02l1.79.14,1.79.14c.59.06,1.17.2,1.76.29,1.16.25,2.35.36,3.48.74l1.7.48.85.24.42.12.21.06.11.03.05.02h.03c.16.21.08.11,0,0-.14-.18-.27-.36,1,1.26.03.75-.55,1.38-1.3,1.41" fill="#75aa3d" stroke-width="0"/>
      <path d="m327.8,677.69h3.85c-.98-.94-1.91-1.92-2.79-2.96-3.09-3.67-5.52-7.88-7.26-12.35-3.47-8.96-4.09-18.97-1.81-28.38,1.18-4.69,3.12-9.27,6.03-13.25,2.9-3.97,6.71-7.33,11.09-9.61.57-.3,1.15-.57,1.74-.83-3.6.51-7.06,1.65-10.13,3.46-7.37,4.23-12.18,11.93-14.38,20.2-2.25,8.32-1.83,17.4,1.01,25.61,2.43,7.03,6.81,13.39,12.66,18.1" fill="#467f1b" stroke-width="0"/>
      <path d="m325.76,680.28c-1.12-.81-2.19-1.68-3.23-2.6h5.27c-5.85-4.71-10.23-11.07-12.66-18.1-2.84-8.21-3.26-17.29-1.01-25.61,2.2-8.27,7.01-15.97,14.38-20.2,3.07-1.8,6.53-2.95,10.13-3.46,2.2-.97,4.51-1.67,6.86-2.11-.48-.55-.87-1.13-1.18-1.71l-.26-.02-1.79-.14c-.13,0-.27,0-.4,0-.47,0-.93.02-1.4.03-4.82.07-9.71,1.22-14.1,3.49-4.38,2.28-8.19,5.64-11.09,9.61-2.91,3.98-4.85,8.56-6.03,13.25-.9,3.71-1.35,7.52-1.35,11.32,0,5.83,1.06,11.64,3.16,17.06,1.74,4.47,4.17,8.68,7.26,12.35,2.19,2.58,4.71,4.87,7.44,6.84" fill="#548c25" stroke-width="0"/>
      <path d="m388.47,609.89h0c45.85-12.96,58.84,49.4,24.04,70.39h-17.65c18.78-14.09,19.87-59.68-6.38-70.39" fill="#639a2e" stroke-width="0"/>
      <path d="m416.82,680.28h-5.49c.1-.13.21-.25.36-.35h.01c7.39-4.83,12.9-12.13,15.74-20.35,2.84-8.21,3.26-17.29,1.01-25.61-2.2-8.27-7.01-15.97-14.38-20.2-3.64-2.14-7.82-3.34-12.13-3.68-.54-.04-1.08-.12-1.62-.13l-1.63.02-1.64.02c-.55.02-1.09.11-1.64.16-1.09.14-2.2.15-3.28.42l-1.63.32-.82.16-.41.08-.21.04-.1.02h-.05s-.03.01-.03.01v-.02s0,0,0,0c-.09.11-.18.23,0,0-.14.04-.29.08-.45.07-.75-.03-1.33-.66-1.3-1.41,1.27-1.62,1.14-1.44,1-1.26-.07.1-.15.2,0,0h.02s.05-.02.05-.02l.11-.03.21-.06.42-.12.85-.24,1.7-.48c1.12-.37,2.31-.49,3.47-.74.59-.1,1.17-.23,1.76-.29l1.79-.14,1.79-.14c.6-.02,1.2.02,1.81.02,4.82.07,9.71,1.22,14.09,3.49,4.38,2.28,8.19,5.64,11.09,9.61,2.91,3.98,4.85,8.56,6.03,13.25,2.28,9.41,1.66,19.42-1.81,28.38-1.74,4.47-4.17,8.68-7.26,12.35-2.19,2.58-4.71,4.87-7.44,6.84" fill="#75aa3d" stroke-width="0"/>
      <path d="m409.21,677.69h5.57c5.84-4.71,10.23-11.07,12.66-18.1,2.84-8.21,3.26-17.29,1.01-25.61-2.2-8.27-7.01-15.97-14.38-20.2-2.08-1.22-4.34-2.14-6.7-2.76,3.53,2.2,6.62,5.11,9.07,8.45,2.91,3.98,4.85,8.56,6.03,13.25,2.28,9.41,1.66,19.42-1.81,28.38-1.74,4.47-4.17,8.68-7.26,12.35-1.29,1.52-2.69,2.94-4.18,4.25" fill="#76ab3b" stroke-width="0"/>
      <path d="m416.82,680.28c2.73-1.97,5.25-4.26,7.44-6.84,3.09-3.67,5.53-7.88,7.26-12.35,2.1-5.43,3.16-11.23,3.16-17.06,0-3.8-.45-7.61-1.35-11.32-1.18-4.69-3.12-9.27-6.03-13.25-2.9-3.97-6.71-7.33-11.09-9.61-4.38-2.28-9.28-3.42-14.09-3.49-.47,0-.94-.03-1.41-.03-.13,0-.27,0-.4,0l-1.79.14-.26.02c-.12.22-.24.44-.38.66,2.58.58,5.1,1.47,7.47,2.7.69.36,1.36.74,2.02,1.15,2.36.62,4.62,1.54,6.7,2.76,7.37,4.23,12.18,11.93,14.38,20.2,2.25,8.32,1.83,17.4-1.01,25.61-2.43,7.03-6.81,13.39-12.66,18.1h5.27c-1.04.91-2.11,1.79-3.23,2.6" fill="#85b949" stroke-width="0"/>
      <path d="m371.14,610.03h0s.04,0,.06,0c-.02,0-.04,0-.06,0-2.63-35.07,26.45-22.07,9.47-.02-2.91-.36-6.06-.37-9.47.03" fill="#ffc612" stroke-width="0"/>
      <path d="m385.62,599.79c10.16-9.61,19.82,4.47,8.17,11.01-1.75.29-3.55.68-5.41,1.2h0c-2.09-.85-4.38-1.47-6.82-1.85l-.5-.78c2.57-3.49,3.98-6.73,4.56-9.58" fill="#fdda30" stroke-width="0"/>
      <path d="m362.01,610.08c-17.1-22.09,12.05-35.15,9.43-.09-3.4-.36-6.54-.31-9.43.09" fill="#fdda30" stroke-width="0"/>
      <path d="m354.62,612.03s.03-.02.05-.02h0c-2.1-.6-4.13-1.03-6.08-1.31-13.46-7.81,2.59-25.89,13.94-2.89l-1.57,2.44c-2.27.39-4.38.99-6.34,1.79" fill="#ffc612" stroke-width="0"/>
      <path d="m371.6,606.54c2.02-.29,4.08-.47,6.16-.47,1.74,0,3.48.12,5.22.38.75-1.29,1.34-2.54,1.79-3.74-2.62-.68-5.47-1.04-8.55-1.04-1.53,0-3.11.09-4.76.27.12,1.41.17,2.94.14,4.59" fill="#ffb009" stroke-width="0"/>
      <path d="m394.22,610.56c3.89-2.35,5.2-5.57,4.83-8.34-3.3.12-6.83.66-10.57,1.72h0c-1.18-.48-2.41-.89-3.7-1.23-.45,1.2-1.04,2.45-1.79,3.74.26.04.51.08.76.13.12.02.23.04.35.06h0c3.54.66,7.01,1.98,10.13,3.91" fill="#fdc119" stroke-width="0"/>
      <path d="m370.99,606.64c-1.95-.28-3.94-.43-5.93-.43-1.09,0-2.19.05-3.28.14-.83-1.52-1.67-2.84-2.53-3.96,2.21-.46,4.58-.71,7.11-.71,1.58,0,3.22.09,4.92.29.06,0,.12-.01.18-.02.12,1.41.17,2.94.14,4.59-.19.03-.37.06-.56.08-.02,0-.04,0-.06.01m.21-4.66h0" fill="#fdc119" stroke-width="0"/>
      <path d="m348.5,610.64h-.01s0,0,.01,0m-.03-.02s0,0,0,0t0,0m-.02-.01s0,0,0,0c0,0,0,0,0,0m-.02-.01s0,0,0,0t0,0m-.02-.01s0,0,0,0c0,0,0,0,0,0" fill="#638918" stroke-width="0"/>
      <path d="m348.51,610.64c3.04-1.86,6.4-3.16,9.84-3.82,1.14-.22,2.28-.37,3.42-.47-.83-1.52-1.67-2.84-2.53-3.96-1.84.38-3.57.92-5.19,1.58.02,0,.03-.01.05-.02h0c-3.75-1.06-7.27-1.61-10.57-1.72-.37,2.77.95,6,4.86,8.35,0,0,0,0,0,0,0,0,.01,0,.02.01t0,0s.01,0,.02.01c0,0,0,0,0,0,0,0,.01,0,.02.01t0,0s.01,0,.02.01h.01s0,.01.01.01" fill="#ffb009" stroke-width="0"/>
      <path d="m394.86,680.28h-24.64c2.15-24.02-2.06-48.41.98-72.36,43.33-5.12,45.89,55.68,23.66,72.36" fill="#639a2e" stroke-width="0"/>
      <path d="m371.29,607.92s-.06,0-.09,0c-3.04,23.95,1.17,48.34-.98,72.36h-22.5c-22.22-16.67-19.67-77.39,23.57-72.37" fill="#639a2e" stroke-width="0"/>
      <path d="m404.27,672.45c-1.69,2.86-3.74,5.57-6.23,7.83h-3.97,0s.02-.02.02-.02c3.02-2.58,5.4-5.86,7.17-9.45,1.8-3.57,3.06-7.43,3.87-11.38,1.58-7.89,1.59-16.15-.27-23.89-.92-3.87-2.27-7.6-4.11-11.03-1.83-3.44-4.21-6.57-7.18-9.02-2.95-2.48-6.49-4.24-10.29-5.23-3.81-1-7.85-1.25-11.92-1.03h-.04c-.66.04-1.26-.44-1.36-1.11-.11-.72.38-1.39,1.09-1.5,4.25-.67,8.67-.8,13.04.02,4.36.81,8.61,2.63,12.23,5.33,3.62,2.7,6.61,6.2,8.85,10.07,2.23,3.88,3.71,8.11,4.6,12.41,1.72,8.61,1.49,17.49-.66,25.91-1.09,4.2-2.65,8.3-4.84,12.09" fill="#75aa3d" stroke-width="0"/>
      <path d="m390.83,677.69h5.88c1.82-2.06,3.34-4.39,4.57-6.87,1.8-3.57,3.06-7.43,3.87-11.38,1.58-7.89,1.59-16.15-.27-23.89-.92-3.87-2.27-7.6-4.11-11.03-1.83-3.44-4.21-6.57-7.18-9.02-2.59-2.17-5.63-3.8-8.9-4.83.66.41,1.3.85,1.92,1.31,3.62,2.7,6.61,6.2,8.85,10.07,2.23,3.88,3.71,8.11,4.6,12.41,1.72,8.61,1.49,17.49-.66,25.91-1.09,4.2-2.65,8.3-4.84,12.09-1.08,1.84-2.32,3.61-3.72,5.24" fill="#76ab3b" stroke-width="0"/>
      <path d="m384.09,606.65c-.12-.02-.23-.04-.35-.06.12.02.23.04.35.06" fill="#fdcc27" stroke-width="0"/>
      <path d="m396.7,677.69h3.86c1.4-1.63,2.63-3.4,3.71-5.24,2.19-3.79,3.75-7.89,4.84-12.09,1.2-4.7,1.8-9.55,1.79-14.41,0-3.84-.38-7.7-1.14-11.5-.9-4.3-2.37-8.53-4.6-12.41-2.24-3.87-5.23-7.37-8.85-10.07-3.63-2.69-7.87-4.52-12.23-5.33h0c-.12-.02-.23-.04-.35-.06-1.99-.35-3.99-.51-5.97-.51-1.68,0-3.36.11-5.02.31.53.07,1.07.16,1.6.26,3.61.67,7.14,2.04,10.31,4.02,3.27,1.03,6.31,2.66,8.9,4.83,2.98,2.45,5.36,5.58,7.18,9.02,1.84,3.43,3.2,7.17,4.11,11.03,1.86,7.74,1.85,16,.27,23.89-.8,3.95-2.06,7.8-3.87,11.38-1.23,2.48-2.75,4.81-4.57,6.87" fill="#85b949" stroke-width="0"/>
      <path d="m371.09,609.18h-.04c-4.06-.24-8.12-.04-11.94.98-3.82.98-7.38,2.75-10.35,5.25-5.99,4.98-9.58,12.45-11.11,20.21-.79,3.89-1.15,7.88-1.17,11.88-.03,4,.32,8.02,1.13,11.94.8,3.93,2.06,7.76,3.83,11.33,1.78,3.55,4.1,6.84,7.09,9.42l.03.02s.04.06.07.08h-4.3c-2.46-2.23-4.51-4.9-6.18-7.74-2.22-3.78-3.79-7.89-4.9-12.1-2.16-8.42-2.55-17.36-.52-25.92,1.01-4.27,2.55-8.44,4.77-12.29,2.21-3.84,5.11-7.37,8.72-10.05,3.58-2.7,7.79-4.53,12.12-5.37,4.34-.82,8.74-.77,12.99-.13.63.1,1.1.66,1.06,1.31-.04.69-.63,1.22-1.32,1.18" fill="#75aa3d" stroke-width="0"/>
      <path d="m346.05,677.69h5.3c-1.38-1.6-2.59-3.34-3.65-5.14-2.22-3.78-3.79-7.89-4.9-12.1-2.16-8.42-2.55-17.36-.52-25.92,1.01-4.27,2.55-8.44,4.77-12.29,2.21-3.84,5.12-7.37,8.72-10.05.92-.69,1.89-1.33,2.88-1.91-3.64,1-7.03,2.73-9.87,5.12-5.99,4.98-9.58,12.45-11.11,20.21-.79,3.89-1.15,7.88-1.17,11.88-.03,4,.32,8.02,1.13,11.94.8,3.93,2.06,7.76,3.83,11.33,1.25,2.49,2.76,4.86,4.59,6.94" fill="#467f1b" stroke-width="0"/>
      <path d="m341.83,677.69h4.22c-1.83-2.08-3.34-4.44-4.59-6.94-1.78-3.56-3.04-7.4-3.83-11.33-.82-3.92-1.16-7.94-1.13-11.94.02-4,.38-7.99,1.17-11.88,1.53-7.76,5.12-15.22,11.11-20.21,2.85-2.39,6.23-4.12,9.87-5.12,2.87-1.66,6.02-2.84,9.23-3.46.69-.13,1.37-.23,2.06-.32-1.61-.19-3.25-.29-4.89-.29-2.23,0-4.46.19-6.69.61-4.33.84-8.53,2.67-12.12,5.37-3.61,2.68-6.52,6.21-8.72,10.05-2.22,3.85-3.76,8.03-4.77,12.29-.9,3.81-1.32,7.7-1.33,11.58,0,4.84.65,9.67,1.85,14.33,1.11,4.2,2.68,8.31,4.9,12.1,1.06,1.81,2.28,3.54,3.65,5.14" fill="#548c25" stroke-width="0"/>
      <path d="m371.72,680.28h-2.85c.09-5.78,0-11.56-.26-17.34-.12-3.04-.3-6.07-.46-9.12-.15-3.04-.24-6.1-.31-9.16-.08-6.12-.2-12.28.04-18.45.22-6.17.71-12.36,1.76-18.48.14-.78.7-.74,1.51-.68.86.07,1.65.21,1.58,1.07-.47,6.03-.59,12.08-.5,18.13.1,6.06.34,12.14.66,18.24.14,3.05.25,6.11.29,9.18.01,3.07-.04,6.15-.1,9.23-.18,5.79-.52,11.61-1.36,17.38" fill="#75aa3d" stroke-width="0"/>
      <path d="m372.07,677.69h4.01c5.03-17.42-3.35-50.61-3.41-68.37-.4,5.63-.51,11.28-.43,16.94h0c.1,6.06.34,12.14.66,18.24.14,3.05.25,6.11.29,9.18,0,.34,0,.67,0,1.01,0,2.74-.05,5.48-.1,8.22-.15,4.93-.42,9.87-1.02,14.78" fill="#80b542" stroke-width="0"/>
      <path d="m366.6,677.69h2.31c0-.63,0-1.25,0-1.88,0-4.29-.1-8.58-.29-12.87-.12-3.04-.3-6.07-.46-9.12-.15-3.04-.24-6.1-.31-9.16-.05-3.44-.1-6.9-.1-10.36,0-2.69.04-5.39.14-8.09h0s0-.09,0-.14c.21-5.64.64-11.29,1.52-16.88-4.54,20.23-5.48,54.11-2.82,68.5" fill="#467f1b" stroke-width="0"/>
      <path d="m368.9,677.69c0-.63,0-1.25,0-1.88,0,.63,0,1.25,0,1.88h0m-1.15-43.39c0-2.69.04-5.39.14-8.09h0c-.1,2.7-.14,5.4-.14,8.09m.14-8.23c.21-5.64.64-11.29,1.52-16.88,0,0,0,0,0-.01h.02c-.88,5.6-1.34,11.25-1.54,16.89" fill="#548c25" stroke-width="0"/>
      <path d="m292.71,680.28h157.15c2.57,0,4.57,3.69,4.29,7.93l-2.88,44.33c-.24,3.64-2.09,6.39-4.29,6.39h-151.39c-2.21,0-4.06-2.76-4.29-6.39l-2.88-44.33c-.28-4.23,1.72-7.93,4.29-7.93" fill="#0d9488" stroke-width="0"/>
      <path d="m334.62,680.28h9.73c-.89-.81-1.73-1.68-2.52-2.6h-10.17c.95.91,1.94,1.77,2.96,2.6" fill="#518922" stroke-width="0"/>
      <path d="m331.25,680.28h3.36c-1.02-.82-2.01-1.69-2.96-2.6h-3.85c.99.8,2.01,1.54,3.08,2.24h.01c.14.1.25.23.36.36" fill="#397114" stroke-width="0"/>
      <path d="m325.76,680.28h5.49c-.1-.13-.21-.25-.36-.35h-.01c-1.07-.71-2.1-1.45-3.08-2.25h-5.27c1.04.91,2.11,1.79,3.23,2.6h0" fill="#457d1c" stroke-width="0"/>
      <path d="m398.05,680.28h7.91c1.12-.81,2.21-1.68,3.25-2.6h-8.65c-.78.91-1.62,1.78-2.51,2.6" fill="#518922" stroke-width="0"/>
      <path d="m405.95,680.28h5.38c.1-.13.21-.25.36-.35h.01c1.07-.7,2.09-1.45,3.08-2.25h-5.57c-1.04.92-2.13,1.78-3.25,2.6" fill="#61982c" stroke-width="0"/>
      <path d="m411.33,680.28h5.49c1.12-.81,2.19-1.68,3.23-2.6h-5.27c-.99.8-2.01,1.54-3.08,2.24h-.01c-.15.1-.25.23-.36.36h0" fill="#6da537" stroke-width="0"/>
      <path d="m375.18,680.28h13.14c.89-.81,1.73-1.68,2.51-2.6h-14.75c-.26.91-.56,1.78-.9,2.6" fill="#518922" stroke-width="0"/>
      <path d="m353.86,680.28h13.31c-.21-.77-.4-1.64-.58-2.6h-15.25c.79.91,1.63,1.78,2.52,2.6" fill="#518922" stroke-width="0"/>
      <path d="m388.32,680.28h5.76s0,0,0,0l.02-.02c.93-.8,1.8-1.66,2.6-2.57h-5.88c-.78.91-1.62,1.78-2.51,2.6" fill="#61982c" stroke-width="0"/>
      <path d="m394.07,680.28h3.97c.89-.81,1.73-1.68,2.51-2.6h-3.86c-.81.91-1.68,1.78-2.6,2.57l-.02.02h0" fill="#6da537" stroke-width="0"/>
      <path d="m348.64,680.28h5.22c-.9-.81-1.73-1.68-2.52-2.6h-5.3c.78.88,1.61,1.72,2.5,2.49l.03.02s.04.06.07.08" fill="#397114" stroke-width="0"/>
      <path d="m344.35,680.28h4.3s-.04-.06-.07-.08l-.03-.02c-.89-.77-1.73-1.6-2.5-2.49h-4.22c.79.91,1.63,1.78,2.52,2.6h0" fill="#457d1c" stroke-width="0"/>
      <path d="m368.88,680.28h2.85c.13-.86.24-1.73.35-2.6h-3.17c0,.87-.01,1.73-.03,2.6" fill="#60972e" stroke-width="0"/>
      <path d="m371.72,680.28h3.45c.34-.82.64-1.69.9-2.6h-4.01c-.1.87-.22,1.73-.35,2.6" fill="#69a132" stroke-width="0"/>
      <path d="m367.17,680.28h1.7c.01-.87.02-1.73.03-2.6h-2.31c.18.95.37,1.82.58,2.6" fill="#397114" stroke-width="0"/>
      <polyline points="325.76 680.28 330.07 680.28 331.25 680.28 334.62 680.28 344.35 680.28 347.72 680.28 348.64 680.28 353.86 680.28 367.17 680.28 368.88 680.28 370.22 680.28 371.72 680.28 375.18 680.28 388.32 680.28 394.07 680.28 394.86 680.28 398.05 680.28 405.95 680.28 411.33 680.28 412.51 680.28 416.82 680.28 416.82 680.28 325.76 680.28 325.76 680.28" fill="#835924" stroke-width="0"/>
      <path d="m438.5,732.14c1.92,0,3.57-2.59,3.79-6.09l1.89-31.4c.23-3.74-1.29-7.11-3.38-7.51-.14-.03-.28-.04-.42-.04-1.91,0-3.57,2.6-3.78,6.09l-1.89,31.4c-.23,3.74,1.29,7.11,3.38,7.51.14.03.28.04.41.04" fill="#14b8a6" stroke-width="0"/>
      <path d="m295.6,738.94h6.08c-2.21,0-4.06-2.76-4.29-6.39l-2.88-44.33c-.27-4.23,1.73-7.93,4.29-7.93h-6.08c-2.41,0-4.32,3.25-4.32,7.14,0,.26,0,.52.02.79l2.88,44.33c.24,3.64,2.09,6.39,4.29,6.39" fill="#115e59" stroke-width="0"/>
    </g>
  </g>
  <g id="desktop">
    <g id="screen-2" data-name="screen">
      <polygon points="1619.63 499.44 780.33 499.44 780.33 430.31 1619.63 430.31 1619.63 499.44 1619.63 499.44" fill="#6c92d8" stroke-width="0"/>
      <polygon points="1619.63 430.31 780.7 430.31 780.7 106.02 1619.63 106.02 1619.63 430.31 1619.63 430.31" fill="#e2e8f0" stroke-width="0"/>
      <g>
        <polygon points="1619.63 105.59 780.7 105.59 780.7 48.09 1619.63 48.09 1619.63 105.59 1619.63 105.59" fill="#14b8a6" stroke-width="0"/>
        <polygon points="1005.31 95.6 891.85 95.6 891.85 57.12 1005.31 57.12 1005.31 95.6 1005.31 95.6" fill="#fff" opacity=".79" stroke-width="0"/>
        <polygon points="1165.57 88.23 1089.12 88.23 1089.12 64.49 1165.57 64.49 1165.57 88.23 1165.57 88.23" fill="#fff" opacity=".79" stroke-width="0"/>
        <polygon points="1255.57 88.23 1179.12 88.23 1179.12 64.49 1255.57 64.49 1255.57 88.23 1255.57 88.23" fill="#fff" opacity=".79" stroke-width="0"/>
        <polygon points="1345.57 88.23 1269.12 88.23 1269.12 64.49 1345.57 64.49 1345.57 88.23 1345.57 88.23" fill="#fff" opacity=".79" stroke-width="0"/>
        <polygon points="1435.57 88.23 1359.12 88.23 1359.12 64.49 1435.57 64.49 1435.57 88.23 1435.57 88.23" fill="#fff" opacity=".79" stroke-width="0"/>
        <polygon points="1525.57 88.23 1449.11 88.23 1449.11 64.49 1525.57 64.49 1525.57 88.23 1525.57 88.23" fill="#fff" opacity=".79" stroke-width="0"/>
      </g>
      <polygon points="1334.84 149.58 1073.85 149.58 1073.85 125.93 1334.84 125.93 1334.84 149.58 1334.84 149.58" fill="#64748b" stroke-width="0"/>
      <polygon points="958.48 465.19 870.1 465.19 870.1 447.69 958.48 447.69 958.48 465.19 958.48 465.19" fill="#abb8e0" stroke-width="0"/>
      <polygon points="970.34 493.13 870.1 493.13 870.1 475.62 970.34 475.62 970.34 493.13 970.34 493.13" fill="#ced6ed" stroke-width="0"/>
      <polygon points="1115.02 465.19 1042.75 465.19 1042.75 447.69 1115.02 447.69 1115.02 465.19 1115.02 465.19" fill="#abb8e0" stroke-width="0"/>
      <polygon points="1150.15 493.13 1042.75 493.13 1042.75 475.62 1150.15 475.62 1150.15 493.13 1150.15 493.13" fill="#ced6ed" stroke-width="0"/>
      <polygon points="1332.3 465.19 1215.4 465.19 1215.4 447.69 1332.3 447.69 1332.3 465.19 1332.3 465.19" fill="#abb8e0" stroke-width="0"/>
      <polygon points="1348.5 493.13 1215.4 493.13 1215.4 475.62 1348.5 475.62 1348.5 493.13 1348.5 493.13" fill="#ced6ed" stroke-width="0"/>
      <polygon points="1502.72 492.89 1385.81 492.89 1385.81 447.69 1502.72 447.69 1502.72 492.89 1502.72 492.89" fill="#abb8e0" stroke-width="0"/>
      <polygon points="1021.82 403.49 871.15 403.49 871.15 171.06 1021.82 171.06 1021.82 403.49 1021.82 403.49" fill="#fbfffa" stroke-width="0"/>
      <polygon points="924.97 383.25 882.51 383.25 882.51 340.79 924.97 340.79 924.97 383.25 924.97 383.25" fill="#64748b" stroke-width="0"/>
      <polygon points="1010.46 319.78 882.51 319.78 882.51 191.27 1010.46 191.27 1010.46 319.78 1010.46 319.78" fill="#657cc7" stroke-width="0"/>
      <polygon points="1010.46 358.29 936.71 358.29 936.71 340.79 1010.46 340.79 1010.46 358.29 1010.46 358.29" fill="#cbd5e1" stroke-width="0"/>
      <polygon points="968.3 383.28 936.71 383.28 936.71 365.78 968.3 365.78 968.3 383.28 968.3 383.28" fill="#cbd5e1" stroke-width="0"/>
      <polygon points="1193.66 402.4 1042.99 402.4 1042.99 302.95 1193.66 302.95 1193.66 402.4 1193.66 402.4" fill="#ffaf1c" stroke-width="0"/>
      <polygon points="1155.13 361.43 1081.53 361.43 1081.53 343.92 1155.13 343.92 1155.13 361.43 1155.13 361.43" fill="#fff" opacity=".7" stroke-width="0"/>
      <path d="m1057.58,373.18h121.5v-41.02h-121.5v41.02h0Zm122.52,1.03h-123.55v-43.07h123.55v43.07h0Z" fill="#fff" opacity=".7" stroke-width="0"/>
      <polygon points="1193.41 281.13 1042.75 281.13 1042.75 171.06 1193.41 171.06 1193.41 281.13 1193.41 281.13" fill="#fbfffa" stroke-width="0"/>
      <polygon points="1180.2 214.75 1056.28 214.75 1056.28 191.09 1180.2 191.09 1180.2 214.75 1180.2 214.75" fill="#64748b" stroke-width="0"/>
      <polygon points="1180.32 244.49 1099.74 244.49 1099.74 226.98 1180.32 226.98 1180.32 244.49 1180.32 244.49" fill="#cbd5e1" stroke-width="0"/>
      <polygon points="1364.89 171.06 1214.22 171.06 1214.22 403.49 1364.89 403.49 1364.89 171.06 1364.89 171.06" fill="#fbfffa" stroke-width="0"/>
      <polygon points="1268.04 191.3 1225.57 191.3 1225.57 233.76 1268.04 233.76 1268.04 191.3 1268.04 191.3" fill="#64748b" stroke-width="0"/>
      <polygon points="1353.53 254.77 1225.57 254.77 1225.57 383.28 1353.53 383.28 1353.53 254.77 1353.53 254.77" fill="#657cc7" stroke-width="0"/>
      <polygon points="1353.53 216.25 1279.77 216.25 1279.77 233.76 1353.53 233.76 1353.53 216.25 1353.53 216.25" fill="#cbd5e1" stroke-width="0"/>
      <polygon points="1311.36 191.27 1279.77 191.27 1279.77 208.77 1311.36 208.77 1311.36 191.27 1311.36 191.27" fill="#cbd5e1" stroke-width="0"/>
      <polygon points="1536.72 171.06 1386.06 171.06 1386.06 270.51 1536.72 270.51 1536.72 171.06 1536.72 171.06" fill="#ff7c1c" stroke-width="0"/>
      <polygon points="1498.19 212.07 1424.59 212.07 1424.59 229.57 1498.19 229.57 1498.19 212.07 1498.19 212.07" fill="#fff" opacity=".7" stroke-width="0"/>
      <path d="m1400.64,241.29h121.5v-41.02h-121.5v41.02h0Zm122.52,1.03h-123.55v-43.07h123.55v43.07h0Z" fill="#fff" opacity=".7" stroke-width="0"/>
      <polygon points="1536.48 292.34 1385.81 292.34 1385.81 402.41 1536.48 402.41 1536.48 292.34 1536.48 292.34" fill="#fbfffa" stroke-width="0"/>
      <polygon points="1523.26 358.72 1399.34 358.72 1399.34 382.38 1523.26 382.38 1523.26 358.72 1523.26 358.72" fill="#64748b" stroke-width="0"/>
      <polygon points="1523.38 328.98 1442.8 328.98 1442.8 346.49 1523.38 346.49 1523.38 328.98 1523.38 328.98" fill="#cbd5e1" stroke-width="0"/>
      <g>
        <rect x="780.98" y="25.29" width="838.65" height="22.79" fill="#e5e7eb" stroke-width="0"/>
        <rect x="1074.22" y="31.21" width="255.11" height="11.83" rx="1.95" ry="1.95" fill="#fff" stroke-width="0"/>
        <g>
          <circle cx="792.37" cy="36.69" r="2.63" fill="#f77171" stroke-width="0"/>
          <circle cx="800.92" cy="36.69" r="2.63" fill="#fabe24" stroke-width="0"/>
          <circle cx="809.47" cy="36.69" r="2.63" fill="#a2e535" stroke-width="0"/>
        </g>
      </g>
      <g>
        <path d="m882.51,191.09h128.51v129.89h-128.51v-129.89Z" fill="#255cc0" stroke-width="0"/>
        <path d="m958.18,261.56l-24.49,27.68-11.42-12.91-39.49,44.64h127.95l-52.56-59.41Z" fill="#fff" isolation="isolate" opacity=".55" stroke-width="0"/>
        <circle cx="904.1" cy="214.35" r="10.25" fill="#fff" isolation="isolate" opacity=".55" stroke-width="0"/>
      </g>
      <path d="m1225.57,254.77h127.95v128.94h-127.95v-128.94Z" fill="#14b8a6" stroke-width="0"/>
      <path d="m1300.97,324.29l-24.49,27.68-11.42-12.91-39.49,44.64h127.95l-52.56-59.41Z" fill="#fff" isolation="isolate" opacity=".55" stroke-width="0"/>
      <circle cx="1247.16" cy="276.64" r="10.25" fill="#fff" isolation="isolate" opacity=".55" stroke-width="0"/>
    </g>
    <g id="device-2" data-name="device">
      <path d="m1123.04,748.9h-23.01c-1.46,0-2.79-.2-3.75-.52s-1.55-.76-1.55-1.25h33.61c0,.45-.51.87-1.35,1.18-.97.36-2.38.59-3.95.59Z" fill="#030712" stroke-width="0"/>
      <path d="m1299.96,748.9h-23.01c-2.93,0-5.3-.79-5.3-1.77h33.61c0,.98-2.37,1.77-5.3,1.77Z" fill="#030712" stroke-width="0"/>
      <path d="m1197.31,18.86c.84.65,1.88,1,2.92,1,.39,0,.78-.05,1.16-.15,1.03-.26,1.95-.86,2.59-1.68.66-.83,1.02-1.87,1.01-2.93,0-1.06-.36-2.1-1-2.92-.65-.83-1.57-1.44-2.58-1.69-1.45-.37-3-.04-4.14.89-1.14.9-1.81,2.31-1.8,3.76,0,1.46.7,2.86,1.84,3.73Zm2.07-4.84c.23-.19.55-.29.86-.29.11,0,.22.01.33.04.29.07.56.25.75.49.18.24.29.54.29.84h0c0,.31-.1.61-.3.85-.18.24-.45.41-.76.49-.39.1-.84,0-1.18-.25-.32-.24-.53-.66-.53-1.08,0-.4.19-.82.53-1.09Z" fill="#18181b" stroke-width="0"/>
      <path d="m1092.08,736.51h215.84v8.88c0,.96-.78,1.73-1.73,1.73h-212.38c-.96,0-1.73-.78-1.73-1.73v-8.88h0Z" fill="#6b7280" stroke-width="0"/>
      <rect x="1092.08" y="610.9" width="215.84" height="125.61" fill="#64748b" stroke-width="0"/>
      <rect x="1092.08" y="610.9" width="215.84" height="3.54" fill="#020617" stroke-width="0"/>
      <path d="m1630.3,610.9h-860.6c-6.63,0-12-5.37-12-12v-76.46h884.6v76.46c0,6.63-5.37,12-12,12Z" fill="#94a3b8" stroke-width="0"/>
      <path d="m1619.3,25.29v474.15h-838.6V25.29h838.6m6.67-23h-851.94c-9.02,0-16.33,7.31-16.33,16.33v503.81h884.6V18.63c0-9.02-7.31-16.33-16.33-16.33h0Z" fill="#020617" stroke-width="0"/>
      <path d="m1200.42,12.39c.75,0,1.35.59,1.35,1.33s-.61,1.33-1.35,1.33-1.35-.59-1.35-1.33.61-1.33,1.35-1.33m0-2.21c-1.97,0-3.57,1.58-3.57,3.54s1.6,3.54,3.57,3.54,3.57-1.58,3.57-3.54-1.6-3.54-3.57-3.54h0Z" fill="#1e293b" stroke-width="0"/>
      <path d="m838.11,610.9h792.19c6.63,0,12-5.37,12-12v-76.46h0V151.89l-804.19,459.01Z" fill="#fff" opacity=".1" stroke-width="0"/>
    </g>
    <g id="keyboard">
      <path d="m1002.63,739.58h-17.29v-6.21c0-.82,1.13-1.49,2.54-1.49h12.21c1.4,0,2.54.67,2.54,1.49v6.21Z" fill="#94a3b8" fill-rule="evenodd" stroke-width="0"/>
      <path d="m1021.58,739.58h-17.29v-6.21c0-.82,1.13-1.49,2.54-1.49h12.21c1.4,0,2.54.67,2.54,1.49v6.21Z" fill="#94a3b8" fill-rule="evenodd" stroke-width="0"/>
      <path d="m1040.53,739.58h-17.29v-6.21c0-.82,1.14-1.49,2.54-1.49h12.21c1.4,0,2.54.67,2.54,1.49v6.21Z" fill="#94a3b8" fill-rule="evenodd" stroke-width="0"/>
      <path d="m1205.06,739.58h-17.29v-6.21c0-.82,1.13-1.49,2.54-1.49h12.21c1.4,0,2.54.67,2.54,1.49v6.21Z" fill="#94a3b8" fill-rule="evenodd" stroke-width="0"/>
      <path d="m1224.01,739.58h-17.29v-6.21c0-.82,1.14-1.49,2.54-1.49h12.21c1.4,0,2.54.67,2.54,1.49v6.21Z" fill="#94a3b8" fill-rule="evenodd" stroke-width="0"/>
      <path d="m1242.96,739.58h-17.29v-6.21c0-.82,1.14-1.49,2.54-1.49h12.21c1.4,0,2.54.67,2.54,1.49v6.21Z" fill="#94a3b8" fill-rule="evenodd" stroke-width="0"/>
      <path d="m1262.2,739.58h-17.28v-6.21c0-.82,1.14-1.49,2.54-1.49h12.21c1.4,0,2.53.67,2.53,1.49v6.21Z" fill="#94a3b8" fill-rule="evenodd" stroke-width="0"/>
      <path d="m1281.46,739.58h-17.28v-6.21c0-.82,1.14-1.49,2.53-1.49h12.22c1.4,0,2.53.67,2.53,1.49v6.21Z" fill="#94a3b8" fill-rule="evenodd" stroke-width="0"/>
      <path d="m1300.72,739.58h-17.29v-6.21c0-.82,1.14-1.49,2.54-1.49h12.22c1.39,0,2.53.67,2.53,1.49v6.21Z" fill="#94a3b8" fill-rule="evenodd" stroke-width="0"/>
      <path d="m1319.98,739.58h-17.29v-6.21c0-.82,1.14-1.49,2.54-1.49h12.21c1.4,0,2.54.67,2.54,1.49v6.21Z" fill="#94a3b8" fill-rule="evenodd" stroke-width="0"/>
      <path d="m1350.24,739.58h-17.29v-6.21c0-.82,1.14-1.49,2.54-1.49h12.22c1.39,0,2.53.67,2.53,1.49v6.21Z" fill="#94a3b8" fill-rule="evenodd" stroke-width="0"/>
      <path d="m1368.64,739.58h-17.27v-6.21c0-.82,1.13-1.49,2.53-1.49h12.22c1.4,0,2.52.67,2.52,1.49v6.21Z" fill="#94a3b8" fill-rule="evenodd" stroke-width="0"/>
      <path d="m1387.06,739.58h-17.29v-6.21c0-.82,1.14-1.49,2.55-1.49h12.19c1.4,0,2.54.67,2.54,1.49v6.21Z" fill="#94a3b8" fill-rule="evenodd" stroke-width="0"/>
      <path d="m1405.47,739.58h-17.28v-6.21c0-.82,1.14-1.49,2.53-1.49h12.22c1.4,0,2.53.67,2.53,1.49v6.21Z" fill="#94a3b8" fill-rule="evenodd" stroke-width="0"/>
      <path d="m1185.4,739.45l-143.21.13v-6.21c0-.83,1.14-1.49,2.54-1.49l138.13-.13c.66,0,1.32.17,1.79.43.48.29.75.66.75,1.06v6.21Z" fill="#94a3b8" fill-rule="evenodd" stroke-width="0"/>
      <path d="m1417.85,744.61c0,2.56-2.78,4.64-6.19,4.64h-432.47c-3.43,0-6.19-2.08-6.19-4.64v-4.22c0-2.58,2.76-4.65,6.19-4.65h432.47c3.42,0,6.19,2.08,6.19,4.65v4.22Z" fill="#cbd5e1" fill-rule="evenodd" stroke-width="0"/>
      <path d="m973,743.49v1.12c0,2.56,2.76,4.64,6.19,4.64h432.47c3.42,0,6.19-2.08,6.19-4.64v-1.12h-444.85Z" fill="#94a3b8" fill-rule="evenodd" stroke-width="0"/>
    </g>
    <g id="mouse">
      <path d="m1574.7,744.78c-.91-10.82-21.8-19.49-47.45-19.49s-46.54,8.67-47.45,19.49h94.9Z" fill="#cbd5e1" stroke-width="0"/>
      <rect x="1479.8" y="744.78" width="94.7" height="4.54" fill="#94a3b8" stroke-width="0"/>
    </g>
  </g>
  <g id="laptop">
    <g id="screen-3" data-name="screen">
      <rect x="1708.74" y="359.64" width="543.31" height="350.91" fill="#1e293b" stroke-width="0"/>
      <rect x="1708.74" y="378.8" width="105.69" height="331.75" fill="#475569" stroke-width="0"/>
      <rect x="1708.74" y="359.64" width="543.31" height="19.16" fill="#0f172a" stroke-width="0"/>
      <g>
        <path d="m2226.4,369.22c0,1.55-1.25,2.81-2.8,2.81s-2.8-1.26-2.8-2.81,1.25-2.81,2.8-2.81,2.8,1.26,2.8,2.81Z" fill="#ffc440" stroke-width="0"/>
        <path d="m2234.92,369.22c0,1.55-1.25,2.81-2.8,2.81s-2.8-1.26-2.8-2.81,1.25-2.81,2.8-2.81,2.8,1.26,2.8,2.81Z" fill="#56c356" stroke-width="0"/>
        <path d="m2243.45,369.22c0,1.55-1.25,2.81-2.8,2.81s-2.8-1.26-2.8-2.81,1.25-2.81,2.8-2.81,2.8,1.26,2.8,2.81Z" fill="#ff5168" stroke-width="0"/>
      </g>
      <rect x="1814.43" y="378.8" width="1" height="331.75" fill="#334155" stroke-width="0"/>
      <g>
        <g>
          <rect x="1723.57" y="390.05" width="6.06" height="6.06" fill="#2dd4bf" stroke-width="0"/>
          <rect x="1731.99" y="391.52" width="27.71" height="3.11" fill="#cbd5e1" stroke-width="0"/>
        </g>
        <g>
          <rect x="1723.57" y="420.12" width="6.06" height="6.06" fill="#2dd4bf" stroke-width="0"/>
          <rect x="1731.99" y="421.6" width="27.71" height="3.11" fill="#cbd5e1" stroke-width="0"/>
        </g>
        <g>
          <rect x="1723.57" y="470.24" width="6.06" height="6.06" fill="#2dd4bf" stroke-width="0"/>
          <rect x="1731.99" y="471.72" width="27.71" height="3.11" fill="#cbd5e1" stroke-width="0"/>
        </g>
        <g>
          <rect x="1723.57" y="480.27" width="6.06" height="6.06" fill="#2dd4bf" stroke-width="0"/>
          <rect x="1731.99" y="481.75" width="27.71" height="3.11" fill="#cbd5e1" stroke-width="0"/>
        </g>
        <g>
          <rect x="1731.99" y="400.07" width="6.06" height="6.06" fill="#14b8a6" stroke-width="0"/>
          <rect x="1740.48" y="401.55" width="27.71" height="3.11" fill="#cbd5e1" stroke-width="0"/>
        </g>
        <g>
          <rect x="1731.99" y="410.1" width="6.06" height="6.06" fill="#14b8a6" stroke-width="0"/>
          <rect x="1740.48" y="411.57" width="38.23" height="3.11" fill="#cbd5e1" stroke-width="0"/>
        </g>
        <g>
          <rect x="1731.99" y="430.15" width="6.06" height="6.06" fill="#14b8a6" stroke-width="0"/>
          <rect x="1740.45" y="431.62" width="46.52" height="3.11" fill="#cbd5e1" stroke-width="0"/>
        </g>
        <g>
          <rect x="1731.99" y="440.17" width="6.06" height="6.06" fill="#14b8a6" stroke-width="0"/>
          <rect x="1740.45" y="441.65" width="31.43" height="3.11" fill="#cbd5e1" stroke-width="0"/>
        </g>
        <g>
          <rect x="1740.45" y="450.19" width="6.06" height="6.06" fill="#0d9488" stroke-width="0"/>
          <rect x="1748.87" y="451.67" width="51.76" height="3.11" fill="#cbd5e1" stroke-width="0"/>
        </g>
        <g>
          <rect x="1740.45" y="460.22" width="6.06" height="6.06" fill="#0d9488" stroke-width="0"/>
          <rect x="1748.87" y="461.7" width="31.59" height="3.11" fill="#cbd5e1" stroke-width="0"/>
        </g>
        <g>
          <g>
            <rect x="1723.57" y="489.89" width="6.06" height="6.06" fill="#2dd4bf" stroke-width="0"/>
            <rect x="1731.99" y="491.36" width="27.71" height="3.11" fill="#cbd5e1" stroke-width="0"/>
          </g>
          <g>
            <rect x="1723.57" y="519.96" width="6.06" height="6.06" fill="#2dd4bf" stroke-width="0"/>
            <rect x="1731.99" y="521.44" width="27.71" height="3.11" fill="#cbd5e1" stroke-width="0"/>
          </g>
          <g>
            <rect x="1723.57" y="570.08" width="6.06" height="6.06" fill="#2dd4bf" stroke-width="0"/>
            <rect x="1731.99" y="571.56" width="27.71" height="3.11" fill="#cbd5e1" stroke-width="0"/>
          </g>
          <g>
            <rect x="1723.57" y="580.11" width="6.06" height="6.06" fill="#2dd4bf" stroke-width="0"/>
            <rect x="1731.99" y="581.58" width="27.71" height="3.11" fill="#cbd5e1" stroke-width="0"/>
          </g>
          <g>
            <rect x="1731.99" y="499.91" width="6.06" height="6.06" fill="#14b8a6" stroke-width="0"/>
            <rect x="1740.48" y="501.39" width="27.71" height="3.11" fill="#cbd5e1" stroke-width="0"/>
          </g>
          <g>
            <rect x="1731.99" y="509.94" width="6.06" height="6.06" fill="#14b8a6" stroke-width="0"/>
            <rect x="1740.48" y="511.41" width="38.23" height="3.11" fill="#cbd5e1" stroke-width="0"/>
          </g>
          <g>
            <rect x="1731.99" y="529.99" width="6.06" height="6.06" fill="#14b8a6" stroke-width="0"/>
            <rect x="1740.45" y="531.46" width="46.52" height="3.11" fill="#cbd5e1" stroke-width="0"/>
          </g>
          <g>
            <rect x="1731.99" y="540.01" width="6.06" height="6.06" fill="#14b8a6" stroke-width="0"/>
            <rect x="1740.45" y="541.49" width="31.43" height="3.11" fill="#cbd5e1" stroke-width="0"/>
          </g>
          <g>
            <rect x="1740.45" y="550.03" width="6.06" height="6.06" fill="#0d9488" stroke-width="0"/>
            <rect x="1748.87" y="551.51" width="51.76" height="3.11" fill="#cbd5e1" stroke-width="0"/>
          </g>
          <g>
            <rect x="1740.45" y="560.06" width="6.06" height="6.06" fill="#0d9488" stroke-width="0"/>
            <rect x="1748.87" y="561.54" width="31.59" height="3.11" fill="#cbd5e1" stroke-width="0"/>
          </g>
        </g>
      </g>
      <path d="m1825.14,393.02h0c-1.36,0-2.47-1.11-2.47-2.48h0c0-1.37,1.11-2.48,2.47-2.48h0c1.36,0,2.47,1.11,2.47,2.48h0c0,1.37-1.11,2.48-2.47,2.48Z" fill="#4f5569" stroke-width="0"/>
      <rect x="1834.97" y="388.05" width="29.68" height="4.96" fill="#f5ab35" stroke-width="0"/>
      <rect x="1871.99" y="388.05" width="54.14" height="4.96" fill="#f43f5e" stroke-width="0"/>
      <path d="m1825.14,407.62h0c-1.36,0-2.47-1.11-2.47-2.48h0c0-1.37,1.11-2.48,2.47-2.48h0c1.36,0,2.47,1.11,2.47,2.48h0c0,1.37-1.11,2.48-2.47,2.48Z" fill="#4f5569" stroke-width="0"/>
      <rect x="1834.97" y="402.66" width="73.98" height="4.96" fill="#f97316" stroke-width="0"/>
      <rect x="1916.29" y="402.66" width="130.53" height="4.96" fill="#14b8a6" stroke-width="0"/>
      <path d="m1825.14,422.23h0c-1.36,0-2.47-1.11-2.47-2.48h0c0-1.37,1.11-2.48,2.47-2.48h0c1.36,0,2.47,1.11,2.47,2.48h0c0,1.37-1.11,2.48-2.47,2.48Z" fill="#4f5569" stroke-width="0"/>
      <rect x="1834.97" y="417.27" width="29.68" height="4.96" fill="#f97316" stroke-width="0"/>
      <path d="m1825.14,436.84h0c-1.36,0-2.47-1.11-2.47-2.48h0c0-1.37,1.11-2.48,2.47-2.48h0c1.36,0,2.47,1.11,2.47,2.48h0c0,1.37-1.11,2.48-2.47,2.48Z" fill="#4f5569" stroke-width="0"/>
      <rect x="1834.97" y="431.87" width="17.18" height="4.96" fill="#f43f5e" stroke-width="0"/>
      <rect x="1859.49" y="431.87" width="49.47" height="4.96" fill="#e5e7eb" stroke-width="0"/>
      <path d="m1825.14,451.44h0c-1.36,0-2.47-1.11-2.47-2.48h0c0-1.37,1.11-2.48,2.47-2.48h0c1.36,0,2.47,1.11,2.47,2.48h0c0,1.37-1.11,2.48-2.47,2.48Z" fill="#4f5569" stroke-width="0"/>
      <rect x="1849.82" y="446.48" width="29.68" height="4.96" fill="#e5e7eb" stroke-width="0"/>
      <rect x="1886.83" y="446.48" width="65.33" height="4.96" fill="#06b6d4" stroke-width="0"/>
      <path d="m1825.14,466.05h0c-1.36,0-2.47-1.11-2.47-2.48h0c0-1.37,1.11-2.48,2.47-2.48h0c1.36,0,2.47,1.11,2.47,2.48h0c0,1.37-1.11,2.48-2.47,2.48Z" fill="#4f5569" stroke-width="0"/>
      <rect x="1849.82" y="461.09" width="222.51" height="4.96" fill="#14b8a6" stroke-width="0"/>
      <rect x="2081.33" y="461.09" width="30.04" height="4.96" fill="#f5ab35" stroke-width="0"/>
      <rect x="2081.33" y="460.67" width="30.04" height="4.96" fill="#f5ab35" stroke-width="0"/>
      <path d="m1825.14,480.65h0c-1.36,0-2.47-1.11-2.47-2.48h0c0-1.37,1.11-2.48,2.47-2.48h0c1.36,0,2.47,1.11,2.47,2.48h0c0,1.37-1.11,2.48-2.47,2.48Z" fill="#4f5569" stroke-width="0"/>
      <rect x="1866.86" y="475.69" width="306.64" height="4.96" fill="#06b6d4" stroke-width="0"/>
      <path d="m1825.14,495.26h0c-1.36,0-2.47-1.11-2.47-2.48h0c0-1.37,1.11-2.48,2.47-2.48h0c1.36,0,2.47,1.11,2.47,2.48h0c0,1.37-1.11,2.48-2.47,2.48Z" fill="#4f5569" stroke-width="0"/>
      <rect x="1866.86" y="490.3" width="185.12" height="4.96" fill="#06b6d4" stroke-width="0"/>
      <rect x="2059.88" y="490.3" width="51.49" height="4.96" fill="#14b8a6" stroke-width="0"/>
      <path d="m1825.14,509.87h0c-1.36,0-2.47-1.11-2.47-2.48h0c0-1.37,1.11-2.48,2.47-2.48h0c1.36,0,2.47,1.11,2.47,2.48h0c0,1.37-1.11,2.48-2.47,2.48Z" fill="#4f5569" stroke-width="0"/>
      <rect x="1849.82" y="504.9" width="17.05" height="4.96" fill="#f43f5e" stroke-width="0"/>
      <path d="m1825.14,524.28h0c-1.36,0-2.47-1.11-2.47-2.48h0c0-1.37,1.11-2.48,2.47-2.48h0c1.36,0,2.47,1.11,2.47,2.48h0c0,1.37-1.11,2.48-2.47,2.48Z" fill="#4f5569" stroke-width="0"/>
      <rect x="1849.82" y="519.32" width="29.68" height="4.96" fill="#e5e7eb" stroke-width="0"/>
      <rect x="1886.83" y="519.32" width="65.33" height="4.96" fill="#06b6d4" stroke-width="0"/>
      <path d="m1825.14,538.89h0c-1.36,0-2.47-1.11-2.47-2.48h0c0-1.37,1.11-2.48,2.47-2.48h0c1.36,0,2.47,1.11,2.47,2.48h0c0,1.37-1.11,2.48-2.47,2.48Z" fill="#4f5569" stroke-width="0"/>
      <rect x="1849.82" y="533.92" width="222.51" height="4.96" fill="#14b8a6" stroke-width="0"/>
      <rect x="2081.33" y="533.92" width="30.04" height="4.96" fill="#f5ab35" stroke-width="0"/>
      <rect x="2081.33" y="533.51" width="30.04" height="4.96" fill="#f5ab35" stroke-width="0"/>
      <path d="m1825.14,553.49h0c-1.36,0-2.47-1.11-2.47-2.48h0c0-1.37,1.11-2.48,2.47-2.48h0c1.36,0,2.47,1.11,2.47,2.48h0c0,1.37-1.11,2.48-2.47,2.48Z" fill="#4f5569" stroke-width="0"/>
      <rect x="1866.86" y="548.53" width="306.64" height="4.96" fill="#f43f5e" stroke-width="0"/>
      <path d="m1825.14,568.1h0c-1.36,0-2.47-1.11-2.47-2.48h0c0-1.37,1.11-2.48,2.47-2.48h0c1.36,0,2.47,1.11,2.47,2.48h0c0,1.37-1.11,2.48-2.47,2.48Z" fill="#4f5569" stroke-width="0"/>
      <rect x="1866.86" y="563.14" width="55.25" height="4.96" fill="#06b6d4" stroke-width="0"/>
      <rect x="1931.8" y="563.14" width="120.18" height="4.96" fill="#e5e7eb" stroke-width="0"/>
      <rect x="2059.88" y="563.14" width="51.49" height="4.96" fill="#14b8a6" stroke-width="0"/>
      <path d="m1825.14,582.71h0c-1.36,0-2.47-1.11-2.47-2.48h0c0-1.37,1.11-2.48,2.47-2.48h0c1.36,0,2.47,1.11,2.47,2.48h0c0,1.37-1.11,2.48-2.47,2.48Z" fill="#4f5569" stroke-width="0"/>
      <rect x="1849.82" y="577.74" width="17.05" height="4.96" fill="#f5ab35" stroke-width="0"/>
      <path d="m1825.14,597.12h0c-1.36,0-2.47-1.11-2.47-2.48h0c0-1.37,1.11-2.48,2.47-2.48h0c1.36,0,2.47,1.11,2.47,2.48h0c0,1.37-1.11,2.48-2.47,2.48Z" fill="#4f5569" stroke-width="0"/>
      <rect x="1849.82" y="592.16" width="29.68" height="4.96" fill="#e5e7eb" stroke-width="0"/>
      <rect x="1886.83" y="592.16" width="65.33" height="4.96" fill="#06b6d4" stroke-width="0"/>
      <path d="m1825.14,611.73h0c-1.36,0-2.47-1.11-2.47-2.48h0c0-1.37,1.11-2.48,2.47-2.48h0c1.36,0,2.47,1.11,2.47,2.48h0c0,1.37-1.11,2.48-2.47,2.48Z" fill="#4f5569" stroke-width="0"/>
      <rect x="1849.82" y="606.76" width="222.51" height="4.96" fill="#14b8a6" stroke-width="0"/>
      <rect x="2081.33" y="606.76" width="30.04" height="4.96" fill="#f5ab35" stroke-width="0"/>
      <rect x="2081.33" y="606.35" width="30.04" height="4.96" fill="#14b8a6" stroke-width="0"/>
      <path d="m1825.14,626.33h0c-1.36,0-2.47-1.11-2.47-2.48h0c0-1.37,1.11-2.48,2.47-2.48h0c1.36,0,2.47,1.11,2.47,2.48h0c0,1.37-1.11,2.48-2.47,2.48Z" fill="#4f5569" stroke-width="0"/>
      <rect x="1866.86" y="621.37" width="306.64" height="4.96" fill="#06b6d4" stroke-width="0"/>
      <path d="m1825.14,640.94h0c-1.36,0-2.47-1.11-2.47-2.48h0c0-1.37,1.11-2.48,2.47-2.48h0c1.36,0,2.47,1.11,2.47,2.48h0c0,1.37-1.11,2.48-2.47,2.48Z" fill="#4f5569" stroke-width="0"/>
      <rect x="1866.86" y="635.98" width="185.12" height="4.96" fill="#e5e7eb" stroke-width="0"/>
      <rect x="2059.88" y="635.98" width="51.49" height="4.96" fill="#ef4444" stroke-width="0"/>
      <rect x="2122.02" y="635.98" width="51.49" height="4.96" fill="#e5e7eb" stroke-width="0"/>
      <path d="m1825.14,655.55h0c-1.36,0-2.47-1.11-2.47-2.48h0c0-1.37,1.11-2.48,2.47-2.48h0c1.36,0,2.47,1.11,2.47,2.48h0c0,1.37-1.11,2.48-2.47,2.48Z" fill="#4f5569" stroke-width="0"/>
      <rect x="1849.82" y="650.58" width="17.05" height="4.96" fill="#f5ab35" stroke-width="0"/>
    </g>
    <g id="device-3" data-name="device">
      <path d="m2250.28,347.64c7.77,0,14.07,6.3,14.07,14.07v360.83h-567.92v-360.83c0-7.77,6.3-14.07,14.07-14.07h539.78m0-3.54h-539.78c-9.71,0-17.61,7.9-17.61,17.61v364.37h574.99v-364.37c0-9.71-7.9-17.61-17.61-17.61h0Z" fill="#94a3b8" stroke-width="0"/>
      <path d="m2250.28,347.64h-539.78c-7.77,0-14.07,6.3-14.07,14.07v360.83h567.92v-360.83c0-7.77-6.3-14.07-14.07-14.07Zm1.69,362.52h-543.15v-348.45c0-.93.76-1.69,1.68-1.69h238.81v2.98c0,2.51,2.04,4.55,4.55,4.55h53.06c2.51,0,4.55-2.04,4.55-4.55v-2.98h238.81c.93,0,1.69.76,1.69,1.69v348.45Z" fill="#020617" stroke-width="0"/>
      <path d="m1661.4,722.72h636.91v20.37c0,3.4-2.76,6.17-6.17,6.17h-624.58c-3.4,0-6.17-2.76-6.17-6.17v-20.37h0Z" fill="#94a3b8" stroke-width="0"/>
      <path d="m1929.43,722.72h92v6.3c0,3.2-2.59,5.79-5.79,5.79h-80.42c-3.2,0-5.79-2.59-5.79-5.79v-6.3h0Z" fill="#64748b" stroke-width="0"/>
      <path d="m1980.39,355.78c.73,0,1.33.6,1.33,1.33s-.6,1.33-1.33,1.33-1.33-.6-1.33-1.33.6-1.33,1.33-1.33m0-2.21c-1.95,0-3.54,1.58-3.54,3.54s1.58,3.54,3.54,3.54,3.54-1.58,3.54-3.54-1.58-3.54-3.54-3.54h0Z" fill="#1e293b" stroke-width="0"/>
    </g>
  </g>
  <g id="cup">
    <path d="m690.55,673.54h-36.56c-2.19,0-4.22.93-5.66,2.36-1.52,1.52-2.45,3.55-2.45,5.74v14.52c0,3.8,1.6,7.26,4.14,9.79,2.53,2.53,5.99,4.14,9.79,4.14h30.73c3.8,0,7.26-1.6,9.79-4.14,2.53-2.53,4.05-5.99,4.05-9.79v-8.78c0-3.8-1.52-7.26-4.05-9.79-2.53-2.53-5.99-4.05-9.79-4.05h0Zm-36.56-12.24h36.56c7.18,0,13.68,2.95,18.41,7.68,4.73,4.73,7.68,11.23,7.68,18.41v8.78c0,7.18-2.96,13.76-7.68,18.49-4.73,4.73-11.23,7.68-18.41,7.68h-30.73c-7.18,0-13.76-2.96-18.49-7.68-4.73-4.73-7.68-11.31-7.68-18.49v-14.52c0-5.57,2.28-10.72,5.99-14.35,3.71-3.72,8.78-5.99,14.35-5.99h0Z" fill="#0d43a7" stroke-width="0"/>
    <path d="m661.08,661.3h29.47c7.18,0,13.68,2.95,18.41,7.68,4.73,4.73,7.68,11.23,7.68,18.41v8.78c0,7.18-2.96,13.76-7.68,18.49-4.73,4.73-11.23,7.68-18.41,7.68h-26c-1.18-4.14-2.11-8.19-2.87-12.24h28.87c3.8,0,7.26-1.6,9.79-4.14,2.53-2.53,4.05-5.99,4.05-9.79v-8.78c0-3.8-1.52-7.26-4.05-9.79-2.53-2.53-5.99-4.05-9.79-4.05h-30.56c.25-4.73.68-8.86,1.1-12.24h0Z" fill="#0a3480" stroke-width="0"/>
    <path d="m751.76,749.28h-44.58c-40.69-15.45-37.91-61.38-37.91-98.27h164.89c0,36.89,2.79,82.82-37.91,98.27h-44.49Z" fill="#255cc0" fill-rule="evenodd" stroke-width="0"/>
    <path d="m725.5,749.28h-18.32c-40.69-15.45-37.91-61.38-37.91-98.27h33.86c0,36.89-1.69,82.82,22.37,98.27h0Z" fill="#0d43a7" fill-rule="evenodd" stroke-width="0"/>
    <path d="m818.54,686.21c.17-1.69,1.6-2.95,3.29-2.87,1.69.09,2.96,1.52,2.87,3.21-.59,9.54-1.94,19-5.07,27.44-3.21,8.7-8.27,16.38-16.13,22.29-1.27,1.01-3.21.76-4.22-.59-1.01-1.35-.76-3.29.59-4.31,6.75-5.07,11.14-11.82,14.01-19.5,2.87-7.85,4.14-16.63,4.64-25.67h0Zm.42-22.46c0-1.69,1.35-3.04,3.04-3.04s3.04,1.35,3.04,3.04v.25c0,4.05.08,8.19,0,12.33,0,1.69-1.44,3.04-3.12,3.04s-3.04-1.44-2.95-3.12v-12.5h0Z" fill="#6c92d8" stroke-width="0"/>
  </g>
</svg>