<?xml version="1.0" encoding="UTF-8"?>
<svg xmlns="http://www.w3.org/2000/svg" xmlns:xlink="http://www.w3.org/1999/xlink" viewBox="0 0 1920 1080">
  <defs>
    <clipPath id="clippath">
      <rect x="-1940" y="-36" width="1920" height="1152" fill="none" stroke-width="0"/>
    </clipPath>
    <linearGradient id="linear-gradient" x1="-483.91" y1="436.58" x2="-254.94" y2="1445.93" gradientUnits="userSpaceOnUse">
      <stop offset="0" stop-color="#f1f5f9"/>
      <stop offset="1" stop-color="#cbd5e1"/>
    </linearGradient>
    <linearGradient id="linear-gradient-2" x1="-645.86" y1="438.93" x2="106.48" y2="1541.74" xlink:href="#linear-gradient"/>
    <linearGradient id="linear-gradient-3" x1="-340.41" y1="296.56" x2="304.45" y2="-680.07" xlink:href="#linear-gradient"/>
    <linearGradient id="linear-gradient-4" x1="-531.08" y1="651.77" x2="34.34" y2="1352.7" xlink:href="#linear-gradient"/>
    <linearGradient id="linear-gradient-5" x1="-217.33" y1="177.86" x2="217.25" y2="-364.2" xlink:href="#linear-gradient"/>
    <clipPath id="clippath-1">
      <rect y="-36" width="1920" height="1152" fill="none" stroke-width="0"/>
    </clipPath>
    <linearGradient id="linear-gradient-6" x1="739.49" y1="-364.31" x2="1202.11" y2="1532.89" gradientUnits="userSpaceOnUse">
      <stop offset="0" stop-color="#334155"/>
      <stop offset="1" stop-color="#0f172a"/>
    </linearGradient>
    <linearGradient id="linear-gradient-7" x1="973.91" y1="598.78" x2="-558.8" y2="-373.19" xlink:href="#linear-gradient-6"/>
    <linearGradient id="linear-gradient-8" x1="665.56" y1="655.15" x2="-371.82" y2="-681.29" xlink:href="#linear-gradient-6"/>
    <linearGradient id="linear-gradient-9" x1="477.37" y1="572.92" x2="-349.73" y2="-525.21" xlink:href="#linear-gradient-6"/>
    <linearGradient id="linear-gradient-10" x1="502.34" y1="664.18" x2="19.47" y2="1720.26" xlink:href="#linear-gradient-6"/>
    <linearGradient id="linear-gradient-11" x1="286.99" y1="837.45" x2="-198.99" y2="1339" xlink:href="#linear-gradient-6"/>
    <linearGradient id="linear-gradient-12" x1="1456.09" y1="436.58" x2="1685.06" y2="1445.93" xlink:href="#linear-gradient-6"/>
    <linearGradient id="linear-gradient-13" x1="1294.14" y1="438.93" x2="2046.48" y2="1541.74" xlink:href="#linear-gradient-6"/>
    <linearGradient id="linear-gradient-14" x1="1599.59" y1="296.56" x2="2244.45" y2="-680.07" xlink:href="#linear-gradient-6"/>
    <linearGradient id="linear-gradient-15" x1="1408.92" y1="651.77" x2="1974.34" y2="1352.7" xlink:href="#linear-gradient-6"/>
    <linearGradient id="linear-gradient-16" x1="1722.67" y1="177.86" x2="2157.25" y2="-364.2" xlink:href="#linear-gradient-6"/>
  </defs>
  <g isolation="isolate">
    <g id="Layer_1" data-name="Layer 1">
      <g clip-path="url(#clippath)">
        <path d="m73.02,426.43c-42.72-27-102.27-6.94-135.9,30.78-33.63,37.73-47.9,88.35-62.17,136.83-14.27,48.48-30.85,98.89-67.41,133.78-50.2,47.9-126.69,55.56-195.68,48.17-68.99-7.39-137.1-27.13-206.41-23.9-109.87,5.11-214.69,72.73-264.64,170.72-49.95,97.99-43.1,222.54,17.3,314.46l912.72-9.77,2.2-801.07Z" fill="url(#linear-gradient)" stroke-width="0"/>
        <path d="m-674.25,1372.65c-34.33-57.1-68.89-114.67-91.42-177.38-22.53-62.71-32.49-131.66-16.36-196.31,16.13-64.65,61.27-124.03,124-146.51,102.03-36.55,212.42,29.24,320.68,24.16,107.08-5.02,205.67-88.25,228.58-192.97,9.52-43.52,7.81-91.22,31.7-128.82,32.3-50.82,111.08-63.77,157.94-25.96l-62.92,673.79-692.22,170Z" fill="url(#linear-gradient-2)" stroke-width="0"/>
        <path d="m77.57,286.58c-126.65,57.12-283.43,40.8-395.6-41.17-112.17-81.97-175.35-226.38-159.41-364.39L11.73-72.63l65.84,359.21Z" fill="url(#linear-gradient-3)" stroke-width="0"/>
        <path d="m70.82,696.47c-27.39-28.69-80.66-25.47-104.4,6.31-18.93,25.34-18.17,59.87-28.17,89.88-22,66.03-94.41,102.9-163.52,111.13-69.11,8.23-138.89-5.09-208.49-4.51-69.59.58-145.11,18.92-187.34,74.23-29.66,38.85-38.19,90.68-32.91,139.27,5.28,48.59,23.11,94.85,41.86,139.98l661.25-85.51,21.71-470.77Z" fill="url(#linear-gradient-4)" stroke-width="0"/>
        <path d="m133.59,156.23c-93.96,43.09-209.35,35.71-297.05-19C-251.16,82.53-308.53-17.86-311.15-121.2l357.15,2.21,87.59,275.22Z" fill="url(#linear-gradient-5)" stroke-width="0"/>
      </g>
      <g clip-path="url(#clippath-1)">
        <rect y="-36" width="1920" height="1152" fill="url(#linear-gradient-6)" stroke-width="0"/>
        <path d="m841.42-114.03c-73.48,55.13-93.24,156.28-96.88,248.07-3.64,91.79,2.32,188.34-39.06,270.36-31.41,62.26-88.62,109.95-153.83,134.65-65.21,24.7-137.81,27.18-205.93,12.28-71.43-15.62-138.49-49.69-211.06-58.56-72.58-8.87-158.16,17.31-184.79,85.4L-14-162.97l855.42,48.95Z" fill="url(#linear-gradient-7)" stroke-width="0"/>
        <path d="m632.18-185.5c-48.87,21.23-87.64,64.53-103.36,115.44-15.72,50.91-8.11,108.53,20.29,153.62,18.74,29.75,45.73,53.86,62.82,84.59,33.11,59.54,22.62,137.45-16.72,193.07-39.34,55.62-103.47,90.33-170.07,104.68-66.6,14.35-135.89,10.02-203.25-.21-51.21-7.78-102.31-18.95-154.1-18.16-51.79.8-105.69,15.12-142.63,51.42L-50.14-121.2l682.32-64.3Z" fill="url(#linear-gradient-8)" stroke-width="0"/>
        <path d="m-109.21,423.68c35.27-35.95,90.32-43.9,140.6-41.02,71.4,4.1,140.56,25.75,211.31,36.25,70.75,10.5,147.58,8.49,207.65-30.33,60.07-38.82,94.09-123.82,57.63-185.35-23.9-40.34-71.28-62.53-94.7-103.15-32.6-56.54.34-139.56,62.84-158.37L-31.1-72.63l-78.12,496.31Z" fill="url(#linear-gradient-9)" stroke-width="0"/>
        <path d="m748.42,1202.66c-43-75.1-124.89-126.47-211.22-132.48-54.38-3.79-117.57,6.36-155.9-32.41-31.14-31.5-30.57-81.11-39.81-124.42-16.5-77.3-72.33-145.13-145.03-176.18-72.69-31.05-160.3-24.5-227.56,17.03v409.94l779.51,38.53Z" fill="url(#linear-gradient-10)" stroke-width="0"/>
        <path d="m236.34,1227.5c29-92.94.66-201.28-70.13-268.12-70.79-66.84-180.58-88.91-271.71-54.63l55.36,297.91,286.48,24.84Z" fill="url(#linear-gradient-11)" stroke-width="0"/>
        <path d="m2013.02,426.43c-42.72-27-102.27-6.94-135.9,30.78-33.63,37.73-47.9,88.35-62.17,136.83-14.27,48.48-30.85,98.89-67.41,133.78-50.2,47.9-126.69,55.56-195.68,48.17-68.99-7.39-137.1-27.13-206.41-23.9-109.87,5.11-214.69,72.73-264.64,170.72-49.95,97.99-43.1,222.54,17.3,314.46l912.72-9.77,2.2-801.07Z" fill="url(#linear-gradient-12)" stroke-width="0"/>
        <path d="m1265.75,1372.65c-34.33-57.1-68.89-114.67-91.42-177.38-22.53-62.71-32.49-131.66-16.36-196.31,16.13-64.65,61.27-124.03,124-146.51,102.03-36.55,212.42,29.24,320.68,24.16,107.08-5.02,205.67-88.25,228.58-192.97,9.52-43.52,7.81-91.22,31.7-128.82,32.3-50.82,111.08-63.77,157.94-25.96l-62.92,673.79-692.22,170Z" fill="url(#linear-gradient-13)" stroke-width="0"/>
        <path d="m2017.57,286.58c-126.65,57.12-283.43,40.8-395.6-41.17-112.17-81.97-175.35-226.38-159.41-364.39l489.16,46.35,65.84,359.21Z" fill="url(#linear-gradient-14)" stroke-width="0"/>
        <path d="m2010.82,696.47c-27.39-28.69-80.66-25.47-104.4,6.31-18.93,25.34-18.17,59.87-28.17,89.88-22,66.03-94.41,102.9-163.52,111.13-69.11,8.23-138.89-5.09-208.49-4.51-69.59.58-145.11,18.92-187.34,74.23-29.66,38.85-38.19,90.68-32.91,139.27s23.11,94.85,41.86,139.98l661.25-85.51,21.71-470.77Z" fill="url(#linear-gradient-15)" stroke-width="0"/>
        <path d="m2073.59,156.23c-93.96,43.09-209.35,35.71-297.05-19-87.71-54.71-145.08-155.1-147.69-258.43l357.15,2.21,87.59,275.22Z" fill="url(#linear-gradient-16)" stroke-width="0"/>
        <rect y="-36" width="1920" height="1152" fill="url(#linear-gradient-6)" mix-blend-mode="overlay" opacity=".47" stroke-width="0"/>
        <g>
          <circle cx="91.42" cy="901.73" r="7.21" transform="translate(-204.73 45.13) rotate(-13.28)" fill="#cbd5e1" opacity=".2" stroke-width="0"/>
          <circle cx="137.12" cy="901.73" r="7.21" fill="#cbd5e1" opacity=".2" stroke-width="0"/>
          <circle cx="182.83" cy="901.73" r="7.21" transform="translate(-655.6 522.8) rotate(-54.22)" fill="#cbd5e1" opacity=".2" stroke-width="0"/>
          <circle cx="228.54" cy="901.73" r="7.21" transform="translate(-193.96 72.97) rotate(-12.79)" fill="#cbd5e1" opacity=".2" stroke-width="0"/>
          <circle cx="274.25" cy="901.73" r="7.21" transform="translate(-557.3 458.04) rotate(-45)" fill="#cbd5e1" opacity=".2" stroke-width="0"/>
          <circle cx="319.96" cy="901.73" r="7.21" transform="translate(-97.15 40.62) rotate(-6.31)" fill="#cbd5e1" opacity=".2" stroke-width="0"/>
          <circle cx="365.67" cy="901.73" r="7.21" transform="translate(-195.9 107.08) rotate(-13.17)" fill="#cbd5e1" opacity=".2" stroke-width="0"/>
          <circle cx="411.37" cy="901.73" r="7.21" transform="translate(-560.39 1096.76) rotate(-76.83)" fill="#cbd5e1" opacity=".2" stroke-width="0"/>
          <circle cx="91.42" cy="935.17" r="7.21" transform="translate(-634.49 338.55) rotate(-45)" fill="#cbd5e1" opacity=".2" stroke-width="0"/>
          <circle cx="137.12" cy="935.17" r="7.21" fill="#cbd5e1" opacity=".2" stroke-width="0"/>
          <circle cx="182.83" cy="935.17" r="7.21" transform="translate(-341.46 139.5) rotate(-22.32)" fill="#cbd5e1" opacity=".2" stroke-width="0"/>
          <circle cx="228.54" cy="935.17" r="7.21" transform="translate(-594.33 435.51) rotate(-45)" fill="#cbd5e1" opacity=".2" stroke-width="0"/>
          <circle cx="274.25" cy="935.17" r="7.21" transform="translate(-207.52 88.03) rotate(-13.28)" fill="#cbd5e1" opacity=".2" stroke-width="0"/>
          <circle cx="319.96" cy="935.17" r="7.21" transform="translate(-68.5 26.32) rotate(-4.25)" fill="#cbd5e1" opacity=".2" stroke-width="0"/>
          <circle cx="365.67" cy="935.17" r="7.21" transform="translate(-554.17 532.47) rotate(-45)" fill="#cbd5e1" opacity=".2" stroke-width="0"/>
          <circle cx="411.37" cy="935.17" r="7.21" transform="translate(-111.18 57.27) rotate(-7.02)" fill="#cbd5e1" opacity=".2" stroke-width="0"/>
          <circle cx="91.42" cy="968.61" r="7.21" transform="translate(-202.27 41.08) rotate(-12.18)" fill="#cbd5e1" opacity=".2" stroke-width="0"/>
          <circle cx="137.12" cy="968.61" r="7.21" fill="#cbd5e1" opacity=".2" stroke-width="0"/>
          <circle cx="182.83" cy="968.61" r="7.21" transform="translate(-733.28 604.77) rotate(-57.65)" fill="#cbd5e1" opacity=".2" stroke-width="0"/>
          <circle cx="228.54" cy="968.61" r="7.21" transform="translate(-192.15 66.69) rotate(-11.73)" fill="#cbd5e1" opacity=".2" stroke-width="0"/>
          <circle cx="274.25" cy="968.61" r="7.21" transform="translate(-653.99 579.01) rotate(-51.42)" fill="#cbd5e1" opacity=".2" stroke-width="0"/>
          <circle cx="319.96" cy="968.61" r="7.21" transform="translate(-109.83 43.48) rotate(-6.64)" fill="#cbd5e1" opacity=".2" stroke-width="0"/>
          <circle cx="365.67" cy="968.61" r="7.21" transform="translate(-194.7 98.03) rotate(-12.09)" fill="#cbd5e1" opacity=".2" stroke-width="0"/>
          <circle cx="411.37" cy="968.61" r="7.21" transform="translate(-75.72 35.78) rotate(-4.56)" fill="#cbd5e1" opacity=".2" stroke-width="0"/>
          <circle cx="91.42" cy="1002.05" r="7.21" transform="translate(-551.58 228.09) rotate(-34.51)" fill="#cbd5e1" opacity=".2" stroke-width="0"/>
          <circle cx="137.12" cy="1002.05" r="7.21" fill="#cbd5e1" opacity=".2" stroke-width="0"/>
          <circle cx="182.83" cy="1002.05" r="7.21" transform="translate(-430.32 188.68) rotate(-26.67)" fill="#cbd5e1" opacity=".2" stroke-width="0"/>
          <circle cx="228.54" cy="1002.05" r="7.21" transform="translate(-515.07 292.56) rotate(-33.5)" fill="#cbd5e1" opacity=".2" stroke-width="0"/>
          <circle cx="274.25" cy="1002.05" r="7.21" transform="translate(-265.94 114.63) rotate(-16.02)" fill="#cbd5e1" opacity=".2" stroke-width="0"/>
          <circle cx="319.96" cy="1002.05" r="7.21" transform="translate(-78.51 28.55) rotate(-4.55)" fill="#cbd5e1" opacity=".2" stroke-width="0"/>
          <circle cx="365.67" cy="1002.05" r="7.21" transform="translate(-498.22 376.34) rotate(-34.04)" fill="#cbd5e1" opacity=".2" stroke-width="0"/>
          <circle cx="411.37" cy="1002.05" r="7.21" transform="translate(-109.11 52.09) rotate(-6.4)" fill="#cbd5e1" opacity=".2" stroke-width="0"/>
          <circle cx="91.42" cy="1035.49" r="7.21" transform="translate(-302.58 73.53) rotate(-17.23)" fill="#cbd5e1" opacity=".2" stroke-width="0"/>
          <circle cx="137.12" cy="1035.49" r="7.21" fill="#cbd5e1" opacity=".2" stroke-width="0"/>
          <circle cx="182.83" cy="1035.49" r="7.21" transform="translate(-670.01 420.41) rotate(-44.19)" fill="#cbd5e1" opacity=".2" stroke-width="0"/>
          <circle cx="228.54" cy="1035.49" r="7.21" transform="translate(-286.01 108.29) rotate(-16.58)" fill="#cbd5e1" opacity=".2" stroke-width="0"/>
          <circle cx="274.25" cy="1035.49" r="7.21" transform="translate(-496.51 291.59) rotate(-31.18)" fill="#cbd5e1" opacity=".2" stroke-width="0"/>
          <circle cx="319.96" cy="1035.49" r="7.21" transform="translate(-99.29 36.07) rotate(-5.59)" fill="#cbd5e1" opacity=".2" stroke-width="0"/>
          <circle cx="365.67" cy="1035.49" r="7.21" transform="translate(-287.62 152.79) rotate(-17.06)" fill="#cbd5e1" opacity=".2" stroke-width="0"/>
          <circle cx="411.37" cy="1035.49" r="7.21" transform="translate(-91.71 41.32) rotate(-5.17)" fill="#cbd5e1" opacity=".2" stroke-width="0"/>
          <circle cx="1750.76" cy="894.53" r="7.21" transform="translate(-119.74 1499.98) rotate(-45)" fill="#cbd5e1" opacity=".2" stroke-width="0"/>
          <circle cx="1796.47" cy="894.53" r="7.21" transform="translate(-67.66 151.22) rotate(-4.73)" fill="#cbd5e1" opacity=".2" stroke-width="0"/>
          <circle cx="1750.76" cy="927.97" r="7.21" transform="translate(-155.14 385.91) rotate(-12.05)" fill="#cbd5e1" opacity=".2" stroke-width="0"/>
          <circle cx="1796.47" cy="927.97" r="7.21" transform="translate(666.95 2605.05) rotate(-83.36)" fill="#cbd5e1" opacity=".2" stroke-width="0"/>
          <circle cx="1750.76" cy="961.4" r="7.21" transform="translate(-240.65 1115.44) rotate(-33.2)" fill="#cbd5e1" opacity=".2" stroke-width="0"/>
          <circle cx="1796.47" cy="961.4" r="7.21" transform="translate(505.68 2537.94) rotate(-78.85)" fill="#cbd5e1" opacity=".2" stroke-width="0"/>
          <circle cx="1750.76" cy="994.84" r="7.21" transform="translate(-221.68 589.43) rotate(-17.99)" fill="#cbd5e1" opacity=".2" stroke-width="0"/>
          <circle cx="1796.47" cy="994.84" r="7.21" transform="translate(554.23 2630.03) rotate(-81.75)" fill="#cbd5e1" opacity=".2" stroke-width="0"/>
          <circle cx="1750.76" cy="1028.28" r="7.21" transform="translate(136.53 2259.86) rotate(-67.77)" fill="#cbd5e1" opacity=".2" stroke-width="0"/>
          <circle cx="1796.47" cy="1028.28" r="7.21" transform="translate(152.94 2286.65) rotate(-67.23)" fill="#cbd5e1" opacity=".2" stroke-width="0"/>
          <path d="m121.48,81.84c-3.98,0-7.21,3.23-7.21,7.21s3.23,7.21,7.21,7.21,7.21-3.23,7.21-7.21-3.23-7.21-7.21-7.21Z" fill="#cbd5e1" opacity=".2" stroke-width="0"/>
          <circle cx="167.19" cy="89.04" r="7.21" fill="#cbd5e1" opacity=".2" stroke-width="0"/>
          <path d="m121.48,115.27c-3.98,0-7.21,3.23-7.21,7.21s3.23,7.21,7.21,7.21,7.21-3.23,7.21-7.21-3.23-7.21-7.21-7.21Z" fill="#cbd5e1" opacity=".2" stroke-width="0"/>
          <circle cx="167.19" cy="122.48" r="7.21" fill="#cbd5e1" opacity=".2" stroke-width="0"/>
          <path d="m121.48,148.71c-3.98,0-7.21,3.23-7.21,7.21s3.23,7.21,7.21,7.21,7.21-3.23,7.21-7.21-3.23-7.21-7.21-7.21Z" fill="#cbd5e1" opacity=".2" stroke-width="0"/>
          <circle cx="167.19" cy="155.92" r="7.21" fill="#cbd5e1" opacity=".2" stroke-width="0"/>
          <path d="m121.48,182.15c-3.98,0-7.21,3.23-7.21,7.21s3.23,7.21,7.21,7.21,7.21-3.23,7.21-7.21-3.23-7.21-7.21-7.21Z" fill="#cbd5e1" opacity=".2" stroke-width="0"/>
          <circle cx="167.19" cy="189.36" r="7.21" fill="#cbd5e1" opacity=".2" stroke-width="0"/>
          <path d="m121.48,215.59c-3.98,0-7.21,3.23-7.21,7.21s3.23,7.21,7.21,7.21,7.21-3.23,7.21-7.21-3.23-7.21-7.21-7.21Z" fill="#cbd5e1" opacity=".2" stroke-width="0"/>
          <circle cx="167.19" cy="222.8" r="7.21" fill="#cbd5e1" opacity=".2" stroke-width="0"/>
          <circle cx="1508.63" cy="44.51" r="7.21" transform="translate(890.18 1421.27) rotate(-67.5)" fill="#cbd5e1" opacity=".2" stroke-width="0"/>
          <circle cx="1554.33" cy="44.51" r="7.21" transform="translate(918.39 1463.49) rotate(-67.5)" fill="#cbd5e1" opacity=".2" stroke-width="0"/>
          <circle cx="1600.04" cy="44.51" r="7.21" transform="translate(13.53 256.87) rotate(-9.22)" fill="#cbd5e1" opacity=".2" stroke-width="0"/>
          <circle cx="1645.75" cy="44.51" r="7.21" transform="translate(974.83 1547.95) rotate(-67.5)" fill="#cbd5e1" opacity=".2" stroke-width="0"/>
          <path d="m1691.46,37.3c-3.98,0-7.21,3.23-7.21,7.21s3.23,7.21,7.21,7.21,7.21-3.23,7.21-7.21-3.23-7.21-7.21-7.21Z" fill="#cbd5e1" opacity=".2" stroke-width="0"/>
          <circle cx="1737.17" cy="44.51" r="7.21" fill="#cbd5e1" opacity=".2" stroke-width="0"/>
          <circle cx="1782.88" cy="44.51" r="7.21" transform="translate(1059.47 1674.64) rotate(-67.5)" fill="#cbd5e1" opacity=".2" stroke-width="0"/>
          <circle cx="1828.58" cy="44.51" r="7.21" transform="translate(1087.69 1716.87) rotate(-67.5)" fill="#cbd5e1" opacity=".2" stroke-width="0"/>
          <circle cx="1508.63" cy="77.95" r="7.21" transform="translate(22.45 348.7) rotate(-13.28)" fill="#cbd5e1" opacity=".2" stroke-width="0"/>
          <circle cx="1554.33" cy="77.95" r="7.21" transform="translate(23.67 359.2) rotate(-13.28)" fill="#cbd5e1" opacity=".2" stroke-width="0"/>
          <circle cx="1600.04" cy="77.95" r="7.21" transform="translate(413.52 1154.23) rotate(-45)" fill="#cbd5e1" opacity=".2" stroke-width="0"/>
          <circle cx="1645.75" cy="77.95" r="7.21" transform="translate(26.12 380.2) rotate(-13.28)" fill="#cbd5e1" opacity=".2" stroke-width="0"/>
          <path d="m1691.46,70.74c-3.98,0-7.21,3.23-7.21,7.21s3.23,7.21,7.21,7.21,7.21-3.23,7.21-7.21-3.23-7.21-7.21-7.21Z" fill="#cbd5e1" opacity=".2" stroke-width="0"/>
          <circle cx="1737.17" cy="77.95" r="7.21" fill="#cbd5e1" opacity=".2" stroke-width="0"/>
          <circle cx="1782.88" cy="77.95" r="7.21" transform="translate(29.78 411.71) rotate(-13.28)" fill="#cbd5e1" opacity=".2" stroke-width="0"/>
          <circle cx="1828.58" cy="77.95" r="7.21" transform="translate(-.2 151.09) rotate(-4.73)" fill="#cbd5e1" opacity=".2" stroke-width="0"/>
          <circle cx="1508.63" cy="111.39" r="7.21" transform="translate(14.77 349.59) rotate(-13.28)" fill="#cbd5e1" opacity=".2" stroke-width="0"/>
          <circle cx="1554.33" cy="111.39" r="7.21" transform="translate(15.99 360.09) rotate(-13.28)" fill="#cbd5e1" opacity=".2" stroke-width="0"/>
          <circle cx="1600.04" cy="111.39" r="7.21" transform="translate(389.88 1164.03) rotate(-45)" fill="#cbd5e1" opacity=".2" stroke-width="0"/>
          <circle cx="1645.75" cy="111.39" r="7.21" transform="translate(18.43 381.1) rotate(-13.28)" fill="#cbd5e1" opacity=".2" stroke-width="0"/>
          <path d="m1691.46,104.18c-3.98,0-7.21,3.23-7.21,7.21s3.23,7.21,7.21,7.21,7.21-3.23,7.21-7.21-3.23-7.21-7.21-7.21Z" fill="#cbd5e1" opacity=".2" stroke-width="0"/>
          <circle cx="1737.17" cy="111.39" r="7.21" fill="#cbd5e1" opacity=".2" stroke-width="0"/>
          <circle cx="1782.88" cy="111.39" r="7.21" transform="translate(22.1 412.6) rotate(-13.28)" fill="#cbd5e1" opacity=".2" stroke-width="0"/>
          <circle cx="1828.58" cy="111.39" r="7.21" transform="translate(-2.96 151.2) rotate(-4.73)" fill="#cbd5e1" opacity=".2" stroke-width="0"/>
          <circle cx="1508.63" cy="144.83" r="7.21" transform="translate(339.46 1109.18) rotate(-45)" fill="#cbd5e1" opacity=".2" stroke-width="0"/>
          <circle cx="1554.33" cy="144.83" r="7.21" transform="translate(352.85 1141.5) rotate(-45)" fill="#cbd5e1" opacity=".2" stroke-width="0"/>
          <circle cx="1600.04" cy="144.83" r="7.21" transform="translate(9.53 371.49) rotate(-13.28)" fill="#cbd5e1" opacity=".2" stroke-width="0"/>
          <circle cx="1645.75" cy="144.83" r="7.21" transform="translate(379.62 1206.14) rotate(-45)" fill="#cbd5e1" opacity=".2" stroke-width="0"/>
          <path d="m1691.46,137.62c-3.98,0-7.21,3.23-7.21,7.21s3.23,7.21,7.21,7.21,7.21-3.23,7.21-7.21-3.23-7.21-7.21-7.21Z" fill="#cbd5e1" opacity=".2" stroke-width="0"/>
          <circle cx="1737.17" cy="144.83" r="7.21" fill="#cbd5e1" opacity=".2" stroke-width="0"/>
          <circle cx="1782.88" cy="144.83" r="7.21" transform="translate(419.78 1303.1) rotate(-45)" fill="#cbd5e1" opacity=".2" stroke-width="0"/>
          <circle cx="1828.58" cy="144.83" r="7.21" transform="translate(-3.99 224.51) rotate(-7.02)" fill="#cbd5e1" opacity=".2" stroke-width="0"/>
          <circle cx="1508.63" cy="178.27" r="7.21" transform="translate(-.6 351.38) rotate(-13.28)" fill="#cbd5e1" opacity=".2" stroke-width="0"/>
          <circle cx="1554.33" cy="178.27" r="7.21" transform="translate(.62 361.88) rotate(-13.28)" fill="#cbd5e1" opacity=".2" stroke-width="0"/>
          <circle cx="1600.04" cy="178.27" r="7.21" transform="translate(342.59 1183.61) rotate(-45)" fill="#cbd5e1" opacity=".2" stroke-width="0"/>
          <circle cx="1645.75" cy="178.27" r="7.21" transform="translate(3.07 382.89) rotate(-13.28)" fill="#cbd5e1" opacity=".2" stroke-width="0"/>
          <path d="m1691.46,171.06c-3.98,0-7.21,3.23-7.21,7.21s3.23,7.21,7.21,7.21,7.21-3.23,7.21-7.21-3.23-7.21-7.21-7.21Z" fill="#cbd5e1" opacity=".2" stroke-width="0"/>
          <circle cx="1737.17" cy="178.27" r="7.21" fill="#cbd5e1" opacity=".2" stroke-width="0"/>
          <circle cx="1782.88" cy="178.27" r="7.21" transform="translate(6.74 414.39) rotate(-13.28)" fill="#cbd5e1" opacity=".2" stroke-width="0"/>
          <circle cx="1828.58" cy="178.27" r="7.21" transform="translate(-8.47 151.43) rotate(-4.73)" fill="#cbd5e1" opacity=".2" stroke-width="0"/>
          <path d="m274.25,522.48c-15.58,0-28.25-12.67-28.25-28.25s12.67-28.25,28.25-28.25,28.25,12.67,28.25,28.25-12.67,28.25-28.25,28.25Zm0-47.95c-10.87,0-19.7,8.84-19.7,19.7s8.84,19.7,19.7,19.7,19.7-8.84,19.7-19.7-8.84-19.7-19.7-19.7Z" fill="#cbd5e1" opacity=".2" stroke-width="0"/>
          <path d="m1217.94,199.27c-16.62.76-30.31-12.92-29.54-29.54.67-14.49,12.4-26.22,26.89-26.89,16.62-.76,30.31,12.92,29.54,29.54-.67,14.49-12.4,26.22-26.89,26.89Zm-.04-47.88c-11.88-.76-21.71,9.07-20.95,20.95.63,9.82,8.56,17.75,18.38,18.38,11.88.76,21.71-9.07,20.95-20.95-.63-9.82-8.56-17.75-18.38-18.38Z" fill="#cbd5e1" opacity=".2" stroke-width="0"/>
          <path d="m1455.04,801.47c-18.69,0-33.9-15.21-33.9-33.9s15.21-33.9,33.9-33.9,33.9,15.21,33.9,33.9-15.21,33.9-33.9,33.9Zm0-57.54c-13.04,0-23.65,10.61-23.65,23.65s10.61,23.65,23.65,23.65,23.65-10.61,23.65-23.65-10.61-23.65-23.65-23.65Z" fill="#cbd5e1" opacity=".2" stroke-width="0"/>
          <path d="m619.93,137.62l9.24-9.24c1.35-1.35,1.35-3.54,0-4.89-1.35-1.35-3.54-1.35-4.89,0l-9.24,9.24-9.24-9.24c-1.35-1.35-3.54-1.35-4.89,0-1.35,1.35-1.35,3.54,0,4.89l9.24,9.24-9.24,9.24c-1.35,1.35-1.35,3.54,0,4.89.67.67,1.56,1.01,2.44,1.01s1.77-.34,2.44-1.01l9.24-9.24,9.24,9.24c.67.67,1.56,1.01,2.44,1.01s1.77-.34,2.44-1.01c1.35-1.35,1.35-3.54,0-4.89l-9.24-9.24Z" fill="#cbd5e1" opacity=".2" stroke-width="0"/>
          <path d="m924.75,862.9l9.24-9.24c1.35-1.35,1.35-3.54,0-4.89-1.35-1.35-3.54-1.35-4.89,0l-9.24,9.24-9.24-9.24c-1.35-1.35-3.54-1.35-4.89,0-1.35,1.35-1.35,3.54,0,4.89l9.24,9.24-9.24,9.24c-1.35,1.35-1.35,3.54,0,4.89.67.67,1.56,1.01,2.44,1.01s1.77-.34,2.44-1.01l9.24-9.24,9.24,9.24c.67.67,1.56,1.01,2.44,1.01s1.77-.34,2.44-1.01c1.35-1.35,1.35-3.54,0-4.89l-9.24-9.24Z" fill="#cbd5e1" opacity=".2" stroke-width="0"/>
          <path d="m1459.93,277.84l9.24-9.24c1.35-1.35,1.35-3.54,0-4.89-1.35-1.35-3.54-1.35-4.89,0l-9.24,9.24-9.24-9.24c-1.35-1.35-3.54-1.35-4.89,0-1.35,1.35-1.35,3.54,0,4.89l9.24,9.24-9.24,9.24c-1.35,1.35-1.35,3.54,0,4.89.67.67,1.56,1.01,2.44,1.01s1.77-.34,2.44-1.01l9.24-9.24,9.24,9.24c.67.67,1.56,1.01,2.44,1.01s1.77-.34,2.44-1.01c1.35-1.35,1.35-3.54,0-4.89l-9.24-9.24Z" fill="#cbd5e1" opacity=".2" stroke-width="0"/>
          <path d="m438.61,755.81l9.24-9.24c1.35-1.35,1.35-3.54,0-4.89-1.35-1.35-3.54-1.35-4.89,0l-9.24,9.24-9.24-9.24c-1.35-1.35-3.54-1.35-4.89,0-1.35,1.35-1.35,3.54,0,4.89l9.24,9.24-9.24,9.24c-1.35,1.35-1.35,3.54,0,4.89.67.67,1.56,1.01,2.44,1.01s1.77-.34,2.44-1.01l9.24-9.24,9.24,9.24c.67.67,1.56,1.01,2.44,1.01s1.77-.34,2.44-1.01c1.35-1.35,1.35-3.54,0-4.89l-9.24-9.24Z" fill="#cbd5e1" opacity=".2" stroke-width="0"/>
        </g>
      </g>
    </g>
  </g>
</svg>