<?xml version="1.0" encoding="UTF-8"?>
<svg id="Tablet" xmlns="http://www.w3.org/2000/svg" viewBox="0 0 768 1024">
  <rect width="768" height="1024" class="bg-base-100" stroke-width="0" />
  <rect width="768" height="375.74" fill="#d4d4d4" stroke-width="0" />
  <rect x="38.4" y="15" width="180" height="60" class="bg-base-100" stroke-width="0" />
  <g>
    <rect x="123.12" y="132.98" width="521.76" height="47.05" class="bg-base-100" stroke-width="0" />
    <rect x="152.55" y="195.71" width="462.89" height="47.05" class="bg-base-100" stroke-width="0" />
  </g>
  <rect x="284" y="276.82" width="200" height="40" fill="#fafafa" stroke-width="0" />
  <g>
    <g>
      <path d="m404,435.19h325.6v217.07h-325.6v-217.07Z" fill="#d4d4d4" stroke-width="0" />
      <path d="m595.85,518.52l-62.31,62.31-29.05-29.05-100.48,100.48h325.6l-133.75-133.74Z" class="bg-base-100" isolation="isolate" opacity=".68" stroke-width="0" />
      <circle cx="452.59" cy="487.54" r="23.07" class="bg-base-100" isolation="isolate" opacity=".68" stroke-width="0" />
    </g>
    <rect x="404" y="812.73" width="325.6" height="20" fill="#d4d4d4" stroke-width="0" />
    <g>
      <rect x="404" y="677.77" width="325.6" height="40" fill="#d4d4d4" stroke-width="0" />
      <rect x="417.22" y="736.95" width="299.16" height="40" fill="#d4d4d4" stroke-width="0" />
    </g>
    <rect x="423.69" y="849.06" width="286.22" height="20" fill="#d4d4d4" stroke-width="0" />
    <rect x="410.61" y="884.42" width="312.38" height="20" fill="#d4d4d4" stroke-width="0" />
    <rect x="454.3" y="941.17" width="225" height="50" fill="#d4d4d4" stroke-width="0" />
  </g>
  <g>
    <g>
      <path d="m38.4,435.19h325.6v217.07H38.4v-217.07Z" fill="#d4d4d4" stroke-width="0" />
      <path d="m230.25,518.52l-62.31,62.31-29.05-29.05-100.48,100.48h325.6l-133.75-133.74Z" class="bg-base-100" isolation="isolate" opacity=".68" stroke-width="0" />
      <circle cx="86.99" cy="487.54" r="23.07" class="bg-base-100" isolation="isolate" opacity=".68" stroke-width="0" />
    </g>
    <rect x="38.4" y="812.73" width="325.6" height="20" fill="#d4d4d4" stroke-width="0" />
    <g>
      <rect x="38.4" y="677.77" width="325.6" height="40" fill="#d4d4d4" stroke-width="0" />
      <rect x="51.62" y="736.95" width="299.16" height="40" fill="#d4d4d4" stroke-width="0" />
    </g>
    <rect x="58.09" y="849.06" width="286.22" height="20" fill="#d4d4d4" stroke-width="0" />
    <rect x="45.01" y="884.42" width="312.38" height="20" fill="#d4d4d4" stroke-width="0" />
    <rect x="88.7" y="941.17" width="225" height="50" fill="#d4d4d4" stroke-width="0" />
  </g>
  <g>
    <rect x="689.6" y="30.23" width="40" height="4" fill="#fafafa" stroke-width="0" />
    <rect x="689.6" y="43" width="40" height="4" fill="#fafafa" stroke-width="0" />
    <rect x="689.6" y="55.77" width="40" height="4" fill="#fafafa" stroke-width="0" />
  </g>
</svg>
