<?xml version="1.0" encoding="UTF-8"?>
<svg id="desktop" xmlns="http://www.w3.org/2000/svg" viewBox="0 0 23.66 20">
	<path d="m2.02,12.1c-.3,0-.43-.11-.43-.43V2.31c0-.45.28-.71.71-.71h19.04c.44,0,.71.27.71.71v9.36c0,.32-.14.43-.44.43H2.02Z" stroke-width="0" fill="currentColor" opacity="0.25" />
	<path d="m2.28,16.48h19.09c1.43,0,2.29-.86,2.29-2.29V2.28c0-1.43-.86-2.28-2.29-2.28H2.28C.86,0,0,.85,0,2.28v11.9c0,1.43.86,2.29,2.28,2.29Zm-.26-4.38c-.3,0-.43-.11-.43-.43V2.31c0-.45.28-.71.71-.71h19.04c.44,0,.71.27.71.71v9.36c0,.32-.14.43-.44.43H2.02Zm6.67,6.74h6.27v-2.49h-6.27v2.49Zm-.06,1.16h6.39c.44,0,.79-.36.79-.8s-.36-.8-.79-.8h-6.39c-.44,0-.8.36-.8.8s.37.8.8.8Z" stroke-width="0" fill="currentColor" />
</svg>
