<?xml version="1.0" encoding="UTF-8"?>
<svg id="mobile" xmlns="http://www.w3.org/2000/svg" viewBox="0 0 12.14 20">
	<path d="m2.77,18.48c-.8,0-1.25-.43-1.25-1.18V2.7c0-.76.44-1.18,1.25-1.18h6.61c.79,0,1.24.43,1.24,1.18v14.6c0,.76-.44,1.18-1.24,1.18H2.77Z" stroke-width="0" fill="currentColor" opacity="0.25" />
	<path d="m2.57,20h7c1.54,0,2.57-.98,2.57-2.46V2.46c0-1.47-1.03-2.46-2.57-2.46H2.57C1.03,0,0,.98,0,2.46v15.09c0,1.47,1.03,2.46,2.57,2.46Zm.2-1.52c-.8,0-1.25-.43-1.25-1.18V2.7c0-.76.44-1.18,1.25-1.18h6.61c.79,0,1.24.43,1.24,1.18v14.6c0,.76-.44,1.18-1.24,1.18H2.77Zm1.3-.69h4.02c.26,0,.43-.18.43-.44s-.18-.43-.43-.43h-4.02c-.26,0-.44.17-.44.43s.19.44.44.44Zm.86-14.27h2.29c.37,0,.66-.29.66-.67s-.29-.66-.66-.66h-2.29c-.38,0-.67.29-.67.66s.29.67.67.67Z" stroke-width="0" fill="currentColor" />
</svg>
