<?xml version="1.0" encoding="UTF-8"?>
<svg id="puzzle" xmlns="http://www.w3.org/2000/svg" viewBox="0 0 25.33 20">
	<path d="m0,16.89C0,18.93,1.09,20,3.17,20h12.72c2.07,0,3.16-1.07,3.16-3.11v-3.65c0-.17.11-.25.31-.11.65.47,1.41.8,2.28.8,1.96,0,3.7-1.57,3.7-3.88s-1.75-3.87-3.7-3.87c-.87,0-1.62.33-2.28.8-.2.13-.31.05-.31-.11v-3.74c0-2.05-1.09-3.11-3.16-3.11H3.17C1.09,0,0,1.07,0,3.11v4.57C0,8.56.57,9.07,1.28,9.07c.39,0,.8-.17,1.2-.54.51-.46,1.08-.73,1.69-.73,1.18,0,2.17.88,2.17,2.21s-.99,2.21-2.17,2.21c-.61,0-1.18-.29-1.69-.75-.4-.36-.81-.53-1.2-.53C.57,10.96,0,11.47,0,12.33v4.55Zm1.67-.08v-3.45c0-.49.25-.3.44-.18.63.4,1.32.7,2.14.7,1.95,0,3.7-1.56,3.7-3.87s-1.76-3.87-3.7-3.87c-.82,0-1.51.3-2.14.7-.2.12-.44.31-.44-.18v-3.48c0-.98.57-1.53,1.53-1.53h12.65c.96,0,1.52.55,1.52,1.53v4.49c0,.87.57,1.42,1.28,1.42.39,0,.8-.17,1.2-.54.51-.46,1.08-.74,1.69-.74,1.18,0,2.17.88,2.17,2.21s-.99,2.22-2.17,2.22c-.61,0-1.18-.29-1.69-.75-.4-.37-.81-.54-1.2-.54-.71,0-1.28.55-1.28,1.42v4.41c0,.99-.56,1.53-1.52,1.53H3.2c-.96,0-1.53-.54-1.53-1.53Z" stroke-width="0" fill="currentColor" />
</svg>
