<?xml version="1.0" encoding="UTF-8"?>
<svg id="refresh" xmlns="http://www.w3.org/2000/svg" viewBox="0 0 16.41 20">
	<path d="m0,11.78c0,4.56,3.66,8.22,8.21,8.22s8.2-3.66,8.2-8.22c0-.45-.32-.77-.77-.77s-.72.33-.72.77c0,3.73-2.98,6.73-6.71,6.73S1.5,15.51,1.5,11.78s2.99-6.71,6.72-6.71c.71,0,1.37.06,1.91.19l-2.78,2.75c-.14.15-.21.33-.21.53,0,.43.32.74.73.74.23,0,.41-.07.54-.21l3.83-3.85c.17-.16.23-.34.23-.56s-.08-.41-.23-.56L8.41.22c-.13-.15-.32-.22-.54-.22-.42,0-.73.33-.73.76,0,.2.07.38.2.53l2.47,2.44c-.48-.09-1.03-.16-1.6-.16C3.66,3.58,0,7.23,0,11.78Z" stroke-width="0" fill="currentColor" />
</svg>
