<?xml version="1.0" encoding="UTF-8"?>
<svg id="share" xmlns="http://www.w3.org/2000/svg" viewBox="0 0 15.73 20">
	<path d="m15.73,8.41v8.84c0,1.83-.93,2.75-2.78,2.75H2.78c-1.85,0-2.78-.92-2.78-2.75v-8.84c0-1.83.93-2.75,2.78-2.75h2.67v1.43h-2.65c-.89,0-1.37.48-1.37,1.4v8.68c0,.92.49,1.4,1.37,1.4h10.12c.88,0,1.38-.48,1.38-1.4v-8.68c0-.92-.51-1.4-1.38-1.4h-2.64v-1.43h2.67c1.85,0,2.78.92,2.78,2.75Z" stroke-width="0" fill="currentColor" />
	<path d="m7.86,13.06c.38,0,.71-.32.71-.69V3.27l-.05-1.33.59.63,1.35,1.44c.12.14.3.21.48.21.36,0,.65-.27.65-.63,0-.19-.08-.33-.21-.46L8.37.24c-.18-.18-.33-.24-.51-.24s-.33.06-.51.24l-3,2.89c-.13.13-.2.27-.2.46,0,.36.27.63.64.63.17,0,.36-.07.49-.21l1.34-1.44.6-.63-.05,1.33v9.1c0,.37.32.69.7.69Z" stroke-width="0" fill="currentColor" />
</svg>
