<?xml version="1.0" encoding="UTF-8"?>
<svg id="sidebar" xmlns="http://www.w3.org/2000/svg" viewBox="0 0 25.62 20">
	<path d="m3.41,20h18.79c2.28,0,3.41-1.13,3.41-3.37V3.37c0-2.24-1.13-3.37-3.41-3.37H3.41C1.14,0,0,1.12,0,3.37v13.26c0,2.25,1.14,3.37,3.41,3.37Zm.02-1.75c-1.09,0-1.68-.58-1.68-1.71V3.45c0-1.13.6-1.71,1.68-1.71h18.75c1.08,0,1.68.58,1.68,1.71v13.09c0,1.13-.61,1.71-1.68,1.71H3.43Zm4.85.34h1.71V1.42h-1.71v17.16Zm-2.09-12.81c.33,0,.62-.29.62-.61s-.29-.61-.62-.61h-2.34c-.33,0-.61.28-.61.61s.28.61.61.61h2.34Zm0,2.81c.33,0,.62-.29.62-.62s-.29-.6-.62-.6h-2.34c-.33,0-.61.27-.61.6s.28.62.61.62h2.34Zm0,2.8c.33,0,.62-.27.62-.6s-.29-.61-.62-.61h-2.34c-.33,0-.61.28-.61.61s.28.6.61.6h2.34Z" stroke-width="0" fill="currentColor" />
</svg>
