<?xml version="1.0" encoding="UTF-8"?>
<svg id="tablet" xmlns="http://www.w3.org/2000/svg" viewBox="0 0 14.83 20">
	<path d="m1.43,17.42V2.59c0-.73.44-1.16,1.21-1.16h9.56c.75,0,1.21.43,1.21,1.16v14.82c0,.73-.45,1.15-1.21,1.15H2.64c-.76,0-1.21-.43-1.21-1.15Z" stroke-width="0" fill="currentColor" opacity="0.25" />
	<path d="m0,17.66c0,1.4.99,2.34,2.46,2.34h9.92c1.47,0,2.46-.94,2.46-2.34V2.35c0-1.4-.99-2.35-2.46-2.35H2.46C.99,0,0,.95,0,2.35v15.3Zm1.43-.24V2.59c0-.73.44-1.16,1.21-1.16h9.56c.75,0,1.21.43,1.21,1.16v14.82c0,.73-.45,1.15-1.21,1.15H2.64c-.76,0-1.21-.43-1.21-1.15Zm3.47.48h5.03c.25,0,.42-.17.42-.42s-.17-.41-.42-.41h-5.03c-.24,0-.41.16-.41.41s.17.42.41.42Z" stroke-width="0" fill="currentColor" fill="currentColor" />
</svg>
