<?xml version="1.0" encoding="UTF-8"?>
<svg id="tabs" xmlns="http://www.w3.org/2000/svg" viewBox="0 0 20.2 20">
	<path d="m15.57,2.96v1.46h-1.54v-1.37c0-.99-.53-1.51-1.48-1.51H3.02c-.95,0-1.48.52-1.48,1.51v9.49c0,.99.53,1.51,1.48,1.51h1.61v1.54h-1.63c-2,0-3-.99-3-2.96V2.96C0,.99.99,0,3,0h9.58c1.99,0,2.99.99,2.99,2.96Z" stroke-width="0" fill="currentColor" />
	<path d="m7.63,20h9.58c1.99,0,2.99-.99,2.99-2.96V7.38c0-1.97-1-2.96-2.99-2.96H7.63c-2,0-3,.98-3,2.96v9.66c0,1.97.99,2.96,3,2.96Zm.02-1.54c-.95,0-1.48-.52-1.48-1.51V7.47c0-.99.53-1.51,1.48-1.51h9.54c.95,0,1.48.52,1.48,1.51v9.49c0,.99-.53,1.51-1.48,1.51H7.65Z" stroke-width="0" fill="currentColor" />
</svg>
