<?xml version="1.0" encoding="UTF-8"?>
<svg id="text-resize" xmlns="http://www.w3.org/2000/svg" viewBox="0 0 30.85 20">
	<path d="m15.55,20c.7,0,1.07-.27,1.33-1.03l1.75-4.78h7.99l1.75,4.78c.26.76.61,1.03,1.31,1.03s1.18-.43,1.18-1.11c0-.23-.04-.45-.15-.73L24.35,1.25c-.31-.83-.87-1.25-1.73-1.25s-1.41.41-1.71,1.23l-6.35,16.94c-.11.28-.15.5-.15.73,0,.68.43,1.1,1.14,1.1Zm3.74-7.87l3.29-9.11h.07l3.29,9.11h-6.65Z" stroke-width="0" fill="currentColor" />
	<path d="m1.12,19.96c.56,0,.92-.28,1.14-.95l1.12-3.32h5.29l1.12,3.32c.22.69.58.95,1.15.95.68,0,1.14-.42,1.14-1.03,0-.27-.07-.53-.18-.81L7.7,6.93c-.31-.83-.88-1.26-1.68-1.26s-1.35.41-1.67,1.26L.15,18.12C.04,18.38,0,18.65,0,18.93,0,19.55.43,19.96,1.12,19.96Zm2.86-6.03l1.9-5.65h.31l1.9,5.65H3.98Z" stroke-width="0" fill="currentColor" />
</svg>
