<?xml version="1.0" encoding="UTF-8"?>
<svg id="github" xmlns="http://www.w3.org/2000/svg" viewBox="0 0 24 24">
  <path d="m9.38,19.15c-4.76,1.43-4.76-2.38-6.66-2.85m13.32,5.71v-3.68c.07-.92-.25-1.82-.89-2.48,2.99-.33,6.13-1.46,6.13-6.66,0-1.33-.51-2.61-1.43-3.57.43-1.16.4-2.45-.09-3.59,0,0-1.12-.33-3.72,1.41-2.18-.59-4.48-.59-6.66,0-2.6-1.74-3.72-1.41-3.72-1.41-.49,1.14-.52,2.42-.09,3.59-.92.97-1.43,2.26-1.43,3.6,0,5.16,3.14,6.29,6.13,6.66-.63.65-.96,1.55-.89,2.45v3.68" fill="none" stroke="currentColor" stroke-linecap="round" stroke-linejoin="round" />
</svg>
