<?xml version="1.0" encoding="UTF-8"?>
<svg id="phone" xmlns="http://www.w3.org/2000/svg" viewBox="0 0 24 24">
  <path d="m22,16.98v3.02c0,1.11-.89,2.01-2,2.02-.06,0-.13,0-.19,0-3.09-.34-6.07-1.39-8.68-3.09-2.43-1.54-4.49-3.6-6.03-6.03-1.7-2.62-2.76-5.61-3.09-8.72-.1-1.11.72-2.08,1.82-2.18.06,0,.12,0,.18,0h3.02c1.01,0,1.87.73,2.01,1.73.13.97.36,1.91.7,2.83.28.73.1,1.56-.45,2.12l-1.28,1.28c1.43,2.52,3.52,4.6,6.03,6.03l1.28-1.28c.56-.55,1.39-.73,2.12-.45.91.34,1.86.58,2.83.7,1.01.14,1.75,1.02,1.73,2.04Z" fill="none" stroke="#000" stroke-linecap="round" stroke-linejoin="round" stroke-width="2"/>
</svg>